<svg width="48" height="48" viewBox="0 0 48 48" fill="none" xmlns="http://www.w3.org/2000/svg">
<path d="M19.0155 30.2424C15.8351 30.2424 13.14 29.1397 10.93 26.9344C8.72031 24.7294 7.61548 22.046 7.61548 18.8844C7.61548 15.723 8.71798 13.0397 10.923 10.8344C13.1283 8.62936 15.8106 7.52686 18.97 7.52686C22.1296 7.52686 24.8195 8.62936 27.0395 10.8344C29.2591 13.0397 30.369 15.7209 30.369 18.8779C30.369 20.2515 30.123 21.5985 29.631 22.9189C29.1386 24.2395 28.4513 25.3935 27.569 26.3809L39.823 38.5729C39.9693 38.7042 40.0488 38.8877 40.0615 39.1234C40.0745 39.359 39.995 39.5564 39.823 39.7154C39.6513 39.8744 39.454 39.9539 39.231 39.9539C39.0083 39.9539 38.8185 39.8679 38.6615 39.6959L26.4575 27.4924C25.4678 28.3864 24.3135 29.0682 22.9945 29.5379C21.6758 30.0075 20.3495 30.2424 19.0155 30.2424ZM19.004 28.7039C21.7593 28.7039 24.086 27.7584 25.984 25.8674C27.882 23.9764 28.831 21.6487 28.831 18.8844C28.831 16.1204 27.882 13.7929 25.984 11.9019C24.086 10.0109 21.7593 9.06536 19.004 9.06536C16.242 9.06536 13.9098 10.0109 12.0075 11.9019C10.1051 13.7929 9.15398 16.1204 9.15398 18.8844C9.15398 21.6487 10.1051 23.9764 12.0075 25.8674C13.9098 27.7584 16.242 28.7039 19.004 28.7039Z" fill="#346E82"/>
</svg>
