<svg width="48" height="48" viewBox="0 0 48 48" fill="none" xmlns="http://www.w3.org/2000/svg">
<mask id="mask0_102_1077" style="mask-type:alpha" maskUnits="userSpaceOnUse" x="0" y="0" width="48" height="48">
<rect width="48" height="48" fill="#D9D9D9"/>
</mask>
<g mask="url(#mask0_102_1077)">
<path d="M23.404 40.346C23.6987 40.346 23.9993 40.2852 24.306 40.1635C24.6123 40.0419 24.8578 39.8759 25.0425 39.6655L40.854 23.8425C41.364 23.3322 41.7658 22.802 42.0595 22.252C42.3532 21.702 42.5 21.0924 42.5 20.423C42.5 19.7537 42.3532 19.1037 42.0595 18.473C41.7658 17.8424 41.364 17.2719 40.854 16.7615L33.123 9.03102C32.6127 8.52069 32.0807 8.13786 31.527 7.88252C30.973 7.62752 30.3615 7.50002 29.6925 7.50002C29.0232 7.50002 28.407 7.62752 27.844 7.88252C27.2813 8.13786 26.7577 8.52069 26.273 9.03102L24.373 10.931L28.231 14.8C28.5873 15.164 28.8873 15.6032 29.131 16.1175C29.3743 16.6315 29.496 17.1654 29.496 17.719C29.496 18.7037 29.1453 19.5384 28.444 20.223C27.743 20.9077 26.913 21.25 25.954 21.25C25.3513 21.25 24.8198 21.1635 24.3595 20.9905C23.8992 20.8175 23.4742 20.5489 23.0845 20.1845L20.204 17.2655C19.973 17.0345 19.678 16.919 19.319 16.919C18.9603 16.919 18.6655 17.0345 18.4345 17.2655L10.5385 25.1615C10.3205 25.3795 10.1525 25.6379 10.0345 25.9365C9.91649 26.2352 9.85749 26.523 9.85749 26.8C9.85749 27.3617 10.0313 27.8097 10.379 28.144C10.7263 28.4787 11.168 28.646 11.704 28.646C12.0063 28.646 12.307 28.5769 12.606 28.4385C12.9047 28.3002 13.1463 28.1387 13.331 27.954L19.181 22.104C19.327 21.9577 19.5038 21.8782 19.7115 21.8655C19.9192 21.8525 20.109 21.932 20.281 22.104C20.4527 22.2757 20.5385 22.459 20.5385 22.654C20.5385 22.8487 20.4527 23.032 20.281 23.204L14.4425 29.004C14.2245 29.2474 14.0565 29.514 13.9385 29.804C13.8205 30.0937 13.7615 30.3899 13.7615 30.6925C13.7615 31.1949 13.9435 31.6282 14.3075 31.9925C14.6718 32.3565 15.1052 32.5385 15.6075 32.5385C15.9102 32.5385 16.2108 32.4777 16.5095 32.356C16.8082 32.234 17.0498 32.0679 17.2345 31.8575L23.546 25.546C23.6923 25.4 23.8693 25.3205 24.077 25.3075C24.2847 25.2949 24.4743 25.3744 24.646 25.546C24.818 25.718 24.904 25.9014 24.904 26.096C24.904 26.291 24.818 26.4744 24.646 26.646L18.346 32.9075C18.1613 33.1179 18.0018 33.3762 17.8675 33.6825C17.7328 33.9892 17.6655 34.2937 17.6655 34.596C17.6655 35.0987 17.8475 35.532 18.2115 35.896C18.5755 36.2604 19.0088 36.4425 19.5115 36.4425C19.8142 36.4425 20.1065 36.3835 20.3885 36.2655C20.6705 36.1475 20.9205 35.9795 21.1385 35.7615L27.45 29.45C27.596 29.304 27.773 29.2245 27.981 29.2115C28.1887 29.1989 28.3783 29.2784 28.55 29.45C28.7217 29.6217 28.8075 29.805 28.8075 30C28.8075 30.195 28.7217 30.3784 28.55 30.55L22.2385 36.8615C22.0205 37.0795 21.8525 37.3462 21.7345 37.6615C21.6165 37.9769 21.5575 38.2692 21.5575 38.5385C21.5575 39.0822 21.7358 39.5194 22.0925 39.85C22.4488 40.1807 22.886 40.346 23.404 40.346ZM23.404 41.8845C22.432 41.8845 21.6025 41.5147 20.9155 40.775C20.2282 40.0354 19.9293 39.104 20.019 37.981C18.8857 38.0194 17.9422 37.6937 17.1885 37.004C16.4345 36.314 16.0768 35.3384 16.1155 34.077C14.8795 34.0897 13.9057 33.7429 13.194 33.0365C12.4827 32.3302 12.159 31.3757 12.223 30.173C11.1437 30.2117 10.2232 29.9297 9.46149 29.327C8.69983 28.7244 8.31899 27.8782 8.31899 26.7885C8.31899 26.2989 8.41466 25.809 8.60599 25.319C8.79699 24.8294 9.07066 24.4064 9.42699 24.05L17.4115 16.104C17.9268 15.563 18.5627 15.2925 19.319 15.2925C20.0757 15.2925 20.7245 15.563 21.2655 16.104L24.0115 18.85C24.2525 19.091 24.5442 19.293 24.8865 19.456C25.2288 19.6187 25.5885 19.7 25.9655 19.7C26.4758 19.7 26.9353 19.502 27.344 19.106C27.753 18.7097 27.9575 18.2435 27.9575 17.7075C27.9575 17.3795 27.88 17.0649 27.725 16.7635C27.57 16.4622 27.372 16.1782 27.131 15.9115L20.25 9.03102C19.7397 8.52069 19.2012 8.13786 18.6345 7.88252C18.0678 7.62752 17.45 7.50002 16.781 7.50002C16.1117 7.50002 15.5083 7.62752 14.971 7.88252C14.434 8.13786 13.9103 8.52069 13.4 9.03102L7.06899 15.3615C6.24866 16.1565 5.75699 17.1252 5.59399 18.2675C5.43133 19.4099 5.59749 20.4912 6.09249 21.5115C6.20783 21.6989 6.23333 21.9009 6.16899 22.1175C6.10499 22.3342 5.99233 22.5002 5.83099 22.6155C5.64366 22.7309 5.43333 22.7565 5.19999 22.6925C4.96666 22.6282 4.79233 22.5025 4.67699 22.3155C4.08466 20.9179 3.87316 19.4967 4.04249 18.052C4.21149 16.607 4.85366 15.3269 5.96899 14.2115L12.25 7.93102C12.9063 7.27435 13.6178 6.78385 14.3845 6.45952C15.1512 6.13519 15.9667 5.97302 16.831 5.97302C17.695 5.97302 18.502 6.13519 19.252 6.45952C20.002 6.78385 20.7052 7.27435 21.3615 7.93102L23.2615 9.83102L25.1615 7.93102C25.8178 7.27435 26.523 6.78385 27.277 6.45952C28.0307 6.13519 28.8397 5.97302 29.704 5.97302C30.568 5.97302 31.3813 6.13519 32.144 6.45952C32.907 6.78385 33.6167 7.27435 34.273 7.93102L41.954 15.6115C42.6103 16.2679 43.1218 17.0179 43.4885 17.8615C43.8552 18.7052 44.0385 19.559 44.0385 20.423C44.0385 21.287 43.8552 22.094 43.4885 22.844C43.1218 23.594 42.6103 24.2974 41.954 24.954L26.1425 40.7655C25.7602 41.1732 25.339 41.4617 24.879 41.631C24.4187 41.8 23.927 41.8845 23.404 41.8845Z" fill="#346E82"/>
</g>
</svg>
