<svg width="48" height="48" viewBox="0 0 48 48" fill="none" xmlns="http://www.w3.org/2000/svg">
<mask id="mask0_102_1079" style="mask-type:alpha" maskUnits="userSpaceOnUse" x="0" y="0" width="48" height="48">
<rect width="48" height="48" fill="#D9D9D9"/>
</mask>
<g mask="url(#mask0_102_1079)">
<path d="M24.1115 40C21.8935 40 19.8127 39.5763 17.869 38.729C15.9257 37.8813 14.2252 36.737 12.7675 35.296C11.3098 33.855 10.1572 32.1563 9.30951 30.2C8.46218 28.2437 8.03851 26.1565 8.03851 23.9385C8.03851 21.7462 8.46218 19.682 9.30951 17.746C10.1572 15.8103 11.3098 14.1175 12.7675 12.6675C14.2252 11.2175 15.9257 10.077 17.869 9.246C19.8127 8.41533 21.8935 8 24.1115 8C26.3678 8 28.521 8.47433 30.571 9.423C32.621 10.3717 34.423 11.6703 35.977 13.319V8.25H37.5155V15.8425H29.95V14.304H34.777C33.3617 12.8347 31.7392 11.673 29.9095 10.819C28.0802 9.96533 26.1475 9.5385 24.1115 9.5385C20.0732 9.5385 16.6412 10.925 13.8155 13.698C10.9898 16.471 9.57701 19.8602 9.57701 23.8655C9.57701 27.9192 10.986 31.3653 13.804 34.204C16.622 37.0423 20.0578 38.4615 24.1115 38.4615C27.9192 38.4615 31.1795 37.168 33.8925 34.581C36.6052 31.9937 38.1153 28.8218 38.423 25.0655H39.9615C39.7052 29.2962 38.0552 32.843 35.0115 35.706C31.9678 38.5687 28.3345 40 24.1115 40ZM30.6345 31.573L23.281 24.281V13.927H24.819V23.646L31.746 30.4615L30.6345 31.573Z" fill="#346E82"/>
</g>
</svg>
