<svg width="48" height="48" viewBox="0 0 48 48" fill="none" xmlns="http://www.w3.org/2000/svg">
<mask id="mask0_102_1075" style="mask-type:alpha" maskUnits="userSpaceOnUse" x="0" y="0" width="48" height="48">
<rect width="48" height="48" fill="#D9D9D9"/>
</mask>
<g mask="url(#mask0_102_1075)">
<path d="M24 42C21.5077 42 19.1667 41.5263 16.977 40.579C14.7873 39.6313 12.8758 38.3473 11.2425 36.727C9.60917 35.1063 8.327 33.1993 7.396 31.006C6.46533 28.8123 6 26.4565 6 23.9385C6 21.4462 6.46533 19.107 7.396 16.921C8.327 14.7353 9.60917 12.8322 11.2425 11.2115C12.8758 9.59117 14.7873 8.3175 16.977 7.3905C19.1667 6.4635 21.5077 6 24 6C26.4923 6 28.8333 6.4635 31.023 7.3905C33.2127 8.3175 35.1242 9.59117 36.7575 11.2115C38.3908 12.8322 39.673 14.7353 40.604 16.921C41.5347 19.107 42 21.4462 42 23.9385C42 26.4565 41.5347 28.8123 40.604 31.006C39.673 33.1993 38.3908 35.1063 36.7575 36.727C35.1242 38.3473 33.2127 39.6313 31.023 40.579C28.8333 41.5263 26.4923 42 24 42ZM24 40.5615C25.3207 39.0795 26.3918 37.5443 27.2135 35.956C28.0352 34.3673 28.7088 32.532 29.2345 30.45H18.777C19.3207 32.604 20.0033 34.4745 20.825 36.0615C21.6467 37.6488 22.705 39.1488 24 40.5615ZM21.904 40.346C20.8653 39.182 19.9243 37.7192 19.081 35.9575C18.2373 34.1962 17.6027 32.3603 17.177 30.45H8.754C10.0463 33.2527 11.795 35.4763 14 37.121C16.205 38.766 18.8397 39.841 21.904 40.346ZM26.146 40.3345C28.982 39.9268 31.557 38.8538 33.871 37.1155C36.1853 35.3768 37.977 33.155 39.246 30.45H30.8345C30.2732 32.404 29.579 34.2488 28.752 35.9845C27.925 37.7205 27.0563 39.1705 26.146 40.3345ZM8.2925 28.9115H16.896C16.7447 27.9858 16.6415 27.1133 16.5865 26.294C16.5315 25.475 16.504 24.6898 16.504 23.9385C16.504 23.1565 16.5335 22.37 16.5925 21.579C16.6515 20.788 16.7565 19.954 16.9075 19.077H8.2925C8.0335 19.8257 7.843 20.6063 7.721 21.419C7.59933 22.232 7.5385 23.0718 7.5385 23.9385C7.5385 24.8308 7.59933 25.6892 7.721 26.5135C7.843 27.3378 8.0335 28.1372 8.2925 28.9115ZM18.4575 28.9115H29.554C29.713 27.9295 29.822 27.0558 29.881 26.2905C29.9397 25.5252 29.969 24.7412 29.969 23.9385C29.969 23.1692 29.9397 22.4122 29.881 21.6675C29.822 20.9225 29.713 20.059 29.554 19.077H18.4575C18.2985 20.059 18.1897 20.9225 18.131 21.6675C18.072 22.4122 18.0425 23.1692 18.0425 23.9385C18.0425 24.7412 18.072 25.5252 18.131 26.2905C18.1897 27.0558 18.2985 27.9295 18.4575 28.9115ZM31.0925 28.9115H39.7075C39.9665 28.1372 40.157 27.3378 40.279 26.5135C40.4007 25.6892 40.4615 24.8308 40.4615 23.9385C40.4615 23.0718 40.4007 22.232 40.279 21.419C40.157 20.6063 39.9665 19.8257 39.7075 19.077H31.1425C31.2682 20.1153 31.3603 21.0198 31.419 21.7905C31.478 22.5608 31.5075 23.2768 31.5075 23.9385C31.5075 24.6975 31.4762 25.4725 31.4135 26.2635C31.3505 27.0545 31.2435 27.9372 31.0925 28.9115ZM30.823 17.5385H39.246C37.9923 14.7255 36.2405 12.469 33.9905 10.769C31.7405 9.069 29.109 8.01783 26.096 7.6155C27.1347 8.90017 28.061 10.3937 28.875 12.096C29.689 13.7987 30.3383 15.6128 30.823 17.5385ZM18.777 17.5385H29.2845C28.7642 15.5412 28.0642 13.6982 27.1845 12.0095C26.3052 10.3212 25.2437 8.80517 24 7.4615C22.805 8.6435 21.796 10.032 20.973 11.627C20.15 13.2217 19.418 15.1922 18.777 17.5385ZM8.754 17.5385H17.1885C17.6578 15.6358 18.2912 13.8417 19.0885 12.156C19.8858 10.47 20.8077 8.96033 21.854 7.627C18.841 8.055 16.2217 9.10883 13.996 10.7885C11.7703 12.4678 10.023 14.7178 8.754 17.5385Z" fill="#346E82"/>
</g>
</svg>
