<svg width="48" height="48" viewBox="0 0 48 48" fill="none" xmlns="http://www.w3.org/2000/svg">
<mask id="mask0_102_1074" style="mask-type:alpha" maskUnits="userSpaceOnUse" x="0" y="0" width="48" height="48">
<rect width="48" height="48" fill="#D9D9D9"/>
</mask>
<g mask="url(#mask0_102_1074)">
<path d="M26.154 19.623L37.1615 8.66551C37.2998 8.52685 37.4665 8.46401 37.6615 8.47701C37.8565 8.48968 38.027 8.56535 38.173 8.70402C38.3193 8.84235 38.3925 9.01735 38.3925 9.22902C38.3925 9.44035 38.3193 9.61918 38.173 9.76551L27.127 20.823C26.8527 21.0973 26.5283 21.2345 26.154 21.2345C25.7797 21.2345 25.4553 21.0973 25.181 20.823L19.773 15.4155C19.627 15.2692 19.5475 15.0858 19.5345 14.8655C19.5218 14.6448 19.5885 14.4615 19.7345 14.3155C19.8808 14.1692 20.0725 14.1025 20.3095 14.1155C20.5468 14.1282 20.7257 14.2077 20.846 14.354L26.154 19.623ZM27.677 42.3845C27.805 42.4359 27.9268 42.4615 28.0425 42.4615C28.1578 42.4615 28.2667 42.4359 28.369 42.3845L40.231 38.7155C40.282 37.9205 40.0942 37.3345 39.6675 36.9575C39.2405 36.5808 38.7538 36.3963 38.2075 36.404H28.5655C27.9038 36.4373 27.2313 36.4103 26.548 36.323C25.8647 36.236 25.1833 36.0707 24.504 35.827L20.8575 34.7115C20.6372 34.6295 20.4718 34.4782 20.3615 34.2575C20.2512 34.0372 20.237 33.8167 20.319 33.596C20.4013 33.4013 20.5443 33.2617 20.748 33.177C20.952 33.0923 21.1642 33.0948 21.3845 33.1845L25.0075 34.4655C25.5538 34.6502 26.1405 34.7693 26.7675 34.823C27.3942 34.877 28.0832 34.8912 28.8345 34.8655H30.404C30.404 34.0885 30.2218 33.4673 29.8575 33.002C29.4935 32.5367 29.0295 32.1963 28.4655 31.981L17.3345 27.831C17.2322 27.8053 17.1553 27.786 17.104 27.773C17.0527 27.7603 16.9885 27.754 16.9115 27.754H12.25V37.769L27.677 42.3845ZM27.373 43.8885L12.25 39.419C12.1577 40.2423 11.8212 40.8783 11.2405 41.327C10.6595 41.7757 10.073 42 9.481 42H7.57699C6.82066 42 6.17 41.7275 5.625 41.1825C5.08 40.6378 4.8075 39.9874 4.8075 39.231V28.9845C4.8075 28.2025 5.08 27.5455 5.625 27.0135C6.17 26.4815 6.82066 26.2155 7.57699 26.2155H16.823C16.9897 26.2155 17.1518 26.2322 17.3095 26.2655C17.4672 26.2988 17.6293 26.336 17.796 26.377L28.9655 30.5155C29.8268 30.8435 30.5442 31.3602 31.1175 32.0655C31.6905 32.7705 31.977 33.7038 31.977 34.8655H38.2075C39.4462 34.8655 40.3878 35.277 41.0325 36.1C41.6775 36.923 42 37.8897 42 39C42 39.2383 41.9403 39.4627 41.821 39.673C41.702 39.8833 41.5398 40.0257 41.3345 40.1L28.9575 43.8885C28.7165 43.9552 28.4588 43.9949 28.1845 44.0075C27.9102 44.0205 27.6397 43.9809 27.373 43.8885ZM6.346 39.231C6.346 39.5897 6.4615 39.8845 6.6925 40.1155C6.92316 40.3462 7.21799 40.4615 7.57699 40.4615H9.43099C9.78966 40.4615 10.0845 40.3653 10.3155 40.173C10.5462 39.9807 10.6615 39.6667 10.6615 39.231V27.754H7.57699C7.21799 27.754 6.92316 27.8693 6.6925 28.1C6.4615 28.3307 6.346 28.6255 6.346 28.9845V39.231Z" fill="#346E82"/>
</g>
</svg>
