<svg width="48" height="48" viewBox="0 0 48 48" fill="none" xmlns="http://www.w3.org/2000/svg">
<mask id="mask0_102_1076" style="mask-type:alpha" maskUnits="userSpaceOnUse" x="0" y="0" width="48" height="48">
<rect width="48" height="48" fill="#D9D9D9"/>
</mask>
<g mask="url(#mask0_102_1076)">
<path d="M16.9885 34.769H31.0115V33.231H16.9885V34.769ZM16.9885 26.5385H31.0115V25H16.9885V26.5385ZM12.769 42C12.0007 42 11.347 41.7307 10.808 41.192C10.2693 40.653 10 39.9993 10 39.231V8.769C10 8.00067 10.2693 7.347 10.808 6.808C11.347 6.26933 12.0007 6 12.769 6H29.473L38 14.527V39.231C38 39.9993 37.7307 40.653 37.192 41.192C36.653 41.7307 35.9993 42 35.231 42H12.769ZM28.704 15.223V7.5385H12.769C12.4613 7.5385 12.1793 7.66667 11.923 7.923C11.6667 8.17933 11.5385 8.46133 11.5385 8.769V39.231C11.5385 39.5387 11.6667 39.8207 11.923 40.077C12.1793 40.3333 12.4613 40.4615 12.769 40.4615H35.231C35.5387 40.4615 35.8207 40.3333 36.077 40.077C36.3333 39.8207 36.4615 39.5387 36.4615 39.231V15.223H28.704Z" fill="#346E82"/>
</g>
</svg>
