<svg width="80" height="80" viewBox="0 0 80 80" fill="none" xmlns="http://www.w3.org/2000/svg">
<rect width="80" height="80" rx="40" fill="#F8B482"/>
<mask id="mask0_69_236" style="mask-type:alpha" maskUnits="userSpaceOnUse" x="16" y="16" width="48" height="48">
<rect x="16" y="16" width="48" height="48" fill="#D9D9D9"/>
</mask>
<g mask="url(#mask0_69_236)">
<path d="M25.2522 48.9885L30.9695 54.9655C31.1086 55.1115 31.1841 55.2883 31.1962 55.496C31.2085 55.7037 31.133 55.8935 30.9695 56.0655C30.8307 56.2372 30.6626 56.323 30.4652 56.323C30.2678 56.323 30.0874 56.2372 29.9239 56.0655L23.3911 49.1925C23.2571 49.0515 23.1584 48.8977 23.0951 48.731C23.0317 48.5643 23 48.3937 23 48.219C23 48.019 23.0317 47.8422 23.0951 47.6885C23.1584 47.5345 23.2571 47.387 23.3911 47.246L29.9714 40.323C30.1105 40.177 30.2788 40.0975 30.4762 40.0845C30.6736 40.0718 30.8538 40.1513 31.017 40.323C31.1561 40.495 31.2256 40.6783 31.2256 40.873C31.2256 41.068 31.1561 41.2385 31.017 41.3845L25.2522 47.45H54.0524C54.2691 47.45 54.4451 47.5212 54.5804 47.6635C54.7157 47.8058 54.7833 47.991 54.7833 48.219C54.7833 48.4473 54.7157 48.6327 54.5804 48.775C54.4451 48.9173 54.2691 48.9885 54.0524 48.9885H25.2522ZM53.8984 32.6H25.0982C24.8815 32.6 24.7055 32.5288 24.5702 32.3865C24.4349 32.2442 24.3673 32.059 24.3673 31.831C24.3673 31.6027 24.4349 31.4173 24.5702 31.275C24.7055 31.1327 24.8815 31.0615 25.0982 31.0615H53.8984L48.1702 25.0345C48.0311 24.8885 47.9556 24.7117 47.9435 24.504C47.9312 24.2963 48.0067 24.1065 48.1702 23.9345C48.309 23.7628 48.4771 23.677 48.6745 23.677C48.8718 23.677 49.0401 23.7628 49.1792 23.9345L55.7595 30.8575C55.8935 30.9985 55.9982 31.146 56.0736 31.3C56.1493 31.454 56.1872 31.631 56.1872 31.831C56.1872 32.0053 56.1493 32.1693 56.0736 32.323C55.9982 32.477 55.8935 32.6245 55.7595 32.7655L49.2267 39.677C49.0876 39.823 48.9133 39.9025 48.7039 39.9155C48.4942 39.9282 48.3199 39.8487 48.1811 39.677C48.0177 39.505 47.9359 39.3217 47.9359 39.127C47.9359 38.932 48.0177 38.7487 48.1811 38.577L53.8984 32.6Z" fill="#346E82"/>
</g>
</svg>
