<svg width="232" height="37" viewBox="0 0 232 37" fill="none" xmlns="http://www.w3.org/2000/svg">
<path fill-rule="evenodd" clip-rule="evenodd" d="M10.6407 2.07146H16.8208L24.0735 0L31.0367 6.93855L33.3351 7.52799L33.5905 10.1047L38 18.0537L34.2375 24.4365L34.1183 30.432L24.2948 36.7979L15.5269 37L12.3262 35.9053L6.04391 30.9877L0 20.3104L2.79211 12.2772L10.6407 2.07146ZM23.8095 0.916785L23.8348 0.90957L30.2737 7.3256L19.5405 5.63186L23.8095 0.916785ZM23.3163 1.05766L17.2132 2.80077L19.2814 5.51406L23.3163 1.05766ZM16.9324 2.87984H12.3798L18.8716 5.42401L16.9324 2.87984ZM11.6403 2.87984H11.0458L4.23213 11.7399L18.9096 5.72874L11.6403 2.87984ZM3.85776 12.2267L3.56412 12.6085L12.5706 23.0623L9.21203 12.2267H3.85776ZM3.11915 13.8226L3.44485 12.8855L12.7717 23.7111L12.8418 23.9372L3.17006 24.2561L2.95404 23.8745L3.11915 13.8226ZM2.8332 14.6453L0.891713 20.2311L2.68928 23.4068L2.8332 14.6453ZM3.31988 24.5208L6.53805 30.2061L12.555 24.2163L3.31988 24.5208ZM6.67645 30.4506L6.67789 30.4531L12.2995 34.8536L12.9354 24.2199L6.67645 30.4506ZM12.6862 35.1563L12.5602 35.0576L13.228 23.8911L32.0393 21.3426L32.2925 21.4837L32.3021 21.5052L23.9987 28.6904L13.4039 23.9433L13.2443 24.1537L23.5223 36.0071L21.9519 36.0433L12.6862 35.1563ZM13.7172 35.5257L15.6549 36.1885L19.6727 36.0958L13.7172 35.5257ZM25.1232 35.2947L33.3097 29.9895L33.4246 24.2107L33.4744 24.1262L32.4551 21.8473L25.1232 35.2947ZM33.6437 23.8389L36.3694 19.2152L32.5722 21.4431L33.6437 23.8389ZM36.6573 18.7266L37.0611 18.0416L33.1154 10.9287L32.5588 20.9619L36.6573 18.7266ZM32.8673 10.4813L32.7935 10.3484L32.5775 8.1688L30.6147 7.66541L30.599 7.64981L19.6112 5.91589L32.2819 20.8556L32.8673 10.4813ZM23.8862 35.9987L23.8742 35.999L13.8508 24.4394L23.8862 28.9358V35.9987ZM24.6446 35.6048L24.1586 35.9198V28.91L31.9894 22.1337L24.6446 35.6048ZM4.41352 11.9572L17.9388 6.41798L9.27255 11.9572H4.41352ZM22.9792 16.2953L31.6466 21.1239L13.5795 23.5715L22.9792 16.2953ZM22.806 16.0873L13.0374 23.6489L9.47313 12.1498L19.2012 5.93194L22.806 16.0873ZM32.111 21.0733L23.0784 16.0413L19.6486 6.37921L32.111 21.0733Z" fill="white"/>
<path d="M219.851 7.02441C221.193 7.02441 222.56 7.02441 223.953 7.02441C225.371 7.02441 226.764 7.04477 228.131 7.08548C229.498 7.1262 230.788 7.18727 232 7.2687L231.768 10.1085H221.322C220.599 10.1085 220.058 10.251 219.697 10.536C219.361 10.821 219.194 11.2689 219.194 11.8796V23.361C219.194 23.9717 219.361 24.4196 219.697 24.7046C220.058 24.9896 220.599 25.1321 221.322 25.1321H231.768L232 27.9719C230.788 28.0533 229.498 28.1144 228.131 28.1551C226.764 28.1755 225.371 28.1857 223.953 28.1857C222.56 28.206 221.193 28.2162 219.851 28.2162C218.201 28.2162 216.872 27.8599 215.866 27.1474C214.886 26.4146 214.383 25.4374 214.357 24.216V11.0246C214.383 9.80316 214.886 8.8362 215.866 8.1237C216.872 7.39084 218.201 7.02441 219.851 7.02441ZM215.054 15.7271H230.298V18.5364H215.054V15.7271Z" fill="white"/>
<path d="M204.113 7.08582V28.1554H199.277V7.08582H204.113ZM212.393 7.08582V10.2005H190.997V7.08582H212.393Z" fill="white"/>
<path d="M184.03 7.08582C184.443 7.08582 184.804 7.17742 185.113 7.36064C185.423 7.54385 185.642 7.78814 185.771 8.0935L193.857 28.1554H188.905L182.792 11.9105C182.689 11.5847 182.586 11.259 182.482 10.9333C182.379 10.6076 182.289 10.2921 182.212 9.98671H181.128C181.051 10.2921 180.961 10.6076 180.857 10.9333C180.754 11.259 180.638 11.5847 180.509 11.9105L174.435 28.1554H169.482L177.569 8.0935C177.672 7.78814 177.878 7.54385 178.188 7.36064C178.523 7.17742 178.897 7.08582 179.31 7.08582H184.03ZM188.518 19.1474V22.1399H174.783V19.1474H188.518Z" fill="white"/>
<path d="M165.443 7.08557C166.655 7.08557 167.274 7.57414 167.3 8.55129L168.345 28.1552H163.74L162.812 10.1086H162.077L157.086 24.2466C156.854 25.0813 156.196 25.4986 155.112 25.4986H151.708C150.599 25.4986 149.915 25.0813 149.657 24.2466L144.666 10.1086H143.931L143.08 28.1552H138.476L139.52 8.55129C139.572 7.57414 140.191 7.08557 141.377 7.08557H146.214C147.245 7.08557 147.89 7.50289 148.148 8.33754L152.249 19.88C152.43 20.3686 152.572 20.8572 152.675 21.3457C152.804 21.8343 152.946 22.3229 153.101 22.8115H153.681C153.836 22.3229 153.978 21.8343 154.107 21.3457C154.235 20.8572 154.377 20.3584 154.532 19.8495L158.633 8.33754C158.865 7.50289 159.523 7.08557 160.607 7.08557H165.443Z" fill="white"/>
<path d="M123.762 7.02441C125.103 7.02441 126.47 7.02441 127.863 7.02441C129.281 7.02441 130.674 7.04477 132.041 7.08548C133.408 7.1262 134.698 7.18727 135.91 7.2687L135.678 10.1085H125.232C124.51 10.1085 123.968 10.251 123.607 10.536C123.272 10.821 123.104 11.2689 123.104 11.8796V23.361C123.104 23.9717 123.272 24.4196 123.607 24.7046C123.968 24.9896 124.51 25.1321 125.232 25.1321H135.678L135.91 27.9719C134.698 28.0533 133.408 28.1144 132.041 28.1551C130.674 28.1755 129.281 28.1857 127.863 28.1857C126.47 28.206 125.103 28.2162 123.762 28.2162C122.111 28.2162 120.782 27.8599 119.777 27.1474C118.796 26.4146 118.293 25.4374 118.268 24.216V11.0246C118.293 9.80316 118.796 8.8362 119.777 8.1237C120.782 7.39084 122.111 7.02441 123.762 7.02441ZM118.964 15.7271H134.208V18.5364H118.964V15.7271Z" fill="white"/>
<path d="M108.023 7.08582V28.1554H103.187V7.08582H108.023ZM116.303 7.08582V10.2005H94.9072V7.08582H116.303Z" fill="white"/>
<path d="M87.9402 7.08557C88.3529 7.08557 88.714 7.17718 89.0235 7.36039C89.333 7.54361 89.5523 7.78789 89.6813 8.09325L97.7676 28.1552H92.8152L86.7021 11.9102C86.5989 11.5845 86.4957 11.2588 86.3926 10.9331C86.2894 10.6074 86.1991 10.2918 86.1217 9.98646H85.0384C84.961 10.2918 84.8707 10.6074 84.7676 10.9331C84.6644 11.2588 84.5483 11.5845 84.4194 11.9102L78.345 28.1552H73.3926L81.4789 8.09325C81.5821 7.78789 81.7884 7.54361 82.0979 7.36039C82.4332 7.17718 82.8073 7.08557 83.2199 7.08557H87.9402ZM92.4283 19.1472V22.1397H78.6932V19.1472H92.4283Z" fill="white"/>
<path d="M62.9944 6.81079C65.2126 6.81079 67.0053 6.99401 68.3723 7.36043C69.7652 7.72686 70.7711 8.35793 71.3902 9.25365C72.035 10.129 72.3575 11.3708 72.3575 12.979C72.3575 14.0376 72.1898 14.9435 71.8545 15.6967C71.545 16.4295 71.0162 17.0199 70.2682 17.4678C69.5459 17.8953 68.5658 18.1701 67.3277 18.2922V18.4449C67.7662 18.5263 68.2176 18.6892 68.6819 18.9335C69.1719 19.1574 69.6104 19.4831 69.9973 19.9106C70.41 20.3381 70.7196 20.8877 70.9259 21.5595L73.3634 28.1552H68.2563L66.0509 21.6511C65.7672 20.9183 65.3803 20.4094 64.8902 20.1244C64.4001 19.819 63.7295 19.6663 62.8783 19.6663C61.2017 19.6663 59.7702 19.6663 58.5837 19.6663C57.3971 19.646 56.4041 19.6256 55.6045 19.6053C54.8307 19.5849 54.1472 19.5747 53.5539 19.5747L53.67 16.6738H62.8783C64.039 16.6535 64.9547 16.5517 65.6253 16.3685C66.2959 16.1649 66.7731 15.8188 67.0569 15.3303C67.3406 14.8213 67.4825 14.1088 67.4825 13.1928C67.4825 12.297 67.3406 11.6049 67.0569 11.1163C66.7731 10.6278 66.2959 10.2919 65.6253 10.1086C64.9547 9.90508 64.039 9.80329 62.8783 9.80329C60.6085 9.80329 58.661 9.81347 57.036 9.83383C55.411 9.85418 54.3019 9.87454 53.7087 9.8949L53.167 7.08561C54.1987 7.00418 55.166 6.94311 56.0688 6.9024C56.9973 6.86168 58.0033 6.84133 59.0866 6.84133C60.17 6.82097 61.4725 6.81079 62.9944 6.81079ZM57.9259 7.08561V28.1552H53.167V7.08561H57.9259Z" fill="white"/>
</svg>
