<svg width="232" height="37" viewBox="0 0 232 37" fill="none" xmlns="http://www.w3.org/2000/svg">
<path fill-rule="evenodd" clip-rule="evenodd" d="M10.6407 2.07146H16.8208L24.0735 0L31.0367 6.93855L33.3351 7.52799L33.5905 10.1047L38 18.0537L34.2375 24.4365L34.1183 30.432L24.2948 36.7979L15.5269 37L12.3262 35.9053L6.04391 30.9877L0 20.3104L2.79211 12.2772L10.6407 2.07146ZM23.8095 0.916785L23.8348 0.90957L30.2737 7.3256L19.5405 5.63186L23.8095 0.916785ZM23.3163 1.05766L17.2132 2.80077L19.2814 5.51406L23.3163 1.05766ZM16.9324 2.87984H12.3798L18.8716 5.42401L16.9324 2.87984ZM11.6403 2.87984H11.0458L4.23213 11.7399L18.9096 5.72874L11.6403 2.87984ZM3.85776 12.2267L3.56412 12.6085L12.5706 23.0623L9.21203 12.2267H3.85776ZM3.11915 13.8226L3.44485 12.8855L12.7717 23.7111L12.8418 23.9372L3.17006 24.2561L2.95404 23.8745L3.11915 13.8226ZM2.8332 14.6453L0.891713 20.2311L2.68928 23.4068L2.8332 14.6453ZM3.31988 24.5208L6.53805 30.2061L12.555 24.2163L3.31988 24.5208ZM6.67645 30.4506L6.67789 30.4531L12.2995 34.8536L12.9354 24.2199L6.67645 30.4506ZM12.6862 35.1563L12.5602 35.0576L13.228 23.8911L32.0393 21.3426L32.2925 21.4837L32.3021 21.5052L23.9987 28.6904L13.4039 23.9433L13.2443 24.1537L23.5223 36.0071L21.9519 36.0433L12.6862 35.1563ZM13.7172 35.5257L15.6549 36.1885L19.6727 36.0958L13.7172 35.5257ZM25.1232 35.2947L33.3097 29.9895L33.4246 24.2107L33.4744 24.1262L32.4551 21.8473L25.1232 35.2947ZM33.6437 23.8389L36.3694 19.2152L32.5722 21.4431L33.6437 23.8389ZM36.6573 18.7266L37.0611 18.0416L33.1154 10.9287L32.5588 20.9619L36.6573 18.7266ZM32.8673 10.4813L32.7935 10.3484L32.5775 8.1688L30.6147 7.66541L30.599 7.64981L19.6112 5.91589L32.2819 20.8556L32.8673 10.4813ZM23.8862 35.9987L23.8742 35.999L13.8508 24.4394L23.8862 28.9358V35.9987ZM24.6446 35.6048L24.1586 35.9198V28.91L31.9894 22.1337L24.6446 35.6048ZM4.41352 11.9572L17.9388 6.41798L9.27255 11.9572H4.41352ZM22.9792 16.2953L31.6466 21.1239L13.5795 23.5715L22.9792 16.2953ZM22.806 16.0873L13.0374 23.6489L9.47313 12.1498L19.2012 5.93194L22.806 16.0873ZM32.111 21.0733L23.0784 16.0413L19.6486 6.37921L32.111 21.0733Z" fill="#0B313F"/>
<path d="M219.851 7.02448C221.192 7.02448 222.559 7.02448 223.952 7.02448C225.371 7.02448 226.764 7.04484 228.131 7.08555C229.498 7.12626 230.788 7.18734 232 7.26877L231.768 10.1086H221.321C220.599 10.1086 220.058 10.2511 219.696 10.5361C219.361 10.8211 219.193 11.2689 219.193 11.8797V23.3611C219.193 23.9718 219.361 24.4197 219.696 24.7047C220.058 24.9897 220.599 25.1322 221.321 25.1322H231.768L232 27.972C230.788 28.0534 229.498 28.1145 228.131 28.1552C226.764 28.1755 225.371 28.1857 223.952 28.1857C222.559 28.2061 221.192 28.2163 219.851 28.2163C218.2 28.2163 216.872 27.86 215.866 27.1475C214.886 26.4146 214.383 25.4375 214.357 24.2161V11.0247C214.383 9.80323 214.886 8.83626 215.866 8.12376C216.872 7.39091 218.2 7.02448 219.851 7.02448ZM215.054 15.7272H230.298V18.5364H215.054V15.7272Z" fill="#0B313F"/>
<path d="M204.113 7.08582V28.1555H199.277V7.08582H204.113ZM212.393 7.08582V10.2005H190.997V7.08582H212.393Z" fill="#0B313F"/>
<path d="M184.03 7.08582C184.442 7.08582 184.804 7.17743 185.113 7.36064C185.423 7.54386 185.642 7.78814 185.771 8.0935L193.857 28.1555H188.905L182.792 11.9105C182.688 11.5848 182.585 11.259 182.482 10.9333C182.379 10.6076 182.289 10.2921 182.211 9.98672H181.128C181.051 10.2921 180.96 10.6076 180.857 10.9333C180.754 11.259 180.638 11.5848 180.509 11.9105L174.435 28.1555H169.482L177.568 8.0935C177.672 7.78814 177.878 7.54386 178.187 7.36064C178.523 7.17743 178.897 7.08582 179.31 7.08582H184.03ZM188.518 19.1474V22.1399H174.783V19.1474H188.518Z" fill="#0B313F"/>
<path d="M165.443 7.08565C166.655 7.08565 167.274 7.57422 167.3 8.55136L168.345 28.1553H163.74L162.812 10.1087H162.077L157.086 24.2467C156.853 25.0814 156.196 25.4987 155.112 25.4987H151.708C150.599 25.4987 149.915 25.0814 149.657 24.2467L144.666 10.1087H143.931L143.08 28.1553H138.476L139.52 8.55136C139.572 7.57422 140.191 7.08565 141.377 7.08565H146.214C147.245 7.08565 147.89 7.50297 148.148 8.33761L152.249 19.8801C152.43 20.3687 152.572 20.8572 152.675 21.3458C152.804 21.8344 152.946 22.323 153.101 22.8115H153.681C153.836 22.323 153.977 21.8344 154.106 21.3458C154.235 20.8572 154.377 20.3585 154.532 19.8496L158.633 8.33761C158.865 7.50297 159.523 7.08565 160.606 7.08565H165.443Z" fill="#0B313F"/>
<path d="M123.761 7.02448C125.103 7.02448 126.47 7.02448 127.863 7.02448C129.281 7.02448 130.674 7.04484 132.041 7.08555C133.408 7.12626 134.698 7.18734 135.91 7.26877L135.678 10.1086H125.232C124.509 10.1086 123.968 10.2511 123.607 10.5361C123.271 10.8211 123.104 11.2689 123.104 11.8797V23.3611C123.104 23.9718 123.271 24.4197 123.607 24.7047C123.968 24.9897 124.509 25.1322 125.232 25.1322H135.678L135.91 27.972C134.698 28.0534 133.408 28.1145 132.041 28.1552C130.674 28.1755 129.281 28.1857 127.863 28.1857C126.47 28.2061 125.103 28.2163 123.761 28.2163C122.111 28.2163 120.782 27.86 119.776 27.1475C118.796 26.4146 118.293 25.4375 118.267 24.2161V11.0247C118.293 9.80323 118.796 8.83626 119.776 8.12376C120.782 7.39091 122.111 7.02448 123.761 7.02448ZM118.964 15.7272H134.208V18.5364H118.964V15.7272Z" fill="#0B313F"/>
<path d="M108.023 7.08582V28.1555H103.187V7.08582H108.023ZM116.303 7.08582V10.2005H94.9071V7.08582H116.303Z" fill="#0B313F"/>
<path d="M87.9403 7.08565C88.353 7.08565 88.7141 7.17726 89.0236 7.36047C89.3331 7.54368 89.5524 7.78797 89.6813 8.09333L97.7676 28.1553H92.8153L86.7022 11.9103C86.599 11.5846 86.4958 11.2589 86.3927 10.9331C86.2895 10.6074 86.1992 10.2919 86.1218 9.98654H85.0385C84.9611 10.2919 84.8708 10.6074 84.7677 10.9331C84.6645 11.2589 84.5484 11.5846 84.4194 11.9103L78.345 28.1553H73.3927L81.479 8.09333C81.5821 7.78797 81.7885 7.54368 82.098 7.36047C82.4333 7.17726 82.8073 7.08565 83.22 7.08565H87.9403ZM92.4284 19.1472V22.1397H78.6933V19.1472H92.4284Z" fill="#0B313F"/>
<path d="M62.994 6.81081C65.2123 6.81081 67.0049 6.99402 68.372 7.36045C69.7649 7.72688 70.7708 8.35795 71.3899 9.25367C72.0347 10.129 72.3571 11.3708 72.3571 12.979C72.3571 14.0376 72.1895 14.9435 71.8541 15.6967C71.5446 16.4296 71.0158 17.0199 70.2678 17.4678C69.5456 17.8953 68.5655 18.1701 67.3274 18.2922V18.4449C67.7658 18.5263 68.2172 18.6892 68.6815 18.9335C69.1716 19.1574 69.6101 19.4831 69.997 19.9106C70.4097 20.3381 70.7192 20.8878 70.9256 21.5596L73.3631 28.1553H68.2559L66.0506 21.6512C65.7668 20.9183 65.3799 20.4094 64.8899 20.1244C64.3998 19.819 63.7291 19.6663 62.878 19.6663C61.2014 19.6663 59.7698 19.6663 58.5833 19.6663C57.3968 19.646 56.4038 19.6256 55.6042 19.6053C54.8303 19.5849 54.1468 19.5747 53.5536 19.5747L53.6696 16.6738H62.878C64.0387 16.6535 64.9543 16.5517 65.625 16.3685C66.2956 16.1649 66.7728 15.8188 67.0565 15.3303C67.3403 14.8213 67.4821 14.1088 67.4821 13.1928C67.4821 12.2971 67.3403 11.6049 67.0565 11.1163C66.7728 10.6278 66.2956 10.2919 65.625 10.1087C64.9543 9.90509 64.0387 9.80331 62.878 9.80331C60.6081 9.80331 58.6607 9.81349 57.0357 9.83384C55.4107 9.8542 54.3016 9.87456 53.7083 9.89492L53.1667 7.08563C54.1984 7.0042 55.1657 6.94313 56.0684 6.90242C56.997 6.8617 58.003 6.84135 59.0863 6.84135C60.1696 6.82099 61.4722 6.81081 62.994 6.81081ZM57.9256 7.08563V28.1553H53.1667V7.08563H57.9256Z" fill="#0B313F"/>
</svg>
