<svg width="48" height="48" viewBox="0 0 48 48" fill="none" xmlns="http://www.w3.org/2000/svg">
<g clip-path="url(#clip0_152_6582)">
<mask id="mask0_152_6582" style="mask-type:alpha" maskUnits="userSpaceOnUse" x="0" y="0" width="48" height="48">
<circle cx="24" cy="24" r="24" fill="#D9D9D9"/>
</mask>
<g mask="url(#mask0_152_6582)">
<path d="M-8 0H56V48H-8V0Z" fill="#E41E20"/>
<path d="M19.2 9.33C18.74 9.33 17.97 9.48 17.98 9.83C16.68 9.62 16.55 10.15 16.63 10.63C16.75 10.44 16.9 10.33 17.02 10.32C17.19 10.29 17.37 10.35 17.56 10.46C17.7392 10.5724 17.901 10.7106 18.04 10.87C17.58 10.98 17.22 10.91 16.86 10.85C16.6566 10.8066 16.4632 10.7252 16.29 10.61C16.14 10.51 16.09 10.41 15.86 10.18C15.59 9.9 15.3 9.98 15.39 10.41C15.6 10.81 15.95 10.99 16.39 11.07C16.6 11.1 16.92 11.17 17.28 11.17C17.64 11.17 18.04 11.12 18.26 11.17C18.13 11.25 17.98 11.4 17.68 11.45C17.38 11.51 16.93 11.27 16.65 11.21C16.68 11.44 16.98 11.66 17.56 11.78C18.52 11.98 19.31 12.14 19.84 12.43C20.2592 12.6637 20.6293 12.9761 20.93 13.35C21.4 13.9 21.43 14.33 21.45 14.43C21.55 15.31 21.24 15.81 20.66 15.97C20.38 16.04 19.86 15.9 19.68 15.68C19.48 15.46 19.31 15.08 19.36 14.48C19.41 14.26 19.67 13.65 19.45 13.53C18.4073 12.957 17.3284 12.4526 16.22 12.02C15.97 11.92 15.77 12.26 15.69 12.4C14.9516 12.2971 14.2454 12.031 13.6227 11.621C13 11.2111 12.4764 10.6676 12.09 10.03C11.67 9.27 10.96 10.03 11.08 10.76C11.27 11.56 11.88 12.14 12.62 12.56C13.37 12.97 14.32 13.38 15.27 13.36C15.79 13.46 15.78 14.12 15.17 14.25C13.96 14.25 12.99 14.23 12.08 13.35C11.39 12.72 11.01 13.47 11.2 13.89C11.54 15.2 13.41 15.57 15.3 15.15C16.04 15.03 15.6 15.81 15.4 15.82C14.6 16.39 13.19 16.94 11.94 15.82C11.37 15.38 10.98 15.74 11.2 16.37C11.75 18.02 13.87 17.67 15.32 16.87C15.69 16.66 16.03 17.14 15.58 17.51C13.77 18.77 12.87 18.79 12.05 18.31C11.03 17.9 10.95 19.03 11.55 19.41C12.22 19.81 13.93 19.51 15.19 18.71C15.73 18.31 15.75 18.94 15.41 19.19C13.92 20.48 13.33 20.82 11.78 20.61C11.01 20.55 11.02 21.5 11.62 21.87C12.45 22.38 14.07 21.54 15.32 20.49C15.85 20.21 15.94 20.67 15.68 21.22C15.1265 22.0033 14.3739 22.6247 13.5 23.02C12.8 23.29 12.14 23.25 11.67 23.09C11.09 22.89 11.02 23.49 11.34 24.03C11.53 24.36 12.32 24.46 13.18 24.16C14.04 23.86 14.96 23.14 15.59 22.31C16.14 21.82 16.08 22.47 15.82 22.93C14.56 24.93 13.4 25.67 11.87 25.55C11.2 25.43 11.04 25.95 11.47 26.45C12.23 27.07 13.17 27.05 14.01 26.43C14.74 25.73 16.15 24.19 16.89 23.37C17.41 22.96 17.58 23.37 17.42 24.21C17.28 24.69 16.94 25.21 15.99 25.57C15.34 25.94 15.83 26.45 16.31 26.47C16.58 26.47 17.12 26.15 17.54 25.69C18.08 25.07 18.12 24.66 18.42 23.7C18.7 23.24 19.21 23.46 19.21 23.94C18.96 24.9 18.76 25.07 18.26 25.46C17.79 25.91 18.59 26.06 18.86 25.87C19.64 25.35 19.92 24.67 20.18 24.05C20.38 23.61 20.92 23.82 20.66 24.55C20.06 26.29 19.06 26.97 17.33 27.33C17.16 27.36 17.05 27.46 17.11 27.66L17.81 28.36C16.74 28.68 15.87 28.86 14.79 29.16L13.31 28.18C13.18 27.86 13.11 27.36 12.33 27.71C11.81 27.47 11.56 27.56 11.27 27.81C11.69 27.81 11.87 27.93 12.04 28.12C12.26 28.69 12.76 28.75 13.27 28.59C13.6 28.86 13.77 29.08 14.11 29.36L12.44 29.31C11.84 28.68 11.38 28.71 10.96 29.21C10.63 29.26 10.5 29.26 10.28 29.65C10.62 29.51 10.84 29.47 10.99 29.62C11.62 29.99 12.03 29.91 12.34 29.62L14.09 29.73C13.87 29.93 13.57 30.03 13.34 30.21C12.44 29.95 11.96 30.31 11.8 31.04C11.6736 31.3326 11.6321 31.6549 11.68 31.97C11.76 31.67 11.91 31.42 12.17 31.27C12.97 31.47 13.27 31.14 13.32 30.66C13.72 30.34 14.3 30.27 14.69 29.95C15.15 30.09 15.37 30.18 15.83 30.33C15.99 30.83 16.36 31.02 16.96 30.89C17.66 30.91 17.54 31.21 17.6 31.44C17.8 31.11 17.79 30.78 17.35 30.48C17.19 30.05 16.83 29.85 16.37 30.1C15.93 29.98 15.82 29.8 15.38 29.67C16.48 29.32 17.26 29.24 18.36 28.89L19.13 29.57C19.28 29.66 19.42 29.68 19.51 29.57C20.2 28.57 20.51 27.7 21.14 27.04C21.39 26.76 21.7 26.4 22.04 26.31C22.21 26.26 22.42 26.29 22.56 26.44C22.69 26.58 22.8 26.85 22.76 27.26C22.69 27.83 22.55 28.02 22.39 28.36C22.22 28.71 22.03 28.92 21.82 29.19C21.42 29.72 20.88 30.03 20.56 30.24C19.92 30.65 19.66 30.47 19.16 30.44C18.52 30.51 18.36 30.82 18.88 31.25C19.36 31.51 19.8 31.54 20.16 31.47C20.46 31.41 20.82 31.02 21.08 30.81C21.36 30.48 21.84 30.87 21.51 31.26C20.92 31.96 20.34 32.42 19.61 32.41C18.84 32.51 18.99 32.94 19.49 33.15C20.41 33.52 21.23 32.82 21.65 32.35C21.97 32 22.2 31.99 22.15 32.54C21.82 33.53 21.39 33.91 20.67 33.96C20.09 33.9 20.08 34.36 20.51 34.66C21.47 35.32 22.17 34.18 22.5 33.5C22.73 32.88 23.09 33.17 23.13 33.68C23.13 34.37 22.83 34.92 22 35.62C22.63 36.63 23.37 37.66 24 38.67L25.92 17.27L24 13.9C23.8 13.72 23.12 12.92 22.95 12.8C22.88 12.74 22.85 12.7 22.94 12.66C23.03 12.62 23.24 12.58 23.39 12.56C22.99 12.15 22.63 12.02 21.86 11.8C22.05 11.72 22.23 11.76 22.79 11.74C22.4464 11.2783 21.978 10.9244 21.44 10.72C21.86 10.42 21.94 10.4 22.36 10.05C21.6976 9.99882 21.0432 9.87131 20.41 9.67C20.0319 9.4903 19.6262 9.37537 19.21 9.33H19.2ZM19.28 10.17C19.66 10.17 19.89 10.3 19.89 10.46C19.89 10.62 19.66 10.75 19.28 10.75C18.9 10.75 18.66 10.6 18.66 10.45C18.66 10.29 18.9 10.17 19.28 10.17Z" fill="black"/>
<path d="M28.8133 9.33008C29.2733 9.33008 30.0433 9.48008 30.0333 9.83008C31.3333 9.62008 31.4633 10.1501 31.3833 10.6301C31.2633 10.4401 31.1133 10.3301 30.9933 10.3201C30.8233 10.2901 30.6433 10.3501 30.4533 10.4601C30.2741 10.5725 30.1123 10.7106 29.9733 10.8701C30.4333 10.9801 30.7933 10.9101 31.1533 10.8501C31.3567 10.8067 31.5501 10.7253 31.7233 10.6101C31.8733 10.5101 31.9233 10.4101 32.1533 10.1801C32.4233 9.90008 32.7133 9.98008 32.6233 10.4101C32.4133 10.8101 32.0633 10.9901 31.6233 11.0701C31.4133 11.1001 31.0933 11.1701 30.7333 11.1701C30.3733 11.1701 29.9733 11.1201 29.7533 11.1701C29.8833 11.2501 30.0333 11.4001 30.3333 11.4501C30.6333 11.5101 31.0833 11.2701 31.3633 11.2101C31.3333 11.4401 31.0333 11.6601 30.4533 11.7801C29.4933 11.9801 28.7033 12.1401 28.1733 12.4301C27.7541 12.6638 27.384 12.9762 27.0833 13.3501C26.6133 13.9001 26.5833 14.3301 26.5633 14.4301C26.4633 15.3101 26.7733 15.8101 27.3533 15.9701C27.6333 16.0401 28.1533 15.9001 28.3333 15.6801C28.5333 15.4601 28.7033 15.0801 28.6533 14.4801C28.6033 14.2601 28.3433 13.6501 28.5633 13.5301C29.606 12.9571 30.6849 12.4527 31.7933 12.0201C32.0433 11.9201 32.2433 12.2601 32.3233 12.4001C33.0617 12.2971 33.7679 12.031 34.3906 11.6211C35.0133 11.2112 35.5369 10.6677 35.9233 10.0301C36.3433 9.27008 37.0533 10.0301 36.9333 10.7601C36.7433 11.5601 36.1333 12.1401 35.3933 12.5601C34.6433 12.9701 33.6933 13.3801 32.7433 13.3601C32.2233 13.4601 32.2333 14.1201 32.8433 14.2501C34.0533 14.2501 35.0233 14.2301 35.9333 13.3501C36.6233 12.7201 37.0033 13.4701 36.8133 13.8901C36.4733 15.2001 34.6033 15.5701 32.7133 15.1501C31.9733 15.0301 32.4133 15.8101 32.6133 15.8201C33.4133 16.3901 34.8233 16.9401 36.0733 15.8201C36.6433 15.3801 37.0333 15.7401 36.8133 16.3701C36.2633 18.0201 34.1433 17.6701 32.6933 16.8701C32.3233 16.6601 31.9833 17.1401 32.4333 17.5101C34.2433 18.7701 35.1433 18.7901 35.9633 18.3101C36.9833 17.9001 37.0633 19.0301 36.4633 19.4101C35.7933 19.8101 34.0833 19.5101 32.8233 18.7101C32.2833 18.3101 32.2633 18.9401 32.6033 19.1901C34.0933 20.4801 34.6833 20.8201 36.2333 20.6101C37.0033 20.5501 36.9933 21.5001 36.3933 21.8701C35.5633 22.3801 33.9433 21.5401 32.6933 20.4901C32.1633 20.2101 32.0733 20.6701 32.3333 21.2201C32.8868 22.0034 33.6394 22.6247 34.5133 23.0201C35.2133 23.2901 35.8733 23.2501 36.3433 23.0901C36.9233 22.8901 36.9933 23.4901 36.6733 24.0301C36.4833 24.3601 35.6933 24.4601 34.8333 24.1601C33.9733 23.8601 33.0533 23.1401 32.4233 22.3101C31.8733 21.8201 31.9333 22.4701 32.1933 22.9301C33.4533 24.9301 34.6133 25.6701 36.1433 25.5501C36.8133 25.4301 36.9733 25.9501 36.5433 26.4501C35.7833 27.0701 34.8433 27.0501 34.0033 26.4301C33.2733 25.7301 31.8633 24.1901 31.1233 23.3701C30.6033 22.9601 30.4333 23.3701 30.5933 24.2101C30.7333 24.6901 31.0733 25.2101 32.0233 25.5701C32.6733 25.9401 32.1833 26.4501 31.7033 26.4701C31.4333 26.4701 30.8933 26.1501 30.4733 25.6901C29.9333 25.0701 29.8933 24.6601 29.5933 23.7001C29.3133 23.2401 28.8033 23.4601 28.8033 23.9401C29.0533 24.9001 29.2533 25.0701 29.7533 25.4601C30.2233 25.9101 29.4233 26.0601 29.1533 25.8701C28.3733 25.3501 28.0933 24.6701 27.8333 24.0501C27.6333 23.6101 27.0933 23.8201 27.3533 24.5501C27.9533 26.2901 28.9533 26.9701 30.6833 27.3301C30.8533 27.3601 30.9633 27.4601 30.9033 27.6601L30.2033 28.3601C31.2733 28.6801 32.1433 28.8601 33.2233 29.1601L34.7033 28.1801C34.8333 27.8601 34.9033 27.3601 35.6833 27.7101C36.2033 27.4701 36.4533 27.5601 36.7433 27.8101C36.3233 27.8101 36.1433 27.9301 35.9733 28.1201C35.7533 28.6901 35.2533 28.7501 34.7433 28.5901C34.4133 28.8601 34.2433 29.0801 33.9033 29.3601L35.5733 29.3101C36.1733 28.6801 36.6333 28.7101 37.0533 29.2101C37.3833 29.2601 37.5133 29.2601 37.7333 29.6501C37.3933 29.5101 37.1733 29.4701 37.0233 29.6201C36.3933 29.9901 35.9833 29.9101 35.6733 29.6201L33.9233 29.7301C34.1433 29.9301 34.4433 30.0301 34.6733 30.2101C35.5733 29.9501 36.0533 30.3101 36.2133 31.0401C36.3397 31.3327 36.3813 31.655 36.3333 31.9701C36.2533 31.6701 36.1033 31.4201 35.8433 31.2701C35.0433 31.4701 34.7433 31.1401 34.6933 30.6601C34.2933 30.3401 33.7133 30.2701 33.3233 29.9501C32.8633 30.0901 32.6433 30.1801 32.1833 30.3301C32.0233 30.8301 31.6533 31.0201 31.0533 30.8901C30.3533 30.9101 30.4733 31.2101 30.4133 31.4401C30.2133 31.1101 30.2233 30.7801 30.6633 30.4801C30.8233 30.0501 31.1833 29.8501 31.6433 30.1001C32.0833 29.9801 32.1933 29.8001 32.6333 29.6701C31.5333 29.3201 30.7533 29.2401 29.6533 28.8901L28.8833 29.5701C28.7333 29.6601 28.5933 29.6801 28.5033 29.5701C27.8133 28.5701 27.5033 27.7001 26.8733 27.0401C26.6233 26.7601 26.3133 26.4001 25.9733 26.3101C25.8033 26.2601 25.5933 26.2901 25.4533 26.4401C25.3233 26.5801 25.2133 26.8501 25.2533 27.2601C25.3233 27.8301 25.4633 28.0201 25.6233 28.3601C25.7933 28.7101 25.9833 28.9201 26.1933 29.1901C26.5933 29.7201 27.1333 30.0301 27.4533 30.2401C28.0933 30.6501 28.3533 30.4701 28.8533 30.4401C29.4933 30.5101 29.6533 30.8201 29.1333 31.2501C28.6533 31.5101 28.2133 31.5401 27.8533 31.4701C27.5533 31.4101 27.1933 31.0201 26.9333 30.8101C26.6533 30.4801 26.1733 30.8701 26.5033 31.2601C27.0933 31.9601 27.6733 32.4201 28.4033 32.4101C29.1733 32.5101 29.0233 32.9401 28.5233 33.1501C27.6033 33.5201 26.7833 32.8201 26.3633 32.3501C26.0433 32.0001 25.8133 31.9901 25.8633 32.5401C26.1933 33.5301 26.6233 33.9101 27.3433 33.9601C27.9233 33.9001 27.9333 34.3601 27.5033 34.6601C26.5433 35.3201 25.8433 34.1801 25.5133 33.5001C25.2833 32.8801 24.9233 33.1701 24.8833 33.6801C24.8833 34.3701 25.1833 34.9201 26.0133 35.6201C25.3833 36.6301 24.6433 37.6601 24.0133 38.6701L22.0933 17.2701L24.0133 13.9001C24.2133 13.7201 24.8933 12.9201 25.0633 12.8001C25.1333 12.7401 25.1633 12.7001 25.0733 12.6601C24.9833 12.6201 24.7733 12.5801 24.6233 12.5601C25.0233 12.1501 25.3833 12.0201 26.1533 11.8001C25.9633 11.7201 25.7833 11.7601 25.2233 11.7401C25.5669 11.2784 26.0353 10.9245 26.5733 10.7201C26.1533 10.4201 26.0733 10.4001 25.6533 10.0501C26.3157 9.9989 26.9701 9.87139 27.6033 9.67008C27.9814 9.49038 28.3871 9.37545 28.8033 9.33008H28.8133ZM28.7333 10.1701C28.3533 10.1701 28.1233 10.3001 28.1233 10.4601C28.1233 10.6201 28.3533 10.7501 28.7333 10.7501C29.1133 10.7501 29.3533 10.6001 29.3533 10.4501C29.3533 10.2901 29.1133 10.1701 28.7333 10.1701Z" fill="black"/>
</g>
</g>
<defs>
<clipPath id="clip0_152_6582">
<rect width="48" height="48" fill="white"/>
</clipPath>
</defs>
</svg>
