<svg width="48" height="48" viewBox="0 0 48 48" fill="none" xmlns="http://www.w3.org/2000/svg">
<g clip-path="url(#clip0_152_6574)">
<mask id="mask0_152_6574" style="mask-type:alpha" maskUnits="userSpaceOnUse" x="0" y="0" width="48" height="48">
<circle cx="24" cy="24" r="24" fill="#D9D9D9"/>
</mask>
<g mask="url(#mask0_152_6574)">
<path d="M-8 0H56V48H-8V0Z" fill="#74ACDF"/>
<path d="M-8 16H56V32H-8V16Z" fill="white"/>
<path d="M23.6929 24.1248L26.4289 30.0768C26.4289 30.0768 26.4769 30.192 26.5537 30.1632C26.6305 30.1248 26.5825 30.0096 26.5825 30.0096L24.3073 23.8656M24.2401 26.1888C24.2017 27.0912 24.7585 27.5904 24.6913 28.3968C24.6145 29.2128 25.0561 29.664 25.1713 29.9808C25.2673 30.2976 25.0561 30.48 25.1425 30.528C25.2385 30.576 25.4305 30.3264 25.3729 29.8752C25.3057 29.4336 24.9697 29.2992 25.0465 28.3104C25.1233 27.3216 24.6433 27.0912 24.7585 26.1984" fill="#F6B40E"/>
<path d="M25.1712 30.5856C25.152 30.5856 25.1424 30.5856 25.1232 30.576C25.0464 30.5376 25.0752 30.4512 25.104 30.384C25.1328 30.288 25.1808 30.1632 25.1328 30C25.104 29.9232 25.056 29.8368 24.9984 29.7408C24.8256 29.4336 24.5952 29.0208 24.6528 28.3968C24.6816 28.0032 24.5664 27.696 24.4416 27.36C24.3168 27.0144 24.1824 26.6592 24.2016 26.1984H24.3072C24.288 26.64 24.4128 26.9856 24.5376 27.3216C24.6624 27.6672 24.7872 27.9936 24.7584 28.4064C24.7008 29.0016 24.9312 29.3952 25.0944 29.6832C25.152 29.7888 25.2096 29.8752 25.2384 29.9616C25.296 30.1632 25.248 30.3168 25.2096 30.4128C25.2 30.432 25.1904 30.4608 25.1904 30.48C25.1904 30.48 25.2 30.48 25.2096 30.4704C25.2864 30.4224 25.3824 30.2112 25.3344 29.8848C25.3152 29.7408 25.2672 29.6352 25.2096 29.5104C25.0944 29.2608 24.96 28.9728 25.008 28.3008C25.0464 27.8208 24.9504 27.5232 24.8544 27.2352C24.768 26.9856 24.6912 26.7456 24.7008 26.4096L23.6544 24.144L23.7504 24.096L24.7104 26.1888V26.1792L24.816 26.1888C24.8064 26.256 24.8064 26.3232 24.7968 26.3808L26.4768 30.0384C26.4864 30.0576 26.5152 30.1056 26.5344 30.096C26.5632 30.0864 26.5344 30.0096 26.5344 30.0096L24.2592 23.8656L24.3552 23.8272L26.6304 29.9712C26.6496 30.0288 26.6688 30.144 26.5728 30.192C26.4864 30.2304 26.4096 30.1536 26.3712 30.0768L24.7968 26.6496C24.816 26.8512 24.8736 27.0144 24.9312 27.1872C25.0272 27.4848 25.1328 27.792 25.0944 28.3008C25.0464 28.944 25.1712 29.2128 25.2864 29.4528C25.344 29.5776 25.4016 29.6928 25.4208 29.856C25.4688 30.2112 25.3632 30.4608 25.248 30.5472C25.2288 30.576 25.1904 30.5856 25.1712 30.5856Z" fill="#85340A"/>
<path d="M23.6896 23.8714L21.4147 30.0158C21.4147 30.0158 21.3669 30.1311 21.4468 30.1641C21.5302 30.1883 21.578 30.073 21.578 30.073L24.3141 24.1197M22.6242 25.7161C21.9571 26.3231 21.9978 27.0777 21.3801 27.5907C20.7498 28.109 20.7474 28.7418 20.5974 29.0538C20.4459 29.3443 20.1645 29.3213 20.1846 29.4231C20.2173 29.5198 20.5333 29.4844 20.8088 29.1205C21.0716 28.7618 20.9314 28.4232 21.6862 27.7799C22.441 27.1366 22.2635 26.637 22.9727 26.0787" fill="#F6B40E"/>
<path d="M21.4284 30.2085C21.3397 30.1717 21.3409 30.0684 21.374 29.9885L22.6811 26.4567C22.5544 26.612 22.4794 26.768 22.4007 26.9328C22.2617 27.2182 22.1139 27.4998 21.7284 27.8285C21.2419 28.2505 21.1368 28.5291 21.0465 28.7722C21.004 28.9001 20.9525 29.0242 20.8583 29.1515C20.6373 29.434 20.3865 29.5379 20.2513 29.5131C20.1944 29.4999 20.1626 29.4764 20.1418 29.4262C20.1143 29.3421 20.1932 29.302 20.2596 29.2672C20.3511 29.2219 20.4677 29.1663 20.5515 29.014C20.5809 28.9431 20.6125 28.8418 20.6477 28.7317C20.7445 28.3977 20.8624 27.9374 21.3504 27.5369C21.6512 27.2874 21.7886 26.9806 21.9334 26.6562C22.0819 26.3228 22.2466 25.9754 22.5856 25.6586L22.6559 25.7397C22.3331 26.0424 22.1758 26.3721 22.0273 26.7054C21.8788 27.0388 21.7252 27.3596 21.4171 27.6268C20.9578 28.0081 20.8383 28.447 20.7489 28.7633C20.7189 28.8859 20.691 28.9783 20.6454 29.0633C20.5469 29.2511 20.4015 29.326 20.3012 29.3675C20.2761 29.3779 20.2599 29.392 20.2473 29.3972C20.2473 29.3972 20.2562 29.4008 20.2651 29.4045C20.3523 29.4198 20.5707 29.3441 20.7754 29.0756C20.8623 28.9661 20.9012 28.8471 20.9438 28.7193C21.0414 28.4584 21.1449 28.1584 21.6565 27.726C22.0258 27.4114 22.1611 27.1349 22.3053 26.8621C22.4222 26.63 22.5355 26.4068 22.7772 26.1744L23.6437 23.8316L23.7413 23.8721L22.9394 26.0337L22.9431 26.0249L23.0134 26.106C22.9559 26.1445 22.9072 26.1867 22.8674 26.2325L21.47 30.0075C21.4627 30.0253 21.4495 30.0822 21.4673 30.0895C21.4939 30.1005 21.5233 30.0296 21.5233 30.0296L24.2594 24.0763L24.3569 24.1167L21.6208 30.07C21.5966 30.1535 21.5348 30.2526 21.4284 30.2085Z" fill="#85340A"/>
<path d="M23.8711 23.6946L17.9178 26.4302C17.9178 26.4302 17.8024 26.4777 17.8295 26.5592C17.8635 26.6339 17.9789 26.5864 17.9789 26.5864L24.1222 24.3123M21.8074 24.2376C20.9046 24.2037 20.4091 24.7535 19.6013 24.6924C18.7867 24.611 18.3387 25.059 18.0196 25.1744C17.7074 25.2694 17.5241 25.059 17.4766 25.1473C17.429 25.2491 17.6802 25.4324 18.1282 25.3781C18.5695 25.317 18.7052 24.9776 19.6895 25.0522C20.6738 25.1269 20.9114 24.6449 21.8007 24.7603" fill="#F6B40E"/>
<path d="M17.8159 26.6135C17.8091 26.6067 17.7956 26.5931 17.7956 26.5796C17.7616 26.4913 17.8295 26.4099 17.911 26.3827L21.3322 24.8078C21.1354 24.8282 20.9724 24.8825 20.8027 24.9436C20.5041 25.0386 20.1986 25.1405 19.6963 25.0997C19.0514 25.0522 18.7799 25.1744 18.5423 25.2898C18.4133 25.3509 18.2979 25.3984 18.1418 25.4323C17.782 25.4799 17.5308 25.378 17.4494 25.2559C17.4154 25.2083 17.4086 25.1608 17.429 25.1269C17.4697 25.0454 17.5512 25.0726 17.6259 25.1065C17.7141 25.1405 17.8431 25.188 18.0128 25.1269C18.0807 25.0997 18.1757 25.0454 18.2775 24.9979C18.583 24.8282 18.9971 24.5906 19.6148 24.6517C20.0017 24.6856 20.3208 24.5702 20.6534 24.4413C20.9996 24.3123 21.3526 24.1765 21.821 24.1969L21.8142 24.2987C21.373 24.2783 21.0268 24.4073 20.6941 24.5363C20.3479 24.6653 20.0221 24.7875 19.608 24.7535C19.0174 24.6924 18.6237 24.9232 18.325 25.0861C18.2232 25.1472 18.1282 25.2015 18.0467 25.2287C17.8363 25.2898 17.6937 25.2423 17.5919 25.2083C17.5716 25.2015 17.5444 25.188 17.5308 25.188C17.5308 25.188 17.5376 25.1948 17.5376 25.2083C17.5851 25.283 17.7956 25.3848 18.1282 25.3373C18.2707 25.3169 18.3726 25.2694 18.5015 25.2083C18.7527 25.0929 19.0378 24.9572 19.7031 25.0115C20.185 25.0454 20.4837 24.9504 20.7688 24.8553C21.0132 24.7739 21.2576 24.6924 21.5902 24.6992L23.8574 23.6538L23.8982 23.7489L21.8006 24.7196C21.8006 24.7196 21.8006 24.7196 21.8142 24.7196L21.8006 24.8282C21.7327 24.8146 21.6648 24.8146 21.6105 24.8146L17.9517 26.4913C17.9313 26.4981 17.8838 26.532 17.8906 26.5524C17.9042 26.5796 17.9721 26.5524 17.9721 26.5524L24.1154 24.2783L24.1493 24.3802L18.006 26.6542C17.9653 26.6542 17.8702 26.6678 17.8159 26.6135Z" fill="#85340A"/>
<path d="M24.1335 23.6953L17.9854 21.4205C17.9854 21.4205 17.8725 21.3738 17.8414 21.449C17.8139 21.5332 17.9268 21.5799 17.9268 21.5799L23.8826 24.3188M22.2859 22.6214C21.6788 21.9585 20.927 21.9997 20.4077 21.3732C19.8847 20.7377 19.2518 20.7401 18.9523 20.594C18.658 20.4354 18.6778 20.157 18.5854 20.1849C18.4842 20.2164 18.5219 20.5333 18.8854 20.8088C19.2452 21.0754 19.5786 20.9269 20.2261 21.6874C20.87 22.439 21.3688 22.2636 21.9248 22.9788" fill="#F6B40E"/>
<path d="M17.7888 21.5228C17.7778 21.4962 17.7757 21.4659 17.7824 21.4319C17.8187 21.3441 17.9221 21.3429 17.9974 21.374L21.5326 22.6841C21.3778 22.5612 21.2199 22.4811 21.0621 22.401C20.784 22.2564 20.497 22.1155 20.1626 21.7345C19.7412 21.244 19.46 21.1423 19.2165 21.0561C19.0822 21.0078 18.9605 20.9647 18.8381 20.87C18.5483 20.6471 18.4455 20.3987 18.4723 20.2629C18.4806 20.2075 18.5087 20.1751 18.553 20.1567C18.6365 20.1325 18.6785 20.2087 18.7079 20.2796C18.7535 20.3647 18.8049 20.4888 18.9628 20.5689C19.038 20.6001 19.1347 20.6328 19.2402 20.6618C19.5783 20.7504 20.0381 20.8821 20.4343 21.3622C20.6841 21.664 20.9888 21.7975 21.3222 21.9504C21.6557 22.1032 22.0017 22.2612 22.3215 22.6067L22.2475 22.6789C21.9476 22.3563 21.6105 22.1946 21.2895 22.047C20.9561 21.8942 20.6351 21.7466 20.3692 21.4307C19.9928 20.9735 19.5493 20.8559 19.229 20.76C19.1109 20.7258 19.0053 20.6968 18.9301 20.6656C18.7435 20.5662 18.6721 20.4191 18.6229 20.3253C18.6155 20.3075 18.6045 20.2809 18.5883 20.2668L18.5831 20.2794C18.5681 20.3687 18.6474 20.5852 18.9084 20.7889C19.0271 20.8748 19.1363 20.9127 19.2618 20.9646C19.5178 21.056 19.8152 21.1718 20.2528 21.6764C20.571 22.0433 20.8491 22.1879 21.1147 22.3273C21.3515 22.4474 21.5757 22.5623 21.7997 22.8021L24.144 23.6702L24.1113 23.7669L21.9515 22.9678L21.9552 22.9767L21.8686 23.0437C21.8252 22.9889 21.7854 22.9431 21.7456 22.8972L17.9647 21.4707C17.9396 21.4603 17.8931 21.4484 17.8827 21.4735C17.8723 21.4986 17.9387 21.5334 17.9387 21.5334L23.8946 24.2723L23.8494 24.3638L17.8935 21.6249C17.8647 21.6056 17.8109 21.576 17.7888 21.5228Z" fill="#85340A"/>
<path d="M24.4128 26.3424C24.4608 27.2064 24.9504 27.5904 24.8544 28.3872C25.0656 27.7632 24.5568 27.2736 24.5856 26.352M23.8464 24.0672L25.7184 28.1568L24.1536 23.9424" fill="#85340A"/>
<path d="M22.632 25.948C22.0537 26.5917 22.1281 27.2148 21.4999 27.7027C22.0901 27.4069 22.079 26.7061 22.7482 26.0689M23.8492 23.9376L22.2807 28.1508L24.1508 24.0625" fill="#85340A"/>
<path d="M21.658 24.4141C20.7959 24.4616 20.409 24.9571 19.6148 24.8553C20.2393 25.0725 20.728 24.5566 21.6512 24.5838M23.9321 23.8507L19.8388 25.7174L24.0543 24.1493" fill="#85340A"/>
<path d="M22.0526 22.635C21.4091 22.0598 20.7931 22.128 20.2952 21.5029C20.5894 22.0877 21.2917 22.0773 21.9239 22.7506M24.0587 23.8406L19.8446 22.2715L23.934 24.1417" fill="#85340A"/>
<path d="M24.3073 23.8752L21.5713 17.9232C21.5713 17.9232 21.5233 17.808 21.4465 17.8368C21.3697 17.8752 21.4177 17.9904 21.4177 17.9904L23.6929 24.1344M23.7601 21.8112C23.7985 20.9088 23.2417 20.4096 23.3089 19.6032C23.3857 18.7872 22.9441 18.336 22.8289 18.0192C22.7329 17.7024 22.9441 17.52 22.8577 17.472C22.7617 17.424 22.5697 17.6736 22.6273 18.1248C22.6945 18.5664 23.0305 18.7008 22.9537 19.6896C22.8769 20.6784 23.3569 20.9088 23.2417 21.8016" fill="#F6B40E"/>
<path d="M21.3504 17.9137C21.3504 17.8657 21.3696 17.8176 21.4272 17.7888C21.5136 17.7504 21.5904 17.8273 21.6288 17.9041L23.2032 21.3313C23.184 21.1297 23.1264 20.9665 23.0688 20.7937C22.9728 20.4961 22.8672 20.1889 22.9056 19.6897C22.9536 19.0465 22.8288 18.7777 22.7136 18.5377C22.656 18.4129 22.5984 18.2977 22.5792 18.1345C22.5312 17.7793 22.6368 17.5297 22.752 17.4433C22.8 17.4145 22.848 17.4049 22.8864 17.4241C22.9632 17.4625 22.9344 17.5489 22.9056 17.6161C22.8768 17.7121 22.8288 17.8369 22.8768 18.0001C22.9056 18.0769 22.9536 18.1633 23.0112 18.2593C23.184 18.5665 23.4144 18.9793 23.3568 19.6033C23.328 19.9969 23.4432 20.3041 23.568 20.6401C23.6928 20.9857 23.8272 21.3409 23.808 21.8017H23.7024C23.7216 21.3601 23.5968 21.0145 23.472 20.6785C23.3472 20.3329 23.2224 20.0065 23.2512 19.5937C23.3088 18.9985 23.0784 18.6049 22.9152 18.3169C22.8576 18.2113 22.8 18.1153 22.7712 18.0385C22.7136 17.8369 22.7616 17.6833 22.8 17.5873C22.8096 17.5681 22.8192 17.5393 22.8192 17.5201C22.8192 17.5201 22.8096 17.5201 22.8 17.5297C22.7232 17.5777 22.6272 17.7889 22.6752 18.1153C22.6944 18.2593 22.7424 18.3649 22.8 18.4897C22.9152 18.7393 23.0496 19.0273 23.0016 19.6993C22.9632 20.1793 23.0592 20.4769 23.1552 20.7649C23.2416 21.0145 23.3184 21.2545 23.3088 21.5905L24.3552 23.8561L24.2592 23.9041L23.2992 21.8113V21.8209L23.1936 21.8113C23.2032 21.7441 23.2032 21.6769 23.2128 21.6193L21.5328 17.9617C21.5232 17.9425 21.4944 17.8945 21.4752 17.9041C21.4464 17.9137 21.4752 17.9905 21.4752 17.9905L23.7504 24.1345L23.6544 24.1729L21.3792 18.0288C21.36 17.9904 21.3504 17.9521 21.3504 17.9137Z" fill="#85340A"/>
<path d="M24.3105 24.1286L26.5854 17.9843C26.5854 17.9843 26.6331 17.869 26.5533 17.8359C26.4698 17.8117 26.4221 17.927 26.4221 17.927L23.686 23.8803M25.3759 22.2839C26.043 21.677 26.0022 20.9224 26.62 20.4093C27.2503 19.8911 27.2527 19.2582 27.4027 18.9463C27.5542 18.6557 27.8356 18.6788 27.8154 18.5769C27.7827 18.4802 27.4667 18.5156 27.1913 18.8795C26.9284 19.2382 27.0687 19.5769 26.3139 20.2202C25.559 20.8635 25.7366 21.363 25.0273 21.9213" fill="#F6B40E"/>
<path d="M23.6453 23.8531L26.3814 17.8998C26.4035 17.8466 26.4742 17.7512 26.5754 17.7827C26.6641 17.8194 26.6628 17.9228 26.6298 18.0026L25.3227 21.5345C25.4494 21.3792 25.5244 21.2232 25.6031 21.0583C25.742 20.773 25.8899 20.4913 26.2754 20.1627C26.7619 19.7407 26.8669 19.4621 26.9572 19.219C26.9998 19.0911 27.0512 18.9669 27.1455 18.8397C27.3664 18.5572 27.6173 18.4533 27.7525 18.4781C27.8094 18.4913 27.8501 18.5185 27.862 18.565C27.8895 18.6491 27.8105 18.6892 27.7441 18.724C27.6527 18.7692 27.5361 18.8249 27.4522 18.9772C27.4229 19.0481 27.3913 19.1494 27.3561 19.2595C27.2593 19.5935 27.1414 20.0538 26.6534 20.4543C26.3526 20.7038 26.2151 21.0105 26.0703 21.335C25.9219 21.6684 25.7572 22.0158 25.4182 22.3326L25.3478 22.2515C25.6706 21.9488 25.828 21.6191 25.9765 21.2857C26.1249 20.9524 26.2786 20.6316 26.5867 20.3643C27.046 19.9831 27.1654 19.5442 27.2549 19.2279C27.2849 19.1053 27.3128 19.0129 27.3584 18.9279C27.4569 18.7401 27.6022 18.6652 27.7026 18.6237C27.7277 18.6133 27.7439 18.5992 27.7564 18.594C27.7564 18.594 27.7476 18.5903 27.7387 18.5867C27.6515 18.5713 27.4331 18.6471 27.2284 18.9156C27.1415 19.0251 27.1026 19.1441 27.06 19.2719C26.9623 19.5328 26.8588 19.8328 26.3472 20.2652C25.9779 20.5798 25.8426 20.8562 25.6985 21.129C25.5815 21.3612 25.4683 21.5844 25.2266 21.8168L24.3601 24.1595L24.2625 24.1191L25.0644 21.9574L25.0607 21.9663L24.9904 21.8852C25.0479 21.8467 25.0966 21.8045 25.1363 21.7586L26.5337 17.9837C26.5411 17.9659 26.5543 17.909 26.5365 17.9017C26.5099 17.8907 26.4805 17.9616 26.4805 17.9616L23.7444 23.9149L23.6453 23.8531Z" fill="#85340A"/>
<path d="M24.129 24.3055L30.0823 21.5698C30.0823 21.5698 30.1977 21.5223 30.1705 21.4409C30.1366 21.3662 30.0212 21.4137 30.0212 21.4137L23.8779 23.6878M26.1926 23.7624C27.0955 23.7964 27.591 23.2465 28.3988 23.3076C29.2134 23.3891 29.6614 22.9411 29.9805 22.8257C30.2927 22.7306 30.476 22.9411 30.5235 22.8528C30.571 22.751 30.3199 22.5677 29.8719 22.622C29.4306 22.6831 29.2949 23.0225 28.3106 22.9479C27.3263 22.8732 27.0887 23.3551 26.1994 23.2397" fill="#F6B40E"/>
<path d="M23.844 23.6403L29.9873 21.3662C30.0416 21.3391 30.1638 21.3255 30.2045 21.4205C30.2385 21.5088 30.1706 21.5902 30.0891 21.6174L26.6679 23.1922C26.8647 23.1719 27.0276 23.1176 27.1973 23.0565C27.496 22.9614 27.8015 22.8596 28.3038 22.9003C28.9487 22.9479 29.2202 22.8257 29.4578 22.7103C29.5868 22.6492 29.7022 22.6017 29.8583 22.5677C30.2181 22.5202 30.4693 22.622 30.5507 22.7442C30.5847 22.7917 30.5914 22.8393 30.5711 22.8732C30.5304 22.9547 30.4489 22.9275 30.3742 22.8936C30.286 22.8596 30.157 22.8121 29.9873 22.8732C29.9194 22.9003 29.8244 22.9547 29.7226 23.0022C29.4171 23.1719 29.003 23.4095 28.3853 23.3484C27.9983 23.3144 27.6793 23.4298 27.3467 23.5588C27.0005 23.6878 26.6475 23.8235 26.1791 23.8032L26.1859 23.7014C26.6271 23.7217 26.9733 23.5927 27.3059 23.4638C27.6521 23.3348 27.978 23.2126 28.3921 23.2465C28.9826 23.3076 29.3764 23.0768 29.675 22.9139C29.7769 22.8528 29.8719 22.7985 29.9534 22.7714C30.1638 22.7103 30.3063 22.7578 30.4082 22.7917C30.4285 22.7985 30.4557 22.8121 30.4693 22.8121C30.4693 22.8121 30.4625 22.8053 30.4625 22.7917C30.415 22.7171 30.2045 22.6152 29.8719 22.6628C29.7293 22.6831 29.6275 22.7306 29.4985 22.7917C29.2474 22.9071 28.9623 23.0429 28.297 22.9886C27.8151 22.9547 27.5164 23.0497 27.2313 23.1447C26.9869 23.2262 26.7425 23.3076 26.4099 23.3009L24.1426 24.3462L24.1019 24.2512L26.1995 23.2805C26.1995 23.2805 26.1995 23.2805 26.1859 23.2805L26.1995 23.1719C26.2673 23.1855 26.3352 23.1855 26.3895 23.1855L30.0484 21.5088C30.0688 21.502 30.1163 21.468 30.1095 21.4477C30.0959 21.4205 30.028 21.4477 30.028 21.4477L23.8847 23.7217L23.844 23.6403Z" fill="#85340A"/>
<path d="M23.8665 24.3048L30.0146 26.5796C30.0146 26.5796 30.1275 26.6263 30.1587 26.5511C30.1862 26.4669 30.0733 26.4202 30.0733 26.4202L24.1174 23.6813M25.7141 25.3787C26.3212 26.0416 27.073 26.0004 27.5923 26.6269C28.1153 27.2624 28.7482 27.26 29.0477 27.4061C29.342 27.5647 29.3222 27.8431 29.4146 27.8152C29.5158 27.7837 29.4781 27.4668 29.1146 27.1913C28.7548 26.9247 28.4214 27.0732 27.7739 26.3127C27.1301 25.5611 26.6312 25.7365 26.0752 25.0213" fill="#F6B40E"/>
<path d="M24.1419 23.64L30.0977 26.3789C30.1479 26.3996 30.2504 26.4715 30.2088 26.5718C30.1725 26.6596 30.0691 26.6609 29.9938 26.6297L26.4586 25.3197C26.6134 25.4426 26.7713 25.5227 26.9291 25.6028C27.2072 25.7473 27.4942 25.8882 27.8287 26.2693C28.25 26.7597 28.5312 26.8615 28.7747 26.9477C28.909 26.9959 29.0308 27.039 29.1531 27.1338C29.4429 27.3567 29.5458 27.605 29.5189 27.7408C29.5106 27.7962 29.4825 27.8287 29.4382 27.847C29.3547 27.8712 29.3127 27.7951 29.2833 27.7241C29.2377 27.6391 29.1863 27.5149 29.0284 27.4348C28.9532 27.4037 28.8565 27.371 28.751 27.342C28.4129 27.2534 27.9532 27.1217 27.5569 26.6416C27.3072 26.3398 27.0025 26.2062 26.669 26.0534C26.3355 25.9006 25.9895 25.7426 25.6697 25.397L25.7437 25.3248C26.0436 25.6474 26.3808 25.8091 26.7017 25.9567C27.0352 26.1096 27.3561 26.2572 27.622 26.5731C27.9984 27.0302 28.442 27.1478 28.7623 27.2438C28.8803 27.278 28.9859 27.307 29.0611 27.3382C29.2478 27.4375 29.3191 27.5846 29.3684 27.6785C29.3757 27.6962 29.3867 27.7228 29.403 27.7369L29.4081 27.7244C29.4231 27.635 29.3438 27.4185 29.0828 27.2149C28.9641 27.129 28.8549 27.0911 28.7295 27.0391C28.4734 26.9478 28.176 26.8319 27.7385 26.3274C27.4202 25.9605 27.1421 25.8159 26.8766 25.6765C26.6398 25.5564 26.4155 25.4414 26.1915 25.2017L23.8472 24.3335L23.8799 24.2369L26.0397 25.036L26.0361 25.0271L26.1226 24.9601C26.1661 25.0148 26.2058 25.0607 26.2456 25.1066L30.0354 26.5294C30.0605 26.5398 30.107 26.5517 30.1174 26.5266C30.1278 26.5015 30.0614 26.4667 30.0614 26.4667L24.1055 23.7278L24.1419 23.64Z" fill="#85340A"/>
<path d="M23.5873 21.6577C23.5393 20.7937 23.0497 20.4097 23.1457 19.6129C22.9345 20.2369 23.4433 20.7265 23.4145 21.6481M24.1537 23.9329L22.2817 19.8433L23.8465 24.0577" fill="#85340A"/>
<path d="M25.368 22.0521C25.9464 21.4084 25.872 20.7853 26.5001 20.2973C25.91 20.5932 25.921 21.294 25.2518 21.9312M24.1508 24.0625L25.7193 19.8492L23.8493 23.9376" fill="#85340A"/>
<path d="M26.342 23.586C27.2041 23.5384 27.5911 23.0429 28.3853 23.1447C27.7608 22.9275 27.272 23.4434 26.3488 23.4163M24.068 24.1494L28.1613 22.2826L23.9458 23.8507" fill="#85340A"/>
<path d="M25.9475 25.3651C26.591 25.9403 27.207 25.8721 27.7049 26.4972C27.4107 25.9124 26.7084 25.9228 26.0762 25.2495M23.9414 24.1594L28.1555 25.7286L24.0661 23.8584" fill="#85340A"/>
<path d="M23.671 23.9952L23.8639 30.5431C23.8639 30.5431 23.8631 30.6679 23.945 30.6714C24.0307 30.666 24.0315 30.5412 24.0315 30.5412L24.3379 23.9967M23.3683 26.1089C22.9803 26.9246 23.2978 27.6017 22.9209 28.3177C22.5313 29.0388 22.7615 29.6267 22.7438 29.9633C22.7084 30.2924 22.4427 30.3778 22.5035 30.4558C22.5731 30.5375 22.8473 30.3827 22.9706 29.9449C23.0813 29.5121 22.8245 29.2571 23.2816 28.3769C23.7386 27.4968 23.3868 27.0971 23.8417 26.3203" fill="#F6B40E"/>
<path d="M24.3895 23.9977L24.0832 30.5423C24.0797 30.6243 24.0384 30.7215 23.9439 30.7231C23.8494 30.7246 23.8087 30.6239 23.8033 30.5382L23.6932 26.7683C23.6321 26.9614 23.6214 27.1341 23.6069 27.3157C23.579 27.6272 23.5561 27.9512 23.3257 28.3957C23.0302 28.969 23.0401 29.2652 23.0523 29.5311C23.0566 29.6685 23.0646 29.7971 23.0185 29.9548C22.9239 30.3005 22.7292 30.489 22.5894 30.5235C22.5339 30.5313 22.486 30.5214 22.4582 30.4887C22.4025 30.4233 22.4627 30.3551 22.5155 30.3045C22.5795 30.2273 22.6725 30.1312 22.6921 29.9622C22.6956 29.8803 22.6851 29.782 22.6696 29.6711C22.6306 29.3208 22.5798 28.8508 22.8766 28.2989C23.0569 27.9479 23.0709 27.6201 23.0873 27.262C23.1075 26.8951 23.1226 26.5157 23.3203 26.099L23.4175 26.1403C23.2273 26.5393 23.2071 26.9061 23.1907 27.2642C23.1705 27.6311 23.1579 27.9803 22.9701 28.349C22.6845 28.8744 22.7428 29.3268 22.7805 29.6556C22.7923 29.7753 22.8078 29.8862 22.8043 29.9682C22.7785 30.1762 22.6743 30.2989 22.6015 30.3722C22.5851 30.3862 22.565 30.4089 22.5575 30.4266C22.5575 30.4266 22.5664 30.4303 22.579 30.4253C22.6684 30.4111 22.8393 30.2542 22.9226 29.935C22.9612 29.7949 22.9583 29.679 22.9541 29.5416C22.9455 29.2668 22.9344 28.9492 23.2411 28.3494C23.464 27.9225 23.4919 27.6111 23.5161 27.3085C23.5341 27.0449 23.5572 26.794 23.6973 26.4885L23.6193 23.9941L23.7264 23.9874L23.7924 26.289L23.7961 26.2801L23.8896 26.3302C23.8545 26.3883 23.8282 26.4502 23.7969 26.4995L23.9142 30.5227C23.9155 30.5442 23.9233 30.5996 23.9447 30.5983C23.975 30.6007 23.9785 30.5187 23.9785 30.5187L24.2848 23.9742L24.3895 23.9977Z" fill="#85340A"/>
<path d="M23.767 23.7607L19.2722 28.5277C19.2722 28.5277 19.1832 28.6152 19.2437 28.6768C19.3111 28.7317 19.4002 28.6442 19.4002 28.6442L24.2449 24.2333M22.0655 25.0425C21.2144 25.3405 20.957 26.0511 20.1879 26.2819C19.4052 26.5127 19.1557 27.0943 18.8958 27.3229C18.6428 27.5311 18.3927 27.3999 18.3715 27.5016C18.3638 27.6033 18.6685 27.6943 19.0642 27.4669C19.4464 27.2394 19.4496 26.8729 20.3958 26.5757C21.3419 26.2784 21.3737 25.7492 22.2447 25.5124" fill="#F6B40E"/>
<path d="M24.2045 24.1922L24.2785 24.2675L19.4338 28.6785C19.3927 28.7188 19.2904 28.779 19.2095 28.7105C19.1422 28.642 19.1838 28.5473 19.2454 28.4868L21.8286 25.7464C21.6512 25.8399 21.5213 25.9541 21.3844 26.0751C21.145 26.2835 20.8989 26.485 20.4156 26.6369C19.8029 26.8352 19.5973 27.0507 19.4192 27.2392C19.3301 27.3402 19.2342 27.4344 19.0977 27.5147C18.7839 27.6885 18.5124 27.6861 18.3977 27.6104C18.3505 27.5761 18.3304 27.542 18.3309 27.4877C18.3384 27.3995 18.4267 27.3934 18.5015 27.3873C18.6033 27.3814 18.7324 27.3757 18.8691 27.2683C18.9238 27.2145 18.9924 27.1336 19.0679 27.046C19.2875 26.7764 19.5826 26.4056 20.1816 26.2208C20.5559 26.1086 20.8023 25.88 21.0624 25.6379C21.3293 25.389 21.6167 25.1336 22.0525 24.9744L22.0856 25.0766C21.6701 25.2291 21.3965 25.4711 21.1296 25.7199C20.8627 25.9688 20.5958 26.204 20.2078 26.3296C19.6361 26.5011 19.3546 26.8585 19.1487 27.1146C19.0732 27.2158 19.0114 27.2899 18.9362 27.3504C18.7721 27.4847 18.6091 27.4969 18.5005 27.4959C18.4734 27.4957 18.4529 27.5023 18.4394 27.5022C18.4394 27.5022 18.4461 27.509 18.4528 27.5159C18.5271 27.564 18.7577 27.5796 19.0511 27.4125C19.1739 27.3457 19.2562 27.2513 19.3453 27.1503C19.5371 26.9483 19.7428 26.7193 20.3895 26.5145C20.8524 26.3692 21.0849 26.1676 21.3242 25.9728C21.5226 25.8048 21.714 25.6436 22.0274 25.5241L23.7403 23.7062L23.8144 23.7815L22.2316 25.458L22.2384 25.4513L22.2715 25.5534C22.2102 25.5732 22.1422 25.5862 22.0877 25.6129L19.3264 28.5418C19.3127 28.5552 19.2783 28.6024 19.2918 28.6161C19.312 28.6367 19.3667 28.5828 19.3667 28.5828L24.2045 24.1922Z" fill="#85340A"/>
<path d="M24.0032 23.6688L17.4543 23.8608C17.4543 23.8608 17.3295 23.8595 17.3226 23.9451C17.3247 24.027 17.4495 24.0284 17.4495 24.0284L23.993 24.3355M21.8914 23.3623C21.0736 22.9783 20.4026 23.2908 19.6829 22.919C18.9649 22.5257 18.3774 22.763 18.0387 22.7446C17.7141 22.7101 17.6276 22.4448 17.5494 22.5074C17.4659 22.5826 17.6255 22.8494 18.0591 22.9745C18.4891 23.0907 18.7467 22.8313 19.6236 23.2846C20.5004 23.7379 20.9075 23.3871 21.6809 23.8408" fill="#F6B40E"/>
<path d="M24.003 23.6171L24.0034 23.7205L21.6933 23.7944C21.6933 23.7944 21.6933 23.7944 21.7058 23.7997L21.6509 23.8944C21.5937 23.8554 21.5312 23.8289 21.4812 23.8076L17.4581 23.9214C17.4367 23.9197 17.3797 23.9324 17.378 23.9538C17.3798 23.9841 17.4529 23.9856 17.4529 23.9856L23.9965 24.2927L23.9879 24.3997L17.4444 24.0926C17.3624 24.0947 17.2713 24.0486 17.2657 23.9577C17.2689 23.8632 17.3632 23.8148 17.4488 23.8216L21.2134 23.7087C21.0243 23.6506 20.8531 23.6369 20.673 23.6268C20.3609 23.5976 20.04 23.572 19.5935 23.3382C19.0184 23.0425 18.7207 23.0489 18.457 23.0623C18.3144 23.0681 18.1896 23.0668 18.0326 23.037C17.6829 22.9402 17.5003 22.7447 17.4642 22.604C17.4515 22.547 17.4638 22.5006 17.4958 22.4773C17.5652 22.4182 17.6295 22.4751 17.685 22.5355C17.753 22.6012 17.8531 22.6953 18.0332 22.7054C18.1063 22.7069 18.215 22.6941 18.3273 22.6901C18.6748 22.6533 19.1488 22.5964 19.6936 22.894C20.0365 23.0764 20.3752 23.0948 20.7318 23.1061C21.1009 23.1226 21.4789 23.1356 21.9021 23.3373L21.856 23.4284C21.4578 23.2373 21.0888 23.2207 20.7286 23.2006C20.3595 23.184 20.0118 23.1692 19.6439 22.9761C19.1242 22.6892 18.6716 22.7478 18.333 22.781C18.2154 22.7975 18.1067 22.8103 18.0211 22.8035C17.8035 22.7775 17.6909 22.6781 17.6104 22.607C17.5943 22.5928 17.5746 22.5697 17.5621 22.5644C17.5621 22.5644 17.5657 22.5733 17.5604 22.5858C17.575 22.6731 17.7289 22.8491 18.0536 22.9353C18.1928 22.9723 18.3051 22.9683 18.4477 22.9625C18.724 22.9544 19.0395 22.9408 19.6306 23.2507C20.061 23.4703 20.3731 23.4995 20.6727 23.5234C20.9294 23.5439 21.1862 23.5644 21.4897 23.7006L24.003 23.6171Z" fill="#85340A"/>
<path d="M24.2445 23.772L19.4739 19.2758C19.4739 19.2758 19.3883 19.1887 19.3302 19.2458C19.272 19.3125 19.3577 19.3996 19.3577 19.3996L23.7699 24.2479M22.9634 22.0616C22.6636 21.2141 21.9554 20.9584 21.7222 20.1787C21.489 19.3894 20.9055 19.1443 20.6869 18.8928C20.478 18.6318 20.605 18.3833 20.5091 18.3728C20.4036 18.3623 20.3145 18.6687 20.5414 19.0643C20.7685 19.4503 21.1333 19.4439 21.4322 20.397C21.7312 21.3404 22.2589 21.3738 22.4913 22.2495" fill="#F6B40E"/>
<path d="M24.2736 23.7339L24.2058 23.8101L22.5299 22.2306L22.5298 22.2402L22.424 22.2681C22.4053 22.2007 22.3866 22.143 22.3679 22.0852L19.4351 19.3235C19.4161 19.3041 19.378 19.275 19.3586 19.294C19.3392 19.3131 19.3867 19.3711 19.3867 19.3711L23.8087 24.2003L23.7314 24.2668L19.3191 19.4185C19.281 19.3798 19.2148 19.2736 19.2922 19.1975C19.36 19.1308 19.4557 19.1701 19.5128 19.2282L22.2551 21.8154C22.1606 21.6418 22.0466 21.5064 21.9326 21.371C21.7331 21.1292 21.524 20.8874 21.365 20.406C21.1687 19.7899 20.9497 19.5863 20.7592 19.4119C20.6545 19.3149 20.5592 19.2277 20.4836 19.0926C20.304 18.7743 20.3063 18.5055 20.3841 18.391C20.4133 18.3432 20.4519 18.3243 20.4999 18.3248C20.5862 18.3351 20.5951 18.4216 20.5944 18.4984C20.6031 18.5945 20.602 18.7289 20.716 18.8643C20.7731 18.9224 20.8493 18.9902 20.9351 19.0582C21.2117 19.2718 21.5834 19.5727 21.7606 20.1694C21.8726 20.5448 22.1009 20.7868 22.3481 21.0578C22.5954 21.3288 22.8521 21.6094 23.0115 22.0524L22.9151 22.09C22.7651 21.6759 22.518 21.3953 22.2802 21.134C22.033 20.863 21.7953 20.6018 21.6739 20.2071C21.5061 19.6392 21.1437 19.3576 20.8864 19.1442C20.791 19.0665 20.7052 18.9986 20.6481 18.9405C20.5152 18.7761 20.507 18.6128 20.4983 18.5072C20.4985 18.488 20.4987 18.4592 20.4893 18.4399L20.4796 18.4494C20.4309 18.5258 20.4193 18.7561 20.58 19.0455C20.6557 19.171 20.7414 19.2485 20.8367 19.3357C21.0366 19.5295 21.2651 19.7427 21.4708 20.3781C21.6204 20.8402 21.8199 21.082 22.0099 21.3141C22.1809 21.5172 22.3424 21.7106 22.4549 22.0188L24.2736 23.7339Z" fill="#85340A"/>
<path d="M23.4673 26.3178C23.1739 27.1319 23.4745 27.6767 23.0748 28.3726C23.513 27.8807 23.236 27.2313 23.6226 26.3942M23.8349 24.0022L23.9601 28.4981L24.1664 24.0073" fill="#85340A"/>
<path d="M21.9822 25.259C21.1983 25.6255 21.0234 26.2281 20.2545 26.4319C20.9133 26.3901 21.177 25.7407 22.0419 25.4156M23.8882 23.884L20.7981 27.1494L24.117 24.1168" fill="#85340A"/>
<path d="M21.685 23.4664C20.8728 23.1733 20.323 23.4783 19.6317 23.0742C20.1217 23.5182 20.7732 23.2343 21.6124 23.62M23.9984 23.8363L19.5047 23.9642L23.9977 24.1679" fill="#85340A"/>
<path d="M22.7433 21.9829C22.3757 21.202 21.782 21.0241 21.5679 20.2542C21.6102 20.9074 22.2607 21.1722 22.5796 22.0391M24.1188 23.8766L20.8528 20.7855L23.8864 24.1049" fill="#85340A"/>
<path d="M24.334 24.0052L24.1411 17.4573C24.1411 17.4573 24.142 17.3325 24.06 17.329C23.9743 17.3344 23.9735 17.4592 23.9735 17.4592L23.6672 24.0038M24.6368 21.8915C25.0247 21.0758 24.7072 20.3988 25.0842 19.6827C25.4737 18.9616 25.2435 18.3737 25.2613 18.0371C25.2967 17.708 25.5624 17.6226 25.5016 17.5446C25.432 17.463 25.1577 17.6177 25.0344 18.0555C24.9237 18.4883 25.1805 18.7433 24.7235 19.6235C24.2664 20.5037 24.6182 20.9033 24.1633 21.6801" fill="#F6B40E"/>
<path d="M24.3857 24.0063L24.2785 24.013L24.2126 21.7115L24.2088 21.7203L24.1154 21.6702C24.1505 21.6121 24.1767 21.5502 24.2081 21.501L24.0907 17.4777C24.0894 17.4563 24.0817 17.4008 24.0602 17.4022C24.03 17.3998 24.0265 17.4817 24.0265 17.4817L23.7202 24.0263L23.6168 24.0241L23.9231 17.4795C23.9266 17.3976 23.9679 17.3004 24.0624 17.2988C24.1569 17.2972 24.1976 17.3979 24.203 17.4836L24.3131 21.2535C24.3742 21.0605 24.3849 20.8877 24.3994 20.7062C24.4273 20.3947 24.4502 20.0707 24.6843 19.6173C24.9798 19.044 24.97 18.7478 24.9577 18.4819C24.9534 18.3445 24.9454 18.2159 24.9915 18.0582C25.0861 17.7125 25.2809 17.524 25.4207 17.4895C25.4761 17.4817 25.524 17.4916 25.5519 17.5243C25.6076 17.5897 25.5473 17.6579 25.4945 17.7086C25.4305 17.7857 25.3376 17.8818 25.318 18.0508C25.3145 18.1327 25.3249 18.231 25.3404 18.3419C25.3795 18.6922 25.4302 19.1622 25.1334 19.7141C24.9569 20.0563 24.9391 20.3929 24.9227 20.751C24.9026 21.1179 24.8875 21.4973 24.6898 21.914L24.5926 21.8728C24.7828 21.4738 24.8029 21.1069 24.8193 20.7488C24.8395 20.3819 24.8521 20.0327 25.04 19.664C25.3255 19.1386 25.2672 18.6863 25.2295 18.3574C25.2178 18.2377 25.2023 18.1268 25.2058 18.0449C25.2227 17.833 25.3357 17.7141 25.4086 17.6408C25.4249 17.6269 25.445 17.6041 25.4525 17.5864C25.4525 17.5864 25.4437 17.5827 25.4311 17.5878C25.3416 17.6019 25.1708 17.7588 25.0874 18.078C25.0488 18.2181 25.0517 18.3341 25.056 18.4714C25.0645 18.7462 25.0757 19.0638 24.7689 19.6637C24.546 20.0905 24.5181 20.4019 24.494 20.7046C24.476 20.9681 24.4529 21.219 24.3128 21.5245L24.3857 24.0063Z" fill="#85340A"/>
<path d="M24.238 24.2397L28.7328 19.4727C28.7328 19.4727 28.8219 19.3852 28.7613 19.3236C28.6939 19.2687 28.6049 19.3562 28.6049 19.3562L23.7601 23.7672M25.9395 22.958C26.7907 22.6599 27.048 21.9494 27.8172 21.7185C28.5998 21.4877 28.8493 20.9061 29.1093 20.6776C29.3623 20.4693 29.6123 20.6005 29.6335 20.4988C29.6412 20.3971 29.3365 20.3062 28.9408 20.5335C28.5587 20.761 28.5555 21.1275 27.6093 21.4248C26.6631 21.722 26.6313 22.2512 25.7603 22.488" fill="#F6B40E"/>
<path d="M29.6533 20.5601C29.6191 20.5937 29.5648 20.5933 29.5105 20.5928C29.4086 20.5987 29.2796 20.6044 29.1429 20.7118C29.0881 20.7656 29.0195 20.8465 28.9441 20.9341C28.7245 21.2037 28.4293 21.5745 27.8303 21.7593C27.456 21.8715 27.2096 22.1001 26.9495 22.3422C26.6826 22.5911 26.3953 22.8465 25.9594 23.0057L25.9264 22.9035C26.3418 22.751 26.6154 22.509 26.8824 22.2602C27.1493 22.0114 27.4161 21.7761 27.8041 21.6505C28.3759 21.479 28.6573 21.1216 28.8632 20.8655C28.9387 20.7643 29.0005 20.6902 29.0757 20.6297C29.2398 20.4954 29.4028 20.4832 29.5114 20.4842C29.5386 20.4844 29.559 20.4778 29.5726 20.4779C29.5726 20.4779 29.5658 20.4711 29.5591 20.4642C29.4849 20.4161 29.2542 20.4005 28.9608 20.5676C28.8381 20.6345 28.7558 20.7288 28.6666 20.8298C28.4748 21.0318 28.2623 21.2675 27.6225 21.4656C27.1596 21.6109 26.927 21.8125 26.6877 22.0073C26.4894 22.1753 26.2979 22.3366 25.9846 22.456L24.2716 24.274L24.1976 24.1986L25.7803 22.5221L25.7735 22.5288L25.7404 22.4267C25.8017 22.4069 25.8697 22.3939 25.9243 22.3672L28.6856 19.4383C28.6993 19.4249 28.7336 19.3777 28.7202 19.364C28.7 19.3434 28.6452 19.3973 28.6452 19.3973L23.8005 23.8082L23.7264 23.7329L28.5712 19.3219C28.6123 19.2816 28.7146 19.2214 28.7955 19.29C28.8628 19.3584 28.8212 19.4531 28.7596 19.5137L26.1764 22.254C26.3537 22.1605 26.4837 22.0463 26.6205 21.9253C26.8599 21.7169 27.1061 21.5154 27.5894 21.3635C28.2021 21.1652 28.4076 20.9498 28.5858 20.7612C28.6749 20.6602 28.7708 20.566 28.9072 20.4857C29.221 20.3119 29.4925 20.3143 29.6073 20.39C29.6545 20.4243 29.6746 20.4585 29.6741 20.5128C29.674 20.5263 29.667 20.5466 29.6533 20.5601Z" fill="#85340A"/>
<path d="M24.0018 24.3317L30.5507 24.1396C30.5507 24.1396 30.6755 24.141 30.6823 24.0554C30.6802 23.9734 30.5555 23.972 30.5555 23.972L24.0119 23.6649M26.1135 24.6381C26.9313 25.0221 27.6023 24.7096 28.322 25.0815C29.04 25.4747 29.6275 25.2374 29.9663 25.2558C30.2908 25.2903 30.3773 25.5557 30.4555 25.493C30.5391 25.4178 30.3795 25.151 29.9459 25.0259C29.5158 24.9097 29.2582 25.1691 28.3814 24.7158C27.5045 24.2625 27.0975 24.6133 26.324 24.1596" fill="#F6B40E"/>
<path d="M30.4682 25.55C30.4059 25.5752 30.3541 25.5236 30.3058 25.481C30.2378 25.4153 30.1376 25.3212 29.9576 25.3111C29.8845 25.3096 29.7758 25.3224 29.6635 25.3264C29.316 25.3632 28.842 25.4201 28.2972 25.1225C27.9543 24.9401 27.6155 24.9217 27.259 24.9104C26.8899 24.8939 26.5119 24.8809 26.0887 24.6792L26.1348 24.5881C26.533 24.7792 26.902 24.7958 27.2622 24.8159C27.6313 24.8325 27.979 24.8473 28.3469 25.0404C28.8666 25.3273 29.3192 25.2687 29.6578 25.2355C29.7754 25.219 29.8841 25.2062 29.9697 25.213C30.1873 25.239 30.2999 25.3384 30.3804 25.4095C30.3965 25.4237 30.4162 25.4468 30.4287 25.4521C30.4287 25.4521 30.4251 25.4432 30.4304 25.4307C30.4158 25.3434 30.2619 25.1674 29.9372 25.0812C29.798 25.0442 29.6857 25.0482 29.5431 25.054C29.2668 25.0621 28.9513 25.0757 28.3602 24.7658C27.9298 24.5462 27.6177 24.517 27.3181 24.4931C27.0614 24.4726 26.8046 24.4521 26.5011 24.3159L24.0056 24.3922L24.0052 24.2888L26.3153 24.2149C26.3153 24.2149 26.3153 24.2149 26.3028 24.2096L26.3577 24.1149C26.4149 24.1539 26.4774 24.1804 26.5274 24.2017L30.5505 24.0879C30.5719 24.0896 30.6289 24.0769 30.6306 24.0555C30.6287 24.0252 30.5556 24.0237 30.5556 24.0237L24.0121 23.7166L24.0207 23.6096L30.5642 23.9167C30.6248 23.9129 30.7426 23.9482 30.7429 24.0516C30.7397 24.1461 30.6454 24.1945 30.5598 24.1877L26.7951 24.3006C26.9843 24.3587 27.1555 24.3724 27.3356 24.3825C27.6477 24.4117 27.9686 24.4373 28.4151 24.6711C28.9902 24.9668 29.2878 24.9604 29.5516 24.947C29.6942 24.9412 29.819 24.9426 29.976 24.9723C30.3257 25.0692 30.5172 25.261 30.5444 25.4053C30.5571 25.4623 30.5448 25.5087 30.5127 25.532C30.486 25.5428 30.4771 25.5464 30.4682 25.55Z" fill="#85340A"/>
<path d="M23.7605 24.2284L28.531 28.7246C28.531 28.7246 28.6166 28.8117 28.6747 28.7546C28.7329 28.6879 28.6473 28.6008 28.6473 28.6008L24.235 23.7525M25.0416 25.9388C25.3414 26.7863 26.0496 27.042 26.2828 27.8217C26.5159 28.611 27.0994 28.8561 27.318 29.1076C27.5269 29.3686 27.4 29.6171 27.4959 29.6276C27.6014 29.6381 27.6905 29.3317 27.4635 28.9361C27.2365 28.5501 26.8716 28.5565 26.5727 27.6034C26.2737 26.66 25.746 26.6266 25.5136 25.7509" fill="#F6B40E"/>
<path d="M27.5146 29.6757C27.505 29.6757 27.505 29.6757 27.5146 29.6757C27.4187 29.6653 27.4195 29.5789 27.4105 29.502C27.4018 29.4059 27.4029 29.2716 27.2889 29.1362C27.2318 29.0781 27.1556 29.0102 27.0698 28.9422C26.7932 28.7286 26.4215 28.4278 26.2443 27.831C26.1323 27.4556 25.904 27.2136 25.6568 26.9426C25.4095 26.6717 25.1528 26.391 24.9934 25.948L25.0898 25.9104C25.2398 26.3246 25.4869 26.6051 25.7247 26.8664C25.9719 27.1374 26.2096 27.3987 26.331 27.7933C26.4988 28.3612 26.8612 28.6428 27.1185 28.8563C27.2139 28.9339 27.2997 29.0018 27.3568 29.0599C27.4897 29.2243 27.4979 29.3876 27.5066 29.4933C27.5064 29.5125 27.5062 29.5413 27.5156 29.5605L27.5253 29.551C27.574 29.4747 27.5856 29.2443 27.4249 28.9549C27.3492 28.8295 27.2635 28.7519 27.1683 28.6551C26.9683 28.4709 26.7398 28.2481 26.5342 27.6127C26.3846 27.1506 26.1851 26.9088 25.9951 26.6768C25.8241 26.4737 25.6626 26.2803 25.5501 25.9721L23.7314 24.2569L23.7992 24.1807L25.4751 25.7602L25.4752 25.7506L25.581 25.7227C25.5996 25.7901 25.6183 25.8479 25.637 25.9056L28.5699 28.6673C28.5889 28.6867 28.627 28.7158 28.6464 28.6968C28.6658 28.6778 28.6183 28.6197 28.6183 28.6197L24.1962 23.8002L24.2735 23.7336L28.6858 28.5819C28.7239 28.6207 28.7901 28.7268 28.7127 28.803C28.6449 28.8696 28.5492 28.8303 28.4921 28.7722L25.7498 26.185C25.8443 26.3586 25.9583 26.494 26.0723 26.6294C26.2718 26.8712 26.4809 27.113 26.6399 27.5944C26.8362 28.2106 27.0552 28.4141 27.2457 28.5886C27.3504 28.6855 27.4457 28.7727 27.5213 28.9078C27.7009 29.2262 27.6986 29.4949 27.6208 29.6095C27.5916 29.6572 27.553 29.6761 27.5146 29.6757Z" fill="#85340A"/>
<path d="M24.5376 21.6826C24.831 20.8685 24.5304 20.3237 24.9301 19.6278C24.4919 20.1197 24.7689 20.7691 24.3823 21.6062M24.17 23.9982L24.0448 19.5023L23.8385 23.9931" fill="#85340A"/>
<path d="M26.0228 22.7415C26.8067 22.3749 26.9817 21.7723 27.7505 21.5686C27.0917 21.6103 26.8281 22.2597 25.9631 22.5848M24.1168 24.1165L27.2069 20.851L23.8881 23.8837" fill="#85340A"/>
<path d="M26.32 24.534C27.1321 24.8271 27.6819 24.5221 28.3732 24.9262C27.8832 24.4822 27.2317 24.7661 26.3925 24.3804M24.0066 24.1641L28.5003 24.0362L24.0072 23.8325" fill="#85340A"/>
<path d="M25.2617 26.0175C25.6293 26.7984 26.223 26.9764 26.4371 27.7463C26.3948 27.0931 25.7442 26.8282 25.4254 25.9614M23.8862 24.1239L27.1521 27.2149L24.1186 23.8955" fill="#85340A"/>
<path d="M24 26.67C25.4746 26.67 26.67 25.4746 26.67 24C26.67 22.5254 25.4746 21.33 24 21.33C22.5254 21.33 21.33 22.5254 21.33 24C21.33 25.4746 22.5254 26.67 24 26.67Z" fill="#F6B40E"/>
<path d="M24 26.74C22.49 26.74 21.26 25.51 21.26 24C21.26 22.49 22.49 21.26 24 21.26C25.51 21.26 26.74 22.49 26.74 24C26.74 25.51 25.51 26.74 24 26.74ZM24 21.4C22.57 21.4 21.4 22.57 21.4 24C21.4 25.43 22.57 26.6 24 26.6C25.43 26.6 26.6 25.43 26.6 24C26.6 22.57 25.43 21.4 24 21.4Z" fill="#85340A"/>
<path d="M24.9 23.4301C24.73 23.4301 24.55 23.5101 24.45 23.6701C24.65 23.8601 25.11 23.8701 25.42 23.6501C25.29 23.5101 25.1 23.4301 24.91 23.4301H24.9ZM24.9 23.4701C25.08 23.4701 25.25 23.5501 25.27 23.6301C25.07 23.8601 24.7399 23.8301 24.5299 23.6701C24.6299 23.5301 24.77 23.4701 24.91 23.4701H24.9Z" fill="#843511"/>
<path d="M23.08 23.3C23.35 23.3 23.41 23.36 23.53 23.47C23.65 23.57 23.72 23.55 23.73 23.57C23.76 23.59 23.73 23.65 23.7 23.63C23.65 23.61 23.57 23.57 23.45 23.47C23.33 23.37 23.2 23.37 23.08 23.37C22.71 23.37 22.51 23.67 22.47 23.65C22.42 23.63 22.67 23.3 23.08 23.3Z" fill="#85340A"/>
<path d="M22.34 23.4301C22.81 23.0201 23.41 22.9501 23.74 23.2601C23.82 23.3601 23.87 23.4801 23.89 23.6001C23.93 23.8401 23.86 24.0901 23.68 24.3501L23.76 24.3901C23.92 24.0801 23.98 23.7601 23.92 23.4501L23.86 23.2201C23.41 22.8501 22.79 22.8201 22.34 23.4201V23.4301Z" fill="#85340A"/>
<path d="M26.71 23.81C26.8094 23.81 26.89 23.7294 26.89 23.63C26.89 23.5305 26.8094 23.45 26.71 23.45C26.6106 23.45 26.53 23.5305 26.53 23.63C26.53 23.7294 26.6106 23.81 26.71 23.81Z" fill="#85340A"/>
<path d="M22.59 23.75C22.94 24.02 23.29 24 23.49 23.88C23.69 23.75 23.69 23.71 23.65 23.71C23.61 23.71 23.57 23.75 23.41 23.84C23.24 23.92 23 23.92 22.59 23.75Z" fill="#85340A"/>
<path d="M23.6001 24.37C23.5001 24.39 23.4401 24.49 23.4701 24.59C23.4901 24.69 23.5901 24.75 23.6901 24.72C23.7301 24.71 23.7601 24.69 23.7901 24.66C23.8601 24.7 23.9301 24.72 24.0101 24.72H24.0301C24.0901 24.72 24.1901 24.71 24.2601 24.66C24.2901 24.71 24.3501 24.73 24.4101 24.73C24.5101 24.74 24.6001 24.66 24.6101 24.56C24.6201 24.46 24.5401 24.37 24.4401 24.37C24.4901 24.39 24.5201 24.43 24.5201 24.49C24.5201 24.56 24.4701 24.61 24.4001 24.61C24.3301 24.61 24.2801 24.56 24.2801 24.49C24.2301 24.59 24.1301 24.66 24.0201 24.66C23.9101 24.65 23.8201 24.59 23.7701 24.49C23.7701 24.56 23.7101 24.61 23.6401 24.61C23.5801 24.61 23.5201 24.55 23.5201 24.49C23.5201 24.43 23.5501 24.39 23.6001 24.37ZM23.8001 24.91C23.5901 24.91 23.5001 25.11 23.3201 25.22C23.4201 25.18 23.5001 25.1 23.6501 25.02C23.7901 24.94 23.9101 25.04 24.0001 25.04C24.0801 25.04 24.2001 24.94 24.3501 25.02C24.4901 25.1 24.5801 25.18 24.6801 25.22C24.4901 25.1 24.4101 24.92 24.2001 24.92C24.1601 24.92 24.0801 24.94 24.0001 24.98L23.8001 24.91Z" fill="#85340A"/>
<path d="M23.7199 25.1601C23.6399 25.1601 23.5399 25.1801 23.3799 25.2201C23.7499 25.1401 23.8299 25.2701 23.9999 25.2701C24.1599 25.2701 24.2499 25.1401 24.6099 25.2201C24.2099 25.1001 24.1199 25.1801 23.9999 25.1801C23.9199 25.1801 23.8599 25.1501 23.7199 25.1601Z" fill="#85340A"/>
<path d="M23.4001 25.22H23.3201C23.7501 25.27 23.5501 25.52 24.0001 25.52C24.4501 25.52 24.2501 25.27 24.6801 25.22C24.2301 25.18 24.3701 25.45 24.0001 25.45C23.6501 25.45 23.7601 25.22 23.4001 25.22Z" fill="#85340A"/>
<path d="M24.3699 25.89C24.3699 25.69 24.1999 25.52 23.9999 25.52C23.7999 25.52 23.6299 25.69 23.6299 25.89C23.6799 25.69 23.8799 25.56 24.0899 25.61C24.2299 25.64 24.3399 25.75 24.3699 25.89Z" fill="#85340A"/>
<path d="M22.3398 23.4297C22.8098 23.0197 23.4098 22.9497 23.7398 23.2597C23.8198 23.3597 23.8698 23.4797 23.8898 23.5997C23.9298 23.8397 23.8598 24.0897 23.6798 24.3497L23.7598 24.3897C23.9198 24.0797 23.9798 23.7597 23.9198 23.4497L23.8598 23.2197C23.4098 22.8497 22.7898 22.8197 22.3398 23.4197V23.4297Z" fill="#85340A"/>
<path d="M25.718 23.4297C25.248 23.0197 24.648 22.9497 24.318 23.2597C24.238 23.3597 24.188 23.4797 24.168 23.5997C24.128 23.8397 24.198 24.0897 24.378 24.3497L24.298 24.3897C24.138 24.0797 24.078 23.7597 24.138 23.4497L24.198 23.2197C24.648 22.8497 25.268 22.8197 25.718 23.4197V23.4297Z" fill="#85340A"/>
<path d="M24.9579 23.3002C24.6879 23.3002 24.6279 23.3602 24.5079 23.4702C24.3879 23.5702 24.3179 23.5502 24.3079 23.5702C24.2779 23.5902 24.3079 23.6502 24.3379 23.6302C24.3879 23.6102 24.4679 23.5702 24.5879 23.4702C24.7079 23.3702 24.8379 23.3702 24.9579 23.3702C25.3279 23.3702 25.5279 23.6702 25.5679 23.6502C25.6179 23.6302 25.3679 23.3002 24.9579 23.3002Z" fill="#85340A"/>
<path d="M23.0677 23.4301C22.8977 23.4301 22.7177 23.5101 22.6177 23.6701C22.8177 23.8601 23.2777 23.8701 23.5877 23.6501C23.4577 23.5101 23.2677 23.4301 23.0777 23.4301H23.0677ZM23.0677 23.4701C23.2477 23.4701 23.4177 23.5501 23.4377 23.6301C23.2377 23.8601 22.9077 23.8301 22.6977 23.6701C22.7977 23.5301 22.9377 23.4701 23.0777 23.4701H23.0677Z" fill="#843511"/>
<path d="M23.0902 23.8098C23.1896 23.8098 23.2702 23.7292 23.2702 23.6298C23.2702 23.5304 23.1896 23.4498 23.0902 23.4498C22.9907 23.4498 22.9102 23.5304 22.9102 23.6298C22.9102 23.7292 22.9907 23.8098 23.0902 23.8098Z" fill="#85340A"/>
<path d="M24.8795 23.8098C24.9789 23.8098 25.0595 23.7292 25.0595 23.6298C25.0595 23.5304 24.9789 23.4498 24.8795 23.4498C24.7801 23.4498 24.6995 23.5304 24.6995 23.6298C24.6995 23.7292 24.7801 23.8098 24.8795 23.8098Z" fill="#85340A"/>
<path d="M25.4199 23.7503C25.0699 24.0203 24.7199 24.0003 24.5199 23.8803C24.3199 23.7503 24.3199 23.7103 24.3599 23.7103C24.3999 23.7103 24.4399 23.7503 24.5999 23.8403C24.7699 23.9203 25.0099 23.9203 25.4199 23.7503Z" fill="#85340A"/>
</g>
</g>
<defs>
<clipPath id="clip0_152_6574">
<rect width="48" height="48" fill="white"/>
</clipPath>
</defs>
</svg>
