<svg width="48" height="48" viewBox="0 0 48 48" fill="none" xmlns="http://www.w3.org/2000/svg">
<g clip-path="url(#clip0_152_6573)">
<mask id="mask0_152_6573" style="mask-type:alpha" maskUnits="userSpaceOnUse" x="0" y="0" width="48" height="48">
<circle cx="24" cy="24" r="24" fill="#D9D9D9"/>
</mask>
<g mask="url(#mask0_152_6573)">
<path d="M-8 0H56V48H-8V0Z" fill="#00008B"/>
<path d="M-4.25 0L7.95 9.05L20.1 0H24V3.1L12 12.05L24 20.95V24H20L8 15.05L-3.95 24H-8V21L3.95 12.1L-8 3.2V0H-4.25Z" fill="white"/>
<path d="M13.2 14.05L24 22V24L10.45 14.05H13.2ZM4 15.05L4.3 16.8L-5.3 24H-8L4 15.05ZM24 0V0.15L11.55 9.55L11.65 7.35L21.5 0H24ZM-8 0L3.95 8.8H0.95L-8 2.1V0Z" fill="#FF0000"/>
<path d="M4.05 0V24H12.05V0H4.05ZM-8 8V16H24V8H-8Z" fill="white"/>
<path d="M-8 9.65V14.45H24V9.65H-8ZM5.65 0V24H10.45V0H5.65Z" fill="#FF0000"/>
<path d="M44.7002 39.6699L42.6502 39.9299L42.8702 41.9799L41.3902 40.5399L39.9202 41.9899L40.1202 39.9399L38.0702 39.6999L39.8002 38.5799L38.7102 36.8299L40.6702 37.4799L41.3602 35.5299L42.0702 37.4699L44.0202 36.7999L42.9502 38.5599L44.6902 39.6699H44.7002ZM44.3302 27.9499L44.6002 26.6499L43.6202 25.7499L44.9402 25.5999L45.4902 24.3899L46.0402 25.5999L47.3602 25.7499L46.3802 26.6499L46.6502 27.9499L45.4902 27.2899L44.3302 27.9499ZM33.9202 21.9499L31.8902 22.1699L32.0702 24.1999L30.6302 22.7499L29.1502 24.1599L29.3902 22.1299L27.3702 21.8599L29.1002 20.7799L28.0502 19.0299L29.9802 19.7099L30.7002 17.7999L31.3702 19.7299L33.3102 19.0999L32.2202 20.8299L33.9302 21.9499H33.9202ZM54.3002 18.6699L52.2102 18.9399L52.4402 21.0299L50.9302 19.5599L49.4302 21.0399L49.6402 18.9399L47.5502 18.6999L49.3202 17.5499L48.2102 15.7599L50.2102 16.4299L50.9102 14.4499L51.6302 16.4299L53.6202 15.7399L52.5202 17.5399L54.3002 18.6699ZM44.6902 10.3199L42.6202 10.5499L42.8102 12.6299L41.3402 11.1499L39.8302 12.5899L40.0702 10.5199L38.0002 10.2399L39.7702 9.13994L38.7002 7.34994L40.6702 8.03994L41.4002 6.08994L42.0802 8.05993L44.0602 7.40993L42.9502 9.16993L44.6902 10.3199ZM15.4002 38.5699L10.8202 39.1099L11.2802 43.6999L8.00023 40.4599L4.70023 43.6799L5.19023 39.0899L0.610229 38.5099L4.50023 36.0299L2.10023 32.0899L6.46023 33.5899L8.04023 29.2499L9.59023 33.5999L13.9602 32.1299L11.5302 36.0499L15.4102 38.5599L15.4002 38.5699Z" fill="white"/>
</g>
</g>
<defs>
<clipPath id="clip0_152_6573">
<rect width="48" height="48" fill="white"/>
</clipPath>
</defs>
</svg>
