<svg width="48" height="48" viewBox="0 0 48 48" fill="none" xmlns="http://www.w3.org/2000/svg">
<g clip-path="url(#clip0_152_6576)">
<mask id="mask0_152_6576" style="mask-type:alpha" maskUnits="userSpaceOnUse" x="0" y="0" width="48" height="48">
<circle cx="24" cy="24" r="24" fill="#D9D9D9"/>
</mask>
<g mask="url(#mask0_152_6576)">
<g clip-path="url(#clip1_152_6576)">
<path fill-rule="evenodd" clip-rule="evenodd" d="M-16.1975 0L24.0025 24L-16.1975 48V0ZM64.2025 0L24.0025 24L64.2025 48V0Z" fill="#18B637"/>
<path fill-rule="evenodd" clip-rule="evenodd" d="M-16.1975 0L24.0025 24L64.2025 0H-16.1975ZM-16.1975 48L24.0025 24L64.2025 48H-16.1975Z" fill="#CF0921"/>
<path fill-rule="evenodd" clip-rule="evenodd" d="M64.2025 0H56.7119L-16.1975 43.5281V48H-8.70689L64.2025 4.47188V0Z" fill="white"/>
<path fill-rule="evenodd" clip-rule="evenodd" d="M37.8868 24C37.8868 27.6811 36.4245 31.2115 33.8215 33.8144C31.2186 36.4174 27.6882 37.8797 24.0071 37.8797C20.326 37.8797 16.7957 36.4174 14.1927 33.8144C11.5898 31.2115 10.1274 27.6811 10.1274 24C10.1274 20.3201 11.5893 16.791 14.1913 14.1889C16.7934 11.5868 20.3226 10.125 24.0024 10.125C27.6823 10.125 31.2115 11.5868 33.8135 14.1889C36.4156 16.791 37.8774 20.3201 37.8774 24H37.8868Z" fill="white"/>
<path fill-rule="evenodd" clip-rule="evenodd" d="M-16.1975 0V4.47188L56.7119 48H64.2025V43.5281L-8.70689 0H-16.1975Z" fill="white"/>
<path fill-rule="evenodd" clip-rule="evenodd" d="M26.74 18.7687L24.9306 18.7969L23.9931 20.3344L23.065 18.7969L21.265 18.7594L22.1369 17.175L21.2744 15.6L23.0744 15.5625L24.0119 14.025L24.94 15.5719L26.74 15.6094L25.8681 17.1844L26.74 18.7687ZM20.6838 29.2312L18.8838 29.2594L17.9463 30.7969L17.0181 29.2594L15.2181 29.2219L16.09 27.6375L15.2275 26.0625L17.0275 26.025L17.965 24.4875L18.8931 26.0344L20.6931 26.0719L19.8213 27.6469L20.6838 29.2312ZM32.9275 29.2312L31.1275 29.2594L30.19 30.7969L29.2525 29.2594L27.4619 29.2219L28.3338 27.6375L27.4619 26.0625L29.2619 26.025L30.1994 24.4875L31.1369 26.0344L32.9369 26.0719L32.0556 27.6469L32.9275 29.2312Z" fill="#CF0921"/>
<path fill-rule="evenodd" clip-rule="evenodd" d="M24.0131 13.6718L25.0448 15.3912L27.0466 15.4329L26.0769 17.1846L27.0467 18.9468L25.0342 18.9781L23.9923 20.6868L22.9605 18.9776L20.9592 18.9359L21.9283 17.1748L20.9693 15.4235L22.9704 15.3818L24.0131 13.6718ZM24.0106 14.3782L23.1783 15.7432L21.5795 15.7765L22.3454 17.1752L21.5708 18.5829L23.1695 18.6162L23.9939 19.9819L24.827 18.6157L26.4334 18.5907L25.6593 17.1841L26.4334 15.7858L24.8352 15.7525L24.0106 14.3782ZM17.9663 24.1343L18.9979 25.8537L20.9998 25.8954L20.0298 27.6476L20.9888 29.4093L18.9874 29.4406L17.9455 31.1493L16.9137 29.4401L14.9124 29.3984L15.8815 27.6373L14.9224 25.886L16.9236 25.8443L17.9663 24.1343ZM30.1999 24.1356L31.2411 25.8537L33.2451 25.8954L32.2647 27.6476L33.2341 29.4093L31.2311 29.4406L30.19 31.148L29.1486 29.4401L27.1561 29.3983L28.1249 27.6378L27.1552 25.886L29.1579 25.8443L30.1999 24.1356ZM17.9637 24.8407L17.1315 26.2057L15.5326 26.239L16.2986 27.6377L15.5239 29.0454L17.1226 29.0787L17.947 30.4444L18.7801 29.0782L20.3787 29.0532L19.6127 27.6461L20.3865 26.2483L18.7883 26.215L17.9637 24.8407ZM30.1989 24.8394L29.3658 26.2057L27.7685 26.239L28.5426 27.6372L27.7676 29.0454L29.3565 29.0787L30.19 30.4457L31.0239 29.0782L32.6209 29.0532L31.8466 27.6461L32.6287 26.2483L31.0326 26.2151L30.1989 24.8394Z" fill="#18B637"/>
</g>
</g>
</g>
<defs>
<clipPath id="clip0_152_6576">
<rect width="48" height="48" fill="white"/>
</clipPath>
<clipPath id="clip1_152_6576">
<rect width="64" height="48" fill="white" transform="translate(-8)"/>
</clipPath>
</defs>
</svg>
