<svg width="48" height="48" viewBox="0 0 48 48" fill="none" xmlns="http://www.w3.org/2000/svg">
<g clip-path="url(#clip0_152_46384)">
<mask id="mask0_152_46384" style="mask-type:alpha" maskUnits="userSpaceOnUse" x="0" y="0" width="48" height="48">
<circle cx="24" cy="24" r="24" fill="#D9D9D9"/>
</mask>
<g mask="url(#mask0_152_46384)">
<g clip-path="url(#clip1_152_46384)">
<path fill-rule="evenodd" clip-rule="evenodd" d="M-8 0H56V48H-8V0Z" fill="#229E45"/>
<path fill-rule="evenodd" clip-rule="evenodd" d="M24.14 43.6L54.29 24.03L23.96 4.40002L-6.29004 24.07L24.14 43.6Z" fill="#F8E509"/>
<path fill-rule="evenodd" clip-rule="evenodd" d="M37.2801 24C37.2801 31.03 31.5701 36.73 24.5201 36.73C22.0007 36.726 19.5392 35.9752 17.4465 34.5725C15.3538 33.1698 13.724 31.1781 12.7631 28.8492C11.8022 26.5204 11.5534 23.9589 12.048 21.4886C12.5427 19.0184 13.7586 16.7502 15.5421 14.9709C17.3256 13.1915 19.5967 11.981 22.0681 11.4921C24.5395 11.0033 27.1004 11.2582 29.427 12.2246C31.7536 13.1909 33.7414 14.8254 35.1392 16.9214C36.537 19.0173 37.282 21.4807 37.2801 24Z" fill="#2B49A3"/>
<path fill-rule="evenodd" clip-rule="evenodd" d="M20.33 31.63L19.93 31.4L19.53 31.6L19.62 31.15L19.3 30.81L19.75 30.76L19.97 30.36L20.16 30.78L20.6 30.86L20.27 31.16L20.33 31.63ZM28.87 33.79L28.48 33.56L28.08 33.76L28.16 33.31L27.85 32.98L28.3 32.93L28.51 32.52L28.71 32.94L29.15 33.02L28.81 33.33L28.87 33.79ZM25.19 30.33L24.85 30.13L24.5 30.31L24.58 29.92L24.3 29.63L24.7 29.59L24.88 29.23L25.04 29.6L25.43 29.67L25.13 29.94L25.19 30.33ZM33.83 29.09L33.49 28.89L33.14 29.07L33.22 28.68L32.95 28.4L33.34 28.36L33.52 28.01L33.68 28.37L34.06 28.44L33.77 28.7L33.83 29.09ZM25.04 26.5L24.64 26.28L24.24 26.48L24.32 26.02L24.01 25.69L24.46 25.64L24.67 25.23L24.87 25.65L25.31 25.73L24.97 26.05L25.04 26.5ZM14.51 22.55L14.11 22.33L13.71 22.53L13.81 22.07L13.48 21.74L13.94 21.69L14.14 21.28L14.34 21.7L14.78 21.78L14.45 22.09L14.51 22.55ZM15.78 27.81L15.38 27.58L14.98 27.78L15.07 27.33L14.75 27L15.2 26.94L15.41 26.54L15.61 26.96L16.05 27.04L15.72 27.35L15.78 27.81ZM28.92 20.62L28.56 20.42L28.2 20.6L28.28 20.2L28 19.9L28.4 19.85L28.59 19.49L28.76 19.87L29.16 19.94L28.86 20.21L28.92 20.62ZM28.19 24.04L27.92 23.88L27.63 24.02L27.69 23.7L27.47 23.47L27.79 23.43L27.94 23.15L28.07 23.45L28.37 23.5L28.15 23.72L28.19 24.04ZM13.93 28.76L13.66 28.61L13.39 28.74L13.45 28.44L13.24 28.22L13.54 28.18L13.68 27.91L13.81 28.19L14.11 28.25L13.88 28.45L13.93 28.76ZM33.9 29.98L33.68 29.87L33.46 29.97L33.51 29.74L33.34 29.58L33.58 29.55L33.7 29.35L33.8 29.55L34.05 29.6L33.86 29.75" fill="#FFFFEF"/>
<path fill-rule="evenodd" clip-rule="evenodd" d="M13.93 28.76L13.66 28.61L13.39 28.74L13.45 28.44L13.24 28.22L13.54 28.18L13.68 27.91L13.81 28.19L14.11 28.25L13.88 28.45" fill="#FFFFEF"/>
<path fill-rule="evenodd" clip-rule="evenodd" d="M13.93 28.76L13.66 28.61L13.39 28.74L13.45 28.44L13.24 28.22L13.54 28.18L13.68 27.91L13.81 28.19L14.11 28.25L13.88 28.45L13.93 28.76ZM18.11 28.75L17.85 28.61L17.58 28.74L17.64 28.44L17.43 28.22L17.73 28.18L17.87 27.91L18 28.19L18.3 28.24L18.07 28.45L18.11 28.75ZM17.59 30.15L17.33 30L17.06 30.14L17.12 29.84L16.91 29.61L17.21 29.57L17.35 29.3L17.48 29.58L17.78 29.64L17.55 29.84L17.59 30.15ZM26.29 27.62L26.03 27.46L25.75 27.6L25.81 27.3L25.61 27.07L25.91 27.04L26.05 26.77L26.17 27.05L26.47 27.1L26.25 27.31L26.29 27.62ZM23.74 27.61L23.47 27.46L23.2 27.6L23.26 27.3L23.06 27.07L23.36 27.04L23.5 26.76L23.62 27.05L23.92 27.1L23.7 27.31L23.74 27.61ZM16.82 26.73L16.65 26.63L16.48 26.71L16.52 26.52L16.39 26.38L16.58 26.36L16.66 26.19L16.74 26.37L16.93 26.4L16.79 26.53L16.82 26.73ZM33.57 31.07L33.31 30.92L33.04 31.06L33.1 30.76L32.89 30.53L33.19 30.49L33.33 30.22L33.46 30.5L33.76 30.56L33.53 30.76L33.57 31.07ZM31.45 31.36L31.23 31.22L31 31.34L31.05 31.08L30.88 30.9L31.13 30.87L31.25 30.64L31.35 30.88L31.6 30.92L31.41 31.1L31.45 31.36ZM32.45 31.33L32.25 31.21L32.04 31.31L32.08 31.08L31.92 30.91L32.15 30.88L32.26 30.68L32.36 30.88L32.59 30.93L32.42 31.09L32.45 31.33ZM35.33 28.81L35.13 28.71L34.93 28.81L34.98 28.58L34.82 28.41L35.05 28.38L35.15 28.18L35.25 28.39L35.46 28.43L35.3 28.59L35.33 28.81ZM31.42 32.77L31.17 32.63L30.9 32.75L30.96 32.47L30.76 32.27L31.06 32.24L31.19 31.99L31.31 32.25L31.61 32.3L31.38 32.49L31.42 32.77ZM31.44 33.91L31.2 33.77L30.96 33.9L31.02 33.62L30.83 33.42L31.1 33.38L31.22 33.13L31.33 33.39L31.6 33.44L31.4 33.64L31.44 33.91ZM29.5 31.33L29.31 31.21L29.11 31.31L29.15 31.09L29 30.92L29.22 30.9L29.32 30.7L29.42 30.9L29.64 30.94L29.48 31.1L29.5 31.33ZM27.7 31.33L27.5 31.21L27.3 31.31L27.35 31.09L27.19 30.92L27.42 30.9L27.52 30.7L27.62 30.9L27.83 30.94L27.67 31.1L27.7 31.33ZM24.63 28.64L24.43 28.53L24.23 28.63L24.28 28.4L24.12 28.24L24.34 28.21L24.44 28.01L24.54 28.21L24.76 28.26L24.6 28.41L24.63 28.64ZM24.97 34.11L24.81 34.02L24.63 34.11L24.67 33.91L24.54 33.77L24.73 33.75L24.82 33.58L24.9 33.76L25.09 33.79L24.95 33.92L24.97 34.11ZM20.33 25.26L19.93 25.03L19.53 25.23L19.62 24.78L19.3 24.45L19.75 24.39L19.97 23.99L20.16 24.41L20.6 24.49L20.27 24.8" fill="#FFFFEF"/>
<path fill-rule="evenodd" clip-rule="evenodd" d="M36.44 28.58C36.6878 27.9372 36.8818 27.2749 37.02 26.6C30.24 20.65 22.69 17.6 13.15 18.23C12.804 18.8995 12.5195 19.599 12.3 20.32C23.6 19.24 31.9 24.24 36.44 28.58Z" fill="white"/>
<path d="M33.3999 25.24L33.6299 25.37C33.5956 25.4379 33.585 25.5154 33.5999 25.59C33.6234 25.6623 33.6734 25.7231 33.7399 25.76C33.8099 25.81 33.8799 25.84 33.9399 25.83C33.9999 25.83 34.0399 25.8 34.0699 25.76C34.0874 25.7334 34.0945 25.7014 34.0899 25.67C34.0818 25.633 34.0646 25.5987 34.0399 25.57C34.0199 25.54 33.9699 25.47 33.8899 25.39C33.8077 25.3051 33.7461 25.2025 33.7099 25.09C33.685 25.0048 33.6915 24.9136 33.7282 24.8328C33.7649 24.752 33.8294 24.6872 33.9099 24.65C33.9827 24.6196 34.0631 24.6126 34.1399 24.63C34.234 24.6516 34.3225 24.6925 34.3999 24.75C34.5399 24.85 34.6299 24.95 34.6599 25.07C34.6738 25.1261 34.6756 25.1845 34.6652 25.2414C34.6549 25.2983 34.6326 25.3523 34.5999 25.4L34.3599 25.25C34.3899 25.19 34.3999 25.13 34.3799 25.08C34.3699 25.03 34.3299 24.98 34.2599 24.94C34.2086 24.8987 34.1457 24.8742 34.0799 24.87C34.0618 24.8694 34.0439 24.8737 34.028 24.8825C34.0122 24.8913 33.999 24.9043 33.9899 24.92C33.9699 24.95 33.9699 24.98 33.9799 25.02C33.9899 25.06 34.0399 25.14 34.1399 25.24C34.2399 25.34 34.2999 25.43 34.3399 25.49C34.3757 25.5555 34.3918 25.6299 34.3865 25.7044C34.3812 25.7788 34.3546 25.8502 34.3099 25.91C34.2632 25.978 34.1969 26.0302 34.1199 26.06C34.045 26.0945 33.9611 26.105 33.8799 26.09C33.7899 26.07 33.6999 26.03 33.5999 25.96C33.4499 25.86 33.3599 25.75 33.3299 25.63C33.2974 25.4939 33.3189 25.3505 33.3899 25.23L33.3999 25.24ZM32.2399 24.48L32.4899 24.61C32.459 24.679 32.4519 24.7565 32.4699 24.83C32.4955 24.8986 32.5453 24.9555 32.6099 24.99C32.6899 25.04 32.7499 25.06 32.8099 25.05C32.8699 25.05 32.9099 25.02 32.9399 24.97C32.9551 24.9462 32.9621 24.9181 32.9599 24.89C32.9599 24.86 32.9399 24.82 32.9099 24.79C32.8587 24.7281 32.8054 24.6681 32.7499 24.61C32.6399 24.5 32.5699 24.41 32.5499 24.33C32.5336 24.2785 32.5287 24.2241 32.5356 24.1705C32.5425 24.117 32.5611 24.0656 32.5899 24.02C32.628 23.9583 32.6837 23.9095 32.7499 23.88C32.8187 23.8483 32.8953 23.8379 32.9699 23.85C33.0624 23.8656 33.1509 23.8996 33.2299 23.95C33.3799 24.05 33.4699 24.15 33.4999 24.26C33.5182 24.3162 33.524 24.3757 33.5171 24.4344C33.5102 24.493 33.4907 24.5495 33.4599 24.6L33.2099 24.46C33.2399 24.39 33.2499 24.34 33.2299 24.29C33.2099 24.24 33.1699 24.19 33.0999 24.15C33.0446 24.1103 32.978 24.0892 32.9099 24.09C32.8935 24.0911 32.8776 24.0962 32.8637 24.1049C32.8497 24.1137 32.8381 24.1257 32.8299 24.14C32.8099 24.17 32.8099 24.2 32.8199 24.24C32.8299 24.28 32.8899 24.36 32.9899 24.46C33.0899 24.56 33.1599 24.64 33.1899 24.7C33.23 24.7627 33.2513 24.8356 33.2513 24.91C33.2513 24.9844 33.23 25.0573 33.1899 25.12C33.1468 25.1897 33.0843 25.2454 33.0099 25.28C32.935 25.3145 32.8511 25.325 32.7699 25.31C32.667 25.2926 32.5685 25.2552 32.4799 25.2C32.3507 25.1311 32.2511 25.0172 32.1999 24.88C32.1613 24.7465 32.1756 24.6032 32.2399 24.48ZM30.8199 24.1L31.5499 22.9L32.4299 23.45L32.3099 23.65L31.6699 23.25L31.5099 23.52L32.1099 23.89L31.9799 24.09L31.3799 23.72L31.1799 24.05L31.8499 24.45L31.7299 24.65L30.8299 24.1H30.8199ZM28.7499 22.4L28.8599 22.2L29.3999 22.47L29.1499 22.97C29.0699 22.99 28.9699 23 28.8499 22.99C28.7347 22.9773 28.6228 22.9434 28.5199 22.89C28.3989 22.831 28.2955 22.7414 28.2199 22.63C28.1512 22.5265 28.1162 22.4042 28.1199 22.28C28.125 22.1507 28.1592 22.0242 28.2199 21.91C28.28 21.7897 28.3694 21.6865 28.4799 21.61C28.5856 21.5369 28.7114 21.4984 28.8399 21.5C28.9399 21.5 29.0399 21.53 29.1599 21.6C29.3199 21.67 29.4199 21.77 29.4699 21.88C29.5219 21.9892 29.5326 22.1135 29.4999 22.23L29.2299 22.15C29.2465 22.083 29.2394 22.0124 29.2099 21.95C29.1799 21.89 29.1299 21.85 29.0499 21.81C29.0033 21.7834 28.9516 21.7669 28.8982 21.7618C28.8447 21.7566 28.7908 21.7628 28.7399 21.78C28.6399 21.81 28.5499 21.9 28.4799 22.04C28.4099 22.18 28.3799 22.31 28.4099 22.42C28.4238 22.4721 28.4488 22.5207 28.4834 22.5621C28.5179 22.6036 28.5611 22.637 28.6099 22.66C28.6599 22.69 28.7199 22.71 28.7799 22.71C28.8396 22.719 28.9003 22.719 28.9599 22.71L29.0399 22.55L28.7499 22.4ZM19.7299 20.17L19.9299 18.77L20.3499 18.84L20.4599 19.82L20.8499 18.92L21.2699 18.98L21.0699 20.36L20.7999 20.32L20.9699 19.23L20.5299 20.28L20.2599 20.24L20.1499 19.11L19.9899 20.21L19.7299 20.17ZM18.3199 20L18.4499 18.6L19.4799 18.7L19.4599 18.94L18.7099 18.87L18.6799 19.17L19.3799 19.24L19.3499 19.48L18.6499 19.41L18.6199 19.79L19.3999 19.86L19.3799 20.1L18.3199 20Z" fill="#309E3A"/>
<path d="M13.65 19.13C13.65 18.98 13.68 18.87 13.72 18.77C13.755 18.6989 13.8024 18.6345 13.86 18.58C13.9113 18.5282 13.9725 18.4874 14.04 18.46C14.14 18.43 14.24 18.41 14.34 18.41C14.55 18.41 14.71 18.49 14.84 18.61C14.9018 18.6864 14.9479 18.7744 14.9753 18.8689C15.0028 18.9633 15.0112 19.0623 15 19.16C15 19.38 14.93 19.56 14.8 19.69C14.7332 19.7517 14.6541 19.7988 14.568 19.828C14.4819 19.8573 14.3906 19.8682 14.3 19.86C14.2106 19.8609 14.1219 19.8436 14.0394 19.8092C13.9569 19.7749 13.8823 19.7241 13.82 19.66C13.6955 19.5127 13.6344 19.3222 13.65 19.13Z" fill="#309E3A"/>
<path d="M13.9399 19.13C13.9399 19.28 13.9699 19.4 14.0399 19.49C14.1099 19.57 14.1999 19.62 14.3199 19.62C14.3719 19.6236 14.4239 19.6156 14.4724 19.5966C14.5208 19.5776 14.5644 19.548 14.5999 19.51C14.6699 19.43 14.6999 19.31 14.7099 19.14C14.7099 18.98 14.6899 18.86 14.6099 18.78C14.5774 18.7397 14.5363 18.7071 14.4896 18.6846C14.4429 18.6621 14.3918 18.6503 14.3399 18.65C14.2873 18.6483 14.235 18.6582 14.1866 18.6789C14.1382 18.6996 14.095 18.7307 14.0599 18.77C13.9799 18.85 13.9499 18.97 13.9399 19.13Z" fill="#F7FFFF"/>
<path d="M15.3 19.85L15.32 18.45H15.92C16.07 18.45 16.17 18.47 16.24 18.5C16.31 18.52 16.36 18.57 16.4 18.63C16.44 18.69 16.46 18.77 16.46 18.86C16.4608 18.9562 16.4251 19.0491 16.36 19.12C16.2861 19.1893 16.191 19.2315 16.09 19.24L16.24 19.36C16.28 19.4 16.33 19.48 16.39 19.59L16.56 19.87H16.22L16.02 19.55L15.88 19.35C15.8558 19.3225 15.8248 19.3018 15.79 19.29C15.7446 19.2767 15.6974 19.27 15.65 19.27H15.59V19.85H15.3Z" fill="#309E3A"/>
<path d="M15.6001 19.05H15.8001C15.9401 19.05 16.0301 19.05 16.0601 19.03C16.0901 19.03 16.1201 19 16.1401 18.98C16.1601 18.96 16.1701 18.91 16.1701 18.88C16.1701 18.82 16.1601 18.78 16.1301 18.76C16.1101 18.73 16.0701 18.71 16.0301 18.7H15.8301L15.6001 18.69V19.04V19.05Z" fill="white"/>
<path d="M16.9 18.52L17.42 18.55C17.53 18.55 17.62 18.56 17.68 18.58C17.7578 18.6083 17.8268 18.6566 17.88 18.72C17.9376 18.7899 17.9786 18.872 18 18.96C18.03 19.05 18.04 19.16 18.03 19.29C18.0299 19.3921 18.013 19.4934 17.98 19.59C17.94 19.69 17.88 19.77 17.81 19.83C17.7517 19.878 17.6833 19.9122 17.61 19.93C17.55 19.95 17.46 19.95 17.36 19.95L16.83 19.92L16.9 18.52Z" fill="#309E3A"/>
<path d="M17.17 18.77L17.12 19.7H17.5C17.55 19.7 17.59 19.68 17.62 19.65C17.65 19.62 17.68 19.58 17.7 19.52C17.72 19.46 17.74 19.37 17.74 19.26L17.73 19.01C17.7157 18.9573 17.6882 18.9091 17.65 18.87C17.6168 18.8366 17.5754 18.8125 17.53 18.8C17.4544 18.7832 17.3774 18.7731 17.3 18.77H17.17Z" fill="white"/>
<path d="M23.76 21.02L24.09 19.66L24.53 19.76L24.85 19.86C24.92 19.9 24.98 19.96 25.01 20.05C25.05 20.13 25.05 20.22 25.03 20.33C25.01 20.41 24.98 20.48 24.93 20.53C24.8933 20.5739 24.8474 20.6092 24.7956 20.6334C24.7438 20.6576 24.6872 20.6701 24.63 20.67C24.56 20.67 24.46 20.65 24.33 20.62L24.16 20.57L24.04 21.09L23.76 21.02Z" fill="#309E3A"/>
<path d="M24.3 19.96L24.22 20.34L24.37 20.38C24.47 20.4 24.55 20.42 24.59 20.41C24.6289 20.4046 24.6651 20.3872 24.6938 20.3604C24.7224 20.3335 24.7421 20.2984 24.75 20.26C24.75 20.21 24.75 20.17 24.73 20.13C24.708 20.0893 24.6727 20.0575 24.63 20.04L24.44 19.99L24.31 19.96H24.3Z" fill="white"/>
<path d="M25.0601 21.41L25.5301 20.09L26.0801 20.29C26.2301 20.34 26.3201 20.39 26.3801 20.43C26.4301 20.48 26.4701 20.53 26.4801 20.61C26.4901 20.69 26.5001 20.76 26.4801 20.84C26.4401 20.94 26.3801 21.01 26.3001 21.06C26.2201 21.1 26.1201 21.11 26.0001 21.09C26.0401 21.14 26.0801 21.19 26.1001 21.25L26.1801 21.52L26.2401 21.83L25.9301 21.72L25.8301 21.36C25.8119 21.2786 25.7885 21.1984 25.7601 21.12C25.7468 21.0889 25.7262 21.0615 25.7001 21.04C25.6801 21.01 25.6401 20.99 25.5701 20.97L25.5201 20.95L25.3201 21.51L25.0601 21.41Z" fill="#309E3A"/>
<path d="M25.6001 20.74L25.7901 20.81C25.9201 20.86 26.0001 20.88 26.0401 20.88C26.0701 20.88 26.1001 20.88 26.1301 20.85C26.1601 20.83 26.1801 20.8 26.1901 20.76C26.2101 20.72 26.2101 20.68 26.1901 20.64C26.1753 20.6013 26.1468 20.5693 26.1101 20.55L25.9101 20.48L25.7101 20.41L25.5901 20.74H25.6001Z" fill="white"/>
<path d="M26.7 21.36C26.7344 21.2429 26.7922 21.134 26.87 21.04C26.9206 20.9797 26.9816 20.9289 27.05 20.89C27.112 20.855 27.1797 20.8313 27.25 20.82C27.35 20.82 27.45 20.82 27.56 20.86C27.6494 20.8821 27.7331 20.923 27.8055 20.9799C27.8779 21.0368 27.9374 21.1084 27.98 21.19C28.06 21.35 28.06 21.54 28 21.76C27.9505 21.949 27.8283 22.1108 27.66 22.21C27.51 22.3 27.33 22.31 27.14 22.25C27.0509 22.2273 26.9675 22.1862 26.8951 22.1294C26.8228 22.0726 26.7632 22.0012 26.72 21.92C26.68 21.8326 26.6576 21.7381 26.6542 21.642C26.6507 21.5459 26.6663 21.4501 26.7 21.36Z" fill="#309E3A"/>
<path d="M26.98 21.44C26.94 21.59 26.93 21.72 26.98 21.82C27.03 21.92 27.1 21.98 27.21 22.02C27.31 22.05 27.41 22.04 27.51 21.98C27.61 21.93 27.67 21.82 27.72 21.66C27.77 21.51 27.77 21.39 27.72 21.29C27.7003 21.2426 27.6703 21.2001 27.6323 21.1655C27.5943 21.1309 27.5491 21.1052 27.5 21.09C27.4508 21.073 27.3985 21.0669 27.3467 21.0721C27.2949 21.0773 27.2449 21.0936 27.2 21.12C27.1 21.18 27.03 21.28 26.98 21.44Z" fill="white"/>
<path d="M29.4299 23.31L30.0699 22.07L30.5999 22.34C30.6998 22.3879 30.7911 22.4522 30.8699 22.53C30.9199 22.58 30.9499 22.64 30.9499 22.72C30.9499 22.8 30.9499 22.87 30.9099 22.94C30.8715 23.0299 30.7999 23.1016 30.7099 23.14C30.6099 23.16 30.5099 23.16 30.3999 23.12C30.4399 23.18 30.4599 23.24 30.4799 23.29C30.4999 23.35 30.5099 23.44 30.5199 23.57L30.5399 23.89L30.2399 23.74L30.1999 23.37C30.1952 23.2861 30.1852 23.2026 30.1699 23.12C30.1631 23.0826 30.1458 23.0479 30.1199 23.02L29.9999 22.95L29.9499 22.92L29.6799 23.44L29.4299 23.31Z" fill="#309E3A"/>
<path d="M30.0499 22.72L30.2399 22.82C30.3599 22.88 30.4399 22.92 30.4699 22.92C30.4999 22.92 30.5399 22.92 30.5699 22.9C30.5999 22.89 30.6199 22.86 30.6399 22.82C30.6599 22.78 30.6699 22.74 30.6599 22.7C30.6476 22.6602 30.6231 22.6252 30.5899 22.6C30.5314 22.5641 30.4713 22.5307 30.4099 22.5L30.2099 22.4L30.0499 22.72Z" fill="white"/>
<path d="M34.6101 25.87C34.6748 25.7672 34.7598 25.6787 34.8601 25.61C34.9273 25.567 35.0019 25.5365 35.0801 25.52C35.1526 25.5052 35.2275 25.5052 35.3001 25.52C35.4001 25.54 35.4901 25.58 35.58 25.64C35.6579 25.6885 35.7247 25.7527 35.7764 25.8284C35.8281 25.9042 35.8634 25.9899 35.88 26.08C35.9101 26.25 35.8601 26.44 35.7401 26.63C35.6397 26.7953 35.4778 26.914 35.2901 26.96C35.2005 26.9794 35.1079 26.9796 35.0183 26.9606C34.9287 26.9416 34.8441 26.904 34.7701 26.85C34.6922 26.8015 34.6254 26.7374 34.5737 26.6616C34.5221 26.5859 34.4868 26.5002 34.4701 26.41C34.4401 26.23 34.4901 26.05 34.6101 25.87Z" fill="#309E3A"/>
<path d="M34.86 26.0301C34.76 26.1601 34.73 26.2801 34.75 26.3901C34.7574 26.4407 34.7754 26.4892 34.803 26.5323C34.8306 26.5754 34.8671 26.6122 34.91 26.6401C35.01 26.7101 35.11 26.7301 35.21 26.7001C35.31 26.6701 35.41 26.6001 35.5 26.4601C35.59 26.3201 35.63 26.2001 35.61 26.1001C35.6 26.0001 35.54 25.9101 35.45 25.8401C35.36 25.7701 35.25 25.7601 35.15 25.7901C35.05 25.8101 34.95 25.8901 34.85 26.0301H34.86Z" fill="white"/>
<path d="M22.1801 20.45L22.4101 19.47L23.1301 19.64L23.1001 19.8L22.5701 19.68L22.5201 19.9L23.0101 20.01L22.9701 20.18L22.4801 20.06L22.4201 20.33L22.9701 20.46L22.9301 20.62L22.1801 20.45Z" fill="#309E3A"/>
</g>
</g>
</g>
<defs>
<clipPath id="clip0_152_46384">
<rect width="48" height="48" fill="white"/>
</clipPath>
<clipPath id="clip1_152_46384">
<rect width="64" height="48" fill="white" transform="translate(-8)"/>
</clipPath>
</defs>
</svg>
