<svg width="48" height="48" viewBox="0 0 48 48" fill="none" xmlns="http://www.w3.org/2000/svg">
<g clip-path="url(#clip0_152_46356)">
<mask id="mask0_152_46356" style="mask-type:alpha" maskUnits="userSpaceOnUse" x="0" y="0" width="48" height="48">
<circle cx="24" cy="24" r="24" fill="#D9D9D9"/>
</mask>
<g mask="url(#mask0_152_46356)">
<g clip-path="url(#clip1_152_46356)">
<path fill-rule="evenodd" clip-rule="evenodd" d="M-6.02954 21.902H73.5321V41.266H-6.03894L-6.02954 21.902Z" fill="white"/>
<path fill-rule="evenodd" clip-rule="evenodd" d="M-5.97314 0H73.5508V24.1204H-5.97314V0ZM-5.94494 36.2746H74.1525V48.128H-5.94494V36.2746Z" fill="#081873"/>
<path fill-rule="evenodd" clip-rule="evenodd" d="M-5.94495 28.4444H73.579V32.1668H-5.94495V28.4444Z" fill="#DE3929"/>
<path fill-rule="evenodd" clip-rule="evenodd" d="M17.8841 37.5248L18.5045 39.4424H20.5161L18.8805 40.6362L19.5009 42.5632L17.8841 41.36L16.2485 42.5538L16.8783 40.6268L15.2427 39.433H17.2637L17.8841 37.5248ZM35.3681 23.5376L35.9979 25.4646H38.0001L36.3645 26.649L36.9849 28.576L35.3493 27.3822L33.7137 28.576L34.3341 26.649L32.6985 25.4646H34.7289L35.3681 23.5376ZM13.8609 31.5182L14.4813 33.4452H16.5023L14.8761 34.6484L15.5059 36.566L13.8703 35.3816L12.2347 36.566L12.8551 34.6484L11.2195 33.4546H13.2405L13.8609 31.5182ZM35.3681 30.973L35.9979 32.8906H38.0001L36.3645 34.0844L36.9849 36.002L35.3493 34.8176L33.7137 36.0114L34.3341 34.0844L32.6985 32.8906H34.7289L35.3681 30.973ZM30.9219 17.6908L31.5517 19.6084H33.5821L31.9465 20.8022L32.5669 22.7292L30.9313 21.5354L29.2957 22.7292L29.9255 20.8022L28.2805 19.6084H30.3109L30.9219 17.6908ZM24.2479 15.3596L24.8777 17.2866H26.8987L25.2631 18.471L25.8835 20.398L24.2479 19.2136L22.6123 20.398L23.2421 18.471L21.6065 17.2866H23.6181L24.2479 15.3596ZM17.5551 17.5592L18.1849 19.4862H20.2059L18.5703 20.6706L19.2001 22.5976L17.5551 21.4038L15.9195 22.5976L16.5493 20.6706L14.9137 19.4862H16.9441L17.5551 17.5592ZM13.6729 23.547L14.2933 25.474H16.3237L14.6787 26.6584L15.3085 28.5854L13.6729 27.3916L12.0373 28.5854L12.6577 26.6584L11.0221 25.474H13.0431L13.6729 23.547ZM24.2479 39.5176L24.8777 41.4446H26.8987L25.2631 42.629L25.8929 44.556L24.2479 43.3622L22.6123 44.556L23.2421 42.629L21.6065 41.4446H23.6181L24.2479 39.5176ZM31.3449 37.5248L31.9653 39.4424H33.9863L32.3601 40.6362L32.9899 42.5632L31.3543 41.3694L29.7093 42.5632L30.3391 40.6362L28.7035 39.4424H30.7245" fill="#FFCE08"/>
</g>
</g>
</g>
<defs>
<clipPath id="clip0_152_46356">
<rect width="48" height="48" fill="white"/>
</clipPath>
<clipPath id="clip1_152_46356">
<rect width="64" height="48" fill="white" transform="translate(-6)"/>
</clipPath>
</defs>
</svg>
