<svg width="48" height="48" viewBox="0 0 48 48" fill="none" xmlns="http://www.w3.org/2000/svg">
<g clip-path="url(#clip0_152_46367)">
<mask id="mask0_152_46367" style="mask-type:alpha" maskUnits="userSpaceOnUse" x="0" y="0" width="48" height="48">
<circle cx="24" cy="24" r="24" fill="#D9D9D9"/>
</mask>
<g mask="url(#mask0_152_46367)">
<g clip-path="url(#clip1_152_46367)">
<path fill-rule="evenodd" clip-rule="evenodd" d="M-23.6221 0.32901H73.9499V47.141H-23.6221V0.32901Z" fill="#FFC621"/>
<path fill-rule="evenodd" clip-rule="evenodd" d="M-23.8101 32.195H73.8841V48.128H-23.8101V32.195Z" fill="#EF2118"/>
<path fill-rule="evenodd" clip-rule="evenodd" d="M-23.6221 0H73.9499V16.92H-23.6221V0Z" fill="#298C08"/>
<path d="M23.4407 35.0111C29.0391 35.0111 33.5775 30.4727 33.5775 24.8743C33.5775 19.2759 29.0391 14.7375 23.4407 14.7375C17.8423 14.7375 13.304 19.2759 13.304 24.8743C13.304 30.4727 17.8423 35.0111 23.4407 35.0111Z" fill="#006BC6"/>
<path fill-rule="evenodd" clip-rule="evenodd" d="M18.8942 17.6908L18.2832 18.1138L20.4922 21.2158L21.0844 20.8398L18.8848 17.6908H18.8942ZM21.6578 25.0228L20.746 24.3836L21.122 23.1898L16.6005 23.2556L15.2845 22.2498L21.4604 22.184L22.6072 18.7154L23.2275 20.1254L21.6578 25.0134V25.0228ZM28.8488 18.377L28.2565 17.9258L25.9724 20.9714L26.4988 21.4132L28.8488 18.377ZM22.7012 23.218L23.0301 22.1652H24.2804L22.8515 17.86L23.4155 16.309L25.3426 22.1746L28.9898 22.2216L27.843 23.2274L22.7012 23.2086V23.218ZM31.2175 28.0308L31.4713 27.3352L27.8711 26.085L27.608 26.743L31.2175 28.0308ZM24.7221 23.6692L25.822 23.6598L26.2074 24.8442L29.8545 22.1652L31.5089 22.2216L26.5175 25.8594L27.5985 29.3562L26.2825 28.5666L24.7221 23.6692ZM22.8609 33.2572L23.6035 33.276L23.6318 29.469L22.9361 29.422L22.8609 33.2666V33.2572ZM24.929 25.709L25.2861 26.7524L24.2804 27.5044L27.9839 30.1082L28.4539 31.6874L23.4155 28.1154L20.4545 30.2492L20.7835 28.7452L24.9195 25.709H24.929ZM15.2188 26.931L15.435 27.636L19.0727 26.4892L18.8848 25.8124L15.2188 26.931ZM23.0395 26.555L22.156 27.2224L21.1407 26.4986L19.806 30.8226L18.4524 31.7626L20.2854 25.8688L17.3338 23.7068L18.866 23.5564L23.0395 26.555Z" fill="#FFC621"/>
</g>
</g>
</g>
<defs>
<clipPath id="clip0_152_46367">
<rect width="48" height="48" fill="white"/>
</clipPath>
<clipPath id="clip1_152_46367">
<rect width="64" height="48" fill="white" transform="translate(-7)"/>
</clipPath>
</defs>
</svg>
