<svg width="48" height="48" viewBox="0 0 48 48" fill="none" xmlns="http://www.w3.org/2000/svg">
<g clip-path="url(#clip0_152_46360)">
<mask id="mask0_152_46360" style="mask-type:alpha" maskUnits="userSpaceOnUse" x="0" y="0" width="48" height="48">
<circle cx="24" cy="24" r="24" fill="#D9D9D9"/>
</mask>
<g mask="url(#mask0_152_46360)">
<g clip-path="url(#clip1_152_46360)">
<path fill-rule="evenodd" clip-rule="evenodd" d="M58.442 48.128H-10.3096V0H58.442V48.128Z" fill="#BA0000"/>
<path fill-rule="evenodd" clip-rule="evenodd" d="M23.0887 23.2932C23.0887 23.2932 18.2383 21.2064 18.9339 15.792C19.6013 13.1882 20.7951 11.4116 22.9477 10.4434C23.9629 10.1332 24.9969 9.99219 26.0497 9.90759C25.7677 10.1708 25.5421 10.434 25.4199 10.7536C25.1943 11.3552 25.3635 11.9192 25.6737 12.4926C26.0591 13.1506 26.2941 13.8274 26.3693 14.711C26.4399 15.3131 26.3502 15.9232 26.1092 16.4795C25.8682 17.0358 25.4844 17.5185 24.9969 17.8788C24.3765 18.3582 23.6433 18.5274 23.0417 19.0726C22.5717 19.5238 22.2897 19.9844 22.1957 20.774C22.1769 22.2874 22.5811 22.5036 23.0887 23.2932Z" fill="white"/>
<path fill-rule="evenodd" clip-rule="evenodd" d="M22.2567 15.4348V15.463H22.0593V15.4348H22.2567Z" fill="black"/>
<path fill-rule="evenodd" clip-rule="evenodd" d="M21.1816 18.9964C21.1967 20.4166 21.6234 21.8498 22.5336 22.6553L22.4028 22.8031C21.433 21.9448 20.9996 20.4452 20.9842 18.9985C20.9765 18.2727 21.0736 17.554 21.2647 16.9265C21.4555 16.3001 21.7419 15.758 22.1174 15.3923L22.2551 15.5337C21.9115 15.8683 21.6385 16.3766 21.4536 16.984C21.269 17.5902 21.174 18.2886 21.1816 18.9964Z" fill="#BA0000"/>
<path fill-rule="evenodd" clip-rule="evenodd" d="M23.3424 14.523L23.6526 15.04L23.0886 14.805L22.6468 15.275L22.722 14.664L22.158 14.429L22.769 14.288L22.8442 13.6864L23.1544 14.2034L23.7748 14.0624" fill="#BA0000"/>
<path fill-rule="evenodd" clip-rule="evenodd" d="M23.5022 22.936C23.5022 22.936 24.0662 17.6814 29.4524 16.7602C32.1408 16.6474 34.19 17.2584 35.7504 19.0444C36.3426 19.9186 36.775 20.868 37.1604 21.8456C36.8314 21.6576 36.5212 21.5166 36.164 21.4978C35.5342 21.4508 35.036 21.7798 34.5848 22.2404C34.0579 22.8237 33.4009 23.2745 32.6672 23.5564C32.1129 23.8015 31.5036 23.8958 30.9011 23.8298C30.2986 23.7638 29.7243 23.5397 29.2362 23.1804C28.597 22.7198 28.221 22.0712 27.5254 21.6576C26.9601 21.3215 26.29 21.2076 25.6454 21.338C24.1884 21.7704 24.1132 22.2216 23.5022 22.936Z" fill="white"/>
<path fill-rule="evenodd" clip-rule="evenodd" d="M30.7402 19.8575H30.712V19.6601H30.7402V19.8575Z" fill="black"/>
<path fill-rule="evenodd" clip-rule="evenodd" d="M27.0513 19.8552C25.6974 20.2859 24.4496 21.1143 23.9397 22.2252L23.7603 22.1428C24.3032 20.9601 25.6122 20.1059 26.9914 19.6671C27.6833 19.447 28.3986 19.3294 29.054 19.3279C29.7083 19.3264 30.3097 19.4406 30.7687 19.6909L30.6742 19.8642C30.2542 19.6352 29.6889 19.5238 29.0545 19.5253C28.4212 19.5267 27.7259 19.6406 27.0513 19.8552Z" fill="#BA0000"/>
<path fill-rule="evenodd" clip-rule="evenodd" d="M31.9622 20.6142L31.558 21.056L31.6144 20.445L31.0504 20.163L31.6426 20.069L31.699 19.4392L32.0186 20.0032L32.6202 19.8904L32.216 20.3322L32.5262 20.8962" fill="#BA0000"/>
<path fill-rule="evenodd" clip-rule="evenodd" d="M23.8594 23.312C23.8594 23.312 29.0294 22.184 31.605 27.0062C32.5732 29.516 32.639 31.6498 31.4452 33.6896C30.806 34.5356 30.0352 35.2406 29.2362 35.9268C29.3114 35.5508 29.3396 35.2124 29.2456 34.874C29.0952 34.2536 28.6252 33.887 28.0424 33.605C27.3193 33.2888 26.6814 32.8056 26.1812 32.195C25.7757 31.7471 25.4953 31.2002 25.3682 30.6094C25.2412 30.0187 25.2719 29.4049 25.4574 28.8298C25.683 28.0778 26.1812 27.5138 26.3504 26.7242C26.4911 26.0831 26.3872 25.4126 26.059 24.8442C25.1848 23.6034 24.7336 23.6692 23.8594 23.312Z" fill="white"/>
<path fill-rule="evenodd" clip-rule="evenodd" d="M29.161 29.1494L29.1798 29.1682L29.161 29.1494Z" fill="#BA0000"/>
<path fill-rule="evenodd" clip-rule="evenodd" d="M29.11 29.238L29.0912 29.2192L29.2308 29.0796L29.2496 29.0984L29.11 29.238Z" fill="black"/>
<path fill-rule="evenodd" clip-rule="evenodd" d="M27.9121 25.7037C27.0751 24.5559 25.8962 23.6361 24.6853 23.5041L24.7067 23.3079C25.9962 23.4485 27.219 24.4181 28.0716 25.5874C28.4993 26.174 28.8377 26.8156 29.0473 27.438C29.2565 28.0592 29.3396 28.6677 29.2488 29.1853L29.0544 29.1512C29.1375 28.677 29.0631 28.1035 28.8602 27.501C28.6577 26.8996 28.3292 26.2757 27.9121 25.7037Z" fill="#BA0000"/>
<path fill-rule="evenodd" clip-rule="evenodd" d="M28.7474 30.6064L28.1928 30.362L28.8038 30.221L28.879 29.5912L29.1704 30.127L29.7814 29.986L29.3584 30.456L29.6404 30.9918L29.0952 30.7474L28.6722 31.2268" fill="#BA0000"/>
<path fill-rule="evenodd" clip-rule="evenodd" d="M23.7466 23.8478C23.7466 23.8478 26.2752 28.4914 22.3836 32.3078C20.2404 33.9434 18.21 34.6108 15.9164 34.0374C14.9294 33.6614 14.0364 33.1256 13.1434 32.5428C13.5194 32.5146 13.8672 32.4488 14.168 32.2608C14.7132 31.9412 14.9294 31.3866 15.0422 30.7568C15.1401 29.9714 15.4236 29.2206 15.8694 28.5666C16.1848 28.0506 16.6307 27.6268 17.1621 27.338C17.6935 27.0492 18.2916 26.9056 18.8962 26.9216C19.6858 26.931 20.3626 27.26 21.171 27.2036C21.8196 27.119 22.3272 26.9404 22.9006 26.3764C23.8406 25.2014 23.6526 24.7784 23.7466 23.8384V23.8478Z" fill="white"/>
<path fill-rule="evenodd" clip-rule="evenodd" d="M19.6294 30.5782L19.62 30.597L19.6294 30.5782Z" fill="#BA0000"/>
<path fill-rule="evenodd" clip-rule="evenodd" d="M19.5317 30.5529L19.5411 30.5341L19.7177 30.6223L19.7083 30.6411L19.5317 30.5529Z" fill="black"/>
<path fill-rule="evenodd" clip-rule="evenodd" d="M22.5897 28.4054C23.4557 27.2786 24.0042 25.8852 23.7812 24.6836L23.9752 24.6476C24.2128 25.9276 23.6286 27.3777 22.7462 28.5257C22.3036 29.1016 21.7823 29.6065 21.2432 29.9813C20.7051 30.3553 20.1435 30.6036 19.6207 30.6576L19.6005 30.4612C20.0788 30.4118 20.6088 30.1818 21.1305 29.8192C21.6513 29.4572 22.1581 28.9669 22.5897 28.4054Z" fill="#BA0000"/>
<path fill-rule="evenodd" clip-rule="evenodd" d="M18.116 30.5876L18.2006 29.986L18.5108 30.5218L19.1312 30.4278L18.6988 30.8602L19.009 31.396L18.4356 31.1234L18.0032 31.5558L18.0784 30.9542L17.505 30.6816" fill="#BA0000"/>
<path fill-rule="evenodd" clip-rule="evenodd" d="M23.1732 23.7444C23.1732 23.7444 19.6388 27.6736 14.732 25.286C12.476 23.8102 11.1788 22.1088 10.9626 19.7588C10.9908 18.6966 11.1882 17.6814 11.442 16.6568C11.6018 16.9952 11.7804 17.296 12.053 17.5216C12.5324 17.9258 13.134 17.9446 13.7732 17.8412C14.5405 17.6732 15.3369 17.6925 16.095 17.8976C16.6887 18.0226 17.2387 18.3023 17.6894 18.7084C18.1401 19.1145 18.4754 19.6325 18.6612 20.21C18.915 20.9526 18.8304 21.7046 19.1594 22.4472C19.4414 23.03 19.7798 23.4436 20.5036 23.8008C21.9324 24.299 22.2614 23.9794 23.1732 23.7538V23.7444Z" fill="white"/>
<path fill-rule="evenodd" clip-rule="evenodd" d="M15.4558 22.1088L15.437 22.0994L15.4558 22.1088Z" fill="#BA0000"/>
<path fill-rule="evenodd" clip-rule="evenodd" d="M15.4812 22.0111L15.5 22.0205L15.4117 22.1971L15.3929 22.1877L15.4812 22.0111Z" fill="black"/>
<path fill-rule="evenodd" clip-rule="evenodd" d="M18.4899 24.1699C19.8403 24.6123 21.3352 24.6682 22.391 24.063L22.4891 24.2342C21.3641 24.8791 19.804 24.8082 18.4284 24.3575C17.7383 24.1315 17.0887 23.8081 16.5556 23.425C16.0235 23.0427 15.6019 22.5967 15.3762 22.1231L15.5544 22.0381C15.761 22.4716 16.1548 22.8939 16.6708 23.2647C17.1858 23.6348 17.817 23.9495 18.4899 24.1699Z" fill="#BA0000"/>
<path fill-rule="evenodd" clip-rule="evenodd" d="M14.9482 20.68L15.5404 20.5578L15.1362 21.0278L15.4276 21.5824L14.8824 21.3192L14.4782 21.7892L14.544 21.15L13.9894 20.8868L14.5816 20.7646L14.6474 20.1254" fill="#BA0000"/>
</g>
</g>
</g>
<defs>
<clipPath id="clip0_152_46360">
<rect width="48" height="48" fill="white"/>
</clipPath>
<clipPath id="clip1_152_46360">
<rect width="64" height="48" fill="white" transform="translate(-8)"/>
</clipPath>
</defs>
</svg>
