<svg width="48" height="48" viewBox="0 0 48 48" fill="none" xmlns="http://www.w3.org/2000/svg">
<g clip-path="url(#clip0_152_51422)">
<mask id="mask0_152_51422" style="mask-type:alpha" maskUnits="userSpaceOnUse" x="0" y="0" width="48" height="48">
<circle cx="24" cy="24" r="24" fill="#D9D9D9"/>
</mask>
<g mask="url(#mask0_152_51422)">
<g clip-path="url(#clip1_152_51422)">
<path d="M-8 16H56V32H-8V16Z" fill="white"/>
<path d="M-8 0H56V16H-8V0Z" fill="#CE1126"/>
<path d="M-8 32H56V48H-8V32Z" fill="black"/>
<path d="M31.0917 21.0615C31.0004 21.0177 30.9174 20.9585 30.8464 20.8863C30.7939 20.7988 30.8289 20.7988 31.0566 20.8513C31.4596 20.9739 31.7223 20.9214 31.9851 20.7112L32.2128 20.5185L32.4756 20.6411C32.6333 20.7287 32.7909 20.7812 32.826 20.7637C32.9486 20.7287 33.1939 20.4134 33.1763 20.3082C33.1763 20.1856 33.2815 20.2207 33.3515 20.3608C33.4566 20.6411 33.299 20.9739 33.0012 21.044C32.8785 21.079 32.7559 21.0615 32.5457 20.9915C32.3004 20.9039 32.2479 20.9039 32.1253 20.9915C31.9785 21.1024 31.8025 21.1681 31.6189 21.1805C31.4353 21.193 31.2521 21.1516 31.0917 21.0615ZM32.1077 20.1331C31.9891 19.9188 31.9287 19.6772 31.9326 19.4323C31.9501 19.3272 31.9851 19.2922 32.0727 19.3272C32.2479 19.3798 32.2829 19.5024 32.2479 19.8528C32.2479 20.1681 32.1953 20.2557 32.1077 20.1331ZM20.2654 19.8002C20.2479 20.028 20.6859 20.6061 20.8786 20.7112C20.7384 20.7637 20.5808 20.7462 20.4581 20.7988C19.7574 21.4995 17.2348 23.952 16.7793 24.5476C18.1457 24.5827 19.6523 24.5301 20.9311 24.4776C20.9311 23.5491 21.807 23.4966 22.4027 23.1637C22.7005 23.6367 23.4537 23.6017 23.5589 24.3199V27.4031H11.9093C11.8652 27.6369 11.7725 27.8588 11.6373 28.0545C11.502 28.2502 11.3272 28.4153 11.124 28.5392C10.9209 28.663 10.6941 28.7429 10.4582 28.7735C10.2222 28.8041 9.98252 28.7849 9.75452 28.717C10.1049 28.3666 10.7005 28.2265 10.9107 27.7184C11.0859 26.5973 10.5604 25.9141 10.21 25.2659C10.6507 25.1246 11.065 24.9115 11.4363 24.6352C11.0333 25.8615 12.5224 25.7389 13.6085 25.7038C13.6436 25.2834 13.626 24.7929 13.3107 24.7228C13.7136 24.5652 13.7837 24.5126 14.4669 23.952V25.6338L22.5428 25.6163C22.5428 25.0907 22.683 24.2323 22.2625 24.2323C21.8771 24.2323 22.2625 25.3184 21.9472 25.3184H15.6932V24.2674C15.956 23.9871 15.9209 24.0046 17.7253 22.2002C17.9005 22.025 19.1793 20.8688 20.283 19.8002H20.2654ZM35.8741 19.7477C36.3121 19.9929 36.6625 20.3082 37.188 20.4484C37.1355 20.6761 36.9252 20.7637 36.8727 20.9915V25.7214C37.4683 25.844 37.6085 25.4936 37.8887 25.3184C37.9588 26.0717 38.4493 26.8075 38.4143 27.4206H35.8741V19.7652V19.7477ZM32.4756 22.2878C32.4756 22.2878 33.4041 21.4995 33.4041 21.4644V25.5812H34.0698L34.0523 20.9739C34.315 20.6936 34.8581 20.3082 34.9807 20.028V27.3856H29.1296C29.0421 25.8615 29.0245 24.2849 30.8114 24.6177V24.0046C30.7588 23.8995 30.6537 24.0221 30.6362 23.882C30.9165 23.6017 31.0041 23.5316 31.7749 22.8659L31.7924 25.5812H32.4756V22.2878ZM30.2683 25.5462C30.391 25.7214 30.8289 25.7214 30.7939 25.406C30.7413 25.1433 30.1807 25.2309 30.2683 25.5462Z" fill="#007A3D"/>
<path d="M13.3107 28.6294C13.5042 28.6294 13.6611 28.4725 13.6611 28.279C13.6611 28.0855 13.5042 27.9286 13.3107 27.9286C13.1172 27.9286 12.9603 28.0855 12.9603 28.279C12.9603 28.4725 13.1172 28.6294 13.3107 28.6294Z" fill="#007A3D"/>
<path d="M24.3472 19.7652C24.7851 19.9929 25.1355 20.3258 25.6786 20.4659C25.6085 20.6761 25.4158 20.7637 25.3632 20.9915V25.7214C25.9588 25.844 26.0815 25.5112 26.3618 25.3185C26.4494 26.0717 26.9223 26.825 26.9048 27.4207H24.3472V19.7652Z" fill="#007A3D"/>
</g>
</g>
</g>
<defs>
<clipPath id="clip0_152_51422">
<rect width="48" height="48" fill="white"/>
</clipPath>
<clipPath id="clip1_152_51422">
<rect width="64" height="48" fill="white" transform="translate(-8)"/>
</clipPath>
</defs>
</svg>
