<svg width="48" height="48" viewBox="0 0 48 48" fill="none" xmlns="http://www.w3.org/2000/svg">
<g clip-path="url(#clip0_152_51427)">
<mask id="mask0_152_51427" style="mask-type:alpha" maskUnits="userSpaceOnUse" x="0" y="0" width="48" height="48">
<circle cx="24" cy="24" r="24" fill="#D9D9D9"/>
</mask>
<g mask="url(#mask0_152_51427)">
<g clip-path="url(#clip1_152_51427)">
<path d="M-8 0H56V48H-8V0Z" fill="white"/>
<path d="M-8 0H56V14.4H-8V0Z" fill="black"/>
<path d="M-8 33.6H56V48H-8V33.6Z" fill="#006600"/>
<path d="M15.42 38.25L15.96 38.55L29.97 14.25C30.78 14.07 31.23 13.29 31.68 12.51C31.98 11.97 33.18 9.90001 33.69 7.20001C32.2668 8.46478 31.0607 9.95459 30.12 11.61C29.67 12.39 29.22 13.17 29.43 13.98L15.42 38.25Z" fill="black"/>
<path fill-rule="evenodd" clip-rule="evenodd" d="M33.919 6.79584L33.8374 7.22784C33.3438 9.84104 32.2104 11.8684 31.8529 12.5079C31.8375 12.5355 31.8236 12.5605 31.8111 12.5828L31.8105 12.5839L31.806 12.5919C31.5838 12.9769 31.353 13.377 31.0739 13.7026C30.805 14.0164 30.4832 14.2708 30.0679 14.3805L16.0162 38.7528L15.2139 38.3071L29.2702 13.9569C29.1761 13.5345 29.2445 13.1251 29.3865 12.7327C29.5335 12.3265 29.764 11.9269 29.9864 11.5415L29.9896 11.5359C29.9897 11.5357 29.9898 11.5356 29.9898 11.5354C30.9386 9.86593 32.155 8.36343 33.5904 7.08787L33.919 6.79584ZM33.4501 7.62203C32.1862 8.80699 31.1073 10.1762 30.2504 11.6841L30.2499 11.685C30.0235 12.0775 29.8057 12.4558 29.6686 12.8348C29.5324 13.2111 29.4803 13.5763 29.5752 13.9424L29.5906 14.0018L15.6262 38.1929L15.9038 38.3472L29.873 14.1179L29.9375 14.1036C30.3003 14.0229 30.589 13.8074 30.8461 13.5074C31.1051 13.2052 31.3231 12.8285 31.5495 12.4361C31.5616 12.4142 31.5752 12.3899 31.5902 12.3632C31.9239 11.766 32.9289 9.96791 33.4501 7.62203Z" fill="black"/>
<path d="M15.42 38.25L15.96 38.55L29.97 14.25C30.78 14.07 31.23 13.29 31.68 12.51C31.98 11.97 33.18 9.90001 33.69 7.20001C32.2668 8.46478 31.0607 9.95459 30.12 11.61C29.67 12.39 29.22 13.17 29.43 13.98L15.42 38.25Z" fill="white"/>
<path d="M32.27 38.25L31.73 38.55L17.72 14.25C16.91 14.07 16.46 13.29 16.01 12.51C15.71 11.97 14.51 9.90001 14 7.20001C15.4233 8.46478 16.6293 9.95459 17.57 11.61C18.02 12.39 18.47 13.17 18.26 13.98L32.27 38.25Z" fill="black"/>
<path fill-rule="evenodd" clip-rule="evenodd" d="M14 7.20001L14.0797 7.62381C14.5618 10.1874 15.6688 12.1763 16.018 12.8036C16.0331 12.8306 16.0467 12.8552 16.0589 12.8771L16.0594 12.8781L16.0639 12.886C16.2809 13.2637 16.5063 13.6562 16.7789 13.9756C17.0416 14.2834 17.3559 14.533 17.7615 14.6407L31.4863 38.55L32.27 38.1127L18.5407 14.225C18.6326 13.8107 18.5658 13.4091 18.4271 13.0241C18.2835 12.6256 18.0584 12.2336 17.8412 11.8555L17.838 11.85C17.8379 11.8499 17.8379 11.8497 17.8378 11.8496C16.9111 10.2118 15.723 8.73783 14.321 7.4865L14 7.20001ZM14.458 8.01051C15.6926 9.17297 16.7463 10.5162 17.5833 11.9954L17.5837 11.9963C17.8049 12.3814 18.0176 12.7525 18.1516 13.1243C18.2846 13.4934 18.3355 13.8517 18.2428 14.2108L18.2277 14.2691L31.8673 38.0008L31.5961 38.1521L17.9519 14.383L17.8889 14.3689C17.5345 14.2898 17.2526 14.0784 17.0014 13.7841C16.7484 13.4877 16.5356 13.1181 16.3144 12.7332C16.3026 12.7117 16.2893 12.6878 16.2747 12.6616C15.9487 12.0758 14.9671 10.3118 14.458 8.01051Z" fill="black"/>
<path d="M32.27 38.25L31.73 38.55L17.72 14.25C16.91 14.07 16.46 13.29 16.01 12.51C15.71 11.97 14.51 9.90001 14 7.20001C15.4233 8.46478 16.6293 9.95459 17.57 11.61C18.02 12.39 18.47 13.17 18.26 13.98L32.27 38.25Z" fill="white"/>
<path d="M56.05 16.8H29.7C28.8 14.4 25.8 9.59998 24 9.59998C22.2 9.59998 19.2 14.4 18.3 16.8H-8.02002V31.2H18.3C19.2 33.6 22.2 38.4 24 38.4C25.8 38.4 28.8 33.6 29.7 31.2H56.05V16.8Z" fill="#BB0000"/>
<path d="M29.7 31.2C30.6 28.8 31.2 26.4 31.2 24C31.2 21.6 30.6 19.2 29.7 16.8C28.8 19.2 28.2 21.6 28.2 24C28.2 26.4 28.8 28.8 29.7 31.2Z" fill="black"/>
<path d="M24 25.8C24.6628 25.8 25.2 24.9941 25.2 24C25.2 23.0059 24.6628 22.2 24 22.2C23.3373 22.2 22.8 23.0059 22.8 24C22.8 24.9941 23.3373 25.8 24 25.8Z" fill="white"/>
<path d="M24.3 25.74C24.3 25.74 25.5 28.14 25.5 32.04C25.5 35.94 24.3 38.34 24.3 38.34V25.74Z" fill="white"/>
</g>
</g>
</g>
<defs>
<clipPath id="clip0_152_51427">
<rect width="48" height="48" fill="white"/>
</clipPath>
<clipPath id="clip1_152_51427">
<rect width="64" height="48" fill="white" transform="translate(-8)"/>
</clipPath>
</defs>
</svg>
