<svg width="48" height="48" viewBox="0 0 48 48" fill="none" xmlns="http://www.w3.org/2000/svg">
<g clip-path="url(#clip0_154_54463)">
<mask id="mask0_154_54463" style="mask-type:alpha" maskUnits="userSpaceOnUse" x="0" y="0" width="48" height="48">
<circle cx="24" cy="24" r="24" fill="#D9D9D9"/>
</mask>
<g mask="url(#mask0_154_54463)">
<g clip-path="url(#clip1_154_54463)">
<path d="M-8 0H56V48H-8V0Z" fill="#032EA1"/>
<path d="M-8 12H56V36H-8V12Z" fill="#E00025"/>
<path d="M17.24 22.62H30.896V27.876H17.24V22.62Z" fill="white"/>
<path d="M30.8959 27.936H17.2399L17.1799 27.876V22.62L17.2399 22.56H30.8959L30.9559 22.62V27.876L30.8959 27.936ZM17.2999 27.816H30.8359V22.68H17.2999V27.816Z" fill="black"/>
<path d="M30.2 25.512H30.62V27.492H30.2V25.512ZM17.24 24.54H30.896V25.14H17.24V24.54ZM17.24 23.7H30.896V24.252H17.24V23.7Z" fill="white"/>
<path d="M30.6199 27.552H30.1999L30.1399 27.492V25.512L30.1999 25.452H30.6199L30.6799 25.512V27.492L30.6199 27.552ZM30.2599 27.432H30.5599V25.572H30.2599V27.432ZM30.8959 25.2H17.2399L17.1799 25.14V24.54L17.2399 24.48H30.8959L30.9559 24.54V25.14L30.8959 25.2ZM17.2999 25.08H30.8359V24.6H17.2999V25.08ZM30.8959 24.312H17.2399L17.1799 24.252V23.7L17.2399 23.64H30.8959L30.9559 23.7V24.252L30.8959 24.312ZM17.2999 24.192H30.8359V23.76H17.2999V24.192Z" fill="black"/>
<path d="M17.24 22.884H30.896V23.4H17.24V22.884Z" fill="white"/>
<path d="M30.8959 23.46H17.2399L17.1799 23.4V22.884L17.2399 22.824H30.8959L30.9559 22.884V23.4L30.8959 23.46ZM17.2879 23.34H30.8359V22.932H17.2879V23.34Z" fill="black"/>
<path d="M20.84 25.512H21.272V27.492H20.84V25.512ZM26.72 25.512H27.152V27.492H26.72V25.512ZM17.36 25.512H17.78V27.492H17.36V25.512ZM18.2 25.512H18.62V27.492H18.2V25.512ZM19.1 25.512H19.52V27.492H19.1V25.512ZM20 25.512H20.42V27.492H20V25.512ZM27.536 25.512H27.968V27.492H27.536V25.512ZM28.436 25.512H28.868V27.492H28.436V25.512ZM29.336 25.512H29.768V27.492H29.336V25.512Z" fill="white"/>
<path d="M29.7679 27.552H29.3359L29.2759 27.492V25.512L29.3359 25.452H29.7679L29.8279 25.512V27.492L29.7679 27.552ZM29.3959 27.432H29.7079V25.572H29.3959V27.432ZM28.8679 27.552H28.4359L28.3759 27.492V25.512L28.4359 25.452H28.8679L28.9279 25.512V27.492L28.8679 27.552ZM28.4959 27.432H28.8079V25.572H28.4959V27.432ZM27.9679 27.552H27.5359L27.4759 27.492V25.512L27.5359 25.452H27.9679L28.0279 25.512V27.492L27.9679 27.552ZM27.5959 27.432H27.9079V25.572H27.5959V27.432ZM27.1519 27.552H26.7199L26.6599 27.492V25.512L26.7199 25.452H27.1519L27.2119 25.512V27.492L27.1519 27.552ZM26.7799 27.432H27.0919V25.572H26.7799V27.432ZM21.2719 27.552H20.8399L20.7799 27.492V25.512L20.8399 25.452H21.2719L21.3319 25.512V27.492L21.2719 27.552ZM20.8999 27.432H21.2119V25.572H20.8999V27.432ZM20.4199 27.552H19.9999L19.9399 27.492V25.512L19.9999 25.452H20.4199L20.4799 25.512V27.492L20.4199 27.552ZM20.0599 27.432H20.3599V25.572H20.0599V27.432ZM19.5199 27.552H19.0999L19.0399 27.492V25.512L19.0999 25.452H19.5199L19.5799 25.512V27.492L19.5199 27.552ZM19.1599 27.432H19.4599V25.572H19.1599V27.432ZM18.6199 27.552H18.1999L18.1399 27.492V25.512L18.1999 25.452H18.6199L18.6799 25.512V27.492L18.6199 27.552ZM18.2599 27.432H18.5599V25.572H18.2599V27.432ZM17.7799 27.552H17.3599L17.2999 27.492V25.512L17.3599 25.452H17.7799L17.8399 25.512V27.492L17.7799 27.552ZM17.4199 27.432H17.7199V25.572H17.4199V27.432Z" fill="black"/>
<path d="M11.8999 28.14C12.1519 28.008 12.3439 27.78 12.4279 27.504H35.5999C35.6839 27.78 35.8759 28.008 36.1279 28.14H11.8999Z" fill="white"/>
<path d="M36.3679 28.2H11.6599L11.8639 28.092C12.1039 27.96 12.2839 27.744 12.3679 27.492L12.3799 27.456H35.6359L35.6479 27.492C35.7319 27.756 35.9119 27.96 36.1519 28.092L36.3679 28.2ZM12.1039 28.08H35.9359C35.7679 27.948 35.6359 27.768 35.5639 27.564H12.4759C12.3919 27.768 12.2719 27.948 12.1039 28.08Z" fill="black"/>
<path d="M23.72 14.616C23.72 14.616 23.708 14.124 23.996 14.112C24.272 14.112 24.26 14.616 24.26 14.616H23.72ZM22.22 21.156V20.496C22.22 20.16 21.884 20.136 21.884 19.896C21.884 19.896 21.836 19.536 21.932 19.368C22.064 19.848 22.292 19.764 22.292 19.56C22.292 19.392 22.172 19.224 21.896 18.804C21.8 18.672 21.86 18.252 21.98 18.096C22.028 18.456 22.088 18.636 22.244 18.636C22.34 18.636 22.412 18.576 22.412 18.396C22.412 18.156 22.256 18.036 22.172 17.82C22.088 17.604 22.136 17.352 22.304 17.184C22.364 17.544 22.352 17.688 22.508 17.688C22.832 17.58 22.508 17.112 22.436 16.992C22.364 16.86 22.556 16.584 22.556 16.584C22.652 16.908 22.676 16.932 22.796 16.896C22.94 16.86 22.916 16.656 22.748 16.488C22.64 16.368 22.652 16.212 22.772 16.092C22.892 16.32 23.036 16.308 23.048 16.164L22.952 15.636H25.04L24.932 16.152C24.908 16.296 25.1 16.332 25.22 16.092C25.34 16.212 25.352 16.38 25.244 16.488C25.076 16.656 25.052 16.86 25.196 16.896C25.316 16.932 25.34 16.896 25.436 16.584C25.436 16.584 25.616 16.764 25.556 16.992C25.484 17.112 25.16 17.592 25.484 17.688C25.64 17.688 25.628 17.544 25.688 17.184C25.844 17.352 25.892 17.604 25.808 17.82C25.736 18.036 25.568 18.156 25.568 18.396C25.568 18.576 25.652 18.636 25.748 18.636C25.904 18.636 25.964 18.468 26.012 18.096C26.132 18.252 26.192 18.672 26.096 18.816C25.82 19.224 25.688 19.392 25.688 19.56C25.688 19.764 25.928 19.848 26.048 19.368C26.156 19.536 26.108 19.896 26.108 19.896C26.108 20.136 25.784 20.16 25.772 20.496V21.156H22.22ZM23.084 15.636L23.036 15.264H24.944L24.896 15.636H23.084ZM23.204 15.252L23.18 14.952H24.8L24.764 15.252H23.204ZM23.48 14.94L23.444 14.628H24.524L24.512 14.94H23.48ZM27.44 28.14C27.2 28.056 26.84 27.792 26.84 27.54V24.624L27.152 24.216H20.84L21.14 24.624V27.54C21.14 27.792 20.9 28.056 20.66 28.14H27.44Z" fill="white"/>
<path d="M27.44 28.2H20.66L20.636 28.08C20.84 28.008 21.08 27.768 21.08 27.54V24.648L20.72 24.156H27.272L26.9 24.648V27.54C26.9 27.756 27.236 28.008 27.464 28.08L27.44 28.2ZM20.888 28.08H27.176C26.972 27.948 26.768 27.744 26.768 27.54V24.6L27.02 24.276H20.96L21.2 24.6V27.54C21.2 27.744 21.056 27.948 20.888 28.08ZM25.832 21.216H22.16V20.496C22.16 20.34 22.076 20.268 21.992 20.184C21.908 20.112 21.824 20.028 21.824 19.896C21.824 19.884 21.776 19.524 21.884 19.344L21.956 19.224L21.992 19.368C22.064 19.632 22.16 19.68 22.184 19.68C22.208 19.68 22.232 19.632 22.232 19.584C22.232 19.452 22.136 19.296 21.908 18.948L21.848 18.852C21.728 18.696 21.8 18.252 21.932 18.072L22.016 17.952L22.04 18.096C22.088 18.456 22.148 18.588 22.244 18.588C22.28 18.588 22.352 18.588 22.352 18.408C22.352 18.276 22.292 18.18 22.232 18.072C22.196 18.012 22.148 17.94 22.124 17.856C22.028 17.616 22.088 17.34 22.268 17.16L22.352 17.076L22.376 17.196C22.388 17.256 22.4 17.316 22.4 17.364C22.436 17.604 22.448 17.64 22.508 17.652C22.556 17.64 22.58 17.616 22.592 17.58C22.64 17.448 22.484 17.184 22.412 17.088L22.388 17.052C22.304 16.896 22.472 16.632 22.508 16.584L22.58 16.476L22.616 16.596C22.64 16.692 22.688 16.86 22.724 16.872C22.736 16.872 22.748 16.872 22.784 16.86C22.808 16.848 22.82 16.836 22.832 16.812C22.844 16.752 22.82 16.656 22.712 16.548C22.58 16.404 22.592 16.212 22.736 16.068L22.796 16.008L22.832 16.08C22.892 16.2 22.952 16.224 22.976 16.224C22.988 16.224 22.988 16.2 23 16.188L22.892 15.6H23.024L22.976 15.228H23.144L23.12 14.916H23.42L23.384 14.592H23.672C23.672 14.46 23.72 14.088 24.008 14.076C24.08 14.076 24.14 14.1 24.2 14.148C24.308 14.268 24.332 14.484 24.344 14.592H24.608L24.596 14.916H24.884L24.848 15.228H25.028L24.98 15.6H25.124L25.004 16.188C25.004 16.2 25.004 16.224 25.016 16.224C25.04 16.236 25.112 16.212 25.172 16.08L25.208 16.008L25.268 16.068C25.412 16.212 25.424 16.416 25.292 16.548C25.184 16.656 25.16 16.764 25.172 16.812C25.184 16.836 25.196 16.848 25.22 16.86C25.292 16.884 25.292 16.884 25.388 16.584L25.412 16.488L25.484 16.56C25.496 16.572 25.688 16.764 25.616 17.028L25.604 17.04L25.58 17.064C25.52 17.16 25.352 17.436 25.4 17.568C25.412 17.592 25.424 17.616 25.484 17.64C25.544 17.64 25.556 17.592 25.592 17.352C25.604 17.304 25.604 17.244 25.616 17.184L25.64 17.064L25.724 17.148C25.904 17.34 25.952 17.604 25.856 17.844C25.832 17.928 25.784 18 25.736 18.072C25.676 18.18 25.616 18.264 25.616 18.396C25.616 18.576 25.712 18.576 25.736 18.576C25.82 18.576 25.892 18.492 25.94 18.084L25.964 17.94L26.048 18.06C26.18 18.228 26.252 18.684 26.132 18.852L26.036 18.996C25.844 19.284 25.736 19.428 25.736 19.56C25.736 19.62 25.76 19.656 25.784 19.656C25.832 19.668 25.916 19.584 25.976 19.344L26.012 19.212L26.084 19.332C26.204 19.512 26.156 19.884 26.156 19.896C26.156 20.028 26.072 20.1 25.988 20.184C25.904 20.268 25.82 20.34 25.82 20.496V21.216H25.832ZM22.28 21.096H25.712V20.496C25.724 20.292 25.832 20.184 25.928 20.1C26.012 20.028 26.048 19.98 26.048 19.896C26.06 19.824 26.072 19.68 26.048 19.56C25.952 19.776 25.832 19.788 25.784 19.788C25.688 19.776 25.628 19.68 25.628 19.572C25.628 19.404 25.736 19.248 25.94 18.948L26.036 18.804C26.096 18.72 26.084 18.492 26.036 18.324C25.988 18.552 25.928 18.72 25.748 18.72C25.688 18.72 25.508 18.696 25.508 18.42C25.508 18.252 25.58 18.144 25.64 18.036C25.676 17.976 25.724 17.904 25.748 17.832C25.808 17.676 25.796 17.508 25.724 17.364C25.724 17.376 25.724 17.376 25.724 17.388C25.688 17.628 25.664 17.772 25.484 17.772H25.472C25.364 17.736 25.328 17.676 25.304 17.628C25.232 17.436 25.412 17.148 25.496 17.016L25.508 16.992C25.532 16.896 25.496 16.8 25.46 16.74C25.4 16.944 25.34 17.028 25.184 16.98C25.124 16.968 25.076 16.92 25.052 16.86C25.016 16.752 25.076 16.596 25.208 16.476C25.28 16.404 25.28 16.308 25.232 16.224C25.148 16.332 25.052 16.368 24.968 16.344C24.896 16.32 24.86 16.248 24.872 16.164L24.968 15.72H23.024L23.108 16.188V16.2C23.096 16.284 23.06 16.344 22.988 16.356C22.916 16.368 22.832 16.32 22.76 16.224C22.712 16.308 22.724 16.404 22.784 16.476C22.904 16.596 22.964 16.752 22.94 16.86C22.928 16.92 22.88 16.968 22.808 16.992C22.76 17.004 22.712 17.016 22.664 16.992C22.616 16.968 22.58 16.896 22.532 16.776C22.484 16.86 22.46 16.956 22.484 17.004L22.508 17.04C22.592 17.172 22.76 17.448 22.688 17.64C22.664 17.712 22.604 17.76 22.52 17.796H22.496C22.316 17.796 22.292 17.652 22.256 17.412C22.256 17.4 22.256 17.388 22.256 17.376C22.172 17.52 22.16 17.688 22.22 17.844C22.244 17.916 22.292 17.976 22.328 18.036C22.4 18.144 22.472 18.264 22.472 18.432C22.472 18.696 22.328 18.732 22.244 18.732C22.064 18.732 21.992 18.564 21.956 18.336C21.908 18.504 21.896 18.732 21.944 18.804L22.004 18.9C22.244 19.26 22.352 19.428 22.352 19.596C22.352 19.716 22.292 19.8 22.196 19.812C22.148 19.824 22.028 19.8 21.932 19.596C21.92 19.716 21.932 19.86 21.932 19.92C21.932 20.004 21.98 20.052 22.064 20.124C22.16 20.208 22.268 20.316 22.268 20.52V21.096H22.28ZM23.132 15.576H24.836L24.872 15.324H23.096L23.132 15.576ZM23.264 15.192H24.716L24.74 15.012H23.24L23.264 15.192ZM23.528 14.88H24.452L24.464 14.688H23.516L23.528 14.88ZM23.78 14.556H24.2C24.2 14.46 24.176 14.292 24.092 14.208C24.068 14.184 24.032 14.172 23.996 14.172C23.828 14.184 23.792 14.436 23.78 14.556Z" fill="black"/>
<path d="M21.944 25.512H22.376V27.492H21.944V25.512ZM25.592 25.512H26.024V27.492H25.592V25.512Z" fill="white"/>
<path d="M26.0239 27.552H25.5919L25.5319 27.492V25.512L25.5919 25.452H26.0239L26.0839 25.512V27.492L26.0239 27.552ZM25.6519 27.432H25.9639V25.572H25.6519V27.432ZM22.3759 27.552H21.9439L21.8839 27.492V25.512L21.9439 25.452H22.3759L22.4359 25.512V27.492L22.3759 27.552ZM22.0039 27.432H22.3159V25.572H22.0039V27.432Z" fill="black"/>
<path d="M20.7199 20.904V24.216H27.1999V20.904C27.0439 20.964 26.9359 21.084 26.8879 21.24V22.656H21.0439V21.24C21.0439 21.24 20.9719 21 20.7079 20.904H20.7199Z" fill="white"/>
<path d="M27.2599 24.276H20.6599V20.904H20.6959L20.7079 20.844H20.7799V20.868C21.0319 20.988 21.1039 21.216 21.1039 21.216V21.228V22.584H26.8279V21.216C26.8759 21.048 27.0079 20.904 27.1759 20.844L27.2599 20.82V24.276ZM20.7799 24.156H27.1399V21C27.0439 21.06 26.9839 21.144 26.9479 21.252V22.716H20.9839V21.252C20.9719 21.216 20.9239 21.096 20.7799 21.012V24.156Z" fill="black"/>
<path d="M26.312 28.14C26.096 28.056 25.64 27.792 25.64 27.54V24.276C25.688 24.096 25.928 23.988 26.084 23.868H21.8C22.004 23.988 22.232 24.072 22.316 24.276V27.54C22.316 27.792 21.956 28.056 21.74 28.14H26.312Z" fill="white"/>
<path d="M26.312 28.2H21.74L21.716 28.08C21.944 27.996 22.256 27.744 22.256 27.54V24.288C22.196 24.156 22.052 24.072 21.896 23.988C21.86 23.964 21.812 23.94 21.776 23.916L21.584 23.808H26.264L26.12 23.916C26.084 23.952 26.036 23.976 25.988 24.012C25.868 24.096 25.736 24.18 25.7 24.288V27.54C25.7 27.744 26.12 27.996 26.336 28.08L26.312 28.2ZM21.98 28.08H26.06C25.844 27.96 25.592 27.756 25.592 27.54V24.264C25.628 24.12 25.772 24.024 25.904 23.928H22.04C22.184 24.012 22.316 24.096 22.376 24.252V24.276V27.54C22.376 27.744 22.172 27.948 21.98 28.08Z" fill="black"/>
<path d="M26.8881 23.904V21.552H26.3001V21.324H21.6441V21.564H21.0441V23.904H26.8881ZM25.4001 28.14C25.1841 28.056 24.8841 27.792 24.8841 27.54V24.756L25.0521 24.504H22.9281L23.1081 24.744V27.54C23.1081 27.792 22.7961 28.056 22.5921 28.14H25.4001Z" fill="white"/>
<path d="M25.4 28.2H22.592L22.568 28.08C22.772 27.996 23.048 27.756 23.048 27.54V24.768L22.808 24.444H25.16L24.944 24.78V27.54C24.944 27.756 25.22 28.008 25.424 28.08L25.4 28.2ZM22.82 28.08H25.172C24.992 27.948 24.824 27.744 24.824 27.54V24.732L24.944 24.564H23.048L23.168 24.72V27.54C23.168 27.744 23 27.948 22.82 28.08ZM26.948 23.964H20.984V21.504H21.584V21.264H26.36V21.492H26.948V23.964ZM21.104 23.844H26.828V21.612H26.24V21.384H21.704V21.624H21.104V23.844Z" fill="black"/>
<path d="M23.444 24.504H24.524V28.14H23.444V24.504Z" fill="white"/>
<path d="M24.5839 28.2H23.3839V24.444H24.5839V28.2ZM23.5039 28.08H24.4639V24.564H23.5039V28.08Z" fill="black"/>
<path d="M25.088 23.7C25.088 23.46 25.784 23.448 26.144 23.244H21.824C22.184 23.448 22.868 23.46 22.868 23.7L23.012 24.168L24.812 24.24L25.088 23.7Z" fill="white"/>
<path d="M24.8119 24.3L23.0119 24.228L22.9519 24.18L22.8079 23.7C22.8079 23.604 22.5559 23.544 22.3399 23.484C22.1479 23.436 21.9439 23.388 21.7999 23.292L21.8239 23.184H26.1439L26.1679 23.292C26.0119 23.376 25.8079 23.436 25.6159 23.484C25.3879 23.544 25.1359 23.604 25.1359 23.7L25.1239 23.724L24.8479 24.264L24.8119 24.3ZM23.0599 24.108L24.7759 24.18L25.0279 23.688C25.0399 23.508 25.2919 23.448 25.5919 23.376C25.6759 23.352 25.7479 23.34 25.8319 23.316H22.1359C22.2079 23.34 22.2919 23.364 22.3639 23.376C22.6639 23.448 22.9159 23.52 22.9279 23.7L23.0599 24.108Z" fill="black"/>
<path d="M25.9279 21.156C25.9279 20.568 25.9519 20.352 26.1319 20.352V22.2C25.6879 22.368 25.3759 22.92 25.3759 22.92H22.5919C22.5919 22.92 22.2799 22.368 21.8359 22.2V20.34C22.0519 20.34 22.0519 20.58 22.0519 21.144L25.9279 21.156ZM26.1319 20.916C26.1319 20.244 26.7199 20.172 26.7199 20.172V20.772C26.4919 20.76 26.3839 20.964 26.3839 21.252C26.3839 21.552 26.5639 21.552 26.5639 21.552V23.256H26.1319V20.916Z" fill="white"/>
<path d="M26.624 23.316H26.072V22.296C25.7 22.488 25.436 22.944 25.424 22.956L25.412 22.992H22.556L22.544 22.956C22.544 22.956 22.232 22.416 21.824 22.26L21.788 22.248V20.28H21.848C22.112 20.28 22.124 20.532 22.124 21.084L25.88 21.096C25.88 20.568 25.904 20.292 26.144 20.292H26.204V20.448C26.384 20.148 26.72 20.112 26.72 20.112L26.792 20.1V20.832H26.732C26.66 20.832 26.612 20.844 26.564 20.892C26.492 20.964 26.456 21.084 26.456 21.252C26.456 21.48 26.564 21.492 26.576 21.492H26.636V21.552V23.316H26.624ZM26.192 23.196H26.504V21.6C26.432 21.576 26.324 21.492 26.324 21.252C26.324 21.048 26.372 20.892 26.468 20.796C26.516 20.748 26.588 20.712 26.66 20.712V20.244C26.516 20.28 26.192 20.436 26.192 20.916V23.196ZM22.628 22.86H25.34C25.412 22.74 25.688 22.32 26.072 22.164V20.436C26.012 20.496 25.988 20.688 25.988 21.156V21.216L21.992 21.204V21.144C21.992 20.664 21.992 20.46 21.896 20.412V22.152C22.28 22.32 22.556 22.74 22.628 22.86Z" fill="black"/>
<path d="M21.836 20.916C21.836 20.244 21.248 20.172 21.248 20.172V20.772C21.476 20.76 21.584 20.964 21.584 21.252C21.584 21.552 21.404 21.552 21.404 21.552V23.256H21.836V20.916Z" fill="white"/>
<path d="M21.896 23.316H21.344V21.492H21.404C21.416 21.492 21.524 21.48 21.524 21.252C21.524 21.084 21.488 20.952 21.416 20.892C21.368 20.856 21.32 20.832 21.248 20.832H21.188V20.1L21.26 20.112C21.272 20.112 21.896 20.196 21.896 20.916V23.316ZM21.464 23.196H21.776V20.916C21.776 20.436 21.452 20.292 21.308 20.244V20.712C21.38 20.724 21.44 20.748 21.5 20.796C21.596 20.892 21.644 21.048 21.644 21.252C21.644 21.492 21.536 21.576 21.464 21.6V23.196Z" fill="black"/>
<path d="M25.808 19.776H22.16V19.68H25.808V19.776ZM25.784 18.696H22.244V18.6H25.784V18.696ZM25.484 17.748H22.496V17.652H25.484V17.748ZM25.256 16.968H22.736V16.872H25.256V16.968ZM25.04 16.32H22.976V16.224H25.04V16.32Z" fill="black"/>
<path d="M25.124 24.132H22.844V23.34H21.056V23.22H26.888V23.34H25.124V24.132ZM22.964 24.012H25.004V23.34H22.964V24.012Z" fill="black"/>
<path d="M22.6399 21.504C22.9999 21.936 22.9519 22.668 22.9519 23.1H25.0399C25.0399 22.668 24.9919 21.936 25.3519 21.504H22.6399ZM23.8039 16.584L23.5159 16.428V16.008C23.6359 16.044 23.7559 16.056 23.7799 16.248C23.8159 15.972 23.8999 15.996 24.0079 15.888C24.1279 15.996 24.1879 15.972 24.2359 16.248C24.2359 16.056 24.3799 16.044 24.4879 16.008V16.428L24.2119 16.572L23.8039 16.584Z" fill="white"/>
<path d="M25.0999 23.16H22.8919V23.1C22.8919 23.052 22.8919 23.016 22.8919 22.956C22.8919 22.536 22.9039 21.912 22.5919 21.54L22.5079 21.444H25.4719L25.3879 21.54C25.0759 21.912 25.0879 22.548 25.0879 22.956C25.0879 23.004 25.0879 23.052 25.0879 23.1V23.16H25.0999ZM23.0119 23.04H24.9799C24.9799 23.016 24.9799 22.992 24.9799 22.968C24.9799 22.572 24.9679 21.972 25.2319 21.564H22.7599C23.0239 21.972 23.0239 22.56 23.0119 22.968C23.0119 22.992 23.0119 23.016 23.0119 23.04ZM23.7919 16.644L23.4559 16.464V15.924L23.5639 15.96C23.6239 15.984 23.7079 15.996 23.7559 16.056C23.7919 15.984 23.8279 15.948 23.8879 15.9C23.9119 15.888 23.9359 15.864 23.9599 15.84L23.9959 15.804L24.0439 15.84C24.0679 15.864 24.0919 15.876 24.1159 15.888C24.1759 15.924 24.2119 15.96 24.2479 16.044C24.2959 15.996 24.3679 15.972 24.4279 15.96C24.4399 15.96 24.4519 15.948 24.4759 15.948L24.5599 15.924V16.464L24.2359 16.632L23.7919 16.644ZM23.5759 16.392L23.8159 16.524L24.1999 16.512L24.4279 16.392V16.092C24.3439 16.116 24.2959 16.152 24.2959 16.248L24.1759 16.26C24.1399 16.068 24.1039 16.044 24.0439 15.996C24.0319 15.984 24.0199 15.984 24.0079 15.972C23.9959 15.984 23.9839 15.996 23.9599 16.008C23.8999 16.056 23.8519 16.08 23.8279 16.26H23.7079C23.6959 16.14 23.6479 16.116 23.5639 16.092V16.392H23.5759Z" fill="black"/>
<path d="M23.7799 17.268L23.2999 16.932V16.56C23.4799 16.596 23.6599 16.62 23.6839 16.824C23.7319 16.524 23.8399 16.38 24.0079 16.26C24.1639 16.38 24.2719 16.524 24.3319 16.824C24.3439 16.62 24.5359 16.596 24.6919 16.56V16.944L24.2239 17.268H23.7799Z" fill="white"/>
<path d="M24.248 17.328H23.768L23.252 16.968V16.488L23.348 16.512C23.468 16.536 23.588 16.56 23.672 16.644C23.732 16.464 23.828 16.332 23.984 16.212L24.02 16.188L24.056 16.212C24.2 16.32 24.296 16.452 24.356 16.632C24.428 16.548 24.548 16.524 24.644 16.5L24.752 16.476V16.968L24.248 17.328ZM23.804 17.208H24.212L24.644 16.908V16.632C24.5 16.668 24.416 16.704 24.404 16.824L24.284 16.836C24.236 16.572 24.14 16.44 24.02 16.332C23.888 16.44 23.804 16.56 23.756 16.824H23.636C23.624 16.692 23.528 16.656 23.372 16.632V16.896L23.804 17.208Z" fill="black"/>
<path d="M23.744 18.336L23.204 17.856V17.292C23.396 17.34 23.612 17.364 23.636 17.664C23.696 17.244 23.816 17.016 23.996 16.848C24.188 17.016 24.308 17.244 24.38 17.664C24.404 17.364 24.62 17.34 24.812 17.292V17.856L24.26 18.336H23.744ZM24.752 18.972L24.272 19.656H23.708L23.216 18.972H24.752ZM22.928 20.112C23.168 20.244 23.264 20.52 23.288 21.024H24.68C24.704 20.52 24.8 20.244 25.04 20.112H22.928Z" fill="white"/>
<path d="M24.74 21.084H23.228V21.024C23.204 20.532 23.108 20.28 22.904 20.16L22.7 20.052H25.28L25.076 20.16C24.86 20.28 24.776 20.52 24.752 21.024L24.74 21.084ZM23.348 20.964H24.632C24.656 20.568 24.728 20.328 24.872 20.172H23.108C23.252 20.328 23.324 20.568 23.348 20.964ZM24.308 19.716H23.684L23.108 18.912H24.872L24.308 19.716ZM23.744 19.596H24.248L24.644 19.032H23.336L23.744 19.596ZM24.284 18.396H23.72L23.144 17.88V17.208L23.264 17.244C23.384 17.268 23.528 17.304 23.612 17.424C23.672 17.148 23.78 16.956 23.948 16.8L23.984 16.764L24.02 16.8C24.188 16.956 24.308 17.148 24.38 17.436C24.464 17.316 24.608 17.28 24.74 17.244L24.86 17.208V17.88L24.284 18.396ZM23.768 18.276H24.236L24.752 17.832V17.376C24.584 17.412 24.452 17.46 24.44 17.676H24.32C24.26 17.316 24.164 17.1 23.996 16.932C23.84 17.1 23.744 17.328 23.696 17.676H23.576C23.564 17.46 23.432 17.412 23.264 17.376V17.832L23.768 18.276Z" fill="black"/>
<path d="M25.0641 18.96V18.288C24.8481 18.336 24.6801 18.48 24.6081 18.684C24.6081 18.444 24.3081 17.928 23.9841 17.664C23.6601 17.952 23.3481 18.432 23.3601 18.672C23.3001 18.492 23.1441 18.348 22.9041 18.288V18.972L25.0641 18.96Z" fill="white"/>
<path d="M22.904 19.032L22.844 18.972V18.288L22.916 18.228C23.096 18.276 23.24 18.36 23.324 18.492C23.42 18.216 23.684 17.844 23.936 17.628H24.008C24.272 17.844 24.536 18.228 24.62 18.516C24.716 18.372 24.86 18.276 25.04 18.24L25.112 18.3V18.972L25.052 19.032H22.904ZM22.964 18.372V18.912L25.004 18.9V18.372C24.848 18.432 24.728 18.552 24.668 18.708L24.548 18.684C24.548 18.48 24.284 18.012 23.984 17.748C23.684 18.036 23.408 18.468 23.42 18.672L23.3 18.696C23.252 18.54 23.132 18.432 22.964 18.372Z" fill="black"/>
<path d="M25.16 20.112V19.44C24.908 19.512 24.74 19.644 24.668 19.836C24.668 19.596 24.344 19.08 23.984 18.816C23.624 19.116 23.288 19.584 23.3 19.836C23.24 19.656 23.06 19.512 22.808 19.44V20.124L25.16 20.112Z" fill="white"/>
<path d="M22.8079 20.184L22.7479 20.124V19.44L22.8199 19.38C23.0119 19.44 23.1679 19.536 23.2639 19.656C23.3599 19.368 23.6599 19.008 23.9359 18.768H24.0079C24.2959 18.984 24.5839 19.38 24.6799 19.668C24.7759 19.536 24.9319 19.44 25.1239 19.392L25.1959 19.452V20.124L25.1359 20.184H22.8079ZM22.8679 19.524V20.064L25.0999 20.052V19.524C24.9079 19.596 24.7759 19.704 24.7279 19.86L24.6079 19.836C24.6079 19.632 24.3199 19.152 23.9839 18.888C23.6359 19.188 23.3479 19.62 23.3599 19.824L23.2399 19.848C23.1919 19.716 23.0599 19.596 22.8679 19.524Z" fill="black"/>
<path d="M25.4481 21.516V20.724C25.1961 20.808 24.9801 20.964 24.8361 21.18C24.8361 20.76 24.3561 20.1 23.9841 19.896C23.6001 20.112 23.1321 20.784 23.1321 21.18C22.9881 20.964 22.7601 20.796 22.5081 20.724V21.516H25.4481Z" fill="white"/>
<path d="M25.448 21.576H22.508L22.448 21.516V20.724L22.52 20.664C22.736 20.724 22.928 20.856 23.084 21.024C23.18 20.592 23.612 20.028 23.948 19.836H24.008C24.356 20.028 24.788 20.58 24.872 21.024C25.016 20.856 25.208 20.736 25.424 20.664L25.496 20.724V21.516L25.448 21.576ZM22.568 21.456H25.388V20.808C25.184 20.892 25.004 21.036 24.884 21.216L24.776 21.18C24.776 20.796 24.332 20.172 23.984 19.968C23.612 20.196 23.192 20.832 23.192 21.18L23.084 21.216C22.952 21.036 22.772 20.892 22.568 20.808V21.456Z" fill="black"/>
<path d="M25.28 23.28V22.464C24.992 22.572 24.92 22.836 24.824 23.028C24.86 22.2 24.368 21.324 23.984 21.096C23.6 21.324 23.096 22.224 23.144 23.016C23.048 22.848 22.964 22.572 22.688 22.464V23.268L25.28 23.28Z" fill="white"/>
<path d="M25.2799 23.34L22.6879 23.328L22.6279 23.268V22.464L22.7119 22.404C22.9039 22.476 23.0119 22.62 23.0839 22.764C23.1319 21.996 23.6119 21.24 23.9479 21.036H24.0079C24.3559 21.24 24.8119 21.972 24.8719 22.764C24.9439 22.62 25.0519 22.476 25.2559 22.404L25.3399 22.464V23.28L25.2799 23.34ZM22.7479 23.208L25.2199 23.22V22.56C25.0639 22.656 24.9919 22.8 24.9199 22.956C24.9079 22.992 24.8839 23.028 24.8719 23.052L24.7639 23.028C24.7999 22.236 24.3319 21.408 23.9839 21.168C23.6239 21.408 23.1559 22.26 23.2039 23.016L23.0959 23.052C23.0719 23.016 23.0599 22.98 23.0359 22.944C22.9639 22.812 22.8919 22.656 22.7479 22.572V23.208Z" fill="black"/>
<path d="M25.088 24.504V23.688C24.788 23.76 24.776 23.868 24.68 24.048C24.716 23.556 24.368 22.992 23.984 22.776C23.6 22.992 23.264 23.556 23.288 24.048C23.192 23.868 23.18 23.76 22.88 23.688V24.504H25.088Z" fill="white"/>
<path d="M25.1479 24.564H22.8199V23.616L22.8919 23.628C23.0959 23.676 23.1799 23.748 23.2399 23.832C23.2999 23.388 23.5879 22.932 23.9599 22.728L23.9839 22.716L24.0079 22.728C24.3319 22.908 24.6679 23.364 24.7279 23.832C24.7879 23.748 24.8719 23.688 25.0639 23.64L25.1359 23.628V24.564H25.1479ZM22.9399 24.444H25.0279V23.772C24.8599 23.82 24.8239 23.892 24.7639 24.012C24.7519 24.036 24.7399 24.06 24.7279 24.084L24.6199 24.048C24.6559 23.58 24.3199 23.064 23.9839 22.848C23.6119 23.076 23.3239 23.616 23.3479 24.048L23.3599 24.312L23.2399 24.072C23.2279 24.048 23.2159 24.024 23.2039 24C23.1439 23.88 23.1079 23.808 22.9399 23.76V24.444Z" fill="black"/>
<path d="M12.4401 27.504V25.056C12.3561 24.744 12.0801 24.456 11.8881 24.408V22.248L12.3321 22.488L12.8481 24.756V27.516L12.4401 27.504Z" fill="white"/>
<path d="M12.908 27.576L12.38 27.564V25.068C12.296 24.78 12.044 24.516 11.876 24.468L11.828 24.456V22.152L12.38 22.452L12.908 24.756V27.576ZM12.5 27.444L12.788 27.456V24.768L12.284 22.536L11.948 22.356V24.36C12.152 24.444 12.416 24.72 12.5 25.032V25.044V27.444Z" fill="black"/>
<path d="M12.4401 27.516V25.056C12.3561 24.744 12.0801 24.456 11.8881 24.408V22.104C12.1881 22.104 12.3321 22.488 12.3321 22.488L12.8481 24.756V27.504L12.4401 27.516Z" fill="white"/>
<path d="M12.38 27.576V25.068C12.296 24.78 12.044 24.516 11.876 24.468L11.828 24.456V22.044H11.888C12.224 22.044 12.38 22.452 12.392 22.464L12.908 24.756V27.564L12.38 27.576ZM11.948 24.36C12.152 24.444 12.416 24.72 12.5 25.032V25.044V27.444L12.788 27.432V24.744L12.272 22.488C12.272 22.488 12.164 22.2 11.948 22.152V24.36Z" fill="black"/>
<path d="M12.1161 28.14C12.3201 28.056 12.6201 27.792 12.6201 27.54V24.468L12.4761 24.228H17.7201L17.5161 24.468V27.54C17.5281 27.804 17.6841 28.032 17.9241 28.14H12.1161Z" fill="white"/>
<path d="M18.188 28.2H12.116L12.092 28.08C12.284 27.996 12.56 27.756 12.56 27.54V24.48L12.368 24.168H17.852L17.576 24.492V27.54C17.588 27.768 17.732 27.984 17.948 28.08L18.188 28.2ZM12.332 28.08H17.72C17.564 27.948 17.468 27.756 17.456 27.54V24.444L17.588 24.288H12.584L12.68 24.456V27.54C12.68 27.744 12.512 27.948 12.332 28.08Z" fill="black"/>
<path d="M16.856 28.14C16.652 28.056 16.352 27.792 16.352 27.54V24.624L16.784 24.216H13.232L13.664 24.624V27.54C13.664 27.792 13.364 28.056 13.16 28.14H16.856Z" fill="white"/>
<path d="M16.856 28.2H13.16L13.136 28.08C13.328 27.996 13.604 27.756 13.604 27.54V24.648L13.076 24.156H16.928L16.4 24.648V27.54C16.4 27.756 16.676 28.008 16.868 28.08L16.856 28.2ZM13.376 28.08H16.64C16.46 27.948 16.2921 27.744 16.2921 27.54V24.6L16.628 24.276H13.376L13.712 24.6V27.54C13.724 27.744 13.556 27.948 13.376 28.08Z" fill="black"/>
<path d="M16.3641 28.14C16.1601 28.056 15.8481 27.792 15.8481 27.54V24.9L16.1361 24.504H13.8801L14.1681 24.9V27.54C14.1681 27.792 13.8681 28.056 13.6521 28.14H16.3641Z" fill="white"/>
<path d="M16.3641 28.2H13.6521L13.6281 28.08C13.8321 28.008 14.1081 27.756 14.1081 27.54V24.924L13.7601 24.444H16.2561L15.9081 24.924V27.54C15.9081 27.756 16.1841 28.008 16.3881 28.08L16.3641 28.2ZM13.8801 28.08H16.1361C15.9561 27.948 15.7881 27.744 15.7881 27.54V24.876L16.0161 24.564H14.0001L14.2281 24.876V27.54C14.2281 27.744 14.0601 27.948 13.8801 28.08Z" fill="black"/>
<path d="M14.48 24.504H15.548V28.152H14.468L14.48 24.504Z" fill="white"/>
<path d="M15.608 28.212H14.408L14.42 24.444H15.608V28.212ZM14.528 28.092H15.488V24.564H14.54L14.528 28.092Z" fill="black"/>
<path d="M13.0041 25.512H13.4361V27.492H13.0041V25.512ZM16.7001 25.512H17.1201V27.492H16.6881L16.7001 25.512ZM12.6321 22.176H13.1601V24.216H12.6321V22.176ZM12.6321 21.792H13.1481V22.176H12.6321V21.792ZM16.9041 22.62H17.6361V24.18H16.9041V22.62Z" fill="white"/>
<path d="M17.12 27.552H16.688L16.628 27.492L16.64 25.512L16.7 25.452H17.12L17.18 25.512V27.492L17.12 27.552ZM16.748 27.432H17.06V25.572H16.76L16.748 27.432ZM13.436 27.552H13.004L12.944 27.492V25.512L13.004 25.452H13.436L13.496 25.512V27.492L13.436 27.552ZM13.064 27.432H13.376V25.572H13.064V27.432ZM13.16 24.276H12.632L12.572 24.216V21.792L12.632 21.732H13.148L13.208 21.792V22.164L13.22 22.176V24.216L13.16 24.276ZM12.692 24.156H13.1V22.236H12.692V24.156ZM12.692 22.116H13.088V21.852H12.692V22.116ZM17.636 24.24H16.904L16.844 24.18V22.62L16.904 22.56H17.636L17.696 22.62V24.18L17.636 24.24ZM16.964 24.12H17.576V22.68H16.964V24.12Z" fill="black"/>
<path d="M13.1481 24.192V20.712C13.2921 20.712 13.3161 21.228 13.6521 21.228C13.8321 21.228 13.8201 21.012 13.7121 20.844C13.6281 20.688 13.5201 20.484 13.6641 20.088C13.7721 20.388 14.0361 20.484 13.9881 20.304C13.9041 19.98 13.6521 19.92 13.8441 19.428C13.9041 19.836 14.1681 19.824 14.1081 19.584C14.0361 19.308 13.8801 19.188 14.0721 18.804C14.1801 19.248 14.3121 19.224 14.3121 18.948C14.3121 18.54 14.3121 18.108 14.8161 17.952C14.8161 17.952 14.8521 17.592 15.0441 17.592C15.2241 17.592 15.2601 17.952 15.2601 17.952C15.7761 18.108 15.7641 18.552 15.7641 18.948C15.7641 19.224 15.8961 19.248 16.0041 18.804C16.1961 19.188 16.0401 19.308 15.9681 19.584C15.9081 19.824 16.1721 19.836 16.2321 19.428C16.4241 19.92 16.1721 19.98 16.0881 20.304C16.0401 20.484 16.3041 20.388 16.4121 20.088C16.5561 20.484 16.4481 20.688 16.3641 20.844C16.2681 21.012 16.2441 21.228 16.4241 21.228C16.7601 21.228 16.7841 20.724 16.9281 20.724V24.192H13.1481ZM12.3201 21.564V24.216H12.6201V21.564C12.5121 21.504 12.4161 21.504 12.3201 21.564Z" fill="white"/>
<path d="M12.68 24.276H12.26V21.528L12.284 21.516C12.404 21.444 12.512 21.444 12.644 21.516L12.68 21.528V24.276ZM12.38 24.156H12.56V21.6C12.5 21.576 12.44 21.576 12.38 21.6V24.156ZM16.988 24.252H13.088V20.652H13.148C13.244 20.652 13.292 20.748 13.34 20.868C13.412 21.012 13.484 21.168 13.652 21.168C13.7 21.168 13.712 21.156 13.724 21.132C13.748 21.084 13.724 20.964 13.664 20.868C13.58 20.7 13.46 20.484 13.616 20.064L13.676 19.908L13.736 20.064C13.796 20.232 13.904 20.316 13.952 20.328V20.316C13.928 20.22 13.892 20.148 13.844 20.076C13.748 19.92 13.664 19.764 13.808 19.404L13.892 19.188L13.928 19.416C13.952 19.608 14.024 19.68 14.06 19.692H14.072C14.084 19.692 14.096 19.656 14.072 19.596C14.06 19.536 14.036 19.476 14.012 19.428C13.94 19.26 13.88 19.092 14.036 18.78L14.108 18.636L14.144 18.792C14.18 18.96 14.228 19.044 14.252 19.08C14.264 19.056 14.264 19.02 14.264 18.948C14.264 18.54 14.264 18.084 14.768 17.904C14.78 17.796 14.852 17.532 15.056 17.532C15.248 17.532 15.308 17.796 15.332 17.904C15.848 18.084 15.836 18.54 15.836 18.924V18.948C15.836 19.008 15.848 19.056 15.848 19.08C15.872 19.044 15.908 18.972 15.956 18.792L15.992 18.636L16.064 18.78C16.22 19.092 16.16 19.26 16.088 19.428C16.064 19.476 16.04 19.536 16.028 19.596C16.016 19.656 16.028 19.68 16.028 19.692H16.04C16.076 19.68 16.148 19.608 16.172 19.416L16.208 19.188L16.292 19.404C16.436 19.764 16.352 19.92 16.256 20.076C16.22 20.148 16.172 20.22 16.148 20.316V20.328C16.196 20.316 16.304 20.232 16.364 20.064L16.424 19.908L16.484 20.064C16.64 20.484 16.52 20.712 16.436 20.868C16.376 20.976 16.352 21.084 16.376 21.132C16.376 21.144 16.388 21.156 16.436 21.156C16.604 21.156 16.676 21 16.748 20.856C16.808 20.748 16.844 20.652 16.94 20.652H17V24.252H16.988ZM13.208 24.132H16.868V20.868C16.856 20.892 16.844 20.904 16.844 20.928C16.772 21.084 16.664 21.288 16.424 21.288C16.352 21.288 16.292 21.252 16.256 21.204C16.196 21.096 16.244 20.928 16.304 20.82C16.376 20.688 16.46 20.532 16.388 20.256C16.292 20.4 16.172 20.484 16.088 20.46C16.04 20.448 16.004 20.4 16.028 20.304C16.052 20.196 16.1 20.112 16.148 20.04C16.208 19.932 16.268 19.836 16.232 19.656C16.196 19.74 16.136 19.8 16.076 19.812C16.028 19.824 15.98 19.824 15.944 19.788C15.896 19.74 15.884 19.668 15.908 19.572C15.932 19.5 15.956 19.44 15.968 19.38C16.016 19.248 16.052 19.152 16.004 18.984C15.944 19.14 15.884 19.212 15.812 19.2C15.764 19.188 15.692 19.14 15.692 18.936V18.912C15.692 18.528 15.692 18.144 15.236 18H15.2V17.964C15.188 17.868 15.14 17.652 15.044 17.652C14.936 17.652 14.888 17.88 14.876 17.964V18L14.84 18.012C14.384 18.156 14.384 18.54 14.384 18.948C14.384 19.152 14.324 19.2 14.264 19.212C14.192 19.224 14.132 19.152 14.072 18.996C14.024 19.164 14.06 19.26 14.108 19.392C14.132 19.452 14.156 19.512 14.168 19.584C14.192 19.68 14.18 19.752 14.132 19.8C14.096 19.836 14.048 19.836 14 19.824C13.94 19.8 13.892 19.74 13.844 19.668C13.808 19.848 13.868 19.932 13.928 20.052C13.964 20.124 14.012 20.208 14.048 20.316C14.072 20.412 14.036 20.46 13.988 20.472C13.904 20.496 13.772 20.424 13.688 20.268C13.628 20.544 13.712 20.7 13.772 20.832C13.856 20.964 13.88 21.12 13.832 21.216C13.796 21.276 13.736 21.312 13.664 21.312C13.424 21.312 13.316 21.096 13.244 20.94C13.232 20.928 13.232 20.904 13.22 20.88V24.132H13.208Z" fill="black"/>
<path d="M12.3441 23.28C12.7161 23.472 13.0881 23.7 13.1841 24.216H12.3441V23.28ZM17.5281 22.488V24.216H17.7681V22.488C17.6961 22.452 17.5881 22.44 17.5281 22.488Z" fill="white"/>
<path d="M17.8281 24.276H17.4681V22.464L17.4921 22.44C17.5761 22.368 17.7081 22.392 17.7921 22.428L17.8281 22.44V24.276ZM17.5881 24.156H17.7081V22.524C17.6601 22.512 17.6241 22.512 17.5881 22.524V24.156ZM13.2561 24.276H12.2841V23.184L12.3681 23.232C12.7521 23.436 13.1361 23.676 13.2441 24.216L13.2561 24.276ZM12.4041 24.156H13.1121C13.0161 23.76 12.7281 23.556 12.4041 23.376V24.156Z" fill="black"/>
<path d="M17.768 23.28C17.396 23.46 17.024 23.676 16.928 24.204H17.768V23.28ZM15.296 19.236L15.512 19.056V18.816C15.44 18.816 15.392 18.852 15.332 18.936C15.284 18.78 15.176 18.648 15.032 18.576C14.888 18.648 14.768 18.768 14.72 18.924C14.66 18.84 14.624 18.828 14.54 18.804V19.044L14.756 19.236H15.296Z" fill="white"/>
<path d="M17.828 24.264H16.856L16.868 24.192C16.964 23.64 17.36 23.412 17.744 23.22L17.828 23.184V24.264ZM17 24.144H17.708V23.376C17.384 23.544 17.108 23.736 17 24.144ZM15.32 19.296H14.732L14.48 19.068V18.72L14.552 18.744C14.612 18.756 14.66 18.78 14.696 18.816C14.768 18.684 14.864 18.588 14.996 18.528L15.02 18.516L15.044 18.528C15.176 18.588 15.272 18.696 15.332 18.828C15.38 18.792 15.428 18.768 15.488 18.768H15.548V19.092L15.32 19.296ZM14.78 19.176H15.272L15.452 19.032V18.9C15.428 18.912 15.404 18.936 15.38 18.972L15.308 19.068L15.272 18.948C15.236 18.816 15.14 18.708 15.032 18.636C14.912 18.696 14.816 18.804 14.78 18.936L14.744 19.044L14.672 18.948C14.648 18.912 14.624 18.888 14.6 18.876V19.008L14.78 19.176Z" fill="black"/>
<path d="M15.416 19.824L15.512 19.596V19.296C15.44 19.296 15.392 19.332 15.332 19.416C15.284 19.26 15.176 19.128 15.032 19.056C14.888 19.128 14.768 19.248 14.72 19.404C14.66 19.32 14.624 19.308 14.54 19.296V19.596L14.636 19.824H15.416Z" fill="white"/>
<path d="M15.452 19.884H14.6L14.48 19.596V19.224L14.552 19.236C14.612 19.248 14.66 19.26 14.708 19.296C14.78 19.164 14.876 19.068 15.008 19.008L15.032 18.996L15.056 19.008C15.188 19.068 15.284 19.176 15.344 19.308C15.392 19.272 15.44 19.248 15.5 19.248H15.56V19.632L15.452 19.884ZM14.672 19.764H15.368L15.44 19.584V19.368C15.416 19.38 15.392 19.404 15.368 19.44L15.296 19.536L15.26 19.416C15.224 19.284 15.128 19.176 15.02 19.104C14.9 19.164 14.804 19.272 14.768 19.404L14.732 19.512L14.66 19.416C14.636 19.38 14.612 19.356 14.588 19.344V19.56L14.672 19.764Z" fill="black"/>
<path d="M15.44 20.616L15.752 20.22V19.836C15.632 19.836 15.572 19.896 15.488 20.028C15.404 19.752 15.248 19.704 15.032 19.572C14.804 19.692 14.648 19.752 14.576 20.016C14.48 19.884 14.42 19.848 14.3 19.836V20.22L14.624 20.616H15.44Z" fill="white"/>
<path d="M15.464 20.676H14.6L14.24 20.244V19.776L14.3 19.788C14.408 19.8 14.48 19.824 14.552 19.908C14.636 19.716 14.78 19.644 14.948 19.56L15.032 19.512L15.056 19.524C15.092 19.548 15.116 19.56 15.152 19.584C15.296 19.668 15.416 19.74 15.5 19.908C15.56 19.836 15.632 19.788 15.752 19.788H15.812V20.256L15.464 20.676ZM14.648 20.556H15.404L15.68 20.196V19.896C15.632 19.908 15.584 19.956 15.524 20.052L15.452 20.16L15.416 20.04C15.356 19.824 15.248 19.764 15.08 19.68C15.056 19.668 15.032 19.656 15.008 19.644L14.984 19.656C14.792 19.752 14.672 19.812 14.612 20.028L14.576 20.148L14.504 20.052C14.432 19.956 14.396 19.92 14.336 19.908V20.196L14.648 20.556Z" fill="black"/>
<path d="M15.5241 21.396C15.5241 21.396 15.9081 21.072 15.9201 20.892V20.472C15.7761 20.484 15.6441 20.52 15.5361 20.7C15.4401 20.352 15.2961 20.256 15.0321 20.1C14.7561 20.256 14.6121 20.352 14.5281 20.7C14.4081 20.52 14.2881 20.484 14.1321 20.46V20.892C14.2281 21.084 14.3721 21.252 14.5281 21.396H15.5241Z" fill="white"/>
<path d="M15.548 21.456H14.504L14.492 21.444C14.324 21.3 14.192 21.12 14.084 20.928L14.072 20.916V20.4L14.144 20.412C14.276 20.436 14.396 20.46 14.504 20.58C14.6 20.304 14.756 20.196 15.008 20.052L15.044 20.04L15.068 20.052C15.308 20.196 15.464 20.292 15.56 20.568C15.668 20.448 15.8 20.424 15.92 20.412H15.98V20.892C15.968 21.096 15.608 21.408 15.56 21.444L15.548 21.456ZM14.552 21.336H15.5C15.644 21.216 15.848 21 15.86 20.892V20.544C15.752 20.568 15.668 20.604 15.584 20.736L15.512 20.856L15.476 20.724C15.392 20.412 15.272 20.316 15.032 20.172C14.792 20.316 14.66 20.4 14.588 20.712L14.552 20.844L14.48 20.724C14.384 20.592 14.3 20.544 14.192 20.52V20.868C14.288 21.048 14.408 21.204 14.552 21.336Z" fill="black"/>
<path d="M15.68 22.836C15.68 22.836 16.208 22.272 16.22 22.044V21.396C16.028 21.42 15.836 21.552 15.692 21.828C15.572 21.288 15.38 20.916 15.032 20.652C14.672 20.916 14.48 21.288 14.36 21.828C14.216 21.552 14.036 21.42 13.844 21.396V22.044C13.88 22.272 14.372 22.836 14.372 22.836H15.68Z" fill="white"/>
<path d="M15.704 22.896H14.348L14.336 22.872C14.288 22.812 13.832 22.284 13.796 22.044V21.324L13.868 21.336C14.06 21.36 14.216 21.468 14.348 21.672C14.48 21.168 14.684 20.844 15.008 20.604L15.044 20.58L15.08 20.604C15.392 20.844 15.596 21.18 15.728 21.672C15.896 21.432 16.088 21.36 16.22 21.336L16.292 21.324V22.044C16.28 22.296 15.788 22.812 15.74 22.872L15.704 22.896ZM14.396 22.776H15.656C15.86 22.56 16.16 22.188 16.16 22.044V21.468C15.992 21.516 15.86 21.648 15.74 21.852L15.668 21.996L15.632 21.84C15.512 21.312 15.332 20.976 15.032 20.724C14.72 20.964 14.54 21.3 14.42 21.84L14.384 21.996L14.312 21.852C14.204 21.636 14.06 21.504 13.904 21.468V22.044C13.928 22.2 14.252 22.608 14.396 22.776Z" fill="black"/>
<path d="M15.6801 23.688C15.6801 23.688 16.1241 23.244 16.2201 23.052V22.404C16.0281 22.428 15.8361 22.56 15.6921 22.824C15.6321 22.38 15.3921 21.984 15.0321 21.72C14.6721 21.984 14.4801 22.284 14.3601 22.824C14.2161 22.56 14.0361 22.428 13.8441 22.404V23.052C13.9641 23.244 14.3721 23.688 14.3721 23.688H15.6801Z" fill="white"/>
<path d="M15.7041 23.748H14.3481L14.3361 23.724C14.3241 23.7 13.9281 23.268 13.7961 23.076L13.7841 23.064V22.332L13.8561 22.344C14.0361 22.368 14.2041 22.476 14.3361 22.668C14.4561 22.212 14.6481 21.924 14.9961 21.672L15.0321 21.648L15.0681 21.672C15.4041 21.924 15.6321 22.272 15.7281 22.668C15.8601 22.488 16.0281 22.368 16.2201 22.344L16.2921 22.332V23.064L16.2801 23.076C16.1841 23.28 15.7521 23.712 15.7281 23.724L15.7041 23.748ZM14.3961 23.628H15.6561C15.7401 23.544 16.0761 23.208 16.1601 23.04V22.476C16.0041 22.524 15.8481 22.656 15.7401 22.848L15.6561 23.004L15.6321 22.824C15.5721 22.416 15.3561 22.044 15.0321 21.792C14.6961 22.044 14.5281 22.332 14.4201 22.836L14.3841 22.992L14.3121 22.848C14.2041 22.644 14.0601 22.512 13.9041 22.476V23.028C14.0121 23.208 14.3241 23.544 14.3961 23.628Z" fill="black"/>
<path d="M15.86 24.192C15.74 23.628 15.62 23.208 15.008 22.788C14.384 23.208 14.276 23.628 14.144 24.192H15.86Z" fill="white"/>
<path d="M15.932 24.252H14.072L14.084 24.18C14.204 23.64 14.312 23.184 14.972 22.74L15.008 22.716L15.044 22.74C15.668 23.172 15.8 23.592 15.92 24.18L15.932 24.252ZM14.216 24.132H15.776C15.668 23.616 15.524 23.232 14.996 22.86C14.444 23.244 14.336 23.64 14.216 24.132Z" fill="black"/>
<path d="M16.1841 24.504V23.688C15.8961 23.808 15.6441 23.964 15.5481 24.144C15.4521 23.688 15.2481 23.496 14.9961 23.22C14.7441 23.496 14.5761 23.7 14.4681 24.144C14.3721 23.964 14.1201 23.796 13.8441 23.688V24.504H16.1841Z" fill="white"/>
<path d="M16.2441 24.564H13.7841V23.604L13.8681 23.64C14.1201 23.736 14.3241 23.868 14.4441 24.012C14.5521 23.64 14.7201 23.448 14.9481 23.184L14.9961 23.136L15.0921 23.244C15.2961 23.46 15.4641 23.652 15.5721 24C15.7161 23.832 15.9561 23.712 16.1601 23.628L16.2441 23.592V24.564ZM13.9041 24.444H16.1241V23.784C15.8481 23.904 15.6681 24.036 15.5961 24.18L15.5241 24.324L15.4881 24.168C15.4041 23.76 15.2241 23.58 15.0081 23.34L14.9961 23.328C14.7681 23.58 14.6241 23.772 14.5281 24.18L14.4921 24.336L14.4201 24.192C14.3481 24.048 14.1561 23.904 13.9041 23.796V24.444Z" fill="black"/>
<path d="M12.44 27.504V25.056C12.356 24.744 12.08 24.456 11.888 24.408V22.248L12.332 22.488L12.848 24.756V27.516L12.44 27.504Z" fill="white"/>
<path d="M12.9081 27.576V24.744L12.3801 22.452L11.8281 22.152V24.456L11.8761 24.468C12.0441 24.516 12.3081 24.78 12.3801 25.068V27.564L12.9081 27.576ZM12.7881 24.768V27.456L12.5001 27.444V25.044C12.4161 24.72 12.1521 24.444 11.9481 24.372V22.356L12.2841 22.536L12.7881 24.768Z" fill="black"/>
<path d="M12.44 27.5161V25.0561C12.356 24.7441 12.08 24.4561 11.888 24.4081V22.1041C12.188 22.1041 12.332 22.4881 12.332 22.4881L12.848 24.7561V27.5041L12.44 27.5161Z" fill="white"/>
<path d="M12.3801 27.5761L12.9081 27.5641V24.7441L12.3921 22.4761C12.3801 22.4521 12.2241 22.0441 11.8881 22.0441H11.8281V24.4561L11.8761 24.4681C12.0441 24.5161 12.3081 24.7801 12.3801 25.0681V27.5761ZM12.7881 27.4441L12.5001 27.4561V25.0441C12.4161 24.7201 12.1521 24.4441 11.9481 24.3721V22.1761C12.1641 22.2241 12.2721 22.5121 12.2721 22.5121L12.7881 24.7681V27.4441Z" fill="black"/>
<path d="M12.1161 28.1401C12.3201 28.0561 12.6201 27.7921 12.6201 27.5401V24.4681L12.4761 24.2281H17.7201L17.5161 24.4681V27.5401C17.5281 27.8041 17.6841 28.0321 17.9241 28.1401H12.1161Z" fill="white"/>
<path d="M12.1161 28.2001H18.1881L17.9481 28.0801C17.7321 27.9721 17.5881 27.7681 17.5761 27.5281V24.4801L17.8521 24.1561H12.3681L12.5601 24.4681V27.5281C12.5601 27.7441 12.2841 27.9961 12.0921 28.0681L12.1161 28.2001ZM17.7201 28.0801H12.3321C12.5121 27.9481 12.6801 27.7441 12.6801 27.5401V24.4561L12.5841 24.2881H17.5881L17.4561 24.4441V27.5401C17.4681 27.7561 17.5641 27.9481 17.7201 28.0801Z" fill="black"/>
<path d="M16.8561 28.1401C16.6521 28.0561 16.3521 27.7921 16.3521 27.5401V24.6241L16.7841 24.2161H13.2321L13.6641 24.6241V27.5401C13.6641 27.7921 13.3641 28.0561 13.1601 28.1401H16.8561Z" fill="white"/>
<path d="M13.1601 28.2001H16.8561L16.8801 28.0801C16.6881 27.9961 16.4121 27.7561 16.4121 27.5401V24.6481L16.9401 24.1561H13.0881L13.6161 24.6481V27.5401C13.6161 27.7561 13.3401 28.0081 13.1481 28.0801L13.1601 28.2001ZM16.6401 28.0801H13.3881C13.5681 27.9481 13.7361 27.7441 13.7361 27.5401V24.6001L13.4001 24.2761H16.6521L16.3161 24.6001V27.5401C16.2921 27.7441 16.4601 27.9481 16.6401 28.0801Z" fill="black"/>
<path d="M16.364 28.1401C16.16 28.0561 15.848 27.7921 15.848 27.5401V24.9001L16.136 24.5041H13.88L14.168 24.9001V27.5401C14.168 27.7921 13.868 28.0561 13.652 28.1401H16.364Z" fill="white"/>
<path d="M13.6521 28.2001H16.3641L16.3881 28.0801C16.1841 27.9961 15.9081 27.7561 15.9081 27.5401V24.9241L16.2561 24.4441H13.7601L14.1081 24.9241V27.5401C14.1081 27.7561 13.8321 28.0081 13.6281 28.0801L13.6521 28.2001ZM16.1361 28.0801H13.8801C14.0601 27.9481 14.2281 27.7441 14.2281 27.5401V24.8761L14.0001 24.5641H16.0161L15.7881 24.8761V27.5401C15.7881 27.7441 15.9561 27.9481 16.1361 28.0801Z" fill="black"/>
<path d="M14.4802 24.5041H15.5482V28.1521H14.4682L14.4802 24.5041Z" fill="white"/>
<path d="M14.4082 28.2121H15.6082V24.4441H14.4202L14.4082 28.2121ZM15.4882 28.0921H14.5282L14.5402 24.5641H15.4882V28.0921Z" fill="black"/>
<path d="M13.0041 25.5121H13.4361V27.4921H13.0041V25.5121ZM16.7001 25.5121H17.1201V27.4921H16.6881L16.7001 25.5121ZM12.6321 22.1761H13.1601V24.2161H12.6321V22.1761ZM12.6321 21.7921H13.1481V22.1761H12.6321V21.7921ZM16.9041 22.6201H17.6361V24.1801H16.9041V22.6201Z" fill="white"/>
<path d="M13.0042 27.5521H13.4362L13.4962 27.4921V25.5121L13.4362 25.4521H13.0042L12.9442 25.5121V27.4921L13.0042 27.5521ZM13.3762 27.4321H13.0642V25.5721H13.3762V27.4321ZM16.6882 27.5521H17.1202L17.1802 27.4921V25.5121L17.1202 25.4521H16.7002L16.6402 25.5121L16.6282 27.4921L16.6882 27.5521ZM17.0602 27.4321H16.7482L16.7602 25.5721H17.0602V27.4321ZM12.6322 24.2761H13.1602L13.2202 24.2161V22.1761L13.2082 22.1641V21.7921L13.1482 21.7321H12.6322L12.5722 21.7921V24.2161L12.6322 24.2761ZM13.1002 24.1561H12.6922V22.2361H13.1002V24.1561ZM13.0882 22.1161H12.6922V21.8521H13.0882V22.1161ZM16.9042 24.2401H17.6362L17.6962 24.1801V22.6201L17.6362 22.5601H16.9042L16.8442 22.6201V24.1801L16.9042 24.2401ZM17.5762 24.1201H16.9642V22.6801H17.5762V24.1201Z" fill="black"/>
<path d="M13.1481 24.192V20.712C13.2921 20.712 13.3161 21.228 13.6521 21.228C13.8321 21.228 13.8201 21.012 13.7121 20.844C13.6281 20.688 13.5201 20.484 13.6641 20.088C13.7721 20.388 14.0361 20.484 13.9881 20.304C13.9041 19.98 13.6521 19.92 13.8441 19.428C13.9041 19.836 14.1681 19.824 14.1081 19.584C14.0361 19.308 13.8801 19.188 14.0721 18.804C14.1801 19.248 14.3121 19.224 14.3121 18.948C14.3121 18.54 14.3121 18.108 14.8161 17.952C14.8161 17.952 14.8521 17.592 15.0441 17.592C15.2241 17.592 15.2601 17.952 15.2601 17.952C15.7761 18.108 15.7641 18.552 15.7641 18.948C15.7641 19.224 15.8961 19.248 16.0041 18.804C16.1961 19.188 16.0401 19.308 15.9681 19.584C15.9081 19.824 16.1721 19.836 16.2321 19.428C16.4241 19.92 16.1721 19.98 16.0881 20.304C16.0401 20.484 16.3041 20.388 16.4121 20.088C16.5561 20.484 16.4481 20.688 16.3641 20.844C16.2681 21.012 16.2441 21.228 16.4241 21.228C16.7601 21.228 16.7841 20.724 16.9281 20.724V24.192H13.1481ZM12.3201 21.564V24.216H12.6201V21.564C12.5121 21.504 12.4161 21.504 12.3201 21.564Z" fill="white"/>
<path d="M12.2602 24.2761H12.6802V21.5281L12.6442 21.5161C12.5122 21.4441 12.4042 21.4441 12.2842 21.5161L12.2602 21.5281V24.2761ZM12.5602 24.1561H12.3802V21.6001C12.4402 21.5761 12.5002 21.5761 12.5602 21.6001V24.1561ZM13.0882 24.2521H16.9882V20.6641H16.9282C16.8322 20.6641 16.7842 20.7601 16.7362 20.8681C16.6642 21.0121 16.5922 21.1681 16.4242 21.1681C16.3762 21.1681 16.3642 21.1441 16.3642 21.1441C16.3402 21.0961 16.3642 20.9761 16.4122 20.8801C16.4962 20.7121 16.6162 20.4961 16.4602 20.0761L16.4002 19.9201L16.3402 20.0761C16.2802 20.2441 16.1722 20.3281 16.1242 20.3401V20.3281C16.1482 20.2321 16.1842 20.1601 16.2322 20.0881C16.3282 19.9321 16.4122 19.7761 16.2682 19.4161L16.1842 19.2001L16.1482 19.4281C16.1242 19.6201 16.0522 19.6921 16.0162 19.7041H16.0042C15.9922 19.7041 15.9802 19.6681 16.0042 19.6081C16.0162 19.5481 16.0402 19.4881 16.0642 19.4401C16.1362 19.2721 16.1962 19.1041 16.0402 18.7921L15.9682 18.6481L15.9322 18.8041C15.8962 18.9721 15.8482 19.0561 15.8242 19.0921C15.8122 19.0681 15.8122 19.0321 15.8122 18.9601V18.9361C15.8122 18.5641 15.8122 18.0961 15.3082 17.9161C15.2962 17.8081 15.2362 17.5441 15.0322 17.5441C14.8282 17.5441 14.7682 17.8201 14.7442 17.9161C14.2402 18.0961 14.2402 18.5521 14.2402 18.9601C14.2402 19.0201 14.2282 19.0681 14.2282 19.0921C14.2042 19.0561 14.1682 18.9841 14.1202 18.8041L14.0842 18.6481L14.0122 18.7921C13.8562 19.1041 13.9162 19.2721 13.9882 19.4401C14.0122 19.4881 14.0362 19.5481 14.0482 19.6081C14.0602 19.6681 14.0482 19.6921 14.0482 19.7041H14.0362C14.0002 19.6921 13.9282 19.6201 13.9042 19.4281L13.8682 19.2001L13.7842 19.4161C13.6402 19.7761 13.7242 19.9321 13.8202 20.0881C13.8562 20.1601 13.9042 20.2321 13.9282 20.3281V20.3401C13.8802 20.3281 13.7722 20.2441 13.7122 20.0761L13.6522 19.9201L13.5922 20.0761C13.4362 20.4961 13.5562 20.7241 13.6402 20.8801C13.7002 20.9761 13.7242 21.0961 13.7002 21.1441C13.6882 21.1561 13.6762 21.1801 13.6282 21.1801C13.4602 21.1801 13.3882 21.0241 13.3162 20.8801C13.2682 20.7601 13.2202 20.6641 13.1242 20.6641H13.0642V24.2521H13.0882ZM16.8682 24.1321H13.2082V20.8561C13.2202 20.8801 13.2322 20.8921 13.2322 20.9161C13.3042 21.0721 13.4122 21.2881 13.6522 21.2881C13.7362 21.2881 13.7962 21.2521 13.8202 21.1921C13.8682 21.0961 13.8442 20.9521 13.7602 20.8081C13.6882 20.6881 13.6042 20.5321 13.6762 20.2441C13.7722 20.3881 13.8922 20.4721 13.9762 20.4481C14.0242 20.4361 14.0602 20.3881 14.0362 20.2921C14.0122 20.1841 13.9642 20.1001 13.9162 20.0281C13.8562 19.9201 13.7962 19.8241 13.8322 19.6441C13.8682 19.7281 13.9282 19.7881 13.9882 19.8001C14.0362 19.8121 14.0842 19.8121 14.1202 19.7761C14.1682 19.7281 14.1802 19.6561 14.1562 19.5601C14.1322 19.4881 14.1082 19.4281 14.0962 19.3681C14.0482 19.2361 14.0122 19.1401 14.0602 18.9721C14.1202 19.1281 14.1802 19.2001 14.2522 19.1881C14.3002 19.1761 14.3722 19.1281 14.3722 18.9241C14.3722 18.5161 14.3722 18.1321 14.8282 17.9881L14.8642 17.9761V17.9401C14.8762 17.8561 14.9242 17.6281 15.0322 17.6281C15.1282 17.6281 15.1762 17.8321 15.1882 17.9281V17.9641L15.2242 17.9761C15.6802 18.1201 15.6802 18.5041 15.6802 18.8881V18.9121C15.6802 19.1161 15.7402 19.1641 15.8002 19.1761C15.8722 19.1881 15.9322 19.1161 15.9922 18.9601C16.0402 19.1281 16.0042 19.2241 15.9562 19.3561C15.9322 19.4161 15.9082 19.4761 15.8962 19.5481C15.8722 19.6441 15.8842 19.7161 15.9322 19.7641C15.9682 19.8001 16.0162 19.8001 16.0642 19.7881C16.1242 19.7641 16.1722 19.7041 16.2202 19.6321C16.2562 19.8121 16.1962 19.8961 16.1362 20.0161C16.1002 20.0881 16.0522 20.1721 16.0162 20.2801C15.9922 20.3761 16.0282 20.4241 16.0762 20.4361C16.1602 20.4601 16.2922 20.3881 16.3762 20.2321C16.4362 20.5081 16.3522 20.6641 16.2922 20.7961C16.2322 20.9041 16.1722 21.0721 16.2442 21.1801C16.2802 21.2401 16.3402 21.2641 16.4122 21.2641C16.6522 21.2641 16.7602 21.0481 16.8322 20.9041C16.8442 20.8921 16.8442 20.8681 16.8562 20.8441V24.1321H16.8682Z" fill="black"/>
<path d="M12.3442 23.2801C12.7162 23.4721 13.0882 23.7001 13.1842 24.2161H12.3442V23.2801ZM17.5282 22.4881V24.2161H17.7682V22.4881C17.6962 22.4521 17.5882 22.4401 17.5282 22.4881Z" fill="white"/>
<path d="M12.2841 24.2761H13.2561L13.2441 24.2041C13.1481 23.6641 12.7641 23.4241 12.3681 23.2201L12.2841 23.1721V24.2761ZM13.1121 24.1561H12.4041V23.3761C12.7281 23.5561 13.0041 23.7601 13.1121 24.1561ZM17.4681 24.2761H17.8281V22.4521L17.7921 22.4401C17.7081 22.3921 17.5761 22.3801 17.4921 22.4521L17.4681 22.4761V24.2761ZM17.7081 24.1561H17.5881V22.5241C17.6241 22.5121 17.6601 22.5121 17.7081 22.5241V24.1561Z" fill="black"/>
<path d="M17.7682 23.2801C17.3962 23.4601 17.0242 23.6761 16.9282 24.2041H17.7682V23.2801ZM15.2962 19.2361L15.5122 19.0561V18.8161C15.4402 18.8161 15.3922 18.8521 15.3322 18.9361C15.2842 18.7801 15.1762 18.6481 15.0322 18.5761C14.8882 18.6481 14.7682 18.7681 14.7202 18.9241C14.6602 18.8401 14.6242 18.8281 14.5402 18.8041V19.0441L14.7562 19.2361H15.2962Z" fill="white"/>
<path d="M16.8561 24.2641H17.8281V23.1841L17.7441 23.2201C17.3601 23.4121 16.9761 23.6401 16.8681 24.1921L16.8561 24.2641ZM17.7081 24.1441H17.0001C17.0961 23.7361 17.3841 23.5441 17.7081 23.3761V24.1441ZM14.7321 19.2961H15.3201L15.5721 19.0801V18.7561H15.5121C15.4401 18.7561 15.3921 18.7801 15.3561 18.8161C15.2961 18.6841 15.1881 18.5881 15.0681 18.5161L15.0441 18.5041L15.0201 18.5161C14.8881 18.5761 14.7801 18.6841 14.7201 18.8041C14.6721 18.7681 14.6361 18.7561 14.5761 18.7321L14.5041 18.7081V19.0561L14.7321 19.2961ZM15.2721 19.1761H14.7801L14.6001 19.0201V18.8881C14.6241 18.9001 14.6481 18.9241 14.6721 18.9601L14.7441 19.0561L14.7801 18.9481C14.8281 18.8161 14.9121 18.7081 15.0321 18.6481C15.1521 18.7201 15.2361 18.8281 15.2721 18.9601L15.3081 19.0801L15.3801 18.9841C15.4041 18.9481 15.4281 18.9241 15.4521 18.9121V19.0441L15.2721 19.1761Z" fill="black"/>
<path d="M15.4161 19.8241L15.5121 19.5961V19.2961C15.4401 19.2961 15.3921 19.3321 15.3321 19.4161C15.2841 19.2601 15.1761 19.1281 15.0321 19.0561C14.8881 19.1281 14.7681 19.2481 14.7201 19.4041C14.6601 19.3201 14.6241 19.3081 14.5401 19.2961V19.5961L14.6361 19.8241H15.4161Z" fill="white"/>
<path d="M14.6001 19.8841H15.4641L15.5841 19.5961V19.2361H15.5241C15.4521 19.2361 15.4041 19.2601 15.3681 19.2961C15.3081 19.1641 15.2001 19.0681 15.0801 18.9961L15.0561 18.9841L15.0321 18.9961C14.9001 19.0561 14.7921 19.1641 14.7321 19.2841C14.6841 19.2481 14.6481 19.2361 14.5761 19.2241L14.5041 19.2121V19.6081L14.6001 19.8841ZM15.3801 19.7641H14.6841L14.6121 19.5841V19.3681C14.6361 19.3801 14.6601 19.3921 14.6841 19.4401L14.7561 19.5361L14.7921 19.4281C14.8401 19.2961 14.9241 19.1881 15.0441 19.1281C15.1641 19.2001 15.2481 19.3081 15.2841 19.4401L15.3201 19.5601L15.3921 19.4641C15.4161 19.4281 15.4401 19.4041 15.4641 19.3921V19.6081L15.3801 19.7641Z" fill="black"/>
<path d="M15.4401 20.6161L15.7521 20.2201V19.8361C15.6321 19.8361 15.5721 19.8961 15.4881 20.0281C15.4041 19.7521 15.2481 19.7041 15.0321 19.5721C14.8041 19.6921 14.6481 19.7521 14.5761 20.0161C14.4801 19.8841 14.4201 19.8481 14.3001 19.8361V20.2201L14.6241 20.6161H15.4401Z" fill="white"/>
<path d="M14.6001 20.6761H15.4761L15.8241 20.2441V19.7761H15.7641C15.6441 19.7761 15.5721 19.8241 15.5121 19.8961C15.4281 19.7281 15.3081 19.6561 15.1641 19.5721C15.1281 19.5601 15.1041 19.5361 15.0681 19.5121L15.0441 19.5001L14.9601 19.5481C14.7921 19.6321 14.6481 19.7041 14.5641 19.8961C14.4921 19.8241 14.4201 19.7881 14.3121 19.7761L14.2521 19.7641V20.2321L14.6001 20.6761ZM15.4161 20.5561H14.6601L14.3721 20.1961V19.9081C14.4321 19.9201 14.4681 19.9561 14.5401 20.0521L14.6121 20.1481L14.6481 20.0281C14.7081 19.8121 14.8281 19.7521 15.0201 19.6561L15.0441 19.6441C15.0681 19.6561 15.0921 19.6681 15.1161 19.6801C15.2721 19.7761 15.3801 19.8361 15.4521 20.0401L15.4881 20.1601L15.5601 20.0521C15.6201 19.9561 15.6561 19.9081 15.7161 19.8961V20.1961L15.4161 20.5561Z" fill="black"/>
<path d="M15.524 21.396C15.524 21.396 15.908 21.072 15.92 20.892V20.472C15.776 20.484 15.644 20.52 15.536 20.7C15.44 20.352 15.296 20.256 15.032 20.1C14.756 20.256 14.612 20.352 14.528 20.7C14.408 20.52 14.288 20.484 14.132 20.46V20.892C14.228 21.084 14.372 21.252 14.528 21.396H15.524Z" fill="white"/>
<path d="M14.5041 21.456H15.5481L15.5601 21.444C15.5961 21.408 15.9681 21.096 15.9801 20.904V20.412H15.9201C15.8001 20.424 15.6681 20.448 15.5601 20.568C15.4641 20.292 15.3081 20.184 15.0681 20.052L15.0441 20.04L15.0081 20.052C14.7561 20.196 14.6001 20.292 14.5041 20.58C14.3961 20.46 14.2761 20.436 14.1441 20.412L14.0721 20.4V20.916L14.0841 20.928C14.1921 21.12 14.3241 21.3 14.4921 21.444L14.5041 21.456ZM15.5001 21.336H14.5521C14.4081 21.204 14.2881 21.048 14.1921 20.88V20.532C14.3001 20.556 14.3841 20.592 14.4801 20.736L14.5521 20.856L14.5881 20.724C14.6601 20.412 14.7921 20.316 15.0321 20.184C15.2721 20.328 15.3921 20.424 15.4761 20.736L15.5121 20.868L15.5841 20.748C15.6561 20.616 15.7401 20.58 15.8601 20.556V20.904C15.8481 21 15.6441 21.216 15.5001 21.336Z" fill="black"/>
<path d="M15.6801 22.8361C15.6801 22.8361 16.2081 22.2721 16.2201 22.0441V21.3961C16.0281 21.4201 15.8361 21.5521 15.6921 21.8281C15.5721 21.2881 15.3801 20.9161 15.0321 20.6521C14.6721 20.9161 14.4801 21.2881 14.3601 21.8281C14.2161 21.5521 14.0361 21.4201 13.8441 21.3961V22.0441C13.8801 22.2721 14.3721 22.8361 14.3721 22.8361H15.6801Z" fill="white"/>
<path d="M14.3481 22.8961H15.7041L15.7161 22.8721C15.7761 22.8121 16.2561 22.2841 16.2681 22.0441V21.3241L16.1961 21.3361C16.0521 21.3481 15.8601 21.4321 15.7041 21.6721C15.5721 21.1801 15.3681 20.8441 15.0561 20.6041L15.0201 20.5801L14.9841 20.6041C14.6601 20.8441 14.4561 21.1681 14.3241 21.6721C14.1921 21.4681 14.0241 21.3601 13.8441 21.3361L13.7721 21.3241V22.0441C13.8081 22.2961 14.2641 22.8121 14.3121 22.8721L14.3481 22.8961ZM15.6561 22.7761H14.3961C14.2521 22.6081 13.9281 22.2001 13.9041 22.0321V21.4681C14.0601 21.5161 14.1921 21.6481 14.3121 21.8521L14.3841 21.9961L14.4201 21.8401C14.5401 21.3001 14.7201 20.9641 15.0321 20.7241C15.3321 20.9641 15.5121 21.3001 15.6321 21.8401L15.6681 21.9961L15.7401 21.8521C15.8481 21.6481 15.9921 21.5161 16.1601 21.4681V22.0441C16.1481 22.1881 15.8481 22.5601 15.6561 22.7761Z" fill="black"/>
<path d="M15.6801 23.688C15.6801 23.688 16.1241 23.244 16.2201 23.052V22.404C16.0281 22.428 15.8361 22.56 15.6921 22.824C15.6321 22.38 15.3921 21.984 15.0321 21.72C14.6721 21.984 14.4801 22.284 14.3601 22.824C14.2161 22.56 14.0361 22.428 13.8441 22.404V23.052C13.9641 23.244 14.3721 23.688 14.3721 23.688H15.6801Z" fill="white"/>
<path d="M14.3482 23.748H15.7042L15.7162 23.736C15.7402 23.712 16.1722 23.28 16.2682 23.088L16.2802 23.076V22.344L16.2082 22.356C16.0282 22.38 15.8482 22.488 15.7162 22.68C15.6202 22.284 15.3922 21.936 15.0562 21.684L15.0202 21.66L14.9842 21.684C14.6362 21.936 14.4442 22.224 14.3242 22.68C14.1922 22.488 14.0242 22.38 13.8442 22.356L13.7722 22.344V23.076L13.7842 23.088C13.9042 23.28 14.3002 23.712 14.3242 23.736L14.3482 23.748ZM15.6562 23.628H14.3962C14.3242 23.544 14.0122 23.208 13.9042 23.04V22.488C14.0602 22.536 14.1922 22.656 14.3122 22.86L14.3842 23.004L14.4202 22.848C14.5282 22.344 14.6962 22.056 15.0322 21.804C15.3562 22.056 15.5722 22.428 15.6322 22.836L15.6562 23.016L15.7402 22.86C15.8482 22.656 15.9922 22.524 16.1602 22.488V23.052C16.0642 23.208 15.7402 23.544 15.6562 23.628Z" fill="black"/>
<path d="M15.8601 24.1921C15.7401 23.6281 15.6201 23.2081 15.0081 22.7881C14.3841 23.2081 14.2761 23.6281 14.1441 24.1921H15.8601Z" fill="white"/>
<path d="M14.0721 24.2521H15.9321L15.9201 24.1801C15.7881 23.5921 15.6681 23.1601 15.0441 22.7401L15.0081 22.7161L14.9721 22.7401C14.3121 23.1841 14.2041 23.6401 14.0841 24.1801L14.0721 24.2521ZM15.7881 24.1321H14.2281C14.3481 23.6401 14.4561 23.2441 15.0201 22.8601C15.5361 23.2321 15.6681 23.6161 15.7881 24.1321Z" fill="black"/>
<path d="M16.1841 24.5041V23.6881C15.8961 23.8081 15.6441 23.9641 15.5481 24.1441C15.4521 23.6881 15.2481 23.4961 14.9961 23.2201C14.7441 23.4961 14.5761 23.7001 14.4681 24.1441C14.3721 23.9641 14.1201 23.7961 13.8441 23.6881V24.5041H16.1841Z" fill="white"/>
<path d="M13.7841 24.5641H16.2441V23.6041L16.1601 23.6401C15.9681 23.7241 15.7161 23.8441 15.5721 24.0121C15.4761 23.6641 15.2961 23.4721 15.0921 23.2561L14.9961 23.1481L14.9481 23.1961C14.7081 23.4601 14.5521 23.6521 14.4441 24.0241C14.3241 23.8801 14.1201 23.7481 13.8681 23.6521L13.7841 23.6161V24.5641ZM16.1241 24.4441H13.9041V23.7721C14.1441 23.8801 14.3361 24.0241 14.4201 24.1681L14.4921 24.3121L14.5281 24.1561C14.6241 23.7601 14.7681 23.5561 14.9961 23.3041L15.0081 23.3161C15.2241 23.5561 15.4041 23.7481 15.4881 24.1441L15.5241 24.3001L15.5961 24.1561C15.6681 24.0241 15.8481 23.8921 16.1241 23.7601V24.4441Z" fill="black"/>
<path d="M35.5162 27.504V25.056C35.6002 24.744 35.8762 24.456 36.0682 24.408V22.248L35.6242 22.488L35.1082 24.756V27.516L35.5162 27.504Z" fill="white"/>
<path d="M35.0482 27.576V24.744L35.5762 22.452L36.1282 22.152V24.456L36.0802 24.468C35.9122 24.516 35.6482 24.78 35.5762 25.068V27.564L35.0482 27.576ZM35.1682 24.768V27.456L35.4562 27.444V25.044C35.5402 24.72 35.8042 24.444 36.0082 24.372V22.356L35.6722 22.536L35.1682 24.768Z" fill="black"/>
<path d="M35.5162 27.5161V25.0561C35.6002 24.7441 35.8762 24.4561 36.0682 24.4081V22.1041C35.7682 22.1041 35.6242 22.4881 35.6242 22.4881L35.1082 24.7561V27.5041L35.5162 27.5161Z" fill="white"/>
<path d="M35.5762 27.5761L35.0482 27.5641V24.7441L35.5642 22.4761C35.5762 22.4521 35.7322 22.0441 36.0682 22.0441H36.1282V24.4561L36.0802 24.4681C35.9122 24.5161 35.6482 24.7801 35.5762 25.0681V27.5761ZM35.1682 27.4441L35.4562 27.4561V25.0441C35.5402 24.7201 35.8042 24.4441 36.0082 24.3721V22.1761C35.7922 22.2241 35.6842 22.5121 35.6842 22.5121L35.1682 24.7681V27.4441Z" fill="black"/>
<path d="M35.8402 28.1401C35.6362 28.0561 35.3362 27.7921 35.3362 27.5401V24.4681L35.4802 24.2281H30.2362L30.4402 24.4681V27.5401C30.4282 27.8041 30.2722 28.0321 30.0322 28.1401H35.8402Z" fill="white"/>
<path d="M35.8402 28.2001H29.7682L30.0082 28.0801C30.2242 27.9721 30.3682 27.7681 30.3802 27.5281V24.4801L30.1042 24.1561H35.5882L35.3962 24.4681V27.5281C35.3962 27.7441 35.6722 27.9961 35.8642 28.0681L35.8402 28.2001ZM30.2362 28.0801H35.6242C35.4442 27.9481 35.2762 27.7441 35.2762 27.5401V24.4561L35.3722 24.2881H30.3682L30.5002 24.4441V27.5401C30.4882 27.7561 30.3922 27.9481 30.2362 28.0801Z" fill="black"/>
<path d="M31.1002 28.1401C31.3042 28.0561 31.6042 27.7921 31.6042 27.5401V24.6241L31.1722 24.2161H34.7242L34.2922 24.6241V27.5401C34.2922 27.7921 34.5922 28.0561 34.7962 28.1401H31.1002Z" fill="white"/>
<path d="M34.7962 28.2001H31.1002L31.0762 28.0801C31.2682 27.9961 31.5442 27.7561 31.5442 27.5401V24.6481L31.0162 24.1561H34.8682L34.3402 24.6481V27.5401C34.3402 27.7561 34.6162 28.0081 34.8082 28.0801L34.7962 28.2001ZM31.3162 28.0801H34.5682C34.3882 27.9481 34.2202 27.7441 34.2202 27.5401V24.6001L34.5562 24.2761H31.3042L31.6402 24.6001V27.5401C31.6642 27.7441 31.4962 27.9481 31.3162 28.0801Z" fill="black"/>
<path d="M31.5923 28.1401C31.7963 28.0561 32.1083 27.7921 32.1083 27.5401V24.9001L31.8203 24.5041H34.0763L33.7883 24.9001V27.5401C33.7883 27.7921 34.0883 28.0561 34.3043 28.1401H31.5923Z" fill="white"/>
<path d="M34.3042 28.2001H31.5922L31.5682 28.0801C31.7722 27.9961 32.0482 27.7561 32.0482 27.5401V24.9241L31.7002 24.4441H34.1962L33.8482 24.9241V27.5401C33.8482 27.7561 34.1242 28.0081 34.3282 28.0801L34.3042 28.2001ZM31.8202 28.0801H34.0762C33.8962 27.9481 33.7282 27.7441 33.7282 27.5401V24.8761L33.9562 24.5641H31.9402L32.1682 24.8761V27.5401C32.1682 27.7441 32.0002 27.9481 31.8202 28.0801Z" fill="black"/>
<path d="M33.4762 24.5041H32.4082V28.1521H33.4882L33.4762 24.5041Z" fill="white"/>
<path d="M33.5481 28.2121H32.3481V24.4441H33.5361L33.5481 28.2121ZM32.4681 28.0921H33.4281L33.4161 24.5641H32.4681V28.0921Z" fill="black"/>
<path d="M34.9522 25.5121H34.5202V27.4921H34.9522V25.5121ZM31.2562 25.5121H30.8362V27.4921H31.2682L31.2562 25.5121ZM35.3242 22.1761H34.7962V24.2161H35.3242V22.1761ZM35.3242 21.7921H34.8082V22.1761H35.3242V21.7921ZM31.0522 22.6201H30.3202V24.1801H31.0522V22.6201Z" fill="white"/>
<path d="M34.9521 27.5521H34.5201L34.4601 27.4921V25.5121L34.5201 25.4521H34.9521L35.0121 25.5121V27.4921L34.9521 27.5521ZM34.5801 27.4321H34.8921V25.5721H34.5801V27.4321ZM31.2681 27.5521H30.8361L30.7761 27.4921V25.5121L30.8361 25.4521H31.2561L31.3161 25.5121L31.3281 27.4921L31.2681 27.5521ZM30.8961 27.4321H31.2081L31.1961 25.5721H30.8961V27.4321ZM35.3241 24.2761H34.7961L34.7361 24.2161V22.1761L34.7481 22.1641V21.7921L34.8081 21.7321H35.3241L35.3841 21.7921V24.2161L35.3241 24.2761ZM34.8561 24.1561H35.2641V22.2361H34.8561V24.1561ZM34.8681 22.1161H35.2641V21.8521H34.8681V22.1161ZM31.0521 24.2401H30.3201L30.2601 24.1801V22.6201L30.3201 22.5601H31.0521L31.1121 22.6201V24.1801L31.0521 24.2401ZM30.3801 24.1201H30.9921V22.6801H30.3801V24.1201Z" fill="black"/>
<path d="M34.8082 24.192V20.712C34.6642 20.712 34.6402 21.228 34.3042 21.228C34.1242 21.228 34.1362 21.012 34.2442 20.844C34.3282 20.688 34.4362 20.484 34.2922 20.088C34.1842 20.388 33.9202 20.484 33.9682 20.304C34.0522 19.98 34.3042 19.92 34.1122 19.428C34.0522 19.836 33.7882 19.824 33.8482 19.584C33.9202 19.308 34.0762 19.188 33.8842 18.804C33.7762 19.248 33.6442 19.224 33.6442 18.948C33.6442 18.54 33.6442 18.108 33.1402 17.952C33.1402 17.952 33.1042 17.592 32.9122 17.592C32.7322 17.592 32.6962 17.952 32.6962 17.952C32.1802 18.108 32.1922 18.552 32.1922 18.948C32.1922 19.224 32.0602 19.248 31.9522 18.804C31.7602 19.188 31.9162 19.308 31.9882 19.584C32.0482 19.824 31.7842 19.836 31.7242 19.428C31.5322 19.92 31.7842 19.98 31.8682 20.304C31.9162 20.484 31.6522 20.388 31.5442 20.088C31.4002 20.484 31.5082 20.688 31.5922 20.844C31.6882 21.012 31.7122 21.228 31.5322 21.228C31.1962 21.228 31.1722 20.724 31.0282 20.724V24.192H34.8082ZM35.6362 21.564V24.216H35.3362V21.564C35.4442 21.504 35.5402 21.504 35.6362 21.564Z" fill="white"/>
<path d="M35.6961 24.2761H35.2761V21.5281L35.3121 21.5161C35.4441 21.4441 35.5521 21.4441 35.6721 21.5161L35.6961 21.5281V24.2761ZM35.3961 24.1561H35.5761V21.6001C35.5161 21.5761 35.4561 21.5761 35.3961 21.6001V24.1561ZM34.8681 24.2521H30.9681V20.6641H31.0281C31.1241 20.6641 31.1721 20.7601 31.2201 20.8681C31.2921 21.0121 31.3641 21.1681 31.5321 21.1681C31.5801 21.1681 31.5921 21.1441 31.5921 21.1441C31.6161 21.0961 31.5921 20.9761 31.5441 20.8801C31.4601 20.7121 31.3401 20.4961 31.4961 20.0761L31.5561 19.9201L31.6161 20.0761C31.6761 20.2441 31.7841 20.3281 31.8321 20.3401V20.3281C31.8081 20.2321 31.7721 20.1601 31.7241 20.0881C31.6281 19.9321 31.5441 19.7761 31.6881 19.4161L31.7721 19.2001L31.8081 19.4281C31.8321 19.6201 31.9041 19.6921 31.9401 19.7041H31.9521C31.9641 19.7041 31.9761 19.6681 31.9521 19.6081C31.9401 19.5481 31.9161 19.4881 31.8921 19.4401C31.8201 19.2721 31.7601 19.1041 31.9161 18.7921L31.9881 18.6481L32.0241 18.8041C32.0601 18.9721 32.1081 19.0561 32.1321 19.0921C32.1441 19.0681 32.1441 19.0321 32.1441 18.9601V18.9361C32.1441 18.5641 32.1441 18.0961 32.6481 17.9161C32.6601 17.8081 32.7201 17.5441 32.9241 17.5441C33.1281 17.5441 33.1881 17.8201 33.2121 17.9161C33.7161 18.0961 33.7161 18.5521 33.7161 18.9601C33.7161 19.0201 33.7281 19.0681 33.7281 19.0921C33.7521 19.0561 33.7881 18.9841 33.8361 18.8041L33.8721 18.6481L33.9441 18.7921C34.1001 19.1041 34.0401 19.2721 33.9681 19.4401C33.9441 19.4881 33.9201 19.5481 33.9081 19.6081C33.8961 19.6681 33.9081 19.6921 33.9081 19.7041H33.9201C33.9561 19.6921 34.0281 19.6201 34.0521 19.4281L34.0881 19.2001L34.1721 19.4161C34.3161 19.7761 34.2321 19.9321 34.1361 20.0881C34.1001 20.1601 34.0521 20.2321 34.0281 20.3281V20.3401C34.0761 20.3281 34.1841 20.2441 34.2441 20.0761L34.3041 19.9201L34.3641 20.0761C34.5201 20.4961 34.4001 20.7241 34.3161 20.8801C34.2561 20.9761 34.2321 21.0961 34.2561 21.1441C34.2681 21.1561 34.2801 21.1801 34.3281 21.1801C34.4961 21.1801 34.5681 21.0241 34.6401 20.8801C34.6881 20.7601 34.7361 20.6641 34.8321 20.6641H34.8921V24.2521H34.8681ZM31.0881 24.1321H34.7481V20.8561C34.7361 20.8801 34.7241 20.8921 34.7241 20.9161C34.6521 21.0721 34.5441 21.2881 34.3041 21.2881C34.2201 21.2881 34.1601 21.2521 34.1361 21.1921C34.0881 21.0961 34.1121 20.9521 34.1961 20.8081C34.2681 20.6881 34.3521 20.5321 34.2801 20.2441C34.1841 20.3881 34.0641 20.4721 33.9801 20.4481C33.9321 20.4361 33.8961 20.3881 33.9201 20.2921C33.9441 20.1841 33.9921 20.1001 34.0401 20.0281C34.1001 19.9201 34.1601 19.8241 34.1241 19.6441C34.0881 19.7281 34.0281 19.7881 33.9681 19.8001C33.9201 19.8121 33.8721 19.8121 33.8361 19.7761C33.7881 19.7281 33.7761 19.6561 33.8001 19.5601C33.8241 19.4881 33.8481 19.4281 33.8601 19.3681C33.9081 19.2361 33.9441 19.1401 33.8961 18.9721C33.8361 19.1281 33.7761 19.2001 33.7041 19.1881C33.6561 19.1761 33.5841 19.1281 33.5841 18.9241C33.5841 18.5161 33.5841 18.1321 33.1281 17.9881L33.0921 17.9761V17.9401C33.0801 17.8561 33.0321 17.6281 32.9241 17.6281C32.8281 17.6281 32.7801 17.8321 32.7681 17.9281V17.9641L32.7321 17.9761C32.2761 18.1201 32.2761 18.5041 32.2761 18.8881V18.9121C32.2761 19.1161 32.2161 19.1641 32.1561 19.1761C32.0841 19.1881 32.0241 19.1161 31.9641 18.9601C31.9161 19.1281 31.9521 19.2241 32.0001 19.3561C32.0241 19.4161 32.0481 19.4761 32.0601 19.5481C32.0841 19.6441 32.0721 19.7161 32.0241 19.7641C31.9881 19.8001 31.9401 19.8001 31.8921 19.7881C31.8321 19.7641 31.7841 19.7041 31.7361 19.6321C31.7001 19.8121 31.7601 19.8961 31.8201 20.0161C31.8561 20.0881 31.9041 20.1721 31.9401 20.2801C31.9641 20.3761 31.9281 20.4241 31.8801 20.4361C31.7961 20.4601 31.6641 20.3881 31.5801 20.2321C31.5201 20.5081 31.6041 20.6641 31.6641 20.7961C31.7241 20.9041 31.7841 21.0721 31.7121 21.1801C31.6761 21.2401 31.6161 21.2641 31.5441 21.2641C31.3041 21.2641 31.1961 21.0481 31.1241 20.9041C31.1121 20.8921 31.1121 20.8681 31.1001 20.8441V24.1321H31.0881Z" fill="black"/>
<path d="M35.6121 23.2801C35.2401 23.4721 34.8681 23.7001 34.7721 24.2161H35.6121V23.2801ZM30.4281 22.4881V24.2161H30.1881V22.4881C30.2601 22.4521 30.3681 22.4401 30.4281 22.4881Z" fill="white"/>
<path d="M35.6722 24.2761H34.7002L34.7122 24.2041C34.8082 23.6641 35.1922 23.4241 35.5882 23.2201L35.6722 23.1721V24.2761ZM34.8442 24.1561H35.5522V23.3761C35.2282 23.5561 34.9522 23.7601 34.8442 24.1561ZM30.4882 24.2761H30.1282V22.4521L30.1642 22.4401C30.2482 22.3921 30.3802 22.3801 30.4642 22.4521L30.4882 22.4761V24.2761ZM30.2482 24.1561H30.3682V22.5241C30.3322 22.5121 30.2962 22.5121 30.2482 22.5241V24.1561Z" fill="black"/>
<path d="M30.1881 23.2801C30.5601 23.4601 30.9321 23.6761 31.0281 24.2041H30.1881V23.2801ZM32.6601 19.2361L32.4441 19.0561V18.8161C32.5161 18.8161 32.5641 18.8521 32.6241 18.9361C32.6721 18.7801 32.7801 18.6481 32.9241 18.5761C33.0681 18.6481 33.1881 18.7681 33.2361 18.9241C33.2961 18.8401 33.3321 18.8281 33.4161 18.8041V19.0441L33.2001 19.2361H32.6601Z" fill="white"/>
<path d="M31.1002 24.2641H30.1282V23.1841L30.2122 23.2201C30.5962 23.4121 30.9802 23.6401 31.0882 24.1921L31.1002 24.2641ZM30.2482 24.1441H30.9562C30.8602 23.7361 30.5722 23.5441 30.2482 23.3761V24.1441ZM33.2242 19.2961H32.6362L32.3842 19.0801V18.7561H32.4442C32.5162 18.7561 32.5642 18.7801 32.6002 18.8161C32.6602 18.6841 32.7682 18.5881 32.8882 18.5161L32.9122 18.5041L32.9362 18.5161C33.0682 18.5761 33.1762 18.6841 33.2362 18.8041C33.2842 18.7681 33.3202 18.7561 33.3802 18.7321L33.4522 18.7081V19.0561L33.2242 19.2961ZM32.6842 19.1761H33.1762L33.3562 19.0201V18.8881C33.3322 18.9001 33.3082 18.9241 33.2842 18.9601L33.2122 19.0561L33.1762 18.9481C33.1282 18.8161 33.0442 18.7081 32.9242 18.6481C32.8042 18.7201 32.7202 18.8281 32.6842 18.9601L32.6482 19.0801L32.5762 18.9841C32.5522 18.9481 32.5282 18.9241 32.5042 18.9121V19.0441L32.6842 19.1761Z" fill="black"/>
<path d="M32.5402 19.8241L32.4442 19.5961V19.2961C32.5162 19.2961 32.5642 19.3321 32.6242 19.4161C32.6722 19.2601 32.7802 19.1281 32.9242 19.0561C33.0682 19.1281 33.1882 19.2481 33.2362 19.4041C33.2962 19.3201 33.3322 19.3081 33.4162 19.2961V19.5961L33.3202 19.8241H32.5402Z" fill="white"/>
<path d="M33.3562 19.8841H32.4922L32.3722 19.5961V19.2361H32.4322C32.5042 19.2361 32.5522 19.2601 32.5882 19.2961C32.6482 19.1641 32.7562 19.0681 32.8762 18.9961L32.9002 18.9841L32.9242 18.9961C33.0562 19.0561 33.1642 19.1641 33.2242 19.2841C33.2722 19.2481 33.3082 19.2361 33.3802 19.2241L33.4522 19.2121V19.6081L33.3562 19.8841ZM32.5762 19.7641H33.2722L33.3442 19.5841V19.3681C33.3202 19.3801 33.2962 19.3921 33.2722 19.4401L33.2002 19.5361L33.1642 19.4281C33.1162 19.2961 33.0322 19.1881 32.9122 19.1281C32.7922 19.2001 32.7082 19.3081 32.6722 19.4401L32.6362 19.5601L32.5642 19.4641C32.5402 19.4281 32.5162 19.4041 32.4922 19.3921V19.6081L32.5762 19.7641Z" fill="black"/>
<path d="M32.5162 20.6161L32.2042 20.2201V19.8361C32.3242 19.8361 32.3842 19.8961 32.4682 20.0281C32.5522 19.7521 32.7082 19.7041 32.9242 19.5721C33.1522 19.6921 33.3082 19.7521 33.3802 20.0161C33.4762 19.8841 33.5362 19.8481 33.6562 19.8361V20.2201L33.3322 20.6161H32.5162Z" fill="white"/>
<path d="M33.3562 20.6761H32.4802L32.1322 20.2441V19.7761H32.1922C32.3122 19.7761 32.3842 19.8241 32.4442 19.8961C32.5282 19.7281 32.6482 19.6561 32.7922 19.5721C32.8282 19.5601 32.8522 19.5361 32.8882 19.5121L32.9122 19.5001L32.9962 19.5481C33.1642 19.6321 33.3082 19.7041 33.3922 19.8961C33.4642 19.8241 33.5362 19.7881 33.6442 19.7761L33.7042 19.7641V20.2321L33.3562 20.6761ZM32.5402 20.5561H33.2962L33.5842 20.1961V19.9081C33.5242 19.9201 33.4882 19.9561 33.4162 20.0521L33.3442 20.1481L33.3082 20.0281C33.2482 19.8121 33.1282 19.7521 32.9362 19.6561L32.9122 19.6441C32.8882 19.6561 32.8642 19.6681 32.8402 19.6801C32.6842 19.7761 32.5762 19.8361 32.5042 20.0401L32.4682 20.1601L32.3962 20.0521C32.3362 19.9561 32.3002 19.9081 32.2402 19.8961V20.1961L32.5402 20.5561Z" fill="black"/>
<path d="M32.4321 21.396C32.4321 21.396 32.0481 21.072 32.0361 20.892V20.472C32.1801 20.484 32.3121 20.52 32.4201 20.7C32.5161 20.352 32.6601 20.256 32.9241 20.1C33.2001 20.256 33.3441 20.352 33.4281 20.7C33.5481 20.52 33.6681 20.484 33.8241 20.46V20.892C33.7281 21.084 33.5841 21.252 33.4281 21.396H32.4321Z" fill="white"/>
<path d="M33.4522 21.456H32.4082L32.3962 21.444C32.3602 21.408 31.9882 21.096 31.9762 20.904V20.412H32.0362C32.1562 20.424 32.2882 20.448 32.3962 20.568C32.4922 20.292 32.6482 20.184 32.8882 20.052L32.9122 20.04L32.9482 20.052C33.2002 20.196 33.3562 20.292 33.4522 20.58C33.5602 20.46 33.6802 20.436 33.8122 20.412L33.8842 20.4V20.916L33.8722 20.928C33.7642 21.12 33.6322 21.3 33.4642 21.444L33.4522 21.456ZM32.4562 21.336H33.4042C33.5482 21.204 33.6682 21.048 33.7642 20.88V20.532C33.6562 20.556 33.5722 20.592 33.4762 20.736L33.4042 20.856L33.3682 20.724C33.2962 20.412 33.1642 20.316 32.9242 20.184C32.6842 20.328 32.5642 20.424 32.4802 20.736L32.4442 20.868L32.3722 20.748C32.3002 20.616 32.2162 20.58 32.0962 20.556V20.904C32.1082 21 32.3122 21.216 32.4562 21.336Z" fill="black"/>
<path d="M32.2762 22.8361C32.2762 22.8361 31.7482 22.2721 31.7362 22.0441V21.3961C31.9282 21.4201 32.1202 21.5521 32.2642 21.8281C32.3842 21.2881 32.5762 20.9161 32.9242 20.6521C33.2842 20.9161 33.4762 21.2881 33.5962 21.8281C33.7402 21.5521 33.9202 21.4201 34.1122 21.3961V22.0441C34.0762 22.2721 33.5842 22.8361 33.5842 22.8361H32.2762Z" fill="white"/>
<path d="M33.6082 22.8961H32.2522L32.2402 22.8721C32.1802 22.8121 31.7002 22.2841 31.6882 22.0441V21.3241L31.7602 21.3361C31.9042 21.3481 32.0962 21.4321 32.2522 21.6721C32.3842 21.1801 32.5882 20.8441 32.9002 20.6041L32.9362 20.5801L32.9722 20.6041C33.2962 20.8441 33.5002 21.1681 33.6322 21.6721C33.7642 21.4681 33.9322 21.3601 34.1122 21.3361L34.1842 21.3241V22.0441C34.1482 22.2961 33.6922 22.8121 33.6442 22.8721L33.6082 22.8961ZM32.3002 22.7761H33.5602C33.7042 22.6081 34.0282 22.2001 34.0522 22.0321V21.4681C33.8962 21.5161 33.7642 21.6481 33.6442 21.8521L33.5722 21.9961L33.5362 21.8401C33.4162 21.3001 33.2362 20.9641 32.9242 20.7241C32.6242 20.9641 32.4442 21.3001 32.3242 21.8401L32.2882 21.9961L32.2162 21.8521C32.1082 21.6481 31.9642 21.5161 31.7962 21.4681V22.0441C31.8082 22.1881 32.1082 22.5601 32.3002 22.7761Z" fill="black"/>
<path d="M32.2761 23.688C32.2761 23.688 31.8321 23.244 31.7361 23.052V22.404C31.9281 22.428 32.1201 22.56 32.2641 22.824C32.3241 22.38 32.5641 21.984 32.9241 21.72C33.2841 21.984 33.4761 22.284 33.5961 22.824C33.7401 22.56 33.9201 22.428 34.1121 22.404V23.052C33.9921 23.244 33.5841 23.688 33.5841 23.688H32.2761Z" fill="white"/>
<path d="M33.6081 23.748H32.2521L32.2401 23.736C32.2161 23.712 31.7841 23.28 31.6881 23.088L31.6761 23.076V22.344L31.7481 22.356C31.9281 22.38 32.1081 22.488 32.2401 22.68C32.3361 22.284 32.5641 21.936 32.9001 21.684L32.9361 21.66L32.9721 21.684C33.3201 21.936 33.5121 22.224 33.6321 22.68C33.7641 22.488 33.9321 22.38 34.1121 22.356L34.1841 22.344V23.076L34.1721 23.088C34.0521 23.28 33.6561 23.712 33.6321 23.736L33.6081 23.748ZM32.3001 23.628H33.5601C33.6321 23.544 33.9441 23.208 34.0521 23.04V22.488C33.8961 22.536 33.7641 22.656 33.6441 22.86L33.5721 23.004L33.5361 22.848C33.4281 22.344 33.2601 22.056 32.9241 21.804C32.6001 22.056 32.3841 22.428 32.3241 22.836L32.3001 23.016L32.2161 22.86C32.1081 22.656 31.9641 22.524 31.7961 22.488V23.052C31.8921 23.208 32.2161 23.544 32.3001 23.628Z" fill="black"/>
<path d="M32.0962 24.1921C32.2162 23.6281 32.3362 23.2081 32.9482 22.7881C33.5722 23.2081 33.6802 23.6281 33.8122 24.1921H32.0962Z" fill="white"/>
<path d="M33.8842 24.2521H32.0242L32.0362 24.1801C32.1682 23.5921 32.2882 23.1601 32.9122 22.7401L32.9482 22.7161L32.9842 22.7401C33.6442 23.1841 33.7522 23.6401 33.8722 24.1801L33.8842 24.2521ZM32.1682 24.1321H33.7282C33.6082 23.6401 33.5002 23.2441 32.9362 22.8601C32.4202 23.2321 32.2882 23.6161 32.1682 24.1321Z" fill="black"/>
<path d="M31.7721 24.5041V23.6881C32.0601 23.8081 32.3121 23.9641 32.4081 24.1441C32.5041 23.6881 32.7081 23.4961 32.9601 23.2201C33.2121 23.4961 33.3801 23.7001 33.4881 24.1441C33.5841 23.9641 33.8361 23.7961 34.1121 23.6881V24.5041H31.7721Z" fill="white"/>
<path d="M34.1722 24.5641H31.7122V23.6041L31.7962 23.6401C31.9882 23.7241 32.2402 23.8441 32.3842 24.0121C32.4802 23.6641 32.6602 23.4721 32.8642 23.2561L32.9602 23.1481L33.0082 23.1961C33.2482 23.4601 33.4042 23.6521 33.5122 24.0241C33.6322 23.8801 33.8362 23.7481 34.0882 23.6521L34.1722 23.6161V24.5641ZM31.8322 24.4441H34.0522V23.7721C33.8122 23.8801 33.6202 24.0241 33.5362 24.1681L33.4642 24.3121L33.4282 24.1561C33.3322 23.7601 33.1882 23.5561 32.9602 23.3041L32.9482 23.3161C32.7322 23.5561 32.5522 23.7481 32.4682 24.1441L32.4322 24.3001L32.3602 24.1561C32.2882 24.0241 32.1082 23.8921 31.8322 23.7601V24.4441Z" fill="black"/>
<path d="M9.28403 31.116H38.72V32.616H9.28403V31.116ZM8.50403 32.616H39.5V34.116H8.50403V32.616ZM10.832 28.86H37.16V29.832H10.832V28.86Z" fill="white"/>
<path d="M39.56 34.176H8.44397V32.556H9.22397V31.056H38.78V32.556H39.56V34.176ZM8.56397 34.056H39.44V32.676H8.56397V34.056ZM9.34397 32.556H38.66V31.176H9.34397V32.556ZM37.22 29.892H10.772V28.8H37.22V29.892ZM10.892 29.772H37.1V28.92H10.892V29.772Z" fill="black"/>
<path d="M10.0641 29.832H37.9521V31.104H10.0641V29.832ZM11.2881 28.116H36.7281V28.86H11.2881V28.116Z" fill="white"/>
<path d="M38.012 31.164H10.004V29.772H38.012V31.164ZM10.124 31.044H37.892V29.892H10.124V31.044ZM36.788 28.92H11.228V28.056H36.788V28.92ZM11.348 28.8H36.668V28.176H11.348V28.8Z" fill="black"/>
<path d="M14.048 28.116H15.968V34.116H14.048V28.116Z" fill="white"/>
<path d="M16.0279 34.176H13.9879V28.056H16.0279V34.176ZM14.1079 34.056H15.9079V28.176H14.1079V34.056Z" fill="black"/>
<path d="M14.48 28.116H15.548V34.116H14.468L14.48 28.116ZM23 28.116H24.92V34.116H23V28.116Z" fill="white"/>
<path d="M24.98 34.176H22.94V28.056H24.98V34.176ZM23.06 34.056H24.86V28.176H23.06V34.056ZM15.608 34.176H14.408L14.42 28.056H15.608V34.176ZM14.528 34.056H15.488V28.176H14.54L14.528 34.056Z" fill="black"/>
<path d="M23.444 28.116H24.524V34.116H23.444V28.116ZM32.024 28.116H33.944V34.116H32.024V28.116Z" fill="white"/>
<path d="M34.0039 34.176H31.9639V28.056H34.0039V34.176ZM32.0839 34.056H33.8839V28.176H32.0839V34.056ZM24.5839 34.176H23.3839V28.056H24.5839V34.176ZM23.5039 34.056H24.4639V28.176H23.5039V34.056Z" fill="black"/>
<path d="M32.4441 28.116H33.5241V34.116H32.4441V28.116Z" fill="white"/>
<path d="M33.584 34.176H32.384V28.056H33.584V34.176ZM32.504 34.056H33.464V28.176H32.504V34.056Z" fill="black"/>
<path d="M33.5359 33.42H32.4319V33.3H33.5359V33.42ZM24.4879 33.42H23.4559V33.3H24.4879V33.42ZM15.5599 33.42H14.4559V33.3H15.5599V33.42ZM33.5359 32.664H32.4319V32.544H33.5359V32.664ZM24.4879 32.664H23.4559V32.544H24.4879V32.664ZM15.5599 32.664H14.4559V32.544H15.5599V32.664ZM33.5359 31.92H32.4319V31.8H33.5359V31.92ZM24.4879 31.92H23.4559V31.8H24.4879V31.92ZM15.5599 31.92H14.4559V31.8H15.5599V31.92ZM33.5359 31.164H32.4319V31.044H33.5359V31.164ZM24.4879 31.164H23.4559V31.044H24.4879V31.164ZM15.5599 31.164H14.4559V31.044H15.5599V31.164ZM33.5359 30.42H32.4319V30.3H33.5359V30.42ZM24.4879 30.42H23.4559V30.3H24.4879V30.42ZM15.5599 30.42H14.4559V30.3H15.5599V30.42ZM33.5359 29.664H32.4319V29.544H33.5359V29.664ZM24.4879 29.664H23.4559V29.544H24.4879V29.664ZM15.5599 29.664H14.4559V29.544H15.5599V29.664ZM33.5359 28.92H32.4319V28.8H33.5359V28.92ZM24.4879 28.92H23.4559V28.8H24.4879V28.92ZM15.5599 28.92H14.4559V28.8H15.5599V28.92ZM35.5999 27.564H12.4399V27.444H35.5999V27.564Z" fill="black"/>
</g>
</g>
</g>
<defs>
<clipPath id="clip0_154_54463">
<rect width="48" height="48" fill="white"/>
</clipPath>
<clipPath id="clip1_154_54463">
<rect width="64" height="48" fill="white" transform="translate(-8)"/>
</clipPath>
</defs>
</svg>
