<svg width="48" height="48" viewBox="0 0 48 48" fill="none" xmlns="http://www.w3.org/2000/svg">
<g clip-path="url(#clip0_154_54460)">
<mask id="mask0_154_54460" style="mask-type:alpha" maskUnits="userSpaceOnUse" x="0" y="0" width="48" height="48">
<circle cx="24" cy="24" r="24" fill="#D9D9D9"/>
</mask>
<g mask="url(#mask0_154_54460)">
<g clip-path="url(#clip1_154_54460)">
<mask id="mask1_154_54460" style="mask-type:luminance" maskUnits="userSpaceOnUse" x="-8" y="0" width="65" height="48">
<path d="M-7.9906 0H56.0032V48H-7.9906V0Z" fill="white"/>
</mask>
<g mask="url(#mask1_154_54460)">
<path fill-rule="evenodd" clip-rule="evenodd" d="M-15.3031 0H63.0531V28.7344H-15.3031V0Z" fill="#E73E2D"/>
<path fill-rule="evenodd" clip-rule="evenodd" d="M19.2531 26.4469C17.4344 25.0219 14.0406 25.5094 13.4781 21.6375C16.075 23.6531 15.6063 21.525 19.4781 23.4469L19.2531 26.4469Z" fill="#FEC74A" stroke="#D8AA3F" stroke-width="1.59375"/>
<path fill-rule="evenodd" clip-rule="evenodd" d="M19.7405 24.6937C18.4374 22.7812 15.053 22.2 15.7093 18.3469C17.5749 21.0562 17.7718 18.8812 20.8843 21.9L19.7405 24.6937Z" fill="#FEC74A" stroke="#D8AA3F" stroke-width="1.59375"/>
<path fill-rule="evenodd" clip-rule="evenodd" d="M20.3312 23.4375C19.8625 21.1781 16.9562 19.35 19.0375 16.0312C19.7125 19.2563 20.725 17.325 22.45 21.3L20.3312 23.4375Z" fill="#FEC74A" stroke="#D8AA3F" stroke-width="1.59375"/>
<path fill-rule="evenodd" clip-rule="evenodd" d="M21.6907 22.275C21.9438 19.9781 19.7406 17.3437 22.7313 14.8312C22.3938 18.1031 23.95 16.5844 24.3719 20.8875L21.6907 22.275Z" fill="#FEC74A" stroke="#D8AA3F" stroke-width="1.59375"/>
<path fill-rule="evenodd" clip-rule="evenodd" d="M22.9093 21.3469C24.0718 19.35 23.1437 16.05 26.9031 14.9813C25.2531 17.8219 27.2968 17.0719 25.9187 21.1688L22.9093 21.3469Z" fill="#FEC74A" stroke="#D8AA3F" stroke-width="1.59375"/>
<path fill-rule="evenodd" clip-rule="evenodd" d="M24.6625 21.5906C26.4062 20.0719 26.575 16.6406 30.475 16.8188C28.0094 18.9938 30.1937 18.9281 27.5687 22.3875L24.6625 21.5906Z" fill="#FEC74A" stroke="#D8AA3F" stroke-width="1.59375"/>
<path fill-rule="evenodd" clip-rule="evenodd" d="M26.2188 22.4906C28.3281 21.5437 29.4906 18.3187 33.1656 19.6312C30.1656 20.9906 32.275 21.5719 28.7594 24.1031L26.2188 22.4906Z" fill="#FEC74A" stroke="#D8AA3F" stroke-width="1.59375"/>
<path fill-rule="evenodd" clip-rule="evenodd" d="M27.5219 23.9062C29.8094 23.5875 31.8344 20.8125 34.9937 23.1187C31.7406 23.5781 33.5875 24.7219 29.5094 26.1656L27.5219 23.8969V23.9062Z" fill="#FEC74A" stroke="#D8AA3F" stroke-width="1.59375"/>
<path fill-rule="evenodd" clip-rule="evenodd" d="M35.6781 24.3375L25.1687 24.5719L25.6093 27.4031L35.6781 24.3375Z" fill="#FEC74A" stroke="#D8AA3F" stroke-width="1.59375"/>
<path fill-rule="evenodd" clip-rule="evenodd" d="M34.1313 20.475L24.4 24.2156L26.0219 27.3375L34.1313 20.475Z" fill="#FEC74A" stroke="#D8AA3F" stroke-width="1.59375"/>
<path fill-rule="evenodd" clip-rule="evenodd" d="M26.4062 26.3156L31.4406 17.1656L23.7156 24.3563L26.4062 26.3156Z" fill="#FEC74A" stroke="#D8AA3F" stroke-width="1.59375"/>
<path fill-rule="evenodd" clip-rule="evenodd" d="M26.3031 25.5562L27.9156 15.3L22.8718 24.4125L26.3031 25.5562Z" fill="#FEC74A" stroke="#D8AA3F" stroke-width="1.59375"/>
<path fill-rule="evenodd" clip-rule="evenodd" d="M25.6937 24.7219L24.0062 14.3906L22.1312 24.7688L25.6937 24.7219Z" fill="#FEC74A" stroke="#D8AA3F" stroke-width="1.59375"/>
<path fill-rule="evenodd" clip-rule="evenodd" d="M24.8218 23.8406L19.9187 15.2156L21.7937 25.6969L24.8218 23.8406Z" fill="#FEC74A" stroke="#D8AA3F" stroke-width="1.59375"/>
<path fill-rule="evenodd" clip-rule="evenodd" d="M24.0625 23.775L16.4594 17.3531L21.8594 26.5406L24.0625 23.775Z" fill="#FEC74A" stroke="#D8AA3F" stroke-width="1.59375"/>
<path fill-rule="evenodd" clip-rule="evenodd" d="M13.7875 20.5219L21.9437 27.2625L23.2 23.7375L13.7875 20.5219Z" fill="#FEC74A" stroke="#D8AA3F" stroke-width="1.59375"/>
<path fill-rule="evenodd" clip-rule="evenodd" d="M21.8593 24.4594L12.2687 24.3187L21.8218 27.5062L21.8593 24.4594Z" fill="#FEC74A" stroke="#D8AA3F" stroke-width="1.59375"/>
<path fill-rule="evenodd" clip-rule="evenodd" d="M29.6406 26.175C29.6719 26.9498 29.5463 27.723 29.2714 28.4481C28.9964 29.1732 28.5778 29.8353 28.0407 30.3946C27.5035 30.9539 26.8588 31.3989 26.1454 31.7028C25.432 32.0068 24.6645 32.1635 23.8891 32.1635C23.1136 32.1635 22.3461 32.0068 21.6327 31.7028C20.9193 31.3989 20.2746 30.9539 19.7375 30.3946C19.2003 29.8353 18.7817 29.1732 18.5067 28.4481C18.2318 27.723 18.1062 26.9498 18.1375 26.175C18.1975 24.6898 18.8297 23.2853 19.9017 22.2557C20.9738 21.226 22.4026 20.651 23.8891 20.651C25.3755 20.651 26.8043 21.226 27.8764 22.2557C28.9485 23.2853 29.5807 24.6898 29.6406 26.175Z" fill="#FEC74A" stroke="#D8AA3F" stroke-width="1.59375"/>
<path fill-rule="evenodd" clip-rule="evenodd" d="M-15.3782 28.4437H63.3624V48H-15.3876L-15.3782 28.4437Z" fill="#005989"/>
<path fill-rule="evenodd" clip-rule="evenodd" d="M-15.425 42.5625C-13.9625 43.2375 -11.8625 44.9344 -9.61252 44.9344C-5.86252 44.9063 -5.76877 42.3656 -1.96252 42.4875C1.8531 42.5813 1.15935 45.2625 6.30622 45.2531C10.5625 45.2344 11.9312 42 15.6062 42.3844C18.325 42.2438 19.4312 45.45 23.6031 45.4969C27.9344 45.5906 29.5187 42 32.2281 42.3C35.1344 42.3 36.0718 45.1875 40.1312 45.2063C45.3062 45.2344 46.2156 42.2063 49.4406 42.3938C51.7468 42.3469 53.5656 44.6156 56.9406 44.6719C59.6218 44.7188 61.8812 42.6844 63.4093 41.9531L63.475 38.5031C61.8812 39.0938 59.5 41.0438 57.1281 41.0625C53.6968 41.1938 51.5875 38.8125 49.2062 38.8406C46.3562 38.8688 45.2218 41.775 40.3937 41.775C35.9687 41.775 34.9562 38.8406 32.1062 38.8406C29.3218 38.8594 28.4687 42.0281 23.6406 41.9719C19.7031 41.925 18.175 38.9438 15.3906 38.9719C12.4375 38.9719 9.3906 41.8688 6.10935 41.7281C1.60935 41.5406 0.624977 38.9719 -2.32815 38.9719C-4.53127 38.9719 -6.9219 41.3719 -9.57502 41.4094C-12.2188 41.4563 -15.1906 39.0188 -15.4625 38.9719L-15.425 42.5625ZM-15.425 35.7188C-13.9625 36.4031 -11.8625 38.1 -9.61252 38.1C-5.86252 38.0719 -5.76877 35.5313 -1.96252 35.6438C1.8531 35.7375 1.15935 38.4281 6.30622 38.4094C10.5625 38.4094 11.9312 35.1656 15.6062 35.55C18.325 35.4094 19.4312 38.6156 23.6031 38.6531C27.9344 38.7469 29.5187 35.1656 32.2281 35.4656C35.1344 35.4656 36.0718 38.3531 40.1312 38.3719C45.3062 38.4 46.2156 35.3719 49.4406 35.5594C51.7468 35.5125 53.5656 37.7813 56.9406 37.8375C59.6218 37.8844 61.8812 35.85 63.4093 35.1188L63.475 31.6688C61.8812 32.2594 59.5 34.2 57.1281 34.2281C53.6968 34.35 51.5875 31.9781 49.2062 32.0063C46.3562 32.0344 45.2218 34.9406 40.3937 34.9406C35.9687 34.9406 34.9562 32.0063 32.1062 32.0063C29.3218 32.025 28.4687 35.1938 23.6406 35.1375C19.7031 35.0906 18.175 32.1094 15.3906 32.1375C12.4375 32.1375 9.3906 35.025 6.10935 34.8844C1.60935 34.6969 0.624977 32.1281 -2.32815 32.1281C-4.53127 32.1281 -6.9219 34.5375 -9.57502 34.575C-12.2188 34.6125 -15.1906 32.1844 -15.4625 32.1375L-15.425 35.7281V35.7188Z" fill="white"/>
<path fill-rule="evenodd" clip-rule="evenodd" d="M-15.425 28.9688C-13.9625 29.6438 -11.8625 31.3313 -9.6219 31.3313C-5.8719 31.3125 -5.77815 28.7625 -1.9719 28.8844C1.83435 28.9781 1.1406 31.6594 6.28748 31.65C10.5344 31.6406 11.9125 28.3969 15.5687 28.7906C18.2875 28.65 19.3937 31.8563 23.5656 31.8938C27.8875 31.9875 29.4718 28.3969 32.1906 28.6969C35.0781 28.6969 36.0344 31.5844 40.0844 31.6031C45.2406 31.6313 46.15 28.6031 49.3844 28.7906C51.6812 28.7438 53.5 31.0125 56.8656 31.0688C59.5562 31.1156 61.8062 29.0813 63.3344 28.35L63.4 24.9C61.8062 25.5 59.4343 27.4406 57.0531 27.4594C53.6406 27.5906 51.5219 25.2188 49.1406 25.2375C46.3 25.2656 45.1656 28.1719 40.3281 28.1719C35.9218 28.1719 34.9094 25.2375 32.0593 25.2375C29.275 25.2656 28.4218 28.425 23.6125 28.3688C19.675 28.3219 18.1469 25.35 15.3625 25.3688C12.4093 25.3688 9.36248 28.2656 6.09998 28.125C1.5906 27.9375 0.615601 25.3688 -2.33752 25.3688C-4.54065 25.3688 -6.9219 27.7688 -9.57502 27.8063C-12.2188 27.8531 -15.1813 25.425 -15.4625 25.3688L-15.425 28.9594V28.9688Z" fill="white"/>
<path fill-rule="evenodd" clip-rule="evenodd" d="M12.9249 7.12502C18.6437 6.73127 17.6124 6.24377 19.9093 5.86877C22.8156 6.2719 23.1437 8.02502 24.7656 9.10315C24.7656 9.10315 24.1562 11.1656 22.1687 10.875C21.8968 10.05 23.1249 9.78752 19.5906 7.63127C17.5281 7.5094 13.8437 7.9969 12.9343 7.12502H12.9249ZM30.6718 10.3031L26.5468 10.4719V11.4938C29.3312 11.5875 29.8281 11.2125 30.6718 10.3031Z" fill="#FFC84B" stroke="#D8AA3F" stroke-width="1.6875"/>
<path fill-rule="evenodd" clip-rule="evenodd" d="M16.4874 10.125C17.2093 9.75937 17.5656 9.90937 18.1937 9.89062C18.6156 10.6687 19.0187 10.7344 19.9562 10.8281C20.371 11.4429 20.9271 11.9493 21.578 12.3049C22.2288 12.6605 22.9554 12.8549 23.6968 12.8719C26.4999 12.7969 27.3906 10.8375 29.2749 10.6219H31.2624C30.9343 10.0594 30.6718 9.73124 29.9499 9.69374C28.4687 9.61874 26.5562 9.65624 24.8874 10.0312L22.5343 10.6219C21.8406 10.2844 20.1624 8.52187 19.0843 8.55937C18.4562 8.72812 18.4562 8.94374 18.1468 9.18749C17.5374 9.44999 16.9281 9.31874 16.4874 10.125Z" fill="#FFC84B" stroke="#D8AA3F" stroke-width="1.59375" stroke-linejoin="round"/>
<path fill-rule="evenodd" clip-rule="evenodd" d="M19.3281 9.28123C19.3358 9.32442 19.334 9.36877 19.3227 9.41117C19.3114 9.45356 19.291 9.49297 19.2628 9.52661C19.2347 9.56025 19.1995 9.58731 19.1597 9.60587C19.12 9.62444 19.0767 9.63406 19.0328 9.63406C18.9889 9.63406 18.9456 9.62444 18.9058 9.60587C18.8661 9.58731 18.8309 9.56025 18.8027 9.52661C18.7746 9.49297 18.7541 9.45356 18.7429 9.41117C18.7316 9.36877 18.7298 9.32442 18.7375 9.28123C18.7499 9.21193 18.7862 9.14919 18.8402 9.10401C18.8942 9.05882 18.9624 9.03406 19.0328 9.03406C19.1032 9.03406 19.1714 9.05882 19.2253 9.10401C19.2793 9.14919 19.3157 9.21193 19.3281 9.28123Z" fill="#FFC84B" stroke="#D8AA3F" stroke-width="1.59375"/>
<path fill-rule="evenodd" clip-rule="evenodd" d="M21.2499 10.1063C25.4593 5.0344 29.1343 5.65315 33.9343 5.30627C34.0937 5.8969 34.0281 6.77815 31.7499 7.55627C28.6187 8.02502 23.0218 11.325 22.9937 11.325C21.9531 11.2688 21.2218 10.1813 21.2499 10.1063Z" fill="#FFC84B" stroke="#D8AA3F" stroke-width="1.6875"/>
<path d="M29.9031 6.79688L33.0062 6.9375M29.5656 7.3125L31.8249 7.5" stroke="#D9A43E" stroke-width="1.6875" stroke-linecap="round"/>
</g>
</g>
</g>
</g>
<defs>
<clipPath id="clip0_154_54460">
<rect width="48" height="48" fill="white"/>
</clipPath>
<clipPath id="clip1_154_54460">
<rect width="64" height="48" fill="white" transform="translate(-8)"/>
</clipPath>
</defs>
</svg>
