<svg width="48" height="48" viewBox="0 0 48 48" fill="none" xmlns="http://www.w3.org/2000/svg">
<g clip-path="url(#clip0_171_23366)">
<mask id="mask0_171_23366" style="mask-type:alpha" maskUnits="userSpaceOnUse" x="0" y="0" width="48" height="48">
<circle cx="24" cy="24" r="24" fill="#D9D9D9"/>
</mask>
<g mask="url(#mask0_171_23366)">
<g clip-path="url(#clip1_171_23366)">
<path fill-rule="evenodd" clip-rule="evenodd" d="M-8.00122 0.00250244H56.0113V48.0025H-8.00122V0.00250244Z" fill="white"/>
<path fill-rule="evenodd" clip-rule="evenodd" d="M-1.03894 14.6028L5.59262 4.60166L7.25948 5.70692L0.627913 15.708L-1.03894 14.6028ZM1.46134 16.2607L8.0929 6.25955L9.75976 7.36481L3.12819 17.3659L1.46134 16.2607ZM3.96162 17.9186L10.5932 7.91744L12.26 9.0227L5.62847 19.0238L3.96162 17.9186Z" fill="black"/>
<path fill-rule="evenodd" clip-rule="evenodd" d="M35.6318 38.9185L42.2634 28.9173L43.9303 30.0226L37.2987 40.0237L35.6318 38.9185ZM38.1321 40.5763L44.7637 30.5752L46.4305 31.6805L39.799 41.6816L38.1321 40.5763ZM40.6324 42.2342L47.264 32.2331L48.9308 33.3384L42.2993 43.3395L40.6324 42.2342Z" fill="black"/>
<path d="M37.8379 33.7818L38.3905 32.9484L41.3075 34.8826L40.7549 35.716L37.8379 33.7818ZM43.2552 37.3739L43.8078 36.5405L46.3081 38.1984L45.7554 39.0318L43.2552 37.3739Z" fill="white"/>
<path d="M41.3075 34.8826L40.7549 35.716L43.2552 37.3739L43.8078 36.5405L41.3075 34.8826Z" fill="white"/>
<path fill-rule="evenodd" clip-rule="evenodd" d="M13.9883 17.3575C17.6503 11.8666 25.139 10.3702 30.6299 14.0322C36.1208 17.6941 37.6172 25.1829 33.9552 30.6738L13.9883 17.3575Z" fill="#CD2E3A"/>
<path fill-rule="evenodd" clip-rule="evenodd" d="M13.9883 17.3575C10.3264 22.8484 11.8228 30.3371 17.3137 33.9991C22.8046 37.6611 30.2933 36.1647 33.9552 30.6738C35.7862 27.9283 35.038 24.184 32.2926 22.353C29.5471 20.522 25.8028 21.2702 23.9718 24.0156L13.9883 17.3575Z" fill="#0047A0"/>
<path d="M23.9718 24.0157C25.8104 21.2588 25.066 17.5335 22.3092 15.6949C19.5523 13.8563 15.827 14.6007 13.9884 17.3575C12.1498 20.1144 12.8942 23.8397 15.651 25.6783C18.4079 27.5169 22.1332 26.7725 23.9718 24.0157Z" fill="#CD2E3A"/>
<path fill-rule="evenodd" clip-rule="evenodd" d="M5.69751 43.4371L-0.960626 33.4537L0.703283 32.344L7.36142 42.3274L5.69751 43.4371ZM8.19337 41.7726L1.53524 31.7891L3.19915 30.6795L9.85728 40.6629L8.19337 41.7726ZM10.6892 40.1081L4.0311 30.1246L5.69501 29.0149L12.3531 38.9984L10.6892 40.1081Z" fill="black"/>
<path fill-rule="evenodd" clip-rule="evenodd" d="M42.3035 19.024L35.6453 9.04053L37.3092 7.93085L43.9674 17.9143L42.3035 19.024ZM44.7993 17.3595L38.1412 7.376L39.8051 6.26631L46.4632 16.2498L44.7993 17.3595ZM47.2952 15.6949L40.6371 5.71147L42.301 4.60178L48.9591 14.5852L47.2952 15.6949Z" fill="black"/>
<path d="M4.72571 37.4742L4.17086 36.6423L6.66673 34.9778L7.22157 35.8097L4.72571 37.4742ZM38.4199 15.003L37.865 14.1711L40.7769 12.2291L41.3317 13.0611L38.4199 15.003ZM43.8276 11.3965L43.2727 10.5646L45.7686 8.90006L46.3234 9.73201L43.8276 11.3965Z" fill="white"/>
</g>
</g>
</g>
<defs>
<clipPath id="clip0_171_23366">
<rect width="48" height="48" fill="white"/>
</clipPath>
<clipPath id="clip1_171_23366">
<rect width="64" height="48" fill="white" transform="translate(-8)"/>
</clipPath>
</defs>
</svg>
