<svg width="48" height="48" viewBox="0 0 48 48" fill="none" xmlns="http://www.w3.org/2000/svg">
<g clip-path="url(#clip0_191_23370)">
<mask id="mask0_191_23370" style="mask-type:alpha" maskUnits="userSpaceOnUse" x="0" y="0" width="48" height="48">
<circle cx="24" cy="24" r="24" fill="#D9D9D9"/>
</mask>
<g mask="url(#mask0_191_23370)">
<g clip-path="url(#clip1_191_23370)">
<path fill-rule="evenodd" clip-rule="evenodd" d="M-13 36H59V48H-13V36ZM-13 0H59V12H-13V0Z" fill="#EE161F"/>
<path fill-rule="evenodd" clip-rule="evenodd" d="M-13 12H59V36H-13V12Z" fill="white"/>
<path d="M22.6344 12.1875C21.9031 13.6406 21.4156 13.6406 20.1969 14.625C19.7094 15.1031 18.9781 15.3469 19.9531 15.8437C18.9687 16.3219 18.4812 16.5656 17.9937 17.5406L18.2375 17.7844C18.2375 17.7844 19.175 17.3344 19.2125 17.5406C19.3812 17.7375 17.9937 18.4781 17.8156 18.6L16.7844 19.2562C15.5562 20.2219 14.8156 19.9781 14.0937 21.4406L16.5312 21.1969C17.0187 22.9031 15.3125 23.1468 14.0937 23.8781L12.1344 25.0969C12.6312 26.8031 14.0937 25.8281 15.3125 25.3406L15.5562 25.5843V26.0719L13.1187 27.2906C13.1187 27.2906 10.2312 28.9406 10.1844 28.9968C10.1656 29.0906 10.1844 29.4844 10.1844 29.4844C11.1594 29.7281 12.6219 29.9718 13.6062 29.4844C14.825 28.9968 15.0687 28.5094 16.5312 28.5094C15.1236 29.6077 13.4331 30.2839 11.6562 30.4593V31.4343C13.1187 31.4343 14.0937 31.4344 15.3125 31.1906L18.4812 30.2156C19.2125 30.2156 19.9531 30.9468 19.7 31.6781C18.9781 34.3594 16.0437 33.8719 15.0687 36.0656L18.9687 34.5937C19.9437 34.1062 20.9187 33.6281 22.1375 33.8718C23.6 34.3594 23.6 35.3344 25.55 35.8218L25.0625 34.6031C25.55 34.8469 26.0375 34.8468 26.5344 35.0906C27.7531 35.5781 27.9969 36.0656 29.4594 35.8218C28.2406 34.3594 27.9969 34.6031 27.0219 33.6281C26.0469 32.1656 25.55 29.9719 27.0219 29.7281L28.7281 30.2156C30.4344 30.4593 30.4344 29.9719 32.8719 30.9469C34.3437 31.4344 34.8312 32.1656 36.5281 31.6781C35.8062 29.9718 33.125 28.7531 31.4094 28.2656C33.3687 27.0468 32.8719 28.7531 35.5625 28.0218V27.5344C33.6219 26.0625 32.8812 24.8437 30.2 24.8437L34.3531 24.3562V23.8687C34.3531 23.8687 30.2562 22.8 30.1625 22.7531C30.1906 22.6312 30.2937 22.4437 30.5656 22.3312C31.3437 22.8375 33.6875 22.7812 33.8281 22.7718C33.7531 22.1719 32.6375 21.675 31.6719 21.1875C31.6719 21.1875 27.4812 18.6094 27.4625 18.3844C27.5469 17.7281 29.1781 18.4875 30.9312 18.9937C30.4437 18.0187 29.4687 17.5312 28.4937 17.2875L29.9562 17.0437C28.9812 14.85 26.5437 15.0937 25.0812 14.1187C24.0969 13.3875 24.0969 12.9 22.6344 12.1781V12.1875Z" fill="#00A850"/>
<path fill-rule="evenodd" clip-rule="evenodd" d="M20 28.4062C20.1781 27.8344 20.4125 27.3187 19.325 26.8219C18.2375 26.325 19.8687 28.8 20 28.4156V28.4062ZM21.2843 27.2531C21.0687 27.2812 20.9468 28.0781 21.3875 28.3031C21.875 28.3781 21.4812 27.2625 21.2843 27.2531ZM22.5499 27.1594C22.3249 27.2344 22.3156 28.3594 23.1125 28.1531C23.9187 27.9562 23.1124 27.075 22.5499 27.1687V27.1594ZM24.0312 24.2812C24.2 24 24.0218 22.875 23.3375 23.3437C22.6437 23.8219 23.8062 24.3562 24.0312 24.2812ZM22.5312 23.3437C22.7468 23.2594 22.7656 22.5656 22.1562 22.7531C21.5656 22.9312 22.3718 23.4844 22.5312 23.3437ZM21.1812 23.6156C21.1812 23.6156 20.7593 23.0344 20.4312 23.1562C20.0281 23.55 21.2093 23.625 21.1812 23.6156ZM16.5312 25.4719C16.7093 25.4906 18.0312 25.2562 18.4906 24.7406C18.9499 24.225 16.1375 24.9562 16.1375 24.9656C16.1375 24.975 16.4 25.425 16.5312 25.4719ZM29.7593 22.1906C29.8249 22.0687 29.0562 21.525 28.5968 21.7406C28.4749 22.1437 29.7593 22.275 29.7593 22.1906ZM27.1531 20.8781C27.3031 20.6719 26.8249 19.8187 25.8687 20.2969C24.9124 20.7656 26.8718 21.2156 27.1531 20.8875V20.8781ZM24.1437 20.3812C24.1437 20.3812 24.3781 19.6125 24.9499 19.7625C25.6062 20.2594 24.1718 20.4094 24.1437 20.3812ZM23.5812 19.8C23.4875 19.5844 22.8968 19.7062 22.2125 20.1656C21.5187 20.6062 23.7875 20.2969 23.5812 19.7906V19.8ZM25.3343 17.7281C25.3343 17.7281 25.9437 17.4469 26.1312 17.7281C26.3843 18.1312 25.3249 17.7281 25.3343 17.7281ZM24.8187 17.4562C24.6968 17.2125 24.0218 17.1844 24.0406 17.55C23.9281 17.8312 24.9218 17.775 24.8187 17.4562ZM23.2062 17.4562C23.1406 17.3156 22.1749 17.4562 21.8937 18.0375C22.3624 18.2625 23.4218 17.8219 23.2062 17.4562ZM21.1437 18.0469C21.1437 18.0469 19.8874 18.825 19.8031 19.3875C19.8406 19.875 21.3781 18.5062 21.3781 18.5062C21.3781 18.5062 21.5093 17.9625 21.1531 18.0469H21.1437ZM19.7468 17.3437C19.7843 17.1844 20.375 16.8187 20.4218 16.8469C20.4687 17.0062 19.9437 17.4375 19.7468 17.3437ZM20.15 20.3062C20.1781 20.0719 18.65 20.0906 19.2218 20.7937C19.7093 21.3844 20.2531 20.4094 20.15 20.3062ZM18.7437 21.3094C18.6687 21.1594 18.5562 20.7469 18.35 20.7094C18.1718 20.7094 17.2531 20.8969 17.1781 21.0469C17.1406 21.1687 17.5625 21.9281 17.7031 21.9469C17.8718 22.0125 18.725 21.3844 18.7531 21.3094H18.7437ZM27.0312 26.4844C27.0781 26.3156 28.6531 25.7812 29.1874 26.2969C29.8249 27.1687 26.9937 26.7656 27.0312 26.4844ZM31.3437 27.5062C31.6906 26.925 30.2843 26.2312 29.6937 26.8969C29.8999 27.6937 31.0624 27.9844 31.3437 27.5062Z" fill="white"/>
<path fill-rule="evenodd" clip-rule="evenodd" d="M20.4237 16.6955C20.4394 16.6964 20.4686 16.6999 20.4991 16.7182C20.5314 16.7376 20.5552 16.7684 20.5658 16.8045C20.5847 16.8688 20.5706 16.9293 20.5546 16.9713C20.5378 17.0154 20.512 17.0572 20.4842 17.0945C20.4284 17.1695 20.3504 17.2448 20.2676 17.3089C20.1848 17.3729 20.0897 17.4314 19.9966 17.4678C19.9122 17.5007 19.7908 17.5307 19.6824 17.4792C19.6187 17.4488 19.5847 17.3781 19.6009 17.3094C19.6131 17.2576 19.6424 17.2138 19.6669 17.1827C19.6935 17.1489 19.7261 17.1156 19.7603 17.0843C19.8288 17.0215 19.9138 16.9573 19.9964 16.901C20.0793 16.8446 20.1636 16.7934 20.2323 16.7574C20.266 16.7397 20.2997 16.7237 20.3292 16.7128C20.3435 16.7076 20.362 16.7015 20.3819 16.6982C20.3919 16.6965 20.4066 16.6947 20.4237 16.6955ZM24.6976 17.1768C24.7951 17.2148 24.8991 17.2814 24.953 17.3891C24.9563 17.3959 24.9592 17.4029 24.9615 17.41C24.9868 17.4882 24.9792 17.5666 24.9422 17.6348C24.9078 17.6982 24.8538 17.7428 24.8015 17.7738C24.698 17.8354 24.5621 17.8671 24.4389 17.8776C24.3162 17.8879 24.1803 17.8794 24.0752 17.8387C24.0232 17.8186 23.9611 17.7838 23.9205 17.7219C23.881 17.6615 23.8733 17.5929 23.8904 17.5277C23.8926 17.396 23.9557 17.2925 24.0496 17.225C24.1436 17.1575 24.2616 17.1296 24.3702 17.1247C24.4805 17.1198 24.5967 17.1376 24.6976 17.1768ZM24.2248 17.4686C24.2006 17.486 24.1886 17.5054 24.1905 17.5423C24.1908 17.5487 24.1907 17.5551 24.1902 17.5614C24.2378 17.5777 24.3194 17.5866 24.4136 17.5786C24.5118 17.5703 24.598 17.5458 24.6483 17.5159C24.6569 17.5108 24.6633 17.5062 24.6679 17.5025C24.653 17.4886 24.6281 17.4717 24.5887 17.4564C24.5293 17.4333 24.4551 17.4212 24.3838 17.4244C24.3108 17.4277 24.2559 17.4462 24.2248 17.4686ZM23.3383 17.3848C23.2982 17.3082 23.2196 17.2818 23.1797 17.2716C23.1282 17.2585 23.069 17.2546 23.0095 17.256C22.8889 17.2589 22.7391 17.2845 22.5856 17.3332C22.2841 17.4287 21.9256 17.6274 21.7588 17.9721C21.7414 18.008 21.739 18.0493 21.7522 18.087C21.7654 18.1246 21.793 18.1554 21.8289 18.1727C21.9803 18.2454 22.1652 18.259 22.3411 18.2423C22.5196 18.2254 22.7045 18.1757 22.866 18.1061C23.0252 18.0375 23.1751 17.9438 23.2721 17.8304C23.3212 17.773 23.3624 17.7039 23.3782 17.6246C23.3943 17.5434 23.3816 17.4608 23.3383 17.3848ZM22.135 17.9456C22.1888 17.9503 22.2484 17.9498 22.3128 17.9437C22.458 17.9299 22.6124 17.8887 22.7473 17.8306C22.8847 17.7714 22.9885 17.7004 23.0441 17.6354C23.0713 17.6036 23.0811 17.5801 23.0839 17.5662C23.0844 17.5636 23.0848 17.5611 23.0849 17.5586C23.0685 17.5566 23.0459 17.5552 23.0167 17.5559C22.929 17.558 22.8075 17.5775 22.6762 17.6191C22.4724 17.6837 22.2704 17.793 22.135 17.9456ZM23.1138 17.5651C23.1137 17.5651 23.1123 17.5647 23.11 17.5636C23.1128 17.5644 23.114 17.565 23.1138 17.5651ZM25.9511 17.4613C26.0615 17.4787 26.1789 17.5292 26.2561 17.6449C26.2569 17.646 26.2576 17.6472 26.2583 17.6483C26.2946 17.7062 26.3317 17.7847 26.3172 17.8692C26.2992 17.9743 26.2172 18.0235 26.155 18.0419C26.0966 18.0593 26.0317 18.0592 25.976 18.0548C25.9174 18.0501 25.8542 18.0393 25.7924 18.0259C25.6688 17.999 25.5394 17.9593 25.4429 17.927C25.3944 17.9108 25.3532 17.896 25.3242 17.8853C25.3097 17.8799 25.2978 17.8753 25.2892 17.8719C25.2852 17.8703 25.2807 17.8685 25.2767 17.8667C25.2755 17.8663 25.2706 17.8641 25.2651 17.8612C25.2634 17.8603 25.2605 17.8588 25.2569 17.8566C25.2546 17.8552 25.2459 17.8499 25.2361 17.8415C25.2305 17.8363 25.2165 17.821 25.2089 17.8103C25.1972 17.7888 25.1845 17.7225 25.1923 17.6799C25.2087 17.6483 25.246 17.6128 25.2729 17.5947C25.2716 17.5919 25.2716 17.5919 25.2716 17.5919L25.2719 17.5917L25.2725 17.5915L25.2744 17.5906C25.2759 17.5899 25.2781 17.589 25.2807 17.5878C25.286 17.5854 25.2935 17.5822 25.303 17.5782C25.3218 17.5703 25.3485 17.5596 25.381 17.5477C25.4455 17.5241 25.5353 17.4951 25.6331 17.4755C25.7294 17.4563 25.8428 17.4442 25.9511 17.4613ZM21.524 18.5413C21.524 18.5414 21.524 18.5414 21.3782 18.5062C21.4779 18.6183 21.4779 18.6183 21.4779 18.6183L21.4766 18.6194L21.4732 18.6225C21.4701 18.6252 21.4657 18.6291 21.4599 18.6341C21.4484 18.6443 21.4316 18.659 21.4102 18.6775C21.3675 18.7144 21.3066 18.7666 21.2334 18.8277C21.0874 18.9495 20.8911 19.1078 20.6926 19.2512C20.4973 19.3924 20.2887 19.5275 20.1208 19.5947C20.0416 19.6264 19.9432 19.6551 19.8519 19.6366C19.8005 19.6262 19.7485 19.6001 19.7096 19.5513C19.6723 19.5043 19.6575 19.4494 19.6536 19.399C19.6527 19.3877 19.6532 19.3764 19.6548 19.3652C19.6824 19.1818 19.7997 19.001 19.9341 18.8434C20.0719 18.6817 20.2445 18.5253 20.4103 18.39C20.5768 18.2542 20.74 18.1368 20.8613 18.0535C20.9221 18.0118 20.9726 17.9785 21.0081 17.9555C21.0258 17.944 21.0398 17.9351 21.0494 17.929C21.0543 17.9259 21.058 17.9236 21.0606 17.922L21.0636 17.9201L21.0647 17.9194C21.0647 17.9194 21.0648 17.9193 21.1438 18.0468L21.0648 17.9193C21.0864 17.906 21.1109 17.8983 21.1362 17.897C21.2546 17.8733 21.366 17.8955 21.4465 17.9788C21.52 18.0548 21.5417 18.1568 21.5486 18.2309C21.556 18.3096 21.5492 18.3876 21.5418 18.4427C21.5379 18.471 21.5337 18.4949 21.5303 18.512C21.5286 18.5205 21.5271 18.5275 21.526 18.5325C21.5255 18.535 21.525 18.537 21.5247 18.5385L21.5242 18.5403L21.5241 18.541L21.524 18.5412L21.524 18.5413ZM21.1967 18.1909C21.1895 18.1954 21.181 18.2009 21.1712 18.2072C21.1377 18.229 21.0894 18.2609 21.0311 18.3009C20.9142 18.3811 20.7581 18.4934 20.6 18.6224C20.4412 18.752 20.2838 18.8956 20.1624 19.038C20.0694 19.1471 20.0061 19.2456 19.9738 19.3292C19.9842 19.3258 19.996 19.3215 20.0094 19.3162C20.1403 19.2638 20.3231 19.1481 20.5169 19.0081C20.7075 18.8703 20.8979 18.7169 21.0413 18.5973C21.1128 18.5376 21.1723 18.4867 21.2138 18.4507C21.2239 18.442 21.2329 18.4342 21.2408 18.4273C21.242 18.4197 21.2433 18.4114 21.2445 18.4024C21.2505 18.3583 21.2543 18.3055 21.2499 18.2589C21.2457 18.2134 21.2355 18.194 21.2318 18.1886C21.2282 18.188 21.2175 18.1868 21.1967 18.1909ZM21.3782 18.5062L21.4779 18.6183C21.5007 18.598 21.5168 18.571 21.524 18.5413L21.3782 18.5062ZM23.6862 19.6834C23.6269 19.6032 23.5338 19.5661 23.4461 19.5531C23.3397 19.5374 23.2143 19.5512 23.0822 19.5841C22.8161 19.6503 22.4819 19.8043 22.1305 20.04C22.0829 20.0704 22.0413 20.1016 22.0091 20.1342C21.9795 20.1642 21.9415 20.2116 21.9322 20.2752C21.9207 20.3545 21.9584 20.4181 22.0059 20.4556C22.0459 20.4873 22.0933 20.5023 22.13 20.5105C22.2063 20.5275 22.3037 20.5296 22.4038 20.5238C22.5067 20.5179 22.623 20.503 22.7418 20.4806C22.9771 20.4363 23.2364 20.3603 23.4281 20.2567C23.5228 20.2056 23.6143 20.1408 23.6744 20.0586C23.7394 19.9696 23.7695 19.855 23.7202 19.734C23.7123 19.7145 23.7006 19.6974 23.6862 19.6834ZM23.4435 19.8617C23.4383 19.8586 23.4264 19.8535 23.4022 19.8499C23.35 19.8422 23.2674 19.8472 23.1546 19.8752C22.9544 19.925 22.6904 20.0397 22.3985 20.2236C22.4838 20.218 22.5828 20.2053 22.6864 20.1858C22.9058 20.1445 23.1317 20.0758 23.2856 19.9927C23.3638 19.9505 23.4103 19.9115 23.4321 19.8817C23.4386 19.8728 23.442 19.8665 23.4435 19.8617ZM22.2172 20.3511C22.2172 20.3511 22.2175 20.3506 22.2183 20.3496C22.2177 20.3506 22.2172 20.3511 22.2172 20.3511ZM24.1438 20.3812L24.0003 20.3375C23.9842 20.3905 23.9985 20.4481 24.0377 20.4873C24.0643 20.5139 24.0936 20.5231 24.1007 20.5254L24.1009 20.5254C24.1124 20.5291 24.1224 20.5308 24.1283 20.5317C24.1404 20.5335 24.1521 20.5341 24.1606 20.5343C24.1786 20.5348 24.1999 20.5341 24.2222 20.5328C24.2676 20.5302 24.3275 20.5242 24.3946 20.5148C24.5281 20.4962 24.6998 20.4629 24.8522 20.4106C24.9284 20.3845 25.0044 20.352 25.0698 20.3115C25.1334 20.272 25.1995 20.2172 25.2385 20.1409C25.2815 20.0566 25.2831 19.962 25.2415 19.8706C25.2033 19.7869 25.132 19.7121 25.0406 19.6429C25.0249 19.631 25.0071 19.6224 24.9881 19.6174C24.6165 19.5199 24.3592 19.73 24.2125 19.9256C24.1385 20.0242 24.086 20.1264 24.0522 20.2027C24.0352 20.2411 24.0225 20.2738 24.014 20.2973C24.0097 20.3091 24.0065 20.3186 24.0042 20.3254C24.0031 20.3288 24.0022 20.3315 24.0015 20.3336L24.0007 20.3361L24.0005 20.3369L24.0004 20.3374C24.0003 20.3374 24.0003 20.3375 24.1438 20.3812ZM24.4525 20.1056C24.4258 20.1411 24.4024 20.1779 24.3822 20.2135C24.4993 20.1959 24.6371 20.1673 24.7549 20.1268C24.8188 20.1049 24.8721 20.0811 24.9117 20.0565C24.9531 20.0309 24.9676 20.0117 24.9713 20.0045C24.9714 20.0043 24.9715 20.004 24.9716 20.0039C24.9713 20.0024 24.9705 19.9996 24.9685 19.9951C24.9607 19.978 24.9385 19.946 24.8836 19.9011C24.6978 19.8646 24.5605 19.9616 24.4525 20.1056ZM27.2975 20.9285C27.2916 20.9492 27.2813 20.9685 27.2671 20.9851C27.2009 21.0623 27.1018 21.1009 27.0118 21.1217C26.9174 21.1435 26.8085 21.1513 26.6969 21.1495C26.4736 21.1459 26.2176 21.1033 26.0011 21.0338C25.8928 20.9991 25.7898 20.9562 25.7041 20.9051C25.6215 20.8559 25.5391 20.79 25.4935 20.7023C25.4411 20.6017 25.4458 20.4888 25.5128 20.3875C25.5719 20.2982 25.674 20.2254 25.8023 20.1624C26.3286 19.8995 26.751 19.9951 27.0205 20.2145C27.1508 20.3205 27.2422 20.4531 27.2904 20.5796C27.3145 20.6429 27.3294 20.7088 27.3303 20.7722C27.3309 20.8217 27.3231 20.8773 27.2975 20.9285ZM26.8311 20.4472C26.6602 20.308 26.3655 20.2162 25.9359 20.431L25.9348 20.4315C25.8243 20.4857 25.7786 20.5294 25.763 20.553C25.7571 20.562 25.7575 20.5622 25.7585 20.5628C25.7589 20.563 25.7593 20.5632 25.7596 20.5638C25.7675 20.579 25.794 20.6095 25.8575 20.6473C25.9179 20.6833 25.9984 20.7179 26.0927 20.7482C26.2817 20.8088 26.5085 20.8464 26.7018 20.8496C26.7985 20.8511 26.8813 20.8439 26.9442 20.8294C26.9859 20.8198 27.0108 20.8087 27.0247 20.8006C27.0261 20.7984 27.0275 20.7962 27.0289 20.794C27.0295 20.7917 27.0304 20.7861 27.0303 20.7764C27.03 20.7556 27.0247 20.7247 27.0101 20.6864C26.9809 20.6099 26.9212 20.5205 26.8311 20.4472ZM20.2977 20.2642C20.2825 20.1751 20.209 20.1223 20.1662 20.0991C20.1066 20.0669 20.0323 20.0477 19.9595 20.0364C19.8112 20.0134 19.6226 20.0163 19.4518 20.0515C19.29 20.0849 19.1004 20.1562 19.0035 20.3068C18.9509 20.3885 18.9313 20.4854 18.9515 20.5897C18.9708 20.6896 19.0248 20.7891 19.1056 20.8884L19.1062 20.8892C19.2516 21.0653 19.4216 21.1457 19.5997 21.1307C19.7673 21.1165 19.9089 21.0201 20.0132 20.9165C20.1192 20.8112 20.2027 20.6827 20.2536 20.5712C20.2788 20.5158 20.2988 20.4586 20.3077 20.4059C20.3121 20.3798 20.3148 20.3488 20.3108 20.3168C20.309 20.3022 20.3054 20.2838 20.2977 20.2642ZM19.3379 20.6986C19.276 20.6223 19.2528 20.5676 19.246 20.5329C19.2402 20.5025 19.2459 20.4844 19.2558 20.4691C19.2837 20.4258 19.3672 20.3752 19.5124 20.3453C19.6486 20.3173 19.801 20.3154 19.9135 20.3329C19.9576 20.3397 19.989 20.3485 20.0086 20.3563C20.0093 20.3581 20.01 20.36 20.0108 20.3619C20.0069 20.3805 19.9976 20.4095 19.9806 20.4467C19.9433 20.5286 19.8797 20.6263 19.8017 20.7037C19.722 20.7829 19.6428 20.826 19.5745 20.8318C19.5168 20.8366 19.4362 20.8175 19.3379 20.6986ZM20.0297 20.3667C20.0297 20.3667 20.0292 20.3664 20.0283 20.3658C20.0293 20.3664 20.0297 20.3667 20.0297 20.3667ZM18.0762 20.5933C18.1876 20.5735 18.2906 20.5593 18.35 20.5593C18.359 20.5593 18.368 20.5602 18.3769 20.5618C18.4746 20.5795 18.5482 20.6391 18.6007 20.6987C18.6536 20.759 18.6961 20.8317 18.7303 20.9001C18.7649 20.9692 18.7944 21.041 18.8188 21.1015C18.822 21.1096 18.8251 21.1174 18.8282 21.1248C18.8409 21.1565 18.8516 21.1831 18.861 21.205C18.8666 21.2108 18.8718 21.2171 18.8765 21.2239C18.9045 21.2643 18.9109 21.316 18.8936 21.362C18.881 21.3956 18.8583 21.4209 18.8505 21.4295L18.8501 21.4299C18.8378 21.4436 18.8233 21.4577 18.8084 21.4714C18.7783 21.4991 18.7388 21.5321 18.694 21.5675C18.604 21.6386 18.4861 21.7245 18.364 21.8057C18.2425 21.8865 18.1129 21.9653 18.0003 22.0203C17.9443 22.0476 17.8879 22.0713 17.8359 22.0858C17.7957 22.0971 17.7298 22.1114 17.6649 22.0922C17.6067 22.0786 17.5619 22.0408 17.5375 22.0185C17.5037 21.9876 17.47 21.9486 17.438 21.9074C17.3735 21.8243 17.3049 21.7173 17.2436 21.6099C17.1822 21.5022 17.1254 21.3894 17.0859 21.2933C17.0663 21.2457 17.0494 21.1986 17.0388 21.1566C17.0335 21.1355 17.0289 21.1127 17.0269 21.0898C17.0251 21.0689 17.0243 21.0368 17.0348 21.0027C17.0372 20.9948 17.0403 20.9872 17.044 20.9798C17.0739 20.92 17.1294 20.8822 17.1659 20.8605C17.2086 20.835 17.26 20.8119 17.3135 20.791C17.4213 20.7491 17.5555 20.7099 17.6889 20.6764C17.8231 20.6427 17.9604 20.6138 18.0762 20.5933ZM18.6297 21.2261C18.6298 21.2261 18.6292 21.2269 18.6277 21.2286C18.6289 21.227 18.6296 21.2261 18.6297 21.2261ZM18.5684 21.2829C18.5621 21.2674 18.5558 21.2517 18.5496 21.2362C18.5465 21.2286 18.5435 21.2211 18.5405 21.2136C18.5163 21.1535 18.4907 21.0916 18.462 21.0342C18.4329 20.976 18.4039 20.9293 18.3754 20.8969C18.3556 20.8744 18.341 20.8644 18.332 20.8601C18.2943 20.8626 18.2236 20.8718 18.1285 20.8887C18.0195 20.908 17.8891 20.9354 17.762 20.9673C17.6341 20.9994 17.5134 21.0352 17.4222 21.0706C17.3869 21.0844 17.3585 21.0971 17.337 21.1084C17.3433 21.1279 17.352 21.1516 17.3633 21.1792C17.3967 21.2604 17.4472 21.3614 17.5042 21.4612C17.5612 21.5611 17.6221 21.6552 17.6751 21.7235C17.7018 21.758 17.7238 21.7824 17.7399 21.7971C17.7411 21.7981 17.7421 21.7991 17.7431 21.7999C17.7463 21.7992 17.7504 21.7983 17.7552 21.7969C17.7824 21.7893 17.8205 21.7742 17.8687 21.7507C17.9643 21.704 18.0814 21.6333 18.1978 21.5559C18.3136 21.4789 18.4248 21.3978 18.508 21.3321C18.5308 21.3141 18.5511 21.2976 18.5684 21.2829ZM17.7325 21.8017C17.7325 21.8017 17.7326 21.8016 17.7329 21.8016L17.7325 21.8017ZM17.7531 21.8078C17.7531 21.8078 17.7526 21.8075 17.7517 21.8069C17.7526 21.8074 17.7531 21.8077 17.7531 21.8078ZM17.3258 21.0639C17.3257 21.0629 17.3258 21.063 17.3258 21.0642C17.3258 21.0641 17.3258 21.064 17.3258 21.0639ZM29.902 22.2387C29.9333 22.1556 29.8932 22.0793 29.8758 22.0504C29.8499 22.007 29.812 21.9655 29.7719 21.9284C29.6902 21.8528 29.5741 21.7728 29.4437 21.7057C29.313 21.6384 29.161 21.5806 29.0062 21.5548C28.8522 21.5292 28.6846 21.5337 28.5332 21.6048C28.4947 21.6229 28.4657 21.6565 28.4533 21.6972C28.4258 21.7884 28.4386 21.8765 28.4809 21.9523C28.5205 22.0232 28.5821 22.0772 28.6449 22.1183C28.7699 22.2002 28.939 22.2566 29.0978 22.2943C29.2594 22.3327 29.4249 22.3551 29.5521 22.3623C29.6149 22.3659 29.6738 22.3661 29.7203 22.3612C29.742 22.3589 29.7709 22.3545 29.7985 22.344C29.8119 22.3389 29.8349 22.3287 29.8568 22.3087C29.8734 22.2936 29.892 22.27 29.902 22.2387ZM28.7777 21.8442C28.7863 21.8514 28.7968 21.8592 28.8094 21.8674C28.8909 21.9208 29.0201 21.9675 29.1671 22.0025C29.2608 22.0247 29.356 22.0409 29.4413 22.0512C29.4009 22.0245 29.3554 21.9976 29.3064 21.9724C29.1957 21.9154 29.0735 21.8702 28.957 21.8508C28.8918 21.8399 28.8316 21.8377 28.7777 21.8442ZM29.6211 22.2096C29.621 22.2095 29.6201 22.2081 29.619 22.2054C29.6207 22.2083 29.6213 22.2097 29.6211 22.2096ZM22.608 23.4737C22.7099 23.4236 22.7663 23.3204 22.7928 23.2332C22.8231 23.1339 22.8281 23.016 22.7977 22.9064C22.7668 22.7948 22.696 22.6831 22.569 22.6201C22.4433 22.5577 22.2881 22.5557 22.1126 22.6096C21.9432 22.6608 21.8049 22.7615 21.7936 22.9303C21.784 23.0742 21.877 23.1971 21.9582 23.2757C22.0464 23.3611 22.1605 23.4334 22.2676 23.4754C22.321 23.4964 22.3795 23.5126 22.4369 23.5158C22.4848 23.5185 22.5504 23.5128 22.608 23.4737ZM22.4356 22.8888C22.4002 22.8712 22.3294 22.8568 22.2004 22.8965L22.1996 22.8967C22.1389 22.915 22.1103 22.9342 22.0987 22.945C22.0954 22.9481 22.0937 22.9502 22.093 22.9513C22.0935 22.9596 22.1036 22.9989 22.1669 23.0602C22.2264 23.1178 22.3068 23.1685 22.3772 23.1962C22.4117 23.2097 22.4372 23.2151 22.4523 23.2162C22.4598 23.2116 22.4676 23.2076 22.4757 23.2044C22.4752 23.2046 22.4749 23.2047 22.4748 23.2047C22.4745 23.2042 22.4917 23.1924 22.5059 23.1457C22.5207 23.0971 22.5228 23.0375 22.5086 22.9865C22.495 22.9375 22.4698 22.9057 22.4356 22.8888ZM22.4611 23.2162C22.4611 23.2162 22.4606 23.2163 22.4597 23.2163C22.4606 23.2162 22.461 23.2162 22.4611 23.2162ZM21.2975 23.5205C21.2972 23.52 21.2968 23.5196 21.2965 23.5191C21.2928 23.5142 21.2876 23.5073 21.2809 23.4988C21.2676 23.4817 21.2485 23.4577 21.2246 23.4296C21.177 23.3736 21.1091 23.2992 21.0289 23.228C20.9498 23.1578 20.8528 23.0853 20.7469 23.0391C20.6407 22.9928 20.5105 22.9668 20.3791 23.0156C20.3594 23.0229 20.3415 23.0343 20.3265 23.0489C20.2645 23.1094 20.2143 23.1814 20.2008 23.2658C20.1862 23.3576 20.2193 23.4359 20.2687 23.4933C20.3147 23.5467 20.3762 23.5847 20.4341 23.6124C20.4938 23.6409 20.5602 23.6635 20.6257 23.6816C20.7566 23.7179 20.8974 23.7398 21.0017 23.7521C21.0543 23.7583 21.0991 23.7623 21.1306 23.7644C21.146 23.7654 21.1598 23.7661 21.1703 23.7663C21.1738 23.7663 21.1834 23.7665 21.1934 23.7657C21.1962 23.7654 21.2024 23.7648 21.2101 23.7633C21.214 23.7626 21.2207 23.7611 21.2288 23.7584C21.235 23.7564 21.2525 23.7503 21.2712 23.7363C21.2889 23.7232 21.3333 23.6828 21.3318 23.6126C21.3308 23.5697 21.3128 23.539 21.2975 23.5205ZM20.5117 23.2903C20.5074 23.2957 20.5043 23.3002 20.5021 23.3037C20.5124 23.313 20.5315 23.3264 20.5636 23.3418C20.602 23.3602 20.6505 23.3772 20.7057 23.3925C20.7303 23.3993 20.7556 23.4056 20.7811 23.4114C20.7292 23.3699 20.6768 23.3358 20.627 23.3141C20.5786 23.293 20.5411 23.287 20.5117 23.2903ZM24.2403 23.9462C24.2442 24.0925 24.2245 24.2508 24.1599 24.3584C24.1415 24.3891 24.1127 24.4122 24.0787 24.4235C24.015 24.4448 23.9424 24.4395 23.8846 24.4302C23.8211 24.42 23.7507 24.4005 23.6793 24.3746C23.5373 24.3232 23.3776 24.2412 23.2467 24.1374C23.1205 24.0374 22.9953 23.8965 22.9729 23.7216C22.9481 23.5291 23.0528 23.3578 23.2524 23.2202L23.2528 23.22C23.449 23.0856 23.6415 23.0449 23.8139 23.1136C23.9776 23.1788 24.0808 23.3268 24.1425 23.4728C24.2055 23.6219 24.2362 23.7933 24.2403 23.9462ZM23.4225 23.4673C23.2755 23.5687 23.2653 23.6435 23.2704 23.6833C23.2778 23.7408 23.3272 23.8184 23.4331 23.9024C23.5342 23.9825 23.664 24.05 23.7815 24.0926C23.8374 24.1128 23.8872 24.1262 23.9268 24.1331C23.9362 24.0887 23.9424 24.0282 23.9404 23.9542C23.9371 23.8316 23.9121 23.6983 23.8662 23.5896C23.8189 23.4778 23.7598 23.4149 23.7029 23.3922C23.6547 23.373 23.5684 23.3675 23.4225 23.4673ZM18.687 24.6877C18.6745 24.7494 18.6378 24.8009 18.6027 24.8404C18.4696 24.9897 18.2816 25.1113 18.082 25.2096C17.8808 25.3087 17.6584 25.3886 17.4479 25.4505C17.2371 25.5125 17.0353 25.5575 16.8739 25.5858C16.7933 25.5999 16.7217 25.6101 16.6633 25.6162C16.609 25.6218 16.555 25.6252 16.5156 25.621L16.5313 25.4718L16.4808 25.6131C16.4394 25.5983 16.4048 25.5728 16.3794 25.5512C16.3524 25.5282 16.3261 25.501 16.3018 25.4734C16.2531 25.4181 16.2041 25.3516 16.1615 25.2895C16.1185 25.2269 16.08 25.1658 16.0521 25.1195C16.0382 25.0964 16.0266 25.0764 16.0182 25.0613C16.014 25.054 16.0101 25.0468 16.007 25.0406C16.0055 25.0377 16.0033 25.0334 16.0012 25.0286C16.0002 25.0264 15.9983 25.0219 15.9963 25.0163C15.9953 25.0136 15.9937 25.0087 15.9921 25.0025C15.9911 24.9982 15.9875 24.9841 15.9875 24.9656C15.9917 24.9306 16.0139 24.8806 16.0261 24.8652C16.0338 24.8573 16.0474 24.8457 16.0529 24.8417C16.0629 24.8348 16.0716 24.8308 16.0741 24.8296C16.0808 24.8264 16.0864 24.8244 16.0883 24.8237C16.0932 24.8219 16.098 24.8204 16.1013 24.8194C16.1085 24.8171 16.1179 24.8144 16.1285 24.8114C16.1502 24.8054 16.1811 24.797 16.2195 24.787C16.2966 24.7668 16.4056 24.7393 16.5347 24.7081C16.7926 24.646 17.1326 24.5692 17.4591 24.5087C17.7817 24.449 18.1037 24.4028 18.3197 24.4069C18.3745 24.408 18.4278 24.4123 18.4752 24.4223C18.5191 24.4316 18.5758 24.4494 18.6212 24.4898C18.6771 24.5396 18.7023 24.6119 18.687 24.6877ZM16.5735 25.3224C16.5888 25.3217 16.6085 25.3202 16.6323 25.3178C16.6821 25.3126 16.7466 25.3035 16.8221 25.2903C16.973 25.2638 17.1638 25.2214 17.3632 25.1627C17.5628 25.104 17.7681 25.0297 17.9495 24.9404C18.0949 24.8689 18.219 24.7904 18.3124 24.7069C18.1301 24.7036 17.8359 24.7441 17.5137 24.8037C17.1944 24.8628 16.86 24.9383 16.605 24.9998C16.5143 25.0217 16.4338 25.0417 16.3679 25.0585C16.3809 25.0784 16.3946 25.099 16.4089 25.1198C16.4483 25.1772 16.4896 25.2327 16.527 25.2752C16.5455 25.2962 16.5612 25.3119 16.5735 25.3224ZM27.1565 26.5616C27.1565 26.5616 27.157 26.561 27.1582 26.5598C27.1571 26.5611 27.1565 26.5617 27.1565 26.5616ZM27.2788 26.4897C27.3054 26.4772 27.3356 26.464 27.3691 26.4504C27.5223 26.3884 27.7309 26.3246 27.9551 26.2812C28.1799 26.2377 28.4135 26.2162 28.6186 26.2343C28.8199 26.2521 28.9753 26.3065 29.0742 26.3962C29.1353 26.4833 29.1323 26.5241 29.1301 26.5335C29.1286 26.5402 29.1194 26.5661 29.0517 26.5972C28.9118 26.6614 28.6506 26.6865 28.3409 26.6732C28.0388 26.6601 27.7186 26.612 27.4791 26.551C27.3998 26.5308 27.3324 26.5099 27.2788 26.4897ZM28.645 25.9355C28.8844 25.9566 29.1228 26.026 29.2917 26.1889C29.2979 26.1949 29.3036 26.2014 29.3086 26.2083C29.3989 26.3317 29.4531 26.466 29.4227 26.6C29.3915 26.737 29.2844 26.8205 29.1769 26.8698C28.9665 26.9664 28.6417 26.9864 28.3279 26.9729C28.0066 26.959 27.6658 26.9081 27.405 26.8417C27.2757 26.8087 27.1588 26.7702 27.0723 26.727C27.0299 26.7058 26.9859 26.6792 26.9512 26.6452C26.9184 26.613 26.8712 26.5505 26.8826 26.4645C26.8835 26.4577 26.8849 26.4509 26.8868 26.4442C26.9012 26.3922 26.9359 26.3567 26.956 26.3382C26.9799 26.3163 27.0083 26.2964 27.0372 26.2788C27.0953 26.2431 27.171 26.2069 27.2566 26.1723C27.4286 26.1027 27.6559 26.0335 27.8981 25.9867C28.1397 25.9399 28.403 25.9141 28.645 25.9355ZM31.4396 26.9881C31.5563 27.1606 31.5959 27.3762 31.4727 27.5829C31.3741 27.7501 31.204 27.8395 31.0231 27.8724C30.8424 27.9052 30.6391 27.8846 30.445 27.8225C30.0597 27.6992 29.6682 27.3965 29.5486 26.9344C29.5361 26.8861 29.5484 26.8347 29.5816 26.7973C29.9388 26.3947 30.5194 26.4212 30.9292 26.596C31.1381 26.685 31.3266 26.8211 31.4396 26.9881ZM29.8642 26.9391C30.1045 26.7324 30.485 26.7327 30.8115 26.8719C30.9847 26.9458 31.1196 27.0505 31.1912 27.1563C31.259 27.2565 31.2651 27.3454 31.215 27.4294L31.2145 27.4302C31.1725 27.5016 31.092 27.555 30.9696 27.5772C30.8467 27.5995 30.6938 27.5872 30.5364 27.5368C30.2444 27.4433 29.9735 27.2323 29.8642 26.9391ZM19.1805 26.6148C19.2437 26.6271 19.3128 26.6513 19.3874 26.6854C19.9484 26.9418 20.2144 27.2237 20.284 27.5551C20.3175 27.7152 20.3016 27.8721 20.2692 28.0195C20.2439 28.1343 20.2063 28.2523 20.1706 28.3644C20.1633 28.3872 20.1561 28.4098 20.1491 28.432C20.1479 28.4429 20.1456 28.4537 20.142 28.4641C20.1208 28.5263 20.07 28.5893 19.9832 28.6036C19.9145 28.6149 19.8541 28.589 19.8171 28.5689C19.7386 28.5262 19.6543 28.4469 19.5752 28.3596C19.4118 28.1795 19.2234 27.9122 19.075 27.6505C19.0006 27.5192 18.9346 27.3864 18.8865 27.264C18.8397 27.1447 18.8047 27.0227 18.8033 26.9173C18.8026 26.8638 18.8103 26.8033 18.8394 26.7477C18.8709 26.6877 18.9227 26.6428 18.9898 26.6209C19.0521 26.6005 19.1182 26.6027 19.1805 26.6148ZM19.8912 28.2528C19.8647 28.2289 19.8332 28.1976 19.7974 28.1581C19.652 27.9977 19.4759 27.7494 19.336 27.5026C19.2663 27.3796 19.2072 27.2598 19.1657 27.1543C19.123 27.0455 19.1039 26.964 19.1033 26.9133C19.1032 26.9108 19.1032 26.9085 19.1033 26.9063C19.1088 26.9069 19.1154 26.9078 19.1234 26.9093C19.1557 26.9156 19.2013 26.9302 19.2627 26.9583C19.7892 27.1988 19.9497 27.4231 19.9904 27.6167C20.0118 27.7192 20.0038 27.8294 19.9762 27.9551C19.955 28.0511 19.9247 28.1477 19.8912 28.2528ZM19.9686 28.3092C19.9687 28.3092 19.9681 28.309 19.9668 28.3085C19.968 28.3088 19.9686 28.3091 19.9686 28.3092ZM22.5855 27.0136C22.5584 27.007 22.5297 27.008 22.5026 27.017C22.4221 27.0439 22.3731 27.1085 22.3449 27.1609C22.3149 27.2166 22.2951 27.2823 22.2833 27.349C22.2595 27.4827 22.2628 27.6458 22.303 27.7996C22.3429 27.9527 22.4238 28.1123 22.5691 28.217C22.7194 28.3255 22.9158 28.3587 23.1491 28.2986C23.3776 28.2426 23.54 28.1248 23.5888 27.9417C23.6348 27.7692 23.5629 27.596 23.4655 27.4632C23.365 27.3262 23.218 27.2039 23.0568 27.1217C22.9142 27.0489 22.7488 27.0016 22.5855 27.0136ZM22.6041 27.3131C22.595 27.333 22.5856 27.3625 22.5786 27.4015C22.5623 27.4935 22.5642 27.6128 22.5932 27.7238C22.6224 27.8356 22.6745 27.9232 22.7446 27.9737C22.8093 28.0204 22.9103 28.0505 23.075 28.0079L23.077 28.0074C23.2511 27.9649 23.2898 27.8987 23.299 27.8644C23.311 27.8192 23.2973 27.7411 23.2236 27.6407C23.1531 27.5444 23.0434 27.4517 22.9204 27.3889C22.8084 27.3317 22.6974 27.3055 22.6041 27.3131ZM22.6172 27.2905C22.6172 27.2905 22.617 27.2908 22.6165 27.2913C22.617 27.2907 22.6172 27.2905 22.6172 27.2905ZM21.265 27.1044C21.2738 27.1032 21.2827 27.1028 21.2916 27.1033C21.3793 27.1074 21.4425 27.1661 21.4759 27.2026C21.5158 27.2461 21.5522 27.3017 21.5839 27.36C21.6478 27.4774 21.7049 27.6284 21.7388 27.7762C21.7716 27.9189 21.7885 28.0831 21.7483 28.2155C21.7272 28.2851 21.6868 28.3571 21.6136 28.4052C21.5393 28.4541 21.452 28.4648 21.3647 28.4514C21.3489 28.4489 21.3336 28.444 21.3193 28.4367C21.0243 28.286 20.9373 27.9573 20.9399 27.7027C20.9412 27.5714 20.9657 27.4421 21.0095 27.3388C21.0314 27.2873 21.0605 27.2365 21.0989 27.1951C21.1371 27.1538 21.1925 27.1138 21.265 27.1044ZM21.2884 27.4497C21.2984 27.4649 21.3092 27.4827 21.3204 27.5033C21.3704 27.5954 21.4182 27.7204 21.4464 27.8433C21.4758 27.9713 21.4782 28.0725 21.4612 28.1285C21.4556 28.1469 21.4502 28.1532 21.4487 28.1546C21.447 28.1553 21.4423 28.1567 21.4332 28.1567C21.3027 28.0757 21.2379 27.902 21.2399 27.7058C21.2409 27.6063 21.2598 27.517 21.2857 27.456C21.2866 27.4538 21.2875 27.4517 21.2884 27.4497ZM21.2413 27.3927C21.2413 27.3926 21.2419 27.393 21.2432 27.394C21.2419 27.3933 21.2413 27.3927 21.2413 27.3927Z" fill="white"/>
</g>
</g>
</g>
<defs>
<clipPath id="clip0_191_23370">
<rect width="48" height="48" fill="white"/>
</clipPath>
<clipPath id="clip1_191_23370">
<rect width="64" height="48" fill="white" transform="translate(-9)"/>
</clipPath>
</defs>
</svg>
