<svg width="48" height="48" viewBox="0 0 48 48" fill="none" xmlns="http://www.w3.org/2000/svg">
<g clip-path="url(#clip0_191_23384)">
<mask id="mask0_191_23384" style="mask-type:alpha" maskUnits="userSpaceOnUse" x="0" y="0" width="48" height="48">
<circle cx="24" cy="24" r="24" fill="#D9D9D9"/>
</mask>
<g mask="url(#mask0_191_23384)">
<g clip-path="url(#clip1_191_23384)">
<path d="M-24 0H72V48H-24V0Z" fill="#239E46"/>
<path d="M-24 0H72V36H-24V0Z" fill="black"/>
<path d="M-24 0H72V12H-24V0Z" fill="#E70013"/>
<path d="M28.2432 19.7568C27.4637 19.2006 26.5461 18.8698 25.591 18.8008C24.6359 18.7317 23.6802 18.9271 22.8289 19.3655C21.9775 19.8039 21.2634 20.4683 20.7648 21.2858C20.2662 22.1033 20.0024 23.0424 20.0024 24C20.0024 24.9576 20.2662 25.8967 20.7648 26.7142C21.2634 27.5317 21.9775 28.1962 22.8289 28.6345C23.6802 29.0729 24.6359 29.2683 25.591 29.1992C26.5461 29.1302 27.4637 28.7994 28.2432 28.2432C27.404 29.0822 26.3349 29.6534 25.1711 29.8848C24.0072 30.1162 22.8009 29.9973 21.7046 29.5431C20.6084 29.089 19.6714 28.3199 19.0122 27.3333C18.353 26.3466 18.0011 25.1866 18.0011 24C18.0011 22.8134 18.353 21.6534 19.0122 20.6667C19.6714 19.6801 20.6084 18.911 21.7046 18.4569C22.8009 18.0027 24.0072 17.8838 25.1711 18.1152C26.3349 18.3466 27.404 18.9178 28.2432 19.7568ZM26.9184 24L34.992 21.3792L30 28.2432V19.7568L34.992 26.6208L26.9184 24Z" fill="white"/>
</g>
</g>
</g>
<defs>
<clipPath id="clip0_191_23384">
<rect width="48" height="48" fill="white"/>
</clipPath>
<clipPath id="clip1_191_23384">
<rect width="64" height="48" fill="white" transform="translate(-8)"/>
</clipPath>
</defs>
</svg>
