<svg width="48" height="48" viewBox="0 0 48 48" fill="none" xmlns="http://www.w3.org/2000/svg">
<g clip-path="url(#clip0_191_23389)">
<mask id="mask0_191_23389" style="mask-type:alpha" maskUnits="userSpaceOnUse" x="0" y="0" width="48" height="48">
<circle cx="24" cy="24" r="24" fill="#D9D9D9"/>
</mask>
<g mask="url(#mask0_191_23389)">
<g clip-path="url(#clip1_191_23389)">
<path fill-rule="evenodd" clip-rule="evenodd" d="M-8 0H56V48H-8V0Z" fill="#F41408"/>
<path fill-rule="evenodd" clip-rule="evenodd" d="M-8 32H56V48H-8V32Z" fill="#21873B"/>
<path fill-rule="evenodd" clip-rule="evenodd" d="M-8 0H56V16H-8V0Z" fill="black"/>
<path fill-rule="evenodd" clip-rule="evenodd" d="M14.05 14.1C16.28 9.18002 22.5 6.82002 27.93 8.85002C29.2044 9.28205 30.3766 9.97085 31.3742 10.8738C32.3718 11.7769 33.1736 12.8749 33.73 14.1H14.05ZM11.45 14.74C9.68541 14.6199 7.93317 14.3591 6.21005 13.96C5.80005 13.83 5.78005 13.6 5.83005 13.43C5.88005 13.26 6.14005 13.07 6.45005 13.13C7.01005 13.27 9.33005 13.83 11.45 14.74ZM23.91 6.15002C23.49 4.05002 23.39 1.75002 23.43 1.35002C23.47 0.960024 23.7 0.900024 23.9 0.900024C24.1 0.900024 24.37 1.08002 24.37 1.37002C24.37 1.90002 24.36 4.07002 23.91 6.17002V6.15002ZM25.07 6.20002C24.9042 4.59811 24.8941 2.98388 25.04 1.38002C25.12 0.990024 25.36 0.940024 25.55 0.960024C25.75 0.970024 26 1.17002 25.97 1.46002C25.92 1.99002 25.71 4.15002 25.07 6.20002ZM26.11 6.33002C26.09 4.20002 26.41 1.90002 26.52 1.53002C26.63 1.14002 26.88 1.11002 27.07 1.14002C27.27 1.17002 27.5 1.39002 27.45 1.67002C27.35 2.20002 26.93 4.33002 26.11 6.33002ZM27.21 6.55002C27.39 4.43002 27.94 2.17002 28.09 1.80002C28.24 1.43002 28.49 1.42002 28.67 1.46002C28.87 1.51002 29.07 1.74002 29 2.02002C28.84 2.53002 28.23 4.62002 27.22 6.55002H27.21ZM28.3 6.87002C28.69 4.77002 29.45 2.56002 29.63 2.20002C29.82 1.85002 30.06 1.85002 30.25 1.91002C30.43 1.97002 30.62 2.23002 30.52 2.49002C29.9177 4.01582 29.1745 5.48216 28.3 6.87002ZM29.31 7.25002C29.89 5.18002 30.86 3.05002 31.08 2.70002C31.3 2.36002 31.54 2.39002 31.72 2.47002C31.9 2.54002 32.06 2.81002 31.93 3.07002C31.68 3.55002 30.68 5.51002 29.31 7.25002ZM30.31 7.72002C30.9048 6.19126 31.6414 4.72152 32.51 3.33002C32.75 3.01002 33 3.06002 33.17 3.15002C33.2204 3.17983 33.2642 3.21937 33.2991 3.26633C33.334 3.3133 33.3591 3.36674 33.3731 3.42354C33.3871 3.48033 33.3896 3.53935 33.3805 3.59712C33.3713 3.6549 33.3508 3.71028 33.32 3.76002C33.02 4.22002 31.83 6.10002 30.31 7.72002ZM31.25 8.27002C32.22 6.33002 33.58 4.37002 33.86 4.07002C34.14 3.77002 34.38 3.84002 34.54 3.94002C34.5878 3.97382 34.6283 4.01678 34.6592 4.0664C34.6901 4.11603 34.7108 4.17132 34.7201 4.22904C34.7295 4.28676 34.7272 4.34577 34.7134 4.4026C34.6997 4.45942 34.6747 4.51294 34.64 4.56002C34.29 5.00002 32.92 6.77002 31.24 8.26002L31.25 8.27002ZM32.13 8.89002C33.29 7.03002 34.83 5.19002 35.14 4.92002C35.44 4.64002 35.68 4.72002 35.83 4.84002C35.8738 4.87809 35.9094 4.92461 35.9347 4.97678C35.96 5.02896 35.9745 5.08571 35.9773 5.14363C35.9801 5.20154 35.9711 5.25943 35.951 5.3138C35.9308 5.36818 35.8999 5.41791 35.86 5.46002C35.48 5.87002 33.95 7.53002 32.13 8.89002ZM32.96 9.58002C33.9746 8.24257 35.1057 6.99769 36.34 5.86002C36.67 5.61002 36.89 5.71002 37.03 5.83002C37.0715 5.8723 37.1038 5.92268 37.1249 5.97801C37.146 6.03334 37.1554 6.09243 37.1526 6.15157C37.1498 6.21072 37.1348 6.26864 37.1085 6.32172C37.0823 6.3748 37.0453 6.42188 37 6.46002C36.59 6.84002 34.9 8.37002 32.96 9.58002ZM33.72 10.33C34.8534 9.07614 36.0985 7.92807 37.44 6.90002C37.8 6.67002 38.01 6.79002 38.14 6.93002C38.26 7.06002 38.29 7.37002 38.04 7.55002C36.6805 8.59614 35.2354 9.52608 33.72 10.33ZM34.37 11.11C35.6203 9.94612 36.9687 8.89222 38.4 7.96002C38.77 7.76002 38.97 7.90002 39.08 8.05002C39.2 8.19002 39.19 8.50002 38.94 8.66002C38.46 8.96002 36.51 10.22 34.37 11.11ZM34.96 11.94C36.3124 10.8849 37.7507 9.94492 39.26 9.13002C39.66 8.96002 39.85 9.11002 39.95 9.26002C40.05 9.42002 40.01 9.72002 39.75 9.86002C38.2093 10.6829 36.604 11.3785 34.95 11.94H34.96ZM35.5 12.9C36.9566 11.9615 38.4886 11.1453 40.08 10.46C40.49 10.32 40.66 10.49 40.74 10.65C40.83 10.81 40.77 11.11 40.48 11.23C39.95 11.45 37.78 12.37 35.5 12.9ZM35.92 13.82C37.4606 12.9969 39.066 12.3012 40.72 11.74C41.14 11.64 41.29 11.82 41.36 11.99C41.42 12.15 41.33 12.45 41.04 12.54C40.49 12.73 38.24 13.47 35.92 13.82ZM36.26 14.8C37.8716 14.1029 39.5371 13.5377 41.24 13.11C41.66 13.05 41.8 13.23 41.85 13.41C41.9 13.58 41.78 13.86 41.48 13.94C40.91 14.07 38.6 14.64 36.26 14.8ZM22.78 6.20002C22.3057 4.65473 21.9809 3.06744 21.81 1.46002C21.81 1.07002 22.04 0.980024 22.23 0.960024C22.43 0.950024 22.73 1.11002 22.75 1.39002C22.8 1.92002 23.01 4.08002 22.79 6.20002H22.78ZM21.68 6.33002C21.0546 4.8332 20.5756 3.27927 20.25 1.69002C20.21 1.29002 20.43 1.19002 20.62 1.16002C20.82 1.13002 21.12 1.26002 21.18 1.54002C21.4929 3.11804 21.6602 4.72143 21.68 6.33002ZM20.58 6.55002C19.8121 5.10609 19.1826 3.59267 18.7 2.03002C18.62 1.64002 18.83 1.52002 19.02 1.47002C19.21 1.43002 19.52 1.53002 19.61 1.81002C19.76 2.32002 20.38 4.41002 20.57 6.54002L20.58 6.55002ZM19.53 6.85002C18.6365 5.47402 17.8732 4.01772 17.25 2.50002C17.14 2.12002 17.33 1.98002 17.51 1.92002C17.7 1.86002 18.02 1.94002 18.13 2.20002C18.33 2.70002 19.15 4.74002 19.53 6.84002V6.85002ZM18.52 7.20002C17.495 5.90217 16.5912 4.51301 15.82 3.05002C15.68 2.68002 15.86 2.52002 16.04 2.45002C16.22 2.37002 16.54 2.43002 16.68 2.69002C16.93 3.17002 17.93 5.14002 18.52 7.20002ZM17.49 7.70002C16.3401 6.48994 15.3025 5.17788 14.39 3.78002C14.22 3.43002 14.38 3.26002 14.55 3.17002C14.72 3.08002 15.05 3.11002 15.21 3.36002C15.51 3.82002 16.71 5.69002 17.49 7.70002ZM16.55 8.24002C15.2941 7.12084 14.1396 5.89271 13.1 4.57002C12.89 4.23002 13.03 4.05002 13.2 3.94002C13.35 3.84002 13.7 3.84002 13.87 4.08002C14.21 4.51002 15.58 6.28002 16.55 8.23002V8.24002ZM15.68 8.84002C14.3206 7.8223 13.0525 6.68801 11.89 5.45002C11.65 5.13002 11.78 4.95002 11.93 4.83002C12.0357 4.76453 12.1605 4.73678 12.284 4.75131C12.4075 4.76584 12.5224 4.82178 12.61 4.91002C12.99 5.31002 14.53 6.98002 15.68 8.84002ZM14.83 9.54002C13.3781 8.63585 12.0064 7.60875 10.73 6.47002C10.45 6.17002 10.56 5.97002 10.7 5.84002C10.8012 5.76545 10.9248 5.72776 11.0503 5.73322C11.1759 5.73867 11.2958 5.78695 11.39 5.87002C11.81 6.24002 13.49 7.77002 14.83 9.53002V9.54002ZM14.09 10.24C12.559 9.45106 11.0972 8.53448 9.72005 7.50002C9.42005 7.22002 9.51005 7.02002 9.64005 6.88002C9.76005 6.74002 10.09 6.67002 10.33 6.85002C11.6796 7.87222 12.9376 9.00984 14.09 10.25V10.24ZM13.39 11.06C11.7867 10.3961 10.2414 9.60006 8.77005 8.68002C8.44005 8.43002 8.51005 8.21002 8.62005 8.07002C8.73005 7.92002 9.05005 7.82002 9.31005 7.98002C9.79005 8.29002 11.74 9.53002 13.39 11.06ZM12.76 11.94C10.54 11.24 8.27005 10.18 7.92005 9.95002C7.56005 9.73002 7.62005 9.51002 7.71005 9.35002C7.80005 9.19002 8.11005 9.07002 8.39005 9.21002C8.89005 9.48002 10.97 10.56 12.76 11.94ZM12.23 12.84C9.95005 12.31 7.60005 11.44 7.22005 11.24C6.85005 11.04 6.87005 10.82 6.96005 10.66C7.04005 10.5 7.33005 10.35 7.62005 10.46C8.15005 10.69 10.32 11.6 12.23 12.84ZM11.81 13.74C10.0667 13.472 8.34785 13.064 6.67005 12.52C6.27005 12.36 6.29005 12.13 6.35005 11.97C6.42005 11.8 6.70005 11.63 6.99005 11.72C7.55005 11.91 9.79005 12.65 11.81 13.74Z" fill="#F31509"/>
<path fill-rule="evenodd" clip-rule="evenodd" d="M11.45 14.74C9.68541 14.6198 7.93318 14.359 6.21005 13.96C5.80005 13.83 5.78005 13.6 5.83005 13.43C5.88005 13.26 6.14005 13.07 6.45005 13.13C7.01005 13.27 9.33005 13.83 11.45 14.74Z" fill="#F31509"/>
<path fill-rule="evenodd" clip-rule="evenodd" d="M4.93994 14.15H43.0599V15.41H4.93994V14.15Z" fill="black"/>
</g>
</g>
</g>
<defs>
<clipPath id="clip0_191_23389">
<rect width="48" height="48" fill="white"/>
</clipPath>
<clipPath id="clip1_191_23389">
<rect width="64" height="48" fill="white" transform="translate(-8)"/>
</clipPath>
</defs>
</svg>
