<svg width="48" height="48" viewBox="0 0 48 48" fill="none" xmlns="http://www.w3.org/2000/svg">
<g clip-path="url(#clip0_152_46391)">
<mask id="mask0_152_46391" style="mask-type:alpha" maskUnits="userSpaceOnUse" x="0" y="0" width="48" height="48">
<circle cx="24" cy="24" r="24" fill="#D9D9D9"/>
</mask>
<g mask="url(#mask0_152_46391)">
<g clip-path="url(#clip1_152_46391)">
<path fill-rule="evenodd" clip-rule="evenodd" d="M0 0H96.0102V31.8844H0V0Z" fill="#B20000"/>
<path fill-rule="evenodd" clip-rule="evenodd" d="M0 31.8844H96.0102V48H0V31.8844Z" fill="#429F00"/>
<path fill-rule="evenodd" clip-rule="evenodd" d="M0 0H10.6324V48H0V0Z" fill="white"/>
<path fill-rule="evenodd" clip-rule="evenodd" d="M0.506348 0.815625H1.01265V1.63125H0.506348V0.815625ZM2.02526 0.815625H3.54417V1.63125H2.02526V0.815625ZM2.53156 0H3.03787V0.815625H2.53156V0ZM5.06308 0H5.56939V0.815625H5.06308V0ZM7.0883 0.815625H8.60721V1.63125H7.0883V0.815625ZM7.5946 0H8.10091V0.815625H7.5946V0ZM1.51896 1.63125H2.53156V2.4375H1.51896V1.63125ZM3.03787 1.63125H4.05048V2.4375H3.03787V1.63125ZM6.582 1.63125H7.5946V2.4375H6.582V1.63125ZM8.10091 1.63125H9.11351V2.4375H8.10091V1.63125ZM1.01265 2.4375H2.02526V3.25313H1.01265V2.4375ZM3.54417 2.4375H4.55678V3.25313H3.54417V2.4375ZM6.07569 2.4375H7.0883V3.25313H6.07569V2.4375ZM8.60721 2.4375H9.61982V3.25313H8.60721V2.4375ZM9.61982 0.815625H10.1261V1.63125H9.61982V0.815625ZM0.506348 3.25313H1.51896V4.06875H0.506348V3.25313ZM4.05048 3.25313H5.06308V4.06875H4.05048V3.25313ZM9.11351 3.25313H10.1261V4.06875H9.11351V3.25313ZM1.01265 5.69063H2.02526V6.50625H1.01265V5.69063ZM1.51896 6.50625H2.53156V7.32188H1.51896V6.50625ZM3.54417 5.7H4.55678V6.50625H3.54417V5.7ZM3.03787 6.50625H4.05048V7.32188H3.03787V6.50625ZM2.02526 7.32188H3.54417V8.1375H2.02526V7.32188Z" fill="#B20000"/>
<path fill-rule="evenodd" clip-rule="evenodd" d="M2.53152 8.13751H3.03782V8.95314H2.53152V8.13751ZM6.07565 5.70001H7.08826V6.50626H6.07565V5.70001ZM6.58195 6.50626H7.59456V7.32189H6.58195V6.50626ZM8.60717 5.70001H9.61978V6.50626H8.60717V5.70001ZM8.10086 6.50626H9.11347V7.32189H8.10086V6.50626ZM7.08826 7.32189H8.60717V8.13751H7.08826V7.32189ZM7.59456 8.13751H8.10086V8.95314H7.59456V8.13751ZM5.06304 7.31251H5.56934V8.12814H5.06304V7.31251ZM0 7.31251H0.506304V8.12814H0V7.31251ZM10.1261 7.31251H10.6324V8.12814H10.1261V7.31251ZM2.53152 11.3813H3.03782V12.1969H2.53152V11.3813ZM2.02522 12.2063H3.54413V13.0125H2.02522V12.2063ZM1.51891 13.0125H4.05043V13.8281H1.51891V13.0125ZM7.59456 11.3906H8.10086V12.2063H7.59456V11.3906ZM7.08826 12.2063H8.60717V13.0125H7.08826V12.2063ZM6.58195 13.0125H9.11347V13.8281H6.58195V13.0125ZM7.08826 17.0813H9.61978V17.8969H7.08826V17.0813ZM6.07565 13.8281H9.61978V14.6438H6.07565V13.8281ZM1.01261 13.8281H4.55674V14.6438H1.01261V13.8281ZM1.51891 17.8969H3.03782V18.7125H1.51891V17.8969ZM1.01261 17.0813H3.54413V17.8969H1.01261V17.0813ZM8.10086 15.4688H10.6324V16.2844H8.10086V15.4688ZM7.59456 17.9063H9.11347V18.7219H7.59456V17.9063Z" fill="#B20000"/>
<path fill-rule="evenodd" clip-rule="evenodd" d="M2.02522 18.7125H2.53152V19.5281H2.02522V18.7125ZM8.10086 18.7125H8.60717V19.5281H8.10086V18.7125ZM0 15.4594H2.53152V16.275H0V15.4594ZM4.55674 17.0812H6.07565V17.8969H4.55674V17.0812ZM5.06304 17.9062H5.56934V18.7219H5.06304V17.9062ZM3.54413 15.4687H7.08826V16.2844H3.54413V15.4687ZM5.56934 3.25311H6.58195V4.06874H5.56934V3.25311ZM4.55674 4.06874H6.07565V4.88436H4.55674V4.06874ZM4.05043 4.88436H5.06304V5.69061H4.05043V4.88436ZM5.56934 4.88436H6.58195V5.69061H5.56934V4.88436ZM0 4.06874H1.01261V4.88436H0V4.06874ZM0.506304 4.88436H1.51891V5.69061H0.506304V4.88436ZM9.61978 4.06874H10.6324V4.87499H9.61978V4.06874ZM9.11347 4.87499H10.1261V5.68124H9.11347V4.87499ZM0 12.1875H0.506304V13.0031H0V12.1875ZM10.1261 12.1875H10.6324V13.0031H10.1261V12.1875ZM4.55674 18.7031H6.07565V19.5187H4.55674V18.7031ZM4.05043 19.5187H5.06304V20.325H4.05043V19.5187ZM5.56934 19.5187H6.58195V20.325H5.56934V19.5187ZM3.54413 20.325H4.55674V21.1406H3.54413V20.325ZM6.07565 20.325H7.08826V21.1406H6.07565V20.325ZM3.03782 21.1406H4.05043V21.9562H3.03782V21.1406ZM6.58195 21.1406H7.59456V21.9562H6.58195V21.1406ZM2.53152 21.9656H3.54413V22.7812H2.53152V21.9656ZM7.08826 21.9656H8.10086V22.7812H7.08826V21.9656ZM1.51891 22.7812H3.03782V23.5969H1.51891V22.7812ZM7.59456 22.7812H9.11347V23.5969H7.59456V22.7812ZM8.60717 21.9656H9.61978V22.7812H8.60717V21.9656ZM9.11347 21.15H10.1261V21.9656H9.11347V21.15ZM9.61978 20.3344H10.6324V21.15H9.61978V20.3344ZM1.01261 21.9656H2.02522V22.7812H1.01261V21.9656ZM0.506304 21.15H1.51891V21.9656H0.506304V21.15ZM0 20.3437H1.01261V21.1594H0V20.3437ZM2.02522 23.6062H2.53152V24.4125H2.02522V23.6062ZM8.10086 23.6062H8.60717V24.4125H8.10086V23.6062ZM5.06304 21.1687H5.56934V21.975H5.06304V21.1687ZM3.54413 23.6062H4.05043V24.4125H3.54413V23.6062ZM6.58195 23.6062H7.08826V24.4125H6.58195V23.6062ZM5.06304 23.6062H5.56934V24.4125H5.06304V23.6062ZM0 23.6062H0.506304V24.4125H0L0 23.6062ZM10.1261 23.6062H10.6324V24.4125H10.1261V23.6062ZM5.06304 12.2062H5.56934V13.0125H5.06304V12.2062ZM2.53152 4.06874H3.03782V4.88436H2.53152V4.06874ZM7.59456 4.06874H8.10086V4.88436H7.59456V4.06874ZM4.55674 9.75936H6.07565V10.575H4.55674V9.75936ZM3.54413 10.575H5.06304V11.3906H3.54413V10.575ZM4.05043 11.3906H4.55674V12.2062H4.05043V11.3906ZM3.03782 9.75936H4.05043V10.575H3.03782V9.75936ZM3.54413 8.95311H5.06304V9.75936H3.54413V8.95311ZM4.05043 8.13749H4.55674V8.95311H4.05043V8.13749ZM5.56934 8.95311H7.08826V9.75936H5.56934V8.95311ZM6.07565 8.13749H6.58195V8.95311H6.07565V8.13749ZM6.58195 9.75936H7.59456V10.575H6.58195V9.75936ZM5.56934 10.575H7.08826V11.3906H5.56934V10.575ZM6.07565 11.3906H6.58195V12.2062H6.07565V11.3906ZM8.10086 9.75936H9.11347V10.575H8.10086V9.75936ZM8.60717 8.95311H10.1261V9.75936H8.60717V8.95311ZM9.61978 9.75936H10.6324V10.575H9.61978V9.75936ZM8.60717 10.575H10.1261V11.3906H8.60717V10.575ZM9.11347 11.3906H9.61978V12.2062H9.11347V11.3906ZM9.11347 8.13749H9.61978V8.95311H9.11347V8.13749ZM0 9.74999H1.01261V10.5656H0V9.74999ZM0.506304 8.94374H2.02522V9.74999H0.506304V8.94374ZM1.51891 9.74999H2.53152V10.5656H1.51891V9.74999ZM0.506304 10.5656H2.02522V11.3812H0.506304V10.5656Z" fill="#B20000"/>
<path fill-rule="evenodd" clip-rule="evenodd" d="M1.01261 11.3906H1.51891V12.2063H1.01261V11.3906ZM1.01261 8.13751H1.51891V8.95314H1.01261V8.13751ZM0.506304 14.6438H2.53152V15.4594H0.506304V14.6438ZM3.03782 14.6438H5.06304V15.4594H3.03782V14.6438ZM5.56934 14.6438H7.59456V15.4594H5.56934V14.6438ZM8.10086 14.6438H10.1261V15.4594H8.10086V14.6438ZM4.05043 16.275H6.58195V17.0813H4.05043V16.275ZM0.506304 16.275H3.03782V17.0813H0.506304V16.275ZM7.59456 16.275H10.1261V17.0813H7.59456V16.275ZM10.1261 19.5281H10.6324V20.3344H10.1261V19.5281ZM0 19.5281H0.506304V20.3344H0V19.5281ZM0.506304 47.1844H1.01261V46.3781H0.506304V47.1844ZM2.02522 47.1844H3.54413V46.3781H2.02522V47.1844ZM2.53152 48H3.03782V47.1844H2.53152V48ZM5.06304 48H5.56934V47.1844H5.06304V48ZM7.08826 47.1844H8.60717V46.3688H7.08826V47.1844ZM7.59456 48H8.10086V47.1844H7.59456V48ZM1.51891 46.3688H2.53152V45.5625H1.51891V46.3688ZM3.03782 46.3688H4.05043V45.5625H3.03782V46.3688ZM6.58195 46.3688H7.59456V45.5625H6.58195V46.3688ZM8.10086 46.3688H9.11347V45.5625H8.10086V46.3688ZM3.54413 45.5625H4.55674V44.7469H3.54413V45.5625ZM6.07565 45.5625H7.08826V44.7469H6.07565V45.5625ZM8.60717 45.5625H9.61978V44.7469H8.60717V45.5625ZM9.61978 47.1844H10.1261V46.3688H9.61978V47.1844ZM0.506304 44.7469H1.51891V43.9313H0.506304V44.7469ZM4.05043 44.7469H5.06304V43.9313H4.05043V44.7469ZM9.11347 44.7469H10.1261V43.9313H9.11347V44.7469ZM1.01261 42.3094H2.02522V41.4938H1.01261V42.3094ZM1.51891 41.4938H2.53152V40.6781H1.51891V41.4938ZM3.54413 42.3094H4.55674V41.4938H3.54413V42.3094ZM3.03782 41.4938H4.05043V40.6781H3.03782V41.4938ZM2.02522 40.6781H3.54413V39.8625H2.02522V40.6781ZM2.53152 39.8625H3.03782V39.0563H2.53152V39.8625ZM6.07565 42.3H7.08826V41.4938H6.07565V42.3ZM6.58195 41.4938H7.59456V40.6781H6.58195V41.4938ZM8.60717 42.3094H9.61978V41.4938H8.60717V42.3094ZM8.10086 41.4938H9.11347V40.6781H8.10086V41.4938ZM7.08826 40.6781H8.60717V39.8625H7.08826V40.6781ZM7.59456 39.8625H8.10086V39.0563H7.59456V39.8625ZM5.06304 40.6875H5.56934V39.8719H5.06304V40.6875ZM0 40.6875H0.506304V39.8719H0V40.6875ZM10.1261 40.6875H10.6324V39.8719H10.1261V40.6875ZM2.53152 36.6188H3.03782V35.8031H2.53152V36.6188ZM2.02522 35.7938H3.54413V34.9875H2.02522V35.7938ZM1.51891 34.9875H4.05043V34.1719H1.51891V34.9875ZM7.59456 36.6094H8.10086V35.7938H7.59456V36.6094Z" fill="#B20000"/>
<path fill-rule="evenodd" clip-rule="evenodd" d="M7.08826 35.7938H8.60717V34.9875H7.08826V35.7938ZM6.58195 34.9875H9.11347V34.1719H6.58195V34.9875ZM7.08826 30.9188H9.61978V30.0938H7.08826V30.9188ZM6.07565 34.1719H9.61978V33.3563H6.07565V34.1719ZM1.01261 34.1719H4.55674V33.3563H1.01261V34.1719ZM1.51891 30.1031H3.03782V29.2875H1.51891V30.1031ZM1.01261 30.9188H3.54413V30.0938H1.01261V30.9188ZM8.10086 32.5313H10.6324V31.7156H8.10086V32.5313ZM7.59456 30.0938H9.11347V29.2781H7.59456V30.0938ZM0 32.5313H2.53152V31.7156H0V32.5313ZM4.55674 30.9094H6.07565V30.0938H4.55674V30.9094ZM5.06304 30.0938H5.56934V29.2781H5.06304V30.0938ZM3.54413 32.5313H7.08826V31.7156H3.54413V32.5313ZM5.56934 44.7375H6.58195V43.9219H5.56934V44.7375ZM4.55674 43.9219H6.07565V43.125H4.55674V43.9219ZM4.05043 43.1063H5.06304V42.2907H4.05043V43.1063ZM5.56934 43.1063H6.58195V42.2907H5.56934V43.1063ZM0 43.9313H1.01261V43.125H0V43.9313ZM0.506304 43.1157H1.51891V42.3094H0.506304V43.1157ZM9.61978 43.9313H10.6324V43.125H9.61978V43.9313ZM9.11347 43.1157H10.1261V42.3094H9.11347V43.1157ZM0 35.8125H0.506304V34.9969H0V35.8125ZM10.1261 35.8125H10.6324V34.9969H10.1261V35.8125ZM4.05043 28.4813H5.06304V27.675H4.05043V28.4813ZM5.56934 28.4813H6.58195V27.675H5.56934V28.4813ZM3.54413 27.675H4.55674V26.8594H3.54413V27.675ZM6.07565 27.675H7.08826V26.8594H6.07565V27.675ZM3.03782 26.8594H4.05043V26.0438H3.03782V26.8594ZM6.58195 26.8594H7.59456V26.0438H6.58195V26.8594ZM2.53152 26.0344H3.54413V25.2188H2.53152V26.0344ZM7.08826 26.0344H8.10086V25.2188H7.08826V26.0344ZM1.51891 25.2188H3.03782V24.4031H1.51891V25.2188ZM7.59456 25.2188H9.11347V24.4031H7.59456V25.2188ZM8.60717 26.0344H9.61978V25.2188H8.60717V26.0344ZM9.11347 26.85H10.1261V26.0344H9.11347V26.85ZM9.61978 27.6656H10.6324V26.85H9.61978V27.6656ZM1.01261 26.0344H2.02522V25.2188H1.01261V26.0344ZM0.506304 26.85H1.51891V26.0344H0.506304V26.85ZM0 27.6563H1.01261V26.8406H0V27.6563ZM2.02522 24.3938H2.53152V23.5875H2.02522V24.3938ZM5.06304 26.8313H5.56934V26.025H5.06304V26.8313ZM5.06304 35.7844H5.56934V34.9782H5.06304V35.7844ZM2.53152 43.9219H3.03782V43.125H2.53152V43.9219ZM7.59456 43.9219H8.10086V43.125H7.59456V43.9219ZM4.55674 38.25H6.07565V37.4344H4.55674V38.25ZM3.54413 37.4344H5.06304V36.6188H3.54413V37.4344ZM4.05043 36.6188H4.55674V35.8031H4.05043V36.6188ZM3.03782 38.25H4.05043V37.4344H3.03782V38.25ZM3.54413 39.0469H5.06304V38.25H3.54413V39.0469ZM4.05043 39.8625H4.55674V39.0563H4.05043V39.8625ZM5.56934 39.0469H7.08826V38.25H5.56934V39.0469ZM6.07565 39.8625H6.58195V39.0563H6.07565V39.8625ZM6.58195 38.2406H7.59456V37.425H6.58195V38.2406ZM5.56934 37.425H7.08826V36.6094H5.56934V37.425ZM6.07565 36.6094H6.58195V35.7938H6.07565V36.6094ZM8.10086 38.25H9.11347V37.4344H8.10086V38.25ZM8.60717 39.0469H10.1261V38.25H8.60717V39.0469ZM9.61978 38.2406H10.6324V37.425H9.61978V38.2406ZM8.60717 37.425H10.1261V36.6094H8.60717V37.425ZM9.11347 36.6094H9.61978V35.7938H9.11347V36.6094ZM9.11347 39.8625H9.61978V39.0563H9.11347V39.8625ZM0 38.25H1.01261V37.4344H0V38.25ZM0.506304 39.0469H2.02522V38.25H0.506304V39.0469Z" fill="#B20000"/>
<path fill-rule="evenodd" clip-rule="evenodd" d="M1.51891 38.2406H2.53152V37.425H1.51891V38.2406ZM0.506304 37.425H2.02522V36.6094H0.506304V37.425ZM1.01261 36.6094H1.51891V35.7937H1.01261V36.6094ZM1.01261 39.8625H1.51891V39.0562H1.01261V39.8625ZM0.506304 33.3562H2.53152V32.5406H0.506304V33.3562ZM3.03782 33.3562H5.06304V32.5406H3.03782V33.3562ZM5.56934 33.3562H7.59456V32.5406H5.56934V33.3562ZM8.10086 33.3562H10.1261V32.5406H8.10086V33.3562ZM4.05043 31.725H6.58195V30.9187H4.05043V31.725ZM0.506304 31.725H3.03782V30.9187H0.506304V31.725ZM7.59456 31.725H10.1261V30.9187H7.59456V31.725ZM10.1261 28.4812H10.6324V27.6562H10.1261V28.4812ZM0 28.4812H0.506304V27.6562H0V28.4812ZM4.55674 24.4031H5.06304V25.2188H4.55674V24.4031ZM5.56934 24.4031H6.07565V25.2188H5.56934V24.4031ZM5.56934 22.7812H6.07565V23.5969H5.56934V22.7812ZM4.55674 22.7812H5.06304V23.5969H4.55674V22.7812ZM1.01261 44.7469H2.02522V45.5625H1.01261V44.7469ZM8.10086 29.2875H8.60717V28.4719H8.10086V29.2875ZM2.02522 29.2875H2.53152V28.4719H2.02522V29.2875ZM4.55674 28.4719H6.07565V29.2875H4.55674V28.4719Z" fill="#B20000"/>
</g>
</g>
</g>
<defs>
<clipPath id="clip0_152_46391">
<rect width="48" height="48" fill="white"/>
</clipPath>
<clipPath id="clip1_152_46391">
<rect width="64" height="48" fill="white"/>
</clipPath>
</defs>
</svg>
