<svg width="48" height="48" viewBox="0 0 48 48" fill="none" xmlns="http://www.w3.org/2000/svg">
<g clip-path="url(#clip0_191_23387)">
<mask id="mask0_191_23387" style="mask-type:alpha" maskUnits="userSpaceOnUse" x="0" y="0" width="48" height="48">
<circle cx="24" cy="24" r="24" fill="#D9D9D9"/>
</mask>
<g mask="url(#mask0_191_23387)">
<g clip-path="url(#clip1_191_23387)">
<path d="M-8 0H56V48H-8V0Z" fill="#00785E"/>
<path d="M21.5 10.87L25.55 13.82L24 9.05005L22.45 13.82L26.51 10.87H21.5Z" fill="#FBD116"/>
<path d="M24 33.1597H13.75C13.6208 33.0288 13.4941 32.8955 13.37 32.7597H24C24.0413 32.7743 24.0769 32.8014 24.102 32.8373C24.1271 32.8732 24.1404 32.916 24.14 32.9597C24.14 33.0397 24.09 33.1297 24 33.1597ZM24 30.0297C24.1158 29.7943 24.1576 29.5294 24.12 29.2697C24.1007 29.1374 24.0602 29.0091 24 28.8897C23.0787 29.7665 21.966 30.417 20.75 30.7897C19.9881 31.0213 19.1963 31.1392 18.4 31.1397H12.09C12.2741 31.4129 12.4676 31.6798 12.67 31.9397H18.77C20.77 31.9397 22.59 31.2197 24 30.0297ZM13.04 27.5597C12.7289 27.6759 12.4017 27.7433 12.07 27.7597C12.83 28.6237 13.7653 29.3158 14.8137 29.7899C15.862 30.2641 16.9994 30.5095 18.15 30.5097C19.2434 30.51 20.3256 30.2886 21.331 29.8589C22.3365 29.4292 23.2445 28.8002 24 28.0097C24.281 26.062 24.4314 24.0976 24.45 22.1297C24.4741 19.8649 24.3236 17.6015 24 15.3597C23.34 15.9597 22.1 17.2297 21.52 19.1897C21.3025 19.9403 21.1947 20.7183 21.2 21.4997C21.1997 23.1025 21.6766 24.6691 22.57 25.9997C21.4692 24.5844 20.871 22.8428 20.87 21.0497C20.87 19.8097 21.15 18.6297 21.65 17.5797C21.302 17.2109 21.0451 16.7657 20.9 16.2797C20.2085 17.4992 19.8466 18.8778 19.85 20.2797C19.85 22.0797 20.44 23.7497 21.44 25.0897C20.4994 24.1013 19.357 23.3271 18.0904 22.8198C16.8238 22.3125 15.4628 22.084 14.1 22.1497C14.3763 22.405 14.6064 22.7061 14.78 23.0397C16.0627 23.0413 17.3318 23.3026 18.5108 23.8079C19.6898 24.3131 20.7543 25.0519 21.64 25.9797C19.9304 24.5465 17.7709 23.7605 15.54 23.7597C14.2804 23.7574 13.0328 24.0055 11.87 24.4897C12.4936 26.1385 13.6368 27.5395 15.127 28.4812C16.6171 29.4229 18.3732 29.8541 20.13 29.7097C19.66 29.7897 19.18 29.8397 18.69 29.8397C16.5848 29.8435 14.5612 29.0255 13.05 27.5597H13.04ZM24 36.4397H18.69C20.38 37.1097 22.182 37.4525 24 37.4497C24.0824 37.2958 24.127 37.1244 24.13 36.9497C24.1286 36.7717 24.084 36.5967 24 36.4397ZM24 33.9897H14.64C14.8928 34.2054 15.1529 34.4121 15.42 34.6097H24C24.0809 34.5265 24.1273 34.4158 24.13 34.2997C24.1321 34.2417 24.1216 34.184 24.0991 34.1304C24.0767 34.0769 24.0429 34.0289 24 33.9897ZM24 35.2397H16.33C16.7943 35.5337 17.2751 35.8008 17.77 36.0397H24C24.0802 35.9145 24.122 35.7685 24.12 35.6197C24.115 35.4846 24.0735 35.3533 24 35.2397Z" fill="white"/>
<path d="M12.05 17.48L14.59 19.84L13.92 16.44L12.46 19.58L15.49 17.9L12.05 17.48ZM15.74 14.28L19.21 14.34L16.44 12.24L17.45 15.57L18.58 12.28L15.74 14.28Z" fill="#FBD116"/>
<path d="M24.0032 33.1597H34.2532C34.3823 33.0288 34.509 32.8955 34.6332 32.7597H24.0032C23.9619 32.7743 23.9262 32.8014 23.9011 32.8373C23.876 32.8732 23.8628 32.916 23.8632 32.9597C23.8632 33.0397 23.9132 33.1297 24.0032 33.1597ZM24.0032 30.0297C23.8874 29.7943 23.8456 29.5294 23.8832 29.2697C23.9024 29.1374 23.943 29.0091 24.0032 28.8897C24.9245 29.7665 26.0372 30.417 27.2532 30.7897C28.0151 31.0213 28.8069 31.1392 29.6032 31.1397H35.9132C35.729 31.4129 35.5356 31.6798 35.3332 31.9397H29.2332C27.2332 31.9397 25.4132 31.2197 24.0032 30.0297ZM34.9632 27.5597C35.2743 27.6759 35.6015 27.7433 35.9332 27.7597C35.1732 28.6237 34.2379 29.3158 33.1895 29.7899C32.1412 30.2641 31.0038 30.5095 29.8532 30.5097C28.7597 30.51 27.6776 30.2886 26.6721 29.8589C25.6667 29.4292 24.7587 28.8002 24.0032 28.0097C23.7222 26.062 23.5718 24.0976 23.5532 22.1297C23.5291 19.8649 23.6795 17.6015 24.0032 15.3597C24.6632 15.9597 25.9032 17.2297 26.4832 19.1897C26.7007 19.9403 26.8085 20.7183 26.8032 21.4997C26.8035 23.1025 26.3266 24.6691 25.4332 25.9997C26.534 24.5844 27.1322 22.8428 27.1332 21.0497C27.1332 19.8097 26.8532 18.6297 26.3532 17.5797C26.7012 17.2109 26.958 16.7657 27.1032 16.2797C27.7947 17.4992 28.1566 18.8778 28.1532 20.2797C28.1532 22.0797 27.5632 23.7497 26.5632 25.0897C27.5038 24.1013 28.6462 23.3271 29.9128 22.8198C31.1794 22.3125 32.5404 22.084 33.9032 22.1497C33.6269 22.405 33.3968 22.7061 33.2232 23.0397C31.9405 23.0413 30.6714 23.3026 29.4924 23.8079C28.3134 24.3131 27.2489 25.0519 26.3632 25.9797C28.0728 24.5465 30.2323 23.7605 32.4632 23.7597C33.7228 23.7574 34.9703 24.0055 36.1332 24.4897C35.5096 26.1385 34.3663 27.5395 32.8762 28.4812C31.3861 29.4229 29.63 29.8541 27.8732 29.7097C28.3432 29.7897 28.8232 29.8397 29.3132 29.8397C31.4184 29.8435 33.442 29.0255 34.9532 27.5597H34.9632ZM24.0032 36.4397H29.3132C27.6231 37.1097 25.8212 37.4525 24.0032 37.4497C23.9208 37.2958 23.8762 37.1244 23.8732 36.9497C23.8746 36.7717 23.9192 36.5967 24.0032 36.4397ZM24.0032 33.9897H33.3632C33.1104 34.2054 32.8503 34.4121 32.5832 34.6097H24.0032C23.9223 34.5265 23.8759 34.4158 23.8732 34.2997C23.8711 34.2417 23.8816 34.184 23.904 34.1304C23.9265 34.0769 23.9603 34.0289 24.0032 33.9897ZM24.0032 35.2397H31.6732C31.2089 35.5337 30.7281 35.8008 30.2332 36.0397H24.0032C23.9229 35.9145 23.8812 35.7685 23.8832 35.6197C23.8882 35.4846 23.9296 35.3533 24.0032 35.2397Z" fill="white"/>
<path d="M35.9531 17.48L33.4131 19.84L34.0831 16.44L35.5431 19.58L32.5131 17.9L35.9531 17.48ZM32.2631 14.28L28.7931 14.34L31.5631 12.24L30.5531 15.57L29.4231 12.28L32.2631 14.28Z" fill="#FBD116"/>
</g>
</g>
</g>
<defs>
<clipPath id="clip0_191_23387">
<rect width="48" height="48" fill="white"/>
</clipPath>
<clipPath id="clip1_191_23387">
<rect width="64" height="48" fill="white" transform="translate(-8)"/>
</clipPath>
</defs>
</svg>
