<svg width="48" height="48" viewBox="0 0 48 48" fill="none" xmlns="http://www.w3.org/2000/svg">
<g clip-path="url(#clip0_152_51424)">
<mask id="mask0_152_51424" style="mask-type:alpha" maskUnits="userSpaceOnUse" x="0" y="0" width="48" height="48">
<circle cx="24" cy="24" r="24" fill="#D9D9D9"/>
</mask>
<g mask="url(#mask0_152_51424)">
<g clip-path="url(#clip1_152_51424)">
<path fill-rule="evenodd" clip-rule="evenodd" d="M-8 0L24 24L-8 48V0ZM56 0L24 24L56 48V0Z" fill="black"/>
<path fill-rule="evenodd" clip-rule="evenodd" d="M-8 0L24 24L56 0H-8ZM-8 48L24 24L56 48H-8Z" fill="#009900"/>
<path fill-rule="evenodd" clip-rule="evenodd" d="M56 0H50.04L-8 43.53V48H-2.04L56 4.47V0Z" fill="#FFCC00"/>
<path fill-rule="evenodd" clip-rule="evenodd" d="M-8 0V4.47L50.04 48H56V43.53L-2.04 0H-8Z" fill="#FFCC00"/>
</g>
</g>
</g>
<defs>
<clipPath id="clip0_152_51424">
<rect width="48" height="48" fill="white"/>
</clipPath>
<clipPath id="clip1_152_51424">
<rect width="64" height="48" fill="white" transform="translate(-8)"/>
</clipPath>
</defs>
</svg>
