<svg width="48" height="48" viewBox="0 0 48 48" fill="none" xmlns="http://www.w3.org/2000/svg">
<g clip-path="url(#clip0_154_54493)">
<mask id="mask0_154_54493" style="mask-type:alpha" maskUnits="userSpaceOnUse" x="0" y="0" width="48" height="48">
<circle cx="24" cy="24" r="24" fill="#D9D9D9"/>
</mask>
<g mask="url(#mask0_154_54493)">
<g clip-path="url(#clip1_154_54493)">
<path fill-rule="evenodd" clip-rule="evenodd" d="M-12 32.0062H60V40.0031H-12V32.0062Z" fill="#FFE700"/>
<path fill-rule="evenodd" clip-rule="evenodd" d="M-12 24H60V31.9969H-12V24Z" fill="black"/>
<path fill-rule="evenodd" clip-rule="evenodd" d="M-12 16.0031H60V24H-12V16.0031Z" fill="#DE3908"/>
<path fill-rule="evenodd" clip-rule="evenodd" d="M-12 8.00623H60V16.0031H-12V8.00623Z" fill="#FFE700"/>
<path fill-rule="evenodd" clip-rule="evenodd" d="M-12 0H60V7.99688H-12V0Z" fill="black"/>
<path fill-rule="evenodd" clip-rule="evenodd" d="M31.4718 24C31.4718 25.9817 30.6846 27.8822 29.2834 29.2834C27.8821 30.6847 25.9816 31.4719 24 31.4719C22.0183 31.4719 20.1178 30.6847 18.7165 29.2834C17.3153 27.8822 16.5281 25.9817 16.5281 24C16.5281 22.0183 17.3153 20.1178 18.7165 18.7166C20.1178 17.3153 22.0183 16.5281 24 16.5281C25.9816 16.5281 27.8821 17.3153 29.2834 18.7166C30.6846 20.1178 31.4718 22.0183 31.4718 24Z" fill="#FFFDFF"/>
<path fill-rule="evenodd" clip-rule="evenodd" d="M24 16.575C22.0307 16.575 20.1421 17.3573 18.7497 18.7497C17.3572 20.1422 16.575 22.0308 16.575 24C16.575 25.9692 17.3572 27.8578 18.7497 29.2503C20.1421 30.6427 22.0307 31.425 24 31.425C25.9692 31.425 27.8578 30.6427 29.2502 29.2503C30.6427 27.8578 31.425 25.9692 31.425 24C31.425 22.0308 30.6427 20.1422 29.2502 18.7497C27.8578 17.3573 25.9692 16.575 24 16.575ZM18.6834 18.6835C20.0934 17.2734 22.0059 16.4813 24 16.4813C25.994 16.4813 27.9065 17.2734 29.3165 18.6835C30.7265 20.0935 31.5187 22.0059 31.5187 24C31.5187 25.9941 30.7265 27.9065 29.3165 29.3166C27.9065 30.7266 25.994 31.5188 24 31.5188C22.0059 31.5188 20.0934 30.7266 18.6834 29.3166C17.2734 27.9065 16.4812 25.9941 16.4812 24C16.4812 22.0059 17.2734 20.0935 18.6834 18.6835Z" fill="black"/>
<path fill-rule="evenodd" clip-rule="evenodd" d="M22.6875 18.2719L22.2 17.3813C22.3875 17.1938 22.6968 17.0438 23.2031 17.0438L23.1468 18.0281L22.6781 18.2719H22.6875Z" fill="#DE3108"/>
<path fill-rule="evenodd" clip-rule="evenodd" d="M22.2583 17.3902L22.7045 18.2053L23.1015 17.9988L23.1534 17.0911C22.7089 17.1001 22.4314 17.2301 22.2583 17.3902ZM22.7495 18.2876L23.1921 18.0574L23.2527 16.9969H23.2031C22.687 16.9969 22.3648 17.1501 22.1668 17.3481L22.142 17.373L22.6463 18.2944L22.6691 18.2819L22.6781 18.3188H22.7665L22.7495 18.2876Z" fill="black"/>
<path fill-rule="evenodd" clip-rule="evenodd" d="M23.1562 18.0281L23.2219 17.0437C23.2219 17.0437 24.225 16.9875 24.7687 17.6437L24.2344 18.4125L23.1469 18.0375L23.1562 18.0281Z" fill="#FFE700"/>
<path fill-rule="evenodd" clip-rule="evenodd" d="M23.2658 17.0895L23.2045 18.0078L24.2161 18.3566L24.7096 17.6466C24.4486 17.3486 24.0862 17.2084 23.7816 17.1435C23.6252 17.1102 23.4854 17.0969 23.3848 17.092C23.3345 17.0896 23.2941 17.0892 23.2664 17.0895C23.2662 17.0895 23.266 17.0895 23.2658 17.0895ZM23.1106 18.0074L23.1778 16.9993L23.2192 16.9969L23.2218 17.0437C23.2192 16.9969 23.2192 16.9969 23.2192 16.9969L23.2193 16.9969L23.2195 16.9969L23.2202 16.9969L23.2226 16.9968C23.2247 16.9967 23.2277 16.9966 23.2317 16.9964C23.2395 16.9962 23.2509 16.9959 23.2656 16.9957C23.2949 16.9955 23.3371 16.9959 23.3893 16.9984C23.4938 17.0035 23.6388 17.0172 23.8011 17.0518C24.125 17.1209 24.5235 17.2743 24.8048 17.6138L24.8275 17.6413L24.2526 18.4684L23.0607 18.0574L23.1106 18.0074Z" fill="black"/>
<path fill-rule="evenodd" clip-rule="evenodd" d="M24.2438 18.4031L24.7406 17.6344C25.0688 17.9813 25.2094 18.225 25.2563 18.6C25.2656 18.6094 24.4781 18.7969 24.4781 18.7875L24.2438 18.4031Z" fill="#DE3108"/>
<path fill-rule="evenodd" clip-rule="evenodd" d="M24.7337 17.5588L24.7747 17.6021C25.1062 17.9526 25.2536 18.2049 25.3025 18.5918C25.3036 18.598 25.3035 18.6047 25.3019 18.6114C25.2988 18.624 25.2914 18.6316 25.2889 18.634C25.2835 18.6393 25.2779 18.6422 25.2765 18.6429L25.2764 18.643C25.2723 18.6451 25.2678 18.6468 25.2649 18.6478C25.2582 18.6502 25.2491 18.6531 25.2386 18.6561C25.2173 18.6623 25.1867 18.6705 25.1504 18.6799C25.0775 18.6988 24.9796 18.7229 24.8816 18.7463C24.7836 18.7698 24.6852 18.7927 24.6112 18.8092C24.5743 18.8174 24.5431 18.8241 24.521 18.8285C24.5101 18.8306 24.5008 18.8324 24.4939 18.8334C24.4907 18.8339 24.4867 18.8344 24.4829 18.8346C24.4815 18.8347 24.4773 18.8349 24.4723 18.8342C24.4704 18.8339 24.4639 18.833 24.4567 18.8293C24.4519 18.8268 24.4424 18.8204 24.4365 18.8092L24.2037 18.4275L24.2438 18.4031L24.2044 18.3777L24.7337 17.5588ZM24.2991 18.4038L24.5021 18.7367C24.5023 18.7366 24.5026 18.7366 24.5029 18.7365C24.5238 18.7324 24.5541 18.7259 24.5908 18.7177C24.6642 18.7014 24.7621 18.6786 24.8598 18.6552C24.9575 18.6318 25.0548 18.6078 25.1269 18.5892C25.1586 18.581 25.1852 18.5739 25.2047 18.5683C25.1572 18.2427 25.0312 18.0179 24.7474 17.7102L24.2991 18.4038ZM24.5194 18.7651L24.5175 18.7619C24.5181 18.7629 24.5188 18.764 24.5194 18.7651Z" fill="black"/>
<path fill-rule="evenodd" clip-rule="evenodd" d="M22.9313 31.0406C22.9313 31.0406 23.8594 29.9812 25.6594 30.2062C25.3875 29.7656 24.5063 29.8219 24.5063 29.8219C24.5063 29.8219 24.2438 27.7594 24.45 27.6469C24.6563 27.5344 25.575 27.6562 25.575 27.6562C25.6875 27.6562 25.8938 27.3375 25.725 27.1312C25.5656 26.925 25.0875 26.1469 25.2844 25.9875C25.4813 25.8375 26.5406 26.0812 26.5406 26.0812L23.5406 22.2375C23.5406 22.2375 23.2313 20.7844 23.85 20.0812C24.5906 19.4719 24.5063 18.8062 24.4875 18.8156C24.3844 18.1406 23.3625 17.6625 22.6688 18.2812C22.2656 18.7687 22.5375 19.1437 22.5375 19.1437C22.5375 19.1437 21.4594 19.4344 21.4219 19.6219C21.375 19.8094 22.6313 19.5937 22.6313 19.5937L22.5094 20.4469C22.5094 20.4469 20.0719 22.6594 21.9469 24.5719L22.0031 24.4969C22.0031 24.4969 22.6594 25.3031 23.3438 25.4812C24 26.1375 23.9344 26.0437 23.9344 26.0437C23.9344 26.0437 24.0563 27.0844 23.9344 27.2906C23.775 27.2437 22.125 27.1781 21.8813 27.2719C21.6563 27.3469 20.8125 27.3 21.0188 28.6875L21.3281 27.9844C21.3281 27.9844 21.3 28.4812 21.5063 28.6594C21.4688 28.1344 21.7031 27.7781 21.7031 27.7781C21.7031 27.7781 21.7406 28.3594 21.8719 28.4344C22.0031 28.5281 22.0031 27.4969 22.7156 27.5906C23.4094 27.675 23.925 27.6469 23.925 27.6469C23.925 27.6469 24.1594 29.6531 24.0844 29.8406C23.5781 29.7187 22.3594 29.8875 22.2844 30.1969C22.9969 30.15 23.325 30.2344 23.325 30.2344C23.325 30.2344 22.7531 30.75 22.9313 31.0406Z" fill="black"/>
<path fill-rule="evenodd" clip-rule="evenodd" d="M24.5275 18.7982C24.4687 18.4466 24.1759 18.1526 23.8138 18.0235C23.4462 17.8925 23.0006 17.9287 22.6407 18.2497C22.6391 18.2512 22.6376 18.2527 22.6363 18.2543C22.4275 18.5068 22.3912 18.7338 22.4101 18.9001C22.4194 18.9825 22.4423 19.0488 22.4629 19.0948C22.4666 19.1031 22.4702 19.1107 22.4737 19.1177C22.4444 19.1259 22.4042 19.1375 22.3565 19.1516C22.2544 19.1819 22.1178 19.2243 21.9798 19.2727C21.8422 19.3209 21.7019 19.3755 21.5931 19.4304C21.5388 19.4577 21.4908 19.4859 21.4546 19.5143C21.4207 19.5408 21.3889 19.5737 21.3807 19.6126C21.3752 19.6359 21.3797 19.6589 21.3942 19.678C21.4073 19.6953 21.4263 19.7062 21.4446 19.7136C21.4812 19.7284 21.5323 19.7356 21.5888 19.7387C21.7034 19.745 21.8587 19.7354 22.0132 19.7201C22.1682 19.7048 22.3245 19.6836 22.4419 19.6662C22.4991 19.6578 22.5471 19.6502 22.5814 19.6447L22.4698 20.4261C22.4654 20.4301 22.4599 20.4354 22.4533 20.4417C22.4356 20.4587 22.41 20.4837 22.3782 20.5161C22.3146 20.581 22.226 20.6757 22.1255 20.7953C21.9249 21.0343 21.6764 21.3737 21.4869 21.7741C21.2974 22.1744 21.1659 22.6377 21.2017 23.1236C21.2377 23.6104 21.4415 24.1165 21.9168 24.6014C21.9254 24.6102 21.9374 24.6148 21.9497 24.6139C21.962 24.6131 21.9733 24.607 21.9807 24.5972L22.0052 24.5645C22.0245 24.5869 22.0516 24.6175 22.0854 24.6542C22.1583 24.7333 22.2626 24.8406 22.3887 24.9536C22.6369 25.1762 22.9737 25.425 23.322 25.5191C23.6445 25.8414 23.791 25.981 23.8571 26.04C23.8738 26.0549 23.8858 26.0651 23.8945 26.072C23.8947 26.0721 23.895 26.0723 23.8952 26.0725C23.8959 26.0784 23.8966 26.0854 23.8975 26.0933C23.9005 26.122 23.9048 26.1633 23.9096 26.2135C23.919 26.3139 23.9304 26.4499 23.938 26.5921C23.9456 26.7345 23.9493 26.8823 23.9437 27.0069C23.9409 27.0692 23.9358 27.1248 23.9278 27.1706C23.9227 27.2001 23.9167 27.224 23.9101 27.2424C23.885 27.2382 23.8523 27.2343 23.8146 27.2305C23.7531 27.2243 23.674 27.2183 23.5833 27.2126C23.4018 27.2013 23.1724 27.1916 22.9405 27.1863C22.7086 27.181 22.4737 27.1801 22.2811 27.1865C22.1849 27.1896 22.0988 27.1946 22.0286 27.2019C21.9605 27.2089 21.9034 27.2184 21.8671 27.2321C21.8422 27.2403 21.8078 27.2472 21.7631 27.2559L21.7588 27.2567C21.7157 27.2651 21.6654 27.2749 21.612 27.2887C21.5015 27.3173 21.375 27.3638 21.2619 27.4546C21.0323 27.6388 20.8728 27.9921 20.9771 28.6937C20.9798 28.7123 20.9946 28.7268 21.0132 28.7293C21.0318 28.7318 21.0498 28.7217 21.0574 28.7045L21.2896 28.1767C21.2916 28.2032 21.2943 28.2314 21.298 28.2604C21.3077 28.3355 21.324 28.4177 21.3519 28.4933C21.3796 28.5686 21.4197 28.6403 21.4787 28.6913C21.4916 28.7024 21.51 28.7047 21.5252 28.6971C21.5404 28.6894 21.5496 28.6734 21.5484 28.6563C21.5301 28.4008 21.578 28.1863 21.6305 28.0357C21.6453 27.9933 21.6604 27.9561 21.6745 27.9244C21.6799 27.9722 21.6872 28.0279 21.6967 28.085C21.7098 28.1633 21.7272 28.2455 21.7502 28.3137C21.7617 28.3477 21.775 28.3795 21.7906 28.406C21.8055 28.4313 21.8245 28.4552 21.8493 28.47C21.8654 28.4808 21.8861 28.4866 21.9081 28.4794C21.928 28.473 21.9416 28.4584 21.9507 28.4461C21.9687 28.4214 21.9841 28.3835 21.9986 28.3432C22.0072 28.3193 22.016 28.2932 22.0254 28.2655C22.0494 28.1945 22.077 28.1127 22.1143 28.0298C22.1659 27.9152 22.2334 27.805 22.3281 27.729C22.4213 27.6542 22.5434 27.6105 22.7102 27.6324L22.7106 27.6325C23.0592 27.6749 23.3631 27.689 23.5798 27.6925C23.6882 27.6943 23.7749 27.6934 23.8346 27.6921C23.8557 27.6916 23.8735 27.6911 23.8876 27.6906C23.8891 27.7035 23.8909 27.7195 23.893 27.7382C23.8993 27.7933 23.9082 27.8724 23.9186 27.9678C23.9393 28.1587 23.9663 28.4151 23.9909 28.6773C24.0154 28.9397 24.0376 29.2074 24.049 29.421C24.0547 29.5278 24.0577 29.6206 24.0569 29.6921C24.0565 29.7278 24.0552 29.7577 24.053 29.781C24.0527 29.7843 24.0523 29.7874 24.052 29.7904C23.7876 29.7382 23.3754 29.7528 23.0155 29.8154C22.825 29.8486 22.6463 29.8956 22.5094 29.9548C22.441 29.9844 22.3814 30.0177 22.3358 30.0551C22.2905 30.0922 22.2558 30.1359 22.2434 30.1869C22.2403 30.2 22.2435 30.2137 22.2521 30.224C22.2608 30.2343 22.2738 30.2398 22.2872 30.2389C22.6414 30.2156 22.8993 30.225 23.0682 30.24C23.1408 30.2465 23.197 30.254 23.2372 30.2604C23.2282 30.2695 23.2184 30.2794 23.2081 30.2902C23.1564 30.3439 23.0891 30.419 23.0273 30.5036C22.9658 30.5879 22.908 30.6838 22.8775 30.7792C22.847 30.8745 22.8419 30.9754 22.8953 31.0626L22.9313 31.0406C22.963 31.0684 22.963 31.0684 22.963 31.0684L22.9631 31.0683L22.9635 31.0679L22.9653 31.0659C22.9669 31.0641 22.9695 31.0613 22.9729 31.0576C22.9798 31.0503 22.9903 31.0394 23.0043 31.0255C23.0324 30.9978 23.0748 30.9581 23.1314 30.911C23.2446 30.8169 23.4143 30.6933 23.6398 30.5765C24.0903 30.3432 24.7638 30.1368 25.6542 30.2481C25.6703 30.2501 25.6861 30.2427 25.6949 30.229C25.7037 30.2154 25.7038 30.1979 25.6953 30.1841C25.5489 29.9467 25.2434 29.8484 24.9876 29.8072C24.858 29.7862 24.7372 29.7794 24.649 29.7778C24.6049 29.7769 24.5687 29.7774 24.5435 29.7781C24.5435 29.7781 24.5434 29.7781 24.5434 29.7781C24.5417 29.7646 24.5397 29.7478 24.5373 29.728C24.5305 29.6715 24.5211 29.5906 24.5104 29.4932C24.4891 29.2984 24.4628 29.0376 24.4429 28.7734C24.423 28.5089 24.4096 28.2422 24.414 28.035C24.4162 27.9313 24.4228 27.8442 24.4347 27.7804C24.4407 27.7484 24.4477 27.724 24.4553 27.7069C24.4633 27.6888 24.4695 27.6843 24.4702 27.6839C24.4899 27.6732 24.5213 27.6637 24.5645 27.6566C24.607 27.6495 24.6579 27.6452 24.7144 27.643C24.8275 27.6387 24.9601 27.6433 25.0872 27.6515C25.2141 27.6596 25.3348 27.6713 25.4237 27.6809C25.4682 27.6857 25.5047 27.69 25.5301 27.6931C25.5427 27.6946 25.5526 27.6959 25.5593 27.6967L25.567 27.6977L25.5689 27.698L25.5694 27.698L25.5695 27.698C25.5713 27.6983 25.5732 27.6984 25.575 27.6984C25.6207 27.6984 25.6651 27.6681 25.6998 27.6328C25.7363 27.5955 25.7702 27.5447 25.7944 27.4875C25.8422 27.3742 25.8557 27.2247 25.7581 27.105C25.6801 27.004 25.5226 26.7608 25.4092 26.5236C25.3523 26.4046 25.3078 26.2897 25.2892 26.1962C25.2799 26.1494 25.2775 26.1104 25.282 26.0801C25.2864 26.0505 25.2967 26.0321 25.3105 26.0207C25.3269 26.0084 25.3565 25.9973 25.4016 25.9901C25.4461 25.9829 25.501 25.9802 25.5632 25.981C25.6875 25.9827 25.8363 25.9989 25.9803 26.0198C26.124 26.0408 26.2618 26.0664 26.3638 26.0869C26.4147 26.0971 26.4567 26.1059 26.4858 26.1123C26.5004 26.1154 26.5118 26.118 26.5195 26.1197L26.5283 26.1217L26.5305 26.1222L26.531 26.1223L26.5312 26.1223C26.5486 26.1263 26.5667 26.119 26.5763 26.1039C26.5858 26.0888 26.5849 26.0694 26.5739 26.0553L23.58 22.2193C23.5796 22.2175 23.5792 22.2153 23.5787 22.2129C23.5767 22.2023 23.5737 22.1866 23.5701 22.1663C23.563 22.1258 23.5534 22.0669 23.5438 21.9939C23.5247 21.848 23.5055 21.6463 23.5055 21.423C23.5055 20.975 23.5827 20.451 23.8795 20.1116C24.2548 19.802 24.4229 19.4767 24.4941 19.228C24.5297 19.1036 24.5411 18.9985 24.5422 18.9243C24.5427 18.8873 24.5407 18.8574 24.5377 18.8363C24.5362 18.826 24.5343 18.8164 24.5317 18.8085C24.531 18.8062 24.5296 18.8024 24.5275 18.7982ZM23.5407 22.2375C23.4994 22.2463 23.4994 22.2462 23.4994 22.2462L23.4993 22.2459L23.4991 22.245L23.4985 22.2417C23.4979 22.2388 23.497 22.2346 23.4959 22.2291C23.4938 22.218 23.4907 22.2018 23.487 22.181C23.4797 22.1393 23.4699 22.0792 23.4602 22.0049C23.4407 21.8564 23.4211 21.6509 23.4211 21.423C23.4211 20.9698 23.4982 20.4171 23.8184 20.0534C23.8199 20.0517 23.8215 20.0501 23.8232 20.0486C24.1867 19.7496 24.3461 19.4383 24.413 19.2048C24.4465 19.0878 24.4568 18.9901 24.4578 18.9231C24.4583 18.8895 24.4564 18.8641 24.4542 18.8483C24.4536 18.8444 24.4531 18.8415 24.4526 18.8393C24.4491 18.8341 24.4468 18.8283 24.4458 18.822C24.3972 18.5035 24.1298 18.2257 23.7855 18.103C23.4437 17.9812 23.0327 18.0148 22.6993 18.3106C22.5067 18.5446 22.4777 18.7479 22.4939 18.8905C22.5021 18.9628 22.5221 19.0207 22.5399 19.0602C22.5487 19.08 22.557 19.0952 22.5629 19.1051C22.5659 19.1101 22.5683 19.1138 22.5698 19.1161C22.5706 19.1173 22.5711 19.1181 22.5714 19.1186L22.5717 19.119C22.5798 19.1302 22.5819 19.1447 22.5773 19.1578C22.5727 19.1709 22.5619 19.1808 22.5485 19.1845L22.5478 19.1847L22.5455 19.1853L22.5366 19.1877C22.5288 19.1899 22.5173 19.1931 22.5026 19.1972C22.4732 19.2055 22.4311 19.2175 22.3805 19.2325C22.2792 19.2626 22.144 19.3045 22.0077 19.3523C21.8712 19.4001 21.7349 19.4533 21.631 19.5057C21.579 19.532 21.5366 19.5573 21.5066 19.5807C21.4764 19.6043 21.4659 19.6207 21.4636 19.6288C21.4639 19.629 21.4642 19.6292 21.4645 19.6294C21.467 19.6311 21.4708 19.6332 21.4762 19.6354C21.4993 19.6447 21.5388 19.6514 21.5934 19.6544C21.7012 19.6604 21.8511 19.6513 22.0049 19.6361C22.1581 19.621 22.3129 19.6 22.4296 19.5828C22.4879 19.5741 22.5366 19.5665 22.5707 19.561C22.5877 19.5582 22.6011 19.556 22.6103 19.5545L22.6206 19.5527L22.6241 19.5522C22.6374 19.5499 22.651 19.5541 22.6607 19.5635C22.6704 19.5729 22.675 19.5863 22.6731 19.5997L22.5512 20.4528C22.5498 20.4625 22.545 20.4715 22.5378 20.4781L22.5374 20.4784L22.5362 20.4795L22.5312 20.4841C22.5268 20.4882 22.5202 20.4944 22.5117 20.5026C22.4946 20.519 22.4696 20.5434 22.4385 20.5752C22.3761 20.6388 22.289 20.7319 22.1902 20.8496C21.9924 21.0851 21.7486 21.4184 21.5632 21.8102C21.3777 22.2021 21.2514 22.6505 21.2859 23.1174C21.3194 23.5716 21.5053 24.0465 21.9429 24.5069L21.9694 24.4715C21.9772 24.4612 21.9893 24.4549 22.0023 24.4547C22.0153 24.4544 22.0277 24.4601 22.0359 24.4702L22.0363 24.4707L22.0376 24.4723C22.0383 24.4732 22.0392 24.4743 22.0404 24.4756C22.0412 24.4766 22.0421 24.4777 22.0431 24.4789C22.0479 24.4847 22.0552 24.4933 22.0647 24.5043C22.0837 24.5264 22.1117 24.5582 22.1474 24.597C22.219 24.6747 22.3214 24.78 22.445 24.8908C22.6933 25.1135 23.0223 25.354 23.3544 25.4404C23.3617 25.4423 23.3683 25.4461 23.3736 25.4514C23.7018 25.7796 23.8487 25.9194 23.9133 25.9771C23.9265 25.9888 23.9359 25.9969 23.9425 26.0023C23.953 26.0044 23.9625 26.0103 23.969 26.0195L23.9344 26.0437L23.8941 26.0485C23.8941 26.0484 23.8941 26.0485 23.8941 26.0485L23.9344 26.0437C23.969 26.0195 23.969 26.0195 23.969 26.0195L23.9691 26.0196L23.9691 26.0197L23.9693 26.02L23.9698 26.0207C23.97 26.021 23.9702 26.0214 23.9705 26.0218C23.9707 26.0221 23.9708 26.0224 23.971 26.0227C23.9718 26.0239 23.9736 26.0269 23.9751 26.0308C23.9759 26.0327 23.9772 26.0364 23.978 26.0412C23.9783 26.0434 23.9788 26.0479 23.978 26.0537C23.9789 26.0612 23.98 26.0716 23.9814 26.0843C23.9845 26.1134 23.9888 26.155 23.9936 26.2056C24.0031 26.3067 24.0146 26.4438 24.0222 26.5876C24.0299 26.7311 24.0338 26.8821 24.028 27.0107C24.0251 27.0749 24.0197 27.1344 24.011 27.185C24.0024 27.2346 23.9899 27.2796 23.9707 27.3121C23.9609 27.3287 23.941 27.3365 23.9225 27.3311C23.9071 27.3265 23.8679 27.3207 23.8062 27.3145C23.7461 27.3084 23.6682 27.3024 23.578 27.2968C23.3977 27.2856 23.1695 27.2759 22.9385 27.2707C22.7075 27.2654 22.4743 27.2645 22.2839 27.2708C22.1887 27.2739 22.1047 27.2788 22.0373 27.2858C21.9685 27.2929 21.9211 27.3017 21.8964 27.3112C21.8958 27.3115 21.8952 27.3117 21.8946 27.3119C21.8633 27.3223 21.8225 27.3303 21.7792 27.3387L21.7755 27.3394C21.7321 27.3479 21.684 27.3572 21.6332 27.3704C21.5286 27.3975 21.4149 27.44 21.3147 27.5204C21.1328 27.6663 20.983 27.9479 21.0417 28.5308L21.2896 27.9674C21.2978 27.9487 21.3182 27.9386 21.338 27.9433C21.3578 27.9481 21.3714 27.9664 21.3703 27.9867M21.3703 27.9867L21.3703 27.987L21.3702 27.9879L21.3701 27.9918C21.3699 27.9952 21.3697 28.0004 21.3695 28.0072C21.3692 28.0206 21.3689 28.0402 21.3692 28.0643C21.3698 28.1125 21.3726 28.1785 21.3817 28.2497C21.3909 28.3211 21.4061 28.3965 21.431 28.4642C21.4397 28.4876 21.4493 28.5098 21.4601 28.5303C21.4621 28.3188 21.5048 28.1401 21.5508 28.008C21.5785 27.9285 21.6075 27.8658 21.6296 27.8227C21.6407 27.8011 21.6501 27.7844 21.6568 27.773C21.6602 27.7673 21.6629 27.7629 21.6648 27.7599C21.6657 27.7584 21.6664 27.7572 21.667 27.7564L21.6676 27.7554L21.6679 27.755C21.6679 27.755 21.6679 27.7549 21.7032 27.7781L21.6679 27.755C21.6778 27.7398 21.6964 27.7327 21.714 27.7373C21.7315 27.742 21.7441 27.7573 21.7453 27.7754L21.7453 27.7757L21.7454 27.7769L21.7457 27.7816C21.746 27.7858 21.7465 27.792 21.7471 27.7999C21.7484 27.8157 21.7503 27.8384 21.7531 27.8659C21.7586 27.921 21.7672 27.995 21.7799 28.0712C21.7927 28.1476 21.8092 28.2248 21.8301 28.2867C21.8406 28.3176 21.8518 28.3435 21.8633 28.3632C21.8716 28.3773 21.8792 28.3865 21.8854 28.3921C21.8947 28.3777 21.9056 28.3524 21.9192 28.3146C21.9269 28.2933 21.9351 28.269 21.9441 28.2424C21.9684 28.1704 21.9982 28.0822 22.0374 27.9952C22.0913 27.8754 22.1655 27.7512 22.2753 27.6632C22.3865 27.5739 22.5316 27.5239 22.721 27.5487C23.066 27.5907 23.3668 27.6047 23.5812 27.6082C23.6884 27.6099 23.774 27.6091 23.8327 27.6077C23.862 27.6071 23.8847 27.6063 23.8999 27.6057C23.9075 27.6054 23.9133 27.6052 23.9171 27.605L23.9214 27.6048L23.9224 27.6047L23.9227 27.6047C23.9449 27.6035 23.9644 27.6198 23.9669 27.642L23.925 27.6468C23.9669 27.642 23.9669 27.6419 23.9669 27.642L23.9696 27.6646C23.9713 27.6794 23.9738 27.701 23.9769 27.7287C23.9832 27.7839 23.992 27.8631 24.0024 27.9587C24.0232 28.1498 24.0502 28.4067 24.0749 28.6695C24.0995 28.9322 24.1218 29.2012 24.1333 29.4165C24.139 29.5241 24.1421 29.6188 24.1413 29.6929C24.1409 29.73 24.1395 29.7625 24.137 29.7891C24.1345 29.8147 24.1307 29.8386 24.1236 29.8563C24.1158 29.8757 24.0949 29.8865 24.0745 29.8816C23.8295 29.8226 23.4048 29.8334 23.0299 29.8986C22.843 29.9311 22.6714 29.9766 22.5429 30.0322C22.4786 30.0601 22.4267 30.0897 22.3893 30.1204C22.3769 30.1305 22.3665 30.1404 22.3578 30.1502C22.6774 30.1326 22.9148 30.1417 23.0757 30.156C23.1623 30.1637 23.2267 30.1729 23.2698 30.1803C23.2913 30.184 23.3074 30.1872 23.3184 30.1896C23.3238 30.1907 23.328 30.1917 23.3308 30.1923L23.3342 30.1931L23.3351 30.1934L23.3354 30.1934L23.3355 30.1935C23.3355 30.1935 23.3355 30.1935 23.325 30.2343L23.3355 30.1935C23.3505 30.1973 23.3623 30.2092 23.366 30.2243C23.3697 30.2394 23.3648 30.2553 23.3533 30.2657C23.3533 30.2657 23.3533 30.2657 23.3533 30.2657L23.353 30.266L23.3519 30.267L23.3474 30.2711C23.3434 30.2748 23.3375 30.2804 23.33 30.2875C23.3151 30.3018 23.2939 30.3227 23.2689 30.3487C23.2189 30.4007 23.1543 30.4728 23.0954 30.5534C23.0363 30.6344 22.9844 30.7218 22.9578 30.8049C22.9388 30.8642 22.9336 30.9182 22.9452 30.9654C22.9749 30.9361 23.019 30.8948 23.0775 30.8462C23.1946 30.7487 23.3693 30.6215 23.601 30.5016C24.0477 30.2702 24.7052 30.066 25.5664 30.1532C25.4266 30.0012 25.1936 29.9258 24.9742 29.8905C24.8495 29.8703 24.733 29.8637 24.6475 29.8621C24.6047 29.8613 24.5699 29.8618 24.5459 29.8625C24.5338 29.8628 24.5245 29.8632 24.5182 29.8635C24.5162 29.8636 24.5145 29.8636 24.5132 29.8637L24.5112 29.8638L24.5094 29.8639L24.5091 29.8639C24.4868 29.8654 24.4673 29.8493 24.4644 29.8272L24.5063 29.8219C24.4644 29.8272 24.4644 29.8272 24.4644 29.8272L24.4644 29.8271L24.4644 29.8268L24.4637 29.8212L24.4615 29.8038C24.4596 29.7887 24.4569 29.7664 24.4535 29.738C24.4467 29.6813 24.4373 29.6001 24.4266 29.5024C24.4051 29.307 24.3787 29.0452 24.3588 28.7797C24.3388 28.5145 24.3252 28.2445 24.3296 28.0333C24.3319 27.9279 24.3386 27.8354 24.3518 27.7649C24.3584 27.7297 24.3668 27.6982 24.3781 27.6728C24.3889 27.6483 24.4048 27.6235 24.4298 27.6098C24.4618 27.5924 24.5042 27.581 24.5507 27.5733C24.5979 27.5655 24.6526 27.5609 24.7112 27.5587C24.8284 27.5542 24.9642 27.559 25.0926 27.5672C25.2211 27.5755 25.3431 27.5873 25.4328 27.597C25.4777 27.6019 25.5146 27.6062 25.5403 27.6093C25.5473 27.6102 25.5536 27.611 25.5589 27.6116C25.5632 27.6122 25.5669 27.6126 25.57 27.613L25.577 27.6139C25.5884 27.6129 25.611 27.6028 25.6396 27.5736C25.6681 27.5446 25.6963 27.5029 25.7166 27.4547C25.7578 27.3572 25.7631 27.2444 25.6924 27.1579L25.6916 27.157C25.6101 27.0515 25.4492 26.8028 25.3331 26.56C25.2751 26.4387 25.2271 26.3164 25.2064 26.2127C25.1961 26.1608 25.1921 26.1113 25.1986 26.0678C25.2051 26.0238 25.2227 25.9832 25.2579 25.9547L25.2588 25.9539C25.2918 25.9288 25.3382 25.9148 25.3882 25.9068C25.4393 25.8986 25.4995 25.8958 25.5643 25.8967C25.694 25.8985 25.847 25.9152 25.9925 25.9364C26.1382 25.9576 26.2775 25.9835 26.3804 26.0041C26.4003 26.0081 26.4188 26.0119 26.4358 26.0154L23.5074 22.2634C23.5035 22.2584 23.5007 22.2525 23.4994 22.2462L23.5407 22.2375M24.4515 18.8346C24.4515 18.8346 24.4515 18.8347 24.4515 18.8346V18.8346Z" fill="black"/>
<path fill-rule="evenodd" clip-rule="evenodd" d="M23.2125 20.1375C23.2125 20.1375 21.4406 22.0875 22.2093 23.5781C22.2468 23.3719 22.2281 23.2406 22.2562 23.25C22.2093 23.2219 22.4718 23.4281 22.4531 23.3906C22.4531 23.2781 22.3781 23.0437 22.3781 23.0437L22.6125 23.1094L22.4718 22.8469L22.8187 22.8844C22.8187 22.8844 22.6968 22.5656 22.7343 22.5656L23.0156 22.5844C22.5093 21.6844 22.9875 20.9344 23.2125 20.1281V20.1375Z" fill="#9CA69C"/>
<path fill-rule="evenodd" clip-rule="evenodd" d="M23.2182 20.0863C23.2391 20.0892 23.2546 20.107 23.2546 20.1281V20.1375C23.2546 20.1464 23.2518 20.155 23.2467 20.1622C23.2006 20.3238 23.1449 20.4832 23.0898 20.6408C23.0783 20.6737 23.0668 20.7065 23.0554 20.7393C22.9869 20.9369 22.9227 21.1322 22.8811 21.3298C22.7982 21.7233 22.8054 22.1248 23.0523 22.5637C23.0599 22.5772 23.0595 22.5938 23.0513 22.6069C23.043 22.62 23.0282 22.6275 23.0128 22.6265L22.7738 22.6105C22.7796 22.6377 22.7903 22.6742 22.8026 22.712C22.8153 22.7512 22.8291 22.7906 22.8399 22.8202C22.8453 22.835 22.8498 22.8473 22.853 22.8559L22.8568 22.8659L22.8578 22.8685L22.858 22.8691L22.8581 22.8693C22.8633 22.883 22.8611 22.8985 22.8521 22.9101C22.8431 22.9218 22.8288 22.9279 22.8142 22.9263L22.5468 22.8974L22.6496 23.0895C22.6576 23.1044 22.6559 23.1226 22.6454 23.1358C22.6348 23.149 22.6173 23.1546 22.6011 23.15L22.4403 23.105C22.4454 23.1229 22.4509 23.1431 22.4564 23.1645C22.4744 23.2342 22.4939 23.322 22.4952 23.3841C22.4956 23.386 22.4959 23.388 22.4961 23.3902C22.4969 23.4007 22.4939 23.4193 22.476 23.4306C22.4625 23.4391 22.4493 23.4374 22.4456 23.4369C22.4403 23.4362 22.4359 23.4347 22.4332 23.4337C22.4232 23.4299 22.4112 23.4227 22.4009 23.416C22.3782 23.4015 22.3476 23.3793 22.3187 23.3575C22.3049 23.3471 22.2914 23.3367 22.2789 23.3269C22.2788 23.3297 22.2786 23.3327 22.2784 23.3358C22.2783 23.3379 22.2781 23.34 22.278 23.3422C22.2745 23.3995 22.2694 23.4837 22.2508 23.5857C22.2476 23.6034 22.2334 23.6172 22.2155 23.6199C22.1977 23.6225 22.1801 23.6135 22.1718 23.5975C21.7776 22.833 22.0368 21.9561 22.3851 21.2795C22.5599 20.9399 22.7588 20.6476 22.9138 20.4402C22.9914 20.3365 23.0581 20.2539 23.1054 20.1972C23.1291 20.1688 23.148 20.1469 23.161 20.132C23.1647 20.1278 23.1679 20.1241 23.1706 20.121C23.171 20.1196 23.1714 20.1182 23.1718 20.1168C23.1775 20.0965 23.1973 20.0835 23.2182 20.0863ZM23.1076 20.3278C23.0708 20.3736 23.0281 20.4283 22.9814 20.4907C22.8282 20.6956 22.6322 20.9839 22.4601 21.3181C22.135 21.9498 21.9012 22.734 22.187 23.4294C22.1903 23.394 22.1922 23.3628 22.1938 23.3365L22.1942 23.3306C22.1958 23.3031 22.1974 23.2778 22.2009 23.2602C22.2023 23.2528 22.2051 23.2408 22.2121 23.2302C22.2235 23.2041 22.2504 23.2051 22.2537 23.2053C22.2601 23.2057 22.265 23.2075 22.2664 23.208C22.2685 23.2088 22.2703 23.2097 22.2714 23.2102C22.2738 23.2114 22.276 23.2127 22.2779 23.2138C22.2847 23.2179 22.2899 23.2236 22.2934 23.2301C22.2945 23.231 22.2956 23.232 22.2969 23.233C22.3139 23.2472 22.3412 23.2688 22.3695 23.2902C22.3809 23.2988 22.3923 23.3072 22.4031 23.3151C22.3963 23.2743 22.3858 23.2284 22.3747 23.1855C22.3655 23.1498 22.3563 23.1175 22.3493 23.0941C22.3459 23.0824 22.343 23.073 22.341 23.0665L22.3387 23.0591L22.3381 23.0572L22.3379 23.0566L22.3781 23.0438M22.9423 22.5372C22.719 22.1023 22.7168 21.7004 22.7985 21.3124C22.8413 21.1092 22.9071 20.9096 22.9757 20.7117C22.9872 20.6785 22.9988 20.6453 23.0104 20.6122C23.0435 20.5173 23.0766 20.4227 23.1076 20.3278" fill="#9CA69C"/>
<path fill-rule="evenodd" clip-rule="evenodd" d="M23.8313 18.4594C23.8313 18.4594 23.925 19.1344 23.55 19.3219C23.5032 19.3687 23.2688 19.4437 23.3063 19.5844C23.3438 19.7719 23.4469 19.7344 23.5875 19.6969C23.9719 19.6312 24.4219 18.8156 23.8313 18.4594Z" fill="#9CA69C"/>
<path fill-rule="evenodd" clip-rule="evenodd" d="M23.7712 18.3685L23.8554 18.4192C24.0129 18.5142 24.1034 18.6417 24.1415 18.7814C24.1794 18.9201 24.1649 19.0672 24.1194 19.2021C24.0738 19.337 23.9963 19.4621 23.9047 19.5583C23.8142 19.6531 23.7063 19.7234 23.5975 19.7427C23.592 19.7442 23.5865 19.7457 23.5809 19.7472C23.553 19.7547 23.5247 19.7624 23.4984 19.7675C23.4663 19.7738 23.432 19.7774 23.3992 19.771C23.3644 19.7642 23.3334 19.7466 23.309 19.7149C23.286 19.685 23.2706 19.6448 23.2605 19.5949C23.2343 19.4931 23.3094 19.4221 23.3694 19.3797C23.3998 19.3582 23.4326 19.3397 23.4592 19.3246C23.4608 19.3238 23.4623 19.3229 23.4637 19.3221C23.4779 19.3141 23.4898 19.3073 23.4995 19.3012C23.5097 19.2947 23.5148 19.2907 23.5168 19.2887L23.5222 19.2833L23.529 19.2799C23.6939 19.1975 23.7616 19.004 23.7847 18.8146C23.796 18.7219 23.796 18.6343 23.7932 18.5698C23.7917 18.5377 23.7896 18.5114 23.7878 18.4933C23.787 18.4842 23.7862 18.4772 23.7856 18.4725C23.7853 18.4702 23.7851 18.4685 23.785 18.4673L23.7848 18.4661L23.7848 18.4658L23.7712 18.3685ZM23.8863 18.5556C23.8865 18.5589 23.8867 18.5623 23.8868 18.5657C23.8898 18.6336 23.8898 18.7266 23.8777 18.826C23.8542 19.0191 23.7824 19.2542 23.5769 19.3607C23.5684 19.3681 23.5586 19.3748 23.5494 19.3805C23.5375 19.388 23.5237 19.3959 23.5099 19.4037C23.5087 19.4043 23.5076 19.405 23.5064 19.4057C23.4789 19.4212 23.4499 19.4376 23.4235 19.4563C23.3643 19.498 23.3413 19.5343 23.3515 19.5723L23.3519 19.5737L23.3522 19.5752C23.3608 19.6184 23.3723 19.6434 23.3833 19.6577C23.3932 19.6706 23.4038 19.6764 23.4171 19.679C23.4323 19.682 23.4525 19.6809 23.4805 19.6755C23.5031 19.6711 23.5274 19.6645 23.5551 19.657C23.5617 19.6553 23.5684 19.6534 23.5754 19.6516L23.5774 19.651L23.5796 19.6507C23.6622 19.6366 23.7538 19.5806 23.8368 19.4936C23.9192 19.4072 23.9894 19.2938 24.0305 19.1721C24.0717 19.0503 24.0829 18.9227 24.0511 18.8062C24.0263 18.7152 23.9746 18.6288 23.8863 18.5556Z" fill="#9CA69C"/>
<path fill-rule="evenodd" clip-rule="evenodd" d="M23.175 19.0312C23.175 19.0685 23.1602 19.1043 23.1339 19.1307C23.1075 19.1571 23.0717 19.1719 23.0344 19.1719C22.9971 19.1719 22.9614 19.1571 22.935 19.1307C22.9086 19.1043 22.8938 19.0685 22.8938 19.0312C22.8938 18.994 22.9086 18.9582 22.935 18.9318C22.9614 18.9054 22.9971 18.8906 23.0344 18.8906C23.0717 18.8906 23.1075 18.9054 23.1339 18.9318C23.1602 18.9582 23.175 18.994 23.175 19.0312Z" fill="white"/>
<path fill-rule="evenodd" clip-rule="evenodd" d="M22.6031 19.5938C22.5094 19.6781 22.0219 20.1844 22.5094 20.3719C23.0062 20.2406 22.8656 20.1469 22.9781 20.0344C22.9781 19.8 22.7344 19.7438 22.6031 19.6031V19.5938Z" fill="#DE3108"/>
<path fill-rule="evenodd" clip-rule="evenodd" d="M22.65 19.584V19.4885L22.5718 19.5589C22.5232 19.6027 22.3722 19.7555 22.2956 19.9248C22.2572 20.0096 22.2343 20.1054 22.2601 20.1959C22.2866 20.2892 22.3613 20.3652 22.4926 20.4157L22.5067 20.4211L22.5214 20.4172C22.7701 20.3515 22.8737 20.2922 22.9252 20.2245C22.9474 20.1953 22.9586 20.1658 22.9673 20.1428C22.9686 20.1395 22.9698 20.1362 22.971 20.1332C22.9804 20.109 22.9898 20.089 23.0113 20.0675L23.025 20.0538V20.0344C23.025 19.8966 22.9515 19.8119 22.8689 19.7468C22.8394 19.7236 22.8071 19.7016 22.7765 19.6808C22.7653 19.6732 22.7544 19.6657 22.7438 19.6584C22.7087 19.634 22.6769 19.6102 22.65 19.584ZM22.598 19.6638C22.537 19.7258 22.4361 19.8416 22.381 19.9635C22.3467 20.0393 22.3333 20.1105 22.3503 20.1703C22.3658 20.2248 22.4098 20.28 22.5123 20.3226C22.7485 20.2589 22.8207 20.207 22.8506 20.1677C22.8641 20.15 22.8704 20.1336 22.8793 20.1104C22.8806 20.1068 22.8821 20.1031 22.8836 20.0991C22.8933 20.0743 22.9058 20.046 22.9307 20.0167C22.9251 19.9303 22.8784 19.8737 22.8108 19.8204C22.7842 19.7994 22.756 19.7803 22.7263 19.76C22.7146 19.7521 22.7026 19.7439 22.6903 19.7354C22.6592 19.7138 22.6273 19.6904 22.598 19.6638Z" fill="black"/>
<path fill-rule="evenodd" clip-rule="evenodd" d="M23.6812 24.4219C23.6531 24.5344 23.5406 24.9469 23.6906 25.2656C24.1218 25.0781 24.3187 25.1344 24.4593 25.2281C24.1125 24.9469 23.9718 24.825 23.6812 24.4219Z" fill="#9CA69C"/>
<path fill-rule="evenodd" clip-rule="evenodd" d="M23.7155 24.3972C24.0032 24.7963 24.1409 24.9156 24.486 25.1954C24.5035 25.2096 24.5067 25.235 24.4934 25.2532C24.48 25.2713 24.4548 25.2757 24.436 25.2632C24.3709 25.2199 24.2942 25.1858 24.1832 25.1836C24.0707 25.1814 23.9199 25.212 23.7075 25.3043C23.6866 25.3134 23.6622 25.3042 23.6525 25.2836C23.573 25.1147 23.564 24.9234 23.5771 24.763C23.5894 24.6132 23.6215 24.4864 23.6371 24.4245C23.6383 24.4198 23.6394 24.4155 23.6404 24.4117L23.6813 24.4219L23.7155 24.3972ZM23.7008 24.5202C23.9027 24.7933 24.0364 24.93 24.2408 25.1029C24.2229 25.1009 24.2043 25.0996 24.1848 25.0992C24.0637 25.0969 23.9121 25.1277 23.7127 25.2104C23.6569 25.0694 23.6496 24.9109 23.6612 24.7699C23.6692 24.6725 23.686 24.5853 23.7008 24.5202Z" fill="#9CA69C"/>
<path fill-rule="evenodd" clip-rule="evenodd" d="M24.4125 26.3531L24.4312 27.3094C24.4312 27.3094 24.7687 27.3656 24.9187 27.3094C25.0687 27.2531 24.9187 26.6531 24.4125 26.3531Z" fill="white"/>
<path fill-rule="evenodd" clip-rule="evenodd" d="M24.3913 26.3167C24.4045 26.3089 24.4209 26.309 24.4341 26.3168C24.696 26.472 24.8656 26.7046 24.9506 26.9062C24.9931 27.0068 25.0154 27.102 25.0164 27.1779C25.0168 27.2157 25.012 27.2511 24.9999 27.2806C24.9875 27.3105 24.9662 27.3366 24.9336 27.3489C24.8901 27.3652 24.8358 27.3725 24.7815 27.3752C24.7265 27.378 24.6685 27.3761 24.6159 27.3725C24.5633 27.3689 24.5155 27.3636 24.481 27.3591C24.4637 27.3569 24.4496 27.3548 24.4398 27.3534C24.435 27.3526 24.4311 27.352 24.4285 27.3516L24.4255 27.3511L24.4247 27.351L24.4245 27.351C24.4245 27.351 24.4244 27.351 24.4313 27.3093L24.4244 27.351C24.4043 27.3476 24.3895 27.3305 24.3891 27.3102L24.3704 26.3539C24.3701 26.3386 24.3781 26.3244 24.3913 26.3167ZM24.4728 27.2729C24.4785 27.2737 24.4849 27.2745 24.4918 27.2754C24.5252 27.2797 24.5712 27.2849 24.6217 27.2884C24.6723 27.2918 24.7267 27.2935 24.7772 27.2909C24.8284 27.2884 24.8725 27.2816 24.904 27.2698C24.9089 27.268 24.9158 27.2631 24.9219 27.2483C24.9282 27.233 24.9324 27.21 24.932 27.1789C24.9312 27.1171 24.9125 27.033 24.8729 26.939C24.8011 26.7688 24.6638 26.5739 24.4563 26.4311L24.4728 27.2729Z" fill="white"/>
<path fill-rule="evenodd" clip-rule="evenodd" d="M26.8125 26.475C26.8125 26.475 26.2031 24.9938 24.6375 24.6188C23.0719 24.2438 23.2781 22.575 23.4 22.4719C23.475 22.3313 23.5219 22.1063 23.9719 22.3219C24.4219 22.5375 26.5031 23.5781 26.8031 23.6344C27.1031 23.6906 26.8406 26.5125 26.8219 26.475H26.8125Z" fill="#9CA69C"/>
<path fill-rule="evenodd" clip-rule="evenodd" d="M23.4646 22.4474C23.4572 22.4628 23.4494 22.4789 23.4414 22.4939L23.4372 22.5018L23.4303 22.5076C23.4305 22.5075 23.4305 22.5075 23.4302 22.5079C23.4293 22.5091 23.4253 22.5145 23.4196 22.5275C23.4131 22.5425 23.4062 22.5633 23.3994 22.5898C23.386 22.6428 23.3744 22.715 23.3686 22.8013C23.3569 22.9736 23.3683 23.1983 23.4312 23.4311C23.5565 23.8947 23.8853 24.3903 24.6484 24.5731C25.444 24.7637 25.9958 25.2352 26.3481 25.6574C26.5243 25.8686 26.651 26.068 26.7337 26.2147C26.7581 26.258 26.7787 26.2967 26.7956 26.3299C26.8033 26.2588 26.8126 26.1634 26.8224 26.0508C26.8449 25.7912 26.87 25.4409 26.8852 25.0878C26.9004 24.7344 26.9056 24.3795 26.8885 24.1102C26.8799 23.9751 26.8658 23.864 26.8455 23.7859C26.8353 23.7467 26.8241 23.7185 26.813 23.7004C26.8076 23.6915 26.8029 23.6863 26.7995 23.6834C26.7963 23.6808 26.7947 23.6805 26.7945 23.6804C26.7519 23.6724 26.6826 23.6483 26.5966 23.6142C26.5092 23.5796 26.4008 23.5332 26.2784 23.4787C26.0335 23.3696 25.7307 23.2273 25.4235 23.0801C25.1163 22.933 24.8044 22.7809 24.5413 22.6521C24.4756 22.6199 24.413 22.5892 24.3542 22.5605C24.1775 22.4739 24.0359 22.4045 23.9516 22.3641C23.7299 22.2579 23.6256 22.2694 23.5696 22.3033C23.5404 22.3211 23.5182 22.3482 23.4982 22.3825C23.4882 22.3996 23.4791 22.4177 23.4698 22.4367C23.4681 22.4402 23.4664 22.4438 23.4646 22.4474ZM26.7692 26.4928L26.7691 26.4927L26.7688 26.492L26.7676 26.4891C26.7665 26.4865 26.7648 26.4825 26.7624 26.4772C26.7578 26.4667 26.7506 26.451 26.741 26.4308C26.7217 26.3904 26.6922 26.3321 26.652 26.2607C26.5715 26.1179 26.448 25.9235 26.2761 25.7175C25.9323 25.3054 25.3967 24.8488 24.6266 24.6643C23.8242 24.4721 23.4732 23.9459 23.3407 23.4556C23.2747 23.2114 23.2627 22.9761 23.275 22.7949C23.2812 22.7043 23.2935 22.6263 23.3086 22.5668C23.3161 22.5371 23.3245 22.5112 23.3337 22.4901C23.3407 22.474 23.3497 22.4568 23.3619 22.4436C23.3678 22.4322 23.3736 22.4202 23.3799 22.4073C23.3817 22.4035 23.3836 22.3996 23.3855 22.3957C23.3949 22.3763 23.4053 22.3555 23.4173 22.3351C23.4412 22.2943 23.473 22.2523 23.521 22.2232C23.6198 22.1633 23.7639 22.1702 23.9922 22.2796C24.0768 22.3201 24.219 22.3898 24.3959 22.4765C24.4546 22.5052 24.5171 22.5358 24.5825 22.5679C24.8456 22.6966 25.1572 22.8486 25.464 22.9956C25.7709 23.1426 26.0728 23.2845 26.3166 23.393C26.4385 23.4473 26.5455 23.4932 26.6311 23.5271C26.718 23.5615 26.7794 23.5822 26.8118 23.5883C26.8493 23.5953 26.8753 23.6226 26.893 23.6514C26.911 23.6808 26.9249 23.719 26.9362 23.7623C26.9589 23.8491 26.9734 23.9674 26.9821 24.1042C26.9995 24.3786 26.9941 24.7375 26.9789 25.0918C26.9636 25.4465 26.9384 25.7982 26.9158 26.0589C26.9045 26.1892 26.8938 26.2971 26.8854 26.3713C26.8811 26.4083 26.8774 26.4375 26.8744 26.457C26.8729 26.4665 26.8714 26.4751 26.8699 26.4814L26.8698 26.4816C26.8693 26.4837 26.8678 26.4901 26.8646 26.4962C26.8636 26.4981 26.8616 26.5016 26.8584 26.5054C26.8557 26.5086 26.8485 26.5164 26.836 26.5202C26.8293 26.5222 26.8226 26.5227 26.8164 26.5219H26.7811L26.7692 26.4928Z" fill="black"/>
<path fill-rule="evenodd" clip-rule="evenodd" d="M25.3313 24.6094C25.3031 24.6281 27.4219 25.8656 26.7844 26.925C27.3844 26.5219 27.1969 25.8281 27.1969 25.8281C27.1969 25.8281 27.6844 27.1125 26.4844 27.7406C26.6156 27.8531 26.7 27.8344 26.7 27.8344L26.4938 28.0313C26.4938 28.0313 26.4 28.1906 27.2063 27.7969C26.9906 27.975 26.9719 28.1063 26.9719 28.1063C26.9719 28.1063 27.0281 28.275 27.5531 27.8156C27.1313 28.275 27.0375 28.5094 27.0375 28.5C28.1906 28.4063 30.6938 24.6563 26.25 23.5594L26.4469 23.7656L25.3219 24.6094H25.3313Z" fill="#DE3108"/>
<path fill-rule="evenodd" clip-rule="evenodd" d="M26.2135 23.5382C26.2229 23.522 26.2419 23.5139 26.2601 23.5184C27.3768 23.7941 28.0639 24.2381 28.4439 24.756C28.8245 25.2746 28.893 25.8618 28.7839 26.4141C28.6751 26.9655 28.3891 27.4838 28.0578 27.8702C27.8921 28.0635 27.7143 28.2247 27.5404 28.3409C27.3689 28.4555 27.1985 28.528 27.0457 28.5417C27.0378 28.5432 27.0271 28.5431 27.0161 28.5366C27.0019 28.5282 26.9978 28.515 26.9967 28.511C26.9954 28.5059 26.9953 28.5017 26.9953 28.5C26.9953 28.4904 26.9985 28.4815 27.004 28.4743L27.005 28.4724C27.0083 28.4662 27.0139 28.4556 27.0218 28.4412C27.0377 28.4125 27.0632 28.3687 27.1019 28.3103C27.1406 28.2519 27.1925 28.179 27.2612 28.0918C27.1796 28.142 27.119 28.166 27.0735 28.1747C27.026 28.1837 26.9909 28.1769 26.9661 28.161C26.9541 28.1533 26.9459 28.1443 26.9406 28.1366C26.9379 28.1327 26.936 28.1292 26.9346 28.1263C26.9339 28.1249 26.9333 28.1236 26.9329 28.1225L26.9323 28.1209L26.932 28.1202L26.9319 28.1199L26.9319 28.1198C26.9319 28.1197 26.9318 28.1196 26.9719 28.1063C26.9301 28.1003 26.9301 28.1003 26.9301 28.1003L26.9301 28.1002L26.9301 28.1001L26.9302 28.0998L26.9303 28.099L26.9307 28.0969C26.931 28.0953 26.9314 28.0932 26.932 28.0906C26.9333 28.0853 26.9352 28.0782 26.9382 28.0694C26.9442 28.0518 26.9544 28.0273 26.9716 27.9974C26.9823 27.9787 26.9958 27.9579 27.0126 27.9354C26.9144 27.9803 26.8347 28.014 26.77 28.039C26.6645 28.0797 26.5967 28.0983 26.5527 28.1036C26.5309 28.1063 26.5116 28.1061 26.4953 28.1016C26.4777 28.0967 26.4612 28.0858 26.453 28.0668C26.4456 28.0499 26.4484 28.0342 26.4506 28.0262C26.4518 28.0217 26.4533 28.018 26.4545 28.0154C26.4551 28.0141 26.4557 28.013 26.4562 28.012L26.4568 28.0108L26.4571 28.0103L26.4572 28.0101L26.4573 28.01C26.4573 28.0099 26.4574 28.0099 26.4937 28.0313L26.4574 28.0099C26.4593 28.0065 26.4618 28.0035 26.4646 28.0008L26.6081 27.8638C26.5668 27.8498 26.5154 27.8229 26.4569 27.7727C26.4463 27.7636 26.4409 27.7498 26.4424 27.7359C26.444 27.722 26.4524 27.7098 26.4648 27.7033C27.0493 27.3973 27.2212 26.934 27.2485 26.5459C27.2548 26.4572 27.2534 26.3724 27.2476 26.2943C27.2073 26.514 27.0925 26.7688 26.8079 26.96C26.7915 26.9711 26.7696 26.9692 26.7553 26.9556C26.741 26.942 26.738 26.9202 26.7482 26.9033C26.8991 26.6526 26.8881 26.3911 26.7832 26.1349C26.6778 25.8772 26.4781 25.6273 26.2566 25.4069C26.0354 25.1869 25.795 24.9988 25.6111 24.8642C25.5286 24.8038 25.4576 24.7543 25.4048 24.7175C25.3988 24.7133 25.3931 24.7093 25.3876 24.7054C25.3608 24.6867 25.3391 24.6715 25.3246 24.6606C25.3199 24.6571 25.3153 24.6536 25.3114 24.6503C25.2977 24.6468 25.2864 24.6366 25.2818 24.6227C25.2761 24.6055 25.282 24.5865 25.2965 24.5757L26.3835 23.7604L26.2195 23.5885C26.2065 23.575 26.2041 23.5545 26.2135 23.5382ZM25.3949 24.6074C25.4061 24.6154 25.4198 24.625 25.4359 24.6362C25.4414 24.6401 25.4471 24.6441 25.4531 24.6482C25.5059 24.6851 25.5776 24.7351 25.661 24.7961C25.8465 24.9319 26.0907 25.1229 26.3161 25.3471C26.541 25.5708 26.7497 25.8301 26.8613 26.1029C26.9511 26.3224 26.9786 26.5522 26.9 26.7781C27.0818 26.6029 27.1517 26.3959 27.1737 26.2202C27.1873 26.1124 27.1828 26.0165 27.1749 25.9477C27.1709 25.9133 27.1661 25.8858 27.1624 25.867C27.1605 25.8577 27.1589 25.8505 27.1578 25.8458C27.1572 25.8434 27.1568 25.8417 27.1565 25.8405L27.1562 25.8394L27.1561 25.8392L27.1561 25.8391L27.1561 25.8391C27.1503 25.8174 27.1625 25.7949 27.1838 25.788C27.2052 25.7811 27.2283 25.7922 27.2363 25.8132L27.1969 25.8282C27.2363 25.8132 27.2363 25.8132 27.2363 25.8132L27.2363 25.8133L27.2364 25.8136L27.2368 25.8144L27.2379 25.8175C27.2389 25.8202 27.2402 25.824 27.2419 25.829C27.2454 25.8391 27.2502 25.8537 27.2558 25.8724C27.2671 25.9097 27.2818 25.9636 27.2956 26.0301C27.3231 26.163 27.3471 26.3471 27.3327 26.5518C27.3047 26.9497 27.1311 27.4244 26.5617 27.7466C26.5995 27.7717 26.63 27.7834 26.6516 27.7888C26.6669 27.7926 26.6781 27.7934 26.6847 27.7934C26.6881 27.7934 26.6903 27.7932 26.6913 27.7931C26.6915 27.793 26.6917 27.793 26.6918 27.793C26.71 27.7894 26.7284 27.7981 26.7372 27.8145C26.7461 27.8312 26.7428 27.8518 26.7291 27.8649L26.5723 28.0146C26.6081 28.0067 26.6614 27.9905 26.7396 27.9603C26.8426 27.9204 26.9868 27.8571 27.1877 27.759C27.2069 27.7496 27.2301 27.7561 27.2417 27.7741C27.2533 27.792 27.2496 27.8158 27.2331 27.8294C27.1288 27.9156 27.0736 27.9891 27.0448 28.0394C27.0316 28.0623 27.0239 28.0804 27.0194 28.0929C27.0263 28.0946 27.0383 28.0955 27.0577 28.0918C27.1254 28.0789 27.2634 28.0131 27.5253 27.7839C27.5422 27.7692 27.5676 27.7702 27.5833 27.7862C27.5989 27.8022 27.5993 27.8277 27.5842 27.8442C27.3746 28.0724 27.2471 28.2441 27.1722 28.3569C27.149 28.392 27.1308 28.4214 27.1168 28.4452C27.2315 28.4195 27.3598 28.3601 27.4935 28.2707C27.6599 28.1596 27.8321 28.0039 27.9938 27.8153C28.3173 27.4379 28.5956 26.9326 28.7012 26.3977C28.8066 25.8637 28.7398 25.3018 28.3759 24.8059C28.0274 24.331 27.4027 23.9114 26.3825 23.6371L26.4774 23.7365C26.4857 23.7452 26.4899 23.7571 26.4889 23.7691C26.4879 23.7811 26.4818 23.7922 26.4722 23.7994L25.3949 24.6074ZM26.9719 28.1063L26.9301 28.1003C26.9292 28.1068 26.9298 28.1134 26.9318 28.1196L26.9719 28.1063Z" fill="black"/>
<path fill-rule="evenodd" clip-rule="evenodd" d="M25.4251 24.2437C25.7063 24.45 25.8094 24.525 25.8469 24.6187C25.5844 24.5625 25.3501 24.5812 25.3501 24.5812C25.3501 24.5812 24.7782 24.0375 24.6751 23.9906C24.6001 23.9906 24.1501 23.7094 24.1501 23.7094C23.9344 23.5969 23.7282 22.8375 24.5438 23.0531C24.8567 23.2163 25.1791 23.3603 25.5094 23.4844L26.5126 23.8031L27.0938 24.45C27.0938 24.45 26.0626 23.9437 25.9313 23.9344C26.2126 24.1594 26.3719 24.4781 26.3719 24.4781C26.0438 24.3844 25.7626 24.2906 25.4251 24.2437Z" fill="white"/>
<path fill-rule="evenodd" clip-rule="evenodd" d="M24.0445 23.512C24.0797 23.5919 24.1279 23.6503 24.1695 23.672C24.1705 23.6725 24.1714 23.673 24.1724 23.6736L24.1773 23.6767L24.1917 23.6856C24.204 23.6932 24.2218 23.7041 24.2434 23.7173C24.2866 23.7435 24.3449 23.7785 24.4055 23.8134C24.4661 23.8485 24.5286 23.8831 24.5802 23.9089C24.6061 23.9219 24.6286 23.9322 24.6464 23.9393C24.6553 23.9428 24.6625 23.9453 24.668 23.9468C24.6731 23.9482 24.6752 23.9484 24.6752 23.9484C24.6752 23.9484 24.6752 23.9484 24.675 23.9484C24.681 23.9484 24.687 23.9497 24.6925 23.9522C24.7102 23.9603 24.7338 23.9767 24.7591 23.9958C24.7855 24.0158 24.8169 24.0414 24.8512 24.0705C24.9199 24.1285 25.0015 24.2013 25.0796 24.2723C25.1577 24.3434 25.2326 24.413 25.2879 24.4648C25.3155 24.4907 25.3383 24.5121 25.3542 24.5271L25.3657 24.538C25.3721 24.5377 25.38 24.5373 25.3893 24.537C25.4161 24.5361 25.4544 24.5355 25.5011 24.5367C25.5711 24.5385 25.6601 24.5444 25.7571 24.5594C25.7421 24.5432 25.7233 24.5255 25.6999 24.5055C25.6367 24.4513 25.5441 24.3834 25.4061 24.2822L25.4001 24.2778L25.425 24.2437L25.4308 24.202C25.7115 24.2409 25.9543 24.3121 26.2131 24.388C26.2366 24.3949 26.2602 24.4018 26.2839 24.4088C26.2673 24.3817 26.2468 24.3497 26.2224 24.3147C26.1488 24.2088 26.0413 24.0764 25.9049 23.9673C25.8905 23.9558 25.8852 23.9362 25.892 23.919C25.8987 23.9018 25.9158 23.891 25.9343 23.8923C25.9575 23.8939 25.9935 23.9052 26.0332 23.9195C26.075 23.9347 26.1269 23.9555 26.1847 23.98C26.3005 24.0291 26.4423 24.0935 26.5795 24.1575C26.7033 24.2151 26.8236 24.2725 26.9186 24.3181L26.4888 23.8398L25.4966 23.5246C25.4959 23.5244 25.4952 23.5241 25.4945 23.5239C25.1641 23.3997 24.8415 23.2558 24.5285 23.0927C24.3313 23.0412 24.204 23.0508 24.1256 23.0871C24.0493 23.1225 24.0122 23.1865 24.002 23.2637C23.9915 23.3426 24.0098 23.4334 24.0445 23.512ZM27.0938 24.45C27.0752 24.4879 27.0752 24.4879 27.0752 24.4879L27.0636 24.4822C27.056 24.4785 27.0449 24.4731 27.0307 24.4661C27.0023 24.4523 26.9616 24.4325 26.9122 24.4087C26.8136 24.3612 26.6808 24.2977 26.5439 24.2339C26.407 24.1701 26.2663 24.1062 26.1518 24.0577C26.1363 24.0512 26.1213 24.0449 26.1068 24.0389C26.182 24.1177 26.2439 24.1979 26.2917 24.2665C26.3299 24.3215 26.3593 24.3694 26.3791 24.4037C26.389 24.4208 26.3966 24.4345 26.4017 24.444C26.4042 24.4488 26.4062 24.4525 26.4075 24.4551L26.409 24.4581L26.4094 24.4589L26.4096 24.4591L26.4096 24.4592C26.4096 24.4592 26.4096 24.4592 26.3719 24.4781L26.4096 24.4592C26.4171 24.4742 26.415 24.4922 26.4043 24.5051C26.3937 24.5179 26.3764 24.5233 26.3603 24.5187C26.3012 24.5018 26.2438 24.485 26.1875 24.4685C25.9849 24.4091 25.7961 24.3538 25.592 24.3143C25.6599 24.3647 25.7132 24.4057 25.7548 24.4414C25.8222 24.4991 25.8635 24.5467 25.8861 24.6031C25.8918 24.6175 25.8892 24.634 25.8791 24.6459C25.8691 24.6579 25.8533 24.6633 25.838 24.66C25.7101 24.6326 25.5886 24.6234 25.4989 24.6211C25.4542 24.6199 25.4175 24.6205 25.3921 24.6214C25.3795 24.6218 25.3696 24.6223 25.363 24.6227C25.3597 24.6229 25.3572 24.623 25.3556 24.6231L25.3538 24.6233L25.3534 24.6233C25.3534 24.6233 25.3534 24.6233 25.3534 24.6233M25.35 24.5812L25.3209 24.6118L25.3145 24.6057L25.2963 24.5885C25.2805 24.5735 25.2578 24.5521 25.2302 24.5263C25.1751 24.4747 25.1005 24.4054 25.0228 24.3347C24.945 24.2639 24.8643 24.192 24.7967 24.1349C24.763 24.1063 24.7328 24.0818 24.7081 24.0631C24.6873 24.0472 24.6723 24.0371 24.6631 24.0319C24.6672 24.0325 24.6712 24.0328 24.675 24.0328V23.9906L24.6575 24.029C24.6591 24.0297 24.6609 24.0307 24.6631 24.0319C24.6475 24.0297 24.6305 24.0237 24.6154 24.0178C24.5943 24.0094 24.5693 23.9978 24.5425 23.9844C24.4886 23.9575 24.4245 23.9218 24.3633 23.8865C24.302 23.8512 24.2431 23.8158 24.1996 23.7894C24.1778 23.7761 24.1598 23.7651 24.1473 23.7573L24.1328 23.7484L24.129 23.746C24.0634 23.711 24.0055 23.6328 23.9673 23.5461C23.9281 23.4574 23.9053 23.3507 23.9183 23.2527C23.9315 23.1529 23.9824 23.0605 24.0901 23.0106C24.195 22.962 24.3465 22.9573 24.5545 23.0123C24.5576 23.0131 24.5605 23.0143 24.5633 23.0157C24.8743 23.1779 25.1948 23.3211 25.5232 23.4445L26.5253 23.7629C26.5324 23.7652 26.5389 23.7693 26.5439 23.7749L27.1251 24.4218C27.1386 24.4368 27.1396 24.4593 27.1274 24.4754C27.1152 24.4916 27.0933 24.4968 27.0752 24.4879L27.0938 24.45M25.3534 24.6233C25.3534 24.6233 25.3534 24.6233 25.3534 24.6233C25.3415 24.6242 25.3296 24.6201 25.3209 24.6118L25.35 24.5812" fill="black"/>
<path fill-rule="evenodd" clip-rule="evenodd" d="M21.4227 19.7191C21.4001 19.7247 21.3772 19.7109 21.3716 19.6883C21.366 19.6657 21.3798 19.6428 21.4024 19.6372L21.4126 19.6781C21.4024 19.6372 21.4024 19.6372 21.4024 19.6372L21.4136 19.6344C21.4209 19.6327 21.4315 19.63 21.4451 19.6267C21.4724 19.6201 21.5114 19.6107 21.5586 19.5996C21.6529 19.5773 21.7801 19.5479 21.9111 19.5197C22.042 19.4915 22.1773 19.4644 22.2879 19.4466C22.343 19.4378 22.3927 19.4311 22.4329 19.4279C22.453 19.4263 22.4713 19.4255 22.4871 19.4258C22.5022 19.4261 22.5179 19.4275 22.5312 19.4316C22.5535 19.4384 22.566 19.462 22.5591 19.4843C22.5523 19.5066 22.5287 19.5191 22.5064 19.5122C22.5045 19.5116 22.4982 19.5105 22.4855 19.5102C22.4735 19.51 22.4581 19.5106 22.4396 19.512C22.4027 19.515 22.3555 19.5212 22.3012 19.53C22.1929 19.5474 22.0593 19.5741 21.9289 19.6022C21.7986 19.6302 21.672 19.6595 21.578 19.6817C21.531 19.6928 21.4921 19.7022 21.465 19.7087C21.4515 19.712 21.4409 19.7146 21.4337 19.7164L21.4227 19.7191Z" fill="white"/>
<path fill-rule="evenodd" clip-rule="evenodd" d="M-12 40.0031H60V48H-12V40.0031Z" fill="#DE3908"/>
</g>
</g>
</g>
<defs>
<clipPath id="clip0_154_54493">
<rect width="48" height="48" fill="white"/>
</clipPath>
<clipPath id="clip1_154_54493">
<rect width="64" height="48" fill="white" transform="translate(-8)"/>
</clipPath>
</defs>
</svg>
