<svg width="48" height="48" viewBox="0 0 48 48" fill="none" xmlns="http://www.w3.org/2000/svg">
<g clip-path="url(#clip0_152_6566)">
<mask id="mask0_152_6566" style="mask-type:alpha" maskUnits="userSpaceOnUse" x="0" y="0" width="48" height="48">
<circle cx="24" cy="24" r="24" fill="#D9D9D9"/>
</mask>
<g mask="url(#mask0_152_6566)">
<path fill-rule="evenodd" clip-rule="evenodd" d="M-2 0H62V24.36H-2V0Z" fill="#FF0000"/>
<path fill-rule="evenodd" clip-rule="evenodd" d="M-2 23.64H62V48H-2V23.64Z" fill="black"/>
<path fill-rule="evenodd" clip-rule="evenodd" d="M20.87 14.8201C37.39 19.1501 26.77 40.3801 13.74 31.5401L12.86 32.9001C20.53 38.3601 28.12 33.9601 30.26 28.2601C32.48 22.3801 29.5 14.1101 21 13.2601L20.87 14.8201Z" fill="#FFEC00"/>
<path fill-rule="evenodd" clip-rule="evenodd" d="M14.9999 33.0799L17.1699 34.0899L16.1499 36.2699L13.9799 35.2499L14.9999 33.0799ZM29.8999 23.1299H32.2999V25.5299H29.8999V23.1299ZM28.7299 19.2399L30.9599 18.3799L31.8299 20.6099L29.5999 21.4799L28.7299 19.2399ZM26.1299 16.3299L27.8399 14.6399L29.5299 16.3399L27.8299 18.0299L26.1299 16.3299ZM23.5099 12.3499L25.7499 13.1899L24.8999 15.4299L22.6599 14.5899L23.5099 12.3499ZM29.5999 26.9999L31.8299 27.8899L30.9299 30.1099L28.7099 29.2199L29.5999 26.9999ZM22.6099 33.9999L24.8099 33.0699L25.7599 35.2699L23.5599 36.2099L22.6099 33.9999ZM18.6599 34.2799H21.0599V36.6799H18.6599V34.2799ZM22.7899 22.6799L20.7599 21.1799L18.7299 22.6399L19.5299 20.3399L17.4999 18.8399H19.9499L20.7999 16.5799L21.5799 18.8499L24.0499 18.8199L22.0899 20.3499L22.7899 22.6899V22.6799Z" fill="#FFEC00"/>
<path fill-rule="evenodd" clip-rule="evenodd" d="M31.6003 34.64C31.4803 34.68 30.9802 35.88 30.6302 36.46L31.0003 36.56C32.3603 37.04 33.0403 37.48 33.6203 38.31C33.7544 38.4406 33.9306 38.5194 34.1174 38.5322C34.3042 38.5451 34.4895 38.4911 34.6402 38.38C34.6402 38.38 34.9202 38.28 35.2802 37.88C35.5802 37.43 35.5002 37.08 35.1402 36.77C34.0402 35.97 32.8503 35.37 31.6003 34.64Z" fill="#FFEE00"/>
<path fill-rule="evenodd" clip-rule="evenodd" d="M34.5301 37.28C34.5301 37.3954 34.4843 37.506 34.4027 37.5876C34.3212 37.6692 34.2105 37.715 34.0951 37.715C33.9798 37.715 33.8691 37.6692 33.7875 37.5876C33.706 37.506 33.6601 37.3954 33.6601 37.28C33.6601 37.166 33.7054 37.0566 33.7861 36.976C33.8667 36.8953 33.9761 36.85 34.0901 36.85C34.2042 36.85 34.3136 36.8953 34.3942 36.976C34.4748 37.0566 34.5201 37.166 34.5201 37.28H34.5301ZM32.3901 35.92C32.3901 36.0354 32.3443 36.146 32.2627 36.2276C32.1812 36.3092 32.0705 36.355 31.9551 36.355C31.8398 36.355 31.7291 36.3092 31.6475 36.2276C31.566 36.146 31.5201 36.0354 31.5201 35.92C31.5201 35.8046 31.566 35.694 31.6475 35.6124C31.7291 35.5308 31.8398 35.485 31.9551 35.485C32.0705 35.485 32.1812 35.5308 32.2627 35.6124C32.3443 35.694 32.3901 35.8046 32.3901 35.92ZM33.4801 36.62C33.4801 36.7354 33.4343 36.846 33.3527 36.9276C33.2712 37.0092 33.1605 37.055 33.0451 37.055C32.9298 37.055 32.8191 37.0092 32.7375 36.9276C32.656 36.846 32.6101 36.7354 32.6101 36.62C32.6101 36.5046 32.656 36.394 32.7375 36.3124C32.8191 36.2308 32.9298 36.185 33.0451 36.185C33.1605 36.185 33.2712 36.2308 33.3527 36.3124C33.4343 36.394 33.4801 36.5046 33.4801 36.62Z" fill="black"/>
<path fill-rule="evenodd" clip-rule="evenodd" d="M30.4501 36.3699C26.1901 33.9399 21.7201 31.3199 17.4501 28.8899C15.5801 27.7199 15.4901 25.5499 16.7501 23.8999C16.8701 23.6699 17.0301 23.7199 17.0901 23.8499C17.2401 24.6499 17.6901 25.4799 18.2301 25.9999C22.6623 28.7879 27.0528 31.6415 31.4001 34.5599C31.0601 35.1399 30.8001 35.7899 30.4501 36.3599V36.3699Z" fill="#FFEE00"/>
<path fill-rule="evenodd" clip-rule="evenodd" d="M27.7198 30.5501L29.4997 32.1501L27.8997 33.9301L26.1198 32.3301L27.7198 30.5501Z" fill="#FFEC00"/>
<path fill-rule="evenodd" clip-rule="evenodd" d="M18.7274 27.2015L31.2274 34.7515L31.0723 35.0083L18.5723 27.4583L18.7274 27.2015ZM25.4814 30.2841L29.6914 33.014L29.5282 33.2658L25.3182 30.5358L25.4814 30.2841ZM23.0049 32.07L27.2949 34.55L27.1447 34.8098L22.8547 32.3298L23.0049 32.07Z" fill="black"/>
</g>
</g>
<defs>
<clipPath id="clip0_152_6566">
<rect width="48" height="48" fill="white"/>
</clipPath>
</defs>
</svg>
