<svg width="48" height="48" viewBox="0 0 48 48" fill="none" xmlns="http://www.w3.org/2000/svg">
<g clip-path="url(#clip0_154_54477)">
<mask id="mask0_154_54477" style="mask-type:alpha" maskUnits="userSpaceOnUse" x="0" y="0" width="48" height="48">
<circle cx="24" cy="24" r="24" fill="#D9D9D9"/>
</mask>
<g mask="url(#mask0_154_54477)">
<g clip-path="url(#clip1_154_54477)">
<path d="M-8 0H64V48H-8V0Z" fill="#FF0000"/>
<path d="M-8 0H28V24H-8V0Z" fill="#000095"/>
<path d="M7.40002 12.69L7.15002 13.65L8.09002 13.91L7.91003 13.2L7.40002 12.69ZM12.09 13.2L11.91 13.91L12.85 13.65L12.6 12.69L12.09 13.2ZM7.91003 10.8L7.40002 11.31L7.59002 12L7.91003 10.8Z" fill="white"/>
<path d="M7.59002 12L7.40002 12.69L7.91003 13.2L7.59002 12Z" fill="white"/>
<path d="M7.39996 11.31L6.70996 12L7.39996 12.69L7.58996 12L7.39996 11.31ZM8.79996 14.09L9.30996 14.6L9.99996 14.41L8.79996 14.09ZM10.69 14.6L11.65 14.85L11.91 13.91L11.2 14.09L10.69 14.6Z" fill="white"/>
<path d="M11.2 14.09L11.91 13.91L12.09 13.2L11.2 14.09ZM8.08997 13.91L8.34997 14.85L9.30997 14.6L8.79997 14.09L8.08997 13.91ZM9.99997 14.41L10.69 14.6L11.2 14.09L9.99997 14.41Z" fill="white"/>
<path d="M9.31002 14.6L10 15.29L10.69 14.6L10 14.41L9.31002 14.6ZM8.09002 10.09L7.15002 10.35L7.40002 11.31L7.91003 10.8L8.09002 10.09ZM7.91003 13.2L8.09002 13.91L8.80002 14.09L7.91003 13.2ZM12.41 12L12.6 11.31L12.09 10.8L12.41 12Z" fill="white"/>
<path d="M8.80003 9.90997L8.09003 10.09L7.91003 10.8L8.80003 9.90997ZM12.09 10.8L11.91 10.09L11.2 9.90997L12.09 10.8ZM12.6 12.69L13.29 12L12.6 11.31L12.41 12L12.6 12.69Z" fill="white"/>
<path d="M12.09 10.8L11.2 9.91003L9.99997 9.59003L8.79997 9.91003L7.90997 10.8L7.58997 12L7.90997 13.2L8.79997 14.09L9.99997 14.41L11.2 14.09L12.09 13.2L12.41 12L12.09 10.8Z" fill="white"/>
<path d="M12.09 13.2L12.6 12.69L12.41 12L12.09 13.2ZM12.6 11.31L12.85 10.35L11.91 10.09L12.09 10.8L12.6 11.31ZM11.91 10.09L11.65 9.15002L10.69 9.40002L11.2 9.91002L11.91 10.09ZM9.30997 9.40002L8.34997 9.15002L8.08997 10.09L8.79997 9.91002L9.30997 9.40002ZM9.99997 9.59002L9.30997 9.40002L8.79997 9.91002L9.99997 9.59002Z" fill="white"/>
<path d="M10.6901 9.40002L10.0001 8.71002L9.31006 9.40002L10.0001 9.59002L10.6901 9.40002Z" fill="white"/>
<path d="M11.2 9.91002L10.69 9.40002L9.99996 9.59002L11.2 9.91002ZM9.30996 14.6L8.34996 14.85L8.79996 16.51L9.99996 15.29L9.30996 14.6ZM8.79996 16.51L9.99996 21L11.2 16.51L9.99996 15.29L8.79996 16.51ZM8.08996 13.91L7.14996 13.65L6.70996 15.29L8.34996 14.85L8.08996 13.91Z" fill="white"/>
<path d="M6.70995 15.29L5.50995 19.8L8.79995 16.51L8.34995 14.85L6.70995 15.29ZM5.50995 13.2L2.19995 16.51L6.70995 15.29L7.14995 13.65L5.50995 13.2Z" fill="white"/>
<path d="M7.40001 12.69L6.71001 12L5.51001 13.2L7.15001 13.65L7.40001 12.69ZM7.40001 11.31L7.15001 10.35L5.51001 10.8L6.71001 12L7.40001 11.31Z" fill="white"/>
<path d="M5.51 10.8L1 12L5.51 13.2L6.71 12L5.51 10.8ZM14.51 13.2L12.85 13.65L13.29 15.29L17.8 16.51L14.51 13.2Z" fill="white"/>
<path d="M11.91 13.91L11.65 14.85L13.29 15.29L12.85 13.65L11.91 13.91ZM10.69 14.6L10 15.29L11.2 16.51L11.65 14.85L10.69 14.6ZM12.6 12.69L12.85 13.65L14.51 13.2L13.29 12L12.6 12.69Z" fill="white"/>
<path d="M11.2 16.51L14.51 19.8L13.29 15.29L11.65 14.85L11.2 16.51ZM11.91 10.09L12.85 10.35L13.29 8.71002L11.65 9.15002L11.91 10.09Z" fill="white"/>
<path d="M14.51 10.8L17.8 7.51001L13.29 8.71001L12.85 10.35L14.51 10.8ZM13.29 8.71001L14.51 4.20001L11.2 7.51001L11.65 9.15001L13.29 8.71001ZM14.51 13.2L19 12L14.51 10.8L13.29 12L14.51 13.2Z" fill="white"/>
<path d="M12.6 11.31L13.29 12L14.51 10.8L12.85 10.35L12.6 11.31ZM8.80001 7.51001L5.51001 4.20001L6.71001 8.71001L8.35001 9.15001L8.80001 7.51001Z" fill="white"/>
<path d="M8.08996 10.09L8.34996 9.15002L6.70996 8.71002L7.14996 10.35L8.08996 10.09Z" fill="white"/>
<path d="M6.70995 8.71001L2.19995 7.51001L5.50995 10.8L7.14995 10.35L6.70995 8.71001ZM10.69 9.40001L11.65 9.15001L11.2 7.51001L9.99995 8.71001L10.69 9.40001Z" fill="white"/>
<path d="M11.2 7.51L10 3L8.80005 7.51L10 8.71L11.2 7.51Z" fill="white"/>
<path d="M9.30998 9.40001L9.99998 8.71001L8.79998 7.51001L8.34998 9.15001L9.30998 9.40001Z" fill="white"/>
<path d="M10 17.11C12.8222 17.11 15.11 14.8222 15.11 12C15.11 9.17784 12.8222 6.89001 10 6.89001C7.17784 6.89001 4.89001 9.17784 4.89001 12C4.89001 14.8222 7.17784 17.11 10 17.11Z" fill="#000095"/>
<path d="M9.99999 16.51C12.4908 16.51 14.51 14.4908 14.51 12C14.51 9.50919 12.4908 7.48999 9.99999 7.48999C7.50919 7.48999 5.48999 9.50919 5.48999 12C5.48999 14.4908 7.50919 16.51 9.99999 16.51Z" fill="white"/>
</g>
</g>
</g>
<defs>
<clipPath id="clip0_154_54477">
<rect width="48" height="48" fill="white"/>
</clipPath>
<clipPath id="clip1_154_54477">
<rect width="64" height="48" fill="white" transform="translate(-8)"/>
</clipPath>
</defs>
</svg>
