<svg width="48" height="48" viewBox="0 0 48 48" fill="none" xmlns="http://www.w3.org/2000/svg">
<g clip-path="url(#clip0_191_23376)">
<mask id="mask0_191_23376" style="mask-type:alpha" maskUnits="userSpaceOnUse" x="0" y="0" width="48" height="48">
<circle cx="24" cy="24" r="24" fill="#D9D9D9"/>
</mask>
<g mask="url(#mask0_191_23376)">
<g clip-path="url(#clip1_191_23376)">
<path d="M-8 0H56V48H-8V0Z" fill="white"/>
<path d="M-8 33.6H56V48H-8V33.6Z" fill="#009543"/>
<path d="M-8 0H56V14.4H-8V0Z" fill="#00209F"/>
<path d="M23.96 15.3C23.69 15.3 23.42 15.6 23.42 15.6L23.45 18.84L22.42 19.91H23.25V21.76L18.35 28.36L17.63 28.1L16.36 30.8C16.36 30.8 19.49 32.76 24.03 32.7C29.01 32.65 31.72 30.71 31.72 30.71L30.42 28.05L29.77 28.33L24.81 21.77V19.86H25.63L24.51 18.8V15.58C24.51 15.58 24.24 15.28 23.96 15.29V15.3Z" fill="black"/>
<path fill-rule="evenodd" clip-rule="evenodd" d="M24.5695 15.5264C24.5695 15.5264 24.5695 15.5264 24.51 15.58L24.5695 15.5264L24.59 15.5493V18.7655L25.8309 19.94H24.89V21.7431L29.796 28.2317L30.4584 27.9463L31.8216 30.7356L31.7666 30.775L31.72 30.71C31.7666 30.775 31.7666 30.775 31.7665 30.7751L31.7664 30.7752L31.7659 30.7755L31.7642 30.7767C31.7627 30.7778 31.7606 30.7793 31.7578 30.7812C31.7522 30.7851 31.744 30.7907 31.7331 30.7981C31.7115 30.8127 31.6793 30.834 31.6367 30.861C31.5515 30.915 31.4248 30.9918 31.2574 31.084C30.9225 31.2683 30.4247 31.514 29.7708 31.761C28.4631 32.2552 26.5313 32.7548 24.0309 32.78C21.7493 32.8101 19.8223 32.3327 18.4656 31.8478C17.7872 31.6053 17.2511 31.3609 16.8842 31.1768C16.7007 31.0847 16.5595 31.0078 16.464 30.9537C16.4162 30.9266 16.3798 30.9053 16.3553 30.8907C16.343 30.8833 16.3337 30.8777 16.3274 30.8738L16.3202 30.8694L16.3183 30.8682L16.3177 30.8678C16.3176 30.8678 16.3176 30.8678 16.36 30.8L16.3177 30.8678L16.2574 30.8301L17.5887 28L18.3213 28.2645L23.17 21.7335V19.99H22.232L23.3697 18.808L23.3398 15.5696L23.3606 15.5464L23.42 15.6C23.3606 15.5464 23.3606 15.5465 23.3606 15.5464L23.3607 15.5463L23.361 15.546L23.3618 15.5451L23.3646 15.5421C23.3669 15.5396 23.3703 15.536 23.3746 15.5315C23.3832 15.5226 23.3956 15.5101 23.4113 15.4952C23.4425 15.4654 23.4873 15.4256 23.5412 15.3857C23.6284 15.3211 23.7488 15.2491 23.88 15.2269V15.2128L23.9572 15.21C24.1243 15.204 24.2801 15.2895 24.3868 15.3663C24.4415 15.4057 24.4868 15.4453 24.5183 15.475C24.5342 15.4899 24.5467 15.5025 24.5553 15.5114C24.5597 15.5159 24.5631 15.5195 24.5655 15.522L24.5683 15.5251L24.5691 15.526L24.5693 15.5263L24.5695 15.5264ZM23.5003 15.6318L23.5303 18.8719L22.6081 19.83H23.33V21.7864L18.3788 28.4554L17.6714 28.2L16.4632 30.7686C16.4843 30.781 16.5109 30.7964 16.5428 30.8144C16.6362 30.8673 16.775 30.943 16.9559 31.0338C17.3178 31.2153 17.8479 31.4571 18.5195 31.6971C19.8627 32.1772 21.7706 32.6498 24.029 32.62L24.0292 32.62C26.5088 32.5951 28.422 32.0997 29.7143 31.6114C30.3604 31.3672 30.8514 31.1248 31.1802 30.9438C31.3446 30.8533 31.4685 30.7782 31.551 30.7259C31.5775 30.7091 31.5998 30.6946 31.6177 30.6828L30.3816 28.1536L29.7441 28.4283L24.73 21.7968V19.78H25.4291L24.43 18.8344V15.6122C24.4241 15.6063 24.4169 15.5993 24.4086 15.5915C24.3808 15.5653 24.341 15.5305 24.2933 15.4961C24.2172 15.4414 24.1286 15.3934 24.04 15.3763V15.38H23.96C23.8517 15.38 23.7342 15.4418 23.6364 15.5142C23.5891 15.5493 23.5494 15.5845 23.5216 15.611C23.5134 15.6188 23.5063 15.6258 23.5003 15.6318ZM24.0309 32.78C24.0309 32.78 24.031 32.78 24.0309 32.78L24.03 32.7L24.0311 32.78C24.031 32.78 24.031 32.78 24.0309 32.78Z" fill="black"/>
<path fill-rule="evenodd" clip-rule="evenodd" d="M23.9141 16.31C23.2985 16.3191 22.7876 16.5127 22.4082 16.8799C22.0264 17.2493 21.7404 17.8308 21.6477 18.6825C21.5621 19.5 21.7965 20.5326 22.0745 21.3962C22.2112 21.8208 22.3538 22.191 22.4623 22.455C22.4909 22.5244 22.517 22.5864 22.54 22.64H25.4129C25.4376 22.5838 25.466 22.5181 25.4971 22.444C25.6098 22.1756 25.7574 21.7992 25.8969 21.3681C26.181 20.4898 26.4104 19.446 26.294 18.6262L26.2939 18.6256C26.1702 17.7453 25.9122 17.1793 25.5486 16.8316C25.1924 16.4911 24.6773 16.3056 23.9141 16.31ZM25.67 23.04V23.44H22.0262L21.9181 23.2104L22.28 23.04C21.9181 23.2104 21.9181 23.2104 21.918 23.2103L21.9177 23.2095L21.9168 23.2076L21.9137 23.201C21.9111 23.1954 21.9074 23.1874 21.9026 23.177C21.8931 23.1562 21.8795 23.1261 21.8623 23.0874C21.828 23.01 21.7796 22.8984 21.7223 22.759C21.608 22.4808 21.4575 22.0904 21.313 21.6413C21.0285 20.7576 20.748 19.5906 20.8522 18.5982L20.8522 18.5975L20.8523 18.5968C20.9597 17.6088 21.3037 16.8355 21.8518 16.305C22.402 15.7726 23.1205 15.5212 23.9043 15.51L23.9059 15.51L23.9076 15.51C24.8034 15.5046 25.5478 15.7241 26.1014 16.2534C26.6477 16.7756 26.9498 17.5445 27.086 18.514C27.2295 19.5242 26.9489 20.7152 26.6581 21.6143C26.51 22.072 26.3539 22.47 26.2347 22.7537C26.1751 22.8958 26.1245 23.0097 26.0885 23.0887C26.0705 23.1282 26.0562 23.159 26.0462 23.1802C26.0443 23.1843 26.0426 23.188 26.041 23.1913C26.0384 23.1967 26.0363 23.2013 26.0345 23.2048L26.0313 23.2116L26.0304 23.2135L26.03 23.2143C26.0299 23.2144 26.0299 23.2145 25.67 23.04Z" fill="black"/>
<path d="M18.05 29.2099C17.99 29.2799 17.58 30.0999 17.58 30.0999L18.28 29.9499L18.05 29.2099ZM18.45 30.2599L17.71 30.4999L18.6 30.8499L18.45 30.2599ZM18.78 29.2299L19.15 30.3199L20.05 30.0599L19.82 29.5399L18.78 29.2299ZM19.36 30.7099L19.48 31.1499L20.68 31.4499L20.2 30.4299L19.36 30.7099ZM20.68 29.7799L21.11 30.7999L22.01 30.4499L21.71 29.9999L20.68 29.7799ZM21.28 31.1699L21.42 31.5499L22.82 31.7499L22.23 30.8299L21.27 31.1699H21.28ZM22.62 30.0699L23.14 30.9799L24.44 30.4999L24.3 30.1499L22.62 30.0799V30.0699ZM23.38 31.3099L23.65 31.7899L25.27 31.7399L24.67 30.8399L23.37 31.3099H23.38ZM25.09 30.1099L25.53 30.8699L26.57 30.3699L26.29 29.9699L25.09 30.1099ZM26.79 30.6899L25.76 31.1999L26.03 31.6499L27.41 31.4299L26.79 30.6899ZM27.12 29.8899L27.65 30.5599L28.52 29.8699L28.22 29.5699L27.12 29.8899ZM28.71 30.2399L27.88 30.8699L28.1 31.2599L29.24 30.9599L28.71 30.2399ZM29.85 28.9399L30.05 29.2299L29.48 30.0799L28.89 29.3199L29.85 28.9399ZM30.24 29.6699L30.59 30.3699L29.89 30.6099L29.83 30.2799L30.23 29.6799L30.24 29.6699Z" fill="white"/>
</g>
</g>
</g>
<defs>
<clipPath id="clip0_191_23376">
<rect width="48" height="48" fill="white"/>
</clipPath>
<clipPath id="clip1_191_23376">
<rect width="64" height="48" fill="white" transform="translate(-8)"/>
</clipPath>
</defs>
</svg>
