<svg width="48" height="48" viewBox="0 0 48 48" fill="none" xmlns="http://www.w3.org/2000/svg">
<g clip-path="url(#clip0_154_54500)">
<mask id="mask0_154_54500" style="mask-type:alpha" maskUnits="userSpaceOnUse" x="0" y="0" width="48" height="48">
<circle cx="24" cy="24" r="24" fill="#D9D9D9"/>
</mask>
<g mask="url(#mask0_154_54500)">
<g clip-path="url(#clip1_154_54500)">
<path d="M-1 0H63V48H-1V0Z" fill="#009543"/>
<path d="M-1 0H63V24H-1V0Z" fill="#D21034"/>
<path d="M-1 0L28.8666 19.7053H62.9999V28.2948H28.8666L-1 48.0002" fill="black"/>
<path fill-rule="evenodd" clip-rule="evenodd" d="M-3.56763 3.89163L1.56762 -3.89166L30.2661 15.043H67.6623V32.9572H30.2661L1.56762 51.8918L-3.56763 44.1085L26.91 24.0001L-3.56763 3.89163Z" fill="#FDCE12"/>
<path fill-rule="evenodd" clip-rule="evenodd" d="M28.1033 25.7517H62.9999V30.8379H29.63L0.400529 50.1229L-2.40051 45.8774L28.1033 25.7517Z" fill="black"/>
<path fill-rule="evenodd" clip-rule="evenodd" d="M28.1033 22.4201H62.9999V17.3339H29.63L0.400529 -1.95105L-2.40051 2.29438L28.1033 22.4201Z" fill="black"/>
<path d="M7.60258 28.598V31.3265C9.97732 31.3265 14.646 29.5075 14.646 23.6363C14.646 17.7651 9.66406 16.6738 8.17858 16.6738C6.68299 16.6738 2.08508 17.7449 2.08508 22.5348C2.08508 27.345 6.60215 27.7896 7.49142 27.7896C8.38068 27.7896 11.7154 26.9812 11.3314 23.3837C11.2319 24.2617 10.8118 25.0721 10.1516 25.6595C9.4915 26.2469 8.63779 26.57 7.75416 26.5669C5.32888 26.5669 3.81309 24.7681 3.81309 22.9896C3.81309 21.211 5.28846 18.8262 7.8451 18.8262C10.4017 18.8262 12.2712 21.0999 12.2712 23.3837C12.2712 25.6776 10.4725 28.5879 7.60258 28.5879V28.598Z" fill="#FDCE12"/>
<path d="M5.51086 25.0309L5.65234 25.1319C5.65234 25.1319 6.78413 22.5551 9.80562 20.726C9.42162 20.9281 7.40056 21.9386 5.51086 25.0309Z" fill="#FDCE12"/>
<path fill-rule="evenodd" clip-rule="evenodd" d="M9.75904 20.7048C9.76904 20.6995 9.77828 20.6947 9.78674 20.6902L9.82649 20.7606C8.32104 21.6719 7.28636 22.7696 6.6281 23.6393C6.29898 24.0741 6.06405 24.4518 5.91149 24.7207C5.83522 24.8551 5.77955 24.9622 5.743 25.0356C5.72473 25.0723 5.71124 25.1006 5.70235 25.1197C5.69791 25.1292 5.69461 25.1364 5.69244 25.1412L5.69003 25.1465L5.68945 25.1478L5.68932 25.1481L5.66928 25.1937L5.48731 25.0638L5.51081 25.0309L5.47632 25.0098C7.32988 21.9767 9.31076 20.9395 9.75904 20.7048ZM5.56495 25.0199L5.63606 25.0707C5.64477 25.0523 5.65627 25.0285 5.67063 24.9996C5.70778 24.925 5.76414 24.8165 5.84118 24.6808C5.99526 24.4093 6.23212 24.0285 6.56364 23.5905C6.61483 23.5228 6.66829 23.4538 6.72404 23.3836C6.3426 23.8493 5.95119 24.3911 5.56495 25.0199Z" fill="#FDCE12"/>
<path d="M5.80385 24.5862C5.80385 24.5862 5.46027 23.8789 5.76343 23.5555C6.06659 23.2422 5.93522 24.3942 5.93522 24.3942L6.06659 24.2022C6.06659 24.2022 5.86448 23.3332 6.0868 23.1513C6.31922 22.9593 6.20806 23.99 6.20806 23.99L6.34954 23.8081C6.34954 23.8081 6.19796 22.9593 6.42027 22.7976C6.65269 22.6359 6.51122 23.606 6.51122 23.606L6.67291 23.4039C6.67291 23.4039 6.55164 22.5955 6.82449 22.4035C7.09733 22.2115 6.8548 23.1715 6.8548 23.1715L7.0367 22.9694C7.0367 22.9694 6.95585 22.2317 7.18828 22.0599C7.4207 21.8982 7.2287 22.7673 7.2287 22.7673L7.39038 22.5854C7.39038 22.5854 7.33986 21.8982 7.56217 21.7365C7.79459 21.5749 7.58238 22.3934 7.58238 22.3934L7.75417 22.2317C7.75417 22.2317 7.71375 21.5344 7.9967 21.4031C8.27965 21.2717 7.94617 22.0498 7.94617 22.0498L8.14828 21.8881C8.14828 21.8881 8.19881 21.0797 8.44133 21.009C8.68386 20.9281 8.34028 21.7163 8.34028 21.7163L8.51207 21.5749C8.51207 21.5749 8.60302 20.8877 8.86576 20.8069C9.1386 20.7159 8.70407 21.4334 8.70407 21.4334L8.87586 21.302C8.87586 21.302 9.06786 20.6149 9.32049 20.534C9.56302 20.4633 9.05776 21.1909 9.05776 21.1909L9.22955 21.0696C9.22955 21.0696 9.50239 20.4431 9.73481 20.4026C9.94702 20.3622 9.47207 20.918 9.47207 20.918L9.68428 20.7968C9.68428 20.7968 10.038 20.15 10.1693 20.342C10.2906 20.5441 9.66407 20.8372 9.66407 20.8372L9.46197 20.9584C9.46197 20.9584 10.2199 20.5947 10.3108 20.7765C10.4018 20.9584 9.26997 21.0797 9.26997 21.0797L9.08807 21.201C9.08807 21.201 9.84597 20.9989 9.75502 21.1909C9.65397 21.3829 8.90618 21.3424 8.90618 21.3424L8.73439 21.4637C8.73439 21.4637 9.49228 21.2818 9.39123 21.4637C9.29018 21.6254 8.55249 21.6153 8.55249 21.6153L8.3706 21.7669C8.3706 21.7669 9.10828 21.5648 8.99712 21.7972C8.89607 22.0195 8.04723 22.0094 8.04723 22.0094L7.84512 22.2115C7.84512 22.2115 8.62323 21.9387 8.55249 22.1509C8.49186 22.353 7.60259 22.454 7.60259 22.454L7.40049 22.6561C7.40049 22.6561 8.23923 22.3833 7.98659 22.6359C7.74407 22.8987 7.12764 22.9593 7.12764 22.9593L6.89522 23.2624C6.89522 23.2624 7.72386 22.7572 7.60259 23.0401C7.49144 23.3231 6.67291 23.5151 6.67291 23.5151L6.51122 23.7172C6.51122 23.7172 7.25901 23.2827 7.17817 23.5151C7.10743 23.7677 6.30911 24.0203 6.30911 24.0203L6.17775 24.2022C6.17775 24.2022 7.05691 23.6768 6.98617 23.9496C6.90533 24.2123 6.06659 24.4043 6.06659 24.4043L5.96553 24.5761C5.96553 24.5761 6.77396 24.1012 6.77396 24.3336C6.79417 24.5559 5.82406 24.7782 5.82406 24.7782L5.80385 24.5862Z" fill="#FDCE12"/>
<path d="M10.2797 25.0311L10.1382 25.1321C10.1382 25.1321 9.0064 22.5553 5.98491 20.7262C6.36891 20.9283 8.38997 21.9388 10.2797 25.0311Z" fill="#FDCE12"/>
<path fill-rule="evenodd" clip-rule="evenodd" d="M6.03149 20.705C6.02149 20.6997 6.01225 20.6949 6.00379 20.6904L5.96403 20.7608C7.46949 21.6721 8.50417 22.7697 9.16243 23.6394C9.49155 24.0743 9.72648 24.452 9.87904 24.7208C9.95531 24.8553 10.011 24.9624 10.0475 25.0358C10.0658 25.0725 10.0793 25.1008 10.0882 25.1198C10.0926 25.1293 10.0959 25.1365 10.0981 25.1413L10.1005 25.1467L10.1011 25.148L10.1012 25.1483L10.1212 25.1939L10.3032 25.0639L10.2797 25.0311L10.3142 25.01C8.46065 21.9769 6.47977 20.9397 6.03149 20.705ZM10.2256 25.0201L10.1545 25.0708C10.1458 25.0525 10.1343 25.0287 10.1199 24.9998C10.0827 24.9252 10.0264 24.8167 9.94935 24.6809C9.79527 24.4094 9.55841 24.0287 9.22689 23.5907C9.1757 23.523 9.12224 23.454 9.06648 23.3838C9.44792 23.8495 9.83934 24.3913 10.2256 25.0201Z" fill="#FDCE12"/>
<path d="M9.98668 24.5864C9.98668 24.5864 10.3303 23.8791 10.0271 23.5557C9.72394 23.2424 9.85531 24.3944 9.85531 24.3944L9.72394 24.2024C9.72394 24.2024 9.92605 23.3334 9.70373 23.1515C9.47131 22.9595 9.58247 23.9902 9.58247 23.9902L9.44099 23.8083C9.44099 23.8083 9.59257 22.9595 9.37025 22.7978C9.13783 22.6361 9.27931 23.6062 9.27931 23.6062L9.11762 23.4041C9.11762 23.4041 9.23889 22.5957 8.96604 22.4037C8.6932 22.2117 8.93573 23.1717 8.93573 23.1717L8.75383 22.9696C8.75383 22.9696 8.83467 22.2319 8.60225 22.0601C8.36983 21.8984 8.56183 22.7675 8.56183 22.7675L8.40015 22.5856C8.40015 22.5856 8.45067 21.8984 8.22836 21.7367C7.99593 21.575 8.20814 22.3936 8.20814 22.3936L8.03635 22.2319C8.03635 22.2319 8.07678 21.5346 7.79383 21.4033C7.51088 21.2719 7.84435 22.05 7.84435 22.05L7.64225 21.8883C7.64225 21.8883 7.59172 21.0799 7.34919 21.0091C7.10667 20.9283 7.45025 21.7165 7.45025 21.7165L7.27846 21.575C7.27846 21.575 7.18751 20.8879 6.92477 20.807C6.65193 20.7161 7.08646 21.4336 7.08646 21.4336L6.91467 21.3022C6.91467 21.3022 6.72267 20.615 6.47003 20.5342C6.22751 20.4635 6.73277 21.191 6.73277 21.191L6.56098 21.0698C6.56098 21.0698 6.28814 20.4433 6.05572 20.4028C5.8435 20.3624 6.31845 20.9182 6.31845 20.9182L6.10624 20.7969C6.10624 20.7969 5.75256 20.1502 5.62119 20.3422C5.49992 20.5443 6.12645 20.8374 6.12645 20.8374L6.32856 20.9586C6.32856 20.9586 5.57066 20.5948 5.47971 20.7767C5.38877 20.9586 6.52056 21.0799 6.52056 21.0799L6.70246 21.2012C6.70246 21.2012 5.94456 20.999 6.03551 21.191C6.13656 21.383 6.88435 21.3426 6.88435 21.3426L7.05614 21.4639C7.05614 21.4639 6.29824 21.282 6.3993 21.4639C6.50035 21.6256 7.23804 21.6155 7.23804 21.6155L7.41993 21.767C7.41993 21.767 6.68224 21.5649 6.7934 21.7974C6.89446 22.0197 7.7433 22.0096 7.7433 22.0096L7.94541 22.2117C7.94541 22.2117 7.1673 21.9388 7.23804 22.151C7.29867 22.3532 8.18793 22.4542 8.18793 22.4542L8.39004 22.6563C8.39004 22.6563 7.5513 22.3835 7.80393 22.6361C8.04646 22.8988 8.66288 22.9595 8.66288 22.9595L8.8953 23.2626C8.8953 23.2626 8.06667 22.7574 8.18793 23.0403C8.29909 23.3233 9.11762 23.5153 9.11762 23.5153L9.27931 23.7174C9.27931 23.7174 8.53151 23.2828 8.61236 23.5153C8.68309 23.7679 9.48141 24.0205 9.48141 24.0205L9.61278 24.2024C9.61278 24.2024 8.73362 23.6769 8.80436 23.9498C8.8852 24.2125 9.72394 24.4045 9.72394 24.4045L9.82499 24.5763C9.82499 24.5763 9.01657 24.1014 9.01657 24.3338C8.99636 24.5561 9.96647 24.7784 9.96647 24.7784L9.98668 24.5864Z" fill="#FDCE12"/>
</g>
</g>
</g>
<defs>
<clipPath id="clip0_154_54500">
<rect width="48" height="48" fill="white"/>
</clipPath>
<clipPath id="clip1_154_54500">
<rect width="64" height="48" fill="white" transform="translate(-1)"/>
</clipPath>
</defs>
</svg>
