<svg width="48" height="48" viewBox="0 0 48 48" fill="none" xmlns="http://www.w3.org/2000/svg">
<g clip-path="url(#clip0_152_46377)">
<mask id="mask0_152_46377" style="mask-type:alpha" maskUnits="userSpaceOnUse" x="0" y="0" width="48" height="48">
<circle cx="24" cy="24" r="24" fill="#D9D9D9"/>
</mask>
<g mask="url(#mask0_152_46377)">
<g clip-path="url(#clip1_152_46377)">
<path d="M7.01 0H40.98V48H7L7.01 0Z" fill="white"/>
<path d="M-9.96997 0H7.01003V48H-9.96997V0ZM40.98 0H57.96V48H40.99L40.98 0ZM12.1 23.2L10.77 23.64L16.91 29.04C17.38 30.41 16.75 30.82 16.35 31.54L23.01 30.7L22.85 37.4L24.24 37.37L23.93 30.71L30.6 31.51C30.19 30.64 29.82 30.18 30.2 28.79L36.33 23.69L35.26 23.29C34.38 22.61 35.64 20.03 35.82 18.4C35.82 18.4 32.25 19.63 32.02 18.98L31.1 17.23L27.84 20.81C27.49 20.9 27.34 20.76 27.25 20.46L28.75 12.98L26.37 14.32C26.17 14.41 25.97 14.33 25.85 14.1L23.55 9.5L21.19 14.28C21.01 14.45 20.83 14.47 20.69 14.35L18.4 13.08L19.77 20.49C19.66 20.79 19.4 20.87 19.1 20.71L15.98 17.18C15.58 17.83 15.3 18.89 14.76 19.13C14.22 19.36 12.41 18.68 11.2 18.43C11.62 19.91 12.9 22.39 12.1 23.2Z" fill="#D52B1E"/>
</g>
</g>
</g>
<defs>
<clipPath id="clip0_152_46377">
<rect width="48" height="48" fill="white"/>
</clipPath>
<clipPath id="clip1_152_46377">
<rect width="64" height="48" fill="white" transform="translate(-8)"/>
</clipPath>
</defs>
</svg>
