<svg width="48" height="48" viewBox="0 0 48 48" fill="none" xmlns="http://www.w3.org/2000/svg">
<g clip-path="url(#clip0_191_23406)">
<mask id="mask0_191_23406" style="mask-type:alpha" maskUnits="userSpaceOnUse" x="0" y="0" width="48" height="48">
<circle cx="24" cy="24" r="24" fill="#D9D9D9"/>
</mask>
<g mask="url(#mask0_191_23406)">
<g clip-path="url(#clip1_191_23406)">
<path fill-rule="evenodd" clip-rule="evenodd" d="M-7.84001 0L-7.89001 48H56.11L-7.84001 0Z" fill="black"/>
<path fill-rule="evenodd" clip-rule="evenodd" d="M56.06 48L56.11 0H-7.89001L56.06 48Z" fill="#FF0000"/>
<path d="M31.624 11.9444L30.7804 11.9002C30.514 11.2808 29.7815 11.0597 29.3153 11.3251C28.4568 11.3252 27.5983 11.3105 26.7402 11.2808L28.3163 11.9665C28.7381 13.0504 30.0701 13.2716 30.0701 13.2716C29.9369 15.2181 28.0944 13.0283 26.5404 14.1342C25.4305 14.7978 25.4305 15.572 24.8311 16.8549C24.6313 17.2088 23.8544 18.1379 23.8544 18.1379L25.1641 18.0273L24.7423 18.5802L26.2962 18.3591L25.9633 18.6687C26.1853 18.713 27.7392 18.2927 27.7392 18.2927L27.6282 18.8014L29.4041 18.16C29.4041 18.16 29.7593 18.4475 30.0701 18.5802L30.2921 17.6955L31.18 17.9167L31.402 17.0319C32.7339 18.8014 33.1779 20.571 35.6198 21.0134L35.3978 20.1286C36.0469 20.4118 36.6908 20.7068 37.3291 21.0134L37.5289 20.6374C38.5944 21.3894 39.4602 21.3673 40.0596 21.4558L39.6156 20.3498L40.0596 20.571L39.3936 18.8014L40.0596 19.0226L39.1716 17.6955L39.5046 17.4743L39.3936 16.8107C40.7255 17.2531 42.5014 17.9167 42.7234 19.465C42.9454 21.8982 40.2816 22.5617 38.5056 22.3405C39.8376 23.4465 42.2795 23.0041 43.3894 21.8982C43.8334 21.4558 44.0554 20.7922 44.2774 20.1286C44.4993 20.7922 44.9433 21.677 44.9433 22.5617C44.7213 24.5525 42.0575 25.2161 40.2816 25.4373C42.2795 26.5432 45.8313 25.2161 46.0533 22.3405C46.0533 19.9074 44.4993 18.8014 43.8334 17.6955L43.6114 16.501L44.2774 16.8107C44.2774 16.8107 43.8778 16.0808 43.8334 15.9259C43.8334 15.9259 43.1452 14.0458 42.901 13.6255L43.3894 13.714L41.5691 11.4357L42.0797 11.3914C42.0797 11.3914 39.9708 9.73249 39.3936 9.51129L40.0596 9.2901C38.7276 8.62652 37.1737 9.0689 35.8418 9.95368L36.0638 9.2901L35.6642 9.33434V8.56016L36.0638 7.96293L35.3978 7.74174L35.8418 6.63577L35.1758 6.85696L35.3978 5.75099C35.3978 5.75099 34.9094 5.97219 34.5986 5.95007C34.7261 5.70375 34.8446 5.4529 34.9538 5.19801C34.7318 4.86622 34.9538 4.20264 34.9538 4.20264C33.3999 4.42383 33.1779 4.64502 32.29 5.97219C30.958 8.40532 31.402 9.51129 31.624 11.9444Z" fill="#FFCC00"/>
<path fill-rule="evenodd" clip-rule="evenodd" d="M34.7878 4.35042C34.1266 4.45236 33.7489 4.56085 33.4414 4.77302C33.1041 5.0057 32.8394 5.37025 32.3943 6.03548C31.7379 7.23579 31.5231 8.10083 31.4961 8.96216C31.4777 9.54906 31.5455 10.1309 31.6261 10.8222C31.6657 11.1617 31.7083 11.5276 31.7454 11.9334L31.7582 12.0735L30.6984 12.018L30.6685 11.9484C30.4285 11.3903 29.7736 11.2044 29.3756 11.431L29.3476 11.447L29.3153 11.447C28.6667 11.4471 28.0182 11.4387 27.3698 11.4219L28.4115 11.8751L28.4299 11.9224C28.6255 12.425 29.0342 12.7327 29.4054 12.9163C29.5902 13.0077 29.7627 13.0668 29.8889 13.103C29.9519 13.121 30.0031 13.1333 30.0381 13.141C30.0556 13.1448 30.0691 13.1475 30.0779 13.1492C30.0805 13.1497 30.0827 13.1501 30.0845 13.1504C30.0857 13.1506 30.0868 13.1508 30.0876 13.151L30.0898 13.1513L30.09 13.1514L30.0901 13.1514C30.0902 13.1514 30.0902 13.1514 30.0901 13.1514L30.1992 13.1695L30.1917 13.2799C30.1574 13.7801 30.0094 14.0727 29.7259 14.1853C29.5925 14.2383 29.4437 14.2444 29.2926 14.2297C29.1413 14.2149 28.977 14.178 28.8088 14.1365C28.7636 14.1253 28.718 14.1138 28.672 14.1022C28.0174 13.9372 27.2864 13.753 26.6111 14.2336L26.6072 14.2364L26.603 14.2389C26.0706 14.5572 25.8083 14.8977 25.6038 15.3159C25.5032 15.5215 25.4168 15.7455 25.3189 15.9994L25.3087 16.0258C25.207 16.2893 25.0933 16.5817 24.9415 16.9065L24.9396 16.9108L24.9373 16.9149C24.8317 17.1018 24.5809 17.4304 24.3633 17.7049C24.2795 17.8105 24.1994 17.9098 24.1323 17.9921L25.4277 17.8827L25.0196 18.4177L26.6639 18.1837L26.3147 18.5084C26.4882 18.4757 26.6998 18.4281 26.9061 18.3788C27.1132 18.3293 27.3136 18.2783 27.4623 18.2397C27.5366 18.2204 27.598 18.2043 27.6407 18.1929C27.662 18.1872 27.6788 18.1828 27.6901 18.1797L27.7073 18.1751C27.7073 18.1751 27.7074 18.1751 27.7392 18.2927L27.7073 18.1751L27.901 18.1227L27.7943 18.6119L29.4274 18.022L29.4808 18.0653L29.4809 18.0654L29.4815 18.0659L29.4842 18.068C29.4867 18.07 29.4904 18.073 29.4954 18.0769C29.5052 18.0846 29.5198 18.0959 29.5383 18.11C29.5753 18.1382 29.6279 18.1772 29.69 18.2202C29.7786 18.2816 29.8836 18.3492 29.9883 18.4053L30.2035 17.5478L31.0914 17.769L31.3459 16.7547L31.4994 16.9586C31.8198 17.3844 32.0892 17.8098 32.3443 18.2128C32.3571 18.233 32.3698 18.2531 32.3825 18.2731C32.65 18.6955 32.9031 19.0905 33.1893 19.4436C33.7264 20.1062 34.3795 20.6205 35.4547 20.8562L35.2192 19.9178L35.4465 20.0169C36.0613 20.2851 36.6713 20.5638 37.2763 20.853L37.4862 20.4581L37.5992 20.5378C38.47 21.1525 39.1948 21.2333 39.7678 21.2972C39.8021 21.301 39.8359 21.3048 39.8692 21.3086L39.3831 20.0978L39.8362 20.3236L39.1895 18.6053L39.7606 18.7949L39.0023 17.6616L39.3714 17.4165L39.24 16.6313L39.432 16.6951C40.0976 16.9161 40.8883 17.1967 41.5412 17.621C42.1954 18.0461 42.7262 18.6255 42.8441 19.4478L42.8445 19.4509L42.8448 19.454C42.9025 20.0861 42.7729 20.6105 42.5116 21.0357C42.2512 21.4598 41.8646 21.7777 41.4195 22.0066C40.6784 22.3877 39.7638 22.5282 38.9548 22.4985C39.5454 22.8224 40.2843 22.9163 41.0162 22.8279C41.9111 22.7198 42.7717 22.3416 43.3034 21.8119C43.723 21.3938 43.9373 20.761 44.1618 20.09L44.2774 19.7445L44.3929 20.09C44.4445 20.2441 44.5084 20.4108 44.5771 20.5901L44.5889 20.6207C44.6617 20.8107 44.7389 21.0134 44.8092 21.2236C44.9496 21.6432 45.0652 22.1001 45.0652 22.5618V22.5685L45.0645 22.5753C44.9467 23.631 44.1808 24.3223 43.2482 24.7729C42.4544 25.1564 41.5217 25.3752 40.7113 25.5005C41.6258 25.8409 42.7824 25.7457 43.7811 25.2719C44.9157 24.7335 45.8229 23.7178 45.9314 22.3359C45.9304 21.151 45.5527 20.2905 45.0912 19.5872C44.8614 19.237 44.6111 18.9262 44.3734 18.6309L44.3663 18.6221C44.1282 18.3264 43.9006 18.0433 43.729 17.7584L43.7176 17.7395L43.4484 16.2908L43.9972 16.546C43.9862 16.5253 43.9752 16.5042 43.964 16.4828C43.911 16.3815 43.8563 16.2745 43.8118 16.1827C43.7705 16.0974 43.7331 16.0154 43.7176 15.9642L43.7112 15.9468C43.7061 15.933 43.6986 15.9126 43.689 15.8866C43.6698 15.8345 43.642 15.7595 43.6079 15.6683C43.5397 15.4857 43.4462 15.2381 43.3451 14.9774C43.141 14.4506 42.9118 13.8866 42.7957 13.6868L42.6631 13.4586L43.0913 13.5361L41.3318 11.3339L41.7596 11.2969C41.7307 11.2746 41.6997 11.2507 41.6668 11.2254C41.4605 11.0667 41.1795 10.853 40.8807 10.6324C40.5817 10.4117 40.2657 10.1848 39.989 9.9997C39.7085 9.81195 39.4795 9.67475 39.35 9.62513L39.0316 9.50312L39.7182 9.2751C38.5092 8.82867 37.1292 9.24485 35.9092 10.0552L35.6136 10.2516L35.8877 9.43224L35.5423 9.47048V8.52318L35.8735 8.02819L35.2364 7.8166L35.6308 6.83431L35.015 7.03882L35.2342 5.94684C35.2085 5.95601 35.1811 5.9654 35.1526 5.97472C34.9901 6.02774 34.7708 6.08454 34.59 6.07167L34.4053 6.05852L34.4904 5.89407C34.6072 5.66846 34.7163 5.439 34.8176 5.20608C34.771 5.11442 34.7483 5.01251 34.7389 4.91413C34.7273 4.79299 34.7352 4.66904 34.7498 4.55977C34.7601 4.48238 34.7741 4.41072 34.7878 4.35042ZM35.3476 5.63999L35.5641 5.54192L35.3366 6.67516L36.0528 6.43729L35.5592 7.66694L36.2541 7.89774L35.7861 8.5972V9.19825L36.2398 9.14802L36.066 9.66771C37.3481 8.89692 38.8231 8.53792 40.1139 9.18104L40.3782 9.31272L39.7096 9.53481C39.8334 9.60661 39.9752 9.69716 40.1246 9.79713C40.4057 9.98525 40.7251 10.2146 41.0255 10.4363C41.326 10.6581 41.6083 10.8729 41.8154 11.0322C41.919 11.1119 42.0039 11.1777 42.0628 11.2236C42.0923 11.2466 42.1153 11.2646 42.131 11.2768L42.1549 11.2956L42.155 11.2957C42.155 11.2957 42.155 11.2957 42.0797 11.3915L42.155 11.2957L42.3973 11.4863L41.8064 11.5375L43.6875 13.8919L43.1195 13.789C43.2497 14.0711 43.4213 14.4994 43.5724 14.8893C43.6739 15.1512 43.7678 15.3998 43.8362 15.5829C43.8704 15.6745 43.8983 15.7498 43.9177 15.8021C43.9273 15.8283 43.9349 15.8488 43.94 15.8627L43.9478 15.884C43.9478 15.884 43.9478 15.8841 43.8334 15.9259L43.9478 15.8841L43.9493 15.8882L43.9505 15.8924C43.9582 15.919 43.9863 15.9839 44.0312 16.0764C44.0741 16.165 44.1276 16.2695 44.18 16.37C44.2325 16.4703 44.2835 16.5659 44.3215 16.6365C44.3405 16.6717 44.3562 16.7007 44.3672 16.7209L44.3799 16.7441L44.384 16.7517L44.3842 16.7521L44.3843 16.7522L44.5625 17.0777L43.7744 16.7113L43.9491 17.6513C44.1093 17.9132 44.3212 18.1775 44.5561 18.4693L44.5659 18.4814C44.802 18.7747 45.0586 19.0933 45.295 19.4535C45.7763 20.187 46.1752 21.0947 46.1752 22.3406V22.3453L46.1748 22.35C46.0597 23.8412 45.0807 24.9251 43.8856 25.4921C42.694 26.0575 41.264 26.1204 40.2225 25.5439L39.895 25.3626L40.2665 25.3164C41.1495 25.2064 42.2441 24.9872 43.1422 24.5534C44.0388 24.1202 44.7147 23.4863 44.8214 22.555C44.8203 22.1341 44.7144 21.7086 44.578 21.3009C44.5096 21.0963 44.4341 20.8981 44.3613 20.7079L44.3488 20.6754C44.3258 20.6155 44.3031 20.5562 44.2811 20.498C44.0901 21.049 43.8656 21.5958 43.4754 21.9845C42.8971 22.5607 41.9818 22.9568 41.0454 23.0699C40.1091 23.1829 39.1279 23.0157 38.4278 22.4343L38.1072 22.1681L38.5207 22.2196C39.391 22.328 40.4749 22.2183 41.308 21.7898C41.7232 21.5763 42.0719 21.2859 42.304 20.9081C42.5348 20.5323 42.655 20.0623 42.6024 19.4793C42.4974 18.7547 42.0297 18.2291 41.4083 17.8253C40.8439 17.4585 40.1651 17.2006 39.5473 16.9908L39.6378 17.5321L39.3409 17.7294L40.3586 19.2504L39.5977 18.9977L40.2829 20.8185L39.8481 20.6018L40.2517 21.6074L40.0418 21.5764C39.9511 21.563 39.8528 21.5521 39.7474 21.5405C39.1958 21.4797 38.4489 21.3974 37.5725 20.815L37.3818 21.1739L37.2763 21.1233C36.714 20.8531 36.1473 20.5921 35.5765 20.3402L35.784 21.167L35.5981 21.1333C34.3438 20.9061 33.5979 20.3347 33 19.5971C32.7035 19.2313 32.4432 18.8245 32.1766 18.4036C32.1643 18.3842 32.152 18.3647 32.1397 18.3453C31.9261 18.0079 31.7065 17.6611 31.4571 17.313L31.2686 18.0644L30.3807 17.8432L30.1535 18.7484L30.0222 18.6924C29.8554 18.6211 29.6809 18.5105 29.5511 18.4205C29.4855 18.3751 29.4299 18.3339 29.3907 18.304C29.3877 18.3018 29.3849 18.2996 29.3822 18.2975L27.4621 18.991L27.5776 18.4616C27.5605 18.4661 27.5424 18.4708 27.5235 18.4757C27.3739 18.5145 27.1719 18.5659 26.9628 18.6159C26.754 18.6658 26.5367 18.7147 26.3569 18.7484C26.2671 18.7653 26.185 18.7787 26.1171 18.7864C26.0546 18.7935 25.9883 18.798 25.9395 18.7883L25.7058 18.7417L25.9287 18.5345L24.4651 18.7429L24.9006 18.1719L23.5734 18.2839L23.7609 18.0597L23.761 18.0596L23.7695 18.0494C23.7752 18.0425 23.7836 18.0325 23.7943 18.0195C23.8158 17.9935 23.8468 17.956 23.8847 17.9099C23.9603 17.8176 24.0633 17.691 24.1723 17.5534C24.3914 17.2771 24.627 16.967 24.7227 16.799C24.8696 16.4842 24.9802 16.2001 25.0813 15.9381L25.0932 15.9072C25.1897 15.6571 25.2795 15.4242 25.3848 15.2088C25.6071 14.7544 25.899 14.3768 26.4738 14.0322C27.2437 13.4869 28.0821 13.7004 28.7211 13.863C28.7711 13.8757 28.8198 13.8881 28.8673 13.8998C29.0348 13.9412 29.1841 13.9742 29.3163 13.9871C29.4488 14 29.5535 13.9915 29.6359 13.9588C29.7723 13.9046 29.8954 13.7612 29.9391 13.3683C29.9061 13.3603 29.8666 13.3501 29.8218 13.3373C29.6851 13.2981 29.4983 13.2342 29.2973 13.1348C28.9083 12.9423 28.4548 12.611 28.2221 12.0585L26.6916 11.3926L26.7444 11.1591C27.5907 11.1883 28.4375 11.203 29.2843 11.2032C29.7995 10.9343 30.5493 11.166 30.8599 11.7823L31.4895 11.8154C31.4571 11.4804 31.4208 11.1683 31.3864 10.8728C31.3045 10.1696 31.2335 9.55949 31.2524 8.95452C31.2809 8.04743 31.5095 7.14406 32.1831 5.9137L32.1857 5.90895L32.1887 5.90445C32.6296 5.24537 32.9195 4.83687 33.303 4.57238C33.6895 4.30573 34.1595 4.19263 34.9367 4.08201L35.132 4.0542L35.0694 4.24125L35.0694 4.2414L35.0691 4.24241L35.0675 4.24714C35.0662 4.25148 35.0641 4.25812 35.0615 4.26684C35.0562 4.28429 35.0489 4.30995 35.0406 4.34191C35.0241 4.40605 35.0044 4.49446 34.9914 4.5921C34.9783 4.69019 34.9723 4.79435 34.9815 4.89094C34.9908 4.98833 35.0148 5.07006 35.0551 5.13027L35.0919 5.18524L35.0659 5.24604C34.9838 5.43762 34.8965 5.62694 34.8042 5.8138C34.8934 5.79794 34.9884 5.7719 35.077 5.743C35.1542 5.71778 35.2223 5.69183 35.2711 5.67219C35.2955 5.66238 35.3149 5.6542 35.3281 5.64853C35.3346 5.64569 35.3397 5.64349 35.343 5.64203L35.3466 5.64042L35.3474 5.64006L35.3476 5.63999Z" fill="#FFCC00"/>
<path fill-rule="evenodd" clip-rule="evenodd" d="M40.0153 15.572C40.1263 15.7711 41.3916 16.3683 42.3239 16.8992C42.0798 15.8817 40.2372 15.6605 40.0153 15.572Z" fill="#FF0000"/>
<path fill-rule="evenodd" clip-rule="evenodd" d="M39.6672 15.2664L40.0727 15.428C40.0868 15.4336 40.1262 15.444 40.2028 15.4615C40.2259 15.4668 40.2516 15.4726 40.2794 15.4789C40.3359 15.4915 40.4011 15.5062 40.471 15.5227C40.6813 15.5724 40.9472 15.6419 41.2155 15.7419C41.4828 15.8416 41.7592 15.9742 41.9872 16.153C42.2158 16.3324 42.4032 16.5646 42.4748 16.863L42.5583 17.2112L42.2472 17.034C41.9318 16.8544 41.5796 16.668 41.2447 16.4908C41.0868 16.4072 40.9326 16.3256 40.7881 16.2478C40.5644 16.1274 40.3631 16.0155 40.21 15.9206C40.1336 15.8732 40.0663 15.8282 40.0131 15.7871C39.9655 15.7502 39.9105 15.7026 39.8798 15.6476L39.6672 15.2664ZM40.9251 15.9692C40.9285 15.971 40.9318 15.9728 40.9351 15.9746C41.0756 16.0503 41.2273 16.1306 41.384 16.2135C41.5538 16.3034 41.7295 16.3963 41.9028 16.4897C41.8695 16.4578 41.8337 16.4269 41.7957 16.3971C41.6025 16.2455 41.3587 16.1264 41.1071 16.0326C41.0463 16.0099 40.9854 15.9888 40.9251 15.9692Z" fill="#FF0000"/>
<path fill-rule="evenodd" clip-rule="evenodd" d="M9.50005 39.9L8.08005 39L6.18005 39.91L6.61005 38.29L5.16005 36.78L6.83005 36.68L7.83005 34.84L8.44005 36.39L10.5101 36.77L9.21005 37.83L9.50005 39.9ZM13.1201 32L12.4601 31.7L11.8301 32.06L11.9301 31.34L11.3901 30.85L12.1001 30.72L12.4001 30.06L12.7501 30.7L13.4701 30.78L12.9701 31.3L13.1201 32ZM16.3201 27.48L14.8701 26.78L13.4801 27.56L13.7101 25.99L12.5301 24.91L14.1001 24.63L14.7601 23.19L15.5201 24.59L17.1001 24.77L16.0001 25.92L16.3201 27.48ZM9.74005 21.18L8.04005 20.33L6.39005 21.24L6.67005 19.38L5.29005 18.08L7.16005 17.78L7.96005 16.08L8.83005 17.75L10.7101 17.98L9.38005 19.32L9.74005 21.18ZM3.66005 27.72L1.96005 26.72L0.260053 27.75L0.690053 25.82L-0.819946 24.52L1.15005 24.34L1.92005 22.51L2.71005 24.33L4.69005 24.49L3.20005 25.79L3.66005 27.72Z" fill="white"/>
</g>
</g>
</g>
<defs>
<clipPath id="clip0_191_23406">
<rect width="48" height="48" fill="white"/>
</clipPath>
<clipPath id="clip1_191_23406">
<rect width="64" height="48" fill="white" transform="translate(-8)"/>
</clipPath>
</defs>
</svg>
