<svg width="48" height="48" viewBox="0 0 48 48" fill="none" xmlns="http://www.w3.org/2000/svg">
<g clip-path="url(#clip0_154_54471)">
<mask id="mask0_154_54471" style="mask-type:alpha" maskUnits="userSpaceOnUse" x="0" y="0" width="48" height="48">
<circle cx="24" cy="24" r="24" fill="#D9D9D9"/>
</mask>
<g mask="url(#mask0_154_54471)">
<g clip-path="url(#clip1_154_54471)">
<path d="M0 0H64V48H0V0Z" fill="white"/>
<path fill-rule="evenodd" clip-rule="evenodd" d="M0.609375 47.3906H36.1219L12.8812 23.8219L37.0031 23.85L0.61875 0.609375V47.3906H0.609375Z" fill="#CE0000"/>
<path fill-rule="evenodd" clip-rule="evenodd" d="M-0.0280762 -0.571411L39.2216 24.4994L14.4294 24.4705L37.6683 48.0375H0.609424V47.3906H-0.0280762V-0.571411ZM1.26567 46.7437H34.5756L11.3332 23.1732L34.7847 23.2005L1.26567 1.79013V46.7437Z" fill="#000063"/>
<path fill-rule="evenodd" clip-rule="evenodd" d="M16.9406 34.8562L14.4094 35.7L16.3969 37.5562L13.725 37.3875L14.8219 39.8438L12.4313 38.6906L12.4781 41.3719L10.7156 39.4125L9.7125 41.9062L8.85 39.4406L6.94688 41.3719L7.11562 38.775L4.59375 39.8438L5.775 37.5L3.02812 37.5562L5.04375 35.8406L2.48438 34.8562L5.01562 34.0125L3.01875 32.1562L5.68125 32.325L4.59375 29.8688L6.99375 31.0219L6.94688 28.3406L8.70937 30.3L9.7125 27.8063L10.5656 30.2719L12.4781 28.3406L12.3 30.9375L14.8313 29.8688L13.6406 32.2125L16.3969 32.1562L14.3812 33.8719L16.9406 34.8562ZM13.9031 17.5406L12.8438 18.3281L13.3688 18.7594C14.6008 17.8988 15.5916 16.7368 16.2469 15.3844C16.4156 17.3813 14.5875 21.8531 9.80625 21.9C8.93235 21.9111 8.0649 21.7491 7.25395 21.4232C6.443 21.0974 5.70462 20.6141 5.08143 20.0014C4.45823 19.3886 3.96255 18.6586 3.62301 17.8532C3.28346 17.0479 3.10677 16.1833 3.10312 15.3094C4.04062 17.0156 4.62188 17.8406 6.10313 18.7313L6.54375 18.3187L5.55 17.4844L6.83437 17.1469L6.14062 15.9844L7.49062 16.0781L7.32188 14.7281L8.50312 15.4219L8.87812 14.1562L9.72188 15.1688L10.5188 14.2031L10.95 15.5156L12.0563 14.7469L11.9156 16.0875L13.2469 15.9281L12.6188 17.1656L13.9031 17.5406Z" fill="white"/>
</g>
</g>
</g>
<defs>
<clipPath id="clip0_154_54471">
<rect width="48" height="48" fill="white"/>
</clipPath>
<clipPath id="clip1_154_54471">
<rect width="64" height="48" fill="white"/>
</clipPath>
</defs>
</svg>
