<svg width="48" height="48" viewBox="0 0 48 48" fill="none" xmlns="http://www.w3.org/2000/svg">
<g clip-path="url(#clip0_152_46381)">
<mask id="mask0_152_46381" style="mask-type:alpha" maskUnits="userSpaceOnUse" x="0" y="0" width="48" height="48">
<circle cx="24" cy="24" r="24" fill="#D9D9D9"/>
</mask>
<g mask="url(#mask0_152_46381)">
<g clip-path="url(#clip1_152_46381)">
<path d="M24 0H56V48H24V0Z" fill="white"/>
<path d="M-8 0H24V48H-8V0Z" fill="#006233"/>
<path d="M34.4 18C33.0792 15.7123 31.0404 13.9244 28.5999 12.9135C26.1594 11.9025 23.4535 11.7252 20.9019 12.4089C18.3503 13.0926 16.0956 14.5991 14.4875 16.6949C12.8793 18.7906 12.0077 21.3584 12.0077 24C12.0077 26.6416 12.8793 29.2094 14.4875 31.3051C16.0956 33.4009 18.3503 34.9074 20.9019 35.5911C23.4535 36.2748 26.1594 36.0975 28.5999 35.0866C31.0404 34.0757 33.0792 32.2877 34.4 30C33.1569 31.5526 31.4623 32.6808 29.5502 33.2287C27.6382 33.7765 25.6033 33.7169 23.7266 33.0582C21.8499 32.3995 20.2241 31.1741 19.0739 29.5515C17.9238 27.9288 17.306 25.989 17.306 24C17.306 22.0111 17.9238 20.0712 19.0739 18.4485C20.2241 16.8259 21.8499 15.6005 23.7266 14.9418C25.6033 14.2831 27.6382 14.2235 29.5502 14.7714C31.4623 15.3192 33.1569 16.4474 34.4 18ZM34.8 24L24 20.48L30.72 29.68V18.32L24 27.52L34.8 24Z" fill="#D21034"/>
</g>
</g>
</g>
<defs>
<clipPath id="clip0_152_46381">
<rect width="48" height="48" fill="white"/>
</clipPath>
<clipPath id="clip1_152_46381">
<rect width="64" height="48" fill="white" transform="translate(-8)"/>
</clipPath>
</defs>
</svg>
