<svg width="48" height="48" viewBox="0 0 48 48" fill="none" xmlns="http://www.w3.org/2000/svg">
<g clip-path="url(#clip0_191_23374)">
<mask id="mask0_191_23374" style="mask-type:alpha" maskUnits="userSpaceOnUse" x="0" y="0" width="48" height="48">
<circle cx="24" cy="24" r="24" fill="#D9D9D9"/>
</mask>
<g mask="url(#mask0_191_23374)">
<g clip-path="url(#clip1_191_23374)">
<path d="M0 0H64V48H0V0Z" fill="#FFB700"/>
<path d="M2.67004 24L11.47 2.66998H20.27V45.33H11.47L2.67004 24Z" fill="#FF5B00"/>
<path d="M2.67004 2.66998H11.47V45.33H2.67004V2.66998Z" fill="#005641"/>
<path d="M22.9301 2.66998H61.6001V45.33H22.9301V2.66998Z" fill="#8D2029"/>
<path d="M36.3501 33.98L36.5801 33.84L36.6801 33.98C36.8101 34.16 37.1801 34.15 37.4201 33.98L37.6101 33.83L37.7701 33.97C37.9701 34.16 38.3501 34.16 38.6001 33.97C38.7701 33.85 38.8001 33.84 38.9001 33.94C38.9701 34 39.1701 34.06 39.3401 34.09C39.6601 34.13 39.6601 34.13 39.8401 33.85C40.0001 33.62 40.0201 33.53 39.9901 33.3C39.9601 33.12 39.9401 32.95 39.9301 32.77C39.9101 32.51 39.9201 32.51 40.2901 32.37C40.4701 32.31 40.6501 32.25 40.8301 32.17C40.9801 32.08 41.4001 31.59 41.4001 31.49C41.4001 31.47 41.2401 31.43 41.0401 31.41C40.2401 31.31 40.1101 30.89 40.6301 30.11C41.4601 28.81 41.9701 27.56 41.9701 26.77C41.9701 26.41 42.0001 26.29 42.0401 26.37C42.2301 26.68 41.8901 28.01 41.3901 28.97L41.1901 29.35L41.3801 29.31C41.4801 29.28 42.1201 29.01 42.7801 28.71C44.6001 27.89 45.2201 27.73 46.4001 27.78C47.3901 27.82 47.8001 28.01 48.5001 28.74C48.8701 29.14 49.2301 29.41 49.8801 29.82C51.2601 30.68 51.3201 30.76 51.3901 31.78C51.4601 32.81 51.4201 32.87 50.6401 33.04C49.9701 33.19 49.5501 33.5 49.4401 33.94C49.3801 34.16 49.5101 34.17 49.8401 33.95L50.0901 33.79L50.2001 33.95C50.3501 34.16 50.6501 34.16 50.9001 33.95L51.1001 33.8L51.3001 33.95C51.6001 34.2 52.0001 34.14 52.1201 33.83C52.1401 33.78 52.2001 33.79 52.3201 33.9C52.5501 34.1 53.1201 34.18 53.1801 34.02C53.2001 33.96 53.1601 33.82 53.0801 33.7C52.7501 33.2 52.6401 32.97 52.6401 32.7C52.6401 32.32 52.7401 32.13 53.1801 31.83C53.7001 31.45 53.8601 30.97 53.4601 30.97C53.2201 30.97 52.9701 30.75 52.8101 30.4C52.4901 29.68 52.5601 28.88 53.0401 27.54C53.4101 26.75 53.5901 25.89 53.5801 25.02C53.5801 24.28 53.5601 24.16 53.4001 23.75C53.2701 23.46 53.1201 23.19 52.9401 22.94L52.6601 22.57L53.0101 22.27C54.0901 21.38 53.8701 19.92 52.5701 19.36C52.1701 19.18 52.0701 19.17 51.3701 19.17C50.9701 19.17 50.3201 19.23 49.9701 19.3C49.5001 19.37 49.0301 19.41 48.5501 19.42C47.8701 19.42 47.7501 19.4 47.4901 19.26C47.2201 19.12 47.1701 19.05 47.1201 18.71C47.1101 18.64 47.0701 18.59 47.0101 18.56C46.9101 18.53 46.4901 18.9 46.4301 19.06C46.3901 19.15 46.3701 19.14 46.2801 19.03C46.2001 18.92 46.1301 18.8 46.0801 18.67C45.9801 18.34 46.1101 18.1 46.5001 17.91L46.8001 17.77L46.6201 17.66C46.2601 17.43 45.6401 17.59 45.4201 17.96C45.3501 18.06 45.2801 18.16 45.2601 18.16C45.2401 18.16 45.1201 18.06 45.0001 17.93C44.5301 17.47 44.6901 16.79 45.3201 16.59C45.6501 16.48 45.9501 16.56 46.0101 16.79C46.1101 17.12 46.3901 16.68 46.3401 16.27C46.3101 16 46.3101 15.99 46.5001 15.99C46.7601 15.99 47.3001 16.33 47.4801 16.59C47.6801 16.9 47.6601 17.39 47.4401 17.75L47.2701 18.03L47.5001 17.99C47.8201 17.92 48.1401 17.72 48.3001 17.47C48.4701 17.15 48.4901 16.76 48.3401 16.43C48.1901 16.16 48.2101 16.12 48.4301 16.21C48.7901 16.36 48.9901 16.53 49.1301 16.82C49.2701 17.08 49.2801 17.14 49.2101 17.42C49.1601 17.59 49.0901 17.75 48.9901 17.9C48.8701 18.06 48.8601 18.09 48.9601 18.09C49.1401 18.09 49.5001 17.92 49.6301 17.79C49.7001 17.71 49.8001 17.54 49.8501 17.39L49.9501 17.14L50.0501 17.34C50.2001 17.61 50.5001 17.86 50.8601 18.02C51.2501 18.18 51.4101 18.19 51.2101 18.04C51.0701 17.94 50.8101 17.19 50.9001 17.12C51.3301 17.36 51.7301 17.66 52.0701 18.02C52.6401 18.53 53.0001 18.7 53.5201 18.7C54.1901 18.7 54.5801 18.12 54.2801 17.57C54.1101 17.25 53.7201 17.2 53.4801 17.47C53.3801 17.6 53.3501 17.7 53.3801 17.84C53.4201 18 53.4101 18.02 53.2601 18.02C53.0601 18.02 52.6801 17.77 52.0001 17.2C51.0501 16.39 49.9701 15.75 48.7901 15.33C47.9901 15.15 47.1701 15.1 46.3601 15.2C45.7201 15.32 44.9601 15.69 44.5401 16.08C43.8101 16.78 43.8001 17.71 44.5101 18.56L44.7101 18.8L44.5801 19.02C44.3801 19.34 44.4001 19.75 44.6201 20.06C44.7201 20.2 44.8201 20.31 44.8501 20.31C44.8701 20.31 44.8901 20.22 44.9001 20.11C44.9201 19.84 45.0401 19.66 45.2401 19.59C45.4201 19.52 45.5401 19.56 46.3601 19.89C47.2301 20.23 48.6601 20.25 50.1801 19.95C50.8401 19.8 51.5201 19.8 52.1801 19.97C52.9001 20.27 53.0601 21.04 52.5401 21.62C52.3101 21.88 52.1001 21.98 51.3701 22.18C50.7301 22.35 50.0701 22.4 49.4201 22.33C48.3401 22.32 47.9501 22.34 47.5201 22.43C47.0301 22.53 46.7401 22.54 45.3401 22.51L43.7101 22.47L43.8901 22.61C43.9901 22.7 44.0901 22.77 44.2001 22.84C44.3301 22.91 44.3201 22.92 44.1401 22.99C44.0401 23.03 43.8001 23.06 43.6101 23.06H43.2801L43.2401 23.34C43.2101 23.47 43.2101 23.61 43.2401 23.74C43.2801 23.84 43.2601 23.86 43.1601 23.82C43.0901 23.79 42.9001 23.74 42.7301 23.71C42.5601 23.67 42.3901 23.62 42.2301 23.55C42.0401 23.45 42.0201 23.45 41.9501 23.58C41.8901 23.68 41.3301 24.1 41.2501 24.1C41.2101 23.84 41.1401 23.59 41.0301 23.35C40.9301 23.14 40.8401 22.9 40.8101 22.83C40.7801 22.72 40.7601 22.71 40.7101 22.8C40.6801 22.85 40.6401 23 40.6101 23.12C40.5701 23.28 40.5101 23.44 40.4301 23.58L40.2801 23.8L40.1801 23.61C40.0801 23.41 39.9201 23.19 39.8601 23.19C39.8401 23.19 39.8101 23.25 39.7901 23.34C39.7401 23.5 39.3501 23.97 39.2501 23.97C39.2201 23.97 39.1901 23.84 39.1901 23.67C39.1901 23.52 39.1601 23.38 39.1201 23.38C39.0801 23.38 39.0501 23.43 39.0501 23.48C39.0501 23.6 38.7201 23.98 38.6001 23.98C38.5601 23.98 38.4801 24.02 38.4301 24.08C38.3101 24.21 38.2101 24.19 38.2601 24.04C38.2701 23.91 38.2601 23.78 38.2201 23.66L38.1201 23.34C38.1001 23.29 37.9801 23.31 37.7201 23.39C37.3201 23.52 37.1801 23.49 37.3901 23.33C37.4701 23.27 37.5901 23.06 37.6501 22.87C37.7201 22.67 37.8201 22.5 37.8701 22.48C37.9401 22.46 37.9401 22.48 37.8501 22.6C37.7901 22.68 37.7501 22.77 37.7401 22.86C37.7401 22.91 37.6901 23.04 37.6401 23.15C37.5801 23.25 37.5401 23.35 37.5501 23.36C37.5601 23.37 37.7201 23.31 37.9001 23.23L38.2201 23.07V23.21C38.2201 23.29 38.2601 23.49 38.3101 23.66L38.4001 23.96L38.6201 23.86C38.8401 23.76 39.0501 23.4 39.0501 23.11C39.0501 22.97 39.1301 22.99 39.1701 23.14C39.1701 23.18 39.2301 23.35 39.2701 23.51L39.3701 23.79L39.5201 23.61C39.6101 23.51 39.7101 23.31 39.7501 23.18C39.8301 22.94 39.9501 22.83 39.9501 23.01C39.9501 23.13 40.2901 23.59 40.3501 23.55C40.3901 23.53 40.4501 23.36 40.5001 23.17C40.6001 22.77 40.7501 22.51 40.8501 22.57C40.8901 22.59 40.9001 22.63 40.8801 22.67C40.8601 22.69 40.9401 22.95 41.0601 23.23C41.1501 23.44 41.2301 23.65 41.3201 23.86C41.3601 23.96 41.4001 23.96 41.6501 23.73C41.8001 23.59 41.9501 23.44 41.9601 23.39C41.9901 23.31 42.0201 23.32 42.1601 23.41C42.4501 23.57 42.7801 23.66 43.1101 23.69C43.1301 23.67 43.1501 23.49 43.1501 23.29L43.1601 22.92L43.3601 22.96C43.4601 22.99 43.6901 22.99 43.8601 22.96L44.1601 22.92L43.8901 22.72C43.7401 22.62 43.5901 22.49 43.5501 22.43C43.5201 22.37 43.3801 22.31 43.2301 22.3C42.8201 22.26 42.0901 21.86 42.0901 21.66C42.0901 21.62 42.1901 21.69 42.3101 21.8C42.5901 22.05 42.9701 22.2 43.3101 22.2H43.5501L43.4001 22C43.2901 21.84 43.2201 21.67 43.2001 21.48C43.1801 21.18 43.1501 21.14 42.8401 20.93C42.6601 20.8 42.4901 20.66 42.3401 20.5L42.1701 20.31L42.0801 20.54C42.0301 20.67 41.9801 20.77 41.9501 20.77C41.9301 20.77 41.8301 20.69 41.7501 20.6C41.6901 20.53 41.6301 20.48 41.5501 20.44C41.5201 20.44 41.4501 20.56 41.3701 20.71L41.2301 20.98L41.1301 20.83C41.0401 20.71 40.9401 20.59 40.8301 20.49C40.7101 20.39 40.6601 20.31 40.7001 20.31C40.7401 20.31 40.8701 20.41 41.0001 20.54L41.2201 20.77L41.3201 20.6C41.3801 20.48 41.4001 20.35 41.3701 20.22C41.3301 20.04 41.3401 20.03 41.4001 20.15C41.4901 20.26 41.5901 20.36 41.7001 20.45L41.9201 20.63L42.0701 20.36C42.2201 20.08 42.2201 20.08 42.2801 20.25C42.3801 20.46 43.0301 21 43.5801 21.31C43.6801 21.36 43.6401 21.2 43.4801 20.81C43.4301 20.68 43.4001 20.55 43.4001 20.41C43.4001 20.23 43.3501 20.15 43.1201 19.97C42.8301 19.78 42.6401 19.47 42.6201 19.13C42.5901 18.96 42.5301 18.78 42.4801 18.72C42.4201 18.62 42.4001 18.68 42.4201 18.98C42.4401 19.19 42.4101 19.45 42.3601 19.56L42.2801 19.76L42.2201 19.59C42.1801 19.5 42.0201 19.34 41.8701 19.24C41.7201 19.14 41.6101 19.04 41.6301 19.02C41.6501 19 41.8101 19.09 41.9801 19.22C42.2501 19.43 42.3001 19.45 42.3401 19.36C42.3801 19.26 42.3401 18.8 42.2601 18.48C42.2201 18.32 42.2201 18.32 42.4201 18.52C42.5601 18.66 42.6401 18.84 42.7101 19.14C42.7901 19.52 42.8301 19.59 43.1801 19.9C43.3901 20.09 43.5801 20.23 43.5901 20.22C43.6101 20.2 43.6301 19.72 43.6501 19.14C43.6901 18.03 43.6501 17.76 43.3801 17.42L43.2401 17.24L43.4601 17.01C43.7101 16.77 43.8701 16.47 43.9301 16.13L43.9701 15.86L43.7301 16.09C43.5301 16.28 43.4301 16.32 43.2001 16.32C42.9701 16.32 42.8801 16.28 42.7301 16.12C42.5001 15.9 42.2101 15.73 41.9001 15.64C41.7801 15.6 41.7401 15.62 41.7401 15.7C41.7401 15.76 41.6801 15.92 41.6001 16.07L41.4601 16.33L41.1601 16.03C40.9701 15.86 40.7601 15.71 40.5901 15.67C40.1801 15.57 40.1601 15.57 40.1601 15.88C40.1601 16.35 39.9601 16.44 39.6001 16.13C39.3201 15.89 39.1001 15.83 38.5701 15.9L38.1701 15.94L38.2401 16.12C38.3001 16.27 38.2901 16.34 38.1601 16.51C37.9501 16.79 37.6801 16.91 37.2601 16.91C37.0601 16.91 36.8201 16.95 36.7201 17C36.6201 17.05 36.3601 17.1 36.1501 17.12C35.9501 17.14 35.7201 17.18 35.6501 17.2C35.5501 17.24 35.5501 17.2 35.5801 16.98C35.6301 16.64 35.3801 16.38 35.0101 16.38C34.5201 16.38 34.3001 16.82 34.4901 17.4C34.5301 17.53 34.5601 17.65 34.5901 17.78C34.7201 18.03 34.9001 18.25 35.1101 18.44C35.3701 18.7 35.6101 18.97 35.6501 19.04C35.7301 19.14 35.8301 19.23 35.9501 19.29L36.1701 19.41L36.1401 19.17C36.1101 18.91 36.1601 18.87 36.3001 19.06C36.3501 19.12 36.4801 19.23 36.5801 19.29C36.7501 19.39 36.7801 19.39 36.7801 19.31C36.7801 19.25 36.8101 19.12 36.8501 19.02L36.9201 18.84L37.0501 19.09C37.1201 19.23 37.3501 19.54 37.5601 19.79C37.9701 20.26 38.2301 20.79 38.1001 20.91C38.0401 20.96 37.9001 20.96 37.6001 20.9C37.3801 20.86 37.1001 20.83 36.9801 20.85C36.7501 20.88 36.7301 20.85 36.8801 20.67C37.0301 20.47 37.0001 20.44 36.7001 20.44C36.3501 20.44 35.4801 20.27 35.1401 20.14C34.8201 20.01 34.7401 20.04 34.6401 20.35L34.4701 20.91L34.3701 21.21L34.7301 21.18C34.9201 21.16 35.1001 21.13 35.2801 21.08C35.3501 21.06 35.4301 21.05 35.5001 21.05C35.5201 21.06 35.4701 21.18 35.4001 21.32L35.2601 21.56L35.4801 21.52C35.6001 21.49 35.7801 21.43 35.8801 21.38C36.0601 21.3 36.0801 21.3 36.2201 21.53C36.3901 21.8 36.5201 21.79 36.5501 21.5C36.5801 21.2 36.6801 21.24 36.8701 21.64C37.0501 22.02 37.2301 22.16 37.2701 21.94C37.2801 21.86 37.3701 21.74 37.4801 21.66C37.7001 21.51 37.8601 21.56 37.9501 21.79C38.0501 22.04 37.8301 22.29 37.2101 22.67C36.0501 23.31 35.2501 24.46 35.0401 25.77C34.8501 26.95 35.4401 28.17 36.6001 29.06C37.1601 29.48 38.0501 29.92 37.9901 29.76C37.7501 29.03 37.7601 27.66 38.0001 27.43C38.0401 27.39 38.0301 27.53 37.9701 27.74C37.7701 28.53 37.8701 29.15 38.3701 30.61C38.8101 31.93 38.7501 32.5 38.1101 32.87C37.9101 32.99 37.7801 33.01 37.2301 33C36.6301 33 36.5601 33 36.3701 33.16C36.1401 33.39 35.9901 33.7 35.9401 34.02C35.9401 34.15 36.0801 34.13 36.3501 33.98Z" fill="#FFB700"/>
<path d="M37.0001 34.39C36.8101 34.39 36.6401 34.33 36.5101 34.21L36.4301 34.26H36.4101C36.2101 34.37 36.0101 34.44 35.8301 34.34C35.7201 34.28 35.6601 34.16 35.6601 34.02V33.98C35.7201 33.6 35.8901 33.24 36.1701 32.97L36.1901 32.95C36.4601 32.72 36.6101 32.72 37.2301 32.72C37.7701 32.73 37.8401 32.71 37.9701 32.63C38.4201 32.37 38.5501 32.02 38.1101 30.7C38.0301 30.47 37.9601 30.26 37.9001 30.07C37.7701 30.05 37.5901 29.98 37.3301 29.84C37.0201 29.68 36.6801 29.47 36.4401 29.28C35.1901 28.32 34.5701 26.99 34.7701 25.72C34.9901 24.34 35.8501 23.1 37.0801 22.42C37.1401 22.38 37.2001 22.35 37.2501 22.31C37.0501 22.34 36.8701 22.2 36.7001 21.88C36.6401 21.94 36.5801 21.97 36.5201 21.98C36.3301 22.02 36.1501 21.92 35.9901 21.66C35.9801 21.65 35.9801 21.64 35.9701 21.63C35.8501 21.69 35.6701 21.74 35.5501 21.77H35.5301L34.7101 21.92L35.0101 21.4C34.9201 21.41 34.8401 21.43 34.7501 21.44L33.9601 21.51L34.1901 20.81L34.3601 20.26C34.4101 20.09 34.4901 19.91 34.6701 19.82C34.8601 19.73 35.0501 19.8 35.2301 19.87C35.5401 19.99 36.3701 20.15 36.6801 20.15C36.8601 20.15 37.0901 20.15 37.1901 20.35C37.2301 20.42 37.2301 20.49 37.2201 20.56C37.4001 20.57 37.5801 20.61 37.6301 20.61C37.6901 20.62 37.7401 20.63 37.7801 20.64C37.7101 20.48 37.5601 20.23 37.3301 19.96C37.2201 19.82 37.0901 19.66 36.9801 19.51C36.9501 19.55 36.9101 19.58 36.8901 19.59C36.7301 19.68 36.5801 19.61 36.4601 19.53L36.5101 19.9L35.8101 19.52C35.6601 19.44 35.5301 19.33 35.4201 19.2L35.4001 19.17C35.3701 19.13 35.1801 18.9 34.9101 18.64C34.6701 18.43 34.4801 18.18 34.3301 17.91L34.3101 17.88L34.3001 17.84C34.2701 17.72 34.2401 17.6 34.2101 17.48C34.0801 17.07 34.1101 16.7 34.3001 16.43C34.4601 16.21 34.7001 16.1 35.0001 16.1C35.2701 16.1 35.5101 16.2 35.6701 16.39C35.7901 16.53 35.8501 16.7 35.8601 16.88C35.9501 16.87 36.0401 16.86 36.1201 16.85C36.3401 16.83 36.5401 16.78 36.5901 16.76C36.7501 16.68 37.0501 16.64 37.2601 16.64C37.6401 16.64 37.8101 16.52 37.9401 16.35C37.9701 16.3 37.9901 16.28 38.0001 16.27C38.0001 16.26 37.9901 16.25 37.9901 16.23L37.7901 15.7L38.5601 15.62C39.1401 15.54 39.4501 15.61 39.8001 15.92C39.8401 15.95 39.8701 15.97 39.8901 15.99C39.8901 15.96 39.9001 15.93 39.9001 15.88C39.9001 15.72 39.9001 15.53 40.0501 15.41C40.2101 15.28 40.3901 15.33 40.6701 15.4C40.8601 15.45 41.1001 15.59 41.3601 15.82L41.4001 15.86C41.4401 15.78 41.4601 15.71 41.4701 15.68C41.4801 15.52 41.5601 15.44 41.6101 15.4C41.7601 15.29 41.9201 15.35 41.9901 15.37C42.3401 15.47 42.6701 15.66 42.9301 15.92L42.9401 15.93C43.0301 16.03 43.0501 16.04 43.2101 16.04C43.3601 16.04 43.3901 16.04 43.5501 15.89L44.3801 15.09L44.2501 15.99C44.2901 15.95 44.3201 15.91 44.3601 15.87C44.8301 15.44 45.6301 15.05 46.3201 14.92H46.3401C47.1901 14.82 48.0401 14.86 48.8701 15.06L48.9001 15.07C50.1101 15.5 51.2201 16.15 52.2001 16.99C52.6901 17.4 52.9601 17.59 53.1101 17.67C53.1301 17.51 53.2001 17.39 53.2701 17.3L53.2801 17.28C53.4601 17.08 53.7001 16.99 53.9501 17.02C54.2001 17.05 54.4201 17.2 54.5401 17.44C54.7201 17.77 54.7201 18.14 54.5401 18.45C54.3401 18.78 53.9701 18.98 53.5301 18.98C52.9401 18.98 52.5101 18.78 51.8901 18.23L51.8801 18.22C51.7201 18.05 51.5401 17.89 51.3501 17.75C51.3701 17.78 51.3801 17.81 51.4001 17.83C51.6401 18.02 51.6001 18.19 51.5501 18.28C51.4001 18.54 51.0601 18.41 50.7701 18.28C50.4701 18.14 50.2001 17.96 50.0101 17.74C49.9601 17.83 49.9101 17.91 49.8501 17.97L49.8401 17.98C49.6701 18.15 49.2401 18.36 48.9701 18.36C48.7801 18.36 48.6901 18.27 48.6501 18.19C48.5601 18.01 48.6701 17.86 48.7701 17.73C48.8501 17.61 48.9101 17.48 48.9501 17.34C49.0001 17.14 49.0001 17.14 48.8901 16.95L48.8801 16.94C48.8301 16.84 48.7801 16.76 48.7101 16.7C48.7501 17.01 48.7001 17.32 48.5501 17.6L48.5401 17.62C48.3401 17.93 47.9701 18.17 47.5601 18.26H47.5501L47.1801 18.33C47.3001 18.4 47.3801 18.53 47.4001 18.67C47.4401 18.92 47.4401 18.92 47.6201 19.01C47.8201 19.12 47.8801 19.14 48.5501 19.14C49.0101 19.13 49.4701 19.1 49.9201 19.02C50.2901 18.95 50.9501 18.89 51.3701 18.89C52.1001 18.89 52.2401 18.9 52.6801 19.1C53.3901 19.41 53.8601 19.98 53.9601 20.66C54.0601 21.33 53.7701 22 53.1901 22.48L53.0401 22.6L53.1601 22.76C53.3601 23.03 53.5201 23.32 53.6501 23.63V23.64C53.8301 24.09 53.8501 24.25 53.8501 25.01C53.8601 25.91 53.6701 26.82 53.2901 27.64C52.8401 28.9 52.7701 29.64 53.0601 30.28C53.1801 30.54 53.3501 30.68 53.4501 30.68C53.6901 30.68 53.8701 30.8 53.9301 30.99C54.0301 31.29 53.8001 31.71 53.3301 32.05C52.9401 32.32 52.9001 32.43 52.9001 32.69C52.9001 32.88 52.9901 33.07 53.2901 33.54C53.3201 33.59 53.5001 33.87 53.4201 34.1V34.11C53.3901 34.18 53.3201 34.3 53.1201 34.35C52.8601 34.42 52.4501 34.33 52.2001 34.16C52.1101 34.25 52.0001 34.31 51.8701 34.34C51.6101 34.41 51.3301 34.34 51.1001 34.15L51.0701 34.13L51.0401 34.15C50.8401 34.31 50.6101 34.39 50.3901 34.36C50.2301 34.34 50.0901 34.26 49.9801 34.15L49.9501 34.17C49.7901 34.28 49.4901 34.48 49.2501 34.31C49.1701 34.25 49.0601 34.12 49.1301 33.85C49.2201 33.47 49.5501 32.97 50.5401 32.75C50.8001 32.69 51.0101 32.64 51.0501 32.57C51.1101 32.46 51.0901 32.08 51.0701 31.78C51.0101 30.88 51.0101 30.86 49.6901 30.04C49.0801 29.65 48.6601 29.36 48.2501 28.91C47.6001 28.23 47.2601 28.08 46.3401 28.04C45.2101 27.99 44.6201 28.14 42.8501 28.95C42.2401 29.23 41.5501 29.52 41.4201 29.56L41.4001 29.57L41.2101 29.61C41.0901 29.82 40.9601 30.03 40.8301 30.25C40.5201 30.72 40.5601 30.89 40.5801 30.94C40.6201 31.03 40.7901 31.09 41.0401 31.13C41.2901 31.16 41.6501 31.19 41.6501 31.49C41.6501 31.76 41.0801 32.33 40.9401 32.41L40.9101 32.43C40.7301 32.51 40.5401 32.58 40.3501 32.64H40.3401C40.2801 32.66 40.2201 32.69 40.1701 32.71C40.1701 32.73 40.1701 32.74 40.1701 32.76C40.1801 32.93 40.2001 33.1 40.2301 33.27C40.2701 33.58 40.2301 33.74 40.0401 34.02C39.8101 34.38 39.7001 34.44 39.2701 34.38H39.2601C39.1501 34.36 38.9001 34.31 38.7401 34.21L38.7301 34.22C38.3901 34.48 37.8701 34.48 37.5701 34.22L37.5501 34.23C37.4201 34.33 37.2001 34.39 37.0001 34.39ZM37.6201 33.47L37.9601 33.77C38.0501 33.86 38.2701 33.87 38.4301 33.75C38.5901 33.64 38.8201 33.48 39.0801 33.73C39.1101 33.75 39.2301 33.79 39.3801 33.81C39.4301 33.82 39.4801 33.82 39.5201 33.83C39.5401 33.8 39.5801 33.75 39.6101 33.7L39.6201 33.69C39.7401 33.51 39.7401 33.49 39.7201 33.34C39.6901 33.16 39.6701 32.98 39.6601 32.79C39.6301 32.35 39.8001 32.26 40.1901 32.11L40.2201 32.1C40.3901 32.05 40.5501 31.99 40.7101 31.92C40.7601 31.88 40.8601 31.78 40.9501 31.68C40.5101 31.61 40.2401 31.45 40.1201 31.18C39.9801 30.87 40.0701 30.47 40.4101 29.96C41.2201 28.69 41.7001 27.5 41.7001 26.78C41.7001 26.44 41.7001 26.15 41.9601 26.08C42.0701 26.05 42.2101 26.09 42.2901 26.24C42.5501 26.69 42.1701 27.98 41.7601 28.86C42.0001 28.76 42.3201 28.62 42.6701 28.46C44.5301 27.62 45.1901 27.45 46.4201 27.51C47.4801 27.55 47.9501 27.77 48.7101 28.56C49.0501 28.92 49.3701 29.17 50.0401 29.6C51.4401 30.47 51.6001 30.61 51.6801 31.78C51.7601 32.89 51.6801 33.12 50.7101 33.33C50.5501 33.37 50.3801 33.42 50.2201 33.49L50.4401 33.81C50.4501 33.83 50.4701 33.84 50.5001 33.84C50.5601 33.85 50.6501 33.81 50.7301 33.75L50.7401 33.74L51.1101 33.46L51.4901 33.74C51.6001 33.83 51.7001 33.84 51.7701 33.82C51.8201 33.81 51.8501 33.78 51.8701 33.73C51.9101 33.63 51.9901 33.55 52.1001 33.53C52.2701 33.49 52.4201 33.6 52.5201 33.69C52.5901 33.75 52.7201 33.79 52.8301 33.81C52.5101 33.33 52.3701 33.04 52.3701 32.7C52.3701 32.21 52.5301 31.94 53.0301 31.6C53.2201 31.46 53.3201 31.33 53.3701 31.24C53.0501 31.2 52.7501 30.93 52.5601 30.51C52.2101 29.72 52.2701 28.86 52.7801 27.44L52.7901 27.42C53.1401 26.67 53.3201 25.85 53.3001 25.02C53.3001 24.31 53.2801 24.21 53.1401 23.85C53.0201 23.58 52.8801 23.33 52.7101 23.1L52.2801 22.53L52.8301 22.06C53.2701 21.7 53.4801 21.22 53.4101 20.75C53.3401 20.26 53.0001 19.85 52.4601 19.62C52.1101 19.46 52.0501 19.45 51.3701 19.45C50.9901 19.45 50.3601 19.51 50.0201 19.57H50.0101C49.5301 19.65 49.0401 19.69 48.5501 19.69C47.8601 19.69 47.6801 19.67 47.3601 19.5C47.0701 19.35 46.9501 19.22 46.8801 18.95C46.7901 19.03 46.7101 19.11 46.6901 19.16C46.6301 19.3 46.5401 19.38 46.4201 19.39C46.2401 19.41 46.1301 19.28 46.0601 19.2C45.9501 19.06 45.8701 18.92 45.8101 18.76L45.8001 18.74C45.7201 18.48 45.7201 18.13 46.0701 17.84C46.0601 17.84 46.0501 17.84 46.0401 17.85C45.8701 17.89 45.7201 17.99 45.6501 18.1L45.6401 18.12C45.4901 18.33 45.4201 18.44 45.2501 18.44C45.1801 18.44 45.0801 18.44 44.7901 18.12C44.5001 17.83 44.3801 17.45 44.4701 17.09C44.5601 16.73 44.8401 16.44 45.2301 16.32C45.5001 16.23 45.7801 16.24 45.9801 16.35C46.0101 16.36 46.0301 16.38 46.0601 16.4C46.0601 16.37 46.0601 16.34 46.0601 16.3C46.0401 16.1 46.0201 15.95 46.1301 15.83C46.2401 15.71 46.3901 15.71 46.4901 15.71C46.8701 15.71 47.4801 16.11 47.7001 16.43C47.9001 16.74 47.9401 17.16 47.8201 17.54C47.9101 17.48 47.9901 17.4 48.0401 17.32C48.1601 17.08 48.1801 16.8 48.0701 16.54C47.9801 16.38 47.8601 16.16 48.0201 15.98C48.1801 15.8 48.4101 15.9 48.5101 15.94C48.9401 16.12 49.1801 16.33 49.3501 16.68C49.5201 17 49.5401 17.13 49.4501 17.48C49.4401 17.5 49.4401 17.52 49.4301 17.53C49.4701 17.47 49.5201 17.37 49.5501 17.29L49.5601 17.27L49.8901 16.44L50.2701 17.19C50.3501 17.33 50.4901 17.47 50.6601 17.59C50.6101 17.43 50.5801 17.28 50.5801 17.18C50.5801 17.02 50.6501 16.93 50.7101 16.88L50.8601 16.77L51.0201 16.86C51.2601 17 51.4901 17.15 51.7101 17.32C50.8101 16.56 49.8001 15.98 48.6901 15.58C47.9301 15.41 47.1501 15.37 46.3801 15.46C45.7901 15.57 45.0901 15.91 44.7101 16.27C44.0901 16.86 44.0901 17.63 44.7001 18.37L45.0301 18.76L44.8001 19.15C44.7001 19.31 44.6801 19.49 44.7201 19.66C44.8101 19.5 44.9501 19.38 45.1301 19.32C45.4101 19.21 45.6101 19.29 46.4501 19.62C47.2701 19.94 48.6401 19.96 50.1101 19.67C50.8001 19.51 51.5401 19.52 52.2301 19.69L52.2701 19.7C52.6901 19.88 52.9901 20.21 53.0801 20.61C53.1701 21.02 53.0501 21.45 52.7301 21.8C52.4401 22.12 52.1701 22.24 51.4301 22.44C50.7601 22.62 50.0801 22.67 49.3901 22.6C48.3401 22.59 47.9701 22.61 47.5601 22.69C47.0401 22.8 46.7501 22.81 45.3201 22.78L44.5201 22.76C44.5401 22.79 44.5501 22.82 44.5501 22.86L44.8701 23.09L44.4101 23.15C44.3501 23.19 44.2901 23.21 44.2301 23.23C44.0801 23.29 43.8001 23.32 43.6001 23.32H43.5101L43.5001 23.38C43.4801 23.47 43.4801 23.56 43.5001 23.65C43.5601 23.84 43.5001 23.95 43.4401 24.02C43.3701 24.09 43.2501 24.15 43.0501 24.07C43.0101 24.05 42.8501 24.01 42.6801 23.98H42.6701C42.4801 23.94 42.2901 23.88 42.1201 23.8C41.9301 23.99 41.4501 24.37 41.2501 24.37H41.0101L40.9801 24.13C40.9501 23.91 40.8901 23.69 40.7901 23.48C40.7601 23.56 40.7201 23.64 40.6701 23.71L40.6601 23.73L40.2501 24.33L39.9301 23.73C39.9201 23.71 39.9101 23.7 39.9001 23.68C39.7601 23.88 39.5601 24.12 39.3701 24.21L39.2601 24.34L39.2301 24.24C39.1101 24.24 39.0201 24.17 38.9701 24.06C38.8601 24.16 38.7501 24.23 38.6501 24.25C38.6501 24.25 38.6501 24.25 38.6401 24.25L38.6301 24.26C38.4401 24.47 38.2401 24.46 38.1201 24.39C38.0101 24.33 37.9201 24.18 37.9801 23.98C37.9901 23.9 37.9801 23.82 37.9501 23.74L37.9101 23.62C37.8801 23.63 37.8401 23.64 37.8001 23.65C37.5601 23.73 37.1901 23.85 37.0501 23.57C37.0001 23.48 36.9601 23.3 37.2201 23.1C37.2401 23.08 37.2801 23.01 37.3301 22.92C36.2601 23.52 35.5101 24.6 35.3201 25.81C35.1501 26.87 35.6901 28 36.7701 28.83C37.0301 29.03 37.3601 29.22 37.6101 29.35C37.4901 28.6 37.4901 27.52 37.8001 27.22C37.8901 27.13 38.0401 27.11 38.1501 27.17C38.3601 27.29 38.3001 27.55 38.2301 27.8C38.0501 28.51 38.1301 29.06 38.6301 30.5C39.0501 31.76 39.1201 32.59 38.2501 33.09C37.9901 33.25 37.7901 33.27 37.2201 33.26C36.6801 33.26 36.6601 33.26 36.5601 33.35C36.4801 33.44 36.4101 33.53 36.3501 33.63L36.6501 33.45L36.9001 33.8C36.9301 33.82 37.1101 33.83 37.2501 33.74L37.6201 33.47ZM38.5001 22.62V23.21C38.5001 23.25 38.5301 23.39 38.5701 23.56C38.6601 23.47 38.7701 23.28 38.7701 23.11C38.7701 22.86 38.9201 22.75 39.0501 22.74C39.1901 22.72 39.3701 22.8 39.4401 23.07L39.4501 23.12C39.4501 23.13 39.4601 23.14 39.4601 23.16C39.4701 23.14 39.4801 23.12 39.4801 23.1C39.6201 22.68 39.8201 22.62 39.9601 22.65C40.0001 22.66 40.2101 22.71 40.2301 22.98C40.2301 22.99 40.2401 23.01 40.2501 23.02C40.3601 22.62 40.5101 22.38 40.6901 22.31C40.7901 22.27 40.9001 22.27 40.9901 22.33C41.0801 22.38 41.1401 22.45 41.1601 22.54C41.1801 22.59 41.1801 22.65 41.1701 22.7C41.1901 22.77 41.2401 22.93 41.3201 23.12C41.3701 23.25 41.4301 23.38 41.4801 23.51C41.6301 23.37 41.6901 23.3 41.7101 23.28C41.7501 23.17 41.8201 23.1 41.9201 23.07C42.0701 23.02 42.2001 23.09 42.3101 23.17C42.4901 23.26 42.6801 23.33 42.8801 23.37C42.8801 23.34 42.8801 23.32 42.8801 23.29L42.9001 22.58L43.4101 22.68C43.3801 22.65 43.3601 22.63 43.3401 22.6C43.3201 22.59 43.2701 22.58 43.2201 22.57C42.8001 22.53 41.8201 22.1 41.8201 21.65C41.8201 21.53 41.8901 21.43 41.9901 21.38C42.1801 21.3 42.3301 21.42 42.5101 21.58C42.6601 21.71 42.8401 21.81 43.0301 21.86C42.9801 21.74 42.9501 21.62 42.9301 21.5V21.48C42.9201 21.3 42.9201 21.3 42.6901 21.14C42.5401 21.03 42.4001 20.92 42.2701 20.8C42.2101 20.91 42.1401 21 42.0201 21.03L42.0101 21.04L42.0001 21.03C41.9901 21.03 41.9701 21.03 41.9601 21.03C41.9201 21.03 41.8101 21.03 41.6201 20.84L41.2701 21.51L40.9101 20.97C40.8301 20.87 40.7501 20.77 40.6501 20.68C40.5101 20.56 40.3601 20.4 40.4301 20.2C40.4701 20.08 40.5801 20.01 40.7101 20.01C40.7601 20.01 40.8601 20.01 41.1001 20.22C41.0701 20.09 41.0501 19.87 41.2701 19.79C41.4201 19.74 41.5501 19.8 41.6501 19.98C41.7101 20.06 41.7801 20.12 41.8501 20.18C41.9101 20.06 41.9601 19.97 42.0301 19.91L42.0401 19.88L41.9701 19.68C41.9501 19.64 41.8401 19.53 41.7201 19.45C41.4001 19.24 41.3601 19.13 41.3501 19.03L41.3401 18.9L41.4401 18.8C41.6101 18.63 41.8301 18.74 42.0601 18.91C42.0501 18.79 42.0201 18.65 41.9901 18.53C41.9601 18.43 41.9101 18.21 42.1101 18.1C42.3101 17.99 42.4501 18.13 42.6201 18.3C42.8001 18.48 42.9001 18.69 42.9801 19.05C43.0501 19.36 43.0501 19.39 43.3501 19.65C43.3601 19.5 43.3601 19.32 43.3701 19.1C43.4101 18 43.3601 17.82 43.1601 17.56L42.8701 17.19L43.2701 16.78C43.3401 16.71 43.4101 16.63 43.4601 16.55C43.3801 16.57 43.3001 16.58 43.2001 16.58C42.9001 16.58 42.7301 16.51 42.5301 16.3C42.3701 16.14 42.1701 16.02 41.9601 15.94C41.9201 16.05 41.8701 16.14 41.8501 16.19L41.5301 16.78L40.9701 16.22C40.7101 15.98 40.5701 15.94 40.5301 15.93C40.5001 15.92 40.4701 15.92 40.4401 15.91C40.4301 16.24 40.3301 16.45 40.1301 16.54C39.9301 16.63 39.6801 16.56 39.4101 16.33C39.2201 16.16 39.0901 16.1 38.6001 16.17L38.5401 16.18C38.5701 16.37 38.5001 16.51 38.3701 16.68C38.1101 17.03 37.7501 17.19 37.2501 17.19C37.0601 17.19 36.8801 17.23 36.8401 17.25C36.6801 17.33 36.3401 17.38 36.1701 17.4C35.9901 17.42 35.7901 17.45 35.7301 17.47C35.5701 17.53 35.4601 17.48 35.4001 17.43C35.2501 17.31 35.2701 17.13 35.3001 16.94C35.3101 16.86 35.3001 16.8 35.2501 16.75C35.2001 16.69 35.1101 16.66 35.0001 16.66C34.8901 16.66 34.8101 16.69 34.7601 16.76C34.6801 16.87 34.6701 17.08 34.7501 17.31C34.7901 17.43 34.8201 17.56 34.8501 17.68C34.9601 17.89 35.1101 18.07 35.2901 18.23L35.3001 18.24C35.4801 18.42 35.7801 18.73 35.8701 18.87C35.9001 18.79 35.9501 18.72 36.0501 18.68C36.2801 18.59 36.4501 18.8 36.5101 18.88C36.5201 18.89 36.5401 18.91 36.5701 18.94C36.5701 18.93 36.5801 18.92 36.5801 18.91L36.8701 18.16L37.2901 18.96C37.3401 19.06 37.5301 19.33 37.7701 19.61C37.9301 19.79 38.7101 20.73 38.2901 21.12L38.2801 21.13C38.1201 21.26 37.8901 21.25 37.5501 21.18C37.3001 21.14 37.0801 21.12 37.0301 21.13C36.9901 21.14 36.9401 21.14 36.8901 21.14C36.9901 21.24 37.0701 21.4 37.1301 21.52C37.1401 21.54 37.1501 21.56 37.1601 21.58C37.2101 21.52 37.2701 21.47 37.3201 21.43C37.5601 21.27 37.7401 21.28 37.8601 21.31C37.9701 21.34 38.1201 21.44 38.2201 21.68C38.3101 21.9 38.2601 22.1 38.1301 22.28C38.1401 22.29 38.1501 22.3 38.1601 22.31C38.2801 22.49 38.1501 22.67 38.0801 22.76C38.0601 22.79 38.0401 22.81 38.0301 22.84L38.5001 22.62ZM43.9001 22.19L45.3501 22.23C46.7301 22.26 47.0101 22.25 47.4701 22.16C47.9201 22.07 48.3201 22.04 49.4301 22.05H49.4601C50.0801 22.12 50.7001 22.07 51.3101 21.91C52.0201 21.72 52.1701 21.63 52.3401 21.44C52.5301 21.22 52.6101 20.98 52.5601 20.75C52.5101 20.53 52.3501 20.35 52.1001 20.24C51.5001 20.09 50.8601 20.09 50.2501 20.23C48.6701 20.54 47.1801 20.52 46.2701 20.16C45.5601 19.88 45.4301 19.83 45.3501 19.86C45.3101 19.88 45.2001 19.91 45.1901 20.14C45.1801 20.27 45.1501 20.6 44.8601 20.6C44.7401 20.6 44.6201 20.54 44.4001 20.23C44.1101 19.83 44.0901 19.3 44.3501 18.88L44.3801 18.84L44.3101 18.75C44.1601 18.57 44.0401 18.39 43.9501 18.2C43.9701 18.45 43.9601 18.75 43.9501 19.16C43.9101 20.33 43.9101 20.33 43.8101 20.43C43.7801 20.46 43.7401 20.49 43.7101 20.5C43.7201 20.57 43.7401 20.65 43.7701 20.72C43.9301 21.1 44.0301 21.35 43.8401 21.53C43.7701 21.59 43.6601 21.64 43.5301 21.59C43.5601 21.68 43.6001 21.77 43.6501 21.84L43.9001 22.19ZM37.5501 21.99C37.5401 22.04 37.5201 22.09 37.5001 22.13C37.7101 21.96 37.6901 21.9 37.6901 21.89C37.6901 21.88 37.6801 21.87 37.6801 21.86C37.6701 21.87 37.6601 21.87 37.6401 21.88C37.5901 21.92 37.5601 21.97 37.5501 21.99ZM36.0401 21.05C36.1601 21.05 36.2501 21.11 36.3401 21.21C36.3801 21.12 36.4601 21.05 36.5801 21.03C36.5701 21.01 36.5501 21 36.5401 20.98C36.4901 20.89 36.4901 20.8 36.5201 20.72C36.0901 20.68 35.3701 20.54 35.0401 20.41C34.9901 20.39 34.9601 20.38 34.9301 20.37C34.9201 20.39 34.9101 20.41 34.9001 20.44L34.7601 20.9C34.9001 20.88 35.0501 20.85 35.1901 20.82C35.2901 20.79 35.4001 20.77 35.5001 20.78H35.5601L35.6101 20.81C35.7601 20.88 35.7801 21 35.7601 21.13C35.8801 21.08 35.9601 21.05 36.0401 21.05ZM42.5401 20.14C42.5901 20.23 42.8401 20.46 43.1601 20.7C43.1401 20.61 43.1301 20.52 43.1301 20.42C43.1301 20.34 43.1301 20.33 42.9701 20.2C42.8101 20.1 42.6801 19.96 42.5801 19.81L42.5001 20.02C42.5101 20.05 42.5201 20.1 42.5401 20.14ZM46.3501 18.58C46.3601 18.61 46.3701 18.64 46.3801 18.66C46.4801 18.55 46.6101 18.44 46.7401 18.37L46.9601 18.01L46.6201 18.17C46.2801 18.33 46.3101 18.47 46.3501 18.58ZM52.2601 17.82C52.7801 18.28 53.0701 18.42 53.5201 18.42C53.7501 18.42 53.9501 18.32 54.0401 18.16C54.1201 18.02 54.1201 17.86 54.0301 17.7C53.9901 17.62 53.9301 17.58 53.8701 17.57C53.8101 17.56 53.7501 17.59 53.7001 17.64C53.6501 17.71 53.6501 17.73 53.6601 17.77C53.6801 17.86 53.7201 18.02 53.6201 18.15C53.5101 18.28 53.3601 18.28 53.2701 18.28C53.0101 18.28 52.6701 18.08 52.0001 17.54C52.0801 17.64 52.1801 17.73 52.2601 17.82ZM51.3701 17.81C51.3801 17.81 51.3801 17.82 51.3701 17.81C51.3801 17.81 51.3801 17.82 51.3701 17.81ZM45.6001 16.82C45.5501 16.82 45.4801 16.83 45.4101 16.85C45.2001 16.92 45.0601 17.05 45.0201 17.22C44.9801 17.39 45.0401 17.57 45.2001 17.72L45.2101 17.73C45.2101 17.74 45.2201 17.74 45.2201 17.74C45.3701 17.52 45.6201 17.36 45.9201 17.29C46.2301 17.22 46.5401 17.26 46.7701 17.41L47.1601 17.65L47.2001 17.59C47.3601 17.32 47.3801 16.94 47.2401 16.73C47.1301 16.57 46.8101 16.37 46.6201 16.29C46.6401 16.67 46.4701 17.1 46.1801 17.17C46.0301 17.2 45.8301 17.14 45.7401 16.86V16.85C45.7401 16.85 45.7401 16.84 45.7201 16.83C45.7001 16.83 45.6501 16.82 45.6001 16.82ZM43.6101 17.26C43.6501 17.31 43.6801 17.35 43.7101 17.4C43.7001 17.32 43.7001 17.24 43.7101 17.16C43.6901 17.18 43.6801 17.19 43.6601 17.21L43.6101 17.26ZM41.4601 15.69C41.4601 15.7 41.4601 15.7 41.4601 15.69C41.4601 15.7 41.4601 15.7 41.4601 15.69Z" fill="black"/>
<path d="M46.0501 33.95L46.3001 33.79L46.4701 33.95C46.6901 34.16 46.9601 34.15 47.1701 33.94C47.2701 33.84 47.3501 33.78 47.3601 33.79L47.4501 33.95C47.5001 34.04 47.6101 34.08 47.8101 34.1C48.0401 34.11 48.1101 34.1 48.2101 33.96L48.3101 33.79L48.5601 33.95C49.2401 34.39 49.6001 33.93 49.2901 33.02C49.1401 32.56 49.2301 32.3 49.7201 31.72C49.9301 31.47 50.1001 31.2 50.1001 31.12C50.1001 31.01 50.0601 30.99 49.7801 31C49.5201 31 49.4401 30.97 49.3001 30.82C49.0701 30.57 49.0901 30.28 49.3401 29.96L49.5401 29.71L49.1801 29.47C48.8901 29.26 48.6201 29.02 48.3801 28.76C47.9401 28.24 47.3101 27.92 46.6301 27.86L46.1601 27.81V28.17C46.1601 28.62 46.3801 29.06 46.9601 29.8C47.6201 30.64 47.6601 30.77 47.6901 31.87L47.7201 32.8L47.5201 32.98C47.3501 33.14 47.2801 33.17 46.7201 33.2C46.1901 33.23 46.0701 33.26 45.9201 33.4C45.7401 33.53 45.6201 33.72 45.5801 33.93C45.5501 34.08 45.5601 34.11 45.6701 34.11C45.7401 34.11 45.9101 34.04 46.0501 33.95ZM31.8301 31.55C31.8901 31.46 31.9301 31.36 31.9301 31.25C31.9301 31.15 31.9901 31.11 32.2501 31.07L32.5601 31.03L32.3601 30.86C32.1101 30.66 32.0801 30.51 32.3001 30.51C32.5201 30.51 32.8801 30.29 32.9401 30.12C32.9701 30.04 32.9401 29.94 32.9001 29.89C32.7801 29.75 32.5501 29.77 32.5101 29.93C32.4601 30.09 32.3901 30.09 32.2101 29.93C31.9601 29.68 31.9501 29.17 32.2101 28.87C32.3201 28.73 32.3201 28.73 32.1701 28.58C32.0101 28.42 31.8901 28.12 31.9701 28.04C31.9901 28.02 32.1201 28.04 32.2501 28.09C32.4501 28.15 32.5201 28.15 32.6001 28.09C32.8301 27.9 32.5801 27.66 32.2001 27.72C32.0401 27.74 31.9801 27.72 31.9601 27.64C31.9401 27.58 31.8101 27.5 31.6601 27.46C31.3901 27.39 31.3901 27.39 31.3901 27.58C31.3901 27.78 31.2701 27.82 31.0501 27.69C30.8701 27.59 30.7001 27.67 30.7001 27.86C30.7001 28.04 30.8701 28.12 31.2001 28.1C31.4401 28.09 31.4501 28.27 31.2201 28.53L31.0501 28.73L31.1801 28.92C31.3801 29.2 31.3601 29.67 31.1501 29.91L30.9801 30.09L30.8701 29.94C30.7101 29.74 30.5001 29.75 30.4401 29.97C30.4101 30.11 30.4401 30.17 30.6201 30.33C30.7401 30.43 30.9201 30.51 31.0101 30.51C31.2401 30.51 31.2301 30.7 30.9901 30.88L30.7901 31.03L31.0901 31.07C31.2501 31.1 31.3901 31.14 31.3901 31.17C31.3901 31.3 31.5901 31.69 31.6501 31.69C31.6901 31.69 31.7701 31.62 31.8301 31.55Z" fill="#FFB700"/>
<path d="M49.0201 34.4C48.8601 34.4 48.6501 34.35 48.4101 34.19L48.4001 34.18C48.2301 34.38 48.0401 34.39 47.8001 34.38H47.7801C47.6101 34.36 47.4201 34.33 47.2901 34.2C46.9801 34.45 46.5701 34.44 46.2701 34.15L46.2601 34.14L46.1901 34.18C46.1601 34.2 45.8701 34.38 45.6601 34.38C45.6101 34.38 45.4601 34.38 45.3501 34.25C45.2401 34.12 45.2701 33.96 45.2901 33.86C45.3501 33.58 45.5001 33.34 45.7301 33.17C45.9601 32.97 46.1701 32.94 46.6901 32.91C47.1901 32.88 47.2101 32.87 47.3101 32.77L47.4201 32.67L47.3901 31.87C47.3601 30.82 47.3401 30.75 46.7201 29.96C46.0901 29.16 45.8601 28.67 45.8601 28.16V27.5L46.6401 27.58C47.3901 27.64 48.0801 27.99 48.5701 28.57C48.8001 28.81 49.0501 29.04 49.3201 29.24L49.9301 29.65L49.5401 30.14C49.3101 30.44 49.4201 30.56 49.4901 30.64C49.5701 30.72 49.5701 30.73 49.7601 30.73C49.9301 30.72 50.1201 30.72 50.2501 30.84C50.3601 30.95 50.3601 31.08 50.3601 31.13C50.3601 31.35 50.0801 31.71 49.9101 31.91C49.4401 32.47 49.4301 32.63 49.5301 32.94C49.7401 33.55 49.6901 34.04 49.3801 34.28C49.3301 34.33 49.2001 34.4 49.0201 34.4ZM48.2201 33.4L48.7101 33.72C48.9101 33.85 49.0301 33.86 49.0701 33.83C49.1201 33.79 49.1801 33.56 49.0301 33.11C48.8301 32.49 49.0201 32.13 49.5101 31.54C49.5901 31.44 49.6601 31.35 49.7101 31.28C49.4501 31.27 49.2901 31.22 49.1001 31.01C48.7801 30.66 48.7901 30.22 49.1201 29.79L49.1301 29.78L49.0101 29.7C48.7101 29.48 48.4301 29.23 48.1701 28.96L48.1601 28.95C47.7601 28.48 47.2101 28.2 46.6001 28.15L46.4301 28.13V28.18C46.4301 28.55 46.6301 28.95 47.1701 29.64C47.8601 30.52 47.9301 30.71 47.9601 31.88L47.9901 32.94L47.6901 33.21C47.4501 33.44 47.2901 33.47 46.7201 33.5C46.5801 33.51 46.4701 33.52 46.3901 33.53L46.6501 33.77C46.7601 33.87 46.8501 33.87 46.9601 33.77C47.1601 33.57 47.2501 33.54 47.3401 33.54H47.4601L47.5701 33.65L47.6701 33.82C47.6901 33.83 47.7301 33.84 47.8201 33.85C47.8501 33.85 47.9201 33.85 47.9501 33.85L47.9601 33.84L48.2201 33.4ZM31.5501 32.46V31.95C31.3501 31.87 31.2201 31.58 31.1501 31.37C31.1201 31.36 31.0901 31.36 31.0401 31.35L30.0701 31.22L30.7301 30.73C30.6201 30.68 30.5101 30.62 30.4401 30.55C30.2501 30.38 30.1001 30.22 30.1701 29.92V29.91C30.2201 29.71 30.3601 29.58 30.5401 29.54C30.6901 29.51 30.8501 29.56 30.9901 29.67C31.0701 29.51 31.0701 29.26 30.9601 29.1L30.7101 28.73L30.9901 28.4C30.8101 28.38 30.6801 28.33 30.5801 28.24C30.4801 28.15 30.4301 28.02 30.4301 27.88C30.4301 27.7 30.5201 27.54 30.6601 27.45C30.8001 27.37 30.9701 27.36 31.1301 27.43C31.1401 27.36 31.1801 27.28 31.2501 27.22C31.3901 27.11 31.5301 27.15 31.7401 27.2C31.8201 27.22 32.0501 27.3 32.1801 27.45C32.5201 27.4 32.8301 27.52 32.9401 27.77C33.0301 27.96 32.9701 28.17 32.7901 28.32L32.7801 28.33C32.6601 28.42 32.5301 28.44 32.4101 28.43C32.6001 28.63 32.6601 28.79 32.4401 29.06L32.4301 29.07C32.2801 29.24 32.2801 29.51 32.3601 29.67C32.4201 29.61 32.5001 29.57 32.5901 29.54C32.7801 29.49 32.9901 29.56 33.1201 29.72C33.2201 29.84 33.2801 30.04 33.2101 30.23C33.1401 30.44 32.8801 30.63 32.6301 30.73L33.2301 31.24L32.2901 31.36C32.2501 31.37 32.2301 31.37 32.2001 31.38C32.1801 31.5 32.1301 31.62 32.0601 31.72L31.5501 32.46ZM31.1101 31.17C31.1101 31.19 31.1101 31.22 31.1201 31.24C31.1101 31.21 31.1101 31.19 31.1101 31.17ZM31.3901 30.85C31.5301 30.9 31.6501 30.97 31.6701 31.12C31.7101 30.97 31.8401 30.89 31.9601 30.85C31.8701 30.72 31.8501 30.6 31.8901 30.48C31.9101 30.42 31.9801 30.29 32.1601 30.25C32.1101 30.21 32.0601 30.17 32.0301 30.14L32.0201 30.13C31.6801 29.79 31.6501 29.16 31.9501 28.75C31.8601 28.65 31.7701 28.51 31.7201 28.38C31.6201 28.11 31.6801 27.95 31.7601 27.86C31.7401 27.84 31.7301 27.81 31.7201 27.78C31.7001 27.77 31.6801 27.76 31.6501 27.75C31.6301 27.83 31.5901 27.89 31.5401 27.93C31.5901 27.97 31.6101 28.02 31.6301 28.05C31.6901 28.18 31.7101 28.4 31.4301 28.72L31.4001 28.75L31.4101 28.76C31.6801 29.14 31.6601 29.75 31.3601 30.09L31.3501 30.1L31.2001 30.26C31.3601 30.32 31.4201 30.45 31.4301 30.5C31.4801 30.61 31.4601 30.74 31.3901 30.85Z" fill="black"/>
<path d="M35.6501 29.89C35.9201 29.79 36.5001 29.29 36.5001 29.18C36.5001 29.14 36.3401 28.96 36.1401 28.78C35.7401 28.42 35.2901 27.79 35.1701 27.43C35.1101 27.23 34.8201 26.91 34.0001 26.11L32.9101 25.06L32.6001 25.14C32.4201 25.18 32.2101 25.22 32.1301 25.22C31.9801 25.22 31.9801 25.22 32.1801 25.38L32.3801 25.54L32.6801 25.38C32.9501 25.22 32.9601 25.22 32.9901 25.35C33.0101 25.42 32.9701 25.55 32.8901 25.64C32.8201 25.73 32.7801 25.84 32.7901 25.87C32.8201 25.9 32.7501 25.97 32.6401 26.03C32.4401 26.13 32.2901 26.46 32.4501 26.46C32.6001 26.46 32.9201 26.06 32.8801 25.93C32.8601 25.86 32.8801 25.79 32.9001 25.77C33.0301 25.7 33.0201 26.01 32.9001 26.17C32.8201 26.25 32.7801 26.35 32.8001 26.39C32.8201 26.42 32.7501 26.49 32.6401 26.55C32.4401 26.65 32.2901 26.98 32.4501 26.98C32.6101 26.98 32.9201 26.6 32.8901 26.46C32.8701 26.39 32.8701 26.31 32.9001 26.29C32.9901 26.25 33.0301 26.49 32.9601 26.61C32.9201 26.68 32.9201 26.76 32.9601 26.83C33.0301 26.96 32.9601 27.2 32.8301 27.28C32.7801 27.31 32.8101 27.38 32.9501 27.48C33.1501 27.62 33.1501 27.64 33.1501 28.28C33.1501 28.82 33.1701 28.96 33.2701 29.05C33.3701 29.15 33.3901 29.15 33.3901 29.05C33.3901 28.95 33.5901 28.81 33.7401 28.81C33.7901 28.81 34.0801 29.06 34.3901 29.36C34.7001 29.66 35.0301 29.93 35.1201 29.94L35.3401 29.98C35.3701 29.98 35.5101 29.95 35.6501 29.88V29.89ZM32.3201 27.28C32.3201 27.11 31.9601 26.92 31.5301 26.88C31.1801 26.83 31.1801 26.84 31.1801 27.01C31.1801 27.15 31.2301 27.21 31.4801 27.31C31.8601 27.48 32.3201 27.46 32.3201 27.28Z" fill="#FFB700"/>
<path d="M35.37 30.29V30.26C35.36 30.26 35.35 30.26 35.34 30.26H35.29L35.08 30.22C35.01 30.21 34.81 30.16 34.2 29.56C33.97 29.33 33.79 29.18 33.7 29.11C33.69 29.11 33.68 29.12 33.67 29.13C33.65 29.29 33.56 29.36 33.49 29.39C33.3 29.47 33.16 29.33 33.09 29.26C32.89 29.08 32.88 28.81 32.88 28.29C32.88 28.03 32.88 27.82 32.86 27.77C32.85 27.76 32.81 27.73 32.8 27.72C32.72 27.66 32.62 27.58 32.57 27.47C32.54 27.53 32.49 27.58 32.43 27.62C32.18 27.79 31.71 27.73 31.39 27.58C31.15 27.48 30.92 27.36 30.92 27.02C30.92 26.92 30.92 26.78 31.04 26.67C31.17 26.55 31.34 26.58 31.58 26.61C31.78 26.63 31.98 26.68 32.15 26.75C32.16 26.71 32.18 26.67 32.2 26.63C32.16 26.59 32.14 26.54 32.13 26.48C32.08 26.26 32.24 25.98 32.45 25.83L32.37 25.87L32.03 25.59C31.86 25.45 31.71 25.34 31.78 25.13C31.85 24.93 32.05 24.93 32.15 24.93C32.18 24.93 32.32 24.91 32.56 24.86L33.01 24.74L34.21 25.9C35.12 26.79 35.38 27.09 35.45 27.34C35.54 27.62 35.95 28.21 36.34 28.56C36.79 28.97 36.79 29.09 36.79 29.17C36.79 29.51 35.97 30.06 35.76 30.14L35.37 30.29ZM35.19 29.67L35.34 29.7C35.38 29.69 35.45 29.67 35.52 29.63L35.73 29.53C35.87 29.43 36.04 29.29 36.15 29.19C36.1 29.14 36.03 29.07 35.95 29C35.52 28.61 35.04 27.94 34.9 27.53C34.85 27.35 34.3 26.81 33.8 26.32L33.26 25.8C33.28 25.93 33.25 26.07 33.2 26.19C33.28 26.34 33.29 26.56 33.21 26.73C33.29 26.9 33.27 27.13 33.17 27.31C33.42 27.51 33.42 27.67 33.42 28.29C33.42 28.36 33.42 28.5 33.42 28.62C33.52 28.57 33.63 28.54 33.73 28.54C33.83 28.54 33.92 28.54 34.57 29.17C34.89 29.45 35.12 29.63 35.19 29.67ZM32.98 27.51C32.98 27.52 32.98 27.52 32.98 27.51C32.98 27.52 32.98 27.52 32.98 27.51Z" fill="black"/>
<path d="M32.71 27.26C32.89 27.1 32.97 26.92 32.86 26.92C32.74 26.92 32.42 27.2 32.42 27.32C32.42 27.48 32.48 27.47 32.72 27.26H32.71ZM32.34 26.75C32.35 26.65 32.29 26.59 32.11 26.5C31.71 26.33 31.25 26.24 31.14 26.33C30.93 26.5 31.07 26.72 31.4 26.76C31.54 26.77 31.72 26.81 31.81 26.85C32.07 26.95 32.31 26.9 32.34 26.75ZM32.34 26.22C32.36 26.09 32.27 26.04 31.54 25.78C30.99 25.58 30.75 25.68 30.93 26.01C30.99 26.12 31.09 26.17 31.32 26.21C31.49 26.23 31.72 26.28 31.83 26.32C32.13 26.42 32.31 26.38 32.33 26.22H32.34ZM32.7 25.73C32.81 25.62 32.9 25.49 32.9 25.43C32.9 25.28 32.47 25.56 32.41 25.76C32.35 25.99 32.46 25.98 32.71 25.73H32.7ZM32.34 25.7C32.36 25.54 32.1 25.4 31.58 25.29C31.19 25.2 31.02 25.25 31.05 25.43C31.07 25.53 31.2 25.6 31.55 25.71C32.14 25.89 32.31 25.89 32.34 25.7ZM32.84 24.96C33.52 24.66 33.57 23.91 32.94 23.71C32.68 23.63 32.52 23.68 32.42 23.85C32.34 23.99 32.39 24.23 32.49 24.23C32.53 24.23 32.56 24.28 32.56 24.33C32.56 24.6 31.54 24.71 31.12 24.5C30.97 24.43 30.92 24.23 31.03 24.23C31.13 24.23 31.19 24.03 31.14 23.9C31.08 23.7 30.88 23.64 30.61 23.72C29.98 23.88 30 24.62 30.64 24.92C31.35 25.18 32.12 25.19 32.84 24.96Z" fill="#FFB700"/>
<path d="M32.47 27.71C32.43 27.71 32.38 27.7 32.34 27.68C32.29 27.66 32.23 27.61 32.19 27.54H31.98L32.15 27.39C32.15 27.37 32.15 27.35 32.15 27.32C32.15 27.27 32.16 27.22 32.18 27.17C32.04 27.19 31.88 27.17 31.72 27.11L31.71 27.1C31.66 27.08 31.52 27.04 31.39 27.03H31.38C31.08 26.99 30.86 26.84 30.79 26.62C30.76 26.51 30.77 26.4 30.82 26.3C30.77 26.26 30.73 26.21 30.7 26.14C30.53 25.83 30.63 25.64 30.7 25.55C30.73 25.52 30.75 25.5 30.79 25.47C30.78 25.38 30.78 25.31 30.8 25.25C30.72 25.23 30.64 25.2 30.56 25.17L30.54 25.16C30.11 24.96 29.85 24.57 29.89 24.16C29.92 23.81 30.18 23.53 30.55 23.43C31.06 23.28 31.34 23.53 31.42 23.79C31.47 23.94 31.46 24.13 31.38 24.27C31.62 24.33 31.96 24.31 32.17 24.26C32.09 24.09 32.09 23.85 32.19 23.69C32.31 23.48 32.55 23.27 33.04 23.42C33.42 23.54 33.66 23.83 33.68 24.19C33.7 24.57 33.46 24.94 33.07 25.15C33.15 25.21 33.2 25.3 33.2 25.41C33.2 25.42 33.2 25.42 33.2 25.43H33.41L32.93 25.91C32.86 25.98 32.76 26.08 32.65 26.14C32.65 26.17 32.65 26.21 32.64 26.25L32.6 26.49H32.57C32.61 26.55 32.63 26.62 32.64 26.7C32.73 26.65 32.81 26.63 32.88 26.63C33.02 26.63 33.14 26.71 33.19 26.84C33.21 26.88 33.21 26.93 33.21 26.97H33.49L32.93 27.46C32.77 27.58 32.63 27.71 32.47 27.71ZM32.66 24C32.77 24.07 32.84 24.19 32.84 24.33C32.84 24.42 32.81 24.58 32.61 24.7C32.57 24.73 32.52 24.75 32.47 24.77C32.56 24.75 32.65 24.73 32.74 24.7C33 24.58 33.11 24.38 33.1 24.24C33.09 24.12 33.01 24.03 32.85 23.98C32.7 23.93 32.68 23.96 32.66 24C32.66 24 32.66 23.99 32.66 24ZM30.75 24.66C30.82 24.68 30.88 24.71 30.95 24.73C30.77 24.62 30.66 24.4 30.7 24.22C30.72 24.12 30.79 24.04 30.87 23.99V23.98C30.87 23.97 30.87 23.97 30.87 23.97C30.86 23.97 30.81 23.96 30.69 23.99H30.68C30.53 24.03 30.44 24.11 30.43 24.23C30.42 24.36 30.51 24.55 30.75 24.66Z" fill="black"/>
<path d="M32.43 24.38C32.47 24.34 32.45 24.28 32.39 24.24C32.25 24.13 32.26 23.96 32.41 23.77C32.53 23.63 32.54 23.41 32.58 21.26C32.65 17.55 32.93 14.76 33.29 14.08C33.44 13.82 33.42 13.82 33.04 14.08C32.54 14.43 32.14 14.9 31.87 15.44C31.25 16.59 31.04 18.14 31.04 21.46C31.04 23.34 31.05 23.59 31.16 23.76C31.26 23.94 31.26 24 31.2 24.18C31.15 24.29 31.13 24.41 31.15 24.43C31.29 24.56 32.29 24.53 32.43 24.38ZM38.04 20.84C38.07 20.81 38.02 20.64 37.94 20.48C37.82 20.22 37.77 20.18 37.6 20.18C36.8 20.11 36.02 19.89 35.3 19.54C34.79 19.31 34.6 19.26 34.55 19.32C34.39 19.47 34.65 19.82 35.05 20.01C35.64 20.22 36.26 20.35 36.88 20.38C37.15 20.38 37.16 20.38 37 20.61L36.9 20.77H37.2L37.7 20.83C38 20.9 38 20.9 38.04 20.84Z" fill="#FFB700"/>
<path d="M31.69 24.79C31.37 24.79 31.08 24.74 30.96 24.63L30.95 24.62C30.8 24.47 30.87 24.22 30.94 24.07C30.96 24.01 30.96 23.99 30.96 23.98C30.96 23.98 30.96 23.96 30.92 23.89C30.77 23.65 30.76 23.4 30.76 21.45C30.76 18.05 30.98 16.5 31.62 15.3C31.91 14.72 32.34 14.21 32.88 13.84C33.2 13.62 33.38 13.5 33.56 13.67C33.74 13.84 33.62 14.05 33.53 14.2C33.25 14.74 32.93 17.12 32.85 21.25C32.81 23.51 32.8 23.71 32.62 23.93C32.59 23.97 32.58 23.99 32.57 24.01C32.66 24.08 32.71 24.18 32.72 24.28C32.73 24.38 32.69 24.49 32.62 24.56C32.49 24.72 32.07 24.79 31.69 24.79ZM31.48 24.23C31.64 24.24 31.87 24.23 32.04 24.21C32.03 24.18 32.02 24.14 32.02 24.11C32 23.94 32.06 23.77 32.2 23.6L32.21 23.59C32.27 23.49 32.29 22.65 32.31 21.26C32.36 18.81 32.52 16.01 32.83 14.62C32.54 14.89 32.3 15.21 32.13 15.57V15.58C31.54 16.67 31.33 18.21 31.33 21.47C31.33 23.01 31.34 23.51 31.41 23.62L31.42 23.64C31.53 23.85 31.55 23.99 31.48 24.23ZM37.98 21.16C37.89 21.16 37.78 21.14 37.65 21.1L37.18 21.04H36.39L36.64 20.63C36.06 20.58 35.49 20.46 34.95 20.26L34.92 20.25C34.54 20.07 34.26 19.77 34.22 19.5C34.2 19.35 34.24 19.22 34.34 19.12C34.54 18.9 34.86 19.03 35.41 19.28C36.11 19.62 36.84 19.83 37.61 19.9C37.95 19.9 38.07 20.1 38.19 20.36C38.4 20.79 38.31 20.95 38.25 21.02C38.18 21.12 38.09 21.16 37.98 21.16ZM37.37 20.51L37.66 20.54C37.64 20.5 37.62 20.47 37.62 20.46C37.62 20.46 37.61 20.46 37.6 20.46H37.58C37.52 20.45 37.45 20.45 37.39 20.44C37.38 20.46 37.38 20.49 37.37 20.51Z" fill="black"/>
<path d="M41.2 22.51C41.2 22.41 40.91 22.16 40.63 21.99C40.4 21.86 40.36 21.85 40.36 21.96C40.36 22.12 40.22 22.53 40.16 22.53C40.13 22.53 40.08 22.45 40.06 22.36C40.03 22.26 39.92 22.06 39.81 21.93L39.61 21.68L39.47 21.91C39.33 22.13 39.08 22.34 38.97 22.34C38.95 22.34 38.94 22.22 38.97 22.09C38.98 21.93 38.97 21.81 38.92 21.79C38.88 21.76 38.84 21.77 38.84 21.81C38.84 21.89 38.5 22.27 38.44 22.27C38.4 22.27 38.36 22.17 38.34 22.03L38.26 21.55C38.24 21.43 38.29 21.51 38.36 21.75L38.52 22.16L38.68 21.91C38.75 21.81 38.81 21.69 38.84 21.57C38.84 21.52 38.87 21.5 38.91 21.52C38.95 21.54 39 21.71 39.02 21.89L39.07 22.23L39.25 22.03C39.34 21.93 39.43 21.82 39.51 21.71C39.58 21.59 39.59 21.59 39.74 21.71C39.82 21.79 39.95 21.96 40.03 22.1C40.11 22.24 40.18 22.34 40.19 22.33L40.25 22.01L40.29 21.71C40.3 21.66 40.83 22.01 41.03 22.18C41.15 22.29 41.27 22.37 41.29 22.35C41.31 22.33 41.33 22.17 41.33 21.98C41.33 21.7 41.3 21.62 41.13 21.47C40.93 21.29 40.93 21.29 40.85 21.42C40.75 21.59 40.64 21.59 40.64 21.42C40.64 21.3 40.26 20.83 40.17 20.83C40.14 20.83 40.06 20.93 39.99 21.06C39.92 21.19 39.84 21.29 39.82 21.29C39.72 21.29 39.19 20.69 39.19 20.59C39.19 20.51 39.23 20.53 39.32 20.67C39.41 20.8 39.51 20.92 39.63 21.03C39.83 21.21 39.91 21.17 39.99 20.82C40.02 20.72 40.06 20.64 40.09 20.64C40.17 20.64 40.63 21.13 40.69 21.29L40.76 21.45L40.81 21.27C40.87 21.05 40.94 21.05 41.04 21.25C41.08 21.33 41.28 21.51 41.48 21.63L41.85 21.87L41.92 21.63C41.96 21.5 42.02 21.43 42.04 21.47C42.08 21.52 41.98 21.92 41.91 22C41.91 22.01 41.78 21.94 41.65 21.85L41.4 21.67V21.99C41.4 22.16 41.38 22.37 41.36 22.45C41.31 22.61 41.19 22.65 41.2 22.51ZM39.35 19.97C38.91 19.61 38.85 19.53 38.85 19.35L38.86 19.17L38.89 19.34C38.91 19.44 39.03 19.6 39.17 19.72L39.43 19.92L39.58 19.74C39.67 19.64 39.74 19.52 39.74 19.48C39.74 19.36 39.76 19.37 40.06 19.63C40.32 19.86 40.33 19.86 40.36 19.71C40.39 19.63 40.38 19.47 40.36 19.36C40.26 19.06 40.28 19.02 40.41 19.2L40.65 19.48C40.75 19.59 40.76 19.59 40.8 19.45C40.83 19.36 40.85 19.21 40.85 19.11V18.92L41.08 19.19C41.31 19.45 41.33 19.46 41.39 19.33C41.44 19.26 41.47 19.09 41.47 18.96C41.47 18.78 41.49 18.74 41.53 18.8C41.61 18.92 41.56 19.22 41.42 19.48L41.32 19.68L41.19 19.47C41.02 19.21 40.96 19.21 40.86 19.49C40.76 19.76 40.69 19.78 40.59 19.57C40.53 19.44 40.51 19.46 40.47 19.74L40.42 20.04L40.12 19.81L39.82 19.58L39.67 19.73C39.6 19.82 39.54 19.93 39.54 19.97C39.54 20.07 39.46 20.07 39.35 19.97ZM43.25 18.61C43.1 18.47 42.99 18.33 43.01 18.31C43.04 18.28 43.06 18.27 43.07 18.29C43.17 18.39 43.27 18.49 43.37 18.59C43.71 18.95 43.64 18.96 43.26 18.61H43.25ZM38.05 18.07C37.91 17.87 37.92 17.75 38.1 17.53C38.22 17.38 38.28 17.36 38.5 17.39C38.65 17.4 38.96 17.53 39.19 17.67C39.52 17.87 39.9 17.97 40.29 17.97L40.12 17.69C39.9 17.36 39.9 17.32 40.16 17.52C40.42 17.73 40.73 17.79 41.43 17.77L41.77 17.76L41.57 17.56C41.3 17.29 41.38 17.26 41.69 17.53C41.97 17.78 41.96 17.8 41.35 17.86C41.1 17.89 40.84 17.87 40.59 17.81C40.25 17.71 40.23 17.72 40.3 17.83C40.34 17.9 40.4 17.95 40.43 17.95C40.47 17.95 40.5 17.99 40.5 18.03C40.5 18.16 39.76 18.04 39.4 17.87C38.6 17.46 38.5 17.42 38.3 17.48C38.19 17.52 38.11 17.6 38.06 17.71C37.93 18.04 38.4 18.3 38.59 18.01C38.65 17.92 38.64 17.87 38.54 17.76C38.4 17.62 38.42 17.6 38.6 17.66C38.73 17.71 38.74 18.02 38.62 18.14C38.49 18.27 38.17 18.24 38.05 18.07Z" fill="black"/>
<path d="M41.2401 22.88C41.2201 22.88 41.2101 22.88 41.1901 22.88C41.0601 22.86 40.9301 22.76 40.9101 22.57C40.8601 22.51 40.7401 22.4 40.5801 22.3C40.5201 22.54 40.3901 22.82 40.1601 22.82C39.9501 22.82 39.8301 22.62 39.7901 22.44C39.7701 22.39 39.7101 22.27 39.6401 22.17C39.5101 22.34 39.3201 22.53 39.1301 22.6L38.8901 22.87L38.8501 22.63H38.8401L38.7501 22.52C38.7301 22.49 38.7101 22.46 38.7001 22.43C38.6901 22.44 38.6801 22.45 38.6701 22.45L38.4601 22.78L38.3701 22.55C38.2501 22.52 38.1101 22.41 38.0601 22.08L37.9801 21.61C37.9301 21.31 38.1701 21.24 38.1901 21.24C38.4001 21.19 38.5001 21.34 38.5601 21.51C38.5801 21.42 38.6301 21.35 38.7101 21.3C38.8101 21.24 38.9301 21.24 39.0301 21.29C39.0701 21.31 39.1801 21.36 39.2401 21.61C39.2501 21.6 39.2601 21.59 39.2601 21.58C39.2901 21.52 39.3501 21.44 39.4401 21.39C39.3801 21.34 39.3201 21.27 39.2401 21.18C38.8901 20.79 38.8901 20.68 38.8901 20.61C38.8901 20.42 39.0001 20.33 39.1101 20.3C39.1801 20.28 39.2301 20.28 39.2901 20.3C39.2501 20.28 39.2001 20.25 39.1601 20.21C38.7401 19.86 38.5601 19.71 38.5601 19.38V19.36L38.5701 19.18L39.1301 19.15L39.1601 19.31C39.1701 19.34 39.2401 19.44 39.3401 19.53L39.3801 19.56C39.4201 19.52 39.4401 19.48 39.4501 19.45C39.4601 19.32 39.5201 19.22 39.6301 19.17C39.7701 19.11 39.8701 19.14 40.0201 19.26C39.9901 19.1 39.9901 18.95 40.1601 18.86C40.3401 18.77 40.4701 18.87 40.5501 18.97V18.35C40.2201 18.48 39.4701 18.25 39.2601 18.15C39.1401 18.09 39.0501 18.04 38.9601 18C38.9501 18.13 38.9001 18.27 38.8001 18.37C38.6801 18.49 38.5001 18.55 38.3001 18.53C38.0901 18.51 37.9101 18.41 37.8001 18.26C37.5901 17.95 37.6001 17.7 37.8601 17.38C38.0601 17.13 38.2301 17.1 38.5101 17.14C38.7301 17.16 39.0801 17.32 39.3201 17.46C39.4501 17.54 39.5801 17.6 39.7301 17.64C39.6501 17.49 39.6301 17.35 39.7601 17.23C39.9501 17.05 40.1601 17.21 40.3201 17.33C40.4701 17.45 40.6601 17.52 41.1501 17.53C41.1001 17.42 41.0901 17.3 41.1901 17.19C41.4101 16.96 41.6901 17.21 41.8601 17.35C41.9901 17.47 42.1401 17.6 42.1301 17.77L42.4101 18.05L41.9401 18.06C41.8101 18.12 41.6201 18.14 41.3601 18.16C41.1601 18.18 40.9501 18.18 40.7501 18.15C40.7401 18.17 40.7401 18.18 40.7301 18.2L40.7701 18.27H40.6801C40.6701 18.28 40.6601 18.29 40.6501 18.29L41.1801 18.91C41.1801 18.77 41.2101 18.59 41.4101 18.53C41.5101 18.5 41.6601 18.52 41.7601 18.67C41.9201 18.91 41.8301 19.33 41.6601 19.64L41.3401 20.28L41.0401 19.79C40.9801 19.9 40.8801 20.01 40.7201 20.02H40.7101L40.6201 20.57L39.8501 19.98C39.8301 20 39.8201 20.02 39.8201 20.04C39.8101 20.17 39.7401 20.27 39.6201 20.32C39.5601 20.34 39.4701 20.37 39.3501 20.32C39.4501 20.37 39.5101 20.48 39.5501 20.54C39.6001 20.61 39.6601 20.68 39.7201 20.75C39.7501 20.65 39.8401 20.38 40.0901 20.38C40.2701 20.38 40.5501 20.65 40.7401 20.89C40.7801 20.86 40.8301 20.85 40.8801 20.84C41.1201 20.82 41.2401 21.05 41.2901 21.13C41.3201 21.18 41.4701 21.31 41.6301 21.4L41.7001 21.45C41.7901 21.25 41.9101 21.2 42.0101 21.19C42.1301 21.18 42.2501 21.24 42.3001 21.35C42.3901 21.54 42.2901 21.88 42.2001 22.07V22.17L42.0501 22.25H42.0401L42.0201 22.31L41.9701 22.28C41.8901 22.3 41.8001 22.27 41.6801 22.2C41.6701 22.32 41.6601 22.44 41.6401 22.52V22.54C41.6101 22.64 41.5601 22.72 41.4901 22.78V22.79H41.4801C41.4001 22.85 41.3201 22.88 41.2401 22.88ZM40.9601 21.77C40.9901 21.79 41.0201 21.81 41.0401 21.83C41.0301 21.77 41.0201 21.75 40.9701 21.71L40.9601 21.77ZM39.9601 21.54C39.9801 21.56 40.0001 21.59 40.0201 21.61L40.0401 21.5L40.2001 21.44C40.2401 21.43 40.2901 21.43 40.3501 21.44C40.3201 21.39 40.2701 21.31 40.2101 21.24C40.1101 21.41 40.0301 21.5 39.9601 21.54ZM43.6001 19.15C43.4601 19.15 43.3201 19.03 43.1601 18.89L43.0701 18.81C42.7401 18.5 42.7401 18.38 42.7401 18.32V18.2L42.8301 18.11C42.9201 18.02 43.0201 17.98 43.1201 18C43.1901 18.01 43.2601 18.05 43.3001 18.11C43.3901 18.2 43.4801 18.3 43.5701 18.38L43.5801 18.39C43.7901 18.61 44.0001 18.84 43.7901 19.05C43.7201 19.12 43.6601 19.15 43.6001 19.15Z" fill="black"/>
<path d="M41.2401 17.26C41.1401 17.16 41.2201 17.14 41.6701 17.13C42.2301 17.12 42.5701 17.03 42.9701 16.77C43.2901 16.57 43.3801 16.61 43.0701 16.82C42.8001 17.02 42.3701 17.16 41.9401 17.2L41.4301 17.27C41.3501 17.29 41.2601 17.28 41.2301 17.26H41.2401Z" fill="black"/>
<path d="M41.3401 17.56C41.2501 17.56 41.1501 17.54 41.0801 17.49L40.3101 16.98H41.0201C41.1401 16.86 41.3501 16.86 41.6701 16.85C42.1801 16.84 42.4801 16.76 42.8201 16.54C42.9901 16.44 43.3201 16.23 43.5001 16.5C43.6701 16.76 43.3701 16.97 43.2401 17.06C42.9401 17.28 42.4701 17.44 41.9801 17.49L41.8801 17.5L41.9301 17.55H41.5401L41.4901 17.56C41.4401 17.56 41.3901 17.56 41.3401 17.56Z" fill="black"/>
<path d="M36.35 33.98L36.58 33.84L36.68 33.98C36.81 34.16 37.18 34.15 37.42 33.98L37.61 33.83L37.77 33.97C37.97 34.16 38.35 34.16 38.6 33.97C38.77 33.85 38.8 33.84 38.9 33.94C38.97 34 39.17 34.06 39.34 34.09C39.66 34.13 39.66 34.13 39.84 33.85C40 33.62 40.02 33.53 39.99 33.3C39.96 33.12 39.94 32.95 39.93 32.77C39.91 32.51 39.92 32.51 40.29 32.37C40.47 32.31 40.65 32.25 40.83 32.17C40.98 32.08 41.4 31.59 41.4 31.49C41.4 31.47 41.24 31.43 41.04 31.41C40.24 31.31 40.11 30.89 40.63 30.11C41.46 28.81 41.97 27.56 41.97 26.77C41.97 26.41 42 26.29 42.04 26.37C42.23 26.68 41.89 28.01 41.39 28.97L41.19 29.35L41.38 29.31C41.48 29.28 42.12 29.01 42.78 28.71C44.6 27.89 45.22 27.73 46.4 27.78C47.39 27.82 47.8 28.01 48.5 28.74C48.87 29.14 49.23 29.41 49.88 29.82C51.26 30.68 51.32 30.76 51.39 31.78C51.46 32.81 51.42 32.87 50.64 33.04C49.97 33.19 49.55 33.5 49.44 33.94C49.38 34.16 49.51 34.17 49.84 33.95L50.09 33.79L50.2 33.95C50.35 34.16 50.65 34.16 50.9 33.95L51.1 33.8L51.3 33.95C51.6 34.2 52 34.14 52.12 33.83C52.14 33.78 52.2 33.79 52.32 33.9C52.55 34.1 53.12 34.18 53.18 34.02C53.2 33.96 53.16 33.82 53.08 33.7C52.75 33.2 52.64 32.97 52.64 32.7C52.64 32.32 52.74 32.13 53.18 31.83C53.7 31.45 53.86 30.97 53.46 30.97C53.22 30.97 52.97 30.75 52.81 30.4C52.49 29.68 52.56 28.88 53.04 27.54C53.41 26.75 53.59 25.89 53.58 25.02C53.58 24.28 53.56 24.16 53.4 23.75C53.27 23.46 53.12 23.19 52.94 22.94L52.66 22.57L53.01 22.27C54.09 21.38 53.87 19.92 52.57 19.36C52.17 19.18 52.07 19.17 51.37 19.17C50.97 19.17 50.32 19.23 49.97 19.3C49.5 19.37 49.03 19.41 48.55 19.42C47.87 19.42 47.75 19.4 47.49 19.26C47.22 19.12 47.17 19.05 47.12 18.71C47.11 18.64 47.07 18.59 47.01 18.56C46.91 18.53 46.49 18.9 46.43 19.06C46.39 19.15 46.37 19.14 46.28 19.03C46.2 18.92 46.13 18.8 46.08 18.67C45.98 18.34 46.11 18.1 46.5 17.91L46.8 17.77L46.62 17.66C46.26 17.43 45.64 17.59 45.42 17.96C45.35 18.06 45.28 18.16 45.26 18.16C45.24 18.16 45.12 18.06 45 17.93C44.53 17.47 44.69 16.79 45.32 16.59C45.65 16.48 45.95 16.56 46.01 16.79C46.11 17.12 46.39 16.68 46.34 16.27C46.31 16 46.31 15.99 46.5 15.99C46.76 15.99 47.3 16.33 47.48 16.59C47.68 16.9 47.66 17.39 47.44 17.75L47.27 18.03L47.5 17.99C47.82 17.92 48.14 17.72 48.3 17.47C48.47 17.15 48.49 16.76 48.34 16.43C48.19 16.16 48.21 16.12 48.43 16.21C48.79 16.36 48.99 16.53 49.13 16.82C49.27 17.08 49.28 17.14 49.21 17.42C49.16 17.59 49.09 17.75 48.99 17.9C48.87 18.06 48.86 18.09 48.96 18.09C49.14 18.09 49.5 17.92 49.63 17.79C49.7 17.71 49.8 17.54 49.85 17.39L49.95 17.14L50.05 17.34C50.2 17.61 50.5 17.86 50.86 18.02C51.25 18.18 51.41 18.19 51.21 18.04C51.07 17.94 50.81 17.19 50.9 17.12C51.33 17.36 51.73 17.66 52.07 18.02C52.64 18.53 53 18.7 53.52 18.7C54.19 18.7 54.58 18.12 54.28 17.57C54.11 17.25 53.72 17.2 53.48 17.47C53.38 17.6 53.35 17.7 53.38 17.84C53.42 18 53.41 18.02 53.26 18.02C53.06 18.02 52.68 17.77 52 17.2C51.05 16.39 49.97 15.75 48.79 15.33C47.99 15.15 47.17 15.1 46.36 15.2C45.72 15.32 44.96 15.69 44.54 16.08C43.81 16.78 43.8 17.71 44.51 18.56L44.71 18.8L44.58 19.02C44.38 19.34 44.4 19.75 44.62 20.06C44.72 20.2 44.82 20.31 44.85 20.31C44.87 20.31 44.89 20.22 44.9 20.11C44.92 19.84 45.04 19.66 45.24 19.59C45.42 19.52 45.54 19.56 46.36 19.89C47.23 20.23 48.66 20.25 50.18 19.95C50.84 19.8 51.52 19.8 52.18 19.97C52.9 20.27 53.06 21.04 52.54 21.62C52.31 21.88 52.1 21.98 51.37 22.18C50.73 22.35 50.07 22.4 49.42 22.33C48.34 22.32 47.95 22.34 47.52 22.43C47.03 22.53 46.74 22.54 45.34 22.51L43.71 22.47L43.89 22.61C43.99 22.7 44.09 22.77 44.2 22.84C44.33 22.91 44.32 22.92 44.14 22.99C44.04 23.03 43.8 23.06 43.61 23.06H43.28L43.24 23.34C43.21 23.47 43.21 23.61 43.24 23.74C43.28 23.84 43.26 23.86 43.16 23.82C43.09 23.79 42.9 23.74 42.73 23.71C42.56 23.67 42.39 23.62 42.23 23.55C42.04 23.45 42.02 23.45 41.95 23.58C41.89 23.68 41.33 24.1 41.25 24.1C41.21 23.84 41.14 23.59 41.03 23.35C40.93 23.14 40.84 22.9 40.81 22.83C40.78 22.72 40.76 22.71 40.71 22.8C40.68 22.85 40.64 23 40.61 23.12C40.57 23.28 40.51 23.44 40.43 23.58L40.28 23.8L40.18 23.61C40.08 23.41 39.92 23.19 39.86 23.19C39.84 23.19 39.81 23.25 39.79 23.34C39.74 23.5 39.35 23.97 39.25 23.97C39.22 23.97 39.19 23.84 39.19 23.67C39.19 23.52 39.16 23.38 39.12 23.38C39.08 23.38 39.05 23.43 39.05 23.48C39.05 23.6 38.72 23.98 38.6 23.98C38.56 23.98 38.48 24.02 38.43 24.08C38.31 24.21 38.21 24.19 38.26 24.04C38.27 23.91 38.26 23.78 38.22 23.66L38.12 23.34C38.1 23.29 37.98 23.31 37.72 23.39C37.32 23.52 37.18 23.49 37.39 23.33C37.47 23.27 37.59 23.06 37.65 22.87C37.72 22.67 37.82 22.5 37.87 22.48C37.94 22.46 37.94 22.48 37.85 22.6C37.79 22.68 37.75 22.77 37.74 22.86C37.74 22.91 37.69 23.04 37.64 23.15C37.58 23.25 37.54 23.35 37.55 23.36C37.56 23.37 37.72 23.31 37.9 23.23L38.22 23.07V23.21C38.22 23.29 38.26 23.49 38.31 23.66L38.4 23.96L38.62 23.86C38.84 23.76 39.05 23.4 39.05 23.11C39.05 22.97 39.13 22.99 39.17 23.14C39.17 23.18 39.23 23.35 39.27 23.51L39.37 23.79L39.52 23.61C39.61 23.51 39.71 23.31 39.75 23.18C39.83 22.94 39.95 22.83 39.95 23.01C39.95 23.13 40.29 23.59 40.35 23.55C40.39 23.53 40.45 23.36 40.5 23.17C40.6 22.77 40.75 22.51 40.85 22.57C40.89 22.59 40.9 22.63 40.88 22.67C40.86 22.69 40.94 22.95 41.06 23.23C41.15 23.44 41.23 23.65 41.32 23.86C41.36 23.96 41.4 23.96 41.65 23.73C41.8 23.59 41.95 23.44 41.96 23.39C41.99 23.31 42.02 23.32 42.16 23.41C42.45 23.57 42.78 23.66 43.11 23.69C43.13 23.67 43.15 23.49 43.15 23.29L43.16 22.92L43.36 22.96C43.46 22.99 43.69 22.99 43.86 22.96L44.16 22.92L43.89 22.72C43.74 22.62 43.59 22.49 43.55 22.43C43.52 22.37 43.38 22.31 43.23 22.3C42.82 22.26 42.09 21.86 42.09 21.66C42.09 21.62 42.19 21.69 42.31 21.8C42.59 22.05 42.97 22.2 43.31 22.2H43.55L43.4 22C43.29 21.84 43.22 21.67 43.2 21.48C43.18 21.18 43.15 21.14 42.84 20.93C42.66 20.8 42.49 20.66 42.34 20.5L42.17 20.31L42.08 20.54C42.03 20.67 41.98 20.77 41.95 20.77C41.93 20.77 41.83 20.69 41.75 20.6C41.69 20.53 41.63 20.48 41.55 20.44C41.52 20.44 41.45 20.56 41.37 20.71L41.23 20.98L41.13 20.83C41.04 20.71 40.94 20.59 40.83 20.49C40.71 20.39 40.66 20.31 40.7 20.31C40.74 20.31 40.87 20.41 41 20.54L41.22 20.77L41.32 20.6C41.38 20.48 41.4 20.35 41.37 20.22C41.33 20.04 41.34 20.03 41.4 20.15C41.49 20.26 41.59 20.36 41.7 20.45L41.92 20.63L42.07 20.36C42.22 20.08 42.22 20.08 42.28 20.25C42.38 20.46 43.03 21 43.58 21.31C43.68 21.36 43.64 21.2 43.48 20.81C43.43 20.68 43.4 20.55 43.4 20.41C43.4 20.23 43.35 20.15 43.12 19.97C42.83 19.78 42.64 19.47 42.62 19.13C42.59 18.96 42.53 18.78 42.48 18.72C42.42 18.62 42.4 18.68 42.42 18.98C42.44 19.19 42.41 19.45 42.36 19.56L42.28 19.76L42.22 19.59C42.18 19.5 42.02 19.34 41.87 19.24C41.72 19.14 41.61 19.04 41.63 19.02C41.65 19 41.81 19.09 41.98 19.22C42.25 19.43 42.3 19.45 42.34 19.36C42.38 19.26 42.34 18.8 42.26 18.48C42.22 18.32 42.22 18.32 42.42 18.52C42.56 18.66 42.64 18.84 42.71 19.14C42.79 19.52 42.83 19.59 43.18 19.9C43.39 20.09 43.58 20.23 43.59 20.22C43.61 20.2 43.63 19.72 43.65 19.14C43.69 18.03 43.65 17.76 43.38 17.42L43.24 17.24L43.46 17.01C43.71 16.77 43.87 16.47 43.93 16.13L43.97 15.86L43.73 16.09C43.53 16.28 43.43 16.32 43.2 16.32C42.97 16.32 42.88 16.28 42.73 16.12C42.5 15.9 42.21 15.73 41.9 15.64C41.78 15.6 41.74 15.62 41.74 15.7C41.74 15.76 41.68 15.92 41.6 16.07L41.46 16.33L41.16 16.03C40.97 15.86 40.76 15.71 40.59 15.67C40.18 15.57 40.16 15.57 40.16 15.88C40.16 16.35 39.96 16.44 39.6 16.13C39.32 15.89 39.1 15.83 38.57 15.9L38.17 15.94L38.24 16.12C38.3 16.27 38.29 16.34 38.16 16.51C37.95 16.79 37.68 16.91 37.26 16.91C37.06 16.91 36.82 16.95 36.72 17C36.62 17.05 36.36 17.1 36.15 17.12C35.95 17.14 35.72 17.18 35.65 17.2C35.55 17.24 35.55 17.2 35.58 16.98C35.63 16.64 35.38 16.38 35.01 16.38C34.52 16.38 34.3 16.82 34.49 17.4C34.53 17.53 34.56 17.65 34.59 17.78C34.72 18.03 34.9 18.25 35.11 18.44C35.37 18.7 35.61 18.97 35.65 19.04C35.73 19.14 35.83 19.23 35.95 19.29L36.17 19.41L36.14 19.17C36.11 18.91 36.16 18.87 36.3 19.06C36.35 19.12 36.48 19.23 36.58 19.29C36.75 19.39 36.78 19.39 36.78 19.31C36.78 19.25 36.81 19.12 36.85 19.02L36.92 18.84L37.05 19.09C37.12 19.23 37.35 19.54 37.56 19.79C37.97 20.26 38.23 20.79 38.1 20.91C38.04 20.96 37.9 20.96 37.6 20.9C37.38 20.86 37.1 20.83 36.98 20.85C36.75 20.88 36.73 20.85 36.88 20.67C37.03 20.47 37 20.44 36.7 20.44C36.35 20.44 35.48 20.27 35.14 20.14C34.82 20.01 34.74 20.04 34.64 20.35L34.47 20.91L34.37 21.21L34.73 21.18C34.92 21.16 35.1 21.13 35.28 21.08C35.35 21.06 35.43 21.05 35.5 21.05C35.52 21.06 35.47 21.18 35.4 21.32L35.26 21.56L35.48 21.52C35.6 21.49 35.78 21.43 35.88 21.38C36.06 21.3 36.08 21.3 36.22 21.53C36.39 21.8 36.52 21.79 36.55 21.5C36.58 21.2 36.68 21.24 36.87 21.64C37.05 22.02 37.23 22.16 37.27 21.94C37.28 21.86 37.37 21.74 37.48 21.66C37.7 21.51 37.86 21.56 37.95 21.79C38.05 22.04 37.83 22.29 37.21 22.67C36.05 23.31 35.25 24.46 35.04 25.77C34.85 26.95 35.44 28.17 36.6 29.06C37.16 29.48 38.05 29.92 37.99 29.76C37.75 29.03 37.76 27.66 38 27.43C38.04 27.39 38.03 27.53 37.97 27.74C37.77 28.53 37.87 29.15 38.37 30.61C38.81 31.93 38.75 32.5 38.11 32.87C37.91 32.99 37.78 33.01 37.23 33C36.63 33 36.56 33 36.37 33.16C36.14 33.39 35.99 33.7 35.94 34.02C35.94 34.15 36.08 34.13 36.35 33.98Z" fill="#FFB700"/>
<path d="M46.0499 33.95L46.2999 33.79L46.4699 33.95C46.6899 34.16 46.9599 34.15 47.1699 33.94C47.2699 33.84 47.3499 33.78 47.3599 33.79L47.4499 33.95C47.4999 34.04 47.6099 34.08 47.8099 34.1C48.0399 34.11 48.1099 34.1 48.2099 33.96L48.3099 33.79L48.5599 33.95C49.2399 34.39 49.5999 33.93 49.2899 33.02C49.1399 32.56 49.2299 32.3 49.7199 31.72C49.9299 31.47 50.0999 31.2 50.0999 31.12C50.0999 31.01 50.0599 30.99 49.7799 31C49.5199 31 49.4399 30.97 49.2999 30.82C49.0699 30.57 49.0899 30.28 49.3399 29.96L49.5399 29.71L49.1799 29.47C48.8899 29.26 48.6199 29.02 48.3799 28.76C47.9399 28.24 47.3099 27.92 46.6299 27.86L46.1599 27.81V28.17C46.1599 28.62 46.3799 29.06 46.9599 29.8C47.6199 30.64 47.6599 30.77 47.6899 31.87L47.7199 32.8L47.5199 32.98C47.3499 33.14 47.2799 33.17 46.7199 33.2C46.1899 33.23 46.0699 33.26 45.9199 33.4C45.7399 33.53 45.6199 33.72 45.5799 33.93C45.5499 34.08 45.5599 34.11 45.6699 34.11C45.7399 34.11 45.9099 34.04 46.0499 33.95ZM31.8299 31.55C31.8899 31.46 31.9299 31.36 31.9299 31.25C31.9299 31.15 31.9899 31.11 32.2499 31.07L32.5599 31.03L32.3599 30.86C32.1099 30.66 32.0799 30.51 32.2999 30.51C32.5199 30.51 32.8799 30.29 32.9399 30.12C32.9699 30.04 32.9399 29.94 32.8999 29.89C32.7799 29.75 32.5499 29.77 32.5099 29.93C32.4599 30.09 32.3899 30.09 32.2099 29.93C31.9599 29.68 31.9499 29.17 32.2099 28.87C32.3199 28.73 32.3199 28.73 32.1699 28.58C32.0099 28.42 31.8899 28.12 31.9699 28.04C31.9899 28.02 32.1199 28.04 32.2499 28.09C32.4499 28.15 32.5199 28.15 32.5999 28.09C32.8299 27.9 32.5799 27.66 32.1999 27.72C32.0399 27.74 31.9799 27.72 31.9599 27.64C31.9399 27.58 31.8099 27.5 31.6599 27.46C31.3899 27.39 31.3899 27.39 31.3899 27.58C31.3899 27.78 31.2699 27.82 31.0499 27.69C30.8699 27.59 30.6999 27.67 30.6999 27.86C30.6999 28.04 30.8699 28.12 31.1999 28.1C31.4399 28.09 31.4499 28.27 31.2199 28.53L31.0499 28.73L31.1799 28.92C31.3799 29.2 31.3599 29.67 31.1499 29.91L30.9799 30.09L30.8699 29.94C30.7099 29.74 30.4999 29.75 30.4399 29.97C30.4099 30.11 30.4399 30.17 30.6199 30.33C30.7399 30.43 30.9199 30.51 31.0099 30.51C31.2399 30.51 31.2299 30.7 30.9899 30.88L30.7899 31.03L31.0899 31.07C31.2499 31.1 31.3899 31.14 31.3899 31.17C31.3899 31.3 31.5899 31.69 31.6499 31.69C31.6899 31.69 31.7699 31.62 31.8299 31.55Z" fill="#FFB700"/>
<path d="M35.6499 29.89C35.9199 29.79 36.4999 29.29 36.4999 29.18C36.4999 29.14 36.3399 28.96 36.1399 28.78C35.7399 28.42 35.2899 27.79 35.1699 27.43C35.1099 27.23 34.8199 26.91 33.9999 26.11L32.9099 25.06L32.5999 25.14C32.4199 25.18 32.2099 25.22 32.1299 25.22C31.9799 25.22 31.9799 25.22 32.1799 25.38L32.3799 25.54L32.6799 25.38C32.9499 25.22 32.9599 25.22 32.9899 25.35C33.0099 25.42 32.9699 25.55 32.8899 25.64C32.8199 25.73 32.7799 25.84 32.7899 25.87C32.8199 25.9 32.7499 25.97 32.6399 26.03C32.4399 26.13 32.2899 26.46 32.4499 26.46C32.5999 26.46 32.9199 26.06 32.8799 25.93C32.8599 25.86 32.8799 25.79 32.8999 25.77C33.0299 25.7 33.0199 26.01 32.8999 26.17C32.8199 26.25 32.7799 26.35 32.7999 26.39C32.8199 26.42 32.7499 26.49 32.6399 26.55C32.4399 26.65 32.2899 26.98 32.4499 26.98C32.6099 26.98 32.9199 26.6 32.8899 26.46C32.8699 26.39 32.8699 26.31 32.8999 26.29C32.9899 26.25 33.0299 26.49 32.9599 26.61C32.9199 26.68 32.9199 26.76 32.9599 26.83C33.0299 26.96 32.9599 27.2 32.8299 27.28C32.7799 27.31 32.8099 27.38 32.9499 27.48C33.1499 27.62 33.1499 27.64 33.1499 28.28C33.1499 28.82 33.1699 28.96 33.2699 29.05C33.3699 29.15 33.3899 29.15 33.3899 29.05C33.3899 28.95 33.5899 28.81 33.7399 28.81C33.7899 28.81 34.0799 29.06 34.3899 29.36C34.6999 29.66 35.0299 29.93 35.1199 29.94L35.3399 29.98C35.3699 29.98 35.5099 29.95 35.6499 29.88V29.89ZM32.3199 27.28C32.3199 27.11 31.9599 26.92 31.5299 26.88C31.1799 26.83 31.1799 26.84 31.1799 27.01C31.1799 27.15 31.2299 27.21 31.4799 27.31C31.8599 27.48 32.3199 27.46 32.3199 27.28Z" fill="#FFB700"/>
<path d="M32.71 27.26C32.89 27.1 32.97 26.92 32.86 26.92C32.74 26.92 32.42 27.2 32.42 27.32C32.42 27.48 32.48 27.47 32.72 27.26H32.71ZM32.34 26.75C32.35 26.65 32.29 26.59 32.11 26.5C31.71 26.33 31.25 26.24 31.14 26.33C30.93 26.5 31.07 26.72 31.4 26.76C31.54 26.77 31.72 26.81 31.81 26.85C32.07 26.95 32.31 26.9 32.34 26.75ZM32.34 26.22C32.36 26.09 32.27 26.04 31.54 25.78C30.99 25.58 30.75 25.68 30.93 26.01C30.99 26.12 31.09 26.17 31.32 26.21C31.49 26.23 31.72 26.28 31.83 26.32C32.13 26.42 32.31 26.38 32.33 26.22H32.34ZM32.7 25.73C32.81 25.62 32.9 25.49 32.9 25.43C32.9 25.28 32.47 25.56 32.41 25.76C32.35 25.99 32.46 25.98 32.71 25.73H32.7ZM32.34 25.7C32.36 25.54 32.1 25.4 31.58 25.29C31.19 25.2 31.02 25.25 31.05 25.43C31.07 25.53 31.2 25.6 31.55 25.71C32.14 25.89 32.31 25.89 32.34 25.7ZM32.84 24.96C33.52 24.66 33.57 23.91 32.94 23.71C32.68 23.63 32.52 23.68 32.42 23.85C32.34 23.99 32.39 24.23 32.49 24.23C32.53 24.23 32.56 24.28 32.56 24.33C32.56 24.6 31.54 24.71 31.12 24.5C30.97 24.43 30.92 24.23 31.03 24.23C31.13 24.23 31.19 24.03 31.14 23.9C31.08 23.7 30.88 23.64 30.61 23.72C29.98 23.88 30 24.62 30.64 24.92C31.35 25.18 32.12 25.19 32.84 24.96Z" fill="#FFB700"/>
<path d="M32.43 24.38C32.47 24.34 32.45 24.28 32.39 24.24C32.25 24.13 32.26 23.96 32.41 23.77C32.53 23.63 32.54 23.41 32.58 21.26C32.65 17.55 32.93 14.76 33.29 14.08C33.44 13.82 33.42 13.82 33.04 14.08C32.54 14.43 32.14 14.9 31.87 15.44C31.25 16.59 31.04 18.14 31.04 21.46C31.04 23.34 31.05 23.59 31.16 23.76C31.26 23.94 31.26 24 31.2 24.18C31.15 24.29 31.13 24.41 31.15 24.43C31.29 24.56 32.29 24.53 32.43 24.38ZM38.04 20.84C38.07 20.81 38.02 20.64 37.94 20.48C37.82 20.22 37.77 20.18 37.6 20.18C36.8 20.11 36.02 19.89 35.3 19.54C34.79 19.31 34.6 19.26 34.55 19.32C34.39 19.47 34.65 19.82 35.05 20.01C35.64 20.22 36.26 20.35 36.88 20.38C37.15 20.38 37.16 20.38 37 20.61L36.9 20.77H37.2L37.7 20.83C38 20.9 38 20.9 38.04 20.84Z" fill="#FFB700"/>
<path d="M41.2 22.51C41.2 22.41 40.91 22.16 40.63 21.99C40.4 21.86 40.36 21.85 40.36 21.96C40.36 22.12 40.22 22.53 40.16 22.53C40.13 22.53 40.08 22.45 40.06 22.36C40.03 22.26 39.92 22.06 39.81 21.93L39.61 21.68L39.47 21.91C39.33 22.13 39.08 22.34 38.97 22.34C38.95 22.34 38.94 22.22 38.97 22.09C38.98 21.93 38.97 21.81 38.92 21.79C38.88 21.76 38.84 21.77 38.84 21.81C38.84 21.89 38.5 22.27 38.44 22.27C38.4 22.27 38.36 22.17 38.34 22.03L38.26 21.55C38.24 21.43 38.29 21.51 38.36 21.75L38.52 22.16L38.68 21.91C38.75 21.81 38.81 21.69 38.84 21.57C38.84 21.52 38.87 21.5 38.91 21.52C38.95 21.54 39 21.71 39.02 21.89L39.07 22.23L39.25 22.03C39.34 21.93 39.43 21.82 39.51 21.71C39.58 21.59 39.59 21.59 39.74 21.71C39.82 21.79 39.95 21.96 40.03 22.1C40.11 22.24 40.18 22.34 40.19 22.33L40.25 22.01L40.29 21.71C40.3 21.66 40.83 22.01 41.03 22.18C41.15 22.29 41.27 22.37 41.29 22.35C41.31 22.33 41.33 22.17 41.33 21.98C41.33 21.7 41.3 21.62 41.13 21.47C40.93 21.29 40.93 21.29 40.85 21.42C40.75 21.59 40.64 21.59 40.64 21.42C40.64 21.3 40.26 20.83 40.17 20.83C40.14 20.83 40.06 20.93 39.99 21.06C39.92 21.19 39.84 21.29 39.82 21.29C39.72 21.29 39.19 20.69 39.19 20.59C39.19 20.51 39.23 20.53 39.32 20.67C39.41 20.8 39.51 20.92 39.63 21.03C39.83 21.21 39.91 21.17 39.99 20.82C40.02 20.72 40.06 20.64 40.09 20.64C40.17 20.64 40.63 21.13 40.69 21.29L40.76 21.45L40.81 21.27C40.87 21.05 40.94 21.05 41.04 21.25C41.08 21.33 41.28 21.51 41.48 21.63L41.85 21.87L41.92 21.63C41.96 21.5 42.02 21.43 42.04 21.47C42.08 21.52 41.98 21.92 41.91 22C41.91 22.01 41.78 21.94 41.65 21.85L41.4 21.67V21.99C41.4 22.16 41.38 22.37 41.36 22.45C41.31 22.61 41.19 22.65 41.2 22.51ZM39.35 19.97C38.91 19.61 38.85 19.53 38.85 19.35L38.86 19.17L38.89 19.34C38.91 19.44 39.03 19.6 39.17 19.72L39.43 19.92L39.58 19.74C39.67 19.64 39.74 19.52 39.74 19.48C39.74 19.36 39.76 19.37 40.06 19.63C40.32 19.86 40.33 19.86 40.36 19.71C40.39 19.63 40.38 19.47 40.36 19.36C40.26 19.06 40.28 19.02 40.41 19.2L40.65 19.48C40.75 19.59 40.76 19.59 40.8 19.45C40.83 19.36 40.85 19.21 40.85 19.11V18.92L41.08 19.19C41.31 19.45 41.33 19.46 41.39 19.33C41.44 19.26 41.47 19.09 41.47 18.96C41.47 18.78 41.49 18.74 41.53 18.8C41.61 18.92 41.56 19.22 41.42 19.48L41.32 19.68L41.19 19.47C41.02 19.21 40.96 19.21 40.86 19.49C40.76 19.76 40.69 19.78 40.59 19.57C40.53 19.44 40.51 19.46 40.47 19.74L40.42 20.04L40.12 19.81L39.82 19.58L39.67 19.73C39.6 19.82 39.54 19.93 39.54 19.97C39.54 20.07 39.46 20.07 39.35 19.97ZM43.25 18.61C43.1 18.47 42.99 18.33 43.01 18.31C43.04 18.28 43.06 18.27 43.07 18.29C43.17 18.39 43.27 18.49 43.37 18.59C43.71 18.95 43.64 18.96 43.26 18.61H43.25ZM38.05 18.07C37.91 17.87 37.92 17.75 38.1 17.53C38.22 17.38 38.28 17.36 38.5 17.39C38.65 17.4 38.96 17.53 39.19 17.67C39.52 17.87 39.9 17.97 40.29 17.97L40.12 17.69C39.9 17.36 39.9 17.32 40.16 17.52C40.42 17.73 40.73 17.79 41.43 17.77L41.77 17.76L41.57 17.56C41.3 17.29 41.38 17.26 41.69 17.53C41.97 17.78 41.96 17.8 41.35 17.86C41.1 17.89 40.84 17.87 40.59 17.81C40.25 17.71 40.23 17.72 40.3 17.83C40.34 17.9 40.4 17.95 40.43 17.95C40.47 17.95 40.5 17.99 40.5 18.03C40.5 18.16 39.76 18.04 39.4 17.87C38.6 17.46 38.5 17.42 38.3 17.48C38.19 17.52 38.11 17.6 38.06 17.71C37.93 18.04 38.4 18.3 38.59 18.01C38.65 17.92 38.64 17.87 38.54 17.76C38.4 17.62 38.42 17.6 38.6 17.66C38.73 17.71 38.74 18.02 38.62 18.14C38.49 18.27 38.17 18.24 38.05 18.07Z" fill="black"/>
<path d="M41.24 17.26C41.14 17.16 41.22 17.14 41.67 17.13C42.23 17.12 42.57 17.03 42.97 16.77C43.29 16.57 43.38 16.61 43.07 16.82C42.8 17.02 42.37 17.16 41.94 17.2L41.43 17.27C41.35 17.29 41.26 17.28 41.23 17.26H41.24Z" fill="black"/>
</g>
</g>
</g>
<defs>
<clipPath id="clip0_191_23374">
<rect width="48" height="48" fill="white"/>
</clipPath>
<clipPath id="clip1_191_23374">
<rect width="64" height="48" fill="white"/>
</clipPath>
</defs>
</svg>
