<svg width="48" height="48" viewBox="0 0 48 48" fill="none" xmlns="http://www.w3.org/2000/svg">
<g clip-path="url(#clip0_152_46364)">
<mask id="mask0_152_46364" style="mask-type:alpha" maskUnits="userSpaceOnUse" x="0" y="0" width="48" height="48">
<circle cx="24" cy="24" r="24" fill="#D9D9D9"/>
</mask>
<g mask="url(#mask0_152_46364)">
<g clip-path="url(#clip1_152_46364)">
<path d="M-8 0H56V48H-8V0Z" fill="#DA000C"/>
<path d="M-8 0H56V32.16H-8V0Z" fill="white"/>
<path d="M12.8625 21.8063H24.8625V30.0563H12.8625V21.8063Z" fill="black"/>
<path d="M19.0875 28.8563H11.775L10.1438 29.9251V31.0501H19.0875V28.8563ZM16.0313 24.1126C17.0813 24.1126 17.9438 24.9938 17.9438 26.0813V28.8376H19.3125V18.3376H11.7563V28.8376H14.1188V26.0813C14.1188 25.0313 14.9625 24.1126 16.0313 24.1126Z" fill="#DA000C"/>
<path fill-rule="evenodd" clip-rule="evenodd" d="M11.6625 18.2438H19.4063V28.9313H19.1813V31.1438H10.05V29.8744L11.6625 28.818V18.2438ZM11.803 28.9501L10.2375 29.9757V30.9563H18.9938V28.9501H11.803ZM17.85 28.7626H14.2125V26.0813C14.2125 25.079 15.0184 24.2063 16.0313 24.2063C17.0272 24.2063 17.85 25.0432 17.85 26.0813V28.7626ZM18.0375 28.7438H19.2188V18.4313H11.85V28.7438H14.025V26.0813C14.025 24.9837 14.9067 24.0188 16.0313 24.0188C17.1354 24.0188 18.0375 24.9444 18.0375 26.0813V28.7438Z" fill="black"/>
<path d="M14.3438 11.2501H17.8313V17.6251H14.3438V11.2501Z" fill="black"/>
<path d="M17.8125 16.6313H14.775V15.5438H12.5437V16.6313H11.0437V15.5438H10.125V17.4938H17.8125V16.6313ZM11.025 17.4938H17.5875V18.3376H11.025V17.4938ZM13.65 8.9251V15.5626H14.775V13.7438C14.775 13.0688 15.2437 12.5063 15.9187 12.4688H15.9938C16.1612 12.4688 16.327 12.5018 16.4817 12.5659C16.6364 12.63 16.7769 12.7239 16.8953 12.8423C17.0137 12.9607 17.1076 13.1012 17.1717 13.2559C17.2358 13.4106 17.2688 13.5764 17.2688 13.7438V15.5626H18.3375V8.9251H13.65ZM13.2188 8.0251V8.9251H18.7125V8.0251H13.2188ZM12.525 6.31885V8.0251H19.0875V6.31885H18.0938V7.2001H16.8562V6.31885H14.9812V7.2001H13.7625V6.31885H12.525ZM10.125 29.9251H19.125H10.125ZM24.9375 29.4001H18.8625L17.025 30.2813V31.5938H24.9375" fill="#DA000C"/>
<path fill-rule="evenodd" clip-rule="evenodd" d="M12.4313 6.2251H13.8562V7.10635H14.8875V6.2251H16.95V7.10635H18V6.2251H19.1813V8.11885H18.8063V9.01885H18.4313V15.6563H17.175V13.7438C17.175 13.5887 17.1444 13.4351 17.0851 13.2918C17.0257 13.1485 16.9387 13.0183 16.829 12.9086C16.7193 12.7989 16.5891 12.7119 16.4458 12.6525C16.3025 12.5932 16.1489 12.5626 15.9938 12.5626H15.9214C15.3037 12.5983 14.8688 13.1129 14.8688 13.7438V16.5376H17.9062V17.5876H17.6813V18.4313H10.9313V17.5876H10.0312V15.4501H11.1375V16.5376H12.45V15.4501H13.5563V9.01885H13.125V8.11885H12.4313V6.2251ZM18.9938 7.93135V6.4126H18.1875V7.29385H16.7625V6.4126H15.075V7.29385H13.6687V6.4126H12.6188V7.93135H18.9938ZM13.3125 8.11885V8.83135H18.6188V8.11885H13.3125ZM13.7438 9.01885V15.4501H14.6813V13.7438C14.6813 13.0256 15.1826 12.4159 15.9135 12.3752L15.9161 12.3751H15.9938C16.1735 12.3751 16.3515 12.4105 16.5175 12.4793C16.6836 12.5481 16.8345 12.6489 16.9616 12.776C17.0887 12.9031 17.1895 13.054 17.2583 13.2201C17.3271 13.3861 17.3625 13.5641 17.3625 13.7438V15.4688H18.2438V9.01885H13.7438ZM13.5563 15.6376H12.6375V16.7251H10.95V15.6376H10.2188V17.4001H17.7188V16.7251H14.6813V15.6563H13.5563V15.6376ZM11.1188 17.5876V18.2438H17.4938V17.5876H11.1188ZM18.8412 29.3063H25.0312V29.4938H18.8838L18.1801 29.8314H19.125V30.0189H17.7891L17.1188 30.3404V31.5001H25.0312V31.6876H16.9313V30.2223L17.3555 30.0189H10.125V29.8314H17.7465L18.8412 29.3063Z" fill="black"/>
<path fill-rule="evenodd" clip-rule="evenodd" d="M25.125 30.3751H17.025V30.1876H25.125V30.3751Z" fill="black"/>
<path d="M35.1421 21.8063H23.1421V30.0563H35.1421V21.8063Z" fill="black"/>
<path d="M28.9171 28.8563H36.2296L37.8608 29.9251V31.0501H28.9171V28.8563ZM31.9733 24.1126C30.9233 24.1126 30.0608 24.9938 30.0608 26.0813V28.8376H28.6921V18.3376H36.2483V28.8376H33.8858V26.0813C33.8858 25.0313 33.0421 24.1126 31.9733 24.1126Z" fill="#DA000C"/>
<path fill-rule="evenodd" clip-rule="evenodd" d="M36.3421 18.2438H28.5983V28.9313H28.8233V31.1438H37.9546V29.8744L36.3421 28.818V18.2438ZM36.2016 28.9501L37.7671 29.9757V30.9563H29.0108V28.9501H36.2016ZM30.1546 28.7626H33.7921V26.0813C33.7921 25.079 32.9863 24.2063 31.9733 24.2063C30.9775 24.2063 30.1546 25.0432 30.1546 26.0813V28.7626ZM29.9671 28.7438H28.7858V18.4313H36.1546V28.7438H33.9796V26.0813C33.9796 24.9837 33.0979 24.0188 31.9733 24.0188C30.8692 24.0188 29.9671 24.9444 29.9671 26.0813V28.7438Z" fill="black"/>
<path d="M33.6609 11.2501H30.1734V17.6251H33.6609V11.2501Z" fill="black"/>
<path d="M30.1921 16.6313H33.2296V15.5438H35.4609V16.6313H36.9609V15.5438H37.8796V17.4938H30.1921V16.6313ZM36.9796 17.4938H30.4171V18.3376H36.9796V17.4938ZM34.3546 8.9251V15.5626H33.2296V13.7438C33.2296 13.0688 32.7609 12.5063 32.0859 12.4688H32.0109C31.8435 12.4688 31.6777 12.5018 31.523 12.5659C31.3683 12.63 31.2277 12.7239 31.1093 12.8423C30.9909 12.9607 30.897 13.1012 30.8329 13.2559C30.7689 13.4106 30.7359 13.5764 30.7359 13.7438V15.5626H29.6671V8.9251H34.3546ZM34.7859 8.0251V8.9251H29.2921V8.0251H34.7859ZM35.4796 6.31885V8.0251H28.9171V6.31885H29.9109V7.2001H31.1484V6.31885H33.0234V7.2001H34.2421V6.31885H35.4796ZM37.8796 29.9251H28.8796H37.8796ZM23.0671 29.4001H29.1421L30.9796 30.2813V31.5938H23.0671" fill="#DA000C"/>
<path fill-rule="evenodd" clip-rule="evenodd" d="M35.5734 6.2251H34.1484V7.10635H33.1171V6.2251H31.0546V7.10635H30.0046V6.2251H28.8234V8.11885H29.1984V9.01885H29.5734V15.6563H30.8296V13.7438C30.8296 13.5887 30.8602 13.4351 30.9196 13.2918C30.9789 13.1485 31.0659 13.0183 31.1756 12.9086C31.2853 12.7989 31.4155 12.7119 31.5588 12.6525C31.7022 12.5932 31.8558 12.5626 32.0109 12.5626H32.0832C32.7009 12.5983 33.1359 13.1129 33.1359 13.7438V16.5376H30.0984V17.5876H30.3234V18.4313H37.0734V17.5876H37.9734V15.4501H36.8671V16.5376H35.5546V15.4501H34.4484V9.01885H34.8796V8.11885H35.5734V6.2251ZM29.0109 7.93135V6.4126H29.8171V7.29385H31.2421V6.4126H32.9296V7.29385H34.3359V6.4126H35.3859V7.93135H29.0109ZM34.6921 8.11885V8.83135H29.3859V8.11885H34.6921ZM34.2609 9.01885V15.4501H33.3234V13.7438C33.3234 13.0256 32.8221 12.4159 32.0911 12.3752L32.0885 12.3751H32.0109C31.8311 12.3751 31.6532 12.4105 31.4871 12.4793C31.321 12.5481 31.1701 12.6489 31.043 12.776C30.9159 12.9031 30.8151 13.054 30.7463 13.2201C30.6775 13.3861 30.6421 13.5641 30.6421 13.7438V15.4688H29.7609V9.01885H34.2609ZM34.4484 15.6376H35.3671V16.7251H37.0546V15.6376H37.7859V17.4001H30.2859V16.7251H33.3234V15.6563H34.4484V15.6376ZM36.8859 17.5876V18.2438H30.5109V17.5876H36.8859ZM29.1635 29.3063H22.9734V29.4938H29.1208L29.8245 29.8314H28.8796V30.0189H30.2155L30.8859 30.3404V31.5001H22.9734V31.6876H31.0734V30.2223L30.6491 30.0189H37.8796V29.8314H30.2581L29.1635 29.3063Z" fill="black"/>
<path fill-rule="evenodd" clip-rule="evenodd" d="M22.8796 30.3751H30.9796V30.1876H22.8796V30.3751Z" fill="black"/>
<path d="M27.2438 28.1249C26.7375 28.3124 26.3063 28.5749 25.8375 28.8374C25.2542 29.1706 24.6964 29.5467 24.1688 29.9624C23.9813 30.0937 23.7938 30.2249 23.6625 30.4124C23.475 30.5624 23.2875 30.7874 23.325 31.0687C23.325 31.1812 23.475 30.9187 23.5875 30.8999C23.7656 30.8046 23.9724 30.778 24.1688 30.8249C24.4125 30.5624 24.7313 30.3937 24.9938 30.1874C25.758 29.6343 26.5744 29.1571 27.4313 28.7624L27.2438 28.1249Z" fill="#F8D80E"/>
<path fill-rule="evenodd" clip-rule="evenodd" d="M27.2931 28.0267L27.5216 28.8035L27.4627 28.8306C26.6107 29.223 25.799 29.6975 25.039 30.2474C24.9471 30.3195 24.8473 30.388 24.7485 30.4558C24.7044 30.4861 24.6604 30.5162 24.6175 30.5464C24.4759 30.6463 24.3403 30.7505 24.2238 30.876L24.194 30.9081L24.1514 30.8979C23.9729 30.8552 23.7849 30.8795 23.623 30.9661L23.6121 30.9719L23.5999 30.9739C23.5934 30.975 23.5763 30.9829 23.5478 31.0071C23.5229 31.0284 23.4979 31.0545 23.4727 31.0809C23.4712 31.0824 23.4698 31.0839 23.4684 31.0854C23.4556 31.0987 23.4424 31.1125 23.4301 31.1241C23.4188 31.1349 23.4038 31.1482 23.3877 31.1575C23.3782 31.1629 23.3292 31.1895 23.2842 31.1525C23.2652 31.1369 23.2576 31.1171 23.2543 31.1048C23.2515 31.094 23.2505 31.0834 23.2502 31.0741C23.2104 30.7584 23.4183 30.5141 23.6074 30.3606C23.7459 30.167 23.9395 30.0315 24.1209 29.9045L24.1241 29.9022C24.6542 29.4847 25.2145 29.107 25.8004 28.7723L25.801 28.772C25.8721 28.7322 25.9426 28.6922 26.0128 28.6524C26.4021 28.4316 26.783 28.2157 27.2178 28.0546L27.2931 28.0267ZM25.8745 28.9027C25.2945 29.2341 24.7399 29.608 24.2153 30.0214L24.2136 30.0227L24.2119 30.0239C24.0224 30.1565 23.8464 30.2806 23.7241 30.4555L23.7179 30.4643L23.7095 30.471C23.5573 30.5928 23.4214 30.7529 23.3987 30.9417C23.415 30.9252 23.4325 30.9083 23.4505 30.893C23.4789 30.8688 23.5176 30.8402 23.5616 30.8289C23.7407 30.7357 23.9457 30.7056 24.1435 30.7429C24.2635 30.6199 24.3979 30.5177 24.5311 30.4238C24.5776 30.3911 24.6234 30.3596 24.6685 30.3287C24.7656 30.2621 24.8592 30.1979 24.9475 30.1285L24.9487 30.1276L24.9499 30.1267C25.7006 29.5834 26.5013 29.1129 27.3412 28.7216L27.1948 28.2239C26.8032 28.3768 26.4551 28.5742 26.0888 28.7818C26.0182 28.8218 25.9469 28.8622 25.8745 28.9027ZM23.4002 31.0707C23.4002 31.0707 23.4002 31.0707 23.4002 31.0706L23.4002 31.0707Z" fill="black"/>
<path d="M24.8251 29.5125V30.2437V29.5125ZM25.2751 29.1937V29.925V29.1937ZM25.7251 28.9125V29.625V28.9125ZM26.1938 28.6312V29.3812V28.6312Z" fill="#F8D80E"/>
<path fill-rule="evenodd" clip-rule="evenodd" d="M26.1938 28.5375C26.2456 28.5375 26.2876 28.5794 26.2876 28.6312V29.3812C26.2876 29.433 26.2456 29.475 26.1938 29.475C26.142 29.475 26.1001 29.433 26.1001 29.3812V28.6312C26.1001 28.5794 26.142 28.5375 26.1938 28.5375ZM25.8188 28.9125V29.625H25.6313V28.9125H25.8188ZM25.3688 29.1937V29.925H25.1813V29.1937H25.3688ZM24.9188 29.5125V30.2437H24.7313V29.5125H24.9188Z" fill="black"/>
<path d="M20.7938 28.1625L20.5688 28.7812C21.605 29.1787 22.5977 29.6813 23.5313 30.2812C23.8501 30.5062 24.1876 30.7125 24.4313 31.0125C24.4876 31.1625 24.3376 31.2937 24.1876 31.2375C24.0563 31.2 23.9063 31.1437 23.7751 31.2375C23.5688 31.3312 23.3813 31.65 23.6813 31.7437C24.1313 32.0437 24.8251 31.9125 25.0313 31.4062C25.1438 31.1437 25.1626 30.8062 24.9376 30.5812C24.5626 30.15 24.0376 29.8312 23.5501 29.5125C22.6747 28.979 21.752 28.527 20.7938 28.1625Z" fill="#F8D80E"/>
<path fill-rule="evenodd" clip-rule="evenodd" d="M20.8205 28.0923C21.783 28.4586 22.7097 28.9125 23.5891 29.4484L23.5901 29.449L23.5911 29.4497C23.6416 29.4827 23.6927 29.5158 23.7442 29.5492C24.1841 29.8345 24.6492 30.136 24.9925 30.5301C25.2467 30.7862 25.2181 31.1604 25.1005 31.4351C24.9863 31.7147 24.7387 31.8875 24.4645 31.9504C24.1939 32.0125 23.8906 31.9695 23.6485 31.8119C23.5652 31.7837 23.5044 31.7364 23.4728 31.6707C23.4404 31.6032 23.4456 31.5302 23.4674 31.4664C23.5091 31.3441 23.6198 31.228 23.7375 31.1722C23.8203 31.1155 23.9082 31.1055 23.9888 31.1136C24.055 31.1202 24.1216 31.1399 24.1773 31.1563C24.188 31.1595 24.1983 31.1625 24.2082 31.1653L24.2111 31.1662L24.2139 31.1672C24.262 31.1853 24.3075 31.1728 24.3365 31.1467C24.3622 31.1234 24.3755 31.0891 24.3645 31.0492C24.1699 30.8137 23.9158 30.6384 23.6517 30.4562C23.5979 30.4191 23.5436 30.3817 23.4894 30.3434C22.5605 29.7466 21.5728 29.2466 20.542 28.8512L20.4731 28.8248L20.7233 28.1368L20.7938 28.1624L20.8205 28.0923ZM20.8382 28.2598L20.6644 28.7377C21.6806 29.1328 22.6546 29.6287 23.5719 30.2181L23.5732 30.219L23.5746 30.2199C23.6262 30.2563 23.6788 30.2926 23.7318 30.3291C24.0001 30.5139 24.279 30.706 24.4895 30.9651L24.4972 30.9746L24.5015 30.9861C24.5412 31.0919 24.5076 31.1941 24.4371 31.2579C24.3683 31.3202 24.2652 31.3454 24.1643 31.3088C24.1529 31.3055 24.1418 31.3023 24.1309 31.2991C24.0753 31.2828 24.0248 31.2679 23.9739 31.2629C23.9158 31.257 23.8653 31.2652 23.8187 31.2985L23.8127 31.3027L23.8061 31.3057C23.7199 31.3449 23.6372 31.4331 23.6093 31.5148C23.5959 31.5541 23.5977 31.5842 23.608 31.6058C23.6179 31.6264 23.6423 31.6529 23.7037 31.6721L23.714 31.6753L23.7229 31.6813C23.9294 31.8189 24.1939 31.8586 24.431 31.8042C24.6675 31.7499 24.8697 31.6041 24.9619 31.3779L24.9624 31.3766C25.0693 31.1271 25.0781 30.8278 24.8845 30.6342L24.8827 30.6324L24.881 30.6304C24.5523 30.2525 24.1052 29.9623 23.6617 29.6746C23.6111 29.6417 23.5604 29.6088 23.51 29.5759C22.6605 29.0582 21.7663 28.6178 20.8382 28.2598Z" fill="black"/>
<path d="M23.6251 29.625L23.5688 30.2625L23.6251 29.625ZM24.1501 29.9437L24.0001 30.5625L24.1501 29.9437ZM24.7126 30.375L24.3751 30.8625L24.7126 30.375ZM24.8814 31.5375L24.3938 31.275L24.8814 31.5375ZM25.0313 31.0125L24.4688 31.0687L25.0313 31.0125ZM24.3189 31.8187L24.2813 31.3312L24.3189 31.8187ZM24.0938 31.275L23.6438 31.6125L24.0938 31.275ZM21.8813 28.6687V29.25V28.6687ZM23.0626 29.3062V29.9625V29.3062ZM22.4626 28.9875V29.6062V28.9875Z" fill="#F8D80E"/>
<path fill-rule="evenodd" clip-rule="evenodd" d="M21.9751 28.6687V29.25H21.7876V28.6687H21.9751ZM22.4626 28.8937C22.5144 28.8937 22.5563 28.9357 22.5563 28.9875V29.6062C22.5563 29.658 22.5144 29.7 22.4626 29.7C22.4108 29.7 22.3688 29.658 22.3688 29.6062V28.9875C22.3688 28.9357 22.4108 28.8937 22.4626 28.8937ZM23.1563 29.3062V29.9625H22.9688V29.3062H23.1563ZM23.4755 30.2542L23.5317 29.6167L23.7185 29.6332L23.6622 30.2707L23.4755 30.2542ZM23.909 30.5404L24.059 29.9216L24.2412 29.9658L24.0912 30.5845L23.909 30.5404ZM24.298 30.8091L24.6355 30.3216L24.7897 30.4283L24.4522 30.9158L24.298 30.8091ZM24.4595 30.9754L25.022 30.9192L25.0407 31.1057L24.4782 31.162L24.4595 30.9754ZM24.4383 31.1924L24.9258 31.4549L24.8369 31.62L24.3786 31.3732L24.4123 31.8115L24.2254 31.8259L24.1879 31.3384L24.3671 31.3246L24.4383 31.1924ZM23.5876 31.5375L24.0376 31.2L24.1501 31.35L23.7001 31.6875L23.5876 31.5375Z" fill="black"/>
<path d="M20.2125 42.675V44.175H21.15V43.425H22.4438V44.175H23.4563V42.675H20.2125ZM20.2125 44.7375V46.2375H23.4375V44.7375H22.425V45.4875H21.1313V44.7375H20.2125Z" fill="#F8D80E"/>
<path fill-rule="evenodd" clip-rule="evenodd" d="M20.1188 42.5812H23.55V44.2687H22.35V43.5187H21.2438V44.2687H20.1188V42.5812ZM20.3063 42.7687V44.0812H21.0563V43.3312H22.5375V44.0812H23.3625V42.7687H20.3063ZM20.1188 44.6437H21.225V45.3937H22.3313V44.6437H23.5313V46.3312H20.1188V44.6437ZM20.3063 44.8312V46.1437H23.3438V44.8312H22.5188V45.5812H21.0375V44.8312H20.3063Z" fill="black"/>
<path d="M23.4375 36.3187H24.375V47.1937H23.4375V36.3187Z" fill="#F8D80E"/>
<path fill-rule="evenodd" clip-rule="evenodd" d="M23.3438 36.225H24.4688V47.2875H23.3438V36.225ZM23.5312 36.4125V47.1H24.2812V36.4125H23.5312Z" fill="black"/>
<path d="M23.4375 37.2562H24.375V46.6312H23.4375V37.2562ZM23.925 33.6375L25.9125 34.8L23.925 35.9625L21.9188 34.8L23.925 33.6375ZM21.2438 34.3875H20.7375V35.2125H21.2438L23.925 36.7687L26.5875 35.2125H27.1125V34.3875H26.5875L23.925 32.8312L21.2438 34.3875Z" fill="#F8D80E"/>
<path fill-rule="evenodd" clip-rule="evenodd" d="M23.9252 32.7227L26.6129 34.2937H27.2063V35.3062H26.6129L23.9252 36.8772L21.2186 35.3062H20.6438V34.2937H21.2186L23.9252 32.7227ZM23.9249 32.9397L21.269 34.4812H20.8313V35.1187H21.269L23.9249 36.6602L26.5622 35.1187H27.0188V34.4812H26.5622L23.9249 32.9397ZM23.9253 33.529L26.0982 34.8L23.9253 36.0709L21.7318 34.8L23.9253 33.529ZM22.1058 34.8L23.9248 35.854L25.7269 34.8L23.9248 33.7459L22.1058 34.8ZM23.3438 37.1625H24.4688V46.725H23.3438V37.1625ZM23.5313 37.35V46.5375H24.2813V37.35H23.5313Z" fill="black"/>
<path d="M23.8688 30.8062C23.6506 30.8506 23.4553 30.9711 23.3179 31.1464C23.1804 31.3216 23.1099 31.54 23.1188 31.7625V33.8625C23.136 34.0855 23.2324 34.295 23.3906 34.4532C23.5488 34.6113 23.7583 34.7077 23.9813 34.725C24.1668 34.7389 24.3522 34.6961 24.5129 34.6024C24.6736 34.5086 24.8021 34.3683 24.8813 34.2L24.5625 34.0125C24.5183 34.1223 24.4394 34.2147 24.3379 34.2756C24.2364 34.3365 24.1178 34.3626 24 34.35C23.7 34.35 23.4563 34.05 23.4938 33.7687V31.6687C23.508 31.5312 23.5741 31.4042 23.6786 31.3136C23.783 31.2231 23.9181 31.1757 24.0563 31.1812C24.1688 31.1437 24.3375 31.3125 24.4125 31.1812C24.525 31.0125 24.3375 30.9 24.225 30.8062H23.8688ZM24.9563 31.5375C24.8647 31.6658 24.7421 31.769 24.6 31.8375V33.2437L24.975 33.45V31.5375H24.9563Z" fill="#F8D80E"/>
<path fill-rule="evenodd" clip-rule="evenodd" d="M23.8688 30.7125H24.259L24.2851 30.7342C24.2977 30.7448 24.3117 30.7557 24.3272 30.768L24.3281 30.7687C24.3437 30.781 24.3607 30.7945 24.3776 30.8086C24.411 30.8364 24.4477 30.8697 24.4775 30.9084C24.5074 30.9473 24.534 30.9965 24.5398 31.0554C24.5457 31.1153 24.5291 31.1744 24.4922 31.2307C24.4591 31.2868 24.4093 31.3179 24.3517 31.3245C24.302 31.3302 24.2536 31.3165 24.2198 31.3056C24.2029 31.3002 24.1892 31.2954 24.1769 31.2911C24.1586 31.2846 24.1434 31.2793 24.1254 31.2746C24.098 31.2675 24.088 31.2695 24.0859 31.2702L24.0697 31.2756L24.0526 31.2749C23.9382 31.2703 23.8264 31.3095 23.74 31.3845C23.6546 31.4584 23.6003 31.5617 23.5875 31.6738V33.7749L23.5867 33.7811C23.572 33.8913 23.6123 34.0107 23.6918 34.104C23.7709 34.197 23.8821 34.2562 24 34.2562H24.0051L24.0101 34.2567C24.1075 34.2672 24.2057 34.2456 24.2897 34.1952C24.3737 34.1448 24.439 34.0683 24.4756 33.9774L24.5162 33.8765L25.0025 34.1625L24.9661 34.2399C24.8788 34.4254 24.7373 34.5801 24.5601 34.6834C24.383 34.7867 24.1787 34.8338 23.9743 34.8185L23.9741 34.8184C23.7288 34.7995 23.4983 34.6934 23.3243 34.5195C23.1503 34.3455 23.0443 34.115 23.0253 33.8697L23.025 33.8661V31.7643C23.0157 31.5202 23.0933 31.2807 23.2441 31.0885C23.3953 30.8958 23.6101 30.7631 23.8501 30.7143L23.8688 30.8062V30.7125ZM23.8785 30.9C23.6857 30.9413 23.5134 31.0489 23.3916 31.2042C23.268 31.3619 23.2044 31.5585 23.2125 31.7587L23.2125 31.7606V33.8588C23.2288 34.0582 23.3154 34.2454 23.4569 34.3869C23.5992 34.5292 23.7877 34.6159 23.9883 34.6315C24.1549 34.644 24.3214 34.6056 24.4657 34.5214C24.5853 34.4516 24.6851 34.353 24.7563 34.2352L24.6009 34.1438C24.5476 34.2302 24.4741 34.3032 24.3862 34.356C24.2685 34.4265 24.1314 34.4573 23.995 34.4437C23.815 34.442 23.6563 34.3517 23.549 34.2256C23.4423 34.1002 23.3796 33.9317 23.4 33.7628V31.6639L23.4005 31.6591C23.4172 31.4978 23.4946 31.349 23.6172 31.2428C23.7359 31.1399 23.8883 31.0846 24.0451 31.0871C24.0927 31.0763 24.1384 31.0843 24.1724 31.0931C24.1969 31.0995 24.2265 31.1097 24.2502 31.1179C24.2607 31.1216 24.2699 31.1248 24.2772 31.1271C24.3068 31.1366 24.3217 31.1387 24.3289 31.1383C24.3295 31.1375 24.3302 31.1363 24.3311 31.1347L24.3328 31.1319L24.3345 31.1292C24.3527 31.1019 24.3543 31.0845 24.3532 31.0738C24.352 31.0613 24.3458 31.0448 24.3289 31.0227C24.3117 31.0005 24.2875 30.9776 24.2576 30.9526C24.2429 30.9404 24.2277 30.9284 24.2119 30.9159L24.2101 30.9145C24.2041 30.9097 24.198 30.9049 24.1918 30.9H23.8785ZM24.908 31.4437H25.0688V33.6085L24.5063 33.2991V31.7786L24.5594 31.753C24.6872 31.6914 24.7975 31.5985 24.88 31.483L24.908 31.4437ZM24.8813 31.761C24.8241 31.8122 24.7612 31.857 24.6938 31.8944V33.1883L24.8813 33.2914V31.761Z" fill="black"/>
<path d="M21.15 7.20001H26.6438V17.175H21.15V7.20001Z" fill="black"/>
<path d="M20.775 7.19999V15.5437H22.5188V13.0687C22.5188 12.5062 22.8938 11.7 24 11.7C25.1063 11.7 25.5 12.5062 25.5 13.0687V15.5625H27.225V7.19999H20.775ZM23.7375 8.13749H24.2625V10.9875H23.7375V8.13749ZM22.1813 8.69999H22.7438V10.7812H22.1813V8.69999ZM25.275 8.69999H25.8188V10.7812H25.2563L25.275 8.69999ZM20.175 5.99999V7.18124H27.825V5.99999H20.175ZM19.4625 4.61249V5.99999H28.5563V4.61249H27.4125V5.36249H26.1V4.61249H24.6375V5.36249H23.3625V4.61249H21.8813V5.36249H20.625V4.61249H19.4625ZM17.775 18.3375V19.2H30.2438V18.3375H17.775Z" fill="#DA000C"/>
<path fill-rule="evenodd" clip-rule="evenodd" d="M19.3688 4.51874H20.7188V5.26874H21.7875V4.51874H23.4563V5.26874H24.5438V4.51874H26.1938V5.26874H27.3188V4.51874H28.65V6.09374H27.9188V7.27499H27.3188V15.6562H25.4063V13.0687C25.4063 12.8072 25.3142 12.4877 25.0942 12.235C24.8765 11.985 24.528 11.7937 24 11.7937C23.4721 11.7937 23.1287 11.9849 22.9159 12.2343C22.7005 12.4866 22.6125 12.8062 22.6125 13.0687V15.6375H20.6813V7.27499H20.0813V6.09374H19.3688V4.51874ZM28.4625 5.90624V4.70624H27.5063V5.45624H26.0063V4.70624H24.7313V5.45624H23.2688V4.70624H21.975V5.45624H20.5313V4.70624H19.5563V5.90624H28.4625ZM20.2688 6.09374V7.08749H27.7313V6.09374H20.2688ZM20.8688 7.29374V15.45H22.425V13.0687C22.425 12.7688 22.5245 12.404 22.7732 12.1126C23.0245 11.8182 23.4216 11.6062 24 11.6062C24.5783 11.6062 24.9798 11.8181 25.2356 12.1119C25.489 12.4029 25.5938 12.7678 25.5938 13.0687V15.4687H27.1313V7.29374H20.8688ZM23.6438 8.04374H24.3563V11.0812H23.6438V8.04374ZM23.8313 8.23124V10.8937H24.1688V8.23124H23.8313ZM22.0875 8.60624H22.8375V10.875H22.0875V8.60624ZM22.275 8.79374V10.6875H22.65V8.79374H22.275ZM25.1821 8.60624H25.9125V10.875H25.1617L25.1821 8.60624ZM25.3679 8.79374L25.3509 10.6875H25.725V8.79374H25.3679ZM17.6813 18.2437H30.3375V19.2937H17.6813V18.2437ZM17.8688 18.4312V19.1062H30.15V18.4312H17.8688Z" fill="black"/>
<path d="M17.25 15.5438V18.3563H30.75V15.5438H29.475V16.6313H27.75V15.5438H25.4625V16.6313H22.5V15.5438H20.2125V16.6313H18.525V15.5438H17.25Z" fill="#DA000C"/>
<path fill-rule="evenodd" clip-rule="evenodd" d="M17.1562 15.45H18.6188V16.5375H20.1188V15.45H22.5937V16.5375H25.3687V15.45H27.8437V16.5375H29.3813V15.45H30.8437V18.45H17.1562V15.45ZM17.3437 15.6375V18.2625H30.6562V15.6375H29.5688V16.725H27.6562V15.6375H25.5562V16.725H22.4062V15.6375H20.3063V16.725H18.4313V15.6375H17.3437Z" fill="black"/>
<path d="M18.8812 19.2V29.4H21.2812V25.575C21.2812 23.7938 22.4812 22.95 24 22.95C25.4625 22.95 26.7187 23.7938 26.7187 25.575V29.4H29.1187V19.2H18.8812Z" fill="#DA000C"/>
<path fill-rule="evenodd" clip-rule="evenodd" d="M18.7875 19.2C18.7875 19.1482 18.8294 19.1063 18.8812 19.1063H29.1187C29.1705 19.1063 29.2125 19.1482 29.2125 19.2V29.4C29.2125 29.4518 29.1705 29.4938 29.1187 29.4938H26.7187C26.6669 29.4938 26.625 29.4518 26.625 29.4V25.575C26.625 24.7082 26.3203 24.0789 25.8461 23.6652C25.3701 23.2498 24.7141 23.0438 24 23.0438C23.2571 23.0438 22.6016 23.2501 22.1332 23.6647C21.6666 24.0778 21.375 24.7068 21.375 25.575V29.4C21.375 29.4518 21.333 29.4938 21.2812 29.4938H18.8812C18.8294 29.4938 18.7875 29.4518 18.7875 29.4V19.2ZM18.975 19.2938V29.3063H21.1875V25.575C21.1875 24.662 21.4959 23.9785 22.0089 23.5243C22.5202 23.0718 23.2241 22.8563 24 22.8563C24.7483 22.8563 25.4517 23.0721 25.9694 23.5239C26.4891 23.9774 26.8125 24.6606 26.8125 25.575V29.3063H29.025V19.2938H18.975Z" fill="black"/>
</g>
</g>
</g>
<defs>
<clipPath id="clip0_152_46364">
<rect width="48" height="48" fill="white"/>
</clipPath>
<clipPath id="clip1_152_46364">
<rect width="64" height="48" fill="white" transform="translate(-8)"/>
</clipPath>
</defs>
</svg>
