<svg width="48" height="48" viewBox="0 0 48 48" fill="none" xmlns="http://www.w3.org/2000/svg">
<g clip-path="url(#clip0_152_6575)">
<mask id="mask0_152_6575" style="mask-type:alpha" maskUnits="userSpaceOnUse" x="0" y="0" width="48" height="48">
<circle cx="24" cy="24" r="24" fill="#D9D9D9"/>
</mask>
<g mask="url(#mask0_152_6575)">
<g clip-path="url(#clip1_152_6575)">
<path d="M0 0V47.9995H71.9993V0H0Z" fill="#3399CC"/>
<path d="M0 31.9997V34.6663H71.9993V31.9997H0ZM0 37.333V39.9996H71.9993V37.333H0Z" fill="#FFFF00"/>
<path d="M14.27 2.8L14.56 3.1L14.26 2.8H14.27ZM13.97 3.4L14.27 3.7L13.97 3.4ZM14.56 3.4L14.86 3.7L14.56 3.4Z" fill="#99CCCC"/>
<path d="M13.97 3.7L14.27 3.99L13.97 3.69V3.7ZM14.56 3.69L14.86 3.99L14.56 3.69Z" fill="#CCCCFF"/>
<path d="M13.67 4.28L13.97 4.58L13.67 4.28Z" fill="#66CCCC"/>
<path d="M14.27 4.28L14.56 4.58L14.26 4.28H14.27Z" fill="#CC6666"/>
<path d="M14.86 4.28L15.15 4.58L14.85 4.28H14.86Z" fill="#66CCCC"/>
<path d="M13.67 4.58L13.97 4.88L13.67 4.58ZM14.86 4.58L15.15 4.88L14.85 4.58H14.86Z" fill="#CCCCFF"/>
<path d="M13.97 4.87L14.27 5.17L13.97 4.87ZM14.56 4.87L14.86 5.17L14.56 4.87Z" fill="#FFCCCC"/>
<path d="M13.38 5.17L13.68 5.47L13.38 5.17Z" fill="#66CCCC"/>
<path d="M14.22 3.39999L12.15 11.25L4.28003 13.4L12.12 15.45L14.22 23.29L16.31 15.45L24.15 13.35L16.31 11.26L14.21 3.41999L14.22 3.39999Z" fill="#CC0000"/>
<path fill-rule="evenodd" clip-rule="evenodd" d="M14.021 3.42927L11.9984 11.0997L3.56372 13.4039L11.9692 15.6018L14.2205 24.0066L16.4613 15.601L24.8667 13.3496L16.4611 11.1088L14.3887 3.37214L14.2784 3.4017L14.0546 3.31728L14.0132 3.40006L14.021 3.42927ZM14.2138 4.14913L12.3017 11.4003L4.99638 13.3961L12.2709 15.2982L14.2196 22.5734L16.1588 15.299L23.4334 13.3504L16.159 11.4112L14.2138 4.14913Z" fill="white"/>
<path d="M15.15 5.17L15.45 5.47L15.15 5.17Z" fill="#66CCCC"/>
<path d="M13.38 5.46001L13.68 5.76001L13.38 5.46001ZM15.15 5.46001L15.45 5.76001L15.15 5.46001Z" fill="#99CCFF"/>
<path d="M13.67 5.75999L13.97 6.05999L13.67 5.75999ZM14.86 5.75999L15.15 6.05999L14.85 5.75999H14.86Z" fill="#FFCCCC"/>
<path d="M13.08 6.05L13.38 6.35L13.08 6.05Z" fill="#6699CC"/>
<path d="M13.77 6.25L13.87 6.45L13.77 6.25ZM14.95 6.25L15.05 6.45L14.95 6.25Z" fill="#CC3333"/>
<path d="M15.45 6.05L15.75 6.35L15.45 6.05Z" fill="#6699CC"/>
<path d="M13.08 6.35001L13.38 6.65001L13.08 6.35001ZM15.45 6.35001L15.75 6.65001L15.45 6.35001Z" fill="#99CCFF"/>
<path d="M13.38 6.64L13.68 6.94L13.38 6.64ZM15.15 6.64L15.45 6.94L15.15 6.64Z" fill="#FFCCCC"/>
<path d="M12.79 6.94L13.09 7.24L12.79 6.94ZM15.74 6.94L16.04 7.24L15.74 6.94Z" fill="#6699CC"/>
<path d="M12.79 7.23L13.09 7.53L12.79 7.23ZM15.74 7.23L16.04 7.53L15.74 7.23Z" fill="#99CCCC"/>
<path d="M12.79 7.53L13.09 7.83L12.79 7.53ZM15.74 7.53L16.04 7.83L15.74 7.53Z" fill="#CCFFFF"/>
<path d="M12.5 7.83001L12.79 8.12001L12.49 7.82001L12.5 7.83001Z" fill="#6699CC"/>
<path d="M13.08 7.83001L13.38 8.12001L13.08 7.82001V7.83001ZM15.45 7.82001L15.75 8.12001L15.45 7.82001Z" fill="#FFCCCC"/>
<path d="M16.04 7.83001L16.34 8.12001L16.04 7.82001V7.83001Z" fill="#6699CC"/>
<path d="M12.5 8.12L12.79 8.42L12.49 8.12H12.5Z" fill="#99CCCC"/>
<path d="M13.1801 8.32001L13.2801 8.52001L13.1801 8.32001ZM15.5401 8.32001L15.6401 8.52001L15.5401 8.32001Z" fill="#CC3333"/>
<path d="M16.04 8.12L16.34 8.42L16.04 8.12Z" fill="#99CCCC"/>
<path d="M12.5 8.42L12.79 8.72L12.49 8.42H12.5ZM16.04 8.42L16.34 8.72L16.04 8.42Z" fill="#CCFFFF"/>
<path d="M12.79 8.70999L13.09 9.00999L12.79 8.70999ZM15.74 8.70999L16.04 9.00999L15.74 8.70999Z" fill="#FFCCCC"/>
<path d="M12.2 9L12.5 9.3L12.2 9Z" fill="#99CCCC"/>
<path d="M12.89 9.2L12.99 9.4L12.89 9.2ZM15.84 9.2L15.94 9.4L15.84 9.2Z" fill="#CC3333"/>
<path d="M16.33 9L16.63 9.3L16.33 9Z" fill="#99CCCC"/>
<path d="M12.2 9.3L12.5 9.6L12.2 9.3ZM16.33 9.3L16.63 9.6L16.33 9.3Z" fill="#CCCCFF"/>
<path d="M12.5 9.60001L12.79 9.90001L12.49 9.60001H12.5ZM16.04 9.60001L16.34 9.90001L16.04 9.60001Z" fill="#FFCCCC"/>
<path d="M11.9 9.9L12.2 10.19L11.9 9.89V9.9Z" fill="#99CCCC"/>
<path d="M12.6 10.09L12.69 10.29L12.59 10.09H12.6ZM16.13 10.09L16.23 10.29L16.13 10.09Z" fill="#CC3333"/>
<path d="M16.63 9.9L16.93 10.19L16.63 9.89V9.9Z" fill="#99CCCC"/>
<path d="M11.9 10.19L12.2 10.49L11.9 10.19ZM16.63 10.19L16.93 10.49L16.63 10.19Z" fill="#CCCCFF"/>
<path d="M12.2 10.48L12.5 10.78L12.2 10.48ZM16.33 10.48L16.63 10.78L16.33 10.48Z" fill="#FFCCCC"/>
<path d="M11.6 10.78L11.9 11.08L11.6 10.78Z" fill="#99CCCC"/>
<path d="M12.2 10.78L12.5 11.08L12.2 10.78ZM16.33 10.78L16.63 11.08L16.33 10.78Z" fill="#CC3333"/>
<path d="M16.92 10.78L17.22 11.08L16.92 10.78ZM10.72 11.08L11.02 11.37L10.72 11.07V11.08Z" fill="#99CCCC"/>
<path d="M11.02 11.07L11.32 11.37L11.02 11.07ZM17.52 11.07L17.81 11.37L17.51 11.07H17.52Z" fill="#CCCCFF"/>
<path d="M17.8 11.07L18.1 11.37L17.8 11.07ZM9.83997 11.37L10.14 11.67L9.83997 11.37Z" fill="#99CCCC"/>
<path d="M10.13 11.37L10.43 11.67L10.13 11.37Z" fill="#CCCCFF"/>
<path d="M11.3101 11.37L11.6101 11.67L11.3101 11.37Z" fill="#FFCCCC"/>
<path d="M11.6 11.37L11.9 11.67L11.6 11.37ZM16.92 11.37L17.22 11.67L16.92 11.37Z" fill="#CC3333"/>
<path d="M17.22 11.37L17.52 11.67L17.22 11.37Z" fill="#FFCCCC"/>
<path d="M18.4 11.37L18.7 11.67L18.4 11.37Z" fill="#CCCCFF"/>
<path d="M18.6999 11.37L18.9899 11.67L18.6899 11.37H18.6999Z" fill="#99CCCC"/>
<path d="M8.66003 11.66L8.96003 11.96L8.66003 11.66Z" fill="#6699CC"/>
<path d="M8.94995 11.66L9.24995 11.96L8.94995 11.66Z" fill="#99CCCC"/>
<path d="M9.25 11.66L9.55 11.96L9.25 11.66Z" fill="#CCFFFF"/>
<path d="M10.4301 11.66L10.7301 11.96L10.4301 11.66Z" fill="#FFCCCC"/>
<path d="M10.92 11.76L11.12 11.86L10.92 11.76ZM17.71 11.76L17.91 11.86L17.71 11.76Z" fill="#CC3333"/>
<path d="M18.1 11.66L18.4 11.96L18.1 11.66Z" fill="#FFCCCC"/>
<path d="M19.28 11.66L19.58 11.96L19.28 11.66Z" fill="#CCFFFF"/>
<path d="M19.58 11.66L19.88 11.96L19.58 11.66Z" fill="#99CCCC"/>
<path d="M19.87 11.66L20.17 11.96L19.87 11.66ZM7.77002 11.96L8.07002 12.26L7.77002 11.96Z" fill="#6699CC"/>
<path d="M8.06995 11.96L8.36995 12.26L8.06995 11.96Z" fill="#99CCCC"/>
<path d="M8.35999 11.96L8.65999 12.26L8.35999 11.96Z" fill="#CCFFFF"/>
<path d="M9.54004 11.96L9.84004 12.26L9.54004 11.96Z" fill="#FFCCCC"/>
<path d="M10.03 12.06L10.23 12.16L10.03 12.06ZM18.59 12.06L18.79 12.16L18.59 12.06Z" fill="#CC3333"/>
<path d="M18.99 11.96L19.29 12.26L18.99 11.96Z" fill="#FFCCCC"/>
<path d="M20.17 11.96L20.47 12.26L20.17 11.96Z" fill="#CCFFFF"/>
<path d="M20.46 11.96L20.76 12.26L20.46 11.96Z" fill="#99CCCC"/>
<path d="M20.76 11.96L21.06 12.26L20.76 11.96ZM6.88 12.26L7.18 12.55L6.88 12.25V12.26Z" fill="#6699CC"/>
<path d="M7.18005 12.25L7.48005 12.55L7.18005 12.25Z" fill="#99CCFF"/>
<path d="M8.66003 12.25L8.96003 12.55L8.66003 12.25Z" fill="#FFCCCC"/>
<path d="M9.15002 12.35L9.35002 12.45L9.15002 12.35ZM19.48 12.35L19.68 12.45L19.48 12.35Z" fill="#CC3333"/>
<path d="M19.87 12.25L20.17 12.55L19.87 12.25Z" fill="#FFCCCC"/>
<path d="M21.35 12.25L21.65 12.55L21.35 12.25Z" fill="#99CCFF"/>
<path d="M21.64 12.25L21.94 12.55L21.64 12.25Z" fill="#6699CC"/>
<path d="M6 12.55L6.3 12.85L6 12.55Z" fill="#66CCCC"/>
<path d="M6.30004 12.55L6.59004 12.85L6.29004 12.55H6.30004Z" fill="#99CCFF"/>
<path d="M7.47997 12.55L7.76997 12.85L7.46997 12.55H7.47997ZM21.06 12.55L21.35 12.85L21.05 12.55H21.06Z" fill="#FFCCCC"/>
<path d="M22.23 12.55L22.53 12.85L22.23 12.55Z" fill="#99CCFF"/>
<path d="M22.53 12.55L22.83 12.85L22.53 12.55ZM5.10999 12.85L5.40999 13.14L5.10999 12.84V12.85Z" fill="#66CCCC"/>
<path d="M5.40002 12.84L5.70002 13.14L5.40002 12.84Z" fill="#CCCCFF"/>
<path d="M6.58997 12.84L6.88997 13.14L6.58997 12.84Z" fill="#FFCCCC"/>
<path d="M7.07996 12.94L7.27996 13.04L7.07996 12.94ZM21.55 12.94L21.75 13.04L21.55 12.94Z" fill="#CC3333"/>
<path d="M21.9399 12.84L22.2399 13.14L21.9399 12.84Z" fill="#FFCCCC"/>
<path d="M23.12 12.84L23.42 13.14L23.12 12.84Z" fill="#CCCCFF"/>
<path d="M23.42 12.84L23.72 13.14L23.42 12.84Z" fill="#66CCCC"/>
<path d="M4.22998 13.14L4.52998 13.44L4.22998 13.14Z" fill="#99CCCC"/>
<path d="M4.52002 13.14L4.82002 13.44L4.52002 13.14Z" fill="#CCCCFF"/>
<path d="M5.69995 13.14L5.99995 13.44L5.69995 13.14ZM22.8299 13.14L23.1299 13.44L22.8299 13.14Z" fill="#FFCCCC"/>
<path d="M24 13.14L24.3 13.44L24 13.14Z" fill="#CCCCFF"/>
<path d="M24.3 13.14L24.6 13.44L24.3 13.14ZM3.64001 13.44L3.94001 13.73L3.64001 13.43V13.44Z" fill="#99CCCC"/>
<path d="M5.10999 13.43L5.40999 13.73L5.10999 13.43ZM23.41 13.43L23.71 13.73L23.41 13.43Z" fill="#CC6666"/>
<path d="M24.9 13.43L25.19 13.73L24.89 13.43H24.9ZM4.22998 13.73L4.52998 14.03L4.22998 13.73Z" fill="#99CCCC"/>
<path d="M4.52002 13.73L4.82002 14.03L4.52002 13.73Z" fill="#CCCCFF"/>
<path d="M5.69995 13.73L5.99995 14.03L5.69995 13.73ZM22.8299 13.73L23.1299 14.03L22.8299 13.73Z" fill="#FFCCCC"/>
<path d="M24 13.73L24.3 14.03L24 13.73Z" fill="#CCCCFF"/>
<path d="M24.3 13.73L24.6 14.03L24.3 13.73Z" fill="#99CCCC"/>
<path d="M5.10999 14.03L5.40999 14.32L5.10999 14.02V14.03Z" fill="#66CCCC"/>
<path d="M5.40002 14.03L5.70002 14.32L5.40002 14.02V14.03Z" fill="#CCCCFF"/>
<path d="M6.58997 14.03L6.88997 14.32L6.58997 14.02V14.03Z" fill="#FFCCCC"/>
<path d="M7.07996 14.12L7.27996 14.22L7.07996 14.12ZM21.55 14.12L21.75 14.22L21.55 14.12Z" fill="#CC3333"/>
<path d="M21.9399 14.03L22.2399 14.32L21.9399 14.02V14.03Z" fill="#FFCCCC"/>
<path d="M23.12 14.03L23.42 14.32L23.12 14.02V14.03Z" fill="#CCCCFF"/>
<path d="M23.42 14.03L23.72 14.32L23.42 14.02V14.03ZM6 14.32L6.3 14.62L6 14.32Z" fill="#66CCCC"/>
<path d="M6.30004 14.32L6.59004 14.62L6.29004 14.32H6.30004Z" fill="#99CCFF"/>
<path d="M7.47997 14.32L7.76997 14.62L7.46997 14.32H7.47997ZM21.06 14.32L21.35 14.62L21.05 14.32H21.06Z" fill="#FFCCCC"/>
<path d="M22.23 14.32L22.53 14.62L22.23 14.32Z" fill="#99CCFF"/>
<path d="M22.53 14.32L22.83 14.62L22.53 14.32Z" fill="#66CCCC"/>
<path d="M6.88 14.62L7.18 14.91L6.88 14.61V14.62Z" fill="#6699CC"/>
<path d="M7.18005 14.62L7.48005 14.91L7.18005 14.61V14.62Z" fill="#99CCFF"/>
<path d="M8.66003 14.62L8.96003 14.91L8.66003 14.61V14.62Z" fill="#FFCCCC"/>
<path d="M9.15002 14.71L9.35002 14.81L9.15002 14.71ZM19.48 14.71L19.68 14.81L19.48 14.71Z" fill="#CC3333"/>
<path d="M19.87 14.62L20.17 14.91L19.87 14.61V14.62Z" fill="#FFCCCC"/>
<path d="M21.35 14.62L21.65 14.91L21.35 14.61V14.62Z" fill="#99CCFF"/>
<path d="M21.64 14.62L21.94 14.91L21.64 14.61V14.62ZM7.77002 14.91L8.07002 15.21L7.77002 14.91Z" fill="#6699CC"/>
<path d="M8.06995 14.91L8.36995 15.21L8.06995 14.91Z" fill="#99CCCC"/>
<path d="M8.35999 14.91L8.65999 15.21L8.35999 14.91Z" fill="#CCFFFF"/>
<path d="M9.54004 14.91L9.84004 15.21L9.54004 14.91Z" fill="#FFCCCC"/>
<path d="M10.03 15L10.23 15.1L10.03 15ZM18.59 15L18.79 15.1L18.59 15Z" fill="#CC3333"/>
<path d="M18.99 14.91L19.29 15.21L18.99 14.91Z" fill="#FFCCCC"/>
<path d="M20.17 14.91L20.47 15.21L20.17 14.91Z" fill="#CCFFFF"/>
<path d="M20.46 14.91L20.76 15.21L20.46 14.91Z" fill="#99CCCC"/>
<path d="M20.76 14.91L21.06 15.21L20.76 14.91ZM8.66002 15.21L8.95002 15.5L8.65002 15.2L8.66002 15.21Z" fill="#6699CC"/>
<path d="M8.94995 15.2L9.24995 15.5L8.94995 15.2Z" fill="#99CCCC"/>
<path d="M9.25 15.2L9.55 15.5L9.25 15.2Z" fill="#CCFFFF"/>
<path d="M10.4301 15.2L10.7301 15.5L10.4301 15.2Z" fill="#FFCCCC"/>
<path d="M10.92 15.3L11.12 15.4L10.92 15.3ZM17.71 15.3L17.91 15.4L17.71 15.3Z" fill="#CC3333"/>
<path d="M18.1 15.2L18.4 15.5L18.1 15.2Z" fill="#FFCCCC"/>
<path d="M19.28 15.2L19.58 15.5L19.28 15.2Z" fill="#CCFFFF"/>
<path d="M19.58 15.2L19.88 15.5L19.58 15.2Z" fill="#99CCCC"/>
<path d="M19.87 15.2L20.17 15.5L19.87 15.2Z" fill="#6699CC"/>
<path d="M9.83997 15.5L10.14 15.8L9.83997 15.5Z" fill="#99CCCC"/>
<path d="M10.13 15.5L10.43 15.8L10.13 15.5Z" fill="#CCCCFF"/>
<path d="M11.3101 15.5L11.6101 15.8L11.3101 15.5Z" fill="#FFCCCC"/>
<path d="M11.6 15.5L11.9 15.8L11.6 15.5ZM16.92 15.5L17.22 15.8L16.92 15.5Z" fill="#CC3333"/>
<path d="M17.22 15.5L17.52 15.8L17.22 15.5Z" fill="#FFCCCC"/>
<path d="M18.4 15.5L18.7 15.8L18.4 15.5Z" fill="#CCCCFF"/>
<path d="M18.7 15.5L18.99 15.8L18.69 15.5H18.7ZM10.72 15.8L11.02 16.1L10.72 15.8Z" fill="#99CCCC"/>
<path d="M11.02 15.8L11.32 16.1L11.02 15.8ZM17.52 15.8L17.81 16.1L17.51 15.8H17.52Z" fill="#CCCCFF"/>
<path d="M17.8 15.8L18.1 16.1L17.8 15.8ZM11.6 16.1L11.9 16.39L11.6 16.09V16.1Z" fill="#99CCCC"/>
<path d="M12.2 16.1L12.5 16.39L12.2 16.09V16.1ZM16.33 16.09L16.63 16.39L16.33 16.09Z" fill="#CC3333"/>
<path d="M16.92 16.1L17.22 16.39L16.92 16.09V16.1Z" fill="#99CCCC"/>
<path d="M12.2 16.39L12.5 16.69L12.2 16.39ZM16.33 16.39L16.63 16.69L16.33 16.39Z" fill="#FFCCCC"/>
<path d="M11.9 16.68L12.2 16.98L11.9 16.68Z" fill="#CCCCFF"/>
<path d="M12.6 16.88L12.69 17.08L12.59 16.88H12.6ZM16.13 16.88L16.23 17.08L16.13 16.88Z" fill="#CC3333"/>
<path d="M16.63 16.68L16.93 16.98L16.63 16.68Z" fill="#CCCCFF"/>
<path d="M11.9 16.98L12.2 17.28L11.9 16.98ZM16.63 16.98L16.93 17.28L16.63 16.98Z" fill="#99CCCC"/>
<path d="M12.5 17.27L12.79 17.57L12.49 17.27H12.5ZM16.04 17.27L16.34 17.57L16.04 17.27Z" fill="#FFCCCC"/>
<path d="M12.2 17.57L12.5 17.87L12.2 17.57Z" fill="#CCCCFF"/>
<path d="M12.89 17.76L12.99 17.96L12.89 17.76ZM15.84 17.76L15.94 17.96L15.84 17.76Z" fill="#CC3333"/>
<path d="M16.33 17.57L16.63 17.87L16.33 17.57Z" fill="#CCCCFF"/>
<path d="M12.2 17.86L12.5 18.16L12.2 17.86ZM16.33 17.86L16.63 18.16L16.33 17.86Z" fill="#99CCCC"/>
<path d="M12.79 18.16L13.09 18.46L12.79 18.16ZM15.74 18.16L16.04 18.46L15.74 18.16Z" fill="#FFCCCC"/>
<path d="M12.5 18.45L12.79 18.75L12.49 18.45H12.5Z" fill="#CCFFFF"/>
<path d="M13.1801 18.65L13.2801 18.85L13.1801 18.65ZM15.5401 18.65L15.6401 18.85L15.5401 18.65Z" fill="#CC3333"/>
<path d="M16.04 18.45L16.34 18.75L16.04 18.45Z" fill="#CCFFFF"/>
<path d="M12.5 18.75L12.79 19.05L12.49 18.75H12.5ZM16.04 18.75L16.34 19.05L16.04 18.75Z" fill="#99CCCC"/>
<path d="M12.5 19.04L12.79 19.34L12.49 19.04H12.5Z" fill="#6699CC"/>
<path d="M13.08 19.04L13.38 19.34L13.08 19.04ZM15.45 19.04L15.75 19.34L15.45 19.04Z" fill="#FFCCCC"/>
<path d="M16.04 19.04L16.34 19.34L16.04 19.04Z" fill="#6699CC"/>
<path d="M12.79 19.34L13.09 19.64L12.79 19.34ZM15.74 19.34L16.04 19.64L15.74 19.34Z" fill="#CCFFFF"/>
<path d="M12.79 19.63L13.09 19.93L12.79 19.63ZM15.74 19.63L16.04 19.93L15.74 19.63Z" fill="#99CCCC"/>
<path d="M12.79 19.93L13.09 20.23L12.79 19.93ZM15.74 19.93L16.04 20.23L15.74 19.93Z" fill="#6699CC"/>
<path d="M13.38 20.22L13.68 20.52L13.38 20.22ZM15.15 20.22L15.45 20.52L15.15 20.22Z" fill="#FFCCCC"/>
<path d="M13.08 20.52L13.38 20.82L13.08 20.52Z" fill="#99CCFF"/>
<path d="M13.77 20.72L13.87 20.92L13.77 20.72ZM14.95 20.72L15.05 20.92L14.95 20.72Z" fill="#CC3333"/>
<path d="M15.45 20.52L15.75 20.82L15.45 20.52Z" fill="#99CCFF"/>
<path d="M13.08 20.82L13.38 21.11L13.08 20.81V20.82ZM15.45 20.81L15.75 21.11L15.45 20.81Z" fill="#6699CC"/>
<path d="M13.67 21.11L13.97 21.41L13.67 21.11ZM14.86 21.11L15.15 21.41L14.85 21.11H14.86Z" fill="#FFCCCC"/>
<path d="M13.38 21.4L13.68 21.7L13.38 21.4ZM15.15 21.4L15.45 21.7L15.15 21.4Z" fill="#99CCFF"/>
<path d="M13.38 21.7L13.68 22L13.38 21.7ZM15.15 21.7L15.45 22L15.15 21.7Z" fill="#66CCCC"/>
<path d="M13.97 22L14.27 22.3L13.97 22ZM14.56 22L14.86 22.3L14.56 22Z" fill="#FFCCCC"/>
<path d="M13.67 22.29L13.97 22.59L13.67 22.29ZM14.86 22.29L15.15 22.59L14.85 22.29H14.86Z" fill="#CCCCFF"/>
<path d="M13.67 22.59L13.97 22.89L13.67 22.59Z" fill="#66CCCC"/>
<path d="M14.27 22.59L14.56 22.89L14.26 22.59H14.27Z" fill="#CC6666"/>
<path d="M14.86 22.59L15.15 22.89L14.85 22.59H14.86Z" fill="#66CCCC"/>
<path d="M13.97 23.18L14.27 23.48L13.97 23.18ZM14.56 23.18L14.86 23.48L14.56 23.18Z" fill="#CCCCFF"/>
<path d="M13.97 23.47L14.27 23.77L13.97 23.47ZM14.56 23.47L14.86 23.77L14.56 23.47ZM14.26 24.07L14.56 24.36L14.26 24.06V24.07Z" fill="#99CCCC"/>
</g>
</g>
</g>
<defs>
<clipPath id="clip0_152_6575">
<rect width="48" height="48" fill="white"/>
</clipPath>
<clipPath id="clip1_152_6575">
<rect width="64" height="48" fill="white"/>
</clipPath>
</defs>
</svg>
