<svg width="48" height="48" viewBox="0 0 48 48" fill="none" xmlns="http://www.w3.org/2000/svg">
<g clip-path="url(#clip0_191_23388)">
<mask id="mask0_191_23388" style="mask-type:alpha" maskUnits="userSpaceOnUse" x="0" y="0" width="48" height="48">
<circle cx="24" cy="24" r="24" fill="#D9D9D9"/>
</mask>
<g mask="url(#mask0_191_23388)">
<g clip-path="url(#clip1_191_23388)">
<path d="M-8 0H56V48H-8V0Z" fill="#CD2A3E"/>
<path d="M-8 7.19995H56V40.8H-8V7.19995Z" fill="#006233"/>
<path d="M39 15.46C39 19.4382 37.4197 23.2535 34.6066 26.0666C31.7936 28.8796 27.9783 30.46 24 30.46C20.0218 30.46 16.2065 28.8796 13.3934 26.0666C10.5804 23.2535 9.00001 19.4382 9.00001 15.46C8.66667 16.7399 8.49863 18.0573 8.50001 19.38C8.50001 23.4908 10.133 27.4333 13.0399 30.3401C15.9467 33.2469 19.8892 34.88 24 34.88C28.1109 34.88 32.0534 33.2469 34.9602 30.3401C37.867 27.4333 39.5 23.4908 39.5 19.38C39.5019 18.0573 39.3339 16.7398 39 15.46Z" fill="#FFC400"/>
<path d="M24 9.38L22.65 13.53H18.3L21.83 16.09L20.48 20.23L24.01 17.67L27.54 20.23L26.19 16.09L29.72 13.53H25.36L24 9.38Z" fill="#FFC400"/>
</g>
</g>
</g>
<defs>
<clipPath id="clip0_191_23388">
<rect width="48" height="48" fill="white"/>
</clipPath>
<clipPath id="clip1_191_23388">
<rect width="64" height="48" fill="white" transform="translate(-8)"/>
</clipPath>
</defs>
</svg>
