<svg width="48" height="48" viewBox="0 0 48 48" fill="none" xmlns="http://www.w3.org/2000/svg">
<g clip-path="url(#clip0_154_54484)">
<mask id="mask0_154_54484" style="mask-type:alpha" maskUnits="userSpaceOnUse" x="0" y="0" width="48" height="48">
<circle cx="24" cy="24" r="24" fill="#D9D9D9"/>
</mask>
<g mask="url(#mask0_154_54484)">
<g clip-path="url(#clip1_154_54484)">
<path fill-rule="evenodd" clip-rule="evenodd" d="M-8 0H56V48H-8V0Z" fill="#00247D"/>
<path d="M-8 0H24V24H-8V0Z" fill="#012169"/>
<path d="M-4.25 0L7.95 9.05L20.1 0H24V3.1L12 12.05L24 20.95V24H20L8 15.05L-3.95 24H-8V21L3.95 12.1L-8 3.2V0H-4.25Z" fill="white"/>
<path d="M13.2 14.05L24 22V24L10.45 14.05H13.2ZM4 15.05L4.3 16.8L-5.3 24H-8L4 15.05ZM24 0V0.15L11.55 9.55L11.65 7.35L21.5 0H24ZM-8 0L3.95 8.8H0.95L-8 2.1V0Z" fill="#C8102E"/>
<path d="M4.05 0V24H12.05V0H4.05ZM-8 8V16H24V8H-8Z" fill="white"/>
<path d="M-8 9.65V14.45H24V9.65H-8ZM5.65 0V24H10.45V0H5.65Z" fill="#C8102E"/>
<path d="M31.9729 21.7644L32.4936 23.4534L31.1285 22.4339L31.0077 22.3437L30.8877 22.4349L29.5272 23.4693L30.0364 21.7678L30.0761 21.6353L29.966 21.5514L28.584 20.4982L30.2862 20.4795L30.4316 20.4779L30.475 20.3391L30.997 18.6668L31.5253 20.3349L31.5695 20.4745H31.716H33.418L32.041 21.5477L31.9322 21.6325L31.9729 21.7644Z" fill="#C8102E" stroke="white" stroke-width="0.4"/>
<path d="M39.9729 9.76436L40.4936 11.4534L39.1285 10.4339L39.0077 10.3437L38.8877 10.4349L37.5272 11.4693L38.0364 9.7678L38.0761 9.63525L37.966 9.55139L36.584 8.4982L38.2862 8.47949L38.4316 8.47789L38.475 8.33909L38.997 6.66676L39.5253 8.33486L39.5695 8.47448H39.716H41.418L40.041 9.54769L39.9322 9.63251L39.9729 9.76436Z" fill="#C8102E" stroke="white" stroke-width="0.4"/>
<path d="M47.9729 18.7644L48.4936 20.4534L47.1285 19.4339L47.0077 19.3437L46.8877 19.4349L45.5272 20.4693L46.0364 18.7678L46.0761 18.6353L45.966 18.5514L44.584 17.4982L46.2862 17.4795L46.4316 17.4779L46.475 17.3391L46.997 15.6668L47.5253 17.3349L47.5695 17.4745H47.716H49.418L48.041 18.5477L47.9322 18.6325L47.9729 18.7644Z" fill="#C8102E" stroke="white" stroke-width="0.4"/>
<path d="M40.3609 38.9995L41.1154 41.4469L39.1314 39.9653L39.0106 39.8751L38.8907 39.9663L36.9137 41.4693L37.6513 39.0046L37.691 38.8721L37.581 38.7882L35.584 37.2664L38.0476 37.2393L38.193 37.2377L38.2363 37.0989L38.9955 34.6668L39.7639 37.093L39.8082 37.2326H39.9546H42.418L40.429 38.7828L40.3202 38.8677L40.3609 38.9995Z" fill="#C8102E" stroke="white" stroke-width="0.4"/>
</g>
</g>
</g>
<defs>
<clipPath id="clip0_154_54484">
<rect width="48" height="48" fill="white"/>
</clipPath>
<clipPath id="clip1_154_54484">
<rect width="64" height="48" fill="white" transform="translate(-8)"/>
</clipPath>
</defs>
</svg>
