<svg width="48" height="48" viewBox="0 0 48 48" fill="none" xmlns="http://www.w3.org/2000/svg">
<g clip-path="url(#clip0_191_23483)">
<mask id="mask0_191_23483" style="mask-type:alpha" maskUnits="userSpaceOnUse" x="0" y="0" width="48" height="48">
<circle cx="24" cy="24" r="24" fill="#D9D9D9"/>
</mask>
<g mask="url(#mask0_191_23483)">
<g clip-path="url(#clip1_191_23483)">
<path d="M-1.22998 -0.0100098H97.2348V47.9792H-1.22998V-0.0100098Z" fill="#006400"/>
<path d="M-1.22998 6.84558H97.2348V41.1236H-1.22998V6.84558Z" fill="#FFD200"/>
<path d="M-1.22998 13.7012H97.2348V34.268H-1.22998V13.7012Z" fill="#D40000"/>
<path d="M-1.22998 20.5568H97.2348V27.4124H-1.22998V20.5568Z" fill="black"/>
<path d="M-1.22998 -0.0100098V47.9792L31.5916 23.9846L-1.22998 -0.0100098Z" fill="black"/>
<path fill-rule="evenodd" clip-rule="evenodd" d="M-2.38733 -2.28967L33.5525 23.9846L-2.38733 50.2588V-2.28967ZM-0.0727186 2.26963V45.6995L29.6306 23.9846L-0.0727186 2.26963Z" fill="black"/>
<path d="M-1.22998 -0.0100098V47.9792L31.5916 23.9846L-1.22998 -0.0100098Z" fill="white"/>
<path d="M11.2539 11.9187L17.7596 31.4229L0.739258 19.3685H21.7802L4.74818 31.4229L11.2539 11.9187Z" fill="#D40000"/>
<path d="M8.47573 28.9778L9.62449 28.7721L11.7462 28.6921L12.5315 28.7607L14.2898 29.0463L14.4188 28.8749V27.6409L14.6298 26.5783L14.9814 25.5043L15.3683 24.6473L15.8606 23.7561L16.6577 23.9503H16.8687L16.8921 23.8018L15.2042 22.3964L13.4459 21.0824L10.9022 19.2314L10.6677 19.1743L10.3981 17.2318L10.1989 16.6491L9.92926 16.4206L9.42522 16.2606L8.86256 16.2835L8.60468 16.4206L8.06546 16.5348L7.78414 16.5805L7.59658 16.7976L7.57314 17.0719L8.35851 17.0947L8.55779 17.1747L8.53434 17.2547L8.08891 17.3118L7.87791 17.3804L8.12407 17.5632L8.38196 17.6546L8.71017 17.7689L8.78051 17.9974L8.80395 20.9453L8.62812 21.4023L8.56951 22.2593L8.82739 23.2876L8.17096 24.0189L7.79586 24.6702L7.72553 25.0701L7.52625 25.47L7.50281 25.7213L7.63175 25.9956L8.1358 27.6181L8.39368 28.9549L8.47573 28.9778Z" fill="#FFCC00"/>
<path d="M9.08533 16.2148C8.87434 16.2148 8.78056 16.2377 8.58129 16.3405C8.41617 16.4327 8.23186 16.4873 8.04208 16.5005C7.74903 16.5005 7.51459 16.7062 7.51459 16.969V17.1404L7.93658 17.1289C9.17911 17.1632 8.0538 17.2775 7.96002 17.2889C7.65525 17.346 8.03035 17.586 8.39374 17.7117C8.78056 17.8259 8.75712 17.7574 8.75712 19.4256C8.75712 20.7852 8.75712 20.9795 8.6399 21.288C8.48751 21.745 8.48751 22.4306 8.6399 22.8876C8.71023 23.0704 8.75712 23.2304 8.75712 23.2647C8.75712 23.2875 8.56957 23.5046 8.34685 23.756C7.93658 24.213 7.69042 24.6815 7.69042 25.0129C7.67579 25.1195 7.63564 25.2212 7.5732 25.3099C7.42081 25.5042 7.42081 25.8355 7.56147 25.9612C7.71386 26.0983 8.33513 28.4521 8.34685 28.8977C8.34685 29.0577 8.37029 29.0577 9.31977 28.8749C10.0934 28.7263 11.9103 28.692 12.8364 28.8063C13.2584 28.8634 13.7507 28.9548 13.9265 28.9891C14.4892 29.1376 14.4657 29.1605 14.4657 28.4978C14.47 27.4536 14.6727 26.4193 15.0636 25.4471C15.2875 24.8931 15.5581 24.358 15.8724 23.8474C15.8724 23.8474 16.0834 23.8703 16.3413 23.9388C16.8219 24.0531 16.9625 24.0417 16.9625 23.8246C16.9625 23.7103 16.4585 23.299 13.9851 21.4251C12.9876 20.6292 11.9592 19.8707 10.9022 19.1513C10.8319 19.1513 10.7616 19.117 10.7499 19.0713L10.574 17.9859C10.492 17.426 10.3748 16.8776 10.3279 16.7633C10.1638 16.4205 9.84726 16.2491 9.31977 16.2148C9.24165 16.2124 9.16346 16.2124 9.08533 16.2148ZM9.09706 16.3291H9.3315C10.1051 16.3748 10.2458 16.5805 10.4568 17.9287C10.5137 18.2854 10.5607 18.6436 10.5975 19.0028C10.5975 19.0942 10.492 19.2085 10.2224 19.3798C9.77878 19.6832 9.38376 20.049 9.05017 20.4653L8.89778 20.671L8.86262 20.1911V18.8428C8.89778 17.8488 8.86262 17.7574 8.5344 17.6431C8.26479 17.5517 7.91313 17.4603 8.00691 17.4031C8.12413 17.3346 8.24135 17.3803 8.52268 17.3003C8.6399 17.2775 8.62818 17.2889 8.60473 17.1975C8.58129 17.0489 8.41718 16.969 7.98347 16.9918C7.63181 17.0147 7.59664 17.0032 7.62008 16.9118C7.66697 16.729 7.85452 16.6148 8.14757 16.5805C8.32698 16.5602 8.50146 16.51 8.66334 16.4319C8.79419 16.3553 8.94439 16.3157 9.09706 16.3177V16.3291ZM10.8436 19.277H10.8905C11.0898 19.3113 16.8453 23.6989 16.8453 23.8246C16.8453 23.8703 16.7984 23.9045 16.7281 23.9045C16.6812 23.9045 15.2159 23.5046 13.4811 23.0133C10.7147 22.2135 10.3161 22.0992 10.1989 21.9507C10.1174 21.8503 10.072 21.7265 10.0699 21.5984C10.0678 21.4704 10.109 21.3452 10.1872 21.2423C10.2435 21.1757 10.2835 21.0976 10.3044 21.0138C10.3044 20.8767 10.0114 21.2194 9.95276 21.4137C9.89415 21.6422 10.0114 22.0307 10.1872 22.1564C10.2575 22.2135 10.785 22.3849 11.3594 22.5563C12.344 22.8305 12.4144 22.8648 12.4613 23.0247C12.5785 23.4018 12.1682 23.8474 11.5821 23.9731C11.3624 24.0244 11.1552 24.1176 10.9726 24.2473C10.3644 24.7383 9.68497 25.1388 8.95639 25.4356C8.9095 25.4699 8.85089 25.6527 8.81573 25.8241C8.7454 26.2012 8.72195 26.2583 8.60473 26.2583C8.54612 26.2583 8.5344 26.224 8.58129 26.0983C8.66334 25.8698 8.65162 25.5956 8.56957 25.5956C8.51096 25.5956 8.48751 25.6756 8.48751 25.8013C8.48751 25.9155 8.45235 26.0526 8.40546 26.0869C8.34685 26.1555 8.33513 26.1098 8.35857 25.8241C8.38201 25.6299 8.37029 25.4813 8.34685 25.4813C8.28824 25.4813 8.18274 25.767 8.14757 26.0184C8.12413 26.1669 8.12413 26.1669 8.07724 25.9841C8.04208 25.847 8.0538 25.7556 8.1593 25.5842C8.22591 25.46 8.26579 25.3239 8.27652 25.1843C8.27652 25.0357 8.39374 24.8872 8.94467 24.3502C9.29633 23.9959 9.73004 23.5503 9.88243 23.3561C10.152 23.0362 10.1638 23.0133 10.152 22.682C10.152 22.4991 10.1286 22.3278 10.1051 22.3049C10.0348 22.2363 9.94104 22.602 9.98793 22.7962C10.0114 22.979 9.98793 23.0362 9.6011 23.4818C9.32279 23.7923 9.02941 24.0898 8.72195 24.373C8.26479 24.7843 8.10069 25.0129 8.10069 25.2185C8.10069 25.2871 8.0538 25.4471 7.98347 25.5956C7.91313 25.7441 7.88969 25.8927 7.91313 25.9269C7.93658 25.9612 7.91313 25.9612 7.87797 25.9269C7.81936 25.8698 7.81936 25.7784 7.86625 25.5842C7.89308 25.4874 7.90103 25.3867 7.88969 25.2871C7.83108 25.1728 7.74903 25.3099 7.71386 25.5956C7.69042 25.7556 7.65525 25.8812 7.62008 25.8584C7.53803 25.8127 7.56147 25.5156 7.66697 25.3556C7.72558 25.2757 7.78419 25.0928 7.81936 24.9443C7.90141 24.5215 8.08896 24.1788 8.49923 23.7217C8.63063 23.5823 8.75578 23.4375 8.87434 23.2875L8.75712 22.9105C8.5999 22.401 8.59178 21.8589 8.73367 21.3451C8.88606 20.9109 9.19083 20.4767 9.67143 20.0083C10.1403 19.5627 10.5975 19.2884 10.8436 19.277ZM12.6019 22.9562C12.6167 22.9551 12.6317 22.9561 12.6459 22.959C12.6601 22.962 12.6732 22.9669 12.6842 22.9734C12.6953 22.9798 12.7041 22.9878 12.7102 22.9966C12.7162 23.0055 12.7192 23.0151 12.7192 23.0247C12.712 23.0382 12.6985 23.0498 12.6806 23.0581C12.6628 23.0663 12.6414 23.0708 12.6195 23.0708C12.5976 23.0708 12.5762 23.0663 12.5584 23.0581C12.5405 23.0498 12.5271 23.0382 12.5199 23.0247C12.5193 23.0089 12.5271 22.9934 12.5421 22.9809C12.557 22.9684 12.5782 22.9597 12.6019 22.9562ZM12.895 22.9905C12.9098 22.9894 12.9248 22.9904 12.939 22.9933C12.9531 22.9963 12.9662 23.0012 12.9773 23.0076C12.9884 23.0141 12.9972 23.022 13.0032 23.0309C13.0092 23.0398 13.0123 23.0493 13.0122 23.059C13.005 23.0725 12.9915 23.0841 12.9737 23.0924C12.9558 23.1006 12.9345 23.105 12.9126 23.105C12.8907 23.105 12.8693 23.1006 12.8514 23.0924C12.8336 23.0841 12.8201 23.0725 12.8129 23.059C12.8123 23.0432 12.8202 23.0277 12.8351 23.0152C12.8501 23.0027 12.8712 22.994 12.895 22.9905ZM13.1998 23.0476C13.2146 23.0465 13.2296 23.0475 13.2437 23.0504C13.2579 23.0534 13.271 23.0583 13.2821 23.0648C13.2931 23.0712 13.302 23.0792 13.308 23.088C13.314 23.0969 13.3171 23.1065 13.317 23.1161C13.3098 23.1296 13.2963 23.1412 13.2785 23.1495C13.2606 23.1577 13.2392 23.1622 13.2173 23.1622C13.1954 23.1622 13.1741 23.1577 13.1562 23.1495C13.1384 23.1412 13.1249 23.1296 13.1177 23.1161C13.1171 23.1003 13.1249 23.0848 13.1399 23.0723C13.1548 23.0599 13.176 23.0511 13.1998 23.0476ZM13.4811 23.1047C13.4959 23.1036 13.5109 23.1046 13.5251 23.1076C13.5392 23.1105 13.5523 23.1154 13.5634 23.1219C13.5745 23.1284 13.5833 23.1363 13.5893 23.1452C13.5953 23.154 13.5984 23.1636 13.5983 23.1733C13.5911 23.1867 13.5776 23.1984 13.5598 23.2066C13.5419 23.2149 13.5206 23.2193 13.4987 23.2193C13.4768 23.2193 13.4554 23.2149 13.4375 23.2066C13.4197 23.1984 13.4062 23.1867 13.399 23.1733C13.3984 23.1575 13.4063 23.142 13.4212 23.1295C13.4362 23.117 13.4573 23.1082 13.4811 23.1047ZM12.7426 23.1733C12.7574 23.1722 12.7724 23.1732 12.7866 23.1761C12.8008 23.1791 12.8138 23.184 12.8249 23.1905C12.836 23.1969 12.8448 23.2049 12.8508 23.2137C12.8568 23.2226 12.8599 23.2322 12.8598 23.2418C12.8526 23.2553 12.8392 23.2669 12.8213 23.2752C12.8034 23.2834 12.7821 23.2879 12.7602 23.2879C12.7383 23.2879 12.7169 23.2834 12.6991 23.2752C12.6812 23.2669 12.6677 23.2553 12.6605 23.2418C12.6599 23.226 12.6678 23.2105 12.6827 23.198C12.6977 23.1855 12.7188 23.1768 12.7426 23.1733ZM13.0239 23.219C13.0387 23.2179 13.0537 23.2189 13.0679 23.2218C13.0821 23.2248 13.0951 23.2297 13.1062 23.2362C13.1173 23.2426 13.1261 23.2506 13.1322 23.2594C13.1382 23.2683 13.1412 23.2779 13.1411 23.2875C13.1339 23.301 13.1205 23.3126 13.1026 23.3209C13.0848 23.3291 13.0634 23.3336 13.0415 23.3336C13.0196 23.3336 12.9982 23.3291 12.9804 23.3209C12.9625 23.3126 12.9491 23.301 12.9419 23.2875C12.9413 23.2717 12.9491 23.2562 12.9641 23.2437C12.979 23.2312 13.0002 23.2225 13.0239 23.219ZM13.6335 23.2418C13.6483 23.2408 13.6633 23.2417 13.6774 23.2447C13.6916 23.2477 13.7047 23.2525 13.7158 23.259C13.7268 23.2655 13.7357 23.2734 13.7417 23.2823C13.7477 23.2911 13.7508 23.3007 13.7507 23.3104C13.7435 23.3238 13.73 23.3355 13.7122 23.3437C13.6943 23.352 13.673 23.3564 13.6511 23.3564C13.6291 23.3564 13.6078 23.352 13.5899 23.3437C13.5721 23.3355 13.5586 23.3238 13.5514 23.3104C13.5508 23.2946 13.5586 23.2791 13.5736 23.2666C13.5886 23.2541 13.6097 23.2453 13.6335 23.2418ZM13.317 23.2418C13.3318 23.2408 13.3468 23.2417 13.361 23.2447C13.3751 23.2477 13.3882 23.2525 13.3993 23.259C13.4103 23.2655 13.4192 23.2734 13.4252 23.2823C13.4312 23.2911 13.4343 23.3007 13.4342 23.3104C13.427 23.3238 13.4135 23.3355 13.3957 23.3437C13.3778 23.352 13.3565 23.3564 13.3346 23.3564C13.3127 23.3564 13.2913 23.352 13.2734 23.3437C13.2556 23.3355 13.2421 23.3238 13.2349 23.3104C13.2343 23.2946 13.2422 23.2791 13.2571 23.2666C13.2721 23.2541 13.2932 23.2453 13.317 23.2418ZM13.9031 23.3104C13.9148 23.3104 14.3368 23.4018 14.8408 23.5389L15.7669 23.8017L15.591 24.1102C15.4928 24.2754 15.399 24.443 15.3097 24.613C15.1925 24.8415 15.1691 24.8415 14.6064 24.7158C13.9969 24.5787 13.0356 24.453 12.051 24.373L11.1132 24.293L11.4649 24.1673C11.6772 24.0877 11.8847 23.9961 12.0862 23.8931C12.3206 23.7674 12.4144 23.7446 12.7778 23.7789C13.3053 23.8131 13.6569 23.7103 13.7976 23.5046L13.9148 23.3104H13.9031ZM12.8715 23.3789C12.8863 23.3779 12.9013 23.3788 12.9155 23.3818C12.9297 23.3848 12.9428 23.3896 12.9538 23.3961C12.9649 23.4026 12.9737 23.4105 12.9798 23.4194C12.9858 23.4282 12.9889 23.4378 12.9888 23.4475C12.9816 23.4609 12.9681 23.4726 12.9502 23.4808C12.9324 23.4891 12.911 23.4935 12.8891 23.4935C12.8672 23.4935 12.8459 23.4891 12.828 23.4808C12.8101 23.4726 12.7967 23.4609 12.7895 23.4475C12.7889 23.4317 12.7967 23.4162 12.8117 23.4037C12.8266 23.3912 12.8478 23.3825 12.8715 23.3789ZM13.528 23.3789C13.5428 23.3779 13.5578 23.3788 13.572 23.3818C13.5861 23.3848 13.5992 23.3896 13.6103 23.3961C13.6213 23.4026 13.6302 23.4105 13.6362 23.4194C13.6422 23.4282 13.6453 23.4378 13.6452 23.4475C13.6363 23.4587 13.6229 23.4681 13.6063 23.4746C13.5898 23.4812 13.5708 23.4847 13.5514 23.4847C13.532 23.4847 13.513 23.4812 13.4965 23.4746C13.48 23.4681 13.4665 23.4587 13.4576 23.4475C13.457 23.4317 13.4649 23.4162 13.4798 23.4037C13.4948 23.3912 13.5159 23.3825 13.5397 23.3789H13.528ZM12.5902 23.3789C12.605 23.3779 12.62 23.3788 12.6342 23.3818C12.6484 23.3848 12.6614 23.3896 12.6725 23.3961C12.6836 23.4026 12.6924 23.4105 12.6984 23.4194C12.7045 23.4282 12.7075 23.4378 12.7074 23.4475C12.7002 23.4609 12.6868 23.4726 12.6689 23.4808C12.6511 23.4891 12.6297 23.4935 12.6078 23.4935C12.5859 23.4935 12.5645 23.4891 12.5467 23.4808C12.5288 23.4726 12.5154 23.4609 12.5082 23.4475C12.5113 23.4337 12.5208 23.4208 12.5354 23.4106C12.5501 23.4004 12.5692 23.3933 12.5902 23.3904V23.3789ZM13.2115 23.4018C13.2386 23.3996 13.266 23.4043 13.2878 23.415C13.3097 23.4256 13.3244 23.4414 13.3287 23.4589C13.3215 23.4724 13.308 23.484 13.2902 23.4923C13.2723 23.5005 13.251 23.505 13.2291 23.505C13.2072 23.505 13.1858 23.5005 13.1679 23.4923C13.1501 23.484 13.1366 23.4724 13.1294 23.4589C13.1325 23.4451 13.142 23.4322 13.1567 23.422C13.1714 23.4118 13.1905 23.4048 13.2115 23.4018ZM12.4378 23.5275C12.4526 23.5264 12.4676 23.5274 12.4818 23.5303C12.496 23.5333 12.5091 23.5382 12.5201 23.5447C12.5312 23.5511 12.54 23.5591 12.5461 23.5679C12.5521 23.5768 12.5551 23.5864 12.555 23.596C12.5478 23.6095 12.5344 23.6211 12.5165 23.6294C12.4987 23.6376 12.4773 23.6421 12.4554 23.6421C12.4335 23.6421 12.4121 23.6376 12.3943 23.6294C12.3764 23.6211 12.363 23.6095 12.3558 23.596C12.3552 23.5802 12.363 23.5647 12.378 23.5522C12.3929 23.5397 12.4141 23.531 12.4378 23.5275ZM12.7309 23.5275C12.7473 23.5261 12.764 23.5273 12.7795 23.5309C12.7951 23.5345 12.8092 23.5404 12.8206 23.5482C12.832 23.556 12.8405 23.5654 12.8452 23.5757C12.85 23.586 12.851 23.5969 12.8481 23.6075C12.8409 23.6209 12.8274 23.6326 12.8096 23.6408C12.7917 23.6491 12.7704 23.6535 12.7485 23.6535C12.7266 23.6535 12.7052 23.6491 12.6873 23.6408C12.6695 23.6326 12.656 23.6209 12.6488 23.6075C12.6482 23.5916 12.6561 23.5762 12.671 23.5637C12.686 23.5512 12.7071 23.5424 12.7309 23.5389V23.5275ZM13.0356 23.5503C13.0628 23.5481 13.0901 23.5529 13.112 23.5635C13.1339 23.5742 13.1485 23.5899 13.1529 23.6075C13.1457 23.6209 13.1322 23.6326 13.1144 23.6408C13.0965 23.6491 13.0751 23.6535 13.0532 23.6535C13.0313 23.6535 13.01 23.6491 12.9921 23.6408C12.9743 23.6326 12.9608 23.6209 12.9536 23.6075C12.9567 23.5936 12.9662 23.5808 12.9809 23.5706C12.9955 23.5603 13.0146 23.5533 13.0356 23.5503ZM13.3639 23.5503C13.3787 23.5493 13.3937 23.5502 13.4078 23.5532C13.422 23.5562 13.4351 23.561 13.4462 23.5675C13.4572 23.574 13.4661 23.5819 13.4721 23.5908C13.4781 23.5996 13.4812 23.6092 13.4811 23.6189C13.4739 23.6323 13.4604 23.644 13.4426 23.6522C13.4247 23.6605 13.4034 23.6649 13.3814 23.6649C13.3595 23.6649 13.3382 23.6605 13.3203 23.6522C13.3025 23.644 13.289 23.6323 13.2818 23.6189C13.2812 23.6031 13.289 23.5876 13.304 23.5751C13.319 23.5626 13.3401 23.5538 13.3639 23.5503ZM10.9843 24.4758C12.368 24.5116 13.7454 24.6723 15.0987 24.9557C15.1104 24.9672 15.0284 25.2414 14.8994 25.5727L14.665 26.2583C14.6533 26.3154 14.5712 26.3154 14.372 26.2926C13.399 26.144 10.5857 26.1555 9.50733 26.3154C8.88606 26.4068 8.80401 26.3954 8.85089 26.2697L8.96811 25.8698L9.03845 25.5613L9.67143 25.2414C10.0934 25.0315 10.4937 24.7828 10.8671 24.4987H10.9726L10.9843 24.4758ZM7.81936 26.0983C7.85452 26.0983 7.92486 26.1326 8.00691 26.1897C8.12413 26.2583 8.26479 26.3154 8.3234 26.3154C8.62818 26.3154 8.79228 26.7382 9.05017 28.1436L9.14394 28.6463C9.16739 28.7606 9.14394 28.7834 8.87434 28.8406C8.54612 28.9091 8.46407 28.9206 8.46407 28.8749C8.46407 28.7606 8.13585 27.3095 7.99519 26.7953C7.92517 26.5688 7.86262 26.3402 7.80764 26.1098C7.80942 26.1088 7.81144 26.1082 7.8135 26.1082C7.81556 26.1082 7.81758 26.1088 7.81936 26.1098V26.0983ZM11.1719 26.3269H11.5118L11.3946 26.4411C11.1953 26.6696 11.1015 26.6811 10.9609 26.5325C10.9115 26.4828 10.8717 26.4247 10.8436 26.3611C10.8436 26.3383 10.996 26.3154 11.1719 26.3154V26.3269ZM11.8869 26.3269H12.5199L12.3792 26.464C12.2151 26.6468 12.2034 26.6468 12.0276 26.464L11.8869 26.3154V26.3269ZM12.8481 26.3269H13.0005C13.0825 26.3269 13.2349 26.3269 13.3287 26.3497L13.5045 26.384L13.3404 26.5325C13.2466 26.6125 13.1646 26.6811 13.1529 26.6696L12.9888 26.4868L12.8481 26.3154V26.3269ZM13.8445 26.3611L13.9851 26.3954C14.0672 26.4183 14.243 26.4297 14.372 26.4411H14.6064L14.4306 26.5897C14.3669 26.6476 14.296 26.6975 14.2196 26.7382C14.2078 26.7382 14.1024 26.6468 14.0203 26.5439L13.8445 26.3611ZM10.3044 26.3726H10.3279C10.3396 26.3954 10.2927 26.4868 10.2106 26.5668L10.0934 26.7268L9.9176 26.5897L9.74177 26.4411L10.0231 26.4068L10.3044 26.3726ZM10.574 26.3954L10.7616 26.5554L10.9491 26.7268L10.5975 26.7496L10.2458 26.761L10.4099 26.5897L10.574 26.3954ZM12.684 26.3954C12.7192 26.3954 12.7426 26.4068 12.7778 26.4297C12.8391 26.4859 12.8905 26.5515 12.9302 26.6239C12.977 26.7153 12.9653 26.7382 12.8129 26.7382L12.5199 26.6811L12.3792 26.6468L12.5316 26.4982C12.6019 26.4297 12.6488 26.384 12.6957 26.384L12.684 26.3954ZM11.7111 26.3954C11.7697 26.3954 11.8283 26.4297 11.8986 26.5439C11.9807 26.6696 11.9807 26.6696 11.6642 26.6696H11.3477L11.5118 26.5211C11.5938 26.4411 11.6642 26.4068 11.7111 26.4068V26.3954ZM13.7038 26.4183L13.8445 26.5554C14.0086 26.7039 14.032 26.7953 13.9148 26.7839L13.5866 26.7496L13.3287 26.7268L13.5162 26.5782L13.7038 26.4183ZM9.57766 26.4982C9.6011 26.4982 9.69488 26.5554 9.76521 26.6354L9.90587 26.7839L9.61282 26.8296L9.20255 26.8867C9.1205 26.9096 9.14394 26.8524 9.31977 26.7039C9.43699 26.5897 9.55421 26.4982 9.57766 26.4982ZM9.14394 26.4982H9.19083C9.28461 26.5211 9.28461 26.5439 9.1205 26.7039L8.94467 26.8753L8.88606 26.7268C8.83917 26.6125 8.85089 26.5782 8.95639 26.5325C9.01645 26.5108 9.07988 26.4992 9.14394 26.4982ZM14.5361 26.7039C14.5595 26.7039 14.5595 26.7268 14.5361 26.7725C14.5126 26.8639 14.4071 26.8867 14.4071 26.7953C14.4071 26.7725 14.4423 26.7382 14.4892 26.7153H14.5243L14.5361 26.7039ZM12.0276 26.8867C12.9301 26.8867 13.8445 26.9096 14.0672 26.9324C14.4306 26.9781 14.4657 26.9896 14.4657 27.1267C14.4657 27.2866 14.4188 27.2981 13.9265 27.2181C13.7859 27.1838 13.188 27.1381 12.6137 27.0924C11.4989 27.0267 10.3802 27.065 9.27289 27.2067C9.05017 27.2295 8.99156 27.2067 8.99156 27.1381C8.99156 26.9896 10.1872 26.8867 12.0276 26.8867ZM10.8202 27.2181H11.4532L11.3125 27.3666C11.1367 27.5494 11.125 27.5494 10.9609 27.3666L10.8202 27.2181ZM11.6407 27.2181L11.8048 27.378L11.9689 27.5609L11.629 27.5723H11.2891L11.4649 27.3895L11.629 27.2181H11.6407ZM11.8869 27.2181H12.5199L12.3792 27.3666C12.2151 27.5494 12.2034 27.5494 12.0276 27.3666L11.8869 27.2181ZM10.3865 27.2181C10.4099 27.2181 10.3865 27.2752 10.3044 27.3895C10.2224 27.4923 10.1403 27.5723 10.1286 27.5723C10.1051 27.5723 10.0231 27.5037 9.95276 27.4237L9.8121 27.2752H10.0231C10.1304 27.2757 10.2371 27.2603 10.3396 27.2295C10.3551 27.2264 10.371 27.2264 10.3865 27.2295V27.2181ZM10.6209 27.2752L10.7733 27.4123L10.9491 27.5609L10.6444 27.5837L10.3044 27.6066L10.4685 27.4352L10.6209 27.2752ZM12.6605 27.2752L12.8247 27.458C13.0122 27.6523 13.0005 27.6637 12.5785 27.5837L12.3792 27.5494L12.5199 27.4123L12.6605 27.2752ZM12.895 27.2752H13.1763C13.4811 27.2752 13.5162 27.3209 13.3404 27.4809C13.1998 27.5951 13.1998 27.5951 13.0356 27.4237L12.895 27.2752ZM9.30805 27.3323C9.44872 27.3323 9.43699 27.3438 9.26116 27.5152C9.13222 27.6408 9.1205 27.6408 9.07361 27.5494C9.03845 27.4352 9.14394 27.3438 9.30805 27.3323ZM13.8562 27.3552C13.9031 27.3552 13.9969 27.3552 14.0906 27.378L14.3602 27.4237L14.2078 27.5609L14.0672 27.698L13.9382 27.538L13.821 27.3552H13.8562ZM9.63627 27.4123C9.67143 27.4123 9.7066 27.4352 9.76521 27.4923C9.88243 27.6066 9.88243 27.6066 9.78865 27.6523C9.69782 27.6814 9.60294 27.6968 9.50733 27.698H9.31977L9.47216 27.538C9.55421 27.458 9.58938 27.4237 9.62455 27.4123H9.63627ZM13.6335 27.4466C13.6804 27.4466 13.7155 27.4695 13.7741 27.5609L13.8796 27.698H13.6335C13.4694 27.698 13.399 27.6751 13.399 27.6294C13.4225 27.5837 13.4811 27.5152 13.5514 27.4809L13.6335 27.4466ZM14.3837 27.5951C14.4071 27.5951 14.4071 27.618 14.4071 27.6523C14.4071 27.7665 14.3016 27.8465 14.2547 27.7665C14.243 27.7323 14.2665 27.6751 14.3133 27.6408L14.3837 27.5951ZM11.3477 27.7323C12.3675 27.7323 13.4928 27.8008 14.161 27.9151L14.3485 27.9493V28.4521C14.3485 28.8291 14.3251 28.9548 14.2665 28.9548L13.6804 28.8406C12.3249 28.6166 10.944 28.5781 9.57766 28.7263L9.30805 28.7606L9.23772 28.3378C9.20859 28.1948 9.19289 28.0495 9.19083 27.9036C9.19083 27.9036 9.46044 27.8465 9.77693 27.8122C10.1638 27.7551 10.7381 27.7323 11.3477 27.7323Z" fill="black"/>
<path d="M13.399 24.8759C13.0474 24.8759 12.8012 25.1158 12.8012 25.47C12.8012 26.0185 13.4342 26.2927 13.8093 25.9042C14.1844 25.5157 13.9265 24.8759 13.399 24.8759ZM13.399 25.013C13.4606 25.013 13.5216 25.0248 13.5785 25.0478C13.6354 25.0707 13.687 25.1044 13.7306 25.1468C13.7741 25.1893 13.8087 25.2397 13.8322 25.2951C13.8558 25.3506 13.8679 25.41 13.8679 25.47C13.8679 25.8128 13.4811 26.0413 13.1646 25.8928C12.8481 25.7214 12.8715 25.1958 13.2115 25.0587C13.2668 25.0332 13.3263 25.0177 13.3873 25.013H13.399Z" fill="black"/>
<path d="M9.08538 16.5919C9.03644 16.5948 8.99026 16.6162 8.95566 16.6521C8.92106 16.6879 8.90047 16.7356 8.89783 16.7862C8.89783 16.8423 8.91944 16.8962 8.95791 16.9359C8.99638 16.9756 9.04856 16.9979 9.10296 16.9979C9.15737 16.9979 9.20954 16.9756 9.24801 16.9359C9.28648 16.8962 9.3081 16.8423 9.3081 16.7862C9.30677 16.758 9.29983 16.7303 9.28772 16.705C9.2756 16.6797 9.25857 16.6573 9.23768 16.639C9.21678 16.6208 9.19248 16.6072 9.16628 16.5991C9.14008 16.591 9.11254 16.5886 9.08538 16.5919ZM9.0971 16.6605C9.13441 16.6605 9.17019 16.6737 9.19657 16.6973C9.22294 16.7209 9.23777 16.7528 9.23777 16.7862C9.23777 16.8195 9.22294 16.8515 9.19657 16.875C9.17019 16.8986 9.13441 16.9118 9.0971 16.9118C9.05979 16.9118 9.02402 16.8986 8.99764 16.875C8.97126 16.8515 8.95644 16.8195 8.95644 16.7862C8.95644 16.7696 8.96008 16.7533 8.96714 16.7381C8.97421 16.7228 8.98457 16.709 8.99764 16.6973C9.0107 16.6856 9.0262 16.6764 9.04327 16.67C9.06034 16.6637 9.07863 16.6605 9.0971 16.6605Z" fill="black"/>
</g>
</g>
</g>
<defs>
<clipPath id="clip0_191_23483">
<rect width="48" height="48" fill="white"/>
</clipPath>
<clipPath id="clip1_191_23483">
<rect width="64" height="48" fill="white" transform="translate(-1)"/>
</clipPath>
</defs>
</svg>
