<svg width="48" height="48" viewBox="0 0 48 48" fill="none" xmlns="http://www.w3.org/2000/svg">
<g clip-path="url(#clip0_152_46372)">
<mask id="mask0_152_46372" style="mask-type:alpha" maskUnits="userSpaceOnUse" x="0" y="0" width="48" height="48">
<circle cx="24" cy="24" r="24" fill="#D9D9D9"/>
</mask>
<g mask="url(#mask0_152_46372)">
<circle cx="24" cy="24" r="24" fill="white"/>
<rect width="54" height="40" transform="translate(-3 4)" fill="white"/>
<path d="M-3 4H51V44H-3V4Z" fill="white"/>
<path d="M20 0H28V48H20V0Z" fill="#FF0000"/>
<path d="M-3 20H51V28H-3V20Z" fill="#FF0000"/>
<g style="mix-blend-mode:multiply">
<path fill-rule="evenodd" clip-rule="evenodd" d="M9.38627 35.0917C9.47065 33.6917 9.72377 32.5 9.72377 32.5C9.72377 32.5 8.8969 32.5833 8.47502 32.5833C8.06159 32.5833 7.22627 32.5 7.22627 32.5C7.22627 32.5 7.4794 33.6917 7.56377 35.1C6.13784 35.0167 4.93127 34.7667 4.93127 34.7667C4.93127 34.7667 5.01565 35.3833 5.01565 36C5.01565 36.6167 4.93127 37.2333 4.93127 37.2333C4.93127 37.2333 6.13784 36.9833 7.56377 36.9C7.4794 38.3083 7.22627 39.5 7.22627 39.5C7.22627 39.5 7.85065 39.4167 8.47502 39.4167C9.0994 39.4167 9.72377 39.5 9.72377 39.5C9.72377 39.5 9.47065 38.3083 9.38627 36.9C10.8122 36.9833 12.0188 37.2333 12.0188 37.2333C12.0188 37.2333 11.9344 36.4167 11.9344 36C11.9344 35.5917 12.0188 34.7667 12.0188 34.7667C12.0188 34.7667 10.8122 35.0167 9.39471 35.1L9.38627 35.0917ZM40.4363 11.0917C40.5206 9.69167 40.7738 8.5 40.7738 8.5C40.7738 8.5 39.9469 8.58333 39.525 8.58333C39.1116 8.58333 38.2763 8.5 38.2763 8.5C38.2763 8.5 38.5294 9.69167 38.6138 11.0917C37.1878 11.0083 35.9813 10.7667 35.9813 10.7667C35.9813 10.7667 36.0656 11.3833 36.0656 12C36.0656 12.6167 35.9813 13.2333 35.9813 13.2333C35.9813 13.2333 37.1878 12.9833 38.6138 12.9C38.5294 14.3083 38.2763 15.5 38.2763 15.5C38.2763 15.5 38.9007 15.4167 39.525 15.4167C40.1494 15.4167 40.7738 15.5 40.7738 15.5C40.7738 15.5 40.5206 14.3083 40.4363 12.9083C41.8622 12.9917 43.0688 13.2417 43.0688 13.2417C43.0688 13.2417 42.9844 12.4083 42.9844 12C42.9844 11.5917 43.0688 10.7667 43.0688 10.7667C43.0688 10.7667 41.8622 11.0167 40.4363 11.1V11.0917ZM9.38627 11.0917C9.47065 9.69167 9.72377 8.5 9.72377 8.5C9.72377 8.5 8.8969 8.58333 8.47502 8.58333C8.06159 8.58333 7.22627 8.5 7.22627 8.5C7.22627 8.5 7.4794 9.69167 7.56377 11.1C6.13784 11.0167 4.93127 10.7667 4.93127 10.7667C4.93127 10.7667 5.01565 11.3833 5.01565 12C5.01565 12.6167 4.93127 13.2333 4.93127 13.2333C4.93127 13.2333 6.13784 12.9833 7.56377 12.9C7.4794 14.3083 7.22627 15.5 7.22627 15.5C7.22627 15.5 7.85065 15.4167 8.47502 15.4167C9.0994 15.4167 9.72377 15.5 9.72377 15.5C9.72377 15.5 9.47065 14.3083 9.38627 12.9C10.8122 12.9833 12.0188 13.2333 12.0188 13.2333C12.0188 13.2333 11.9344 12.4167 11.9344 12C11.9344 11.5917 12.0188 10.7667 12.0188 10.7667C12.0188 10.7667 10.8122 11.0167 9.39471 11.1L9.38627 11.0917ZM40.4363 35.0917C40.5206 33.6917 40.7738 32.5 40.7738 32.5C40.7738 32.5 39.9469 32.5833 39.525 32.5833C39.1116 32.5833 38.2763 32.5 38.2763 32.5C38.2763 32.5 38.5294 33.6917 38.6138 35.1C37.1878 35.0167 35.9813 34.7667 35.9813 34.7667C35.9813 34.7667 36.0656 35.3833 36.0656 36C36.0656 36.6167 35.9813 37.2333 35.9813 37.2333C35.9813 37.2333 37.1878 36.9833 38.6138 36.9C38.5294 38.3083 38.2763 39.5 38.2763 39.5C38.2763 39.5 38.9007 39.4167 39.525 39.4167C40.1494 39.4167 40.7738 39.5 40.7738 39.5C40.7738 39.5 40.5206 38.3083 40.4363 36.9C41.8622 36.9833 43.0688 37.2333 43.0688 37.2333C43.0688 37.2333 42.9844 36.4167 42.9844 36C42.9844 35.5917 43.0688 34.7667 43.0688 34.7667C43.0688 34.7667 41.8622 35.0167 40.4363 35.1V35.0917Z" fill="#FF0000"/>
</g>
</g>
</g>
<defs>
<clipPath id="clip0_152_46372">
<rect width="48" height="48" fill="white"/>
</clipPath>
</defs>
</svg>
