<svg width="48" height="48" viewBox="0 0 48 48" fill="none" xmlns="http://www.w3.org/2000/svg">
<g clip-path="url(#clip0_191_23383)">
<mask id="mask0_191_23383" style="mask-type:alpha" maskUnits="userSpaceOnUse" x="0" y="0" width="48" height="48">
<circle cx="24" cy="24" r="24" fill="#D9D9D9"/>
</mask>
<g mask="url(#mask0_191_23383)">
<g clip-path="url(#clip1_191_23383)">
<path d="M-8 0H56V48H-8V0Z" fill="#D20000"/>
<path d="M-8 0H1.6L24 23.14L46.4 0H56L-8 48H1.6L24 24.86L46.4 48H56L-8 0ZM56 19.2V28.8L-8 19.2V28.8L56 19.2ZM20 0L24 20.57L28 0H20ZM20 48L24 27.43L28 48H20Z" fill="#FFE600"/>
<path d="M24 31.71C28.2582 31.71 31.71 28.2582 31.71 24C31.71 19.7419 28.2582 16.29 24 16.29C19.7419 16.29 16.29 19.7419 16.29 24C16.29 28.2582 19.7419 31.71 24 31.71Z" fill="#FFE600"/>
<path fill-rule="evenodd" clip-rule="evenodd" d="M24.0001 17.1451C20.2141 17.1451 17.1451 20.2141 17.1451 24.0001C17.1451 27.786 20.2141 30.8551 24.0001 30.8551C27.786 30.8551 30.8551 27.786 30.8551 24.0001C30.8551 20.2141 27.786 17.1451 24.0001 17.1451ZM15.4351 24.0001C15.4351 19.2697 19.2697 15.4351 24.0001 15.4351C28.7304 15.4351 32.5651 19.2697 32.5651 24.0001C32.5651 28.7304 28.7304 32.5651 24.0001 32.5651C19.2697 32.5651 15.4351 28.7304 15.4351 24.0001Z" fill="#D20000"/>
</g>
</g>
</g>
<defs>
<clipPath id="clip0_191_23383">
<rect width="48" height="48" fill="white"/>
</clipPath>
<clipPath id="clip1_191_23383">
<rect width="64" height="48" fill="white" transform="translate(-8)"/>
</clipPath>
</defs>
</svg>
