<svg width="48" height="48" viewBox="0 0 48 48" fill="none" xmlns="http://www.w3.org/2000/svg">
<g clip-path="url(#clip0_152_6571)">
<mask id="mask0_152_6571" style="mask-type:alpha" maskUnits="userSpaceOnUse" x="0" y="0" width="48" height="48">
<circle cx="24" cy="24" r="24" fill="#D9D9D9"/>
</mask>
<g mask="url(#mask0_152_6571)">
<g clip-path="url(#clip1_152_6571)">
<path fill-rule="evenodd" clip-rule="evenodd" d="M-6.99683 0H56.9969V48H-6.99683V0Z" fill="#000099"/>
<path fill-rule="evenodd" clip-rule="evenodd" d="M6.29688 0L54.2031 48.0281V0.028125L6.29688 0Z" fill="#FFCC00"/>
<path fill-rule="evenodd" clip-rule="evenodd" d="M42.2406 45.1406L39.625 43.2375L36.9438 45.1313L37.9562 42.0188L35.3125 40.0969H38.5938L39.6063 36.9844L40.6094 40.1063H43.8906L41.2656 42.0469L42.2406 45.1406ZM49.8625 46.1156L46.5812 46.1063L45.5781 42.9844L44.5656 46.0969H41.2844L43.9281 48.0188L42.9156 51.1313L45.5969 49.2375L48.2219 51.1406L47.2375 48.0469L49.8625 46.1156ZM35.275 36.0656L37.9 34.125L34.6188 34.1156L33.6156 31.0031L32.6031 34.1156L29.3219 34.1063L31.9656 36.0281L30.9531 39.15L33.6344 37.2469L36.2594 39.1594L35.275 36.0656ZM29.2469 30.0188L31.8719 28.0875L28.5906 28.0781L27.5875 24.9563L26.5656 28.0688H23.2938L25.9375 29.9906L24.925 33.1031L27.6063 31.2094L30.2219 33.1125L29.2469 30.0188ZM23.275 24.0563L25.9 22.1156H22.6187L21.625 18.9844L20.6125 22.0969H17.3313L19.975 24.0094L18.9625 27.1313L21.6438 25.2281L24.2688 27.1406L23.2844 24.0469L23.275 24.0563ZM17.2375 18.0281L19.8625 16.0969L16.5813 16.0875L15.5781 12.9656L14.5562 16.0781H11.2844L13.9375 18L12.925 21.1125L15.6063 19.2188L18.2219 21.1219L17.2469 18.0281H17.2375ZM11.275 12.0375L13.8906 10.0969H10.6094L9.61563 6.96563L8.59375 10.0875H5.3125L7.975 12L6.95312 15.1125L9.63437 13.2188L12.2406 15.1313L11.275 12.0375ZM5.275 6.03751L7.89062 4.09688H4.60938L3.61563 0.965631L2.59375 4.08751H-0.6875L1.975 6.00001L0.94375 9.12188L3.63438 7.21876L6.24063 9.13126L5.275 6.03751ZM-0.725 0.0375061L1.88125 -1.90312H-1.4L-2.40312 -5.02499L-3.40625 -1.91249H-6.6875L-4.03437 5.72205e-06L-5.04688 3.11251L-2.36562 1.21876L0.240625 3.13126L-0.725 0.0375061Z" fill="white"/>
</g>
</g>
</g>
<defs>
<clipPath id="clip0_152_6571">
<rect width="48" height="48" fill="white"/>
</clipPath>
<clipPath id="clip1_152_6571">
<rect width="64" height="48" fill="white" transform="translate(-7)"/>
</clipPath>
</defs>
</svg>
