<svg width="48" height="48" viewBox="0 0 48 48" fill="none" xmlns="http://www.w3.org/2000/svg">
<g clip-path="url(#clip0_152_46388)">
<mask id="mask0_152_46388" style="mask-type:alpha" maskUnits="userSpaceOnUse" x="0" y="0" width="48" height="48">
<circle cx="24" cy="24" r="24" fill="#D9D9D9"/>
</mask>
<g mask="url(#mask0_152_46388)">
<g clip-path="url(#clip1_152_46388)">
<path d="M-7 0H93V75H-7V0Z" fill="#EE1C25"/>
<path d="M7.00019 31.75L13.7501 11.5L20.5 31.75L2.50024 19.375H25L7.00019 31.75Z" fill="#FFFF00"/>
<path d="M36.2766 11.8881L29.3301 13.4275L33.9637 8.02798L33.5093 15.295L29.6544 8.8615L36.2766 11.8881Z" fill="#FFFF00"/>
<path d="M43.2874 20.773L36.2876 19.4978L42.6526 16.318L39.4154 22.8399L38.3573 15.415L43.2874 20.773Z" fill="#FFFF00"/>
<path d="M42.2657 33.2382L36.3946 29.2189L43.503 28.9116L37.8873 33.5461L39.9495 26.3352L42.2657 33.2382Z" fill="#FFFF00"/>
<path d="M33.4358 41.3814L29.5726 35.4064L36.2481 37.8685L29.2782 39.9743L33.9654 34.1195L33.4358 41.3814Z" fill="#FFFF00"/>
</g>
</g>
</g>
<defs>
<clipPath id="clip0_152_46388">
<rect width="48" height="48" fill="white"/>
</clipPath>
<clipPath id="clip1_152_46388">
<rect width="100" height="75" fill="white" transform="translate(-7)"/>
</clipPath>
</defs>
</svg>
