<svg width="48" height="48" viewBox="0 0 48 48" fill="none" xmlns="http://www.w3.org/2000/svg">
<g clip-path="url(#clip0_154_54476)">
<mask id="mask0_154_54476" style="mask-type:alpha" maskUnits="userSpaceOnUse" x="0" y="0" width="48" height="48">
<circle cx="24" cy="24" r="24" fill="#D9D9D9"/>
</mask>
<g mask="url(#mask0_154_54476)">
<g clip-path="url(#clip1_154_54476)">
<path d="M-8 0H56V48H-8V0Z" fill="#009FCA"/>
<path fill-rule="evenodd" clip-rule="evenodd" d="M51.33 12.27H54.1L51.87 13.79L52.72 16.26L50.49 14.73L48.27 16.26L49.12 13.79L46.89 12.27H49.64L50.49 9.79999L51.33 12.27ZM44.41 31.95H47.17L44.94 33.47L45.79 35.94L43.56 34.41L41.33 35.94L42.19 33.47L39.96 31.95H42.7L43.55 29.48L44.41 31.95ZM51.33 27.49H54.1L51.87 29.01L52.72 31.48L50.49 29.95L48.27 31.48L49.12 29.01L46.89 27.49H49.64L50.49 25.02L51.33 27.49ZM21.58 41.77H24.34L22.1 43.28L22.96 45.74L20.73 44.22L18.5 45.74L19.36 43.28L17.12 41.75H19.88L20.73 39.29L21.58 41.77ZM27.84 34.12H25.08L27.31 32.59L26.46 30.13L28.69 31.65L30.92 30.13L30.06 32.59L32.29 34.12H29.54L28.69 36.58L27.84 34.12ZM35.97 22.87H33.2L35.43 21.35L34.58 18.88L36.81 20.41L39.04 18.88L38.18 21.35L40.41 22.87H37.66L36.81 25.34L35.97 22.87ZM42.8 20.54H40.04L42.28 19.01L41.42 16.55L43.65 18.07L45.88 16.55L45.02 19.01L47.26 20.54H44.5L43.65 23L42.8 20.54ZM35.97 40H33.2L35.43 38.48L34.6 36L36.83 37.52L39.06 36L38.2 38.47L40.43 39.99H37.68L36.83 42.46L35.97 40ZM27.84 41.99H25.08L27.31 40.47L26.46 38L28.69 39.52L30.92 38L30.06 40.46L32.3 42H29.55L28.7 44.47L27.84 41.99Z" fill="#FFF40D"/>
<path d="M-8 0H24V24H-8V0Z" fill="#012169"/>
<path d="M-4.25 0L7.95 9.05L20.1 0H24V3.1L12 12.05L24 20.95V24H20L8 15.05L-3.95 24H-8V21L3.95 12.1L-8 3.2V0H-4.25Z" fill="white"/>
<path d="M13.2 14.05L24 22V24L10.45 14.05H13.2ZM4 15.05L4.3 16.8L-5.3 24H-8L4 15.05ZM24 0V0.15L11.55 9.55L11.65 7.35L21.5 0H24ZM-8 0L3.95 8.8H0.95L-8 2.1V0Z" fill="#C8102E"/>
<path d="M4.05 0V24H12.05V0H4.05ZM-8 8V16H24V8H-8Z" fill="white"/>
<path d="M-8 9.65V14.45H24V9.65H-8ZM5.65 0V24H10.45V0H5.65Z" fill="#C8102E"/>
</g>
</g>
</g>
<defs>
<clipPath id="clip0_154_54476">
<rect width="48" height="48" fill="white"/>
</clipPath>
<clipPath id="clip1_154_54476">
<rect width="64" height="48" fill="white" transform="translate(-8)"/>
</clipPath>
</defs>
</svg>
