<svg width="48" height="48" viewBox="0 0 48 48" fill="none" xmlns="http://www.w3.org/2000/svg">
<g clip-path="url(#clip0_152_6570)">
<mask id="mask0_152_6570" style="mask-type:alpha" maskUnits="userSpaceOnUse" x="0" y="0" width="48" height="48">
<circle cx="24" cy="24" r="24" fill="#D9D9D9"/>
</mask>
<g mask="url(#mask0_152_6570)">
<g clip-path="url(#clip1_152_6570)">
<path d="M-8 0H56V48H-8V0Z" fill="#00267F"/>
<path d="M13.33 0H34.67V48H13.33V0Z" fill="#FFC726"/>
<path d="M23.98 13.55C23.28 15.45 22.58 17.41 21.06 18.92C21.53 18.76 22.36 18.62 22.88 18.64V26.59L20.64 26.92C20.56 26.92 20.54 26.79 20.54 26.62C20.32 24.15 19.74 22.07 19.06 19.92C19.01 19.63 18.16 18.52 18.82 18.72C18.9 18.72 19.77 19.08 19.64 18.91C18.3836 17.6428 16.7602 16.8031 15 16.51C14.85 16.48 14.76 16.56 14.9 16.73C17.14 20.19 19.03 24.28 19.01 29.13C19.89 29.13 22.01 28.61 22.88 28.61V34.22H24L24.25 18.55L23.98 13.55Z" fill="black"/>
<path d="M23.9968 13.5501C24.6968 15.4501 25.3968 17.4101 26.9168 18.9201C26.4468 18.7601 25.6168 18.6201 25.0968 18.6401V26.5901L27.3368 26.9201C27.4168 26.9201 27.4368 26.7901 27.4368 26.6201C27.6568 24.1501 28.2368 22.0701 28.9168 19.9201C28.9668 19.6301 29.8168 18.5201 29.1568 18.7201C29.0768 18.7201 28.2068 19.0801 28.3368 18.9101C29.5932 17.6429 31.2166 16.8032 32.9768 16.5101C33.1268 16.4801 33.2168 16.5601 33.0768 16.7301C30.8368 20.1901 28.9468 24.2801 28.9668 29.1301C28.0868 29.1301 25.9668 28.6101 25.0968 28.6101V34.2201H23.9768L23.7268 18.5501L23.9968 13.5501Z" fill="black"/>
</g>
</g>
</g>
<defs>
<clipPath id="clip0_152_6570">
<rect width="48" height="48" fill="white"/>
</clipPath>
<clipPath id="clip1_152_6570">
<rect width="64" height="48" fill="white" transform="translate(-8)"/>
</clipPath>
</defs>
</svg>
