<svg width="48" height="48" viewBox="0 0 48 48" fill="none" xmlns="http://www.w3.org/2000/svg">
<g clip-path="url(#clip0_154_54466)">
<mask id="mask0_154_54466" style="mask-type:alpha" maskUnits="userSpaceOnUse" x="0" y="0" width="48" height="48">
<circle cx="24" cy="24" r="24" fill="#D9D9D9"/>
</mask>
<g mask="url(#mask0_154_54466)">
<g clip-path="url(#clip1_154_54466)">
<path fill-rule="evenodd" clip-rule="evenodd" d="M-12 0H60V48H-12V0Z" fill="#199D00"/>
<path fill-rule="evenodd" clip-rule="evenodd" d="M6.14066 13.6031C6.06566 14.7281 5.95316 16.6969 6.91879 16.9031C8.07191 17.0156 7.43441 14.9531 7.85629 14.5781C7.93129 14.3906 8.07191 14.3906 8.08129 14.625V16.3781C8.08129 16.9406 8.45629 17.1094 8.73754 17.2219C9.03754 17.2031 9.24379 17.2219 9.35629 17.5031L9.50629 20.5312C9.50629 20.5312 10.2 20.7375 10.2375 18.8344C10.2657 17.7094 10.0125 16.7812 10.1625 16.5656C10.1625 16.35 10.4438 16.3406 10.6313 16.4437C10.9313 16.65 11.0625 16.9125 11.5313 16.8187C12.2438 16.6125 12.675 16.2656 12.6844 15.7219C12.6703 15.1875 12.5592 14.6602 12.3563 14.1656C12.3938 14.0719 12.225 13.8187 12.2625 13.725C12.3844 13.9312 12.5813 13.9125 12.6188 13.725C12.4969 13.3312 12.3094 12.9469 12.0094 12.7875C11.7563 12.5625 11.3813 12.6 11.2594 13.0687C11.1844 13.6031 11.4469 14.2312 11.8313 14.7562C11.9157 14.9531 12.0282 15.2906 11.9813 15.5906C11.775 15.7125 11.5688 15.6562 11.3907 15.4781C11.3907 15.4781 10.8282 15.0562 10.8282 14.9531C10.9782 13.9969 10.8563 13.8844 10.7719 13.6125C10.7157 13.2469 10.5375 13.125 10.3969 12.8812C10.2563 12.7312 10.0688 12.7312 9.97504 12.8812C9.72191 13.3125 9.84379 14.2406 10.0219 14.6625C10.1532 15.0469 10.35 15.2906 10.2563 15.2906C10.1813 15.5062 10.0219 15.45 9.90004 15.1969C9.76284 14.6642 9.69664 14.1157 9.70316 13.5656C9.65629 13.1344 9.60004 12.2156 9.30941 11.9719C9.14066 11.7469 8.88754 11.8594 8.79379 12.0656C8.76903 12.4844 8.77844 12.9046 8.82191 13.3219C9.00941 14.0156 9.07504 14.6344 9.16879 15.3375C9.19691 16.2844 8.62504 15.75 8.65316 15.2719C8.77615 14.6708 8.76655 14.0501 8.62504 13.4531C8.53129 13.2094 8.42816 13.1531 8.19379 13.1906C8.01566 13.1906 7.55629 13.6875 7.42504 14.5312C7.42504 14.5312 7.31254 14.9625 7.26566 15.3469C7.20004 15.7781 6.91879 16.0969 6.71254 15.2906C6.54379 14.7 6.43129 13.2656 6.15004 13.6031H6.14066Z" fill="white"/>
<path fill-rule="evenodd" clip-rule="evenodd" d="M9.28125 18.2063L6.28125 19.65C6.30938 18.9656 7.69688 17.7375 8.65313 17.7281C9.2625 17.7375 9.1125 17.9625 9.27188 18.2063H9.28125Z" fill="white"/>
<path fill-rule="evenodd" clip-rule="evenodd" d="M8.74691 19.1437C7.17191 23.2219 12.45 23.7937 13.0407 19.3125C13.0969 19.125 13.3219 18.9469 13.3594 19.2469C13.2375 23.3062 9.27191 23.5781 8.59691 22.3031C8.43812 21.8644 8.35876 21.4009 8.36254 20.9344C8.26879 20.1375 7.84691 20.4469 7.78129 21.2344C7.71566 21.675 7.73441 21.7969 7.73441 22.2187C7.94066 25.425 13.05 24.0469 13.8844 21.4031C14.325 19.9406 13.8094 18.8625 14.0438 18.8625C14.55 19.4062 15.2625 18.9375 15.4219 18.75C15.4875 18.6562 15.6563 18.5906 15.7688 18.7125C16.1625 18.9937 16.8563 18.8625 17.0063 18.3656C17.0907 17.8687 17.1563 17.3625 17.175 16.8469C16.8469 16.9406 16.6125 17.0062 16.5844 17.1469L16.5188 17.5781C16.4907 17.7187 16.2188 17.7187 16.2 17.5406C16.0782 16.9781 15.5719 16.9125 15.2625 17.775C15.0657 17.9437 14.6907 17.9812 14.6532 17.7281C14.7 17.1469 14.4657 17.0719 13.9969 17.3437L13.5469 13.95C13.7344 13.95 13.9219 14.0906 14.1 13.8656C13.9125 13.2562 13.4907 12.0187 13.2563 11.925C13.1532 11.7937 13.0594 11.8781 12.9094 11.9156C12.6657 11.9906 12.4407 12.1969 12.5157 12.6094C12.7969 14.3719 12.9844 15.7125 13.275 17.4844C13.3219 17.6812 13.1532 17.9531 12.9282 17.925C12.5532 17.6719 12.4594 17.1562 11.8032 17.175C11.3344 17.175 10.8094 17.6906 10.7438 18.1781C10.6594 18.5719 10.6313 18.9937 10.7438 19.3312C11.0719 19.725 11.4657 19.6875 11.8125 19.6031C12.0938 19.4812 12.3282 19.2 12.4313 19.2656C12.4969 19.35 12.4407 20.2875 11.0907 21C10.275 21.375 9.61879 21.45 9.27191 20.7844C9.05629 20.3625 9.29066 18.7781 8.74691 19.1437Z" fill="white"/>
<path fill-rule="evenodd" clip-rule="evenodd" d="M15.4687 15C15.7781 14.8875 17.2781 13.1625 17.2781 13.1625L17.0531 12.975C16.9687 12.9094 16.9781 12.8344 17.0531 12.7687C17.4281 12.5437 17.3062 12.075 17.1187 11.85C16.9914 11.7879 16.8514 11.7565 16.7098 11.7581C16.5682 11.7597 16.4289 11.7944 16.3031 11.8594C16.0406 12.1125 15.9843 12.5156 16.1906 12.7594C16.3874 12.8531 16.5843 13.0594 16.4531 13.1719C15.8343 13.8281 14.1562 14.9625 14.3531 15C14.3906 15.0562 15.4312 15.0562 15.4593 15H15.4687ZM6.37494 21.0937C5.81244 21.9937 5.76557 23.3344 6.07494 23.7375C6.24369 23.925 6.51556 24.0094 6.71244 23.9437C7.06869 23.7937 7.22806 23.0719 7.14369 22.8187C7.02181 22.6312 6.92806 22.6031 6.80619 22.7531C6.56244 23.2594 6.45931 22.9125 6.43119 22.6312C6.40432 22.1549 6.42947 21.6771 6.50619 21.2062C6.57181 20.8125 6.50619 20.925 6.37494 21.0937ZM30.4781 19.6594C29.9343 18.4781 29.1749 17.3156 28.9406 16.875C28.21 15.72 27.4344 14.5942 26.6156 13.5C26.0343 12.8062 27.5718 13.7906 26.4281 12.4031L25.5937 11.7C25.4062 11.5687 24.9562 11.325 24.8812 11.7187C24.8437 12.075 24.8624 12.2625 24.9187 12.5531C24.9656 12.7406 25.2468 13.0687 25.3874 13.2562C27.3094 15.802 28.9975 18.5161 30.4312 21.3656C30.6749 21.2437 30.6187 19.8562 30.4781 19.6594Z" fill="white"/>
<path fill-rule="evenodd" clip-rule="evenodd" d="M28.0875 23.5781C27.975 23.7 28.35 24.2156 28.8375 24.2156C29.6437 24.1219 30.3562 23.6719 31.0125 22.4719C31.2791 22.0727 31.4493 21.6169 31.5093 21.1406C31.5887 18.8648 31.4063 16.5873 30.9656 14.3531C30.9375 14.1656 30.9656 13.9406 30.9843 13.8844C31.0406 13.8187 31.2187 13.8844 31.3125 13.725C31.4531 13.5844 30.9375 12.4125 30.6562 11.9719C30.5625 11.7656 30.5156 11.6344 30.3468 11.9906C30.1432 12.3837 30.0462 12.8233 30.0656 13.2656C30.45 15.9375 30.5718 18.2719 30.8156 20.9437C30.8437 21.2062 30.8062 21.5812 30.6281 21.7312C29.9207 22.5189 29.0549 23.1482 28.0875 23.5781ZM39.0093 23.5687C38.4281 23.9062 38.4281 24.2906 38.8968 24.3C39.7031 24.2063 40.6593 24.1406 41.3156 23.1469C41.5474 22.6788 41.6814 22.1684 41.7093 21.6469C41.8274 19.4061 41.6795 17.1591 41.2687 14.9531C41.25 14.7656 41.1656 14.325 41.1937 14.2687C41.25 14.1375 41.5125 14.2781 41.6062 14.1281C41.7375 13.9875 40.9218 12.9375 40.6312 12.4875C40.5375 12.2812 40.5 12.15 40.3218 12.5062C40.133 12.903 40.074 13.3491 40.1531 13.7812C40.5843 16.6875 40.9031 18.8625 40.9687 21.4312C40.9312 21.675 40.9218 21.8062 40.8093 22.1156C40.5562 22.4344 40.275 22.8469 40.0125 23.0437C39.75 23.2312 39.1875 23.4187 39.0093 23.5687Z" fill="white"/>
<path fill-rule="evenodd" clip-rule="evenodd" d="M39.4406 20.9719C39.4406 20.2875 39.45 19.7063 39.4312 19.1906C39.4252 18.7539 39.3295 18.3232 39.15 17.925C38.9812 17.5406 39.0844 17.2313 39 16.8188C38.925 16.4063 38.9437 15.7875 38.8312 15.3094C38.7937 15.1219 38.7 14.5125 38.7281 14.4469C38.775 14.3156 38.9531 14.4469 39.0469 14.2969C39.1781 14.1563 38.5781 12.6094 38.2781 12.1688C38.175 11.9719 37.9687 12.0375 37.7344 12.3563C37.5 12.5719 37.5844 13.05 37.6781 13.5094C38.25 16.5375 38.6906 19.2844 38.5969 22.1625C38.5594 22.4063 39.4406 21.4313 39.4406 20.9719ZM35.1562 17.2219C34.7906 17.2031 34.0312 16.5 33.8062 16.0969C33.7694 15.9984 33.7537 15.8932 33.7602 15.7882C33.7666 15.6832 33.7951 15.5808 33.8437 15.4875C33.9844 15.3938 34.1906 15.3 34.35 15.3938C34.35 15.3938 34.5094 15.6188 34.4812 15.6469C34.6687 15.7406 34.7625 15.6938 34.7812 15.6094C34.7906 15.4688 34.725 15.3844 34.725 15.2344C34.8094 14.8031 35.2875 14.7375 35.475 15.0094C35.6062 15.1781 35.6625 15.525 35.6719 15.7594C35.6719 15.8813 35.4844 15.7406 35.3625 15.7594C35.2594 15.7969 35.2312 15.9281 35.2219 16.0406C35.2031 16.35 35.1656 16.8469 35.1562 17.2125V17.2219ZM28.425 21.7219C28.5187 20.8031 28.3875 19.1625 28.3781 18.6188C28.328 17.2203 28.2122 15.8251 28.0312 14.4375C27.9187 13.65 28.35 14.5219 28.2937 14.0625C28.1531 13.2844 27.7219 12.75 27.2062 12.0469C27.0469 11.8125 27.0469 11.7656 26.7937 12.1031C26.5125 12.7313 26.7562 13.1719 26.8312 13.6688C27.1969 15.2813 27.4125 16.7625 27.5156 18.2344C27.6236 19.7634 27.6361 21.2976 27.5531 22.8281C27.8344 22.8375 28.2656 22.3875 28.425 21.7219Z" fill="white"/>
<path fill-rule="evenodd" clip-rule="evenodd" d="M40.6874 20.25C40.0406 19.1625 39.0749 18 38.8124 17.5594C37.9431 16.3454 37.03 15.1634 36.0749 14.0157C35.2781 13.1719 36.4499 13.875 35.9249 13.2188C35.4843 12.7407 35.3624 12.5813 34.9781 12.2907C34.7906 12.1688 34.6781 11.9344 34.6031 12.3375C34.5732 12.6867 34.5669 13.0375 34.5843 13.3875C34.5843 13.5469 34.7531 13.8563 34.9031 14.0438C36.8437 16.4344 38.9718 18.8719 40.6781 21.9375C40.9218 21.8157 40.8374 20.4375 40.6781 20.25H40.6874Z" fill="white"/>
<path fill-rule="evenodd" clip-rule="evenodd" d="M11.4937 18.2531C11.4468 18.3375 11.3437 18.4406 11.3812 18.5438C11.4468 18.6375 11.5125 18.6656 11.625 18.6656C11.7281 18.6656 11.8781 18.6938 11.9062 18.6375C11.9625 18.5719 12 18.45 11.9625 18.3281C11.85 18.0469 11.55 18.1594 11.4937 18.2531Z" fill="#1BA400"/>
<path fill-rule="evenodd" clip-rule="evenodd" d="M33.2062 33.9844C34.0687 34.0219 34.6312 34.0313 35.3906 34.1157L36.2906 34.0219C37.2843 33.9282 37.3218 35.4375 37.3218 35.4375C37.3218 36.3282 36.975 36.375 36.5343 36.4688C36.2812 36.5063 36.1593 36.3188 36.0187 36.1313C35.8067 36.1992 35.5809 36.2121 35.3625 36.1688C34.9968 36.15 34.6406 36.15 34.2843 36.1219C33.9093 36.0938 33.7031 36.1688 33.3187 36.1313C33.2437 36.2532 33.1312 36.4219 32.9062 36.375C32.7187 36.3469 32.4844 35.8125 32.55 35.3907C32.6906 35.0907 32.6437 35.1938 32.6437 35.0625C29.1187 34.9688 25.5656 34.8094 22.1156 34.8563C19.4156 34.8657 16.7531 34.9782 14.0812 35.0907C12.6562 35.0719 11.5687 34.8469 10.8187 33.75C10.8937 33.75 14.4562 33.9469 15.4969 33.8813C17.4187 33.8625 19.1812 33.7032 21.1406 33.6469C25.0031 33.7125 28.8375 33.7125 32.7 33.9844C32.325 33.7313 32.325 33.1407 32.8875 32.9907C32.9343 32.9532 32.9625 33.2813 33.0468 33.2719C33.5062 33.2438 33.3 33.8625 33.2062 33.9844ZM17.6812 12.6844C17.1 14.3532 18.0187 16.1907 18.6562 16.0125C19.125 16.2 19.4062 15.3188 19.5937 14.3625C19.7343 14.0907 19.8281 14.0625 19.8937 14.2032C19.875 15.4782 19.9875 15.7688 20.3156 16.1532C21.0468 16.7157 21.6562 16.2282 21.7031 16.1813L22.2656 15.6094C22.3968 15.4688 22.5656 15.4688 22.7437 15.5813C22.9219 15.7407 22.8937 16.0125 23.2687 16.2C23.5875 16.3313 24.2531 16.2375 24.4125 15.9657C24.6187 15.6 24.675 15.4782 24.7687 15.3469C24.9187 15.15 25.1719 15.2344 25.1719 15.3C25.1437 15.4125 24.9937 15.5157 25.0969 15.7219C25.2844 15.8532 25.3219 15.7688 25.425 15.7407C25.8 15.5532 26.0812 14.7469 26.0812 14.7469C26.0906 14.4469 25.9218 14.4657 25.8093 14.5407L25.5187 14.7375C25.3312 14.7657 24.9844 14.8875 24.8062 14.6157C24.6281 14.2969 24.6281 13.8375 24.4968 13.5094C24.4968 13.4907 24.2531 12.9938 24.4781 12.9657C24.5906 12.9844 24.825 13.05 24.8625 12.8532C24.975 12.6563 24.6187 12.1032 24.3656 11.8219C24.15 11.5875 23.85 11.5594 23.5593 11.8032C23.3531 11.9907 23.3812 12.1969 23.3437 12.3938C23.3082 12.5349 23.3066 12.6824 23.3392 12.8242C23.3718 12.966 23.4376 13.098 23.5312 13.2094C23.7375 13.6032 24.1031 14.1188 23.9812 14.85C23.9812 14.85 23.7656 15.1875 23.3906 15.1407C23.2312 15.1125 22.9781 15.0469 22.8468 14.0344C22.7437 13.2844 22.8656 12.2157 22.5468 11.7188C22.425 11.4094 22.3406 11.1188 22.0593 11.6344C21.9843 11.8407 21.6562 12.15 21.8906 12.7782C22.1124 13.3442 22.1772 13.9596 22.0781 14.5594C21.9375 14.7657 21.9093 14.8313 21.7312 15.0282C21.4875 15.3094 21.2156 15.2344 21.0093 15.1313C20.8218 15.0094 20.6718 14.9438 20.5781 14.5219C20.5968 13.8657 20.6343 12.7875 20.5125 12.5625C20.3343 12.2063 20.0437 12.3375 19.9218 12.45C19.3642 13.0696 18.9907 13.8326 18.8437 14.6532C18.675 15.1969 18.4968 15.0375 18.375 14.8219C18.075 14.5407 18.0469 12.3188 17.6812 12.6844Z" fill="white"/>
<path fill-rule="evenodd" clip-rule="evenodd" d="M19.4437 16.3219C19.7156 16.1344 19.5937 16.0032 19.9874 16.3969C20.4957 17.2961 20.7907 18.3 20.8499 19.3313C20.8312 19.575 20.9999 19.725 21.0843 19.6688C21.1218 19.1063 22.4999 18.3188 23.7656 18.2063C23.9531 18.1594 23.8593 17.7938 23.8874 17.6063C23.8124 16.9032 24.2812 16.2657 24.9374 16.2188C25.8374 16.35 26.1374 16.8282 26.1562 17.55C26.0531 18.9563 24.5906 19.1907 23.7749 19.3032C23.6531 19.35 23.5968 19.4063 23.7749 19.4719L27.2062 19.4907L27.3843 19.5844C27.4031 19.6782 27.3281 19.6032 27.1968 19.8282C27.0081 20.1598 26.89 20.5268 26.8499 20.9063C25.8281 21.2438 24.7687 21.375 23.6999 21.5157C23.3249 21.7032 23.1374 21.9563 23.2124 22.2375C23.3437 22.5469 24.1687 22.8657 24.1687 22.875C24.3281 22.9688 24.5062 23.2032 24.1218 23.6813C22.4531 23.6063 21.1499 22.8938 20.6999 21.8907C20.5687 21.7875 20.4187 21.8907 20.3249 22.0219C19.6687 22.8657 19.0312 23.6157 17.9156 24.0282C17.2593 24.1969 16.5749 23.925 16.2562 23.4938C16.0406 23.2407 16.0499 22.9688 15.9749 22.9125C15.6093 23.0719 12.5156 24.3844 12.9093 23.7657C13.6593 22.9688 14.9718 22.3688 16.1156 21.5813C16.1999 21.3094 16.3499 20.4094 16.7999 20.1188C16.8281 20.1188 16.7343 20.6438 16.7437 20.8688C16.7437 21.0563 16.7249 21.1219 16.7624 21.075C16.8468 21.0282 18.2343 19.9313 18.3562 19.5938C18.4874 19.4063 18.3843 18.9188 18.3843 18.9C18.1218 18.225 17.7562 18.1688 17.6249 17.8313C17.5031 17.3907 17.5593 16.8844 17.8124 16.7344C18.0374 16.5375 18.2999 16.5563 18.5531 16.7813C18.8343 17.0344 19.0781 17.5313 19.1531 17.8969C19.1062 18.0375 18.7781 17.8032 18.6843 17.8688C18.8648 18.0761 18.9847 18.3291 19.0312 18.6C19.2187 19.3688 19.1624 19.6688 18.9749 20.1657C18.3562 21.4688 17.5687 21.8532 16.8749 22.3407C16.8562 22.3407 16.8468 22.6688 17.0999 22.8469C17.1937 22.9407 17.5593 22.9875 17.9812 22.8469C18.8825 22.3464 19.6113 21.5849 20.0718 20.6625C20.1515 19.9607 20.0746 19.2499 19.8468 18.5813C19.5749 17.9532 19.2562 17.0625 19.2562 17.0438C19.2468 16.65 19.2749 16.5188 19.4437 16.3219ZM10.4624 12.7032C10.8562 12.8907 11.6062 12.8063 11.5687 12.1688L11.5499 11.8782C11.4749 11.6907 11.2499 11.7375 11.2031 11.925C11.1843 11.9907 11.2312 12.0938 11.1749 12.1219C11.1374 12.1594 11.0156 12.1407 11.0156 11.9625C11.0156 11.9063 10.9781 11.85 10.9499 11.8125C10.9312 11.7938 10.9124 11.7938 10.8656 11.7938C10.8093 11.7938 10.8093 11.8032 10.7812 11.85C10.7718 11.8969 10.7531 11.9438 10.7531 12C10.7531 12.0657 10.7156 12.0844 10.6781 12.0938C10.6218 12.0938 10.6312 12.0938 10.5843 12.075C10.5656 12.0469 10.5374 12.0375 10.5374 11.9813L10.5093 11.8313C10.4906 11.8032 10.4531 11.7844 10.4156 11.775C10.1999 11.775 10.1812 12.0282 10.1999 12.1219C10.1812 12.1407 10.1718 12.5813 10.4624 12.7032Z" fill="white"/>
<path fill-rule="evenodd" clip-rule="evenodd" d="M22.0406 17.5969C22.4344 17.7844 23.3813 17.6812 23.1469 17.0719L23.1281 16.7719C23.0438 16.5844 22.8281 16.6312 22.7813 16.8281C22.7625 16.8844 22.8094 16.9875 22.7438 17.0156C22.7156 17.0531 22.5844 17.0344 22.5938 16.8656C22.5938 16.8094 22.5563 16.7437 22.5281 16.7062C22.5 16.6969 22.4906 16.6875 22.4344 16.6875C22.3875 16.6875 22.3875 16.7062 22.3594 16.7531C22.3406 16.8 22.3313 16.8469 22.3313 16.9031C22.3219 16.9594 22.2938 16.9781 22.2469 16.9969C22.2 16.9969 22.2094 16.9969 22.1719 16.9687C22.1438 16.9406 22.1156 16.9312 22.1156 16.8844L22.0875 16.7344C22.0688 16.7062 22.0313 16.6875 21.9938 16.6781C21.7781 16.6781 21.7594 16.9219 21.7688 17.0156C21.7594 17.0344 21.75 17.4844 22.05 17.5969H22.0406ZM28.7906 15.5719C29.1844 15.7594 29.925 15.675 29.8969 15.0469L29.8781 14.7469C29.7938 14.5594 29.5781 14.6062 29.5313 14.7937C29.5125 14.8594 29.5594 14.9625 29.4938 15C29.4656 15.0281 29.3344 15.0094 29.3438 14.8312C29.3438 14.775 29.3063 14.7187 29.2781 14.6812C29.25 14.6625 29.2406 14.6625 29.1844 14.6625C29.1375 14.6625 29.1375 14.6812 29.1094 14.7281L29.0813 14.8687C29.0719 14.9344 29.0438 14.9625 28.9969 14.9625C28.95 14.9625 28.9594 14.9625 28.9219 14.9437C28.8938 14.9156 28.8656 14.9062 28.8656 14.8594C28.8656 14.8125 28.8563 14.7375 28.8375 14.7C28.8188 14.6719 28.7813 14.6625 28.7438 14.6531C28.5281 14.6531 28.5094 14.8969 28.5188 14.9906C28.5094 15.0094 28.5 15.45 28.8 15.5719H28.7906ZM32.2875 20.6625C31.6031 21.4406 31.9031 22.725 32.0625 23.0062C32.2875 23.4562 32.4656 23.7469 32.9063 23.9719C33.3094 24.2625 33.6281 24.0844 33.7969 23.8781C34.2 23.4562 34.2094 22.3781 34.3969 22.1719C34.5281 21.7781 34.8656 21.8437 35.025 22.0219C35.1741 22.2335 35.374 22.4044 35.6063 22.5187C35.9813 22.8469 36.4313 22.9125 36.8813 22.6125C37.1813 22.4344 37.3781 22.2187 37.5563 21.7781C37.7438 21.2531 37.65 18.8156 37.6031 17.3719L37.2094 15.3562C37.2094 15.3375 37.1625 14.4 37.1156 14.1844C37.1156 14.0906 37.0875 14.0625 37.1813 14.0719C37.2844 14.1656 37.2938 14.1656 37.3688 14.1937C37.4625 14.2125 37.5563 14.0344 37.4906 13.8844L36.5531 12.1406C36.4781 12.0656 36.375 11.9906 36.2531 12.1594C36.1812 12.2245 36.124 12.3041 36.0852 12.393C36.0464 12.4819 36.027 12.578 36.0281 12.675C36.0563 13.0875 36.1219 13.5094 36.15 13.9219L36.525 16.0406C36.6469 17.5406 36.675 18.7781 36.7969 20.2875C36.7781 20.925 36.5813 21.4781 36.3938 21.5625C36.3938 21.5625 36.1125 21.7219 35.925 21.5437C35.7844 21.4875 35.2313 20.6156 35.2313 20.6156C34.95 20.3625 34.7625 20.4281 34.5656 20.6156C34.0031 21.1594 33.7594 22.1531 33.375 22.8469C33.2813 23.0062 33 23.1281 32.7 22.8375C31.9313 21.7781 32.3813 20.2781 32.2875 20.6625ZM28.9688 11.8781C29.325 12.0187 29.5688 12.7406 29.4938 13.0969C29.4188 13.5187 29.2313 13.9875 29.1 13.9312C28.95 13.875 29.1938 13.5 29.0531 13.1062C28.9781 12.8437 28.4906 12.375 28.5469 12.2437C28.4531 11.9531 28.7531 11.8219 28.9688 11.8687V11.8781Z" fill="white"/>
<path fill-rule="evenodd" clip-rule="evenodd" d="M33.4313 21.0938C33.4969 20.2313 33.375 19.7063 33.3563 19.2C33.3375 18.6938 32.7844 14.8313 32.6719 14.4563C32.5313 13.725 33.2063 14.3625 33.1313 13.9313C32.8969 13.4063 32.325 12.6281 32.1469 12.1688C32.0344 11.9813 32.0813 11.7938 31.8375 12.1219C31.6277 12.6972 31.5538 13.3133 31.6219 13.9219C32.2032 16.95 32.7938 19.4625 32.7 22.3406C32.9813 22.3406 33.2907 21.7125 33.4313 21.0938ZM39.4688 13.0969C39.7969 13.2563 39.9844 14.1563 39.9469 14.4094C39.8813 14.8781 39.7125 15.3844 39.5907 15.3188C39.45 15.2625 39.6188 14.625 39.5532 14.4281C39.4782 14.1469 39.0375 13.6406 39.0844 13.4906C38.9907 13.1719 39.2719 13.0406 39.4688 13.0969ZM15.4969 19.4625C15.8063 19.5844 15.9938 20.2406 15.9657 20.4281C15.8907 20.775 15.7313 21.15 15.6094 21.0938C15.4875 21.0563 15.6375 20.5875 15.5813 20.4375C15.5532 20.0906 15.1219 19.9031 15.1313 19.7531C15.0563 19.4719 15.3188 19.425 15.5063 19.4625H15.4969Z" fill="white"/>
<path fill-rule="evenodd" clip-rule="evenodd" d="M22.9594 20.4562C23.3531 20.475 23.55 20.7937 23.1844 20.925C22.8094 21.0469 22.4625 21.15 22.4531 21.675C22.5937 22.425 22.2656 22.1625 22.0781 22.0687C21.8531 21.9 21.2156 21.5062 21.1219 20.6625C21.1125 20.4656 21.2719 20.2875 21.525 20.2875C21.9 20.3906 22.4625 20.4 22.9594 20.4562Z" fill="#1B9D00"/>
<path fill-rule="evenodd" clip-rule="evenodd" d="M7.25622 11.6625C7.70622 11.7937 7.73434 12.4687 7.70621 12.6656C7.64059 13.0219 7.48121 13.4062 7.36871 13.3594C7.23746 13.3125 7.36872 12.825 7.30309 12.675C7.23747 12.4687 6.85309 12.075 6.89059 11.9625C6.80621 11.7281 7.07809 11.6156 7.25622 11.6625ZM16.2468 14.8125C15.8906 15 15.7593 15.5625 15.975 15.9C16.1812 16.1812 16.5 16.0781 16.5375 16.0781C16.8843 16.1156 17.0906 15.4312 17.0906 15.4312C17.0906 15.4312 17.1 15.2437 16.6968 15.6094C16.5187 15.6375 16.5093 15.5719 16.4625 15.4781C16.4195 15.2996 16.436 15.112 16.5093 14.9437C16.575 14.775 16.4437 14.7 16.2468 14.8125ZM18.8718 11.4C18.6843 11.5219 18.3375 11.8875 18.3281 12.3C18.3187 12.5344 18.2718 12.5344 18.4218 12.675C18.5437 12.8437 18.6468 12.8344 18.8718 12.7125C18.9279 12.6772 18.976 12.6306 19.0131 12.5758C19.0503 12.5209 19.0756 12.4589 19.0875 12.3937C19.1437 12.1312 18.8062 12.525 18.7687 12.225C18.6937 11.9437 18.9093 11.8312 19.1156 11.5687C19.1156 11.3812 19.1156 11.2594 18.8625 11.4H18.8718ZM20.9718 11.775C20.8892 12.1164 20.839 12.4648 20.8218 12.8156C20.7656 13.0781 21.1031 13.1906 21.2437 12.8531C21.4687 12.2437 21.4687 11.9812 21.4875 11.7281C21.4218 11.325 21.15 11.3344 20.9718 11.775ZM34.2843 18.5531C34.3218 18.5062 36.1593 17.2031 36.1593 17.2031C36.3468 17.1375 36.3 17.8781 36.2156 17.8687C35.6457 18.4179 34.9903 18.8707 34.275 19.2094C34.1812 19.275 34.0968 18.7125 34.275 18.5531H34.2843ZM35.9437 18.5344C36.2718 18.6937 36.4031 19.6406 36.3656 19.8937C36.3656 20.4 36.0562 20.7937 35.925 20.7375C35.7937 20.6719 35.9437 20.1094 35.8781 19.9125C35.8031 19.6312 35.5312 19.1156 35.5781 18.9656C35.4843 18.6469 35.7468 18.4781 35.9531 18.5344H35.9437ZM25.0687 22.6031C25.2208 22.4256 25.3976 22.2709 25.5937 22.1437C25.7812 22.05 25.95 22.2187 25.9406 22.2094C25.9687 22.3969 25.8281 22.5562 25.875 22.8C25.9125 22.8937 25.9406 23.0062 26.1187 22.9687C26.4093 22.7344 26.6812 22.7156 26.9625 22.7062C27.1968 22.7156 27.2062 23.1 27.0562 23.1C26.5218 23.2125 26.2875 23.3625 25.9031 23.5031C25.7156 23.6156 25.5656 23.475 25.5656 23.4656C25.5656 23.4562 25.4625 23.3625 25.5281 23.1187C25.5468 22.9312 25.4718 22.8187 25.3031 22.8375C25.1906 22.9125 25.0781 22.95 25.0218 22.8094C24.9937 22.7156 24.9843 22.6594 25.0687 22.6031ZM37.875 23.1094C37.95 23.2031 38.0062 23.2969 37.8656 23.4656L37.5187 23.7656C37.4625 23.8594 37.425 24.0281 37.6125 24.075C37.95 24.1687 38.7375 23.6531 38.7375 23.6437C38.8687 23.55 38.8312 23.3625 38.8125 23.3625C38.7375 23.2781 38.5687 23.3344 38.4562 23.3156C38.4 23.3156 38.2218 23.2969 38.3062 23.1281C38.3692 23.0453 38.4197 22.9537 38.4562 22.8562C38.5031 22.7437 38.4562 22.6687 38.2687 22.6031C38.0718 22.5656 37.9875 22.5844 37.7718 22.6031C37.6593 22.6219 37.6218 22.6781 37.5937 22.8187C37.6031 23.0344 37.7343 23.025 37.875 23.1V23.1094Z" fill="white"/>
<path fill-rule="evenodd" clip-rule="evenodd" d="M25.1343 17.7844C25.0875 17.8781 24.9187 17.8781 24.7593 17.7844C24.6 17.6906 24.5062 17.5406 24.5625 17.4563C24.6187 17.3719 24.7781 17.3719 24.9375 17.4563C25.0968 17.5406 25.1812 17.7 25.1343 17.7844ZM16.7906 12.7594C16.6968 12.7875 16.5656 12.7031 16.5093 12.5719C16.4531 12.4406 16.4812 12.3281 16.575 12.3C16.6687 12.2719 16.7906 12.3656 16.8562 12.4875C16.9218 12.6094 16.8843 12.7406 16.7812 12.7688L16.7906 12.7594Z" fill="#259F00"/>
<path fill-rule="evenodd" clip-rule="evenodd" d="M33.3 35.1562C34.1812 35.1938 35.0062 35.1562 35.8781 35.2031C36.0375 35.3438 35.925 35.6719 35.8218 35.6531L35.0906 35.625C35.0812 35.3438 34.3687 35.3906 34.3875 35.6344C34.0031 35.6813 33.6562 35.625 33.2625 35.6062C33.15 35.4656 33.1687 35.2125 33.3 35.1562Z" fill="#209000"/>
</g>
</g>
</g>
<defs>
<clipPath id="clip0_154_54466">
<rect width="48" height="48" fill="white"/>
</clipPath>
<clipPath id="clip1_154_54466">
<rect width="64" height="48" fill="white" transform="translate(-8)"/>
</clipPath>
</defs>
</svg>
