<svg width="48" height="48" viewBox="0 0 48 48" fill="none" xmlns="http://www.w3.org/2000/svg">
<g clip-path="url(#clip0_154_54494)">
<mask id="mask0_154_54494" style="mask-type:alpha" maskUnits="userSpaceOnUse" x="0" y="0" width="48" height="48">
<circle cx="24" cy="24" r="24" fill="#D9D9D9"/>
</mask>
<g mask="url(#mask0_154_54494)">
<g clip-path="url(#clip1_154_54494)">
<path fill-rule="evenodd" clip-rule="evenodd" d="M-2 0H70V48H-2V0Z" fill="white"/>
<path fill-rule="evenodd" clip-rule="evenodd" d="M-2 0H70V24H-2V0Z" fill="#DF0000"/>
<path fill-rule="evenodd" clip-rule="evenodd" d="M14.6 4.02C12.7058 4.42707 11.0093 5.47344 9.79538 6.98342C8.58146 8.4934 7.92399 10.3751 7.93337 12.3125C7.94276 14.2499 8.61841 16.1251 9.84691 17.6233C11.0754 19.1214 12.7819 20.1513 14.68 20.54C13.5926 20.8546 12.4539 20.9515 11.329 20.8251C10.2042 20.6987 9.11534 20.3514 8.12497 19.8033C7.13461 19.2552 6.26219 18.5169 5.55776 17.6309C4.85333 16.7448 4.33075 15.7284 4.01998 14.64C3.40275 12.4521 3.6769 10.1088 4.78251 8.12245C5.88812 6.13611 7.73522 4.66832 9.91997 4.04C11.52 3.58 13 3.57 14.61 4.02H14.6Z" fill="white"/>
<path fill-rule="evenodd" clip-rule="evenodd" d="M13.3 11L13.79 12.5L12.49 11.58L11.21 12.52L11.68 11L10.4 10.07L11.99 10.05L12.49 8.54999L12.99 10.05H14.57L13.3 11ZM15.05 16.2L15.55 17.71L14.25 16.79L12.96 17.72L13.44 16.21L12.16 15.27L13.75 15.26L14.24 13.75L14.74 15.25H16.34L15.05 16.2ZM20.9 16.16L21.39 17.68L20.09 16.75L18.81 17.68L19.28 16.17L18 15.24L19.59 15.22L20.09 13.72L20.59 15.22H22.17L20.9 16.16ZM22.64 11L23.13 12.51L21.83 11.59L20.55 12.52L21.03 11.01L19.74 10.07L21.34 10.06L21.82 8.54999L22.32 10.05H23.92L22.64 11ZM18.01 7.56999L18.51 9.08999L17.21 8.15999L15.92 9.09999L16.4 7.58L15.12 6.64L16.7 6.63L17.2 5.12L17.7 6.61999H19.3L18.01 7.56999Z" fill="white"/>
</g>
</g>
</g>
<defs>
<clipPath id="clip0_154_54494">
<rect width="48" height="48" fill="white"/>
</clipPath>
<clipPath id="clip1_154_54494">
<rect width="64" height="48" fill="white"/>
</clipPath>
</defs>
</svg>
