<svg width="48" height="48" viewBox="0 0 48 48" fill="none" xmlns="http://www.w3.org/2000/svg">
<g clip-path="url(#clip0_29_344)">
<mask id="mask0_29_344" style="mask-type:alpha" maskUnits="userSpaceOnUse" x="0" y="0" width="48" height="48">
<circle cx="24" cy="24" r="24" fill="#D9D9D9"/>
</mask>
<g mask="url(#mask0_29_344)">
<path fill-rule="evenodd" clip-rule="evenodd" d="M-12 0H79.2V3.69375H-12V0ZM-12 7.3875H79.2V11.0812H-12V7.3875ZM-12 14.7656H79.2V18.4688H-12V14.7656ZM-12 22.1531H79.2V25.8469H-12V22.1531ZM-12 29.5406H79.2V33.2344H-12V29.5406ZM-12 36.9187H79.2V40.6125H-12V36.9187ZM-12 44.3063H79.2V48H-12V44.3063Z" fill="#BD3D44"/>
<path fill-rule="evenodd" clip-rule="evenodd" d="M-12 3.69391H79.2V7.38766H-12V3.69391ZM-12 11.0814H79.2V14.7658H-12V11.0814ZM-12 18.4595H79.2V22.1533H-12V18.4595ZM-12 25.847H79.2V29.5408H-12V25.847ZM-12 33.2345H79.2V36.9283H-12V33.2345ZM-12 40.6127H79.2V44.3064H-12V40.6127Z" fill="white"/>
<path fill-rule="evenodd" clip-rule="evenodd" d="M-12 0H24.4781V25.8469H-12V0Z" fill="#192F5D"/>
<path fill-rule="evenodd" clip-rule="evenodd" d="M-8.96265 1.10591L-8.62515 2.12779H-7.5564L-8.4189 2.75591L-8.09077 3.78716L-8.96265 3.14966L-9.82515 3.77779L-9.49702 2.75591L-10.3689 2.12779H-9.2814L-8.96265 1.10591ZM-2.87827 1.10591L-2.55015 2.12779H-1.47202L-2.3439 2.75591L-2.01577 3.78716L-2.87827 3.14966L-3.75015 3.77779L-3.42202 2.75591L-4.28452 2.12779H-3.21577L-2.87827 1.10591ZM3.19673 1.10591L3.53423 2.12779H4.59361L3.73111 2.75591L4.05923 3.78716L3.18736 3.14966L2.32486 3.77779L2.65298 2.75591L1.78111 2.12779H2.85923L3.19673 1.10591ZM9.28111 1.10591L9.60923 2.12779H10.6874L9.81548 2.75591L10.153 3.78716L9.28111 3.14966L8.40923 3.77779L8.74673 2.75591L7.87486 2.12779H8.94361L9.28111 1.10591ZM15.3561 1.10591L15.6936 2.12779H16.7624L15.8999 2.75591L16.228 3.78716L15.3561 3.14966L14.4936 3.77779L14.8217 2.75591L13.9592 2.12779H15.028L15.3561 1.10591ZM21.4405 1.10591L21.7686 2.12779H22.8467L21.9749 2.75591L22.3124 3.78716L21.4405 3.14966L20.5686 3.77779L20.9061 2.75591L20.0342 2.12779H21.1124L21.4405 1.10591ZM-5.91577 3.69341L-5.58765 4.71529H-4.50952L-5.3814 5.34341L-5.06265 6.36529L-5.9064 5.73716L-6.77827 6.36529L-6.4689 5.34341L-7.31265 4.71529H-6.2439L-5.91577 3.69341ZM0.159229 3.69341L0.49673 4.71529H1.56548L0.693604 5.34341L1.0311 6.36529L0.159229 5.73716L-0.712646 6.36529L-0.375146 5.34341L-1.24702 4.71529H-0.168896L0.159229 3.69341ZM6.24361 3.69341L6.57173 4.71529H7.64986L6.77798 5.34341L7.10611 6.36529L6.24361 5.73716L5.37173 6.36529L5.69986 5.34341L4.83736 4.71529H5.90611L6.24361 3.69341ZM12.3186 3.69341L12.6561 4.71529H13.7249L12.853 5.34341L13.1905 6.36529L12.3186 5.73716L11.4561 6.36529L11.7842 5.34341L10.9124 4.71529H11.9999L12.3186 3.69341ZM18.403 3.69341L18.7311 4.71529H19.8092L18.9374 5.34341L19.2655 6.36529L18.403 5.73716L17.5311 6.36529L17.8592 5.34341L16.9967 4.71529H18.0655L18.403 3.69341ZM-8.96265 6.27154L-8.62515 7.31216H-7.5564L-8.4189 7.94028L-8.09077 8.96216L-8.96265 8.32466L-9.82515 8.96216L-9.49702 7.93091L-10.3689 7.30278H-9.2814L-8.96265 6.27154ZM-2.87827 6.27154L-2.55015 7.30278H-1.47202L-2.3439 7.93091L-2.01577 8.95278L-2.87827 8.31528L-3.75015 8.95278L-3.42202 7.92154L-4.28452 7.29341H-3.21577L-2.87827 6.27154ZM3.19673 6.27154L3.53423 7.30278H4.59361L3.73111 7.93091L4.05923 8.95278L3.18736 8.31528L2.32486 8.95278L2.65298 7.92154L1.78111 7.29341H2.85923L3.19673 6.27154ZM9.28111 6.27154L9.60923 7.30278H10.6874L9.81548 7.93091L10.153 8.95278L9.28111 8.31528L8.40923 8.95278L8.74673 7.92154L7.87486 7.29341H8.94361L9.28111 6.27154ZM15.3561 6.27154L15.6936 7.30278H16.7624L15.8999 7.93091L16.228 8.95278L15.3561 8.31528L14.4936 8.95278L14.8217 7.92154L13.9592 7.29341H15.028L15.3561 6.27154ZM21.4405 6.27154L21.7686 7.30278H22.8467L21.9749 7.93091L22.3124 8.95278L21.4405 8.31528L20.5686 8.95278L20.9061 7.92154L20.0342 7.29341H21.1124L21.4405 6.27154ZM-5.91577 8.85903L-5.58765 9.88091H-4.50952L-5.3814 10.509L-5.05327 11.5403L-5.91577 10.9028L-6.78765 11.5309L-6.45952 10.509L-7.32202 9.88091H-6.25327L-5.91577 8.85903ZM0.159229 8.85903L0.49673 9.88091H1.56548L0.693604 10.509L1.0311 11.5403L0.159229 10.9028L-0.712646 11.5309L-0.375146 10.509L-1.24702 9.88091H-0.168896L0.159229 8.85903ZM6.24361 8.85903L6.57173 9.88091H7.64986L6.77798 10.509L7.10611 11.5403L6.24361 10.9028L5.37173 11.5309L5.69986 10.509L4.83736 9.88091H5.90611L6.24361 8.85903ZM12.3186 8.85903L12.6561 9.88091H13.7249L12.8624 10.509L13.1905 11.5403L12.3186 10.9028L11.4561 11.5309L11.7842 10.509L10.9124 9.88091H11.9999L12.3186 8.85903ZM18.403 8.85903L18.7311 9.88091H19.8092L18.9374 10.509L19.2655 11.5403L18.403 10.9028L17.5311 11.5309L17.8592 10.509L16.9967 9.88091H18.0655L18.403 8.85903ZM-8.96265 11.4465L-8.62515 12.4684H-7.5564L-8.4189 13.0965L-8.09077 14.1278L-8.96265 13.4903L-9.82515 14.1184L-9.49702 13.0965L-10.3689 12.4684H-9.2814L-8.96265 11.4465ZM-2.87827 11.4465L-2.55015 12.4684H-1.47202L-2.3439 13.0965L-2.01577 14.1184L-2.87827 13.4903L-3.75015 14.1184L-3.42202 13.0965L-4.28452 12.4684H-3.21577L-2.87827 11.4465ZM3.19673 11.4465L3.53423 12.4684H4.59361L3.73111 13.0965L4.05923 14.1278L3.18736 13.4903L2.32486 14.1184L2.65298 13.0965L1.78111 12.4684H2.85923L3.19673 11.4465ZM9.28111 11.4465L9.60923 12.4684H10.6874L9.81548 13.0965L10.153 14.1278L9.28111 13.4903L8.40923 14.1184L8.74673 13.0965L7.87486 12.4684H8.94361L9.28111 11.4465ZM15.3561 11.4465L15.6936 12.4684H16.7624L15.8999 13.0965L16.228 14.1278L15.3561 13.4903L14.4936 14.1184L14.8217 13.0965L13.9592 12.4684H15.028L15.3561 11.4465ZM21.4405 11.4465L21.7686 12.4684H22.8467L21.9749 13.0965L22.3124 14.1278L21.4405 13.4903L20.5686 14.1184L20.9061 13.0965L20.0342 12.4684H21.1124L21.4405 11.4465ZM-5.91577 14.034L-5.58765 15.0559H-4.50952L-5.3814 15.684L-5.05327 16.7059L-5.91577 16.0684L-6.78765 16.7059L-6.45952 15.6747L-7.32202 15.0465H-6.25327L-5.91577 14.034ZM0.159229 14.034L0.49673 15.0559H1.56548L0.693604 15.684L1.0311 16.7059L0.159229 16.0684L-0.712646 16.7059L-0.375146 15.6747L-1.24702 15.0465H-0.168896L0.159229 14.034ZM6.24361 14.034L6.57173 15.0559H7.64986L6.77798 15.684L7.10611 16.7059L6.24361 16.0684L5.37173 16.7059L5.69986 15.6747L4.83736 15.0465H5.90611L6.24361 14.034ZM12.3186 14.034L12.6561 15.0559H13.7249L12.8624 15.684L13.1905 16.7059L12.3186 16.0684L11.4561 16.7059L11.7842 15.6747L10.9124 15.0465H11.9999L12.3186 14.034ZM18.403 14.034L18.7311 15.0559H19.8092L18.9374 15.684L19.2655 16.7059L18.403 16.0684L17.5311 16.7059L17.8592 15.6747L16.9967 15.0465H18.0655L18.403 14.034ZM-8.96265 16.6122L-8.62515 17.6434H-7.5564L-8.4189 18.2715L-8.09077 19.284L-8.96265 18.6559L-9.82515 19.284L-9.49702 18.2622L-10.3689 17.634H-9.2814L-8.96265 16.6122ZM-2.87827 16.6122L-2.55015 17.6434H-1.47202L-2.3439 18.2715L-2.0064 19.284L-2.87827 18.6559L-3.75015 19.284L-3.41265 18.2622L-4.28452 17.634H-3.21577L-2.87827 16.6122ZM3.19673 16.6122L3.53423 17.6434H4.59361L3.73111 18.2715L4.05923 19.284L3.18736 18.6559L2.32486 19.284L2.65298 18.2622L1.78111 17.634H2.85923L3.19673 16.6122ZM9.28111 16.6122L9.60923 17.6434H10.6874L9.81548 18.2715L10.153 19.284L9.28111 18.6559L8.40923 19.284L8.74673 18.2622L7.87486 17.634H8.94361L9.28111 16.6122ZM15.3561 16.6122L15.6936 17.6434H16.7624L15.8999 18.2715L16.228 19.284L15.3561 18.6559L14.4936 19.284L14.8217 18.2622L13.9592 17.634H15.028L15.3561 16.6122ZM21.4405 16.6122L21.7686 17.6434H22.8467L21.9749 18.2715L22.3124 19.284L21.4405 18.6559L20.5686 19.284L20.9061 18.2622L20.0342 17.634H21.1124L21.4405 16.6122ZM-5.91577 19.1997L-5.58765 20.2215H-4.50952L-5.3814 20.8497L-5.05327 21.8809L-5.91577 21.2434L-6.78765 21.8715L-6.45952 20.8497L-7.32202 20.2215H-6.25327L-5.91577 19.1997ZM0.159229 19.1997L0.49673 20.2215H1.56548L0.693604 20.8497L1.0311 21.8809L0.159229 21.2434L-0.712646 21.8715L-0.375146 20.8497L-1.24702 20.2215H-0.168896L0.159229 19.1997ZM6.24361 19.1997L6.57173 20.2215H7.64986L6.77798 20.8497L7.10611 21.8809L6.24361 21.2434L5.37173 21.8715L5.69986 20.8497L4.83736 20.2215H5.90611L6.24361 19.1997ZM12.3186 19.1997L12.6561 20.2215H13.7249L12.8624 20.8497L13.1905 21.8809L12.3186 21.2434L11.4561 21.8715L11.7842 20.8497L10.9124 20.2215H11.9999L12.3186 19.1997ZM18.403 19.1997L18.7311 20.2215H19.8092L18.9374 20.8497L19.2655 21.8809L18.403 21.2434L17.5311 21.8715L17.8592 20.8497L16.9967 20.2215H18.0655L18.403 19.1997ZM-8.96265 21.7872L-8.62515 22.809H-7.5564L-8.4189 23.4372L-8.09077 24.459L-8.96265 23.8309L-9.82515 24.459L-9.49702 23.4278L-10.3689 22.7997H-9.2814L-8.96265 21.7872ZM-2.87827 21.7872L-2.55015 22.809H-1.47202L-2.3439 23.4372L-2.0064 24.459L-2.87827 23.8309L-3.75015 24.459L-3.41265 23.4278L-4.28452 22.7997H-3.21577L-2.87827 21.7872ZM3.19673 21.7872L3.53423 22.809H4.59361L3.74986 23.4372L4.07798 24.459L3.20611 23.8309L2.34361 24.459L2.67173 23.4278L1.79986 22.7997H2.87798L3.19673 21.7872ZM9.28111 21.7872L9.60923 22.809H10.6874L9.81548 23.4372L10.153 24.459L9.28111 23.8309L8.40923 24.459L8.74673 23.4278L7.87486 22.7997H8.94361L9.28111 21.7872ZM15.3561 21.7872L15.6936 22.809H16.7624L15.8999 23.4372L16.228 24.459L15.3561 23.8309L14.4936 24.459L14.8217 23.4278L13.9592 22.7997H15.028L15.3561 21.7872ZM21.4405 21.7872L21.7686 22.809H22.8467L21.9749 23.4372L22.3124 24.459L21.4405 23.8309L20.5686 24.459L20.9061 23.4278L20.0342 22.7997H21.1124L21.4405 21.7872Z" fill="white"/>
</g>
</g>
<defs>
<clipPath id="clip0_29_344">
<rect width="48" height="48" fill="white"/>
</clipPath>
</defs>
</svg>
