<svg width="48" height="48" viewBox="0 0 48 48" fill="none" xmlns="http://www.w3.org/2000/svg">
<g clip-path="url(#clip0_154_54495)">
<mask id="mask0_154_54495" style="mask-type:alpha" maskUnits="userSpaceOnUse" x="0" y="0" width="48" height="48">
<circle cx="24" cy="24" r="24" fill="#D9D9D9"/>
</mask>
<g mask="url(#mask0_154_54495)">
<g clip-path="url(#clip1_154_54495)">
<path d="M-8 0H56V48H-8V0Z" fill="white"/>
<path d="M18.6 5.33002H56V10.67H18.6V5.33002ZM18.6 16H56V21.33H18.6V16ZM-8 26.67H56V32H-8V26.67ZM-8 37.33H56V42.67H-8V37.33Z" fill="#0038A8"/>
<path d="M4.71394 15.9407L5.59394 17.2607C1.95661 19.8713 4.18594 21.426 1.60461 22.2767C3.21795 20.722 1.34061 20.5753 2.68995 17.3193" fill="#FCD116"/>
<path d="M1.28198 22.482L1.54598 22.218C2.30865 21.4554 2.24998 21.074 2.16198 20.458C2.07398 19.8127 1.92732 18.962 2.63131 17.3194L2.66065 17.2314L2.83665 17.29L2.80731 17.378C2.13265 18.9914 2.27931 19.8127 2.36731 20.4287C2.45531 20.986 2.51398 21.426 1.95665 22.0714C2.80731 21.69 2.92465 21.2207 3.10065 20.546C3.30598 19.7247 3.59931 18.61 5.47664 17.2314L4.59665 15.9114L4.74331 15.8234L5.71131 17.29L5.65264 17.3487C3.77531 18.7274 3.48198 19.754 3.27665 20.6047C3.07131 21.3674 2.92465 21.954 1.66332 22.3647L1.28198 22.482Z" fill="black"/>
<path d="M1.66332 22.3646L1.57532 22.218C2.45532 21.8073 2.54332 21.162 2.68998 20.1646C2.83665 19.1966 3.04198 17.906 4.00998 16.2633L4.15665 16.3513C3.18865 17.9353 3.01265 19.1673 2.86598 20.1646C2.71932 21.162 2.60198 21.8953 1.66332 22.3646Z" fill="black"/>
<path d="M5.32994 13.33H7.08994L5.32994 23.01L3.56995 13.33H5.32994V23.01V13.33Z" fill="#FCD116"/>
<path d="M5.32997 23.5087L3.45264 13.242H7.2073L5.32997 23.5087ZM5.41797 13.418V22.042L6.97263 13.418H5.41797ZM3.6873 13.418L5.24197 22.042V13.418H3.6873Z" fill="black"/>
<path d="M2.73722 12.7285L1.43049 13.6204C-1.20371 9.99058 -2.75935 12.2099 -3.58902 9.63797C-2.03339 11.2351 -1.88819 9.38907 1.36826 10.7373" fill="#FCD116"/>
<path d="M-3.11194 10.6958C-3.3401 10.4676 -3.52677 10.1565 -3.71345 9.63797L-3.81716 9.28536L-3.54752 9.555C-2.80081 10.3017 -2.42746 10.2602 -1.78446 10.1565C-1.14147 10.0528 -0.270315 9.92835 1.36828 10.6128L1.45125 10.6543L1.36828 10.8203L1.28532 10.7788C-0.33254 10.115 -1.16221 10.2395 -1.78446 10.3224C-2.36523 10.4054 -2.75933 10.4676 -3.42306 9.92835C-3.07045 10.7788 -2.57265 10.9032 -1.90892 11.0692C-1.09999 11.2973 0.0200694 11.5877 1.38903 13.4545L2.73724 12.604L2.84095 12.7492L1.36828 13.7241L1.30606 13.6619C-0.0421557 11.7744 -1.12073 11.484 -1.9504 11.2766C-2.36523 11.1521 -2.75933 11.0484 -3.11194 10.6958Z" fill="black"/>
<path d="M-3.29859 10.2188C-3.44379 10.0736 -3.58898 9.88691 -3.69269 9.65875L-3.52675 9.57579C-3.11192 10.4469 -2.44818 10.5299 -1.45258 10.6958C-0.519196 10.841 0.787536 11.0277 2.40539 12.0233L2.30169 12.1685C0.704569 11.1936 -0.519196 11.007 -1.49406 10.8618C-2.2615 10.7581 -2.86302 10.6544 -3.29859 10.2188Z" fill="black"/>
<path d="M5.33008 13.33L5.33008 15.0723L-4.35633 13.3093L5.33008 11.5877L5.33008 13.33L-4.33559 13.33L5.33008 13.33Z" fill="#FCD116"/>
<path d="M-4.83345 13.33L5.41298 11.4633L5.41298 15.1968L-4.83345 13.33ZM5.24705 13.413L-3.38153 13.413L5.22631 14.9686L5.24705 13.413ZM5.24705 11.6707L-3.36079 13.2263L5.24705 13.2471L5.24705 11.6707Z" fill="black"/>
<path d="M5.94597 10.7194L5.06597 9.39936C8.7033 6.78869 6.47397 5.23403 9.0553 4.38336C7.44197 5.93803 9.3193 6.08469 7.96997 9.34069" fill="#FCD116"/>
<path d="M4.91934 9.37003L4.97801 9.31137C6.85534 7.9327 7.14867 6.90604 7.354 6.05537C7.55934 5.29271 7.706 4.70604 8.96734 4.29537L9.31934 4.17804L9.05534 4.44204C8.29267 5.20471 8.35134 5.58604 8.43934 6.20204C8.52734 6.84737 8.674 7.69804 7.97 9.3407L7.94067 9.4287L7.76467 9.37003L7.794 9.28203C8.46867 7.6687 8.322 6.84737 8.234 6.23137C8.146 5.67404 8.08734 5.23404 8.64467 4.58871C7.794 4.97004 7.67667 5.43937 7.50067 6.11404C7.29534 6.93537 7.00201 8.05004 5.12467 9.4287L6.00467 10.7487L5.91667 10.8367L4.91934 9.37003Z" fill="black"/>
<path d="M6.50339 10.3087C7.47139 8.72468 7.64739 7.49268 7.79405 6.49535C7.94072 5.49801 8.05805 4.76468 8.99672 4.29535L9.08472 4.44202C8.20472 4.85268 8.11672 5.49801 7.97005 6.49535C7.82338 7.46335 7.61805 8.75401 6.65005 10.3967L6.50339 10.3087Z" fill="black"/>
<path d="M5.33009 13.33H3.57009L5.33009 3.65002L7.09009 13.33H5.33009L5.33009 3.65002L5.33009 13.33Z" fill="#FCD116"/>
<path d="M3.45274 13.418L5.33007 3.15137L7.2074 13.418H3.45274ZM5.24207 4.61803L3.6874 13.242H5.24207L5.24207 4.61803ZM5.41807 4.61803L5.41807 13.242H6.97273L5.41807 4.61803Z" fill="black"/>
<path d="M7.76682 13.9218L9.07355 13.0299C11.7078 16.6597 13.2634 14.4404 14.0931 17.0123C12.5374 15.4152 12.3922 17.2612 9.13578 15.913" fill="#FCD116"/>
<path d="M7.66311 13.9011L9.13577 12.9262L9.198 12.9884C10.5462 14.8759 11.6248 15.1663 12.4545 15.3737C13.2012 15.5811 13.8027 15.7263 14.2383 16.9916L14.342 17.3442L14.0723 17.0746C13.3049 16.3071 12.9523 16.3693 12.3093 16.473C11.6663 16.5768 10.7951 16.7012 9.15652 16.0167L9.07355 15.9752L9.15652 15.8093L9.23948 15.8508C10.8573 16.5145 11.687 16.3901 12.3093 16.3071C12.89 16.2241 13.2841 16.1619 13.9479 16.7012C13.5953 15.8508 13.0975 15.7263 12.4337 15.5604C11.6248 15.3322 10.5047 15.0419 9.13577 13.1751L7.76682 14.0463L7.66311 13.9011Z" fill="black"/>
<path d="M8.2024 14.4819C9.79952 15.4567 11.0233 15.6434 11.9981 15.7886C13.0145 15.9338 13.7405 16.0375 14.1968 16.9916L14.0308 17.0746C13.616 16.2035 12.9523 16.1205 11.9567 15.9546C11.0233 15.8094 9.71655 15.6227 8.09869 14.6271L8.2024 14.4819Z" fill="black"/>
<path d="M5.17407 13.3203L5.17407 11.578L14.8605 13.3411L5.17407 15.0626L5.17407 13.3203L14.8397 13.3203L5.17407 13.3203Z" fill="#FCD116"/>
<path d="M5.09109 11.4536L15.3375 13.3203L5.09109 15.1871V11.4536ZM13.8856 13.2373L5.27776 11.6817L5.25702 13.2373L13.8856 13.2373ZM13.8856 13.4033L5.25702 13.4033V14.9797L13.8856 13.4033Z" fill="black"/>
<path d="M3.30084 14.7999L2.98971 16.3556C-1.42828 15.6296 -0.951223 18.3053 -3.37801 17.0815C-1.1379 17.123 -2.36166 15.6918 0.894794 14.3436" fill="#FCD116"/>
<path d="M3.40452 14.7377L3.05191 16.4593L2.96894 16.4593C0.666605 16.1066 -0.266775 16.6252 -1.01348 17.0815C-1.69796 17.4756 -2.2165 17.7867 -3.39878 17.1852L-3.73065 17.0193L-3.3573 17.0193C-2.27873 17.0193 -2.05057 16.7082 -1.67722 16.2104C-1.28312 15.6918 -0.785319 14.9866 0.874022 14.3229L0.95699 14.2814L1.03996 14.4473L0.95699 14.4888C-0.660868 15.1525 -1.13793 15.837 -1.51128 16.3348C-1.84315 16.7911 -2.11279 17.1437 -2.96321 17.206C-2.09205 17.5378 -1.67722 17.2889 -1.0757 16.9363C-0.370484 16.48 0.625122 15.8992 2.92746 16.2518L3.23859 14.6962L3.40452 14.7377Z" fill="black"/>
<path d="M2.57484 14.5303L2.61632 14.6962C0.811787 15.1318 -0.183818 15.8785 -0.992747 16.48C-1.80168 17.0815 -2.40319 17.5171 -3.39879 17.1853L-3.35731 17.0193C-2.44467 17.3512 -1.92613 16.9571 -1.1172 16.3556C-0.329011 15.7748 0.728819 15.0074 2.57484 14.5303Z" fill="black"/>
<path d="M5.58246 13.3895L6.82696 14.634L-1.26233 20.2343L4.33795 12.145L5.58246 13.3895L-1.26233 20.2343L5.58246 13.3895Z" fill="#FCD116"/>
<path d="M4.3172 11.9998L6.97215 14.6547L-1.61495 20.5869L4.3172 11.9998ZM5.458 13.3895L4.35868 12.2902L-0.640086 19.4876L5.458 13.3895ZM6.68176 14.6133L5.58245 13.5139L-0.515635 19.612L6.68176 14.6133Z" fill="black"/>
<path d="M3.92198 11.2473L2.36732 10.954C3.07132 6.52465 0.401989 6.99399 1.63399 4.58865C1.60465 6.81799 3.01265 5.61532 4.36198 8.87132" fill="#FCD116"/>
<path d="M4.45002 8.87133L4.27402 8.93L4.24469 8.842C3.57002 7.22867 2.89536 6.73 2.39669 6.34867C1.92736 5.99667 1.60469 5.762 1.51669 4.91133C1.16469 5.762 1.42869 6.202 1.78069 6.78867C2.22069 7.55133 2.80736 8.54866 2.45536 10.866L4.01002 11.1593L3.98069 11.3353L2.25003 10.9833L2.25003 10.8953C2.63136 8.60733 2.07403 7.63933 1.63403 6.906C1.25269 6.23133 0.930027 5.70333 1.51669 4.50067L1.69269 4.178L1.69269 4.55933C1.69269 5.61533 1.98603 5.85 2.51403 6.23133C3.04202 6.61267 3.74602 7.14066 4.42069 8.78333L4.45002 8.87133Z" fill="black"/>
<path d="M4.18593 10.514L4.00993 10.5433C3.56993 8.72467 2.8366 7.72734 2.24994 6.93534C1.63394 6.11401 1.19394 5.52734 1.54594 4.53001L1.72194 4.58868C1.39927 5.49801 1.80994 6.02601 2.3966 6.84734C2.95393 7.61 3.7166 8.666 4.18593 10.514Z" fill="black"/>
<path d="M5.33002 13.506L4.09802 14.738L-1.50464 6.64199L6.56202 12.274L5.33002 13.506L-1.50464 6.67132L5.33002 13.506Z" fill="#FCD116"/>
<path d="M6.70863 12.2446L4.06864 14.8846L-1.85669 6.31932L6.70863 12.2446ZM5.32997 13.3886L6.44463 12.274L-0.742025 7.28732L5.32997 13.3886ZM4.09797 14.6206L5.21263 13.506L-0.888691 7.40465L4.09797 14.6206Z" fill="black"/>
<path d="M7.50946 11.8958L7.82059 10.3402C12.2386 11.0661 11.7615 8.39045 14.1883 9.61422C11.9482 9.57273 13.172 11.0039 9.91551 12.3521" fill="#FCD116"/>
<path d="M14.5617 9.69718L14.1884 9.69718C13.1098 9.69718 12.8816 10.0083 12.5083 10.5061C12.1142 11.0247 11.6164 11.7299 9.95703 12.3936L9.87406 12.4351L9.7911 12.2692L9.87406 12.2277C11.4919 11.5639 11.969 10.8795 12.3423 10.3817C12.6742 9.92534 12.9438 9.57273 13.7943 9.51051C12.9231 9.17864 12.5083 9.42754 11.9068 9.78015C11.1808 10.2157 10.1852 10.7965 7.88285 10.4439L7.57173 11.9995L7.40579 11.958L7.7584 10.2365L7.84137 10.2365C10.1437 10.5891 11.0771 10.0705 11.8238 9.61422C12.5083 9.22012 13.0268 8.909 14.2091 9.51051L14.5617 9.69718Z" fill="black"/>
<path d="M14.147 9.6972C13.2343 9.36534 12.7158 9.75943 11.9068 10.3609C11.1394 10.921 10.0816 11.6884 8.23554 12.1655L8.19406 11.9995C9.9986 11.564 10.9942 10.8173 11.8031 10.2157C12.6121 9.61424 13.2136 9.17866 14.2092 9.51053L14.147 9.6972Z" fill="black"/>
<path d="M5.2279 13.3063L3.9834 12.0618L12.0727 6.46149L6.47241 14.5508L5.2279 13.3063L12.0727 6.46149L5.2279 13.3063Z" fill="#FCD116"/>
<path d="M6.4932 14.696L3.83826 12.041L12.4254 6.10887L6.4932 14.696ZM5.35241 13.3063L6.45172 14.4056L11.4505 7.20818L5.35241 13.3063ZM5.22796 13.1818L11.326 7.08373L4.12864 12.0825L5.22796 13.1818Z" fill="black"/>
<path d="M6.76947 15.5656L8.32413 15.8589C7.62013 20.2883 10.2895 19.8189 9.05746 22.2243C9.0868 19.9949 7.6788 21.1976 6.32947 17.9416" fill="#FCD116"/>
<path d="M8.96945 22.6349L8.96945 22.2536C8.96945 21.1683 8.67612 20.9629 8.14812 20.5816C7.62012 20.2003 6.91612 19.6723 6.24146 18.0296L6.24146 17.9416L6.41745 17.8829L6.44679 17.9709C7.12145 19.5843 7.79612 20.0829 8.29479 20.4643C8.76412 20.8163 9.08679 21.0509 9.17479 21.9016C9.52678 21.0509 9.26279 20.6109 8.91079 20.0243C8.47079 19.2616 7.88412 18.2643 8.23612 15.9469L6.68145 15.6536L6.71079 15.4776L8.44145 15.8296L8.44145 15.9176C8.06012 18.2056 8.61745 19.1736 9.05745 19.9069C9.43879 20.5816 9.76145 21.1096 9.17479 22.3123L8.96945 22.6349Z" fill="black"/>
<path d="M9.14549 22.2829L8.96949 22.2243C9.29216 21.3149 8.88149 20.7869 8.29482 19.9656C7.73749 19.2029 6.94549 18.1469 6.50549 16.2989L6.68149 16.2696C7.12149 18.0883 7.85483 19.0856 8.44149 19.8776C9.05749 20.6989 9.49749 21.2856 9.14549 22.2829Z" fill="black"/>
<path d="M5.36139 13.3069L6.59339 12.075L12.1961 20.1709L4.12939 14.5389L5.36139 13.3069L12.1961 20.1416L5.36139 13.3069Z" fill="#FCD116"/>
<path d="M12.5481 20.4936L3.98279 14.5683L6.62278 11.9283L12.5481 20.4936ZM4.24679 14.5389L11.4334 19.5256L5.36145 13.4243L4.24679 14.5389ZM5.47879 13.3069L11.5801 19.4083L6.59345 12.1923L5.47879 13.3069Z" fill="black"/>
<path d="M5.32993 16.5567C7.11197 16.5567 8.5566 15.1121 8.5566 13.3301C8.5566 11.548 7.11197 10.1034 5.32993 10.1034C3.5479 10.1034 2.10327 11.548 2.10327 13.3301C2.10327 15.1121 3.5479 16.5567 5.32993 16.5567Z" fill="#FCD116"/>
<path d="M5.32992 16.6447C3.51126 16.6447 2.01526 15.1487 2.01526 13.33C2.01526 11.5114 3.51126 10.0154 5.32992 10.0154C7.14859 10.0154 8.64458 11.5114 8.64458 13.33C8.64458 15.1487 7.14859 16.6447 5.32992 16.6447ZM5.32992 10.1914C3.59926 10.1914 2.19126 11.5994 2.19126 13.33C2.19126 15.0607 3.59926 16.4687 5.32992 16.4687C7.06059 16.4687 8.46858 15.0607 8.46858 13.33C8.46858 11.5994 7.06059 10.1914 5.32992 10.1914Z" fill="black"/>
<path d="M7.70603 12.0393C7.5007 12.274 7.38337 11.8633 6.65004 11.8633C5.91672 11.8633 5.79939 12.3033 5.68205 12.2153C5.56472 12.1273 6.29805 11.5993 6.53271 11.57C6.76738 11.5407 7.44203 11.7753 7.70603 12.0393ZM6.85537 12.3033C7.06071 12.4793 6.88471 12.8606 6.67938 12.8606C6.47405 12.8606 6.09272 12.5086 6.26871 12.274" fill="black"/>
<path d="M5.88733 12.5673C5.91666 12.2153 6.20999 12.1567 6.67932 12.1567C7.14865 12.1567 7.35398 12.5087 7.52998 12.5967C7.32465 12.5967 7.14865 12.3033 6.67932 12.3033C6.20999 12.3033 6.20999 12.3033 5.88733 12.5967M5.97533 12.6553C6.09266 12.4793 6.23933 12.8313 6.56199 12.8313C6.88465 12.8313 7.06065 12.7433 7.26598 12.5967C7.47131 12.45 6.97265 12.9487 6.64999 12.9487C6.32732 12.9487 5.88733 12.7727 5.97533 12.6553Z" fill="black"/>
<path d="M6.97266 12.8313C7.35399 12.626 7.11933 12.3327 6.97266 12.274C7.03133 12.3327 7.26599 12.626 6.97266 12.8313ZM5.33001 14.5913C5.50601 14.5913 5.56468 14.5326 5.79934 14.5326C6.03401 14.5326 6.59133 14.8553 6.914 14.738C6.23934 15.002 6.50333 14.826 5.33001 14.826H5.18335M7.03133 15.002C6.914 14.7966 6.94333 14.8553 6.70867 14.5326C6.94333 14.7086 7.002 14.7966 7.03133 15.002ZM5.33001 15.2953C6.06334 15.2953 5.94601 15.1486 6.914 14.738C6.21 14.826 6.06334 15.0606 5.33001 15.0606H5.18335M5.33001 14.21C5.53535 14.21 5.59401 14.0633 5.82868 14.0633C6.06334 14.0633 6.386 14.1513 6.53267 14.2686C6.562 14.298 6.44467 14.034 6.21 14.0046C5.97534 13.9753 6.06334 13.594 5.79934 13.5353C5.79934 13.6526 5.88734 13.6233 5.91667 13.7993C5.91667 13.946 5.65268 13.946 5.59401 13.7993C5.65268 14.034 5.47668 14.034 5.33001 14.034" fill="black"/>
<path d="M7.70593 12.0393C7.5006 12.274 7.38327 11.8633 6.64994 11.8633C5.91662 11.8633 5.79929 12.3033 5.68196 12.2153C5.56462 12.1273 6.29795 11.5993 6.53261 11.57C6.76728 11.5407 7.44194 11.7753 7.70593 12.0393ZM6.85528 12.3033C7.06061 12.4793 6.88461 12.8606 6.67928 12.8606C6.47395 12.8606 6.09262 12.5086 6.26862 12.274" fill="black"/>
<path d="M5.88726 12.5673C5.91659 12.2153 6.20992 12.1567 6.67925 12.1567C7.14858 12.1567 7.35391 12.5087 7.52991 12.5967C7.32458 12.5967 7.14858 12.3033 6.67925 12.3033C6.20992 12.3033 6.20992 12.3033 5.88726 12.5967M5.97526 12.6553C6.09259 12.4793 6.23926 12.8313 6.56192 12.8313C6.88458 12.8313 7.06058 12.7433 7.26591 12.5967C7.47124 12.45 6.97258 12.9487 6.64992 12.9487C6.32725 12.9487 5.88726 12.7727 5.97526 12.6553Z" fill="black"/>
<path d="M6.97259 12.8313C7.35392 12.626 7.11925 12.3327 6.97259 12.274C7.03125 12.3327 7.26592 12.626 6.97259 12.8313ZM5.32994 14.5913C5.50594 14.5913 5.5646 14.5326 5.79927 14.5326C6.03393 14.5326 6.59126 14.8553 6.91392 14.738C6.23926 15.002 6.50326 14.826 5.32994 14.826H5.18328M7.03125 15.002C6.91392 14.7966 6.94326 14.8553 6.70859 14.5326C6.94326 14.7086 7.00192 14.7966 7.03125 15.002ZM5.32994 15.2953C6.06327 15.2953 5.94593 15.1486 6.91392 14.738C6.20993 14.826 6.06327 15.0606 5.32994 15.0606H5.18328M5.32994 14.21C5.53527 14.21 5.59394 14.0633 5.8286 14.0633C6.06327 14.0633 6.38593 14.1513 6.53259 14.2686C6.56193 14.298 6.44459 14.034 6.20993 14.0046C5.97527 13.9753 6.06327 13.594 5.79927 13.5353C5.79927 13.6526 5.88727 13.6233 5.9166 13.7993C5.9166 13.946 5.6526 13.946 5.59394 13.7993C5.6526 14.034 5.47661 14.034 5.32994 14.034" fill="black"/>
<path d="M3.04907 12.0393C3.2544 12.274 3.37174 11.8633 4.10506 11.8633C4.83838 11.8633 4.95572 12.3033 5.07305 12.2153C5.19038 12.1273 4.45706 11.5993 4.22239 11.57C3.98773 11.5407 3.31307 11.7753 3.04907 12.0393ZM3.89973 12.3033C3.6944 12.4793 3.8704 12.8606 4.07573 12.8606C4.28106 12.8606 4.66239 12.5086 4.48639 12.274" fill="black"/>
<path d="M4.86775 12.5673C4.83841 12.2153 4.54508 12.1567 4.07575 12.1567C3.60643 12.1567 3.4011 12.5087 3.2251 12.5967C3.43043 12.5967 3.60643 12.3033 4.07575 12.3033C4.54508 12.3033 4.54508 12.3033 4.86775 12.5967M4.77975 12.6553C4.66241 12.4793 4.51575 12.8313 4.19309 12.8313C3.87042 12.8313 3.69443 12.7433 3.48909 12.5967C3.28376 12.45 3.78242 12.9487 4.10509 12.9487C4.42775 12.9487 4.86775 12.7727 4.77975 12.6553Z" fill="black"/>
<path d="M3.78242 12.8313C3.40109 12.626 3.63575 12.3327 3.78242 12.274C3.72375 12.3327 3.48909 12.626 3.78242 12.8313ZM5.42506 14.5913C5.24907 14.5913 5.1904 14.5326 4.95574 14.5326C4.72107 14.5326 4.16375 14.8553 3.84108 14.738C4.51574 15.002 4.25174 14.826 5.42506 14.826H5.57173M3.72375 15.002C3.84108 14.7966 3.81175 14.8553 4.04641 14.5326C3.81175 14.7086 3.75308 14.7966 3.72375 15.002ZM5.42506 15.2953C4.69174 15.2953 4.80907 15.1486 3.84108 14.738C4.54507 14.826 4.69174 15.0606 5.42506 15.0606H5.57173M5.42506 14.21C5.21973 14.21 5.16107 14.0633 4.9264 14.0633C4.69174 14.0633 4.36908 14.1513 4.22241 14.2686C4.19308 14.298 4.31041 14.034 4.54507 14.0046C4.77974 13.9753 4.69174 13.594 4.95574 13.5353C4.95574 13.6526 4.86774 13.6233 4.8384 13.7993C4.8384 13.946 5.1024 13.946 5.16107 13.7993C5.1024 14.034 5.2784 14.034 5.42506 14.034" fill="black"/>
<path d="M5.32998 15.5593C5.18331 15.5593 4.80198 15.6473 5.32998 15.6473C5.85797 15.6473 5.47664 15.5593 5.32998 15.5593Z" fill="black"/>
</g>
</g>
</g>
<defs>
<clipPath id="clip0_154_54495">
<rect width="48" height="48" fill="white"/>
</clipPath>
<clipPath id="clip1_154_54495">
<rect width="64" height="48" fill="white" transform="translate(-8)"/>
</clipPath>
</defs>
</svg>
