<svg width="48" height="48" viewBox="0 0 48 48" fill="none" xmlns="http://www.w3.org/2000/svg">
<g clip-path="url(#clip0_191_23426)">
<mask id="mask0_191_23426" style="mask-type:alpha" maskUnits="userSpaceOnUse" x="0" y="0" width="48" height="48">
<circle cx="24" cy="24" r="24" fill="#D9D9D9"/>
</mask>
<g mask="url(#mask0_191_23426)">
<g clip-path="url(#clip1_191_23426)">
<path fill-rule="evenodd" clip-rule="evenodd" d="M-24 0H48V48H-24V0Z" fill="#198A00"/>
<path fill-rule="evenodd" clip-rule="evenodd" d="M39.5531 17.25H48V48H39.5531V17.25Z" fill="#EF7D00"/>
<path fill-rule="evenodd" clip-rule="evenodd" d="M31.1156 17.2312H39.5531V47.9812H31.1156V17.2312Z" fill="black"/>
<path fill-rule="evenodd" clip-rule="evenodd" d="M22.5 17.25H31.1156V48H22.4906L22.5 17.25Z" fill="#DE2010"/>
<path fill-rule="evenodd" clip-rule="evenodd" d="M42.3374 6.15002C42.3374 6.15002 45.5249 4.79065 45.8249 4.5094C45.9656 4.67815 44.5499 6.3844 41.8031 7.01253C44.2968 6.43128 46.4249 4.57502 46.8656 4.63127C46.9874 4.6594 46.9593 6.44065 41.2406 7.98752C45.1968 6.95627 47.4937 5.04377 47.4656 5.25002C47.4937 5.2969 47.0718 6.75002 43.6124 7.8844C44.5781 7.6594 47.2031 6.06565 47.1749 6.37502C47.2593 6.4969 44.6437 9.86252 39.8999 8.76565C43.6874 9.75002 46.1343 7.37815 46.4812 7.42502C46.5562 7.4344 45.7874 9.48752 41.0249 9.61877C43.3031 9.3844 42.6468 9.6094 42.6468 9.6094C42.6468 9.6094 41.3062 10.6594 39.6749 9.9469C40.9499 10.2938 41.0906 10.3125 41.1187 10.4156C41.0343 10.5656 39.9937 10.7719 38.9718 10.2281C39.7874 10.5656 40.5187 10.6219 40.5281 10.7438C40.5187 10.7813 40.0031 11.0813 39.5343 10.8657C39.0749 10.6594 34.8187 8.04378 34.8187 8.04378L42.0749 6.0469L42.3374 6.15002ZM33.8062 13.2375C33.1687 13.2375 33.1499 13.8 33.1499 13.8C33.1499 13.8 33.1031 13.8469 33.1312 14.1188L33.2906 13.875C33.3656 13.8844 33.6562 13.9688 34.1156 13.6125C33.6937 14.0532 33.9468 14.2125 33.9468 14.2125C33.9468 14.2125 33.8531 14.5594 34.1718 14.625C34.0781 14.4844 34.1343 14.3625 34.1343 14.3625C34.1343 14.3625 34.5843 14.3156 34.5562 13.7719C34.5656 14.2688 34.8374 14.3907 34.8374 14.3907C34.8374 14.3907 34.8374 14.6625 35.1281 14.6906C34.9781 14.55 35.0062 14.3344 35.0062 14.3344C35.0062 14.3344 35.3812 14.0532 35.0718 13.5844C35.2593 13.4719 35.4187 13.1625 35.4187 13.1625C35.4187 13.1625 35.1562 13.05 35.0343 12.9563C34.9781 12.8344 35.0343 12.1594 35.0343 12.1594L34.8656 11.2875L34.4156 12.6469C34.4343 12.4594 34.4437 13.2375 33.8062 13.2375Z" fill="#EF7D00"/>
<path d="M35.1281 14.7375C34.8843 14.7094 34.7999 14.5313 34.7906 14.4188C34.7343 14.3813 34.6218 14.2969 34.5562 14.0813C34.4624 14.3156 34.2468 14.3813 34.1718 14.4C34.1624 14.4375 34.1531 14.5125 34.2093 14.5969C34.2187 14.6157 34.2187 14.6344 34.2093 14.6532C34.1999 14.6719 34.1812 14.6813 34.1624 14.6719C34.0593 14.6532 33.9843 14.6063 33.9374 14.5219C33.8718 14.4188 33.8812 14.2875 33.8906 14.2313C33.8624 14.2032 33.8343 14.1563 33.8249 14.0907C33.8156 14.0063 33.8437 13.9125 33.8999 13.8094C33.5999 13.9688 33.3937 13.9407 33.3093 13.9313L33.1687 14.1469C33.1593 14.1656 33.1406 14.175 33.1218 14.1657C33.1031 14.1563 33.0843 14.1469 33.0843 14.1281C33.0656 13.9125 33.0843 13.8282 33.1031 13.7907C33.1124 13.6969 33.1874 13.2 33.8062 13.2C33.9656 13.2 34.0968 13.1531 34.1906 13.05C34.3124 12.9188 34.3593 12.75 34.3687 12.675C34.3687 12.6657 34.3687 12.6657 34.3687 12.6563C34.3687 12.6375 34.3687 12.6188 34.3874 12.6L34.8187 11.2875C34.8281 11.2688 34.8468 11.25 34.8656 11.2594C34.8843 11.2594 34.9031 11.2782 34.9124 11.2969L35.0812 12.1688V12.1781C35.0624 12.4219 35.0437 12.8438 35.0718 12.9375C35.1937 13.0219 35.4374 13.125 35.4374 13.1344C35.4468 13.1438 35.4562 13.1531 35.4656 13.1625C35.4656 13.1719 35.4656 13.1907 35.4656 13.2C35.4562 13.2094 35.3156 13.4813 35.1374 13.6125C35.3906 14.025 35.1281 14.3063 35.0531 14.3719C35.0531 14.4188 35.0531 14.5688 35.1656 14.6719C35.1843 14.6813 35.1843 14.7094 35.1749 14.7282C35.1656 14.7282 35.1468 14.7375 35.1281 14.7375ZM34.6031 13.8094C34.6218 14.2407 34.8468 14.3438 34.8562 14.3532C34.8749 14.3625 34.8843 14.3813 34.8843 14.4C34.8843 14.4094 34.8843 14.55 35.0062 14.6157C34.9406 14.4844 34.9593 14.3438 34.9593 14.3344C34.9593 14.325 34.9687 14.3063 34.9781 14.3063C34.9874 14.2969 35.3156 14.0438 35.0343 13.6219C35.0249 13.6125 35.0249 13.5938 35.0249 13.5844C35.0249 13.575 35.0343 13.5657 35.0437 13.5563C35.1749 13.4719 35.2968 13.2844 35.3531 13.2C35.2687 13.1625 35.0999 13.0782 35.0062 13.0125C34.9968 13.0125 34.9968 13.0032 34.9968 12.9938C34.9406 12.8719 34.9781 12.3094 34.9968 12.1781L34.8656 11.4844L34.4812 12.6469C34.4718 12.7969 34.3406 13.2938 33.8156 13.2938C33.2343 13.2938 33.2062 13.7907 33.2062 13.8094C33.2062 13.8188 33.1968 13.8282 33.1968 13.8375C33.1968 13.8375 33.1781 13.875 33.1781 13.9782L33.2624 13.8563C33.2718 13.8375 33.2906 13.8375 33.3093 13.8375H33.3281C33.4312 13.8563 33.6843 13.8938 34.0968 13.5844C34.1156 13.5656 34.1437 13.575 34.1624 13.5938C34.1812 13.6125 34.1812 13.6406 34.1624 13.6594C33.9562 13.875 33.9281 14.0063 33.9281 14.0907C33.9374 14.1563 33.9749 14.1938 33.9843 14.1938C34.0031 14.2031 34.0124 14.2219 34.0031 14.2407C34.0031 14.2407 33.9656 14.3907 34.0312 14.4938C34.0499 14.5219 34.0687 14.5407 34.0968 14.5594C34.0687 14.4469 34.1062 14.3625 34.1062 14.3625C34.1156 14.3438 34.1249 14.3344 34.1437 14.3344C34.1624 14.3344 34.5281 14.2875 34.5281 13.8282C34.5281 13.8188 34.5281 13.8 34.5281 13.7907C34.5281 13.7625 34.5468 13.7438 34.5749 13.7438C34.6031 13.7438 34.6218 13.7625 34.6218 13.7907C34.6031 13.7813 34.6031 13.7907 34.6031 13.8094ZM39.8999 10.9875C39.7781 10.9875 39.6468 10.9688 39.5156 10.9032C39.0562 10.6969 34.9687 8.1844 34.7906 8.08127C34.7718 8.0719 34.7624 8.05315 34.7718 8.0344C34.7718 8.01565 34.7906 7.9969 34.8093 7.9969L42.0656 6.00002C42.0749 6.00002 42.0843 6.00002 42.0937 6.00002L42.3468 6.09377C42.6656 5.95315 45.5156 4.7344 45.7874 4.4719C45.7968 4.46252 45.8062 4.46252 45.8249 4.46252C45.8343 4.46252 45.8531 4.4719 45.8624 4.48127C45.8906 4.5094 45.8906 4.55627 45.8718 4.61252C45.8062 4.81877 45.4593 5.23127 44.8781 5.66252C45.1874 5.4844 45.4781 5.30627 45.7218 5.15627C46.3031 4.80002 46.6874 4.56565 46.8656 4.5844C46.8937 4.59377 46.9312 4.61252 46.9312 4.71565C46.9312 4.75315 46.9218 5.30627 45.9374 6.0469C46.3687 5.80315 46.7156 5.5969 46.9593 5.4469C47.3624 5.20315 47.4281 5.16565 47.4749 5.19377C47.4937 5.20315 47.5031 5.2219 47.5031 5.24065C47.5031 5.2594 47.5031 5.2969 47.4749 5.36252C47.4281 5.50315 47.2124 5.95315 46.4999 6.50627C46.9124 6.3094 47.1093 6.25315 47.1843 6.30002C47.2031 6.3094 47.2124 6.33753 47.2218 6.35627C47.2312 6.3844 47.2124 6.43128 47.1468 6.54378C46.9874 6.76877 46.7062 7.0969 46.2843 7.4344C46.3781 7.38753 46.4437 7.36877 46.4906 7.36877C46.5093 7.36877 46.5374 7.38753 46.5374 7.4344C46.5374 7.51877 46.3312 8.04377 45.4874 8.57815C44.9718 8.90627 44.1187 9.29065 42.7781 9.50628C42.7874 9.51565 42.7874 9.52502 42.7874 9.5344C42.7968 9.58127 42.7593 9.61877 42.6749 9.6469C42.5999 9.70315 41.8968 10.2094 40.9218 10.2375C41.1281 10.3031 41.1562 10.3313 41.1749 10.4063C41.1749 10.4156 41.1749 10.4344 41.1749 10.4438C41.1281 10.5375 40.8562 10.6219 40.4718 10.6313C40.5468 10.6594 40.5843 10.6969 40.5937 10.7438C40.5937 10.7531 40.5937 10.7532 40.5937 10.7625C40.5937 10.7719 40.5843 10.8094 40.4437 10.875C40.3499 10.9032 40.1437 10.9875 39.8999 10.9875ZM34.9312 8.06252C35.5499 8.4469 39.1312 10.6407 39.5531 10.8282C39.9281 11.0063 40.3593 10.8188 40.4624 10.7438C40.4062 10.7157 40.2281 10.6688 40.0593 10.6219C40.0499 10.6219 40.0406 10.6125 40.0218 10.6125C39.6843 10.575 39.3093 10.4719 38.9437 10.275C38.9249 10.2656 38.9156 10.2375 38.9249 10.2094C38.9343 10.1906 38.9624 10.1719 38.9812 10.1906C39.3749 10.35 39.7499 10.4531 40.0312 10.5188C40.5562 10.5844 40.9593 10.4906 41.0531 10.4156C41.0156 10.3688 40.8843 10.3313 40.4999 10.2281C40.2281 10.2 39.9374 10.125 39.6468 9.99377C39.6281 9.9844 39.6093 9.95627 39.6187 9.93752C39.6281 9.91878 39.6562 9.90002 39.6749 9.9094C39.8906 9.96565 40.0687 10.0125 40.2187 10.0594C40.3312 10.0875 40.4249 10.1156 40.5093 10.1344C41.6999 10.2656 42.5906 9.59065 42.5999 9.58127L42.6093 9.5719C42.5718 9.5719 42.5062 9.56252 42.4218 9.56252C41.9999 9.61877 41.5218 9.65627 41.0062 9.66565C40.9781 9.66565 40.9593 9.6469 40.9593 9.61877C40.9593 9.59065 40.9781 9.5719 40.9968 9.5719C41.7562 9.4969 42.1874 9.46877 42.4312 9.46877C45.5531 9.07503 46.2843 7.74378 46.3968 7.48128C46.3031 7.5094 46.1437 7.61252 45.9562 7.72502C45.7593 7.8469 45.4968 7.9969 45.1874 8.15627C44.7281 8.40002 44.2031 8.62502 43.6124 8.7844C42.5906 9.07502 41.3156 9.18752 39.8624 8.81252C39.8343 8.80315 39.8249 8.7844 39.8249 8.75628C39.8343 8.72815 39.8531 8.71877 39.8812 8.71877C41.0624 8.99065 42.0937 8.99065 42.9937 8.83127C43.8843 8.66252 44.6249 8.34378 45.1874 8.05315C45.3937 7.94065 45.5812 7.81877 45.7499 7.6969C46.6312 7.08752 47.0812 6.48752 47.0999 6.3844C46.9968 6.36565 46.4812 6.61877 45.9749 6.86252C45.5249 7.14377 44.9437 7.4344 44.1937 7.71565C43.9593 7.8094 43.7531 7.8844 43.5937 7.9219C43.5656 7.93127 43.5468 7.91252 43.5374 7.8844C43.5281 7.85627 43.5468 7.83752 43.5656 7.82815C43.7718 7.76252 43.9687 7.68753 44.1562 7.6219C44.5968 7.4344 45.1406 7.16252 45.6374 6.91878C45.7406 6.8719 45.8343 6.82503 45.9187 6.77815C47.0343 6.07502 47.3156 5.45627 47.3718 5.2969C47.2968 5.3344 47.1468 5.42815 46.9781 5.5219C46.5562 5.7844 45.8437 6.21565 44.8968 6.67502C44.2687 7.00315 43.4343 7.35002 42.3468 7.6969C41.9906 7.8094 41.6062 7.9219 41.2124 8.02502C41.1843 8.0344 41.1656 8.01565 41.1562 7.98752C41.1468 7.9594 41.1656 7.94065 41.1937 7.93127C41.5874 7.82815 41.9624 7.71565 42.2999 7.61252C43.3031 7.2844 44.1749 6.91877 44.9062 6.56252C46.2281 5.8594 46.6406 5.25002 46.7624 4.94065C46.8187 4.80002 46.8187 4.70627 46.8093 4.66877C46.6499 4.66877 46.2468 4.91252 45.7406 5.2219C45.1874 5.5594 44.4749 6.00002 43.6593 6.37502C43.1156 6.6469 42.4874 6.88127 41.7749 7.05002C41.7468 7.0594 41.7281 7.04065 41.7187 7.01253C41.7093 6.9844 41.7281 6.96565 41.7562 6.95627C42.4218 6.80627 43.0593 6.55315 43.6406 6.28127C44.7937 5.70002 45.5062 4.9969 45.7031 4.65002C45.7124 4.63127 45.7218 4.61252 45.7312 4.59377C45.1406 4.96877 42.4406 6.1219 42.3187 6.17815C42.2999 6.18752 42.2906 6.17815 42.2718 6.17815C42.2624 6.17815 42.2624 6.16877 42.2624 6.16877L42.0374 6.0844L34.9312 8.06252Z" fill="black"/>
<path fill-rule="evenodd" clip-rule="evenodd" d="M36.9563 11.2781C36.975 11.2875 37.4344 11.8031 37.8844 11.775C38.0531 11.6344 37.5375 11.3344 37.5375 11.2594C37.725 11.4281 38.4844 12.0844 38.9812 11.85C39.1687 11.5688 38.625 11.6156 38.025 10.8563C38.4469 11.1375 39.4969 11.7469 39.9938 11.5125C40.1906 11.2875 38.8969 10.5844 38.4563 10.0406L37.3313 9.46875L35.8125 10.7156L36.9563 11.2781Z" fill="#EF7D00"/>
<path d="M38.7469 11.9438C38.4844 11.9438 38.1937 11.8031 37.95 11.6438C37.9594 11.6625 37.9687 11.6906 37.9594 11.7094C37.9594 11.7469 37.9406 11.7844 37.9125 11.8125C37.9031 11.8219 37.8938 11.8219 37.8844 11.8219C37.6031 11.8406 37.2938 11.6719 36.9469 11.3344C36.9375 11.325 36.9281 11.3156 36.9281 11.3156C36.9187 11.3156 36.9187 11.3063 36.9187 11.3063L35.7937 10.7625C35.775 10.7531 35.7656 10.7438 35.7656 10.725C35.7656 10.7063 35.7656 10.6969 35.7844 10.6875L37.3031 9.44065C37.3219 9.43127 37.3406 9.43127 37.35 9.43127L38.475 10.0031C38.4844 10.0031 38.4844 10.0125 38.4938 10.0125C38.6813 10.2375 39.0281 10.5094 39.3375 10.7438C39.7781 11.0813 40.05 11.2875 40.0594 11.4469C40.0594 11.4844 40.05 11.5219 40.0312 11.55C40.0312 11.5594 40.0219 11.5594 40.0125 11.5594C39.5625 11.775 38.7281 11.3438 38.2781 11.0719C38.4844 11.2781 38.6813 11.4 38.8219 11.4938C38.9625 11.5781 39.0469 11.6344 39.0656 11.7281C39.075 11.775 39.0656 11.8219 39.0188 11.8875C39.0094 11.8969 39.0094 11.8969 39 11.9063C38.925 11.9344 38.8312 11.9438 38.7469 11.9438ZM37.5375 11.2125C37.5469 11.2125 37.5563 11.2125 37.5656 11.2219C37.8375 11.4656 38.5031 12 38.9437 11.8125C38.9625 11.7844 38.9719 11.7563 38.9625 11.7375C38.9531 11.6906 38.8687 11.6344 38.7562 11.5688C38.5687 11.4469 38.2781 11.2688 37.9781 10.8844C37.9594 10.8656 37.9688 10.8375 37.9781 10.8281C37.9969 10.8094 38.0156 10.8094 38.0344 10.8188C38.6625 11.2406 39.5344 11.6531 39.9469 11.475C39.9469 11.4656 39.9469 11.4656 39.9469 11.4563C39.9375 11.3344 39.5906 11.0719 39.2625 10.8188C38.9344 10.575 38.6063 10.3219 38.4094 10.0875L37.3219 9.5344L35.8875 10.7156L36.975 11.25C36.9844 11.2594 36.9938 11.2688 37.0031 11.2781C37.3969 11.6625 37.6781 11.7469 37.8562 11.7375C37.8656 11.7281 37.8656 11.7188 37.8656 11.7188C37.8656 11.6438 37.725 11.5219 37.6312 11.4469C37.5281 11.3625 37.4812 11.3156 37.4812 11.2688C37.4812 11.25 37.4906 11.2313 37.5094 11.2219C37.5281 11.2125 37.5281 11.2125 37.5375 11.2125Z" fill="black"/>
<path fill-rule="evenodd" clip-rule="evenodd" d="M35.2406 7.01256C35.2406 7.01256 35.7562 6.71256 37.8281 6.86256C38.0531 6.89069 39.2344 6.45944 39.6187 6.32819C40.2187 6.21569 42.15 5.80319 42.6562 5.40944C43.0312 5.36256 42.5625 6.07506 42.0937 6.25319C41.6062 6.46881 39.8344 7.08756 39.1969 7.00319C39.9562 7.01256 39.5343 7.63131 38.2781 7.34069C38.8781 7.67819 38.6531 7.73444 38.6531 7.73444C38.6531 7.73444 37.5937 7.79069 37.3125 7.54694C38.025 7.81881 37.725 7.92194 37.725 7.92194C37.725 7.92194 37.0031 7.98756 36.6656 7.82819C37.1812 7.98756 36.9187 8.08131 36.9187 8.08131C36.9187 8.08131 36.4969 8.15631 36.15 8.02506C35.7937 7.90319 35.2687 7.02194 35.2406 7.02194V7.01256Z" fill="#EF7D00"/>
<path d="M36.6281 8.14691C36.4781 8.14691 36.3 8.12816 36.1312 8.06253C35.85 7.96878 35.475 7.43441 35.2969 7.17191C35.2594 7.11566 35.2219 7.06878 35.2125 7.05003C35.2031 7.04066 35.1937 7.03128 35.1937 7.01253C35.1937 6.99378 35.2031 6.97503 35.2125 6.96566C35.2312 6.95628 35.7656 6.65628 37.8281 6.80628C38.0156 6.82503 38.9437 6.50628 39.3844 6.34691C39.4687 6.31878 39.5437 6.29066 39.6 6.27191C40.4531 6.11253 42.1594 5.71878 42.6281 5.36253C42.6375 5.35316 42.6469 5.35316 42.6469 5.35316C42.7875 5.33441 42.825 5.41878 42.8344 5.44691C42.8812 5.64378 42.4969 6.14066 42.1125 6.28128C41.7094 6.45941 40.3594 6.93753 39.5625 7.03128C39.5812 7.05003 39.6 7.06878 39.6094 7.09691C39.6375 7.14378 39.6281 7.20941 39.5812 7.25628C39.4594 7.40628 39.0656 7.50941 38.5219 7.42503C38.7281 7.56566 38.7469 7.64066 38.7375 7.68753C38.7281 7.73441 38.6906 7.76253 38.6625 7.77191C38.625 7.77191 38.175 7.80003 37.7906 7.74378C37.8281 7.78128 37.8375 7.81878 37.8375 7.84691C37.8375 7.91253 37.7812 7.95003 37.7437 7.95941H37.7344C37.7156 7.95941 37.35 7.99691 37.0219 7.95003C37.0312 7.96878 37.0312 7.97816 37.0406 7.99691C37.0406 8.07191 36.9562 8.10941 36.9469 8.10941C36.9187 8.12816 36.7969 8.14691 36.6281 8.14691ZM35.3156 7.03128C35.3344 7.05003 35.3531 7.08753 35.3812 7.12503C35.5406 7.35003 35.9156 7.89378 36.1687 7.97816C36.4969 8.10003 36.9094 8.03441 36.9187 8.03441C36.9281 8.03441 36.9469 8.01566 36.9469 8.01566C36.9469 8.01566 36.9375 7.97816 36.7969 7.92191C36.7406 7.91253 36.6937 7.89378 36.6469 7.86566C36.6281 7.85628 36.6187 7.82816 36.6187 7.80941C36.6281 7.79066 36.6562 7.77191 36.675 7.78128C36.7312 7.80003 36.7781 7.81878 36.8156 7.82816C37.1437 7.91253 37.6406 7.87503 37.7062 7.86566C37.7156 7.85628 37.7344 7.84691 37.7344 7.83753C37.7344 7.82816 37.725 7.78128 37.5562 7.69691C37.4344 7.66878 37.3406 7.62191 37.275 7.56566C37.2562 7.54691 37.2562 7.52816 37.2656 7.50941C37.275 7.49066 37.3031 7.48128 37.3219 7.49066C37.4344 7.53753 37.5281 7.57503 37.5937 7.61253C37.9687 7.70628 38.55 7.67816 38.6344 7.67816C38.6437 7.66878 38.625 7.58441 38.25 7.36878C38.2312 7.35941 38.2218 7.33128 38.2312 7.31253C38.2406 7.29378 38.2594 7.27503 38.2875 7.28441C38.9906 7.44378 39.4125 7.31253 39.5062 7.20003C39.5344 7.16253 39.525 7.14378 39.525 7.13441C39.5062 7.09691 39.45 7.05941 39.3187 7.05003C39.2719 7.05003 39.2344 7.05003 39.1969 7.04066C39.1687 7.04066 39.15 7.01253 39.1594 6.99378C39.1687 6.97503 39.1875 6.94691 39.2062 6.94691C39.2531 6.94691 39.2906 6.94691 39.3281 6.95628H39.3375C40.05 6.95628 41.6531 6.39378 42.0844 6.20628C42.4594 6.06566 42.7875 5.60628 42.75 5.47503C42.75 5.46566 42.7406 5.44691 42.6844 5.44691C42.075 5.90628 39.6656 6.36566 39.6375 6.36566C39.5906 6.38441 39.5156 6.41253 39.4312 6.44066C38.7562 6.67503 38.025 6.92816 37.8375 6.90003C36.1312 6.78753 35.475 6.96566 35.3156 7.03128Z" fill="black"/>
<path fill-rule="evenodd" clip-rule="evenodd" d="M36.0656 11.5688L36.1406 12.9376L36.0656 13.0501C36.0375 13.0876 35.1 12.9001 35.2219 13.6126C35.2219 13.9126 35.2219 13.9876 35.4281 14.147C35.3812 13.9595 35.3906 13.8188 35.3906 13.8188C35.3906 13.8188 35.6625 13.9782 35.9156 13.5376C35.7375 13.9688 35.8594 14.1282 35.9062 14.1376C35.9437 14.2126 35.8312 14.5595 36.1875 14.5501C36.0469 14.4188 36.1125 14.2313 36.1125 14.2313C36.1125 14.2313 36.4875 14.1751 36.3562 13.5095C36.4875 13.3782 36.5437 13.5095 36.5437 13.5095C36.5437 13.5095 36.5812 13.9032 36.9094 13.8188C37.05 13.9032 36.8812 14.1188 36.8812 14.1188C36.8812 14.1188 37.1156 14.1188 37.1906 13.9313C37.2562 13.7251 37.3406 13.3688 36.9562 13.2188C36.9094 13.0782 37.1062 13.0688 37.1062 13.0688C37.1062 13.0688 37.35 13.1532 37.425 13.2751C37.5 13.397 37.4719 12.9563 37.1625 12.9001C36.7875 12.9001 36.7687 12.8157 36.7687 12.8063L36.675 11.522L36.0656 11.5688Z" fill="#EF7D00"/>
<path d="M36.1781 14.5969C36.0844 14.5969 36.0094 14.5688 35.9625 14.5219C35.8781 14.4376 35.8781 14.3157 35.8781 14.2313C35.8781 14.2126 35.8781 14.1844 35.8781 14.1657C35.8594 14.1563 35.8406 14.1282 35.8219 14.1001C35.7938 14.0438 35.7656 13.9501 35.8031 13.7626C35.7469 13.8188 35.6813 13.8563 35.6156 13.8657C35.55 13.8844 35.4938 13.8751 35.4469 13.8657C35.4469 13.9219 35.4563 14.0157 35.4844 14.1188C35.4938 14.1376 35.4844 14.1563 35.4656 14.1657C35.4469 14.1751 35.4281 14.1751 35.4094 14.1657C35.1844 13.9876 35.1844 13.9032 35.1844 13.5938C35.1562 13.4251 35.1844 13.2844 35.2688 13.1813C35.4469 12.9751 35.8031 12.9844 35.9719 12.9938C36 12.9938 36.0281 12.9938 36.0375 12.9938L36.0938 12.9094L36.0188 11.5594C36.0188 11.5313 36.0375 11.5126 36.0656 11.5126L36.675 11.4657C36.6844 11.4657 36.7031 11.4657 36.7125 11.4751C36.7219 11.4844 36.7312 11.4938 36.7312 11.5032L36.825 12.7782C36.8344 12.7876 36.9 12.8344 37.1719 12.8344C37.4156 12.8813 37.5094 13.1157 37.5188 13.2282C37.5188 13.2844 37.5094 13.3126 37.4719 13.3219C37.4531 13.3313 37.425 13.3313 37.3969 13.2844C37.3406 13.2001 37.1813 13.1251 37.1156 13.0969C37.0875 13.0969 37.0312 13.1157 37.0219 13.1344C37.0219 13.1438 37.0125 13.1438 37.0125 13.1626C37.4344 13.3407 37.2938 13.7813 37.2562 13.9219C37.1719 14.1376 36.9094 14.1376 36.9 14.1376C36.8813 14.1376 36.8625 14.1282 36.8625 14.1094C36.8531 14.0907 36.8531 14.0719 36.8719 14.0626C36.8906 14.0344 36.9563 13.9407 36.9469 13.8751C36.9469 13.8657 36.9375 13.8469 36.9281 13.8376C36.8344 13.8563 36.75 13.8469 36.6844 13.8001C36.5625 13.7157 36.525 13.5376 36.525 13.5001C36.525 13.4907 36.5062 13.4813 36.4969 13.4719C36.4781 13.4719 36.4594 13.4813 36.4313 13.5001C36.4781 13.7626 36.4594 13.9688 36.3562 14.1001C36.2906 14.1938 36.2156 14.2219 36.1687 14.2407C36.1594 14.2876 36.15 14.4001 36.2344 14.4844C36.2438 14.4938 36.2531 14.5219 36.2438 14.5313C36.2344 14.5501 36.2156 14.5594 36.1969 14.5594C36.1875 14.5969 36.1781 14.5969 36.1781 14.5969ZM35.9156 13.4907C35.925 13.4907 35.925 13.4907 35.9344 13.5001C35.9531 13.5094 35.9625 13.5376 35.9531 13.5563C35.7938 13.9407 35.8875 14.0813 35.9156 14.0907C35.9344 14.0907 35.9344 14.1001 35.9438 14.1188C35.9531 14.1469 35.9625 14.1844 35.9625 14.2313C35.9625 14.3063 35.9625 14.4001 36.0188 14.4563C36.0375 14.4751 36.0563 14.4844 36.0844 14.4938C36.0188 14.3626 36.0656 14.2219 36.0656 14.2126C36.075 14.1938 36.0844 14.1844 36.1031 14.1844C36.1031 14.1844 36.1875 14.1657 36.2531 14.0719C36.3375 13.9501 36.3563 13.7626 36.3 13.5188C36.3 13.5001 36.3 13.4907 36.3094 13.4719C36.3656 13.4157 36.4219 13.3969 36.4688 13.4063C36.5344 13.4157 36.5625 13.4813 36.5719 13.4907V13.5001C36.5719 13.5001 36.5906 13.6688 36.6938 13.7438C36.7406 13.7813 36.8062 13.7813 36.8813 13.7626C36.8906 13.7626 36.9094 13.7626 36.9187 13.7719C36.9562 13.8001 36.9844 13.8376 36.9938 13.8751C37.0031 13.9313 36.9844 13.9969 36.9563 14.0438C37.0219 14.0251 37.0969 13.9876 37.125 13.9032C37.2 13.6688 37.2469 13.3782 36.9187 13.2563C36.9094 13.2469 36.9 13.2376 36.8906 13.2282C36.8719 13.1626 36.8906 13.1251 36.9 13.0969C36.9469 13.0219 37.0688 13.0126 37.0781 13.0126C37.0875 13.0126 37.0875 13.0126 37.0969 13.0126C37.1063 13.0126 37.2656 13.0688 37.3688 13.1626C37.3594 13.1344 37.3406 13.1063 37.3219 13.0782C37.2844 13.0219 37.2281 12.9563 37.125 12.9376C36.75 12.9376 36.6938 12.8532 36.6938 12.7969L36.6 11.5594L36.0844 11.5969L36.1875 12.9376C36.1875 12.9469 36.1875 12.9563 36.1781 12.9657L36.1031 13.0782C36.0844 13.1063 36.0563 13.1063 35.9625 13.1063C35.8031 13.1063 35.475 13.0969 35.3344 13.2657C35.2688 13.3501 35.2406 13.4626 35.2688 13.6126C35.2688 13.8469 35.2688 13.9313 35.3531 14.0251C35.3344 13.9032 35.3438 13.8282 35.3438 13.8188C35.3438 13.8001 35.3531 13.7907 35.3719 13.7813C35.3906 13.7719 35.4 13.7719 35.4187 13.7813C35.4281 13.7907 35.6531 13.9126 35.8781 13.5188C35.8875 13.5001 35.8969 13.4907 35.9156 13.4907ZM36.8156 12.7969C36.8156 12.7969 36.8156 12.8063 36.8156 12.7969V12.7969Z" fill="black"/>
<path fill-rule="evenodd" clip-rule="evenodd" d="M37.3687 12.7313C37.3687 12.6657 36.7312 11.8032 36.9 11.7001C37.0594 11.7282 37.3219 12.122 37.5469 11.9907C37.4812 11.8407 37.2844 11.9251 37.0687 11.5313C36.8437 11.0813 36.8156 10.4157 36.0375 9.69385C36.5437 10.4626 37.6687 10.9126 37.725 10.6876C37.7812 10.4626 36.7219 9.61885 36.7781 9.4126C36.9844 9.8251 38.0344 10.7626 38.8031 10.6876C38.8594 10.5001 38.175 10.1438 37.9969 9.80635C37.5 9.46885 36.1781 8.33447 36.1594 8.07197C35.925 7.67822 35.6062 7.34072 35.2312 7.07822C35.1937 7.03135 35.175 6.9751 35.1562 6.91885C34.8562 6.21572 35.25 5.98135 35.4844 5.95322C35.6719 5.9251 35.7281 5.95322 35.8594 5.8876L35.3812 5.7001C35.5969 5.85947 36.1312 5.71885 36.0187 6.16885C36.2531 6.0751 36.7594 5.4751 35.4469 5.34385C35.0156 4.85635 33.2625 4.5751 32.8219 6.7126C32.8594 6.74072 32.8781 6.76885 32.9906 6.84385C32.4281 6.58135 30.9375 6.3751 30.4031 6.28135C28.9406 5.86885 27.4312 4.85635 27.2906 4.97822C27.1031 5.07197 28.1719 6.06572 28.1156 6.08447C27.2812 5.60635 26.4187 5.18447 25.5375 4.80947C24.975 4.60322 24.4219 4.11572 24.3656 4.20947C24.1594 4.63135 25.2562 5.7001 25.4625 5.82197C25.6687 5.94385 27.2719 6.69385 27.2437 6.70322C24.825 5.60635 24.4312 5.4001 24.3 5.27822C24.0844 5.23135 23.5687 4.52822 23.4281 4.5751C23.3437 4.6501 23.5031 5.75635 24.6562 6.2626C24.8437 6.39385 27.1312 7.20947 27.1125 7.2751C27.1125 7.29385 24.4875 6.19697 24.3937 6.1501C23.8875 5.9626 23.2687 5.26885 23.1562 5.34385C23.0437 5.41885 23.4375 6.16885 23.9437 6.40322C24.2156 6.51572 25.2375 7.02197 26.1562 7.34072C26.2125 7.36885 24.4969 6.69385 23.6719 6.35635C23.2969 6.1501 23.1281 5.8876 23.0719 5.94385C22.9781 6.0001 23.2031 7.10635 25.8562 7.7251C25.9219 7.7626 26.7937 7.52822 26.7469 7.55635C26.2594 7.67822 25.7625 7.7626 25.2656 7.81885C25.2375 7.89385 25.4344 8.2876 26.8031 8.2126C26.9719 8.20322 27.9281 7.86572 27.8437 7.93135C27.3844 8.10947 26.925 8.25947 26.4562 8.39072C26.3719 8.39072 25.9312 8.44697 25.9125 8.48447C25.8937 8.55947 26.2406 8.84072 26.9719 8.87822C27.6281 8.91572 28.8656 8.48447 28.8469 8.5126C28.8094 8.54072 27.6469 8.94385 27.6187 8.9626C27.5719 8.99072 27.15 9.00947 27.1312 9.04697C27.0937 9.13135 27.75 9.74072 29.6719 9.08447C29.4844 9.34697 28.5469 9.5251 28.5469 9.57197C28.5469 9.60947 28.7531 9.80635 29.0812 9.88135C29.2406 9.91885 29.4656 9.90947 29.6719 9.88135C30.0469 9.80635 30.4219 9.66572 30.9187 9.20635C30.975 9.34697 29.6906 10.0032 29.7469 10.0595C30.0281 10.322 30.9562 10.0313 31.0125 9.99385C31.0781 9.96572 32.7937 8.99072 32.7937 8.86885C32.8219 9.01885 30.5719 10.247 30.6 10.2938C30.7406 10.5188 31.5094 10.2845 31.5375 10.2563L32.55 9.7126C32.5781 9.70322 31.4437 10.3688 31.5375 10.4813C31.4906 10.922 33.3187 10.1813 33.4594 10.0876C33.525 10.0407 32.5781 10.5001 32.5781 10.7157C32.8875 11.2313 33.8625 11.072 34.0125 10.9595C34.0875 10.9032 33.9187 11.3345 33.975 11.297C34.0875 11.1751 34.1812 11.0438 34.2562 10.8938C34.2375 11.0438 34.125 11.2688 34.0687 11.5313C34.0031 11.7845 33.9844 12.0845 33.9 12.3938C33.8812 12.5251 34.5 12.122 34.4062 11.1563C34.4625 11.6626 34.2187 12.6001 34.2844 12.6563C34.4062 12.7501 34.7719 12.1876 34.8094 11.8032C34.9125 11.9907 35.1375 12.3938 35.3344 12.4876C35.3156 12.197 35.3344 12.2063 35.2406 11.9251C35.2969 11.5407 35.3062 11.0157 35.3156 10.4157C35.8406 11.4188 36.0562 11.8501 35.9062 12.6188C36.0656 12.6845 36.3094 12.0751 36.2906 11.7751C36.4125 12.2907 36.8437 12.6751 37.3687 12.7313Z" fill="#EF7D00"/>
<path d="M37.3687 12.7875C37.3687 12.7782 37.3687 12.7875 37.3687 12.7875C36.9 12.7407 36.5062 12.4407 36.3187 12.0282C36.2718 12.2719 36.15 12.5625 36.0187 12.6563C35.9625 12.6938 35.9156 12.6938 35.8875 12.675C35.8687 12.6657 35.85 12.6375 35.8593 12.6188C36 11.9063 35.8031 11.475 35.3718 10.6313C35.3625 11.1282 35.3531 11.5875 35.2968 11.9344C35.3718 12.1594 35.3718 12.1969 35.3812 12.3657C35.3812 12.4032 35.3812 12.45 35.3906 12.4969C35.3906 12.5157 35.3812 12.5344 35.3718 12.5438C35.3531 12.5532 35.3343 12.5532 35.325 12.5438C35.1656 12.4688 34.9875 12.2063 34.8468 11.9625C34.7625 12.2813 34.5375 12.6469 34.3875 12.7125C34.3312 12.7407 34.2843 12.7219 34.2656 12.7032C34.2187 12.6657 34.2281 12.5813 34.2843 12.2063C34.2843 12.1782 34.2937 12.1594 34.2937 12.1313C34.2 12.3094 34.0781 12.4125 34.0125 12.45C33.9562 12.4782 33.9187 12.4875 33.8906 12.4688C33.8718 12.45 33.8531 12.4313 33.8625 12.3938C33.9093 12.225 33.9375 12.0657 33.9562 11.9063C33.975 11.775 33.9937 11.6438 34.0312 11.5313C34.05 11.4282 34.0781 11.3344 34.1156 11.25C34.0875 11.2875 34.0593 11.3157 34.0312 11.3438L34.0218 11.3532C34.0031 11.3625 33.975 11.3625 33.9562 11.3532C33.9187 11.325 33.9281 11.2782 33.9656 11.1375C33.975 11.1094 33.9843 11.0813 33.9843 11.0532C33.8156 11.1188 33.45 11.175 33.1218 11.1094C32.8593 11.0532 32.6625 10.9313 32.55 10.7532C32.5406 10.7438 32.5406 10.7344 32.5406 10.725C32.5406 10.6407 32.6343 10.5469 32.7656 10.4438C32.3062 10.6032 31.7625 10.7532 31.575 10.6407C31.5281 10.6125 31.5 10.5657 31.5 10.5C31.5 10.4907 31.4906 10.4719 31.5 10.4625C31.5093 10.4157 31.5562 10.35 31.6687 10.2657L31.5843 10.3125C31.5 10.3594 31.0687 10.4813 30.8062 10.4438C30.6937 10.4344 30.6187 10.3875 30.5718 10.3313C30.5625 10.3219 30.5625 10.3032 30.5625 10.2938C30.5718 10.2657 30.5812 10.2563 30.7406 10.1532C30.4218 10.2375 29.9343 10.3032 29.7281 10.1063C29.7187 10.0969 29.7093 10.0688 29.7093 10.0594C29.7093 10.0219 29.7468 9.99379 29.8875 9.90004C29.8218 9.91879 29.7562 9.92816 29.7 9.94691C29.55 9.96566 29.2875 9.99379 29.0906 9.94691C28.7625 9.87191 28.5187 9.66566 28.5187 9.59066C28.5187 9.53441 28.5562 9.52504 28.7906 9.45941C28.95 9.41254 29.1843 9.34691 29.3625 9.26254C27.6937 9.74066 27.1687 9.19691 27.1406 9.16879C27.0843 9.11254 27.0843 9.06566 27.1031 9.04691C27.1218 9.00004 27.1781 8.99066 27.4125 8.96254C27.4875 8.95316 27.5906 8.94379 27.6093 8.93441C27.6187 8.92504 27.6468 8.91566 27.8343 8.85004C27.5343 8.91566 27.225 8.96254 26.9812 8.94379C26.3625 8.91566 25.9968 8.70941 25.9031 8.57816C25.875 8.55004 25.8656 8.51254 25.875 8.48441V8.47504C25.9125 8.40004 26.3812 8.36254 26.4562 8.35316C26.5406 8.33441 26.6156 8.30629 26.7 8.28754C25.65 8.32504 25.35 8.08129 25.2656 7.96879C25.2281 7.91254 25.2093 7.86566 25.2281 7.81879C25.2375 7.80004 25.2468 7.79066 25.275 7.78129C25.3968 7.77191 25.5187 7.75316 25.6406 7.73441C23.7093 7.23754 23.0812 6.45941 23.025 6.05629C23.0156 5.97191 23.0343 5.93441 23.0531 5.91566C23.1093 5.85941 23.1843 5.92504 23.2875 6.01879C23.3812 6.10316 23.5218 6.22504 23.7093 6.32816C23.3625 6.06566 23.1093 5.62504 23.1 5.42816C23.0906 5.36254 23.1187 5.33441 23.1375 5.31566C23.2218 5.25941 23.3343 5.35316 23.6156 5.57816C23.7 5.64379 23.7937 5.71879 23.8875 5.79379C23.5781 5.46566 23.4187 5.09066 23.3718 4.80004C23.3531 4.66879 23.3625 4.57504 23.4 4.54691C23.4093 4.54691 23.4093 4.53754 23.4187 4.53754C23.5125 4.50941 23.6531 4.64066 23.8968 4.87504C24.0468 5.02504 24.2343 5.21254 24.3187 5.23129C24.3281 5.23129 24.3375 5.24066 24.3468 5.24066C24.4218 5.31566 24.6187 5.42816 25.2937 5.74691C24.9281 5.42816 24.1406 4.58441 24.3281 4.19066C24.3375 4.17191 24.3562 4.15316 24.375 4.15316C24.4406 4.13441 24.5437 4.20004 24.7687 4.34066C24.9843 4.47191 25.275 4.65941 25.5562 4.76254C26.3531 5.10004 27.15 5.48441 27.9093 5.90629C27.8906 5.87816 27.8625 5.85941 27.8437 5.83129C27.4031 5.36254 27.2062 5.11879 27.225 4.99691C27.2343 4.96879 27.2437 4.95004 27.2718 4.93129C27.3562 4.86566 27.5718 4.96879 28.1625 5.26879C28.7718 5.57816 29.5968 5.99066 30.4218 6.22504C30.5062 6.24379 30.6281 6.26254 30.7593 6.28129C31.3312 6.37504 32.2312 6.51566 32.775 6.69379C33.0187 5.51254 33.6281 5.11879 34.1062 4.98754C34.6593 4.83754 35.2312 5.01566 35.475 5.27816C36.0281 5.33441 36.3281 5.48441 36.3656 5.72816C36.3937 5.94379 36.1781 6.15004 36.0375 6.20629C36.0187 6.21566 36 6.20629 35.9812 6.19691C35.9625 6.18754 35.9625 6.16879 35.9625 6.15004C35.9812 6.06566 35.9812 6.00004 35.9531 5.95316C35.9437 5.93441 35.925 5.91566 35.8968 5.90629C35.8875 5.91566 35.8875 5.92504 35.8781 5.92504C35.7843 5.97191 35.7187 5.97191 35.6437 5.98129C35.6062 5.98129 35.55 5.99066 35.4937 6.00004C35.3812 6.00941 35.2406 6.07504 35.1656 6.21566C35.0718 6.37504 35.0906 6.60941 35.2125 6.90004C35.2312 6.95629 35.25 7.00316 35.2781 7.04066C35.6531 7.30316 35.9812 7.65004 36.2156 8.04379C36.2156 8.05316 36.225 8.06254 36.225 8.06254C36.2437 8.27816 37.4625 9.36566 38.0437 9.75941C38.0531 9.76879 38.0531 9.76879 38.0625 9.77816C38.1375 9.92816 38.3343 10.0875 38.5125 10.2375C38.7375 10.425 38.9156 10.5657 38.8781 10.6969C38.8687 10.7157 38.85 10.7344 38.8312 10.7344C38.4187 10.7719 37.9312 10.5375 37.5281 10.2375C37.7156 10.4532 37.8281 10.6032 37.8 10.6969C37.7906 10.725 37.7718 10.7719 37.6875 10.7907C37.5093 10.8188 37.0875 10.6688 36.6843 10.3875C36.8343 10.65 36.9187 10.8938 36.9843 11.1094C37.0312 11.2594 37.0781 11.3907 37.1437 11.5125C37.2656 11.7375 37.3781 11.7938 37.4718 11.8407C37.5375 11.8688 37.5937 11.8969 37.6218 11.9813C37.6312 12.0094 37.6218 12.0375 37.6031 12.0469C37.425 12.15 37.2468 12 37.1062 11.8875C37.05 11.8407 36.9937 11.7938 36.9468 11.775C36.9375 11.85 37.0593 12.0844 37.3125 12.4875C37.425 12.675 37.4531 12.7125 37.4531 12.7407C37.4531 12.7594 37.4437 12.7688 37.4343 12.7782C37.3968 12.7782 37.3781 12.7875 37.3687 12.7875ZM36.2906 11.7282C36.3187 11.7282 36.3375 11.7469 36.3375 11.7657C36.4406 12.225 36.8156 12.5813 37.275 12.6657C37.2468 12.6282 37.2187 12.5813 37.1906 12.5344C36.9656 12.1782 36.7875 11.8688 36.8156 11.7282C36.825 11.7 36.8437 11.6719 36.8625 11.6625C36.8718 11.6532 36.8812 11.6532 36.9 11.6532C36.975 11.6625 37.0406 11.7282 37.1343 11.7938C37.2375 11.8782 37.35 11.9719 37.4531 11.9625C37.4343 11.9532 37.4156 11.9344 37.3875 11.925C37.2937 11.8782 37.1531 11.8125 37.0218 11.5594C36.9562 11.4375 36.9093 11.2969 36.8625 11.1469C36.7687 10.8657 36.6562 10.5469 36.4125 10.2C36.2531 10.0594 36.1125 9.90004 35.9906 9.73129C35.9718 9.71254 35.9812 9.68441 36 9.66566C36.0187 9.64691 36.0468 9.64691 36.0656 9.66566C36.2343 9.82504 36.3656 9.97504 36.4781 10.125C36.9187 10.5094 37.4625 10.725 37.6312 10.6969C37.6406 10.6969 37.6593 10.6875 37.6687 10.6782C37.6875 10.5938 37.3968 10.275 37.1906 10.0688C36.8718 9.74066 36.6843 9.52504 36.7218 9.40316C36.7312 9.38441 36.7406 9.36566 36.7687 9.36566C36.7875 9.36566 36.8062 9.37504 36.8156 9.39379C37.0125 9.79691 37.9968 10.6782 38.7375 10.6407C38.7093 10.5657 38.55 10.4344 38.4093 10.3219C38.2312 10.1719 38.0343 10.0125 37.9406 9.84379C37.5093 9.54379 36.15 8.41879 36.0937 8.09066C35.8687 7.70629 35.55 7.36879 35.1843 7.12504C35.175 7.12504 35.175 7.11566 35.175 7.11566C35.1375 7.05941 35.1093 7.00316 35.0906 6.93754C34.9593 6.62816 34.9406 6.36566 35.0531 6.16879C35.175 5.95316 35.4 5.91566 35.4562 5.90629C35.5218 5.89691 35.5781 5.89691 35.6156 5.88754C35.6343 5.88754 35.6625 5.88754 35.6812 5.87816L35.5312 5.82191C35.4562 5.80316 35.3812 5.78441 35.3343 5.73754C35.3156 5.71879 35.3062 5.69066 35.3156 5.67191C35.325 5.65316 35.3531 5.64379 35.3812 5.65316L35.5593 5.72816C35.5875 5.73754 35.625 5.73754 35.6531 5.74691C35.7937 5.77504 35.9437 5.80316 36.0187 5.91566C36.0468 5.96254 36.0656 6.00941 36.0562 6.07504C36.15 6.00004 36.2437 5.87816 36.2343 5.75629C36.2062 5.57816 35.9156 5.44691 35.4187 5.40004C35.4093 5.40004 35.3906 5.39066 35.3812 5.38129C35.1656 5.13754 34.6125 4.96879 34.0968 5.10004C33.6562 5.22191 33.0843 5.58754 32.85 6.69379L32.8593 6.70316C32.8875 6.72191 32.9156 6.75004 32.9906 6.80629C33.0093 6.82504 33.0187 6.85316 33.0093 6.87191C33 6.90004 32.9625 6.90004 32.9437 6.89066C32.4843 6.67504 31.3781 6.49691 30.7125 6.39379C30.5718 6.37504 30.4593 6.35629 30.3656 6.33754C29.5312 6.10316 28.6968 5.68129 28.0781 5.37191C27.7218 5.19379 27.3562 5.00629 27.2906 5.02504C27.2906 5.12816 27.7031 5.57816 27.8812 5.76566C28.1343 6.02816 28.1437 6.05629 28.1343 6.09379C28.1343 6.11254 28.1156 6.12191 28.0968 6.13129C28.0875 6.13129 28.0687 6.13129 28.0593 6.13129C27.2343 5.66254 26.3625 5.23129 25.4906 4.85629C25.2 4.75316 24.9 4.56566 24.6843 4.42504C24.5625 4.35004 24.4312 4.26566 24.375 4.24691C24.225 4.63129 25.2562 5.65316 25.4625 5.77504C25.5656 5.83129 26.025 6.05629 26.4281 6.25316C26.9625 6.50629 27.1593 6.60004 27.225 6.64691H27.2343C27.2718 6.66566 27.2625 6.68441 27.2625 6.69379C27.2625 6.71254 27.2437 6.73129 27.225 6.74066C27.2156 6.74066 27.1968 6.74066 27.1875 6.74066C24.7593 5.63441 24.3843 5.43754 24.2437 5.31566C24.1218 5.27816 23.9531 5.10941 23.7843 4.93129C23.6718 4.81879 23.5031 4.64066 23.4281 4.62191C23.4187 4.66879 23.4375 4.81879 23.5125 5.03441C23.625 5.33441 23.9156 5.88754 24.6468 6.21566C24.6468 6.21566 24.6562 6.21566 24.6562 6.22504C24.8437 6.30941 25.1062 6.41254 25.3968 6.53441C25.5468 6.59066 25.7062 6.65629 25.8562 6.71254C27.15 7.20941 27.15 7.21879 27.1312 7.29379C27.1312 7.30316 27.1218 7.31254 27.1125 7.32191C27.0843 7.34066 27.075 7.34066 25.7343 6.78754C25.6218 6.74066 25.5 6.69379 25.3875 6.64691C24.9656 6.47816 24.6843 6.36566 24.6093 6.31879C24.4593 6.25316 24.3656 6.21566 24.3468 6.20629C24.075 6.10316 23.7656 5.85941 23.5218 5.66254C23.3906 5.55004 23.2218 5.41879 23.1656 5.40941C23.1468 5.53129 23.475 6.15941 23.9437 6.37504C24.0093 6.40316 24.1312 6.45941 24.2906 6.53441C24.5437 6.64691 24.8906 6.80629 25.2656 6.96566C25.6687 7.12504 26.0062 7.25629 26.1187 7.30316C26.1281 7.30316 26.1468 7.31254 26.1562 7.31254C26.1656 7.32191 26.1843 7.33129 26.1843 7.34066C26.1937 7.35004 26.1937 7.36879 26.1843 7.37816C26.175 7.39691 26.175 7.40629 26.1187 7.39691V7.40629C25.8281 7.30316 25.5187 7.18129 25.2281 7.05941C25.2093 7.05004 25.2 7.05004 25.1812 7.04066C24.5625 6.79691 23.9812 6.56254 23.6343 6.42191C23.4281 6.30941 23.2875 6.17816 23.1937 6.10316C23.1562 6.07504 23.1187 6.03754 23.0906 6.01879C23.0906 6.05629 23.1 6.12191 23.1562 6.23441C23.3062 6.52504 23.8687 7.23754 25.8468 7.69691C25.8562 7.69691 25.8562 7.69691 25.8562 7.70629C25.8562 7.70629 25.8656 7.70629 25.875 7.70629C25.9406 7.69691 26.0156 7.67816 26.0812 7.66879C26.2125 7.64066 26.3718 7.60316 26.475 7.57504C26.7468 7.50941 26.7468 7.50941 26.7656 7.55629C26.775 7.58441 26.7656 7.61254 26.7468 7.62191C26.7468 7.62191 26.7375 7.62191 26.7375 7.63129C26.5031 7.68754 26.2593 7.74379 26.025 7.78129C26.0156 7.78129 26.0062 7.78129 25.9968 7.78129C25.7625 7.81879 25.5375 7.85629 25.3031 7.88441C25.3125 7.89379 25.3218 7.91254 25.3406 7.93129C25.4343 8.02504 25.7531 8.23129 26.775 8.17504C26.8593 8.17504 27.15 8.08129 27.3937 8.00629C27.8343 7.86566 27.8437 7.86566 27.8718 7.91254C27.8812 7.93129 27.8718 7.96879 27.8531 7.98754L27.8437 7.99691C27.3843 8.17504 26.925 8.32504 26.4562 8.45629H26.4468C26.3718 8.45629 26.0625 8.49379 25.9593 8.52191C26.0156 8.58754 26.3343 8.80316 26.9625 8.84066C27.45 8.86879 28.2843 8.62504 28.6406 8.52191C28.8468 8.46566 28.8468 8.46566 28.875 8.49379C28.8843 8.51254 28.8843 8.53129 28.875 8.55004C28.875 8.55941 28.8656 8.55941 28.8656 8.55941C28.8468 8.57816 28.7062 8.62504 28.1156 8.84066C27.8906 8.92504 27.6562 9.00941 27.6281 9.01879C27.6 9.03754 27.5437 9.04691 27.3937 9.05629C27.3281 9.06566 27.2343 9.07504 27.1875 9.08441C27.2062 9.11254 27.2531 9.15004 27.3281 9.18754C27.5531 9.30941 28.2281 9.52504 29.6437 9.04691C29.6625 9.03754 29.6906 9.04691 29.7 9.06566C29.7093 9.08441 29.7093 9.11254 29.7 9.12191C29.5593 9.31879 29.0906 9.45004 28.7812 9.54379C28.7156 9.56254 28.65 9.58129 28.6031 9.60004C28.6593 9.66566 28.8281 9.78754 29.0718 9.84379C29.2031 9.87191 29.4093 9.87191 29.6437 9.84379C30.0281 9.76879 30.3843 9.62816 30.8625 9.17816C30.8718 9.16879 30.8906 9.15941 30.9093 9.16879C30.9281 9.16879 30.9375 9.18754 30.9468 9.19691C30.9843 9.30004 30.8062 9.43129 30.1875 9.80629C30.0375 9.90004 29.8593 10.0032 29.7937 10.0594C30.0843 10.2469 30.8906 9.99379 30.9562 9.95629C31.1156 9.88129 32.625 9.00004 32.7187 8.86879C32.7187 8.85004 32.7375 8.83129 32.7656 8.83129C32.7937 8.83129 32.8125 8.85004 32.8218 8.86879C32.8406 8.96254 32.6343 9.12191 31.3125 9.90004C31.0312 10.0688 30.7406 10.2375 30.6468 10.3032C30.8156 10.425 31.4156 10.2563 31.4812 10.2188L32.5031 9.67504C32.5125 9.66566 32.5312 9.66566 32.5406 9.67504C32.55 9.67504 32.5687 9.69379 32.5687 9.70316C32.5875 9.75004 32.5781 9.75004 32.4656 9.82504C31.7343 10.2844 31.575 10.425 31.5562 10.4813C31.5562 10.4907 31.5562 10.5 31.5562 10.5094C31.5562 10.5469 31.5656 10.5563 31.5843 10.5657C31.7906 10.6875 32.7562 10.35 33.1968 10.1625C33.3187 10.0969 33.4125 10.0594 33.4218 10.05C33.45 10.0407 33.4687 10.0594 33.4781 10.0782C33.4875 10.0969 33.4781 10.1344 33.4593 10.1438C33.4406 10.1532 33.3656 10.1907 33.2625 10.2375C33.0187 10.3688 32.625 10.6032 32.6062 10.7157C32.7 10.8657 32.8687 10.9594 33.1031 11.0063C33.4781 11.0813 33.8812 10.9875 33.9562 10.9313C33.9937 10.9032 34.0218 10.9219 34.0312 10.9219C34.0781 10.95 34.0593 11.0063 34.0312 11.1375C34.0968 11.0532 34.1437 10.9688 34.1906 10.875C34.2 10.8563 34.2281 10.8375 34.2562 10.8469C34.2843 10.8563 34.2937 10.875 34.2937 10.9032C34.2843 10.9782 34.2468 11.0813 34.2093 11.1844C34.1718 11.2875 34.1343 11.4094 34.1062 11.5407C34.0781 11.6532 34.0593 11.7844 34.0312 11.9157C34.0125 12.0563 33.9843 12.1969 33.9468 12.3469C34.0593 12.2719 34.2843 12.0188 34.3312 11.5594C34.3406 11.4469 34.3406 11.3438 34.3406 11.25C34.3406 11.2219 34.3406 11.1938 34.3312 11.1657C34.3312 11.1375 34.35 11.1094 34.3781 11.1094C34.4062 11.1094 34.4343 11.1282 34.4343 11.1563C34.4343 11.1844 34.4437 11.2125 34.4437 11.2407C34.4531 11.3625 34.4437 11.475 34.4343 11.5782C34.4156 11.7938 34.3781 12.0282 34.35 12.225C34.3218 12.3844 34.2937 12.5625 34.3031 12.6282C34.3125 12.6282 34.3218 12.6188 34.3406 12.6094C34.4812 12.5063 34.7062 12.1125 34.7343 11.8125C34.7343 11.7938 34.7531 11.775 34.7718 11.7657C34.7906 11.7563 34.8187 11.775 34.8281 11.7938C34.9031 11.925 35.0812 12.2532 35.25 12.4032C35.25 12.3938 35.25 12.3844 35.25 12.375C35.2406 12.2157 35.2406 12.1875 35.1656 11.9625C35.1656 11.9532 35.1656 11.9438 35.1656 11.9344C35.2218 11.5407 35.2312 11.0063 35.2406 10.4344C35.2406 10.4063 35.2593 10.3875 35.2781 10.3875C35.2968 10.3782 35.325 10.3969 35.3343 10.4157C35.8312 11.3719 36.0656 11.8219 35.9437 12.5719C36.075 12.4594 36.225 12.0282 36.2156 11.8032C36.2343 11.7469 36.2531 11.7282 36.2906 11.7282C36.2906 11.7282 36.2812 11.7282 36.2906 11.7282Z" fill="black"/>
<path fill-rule="evenodd" clip-rule="evenodd" d="M28.6312 6.34692C28.6312 6.34692 28.2656 6.6188 27.825 6.60005C27.9375 7.05005 28.8562 6.70317 28.8562 6.70317C28.8562 6.70317 28.4156 7.20005 28.0968 7.27505C28.2843 7.43442 29.0906 7.37817 29.2218 7.30317C29.3531 7.2188 29.5968 6.90942 29.5968 6.90942C29.5968 6.90942 28.7718 7.86567 28.6593 7.8563C28.6312 7.9688 29.5125 7.9313 29.6906 7.76255C29.8781 7.5938 30.3468 7.35005 30.3468 7.35005C30.3468 7.35005 29.1281 8.1938 29.0812 8.1938C29.5312 8.3063 30.4406 8.0438 31.0218 7.68755C30.1593 8.25942 30.0843 8.36255 29.6437 8.55942C30.0375 8.6438 30.2343 8.9063 31.5468 8.33442C32.2968 7.97817 32.7281 7.32192 32.7281 7.32192C32.1562 7.99692 31.4718 8.5688 30.7031 9.00942C30.6562 9.10317 31.5843 9.49692 32.7562 8.2688" fill="#EF7D00"/>
<path d="M31.1156 9.18749C30.9 9.18749 30.7594 9.13124 30.7031 9.09374C30.6375 9.04687 30.6469 8.99999 30.6562 8.98124C30.6562 8.97187 30.6656 8.96249 30.675 8.96249C30.9656 8.79374 31.2563 8.60624 31.5188 8.39999C30.45 8.85937 30.1219 8.75624 29.8125 8.66249C29.7469 8.64374 29.6906 8.62499 29.625 8.60624C29.6062 8.59687 29.5875 8.58749 29.5875 8.55937C29.5875 8.54062 29.5969 8.51249 29.6156 8.50312C29.9062 8.37187 30.0375 8.27812 30.3562 8.06249C30.375 8.05312 30.3844 8.04374 30.4031 8.02499C29.9156 8.21249 29.3906 8.31562 29.0531 8.23124C29.025 8.22187 29.0156 8.20312 29.0156 8.17499C29.0156 8.15624 29.0344 8.13749 29.0531 8.12812C29.0812 8.11874 29.2219 8.02499 29.3906 7.91249C29.1 7.96874 28.7344 7.97812 28.6312 7.91249C28.575 7.88437 28.5844 7.83749 28.5937 7.82812C28.6031 7.79999 28.6219 7.79062 28.65 7.79062C28.6969 7.78124 28.8656 7.60312 29.0813 7.37812C28.7906 7.43437 28.2188 7.44374 28.05 7.30312C28.0313 7.29374 28.0312 7.27499 28.0312 7.25624C28.0312 7.23749 28.05 7.21874 28.0687 7.21874C28.2656 7.17187 28.5094 6.95624 28.6594 6.80624C28.4531 6.86249 28.125 6.91874 27.9187 6.81562C27.8344 6.76874 27.7781 6.70312 27.75 6.59999C27.75 6.58124 27.75 6.57187 27.7594 6.55312C27.7688 6.54374 27.7875 6.53437 27.7969 6.53437C28.2094 6.55312 28.5656 6.29062 28.5656 6.29062C28.5844 6.27187 28.6219 6.28124 28.6406 6.29999C28.6594 6.31874 28.65 6.35624 28.6312 6.37499C28.6125 6.38437 28.2844 6.62812 27.8719 6.63749C27.8906 6.67499 27.9188 6.69374 27.9563 6.72187C28.2188 6.86249 28.8 6.64687 28.8094 6.64687C28.8281 6.63749 28.8562 6.64687 28.8656 6.66562C28.875 6.68437 28.875 6.71249 28.8656 6.73124C28.8469 6.74999 28.5094 7.13437 28.2 7.27499C28.4719 7.35937 29.0719 7.30312 29.1656 7.24687C29.1938 7.22812 29.2219 7.19999 29.2594 7.16249C29.3438 7.06874 29.4375 6.96562 29.5219 6.86249C29.5406 6.84374 29.5688 6.83437 29.5969 6.85312C29.6156 6.87187 29.625 6.89999 29.6062 6.92812C29.5969 6.93749 29.475 7.09687 29.3531 7.21874C29.1094 7.49062 28.875 7.74374 28.7344 7.84687C28.9219 7.87499 29.4938 7.84687 29.6344 7.71562C29.8219 7.54687 30.2813 7.30312 30.3 7.29374C30.3281 7.28437 30.3562 7.29374 30.3656 7.31249C30.375 7.33124 30.375 7.36874 30.3469 7.37812C29.6719 7.84687 29.3531 8.05312 29.2031 8.14687C29.6531 8.18437 30.4219 7.95937 30.9656 7.62187C30.9937 7.60312 31.0219 7.61249 31.0406 7.64062C31.0594 7.66874 31.05 7.69687 31.0219 7.71562C30.7406 7.90312 30.5531 8.03437 30.3938 8.13749C30.1219 8.32499 29.9812 8.41874 29.7656 8.53124C29.7844 8.54062 29.8031 8.54062 29.8219 8.54999C30.1219 8.64374 30.4219 8.73749 31.5 8.27812C31.6875 8.18437 31.8562 8.08124 32.0062 7.96874C32.2406 7.75312 32.4562 7.52812 32.6625 7.28437C32.6812 7.26562 32.7094 7.25624 32.7281 7.27499C32.7469 7.29374 32.7563 7.32187 32.7375 7.34062C32.7281 7.35937 32.4844 7.71562 32.0531 8.05312C31.65 8.41874 31.2187 8.74687 30.7406 9.01874C30.7781 9.03749 30.8625 9.07499 30.9844 9.08437C31.2281 9.10312 31.8844 9.06562 32.6813 8.23124C32.7 8.21249 32.7375 8.21249 32.7562 8.23124C32.775 8.24999 32.775 8.28749 32.7562 8.30624C32.1094 9.01874 31.5094 9.18749 31.1156 9.18749Z" fill="black"/>
<path fill-rule="evenodd" clip-rule="evenodd" d="M35.0062 9C35.0062 9 35.0906 9.375 35.4093 9.65625C35.7281 9.9375 35.7468 10.2188 35.7468 10.2188M34.8562 6.5625C34.8562 6.5625 34.9593 6.90938 35.2875 7.125C35.625 7.33125 36.1312 8.00625 36.1593 8.12812C36.1968 8.26875 36.3937 9.30938 36.375 9.42188M32.8312 7.07812C32.85 7.21875 32.3625 7.85625 33.0375 8.61563C32.4187 9.36563 32.4187 9.45938 32.4187 9.45938C32.4187 9.45938 32.7656 9.64688 33.375 9.12188C34.3875 10.3594 34.05 10.9219 34.05 10.9219" fill="#EF7D00"/>
<path d="M34.0499 10.9781C34.0406 10.9781 34.0312 10.9781 34.0218 10.9687C33.9937 10.95 33.9937 10.9219 34.0031 10.8937C34.0031 10.8844 34.2937 10.35 33.3655 9.19687C32.7655 9.69375 32.4093 9.51562 32.3906 9.50625L32.3624 9.4875V9.45937C32.3624 9.39375 32.5781 9.08437 32.9624 8.61562C32.4468 8.00625 32.6437 7.47187 32.7374 7.20937C32.7562 7.15312 32.7749 7.09687 32.7749 7.07812C32.7749 7.05 32.7937 7.02187 32.8218 7.02187C32.8499 7.02187 32.8781 7.04062 32.8781 7.06875C32.8874 7.11562 32.8687 7.1625 32.8312 7.24687C32.7374 7.50937 32.5593 8.00625 33.0656 8.57812L33.0937 8.61562L33.0656 8.65312C32.6531 9.15 32.5218 9.35625 32.4749 9.43125C32.5874 9.45937 32.8781 9.46875 33.3281 9.08437L33.3655 9.04687L33.403 9.08437C34.4249 10.3312 34.0968 10.9219 34.0781 10.9406C34.0874 10.9687 34.0687 10.9781 34.0499 10.9781ZM35.7468 10.275C35.7187 10.275 35.6999 10.2562 35.6999 10.2281C35.6999 10.2281 35.6812 9.96562 35.3812 9.70312C35.053 9.4125 34.9687 9.0375 34.9593 9.01875C34.9499 8.99062 34.9687 8.9625 34.9968 8.95312C35.0249 8.94375 35.0531 8.9625 35.0624 8.99062C35.0624 8.99062 35.1468 9.35625 35.4468 9.61875C35.7749 9.90937 35.803 10.2 35.803 10.2187C35.803 10.2469 35.7749 10.2656 35.7468 10.275C35.7468 10.275 35.7468 10.2656 35.7468 10.275ZM36.3749 9.47812C36.3656 9.46875 36.3749 9.47812 36.3749 9.47812C36.3374 9.46875 36.3187 9.45 36.328 9.42187C36.3468 9.32812 36.1593 8.31562 36.1124 8.14687C36.0843 8.04375 35.5968 7.37812 35.2593 7.17187C34.9218 6.94687 34.8093 6.59062 34.8093 6.58125C34.7999 6.55312 34.8187 6.525 34.8468 6.51562C34.8749 6.50625 34.903 6.525 34.9124 6.55312C34.9124 6.55312 35.0155 6.88125 35.3249 7.0875C35.6718 7.30312 36.1874 7.9875 36.2155 8.11875C36.2437 8.23125 36.4499 9.3 36.4312 9.43125C36.4218 9.45937 36.403 9.47812 36.3749 9.47812Z" fill="black"/>
<path fill-rule="evenodd" clip-rule="evenodd" d="M33.9655 10.05C33.9655 10.05 33.8718 9.91875 34.0405 9.42188C34.1905 9.60938 34.3593 9.6375 34.4249 9.70312C34.4999 9.7875 35.2687 9.89062 35.3062 10.4062" fill="#EF7D00"/>
<path d="M35.3062 10.4625C35.2781 10.4625 35.2593 10.4437 35.2593 10.4156C35.2312 10.0594 34.8281 9.91875 34.5749 9.83438C34.4624 9.79688 34.4156 9.77812 34.3874 9.75C34.3687 9.73125 34.3406 9.72188 34.3031 9.69375C34.2374 9.65625 34.1531 9.61875 34.0687 9.53437C33.9562 9.91875 34.0124 10.0312 34.0124 10.0312C34.0218 10.0594 34.0218 10.0875 33.9937 10.0969C33.9749 10.1156 33.9374 10.1062 33.9281 10.0875C33.9093 10.0594 33.8249 9.90938 33.9937 9.4125C34.0031 9.39375 34.0124 9.38437 34.0312 9.375C34.0499 9.375 34.0687 9.375 34.0781 9.39375C34.1718 9.50625 34.2656 9.55313 34.3406 9.6C34.3874 9.62813 34.4249 9.64687 34.4531 9.675C34.4718 9.69375 34.5468 9.7125 34.6031 9.74063C34.8562 9.83438 35.3249 9.99375 35.3531 10.4156C35.3624 10.4344 35.3343 10.4531 35.3062 10.4625C35.3062 10.4625 35.3062 10.4531 35.3062 10.4625Z" fill="black"/>
<path fill-rule="evenodd" clip-rule="evenodd" d="M34.8655 5.39076C34.8655 5.35326 34.7062 5.01576 34.1343 5.42826C34.4437 5.44701 34.7437 5.62513 34.8655 5.39076Z" fill="#EF7D00"/>
<path d="M34.6499 5.55946C34.5655 5.55946 34.4812 5.54071 34.3968 5.52196C34.3124 5.50321 34.2187 5.48446 34.1343 5.47509L33.9937 5.46571L34.1062 5.38134C34.453 5.12821 34.6593 5.14696 34.7718 5.20321C34.8749 5.25009 34.9124 5.34384 34.9124 5.38134V5.39071L34.903 5.40009C34.8562 5.53134 34.7624 5.55946 34.6499 5.55946ZM34.2749 5.39071C34.3218 5.40009 34.3687 5.40946 34.4155 5.41884C34.6218 5.46571 34.7437 5.48446 34.8093 5.38134C34.7999 5.36259 34.7718 5.31571 34.7062 5.28759C34.6312 5.25946 34.4999 5.25946 34.2749 5.39071Z" fill="black"/>
<path fill-rule="evenodd" clip-rule="evenodd" d="M40.3218 6.89075C40.3499 6.9095 42.0281 7.26575 42.5906 7.08762C41.8781 8.04387 40.4437 7.397 40.4437 7.397C41.1468 7.60325 41.1749 7.5845 41.3999 7.79075C41.4749 7.97825 40.1062 7.8845 39.6656 7.63137C40.9124 8.02512 40.9406 8.00637 40.9781 8.147C41.0343 8.36262 38.9343 8.09075 38.7562 7.81887C39.3187 8.25012 39.6187 8.3345 39.9281 8.53137C39.5531 8.70012 38.8499 8.86887 37.5656 7.9595C39.2531 9.497 40.7812 9.40325 41.0249 9.67512C40.4343 10.547 38.1468 9.1595 37.0968 8.45637C36.0468 7.75325 39.3937 10.1532 39.7031 10.1157C39.5531 10.3501 38.4468 10.1439 38.3718 10.022" fill="#EF7D00"/>
<path d="M39.3094 10.2751C39.3 10.2751 39.3 10.2751 39.2906 10.2751C38.9719 10.2751 38.4 10.1719 38.325 10.0501L38.4094 9.99382C38.4656 10.0594 39 10.1907 39.3844 10.1719C39.4781 10.1626 39.5344 10.1532 39.5719 10.1438C39.0281 9.9282 37.2 8.62507 36.8812 8.3907C36.8719 8.38132 36.8625 8.38132 36.8625 8.38132C36.8437 8.36257 36.8344 8.36257 36.8344 8.3532C36.825 8.33445 36.8344 8.30632 36.8531 8.29695C36.8906 8.26882 36.8906 8.26882 37.1156 8.41882C38.0719 9.05632 40.3312 10.4438 40.95 9.68445C40.8656 9.6282 40.6875 9.58132 40.4625 9.52507C39.8062 9.35632 38.7094 9.07507 37.5281 7.99695C37.5094 7.9782 37.5094 7.95007 37.5187 7.92195C37.5375 7.9032 37.5656 7.89382 37.5844 7.91257C38.8219 8.78445 39.5062 8.63445 39.8062 8.52195C39.7312 8.47507 39.6562 8.43757 39.5719 8.40007C39.3656 8.29695 39.1406 8.17507 38.8125 7.9407C38.7562 7.91257 38.7187 7.88445 38.7 7.85632C38.6906 7.83757 38.6906 7.80945 38.7094 7.7907C38.7281 7.77195 38.7562 7.77195 38.775 7.7907C38.8125 7.81882 38.85 7.84695 38.8875 7.87507C39.0937 7.9782 39.5625 8.08132 40.0781 8.14695C40.5937 8.21257 40.8562 8.19382 40.9125 8.1657C40.8937 8.0907 40.8375 8.07195 40.2 7.87507C39.9656 7.8282 39.75 7.76257 39.6281 7.69695C39.6094 7.68757 39.6 7.65945 39.6094 7.63132C39.6187 7.6032 39.6469 7.59382 39.675 7.6032C39.8906 7.66882 40.0781 7.72507 40.2281 7.77195C40.2375 7.77195 40.2469 7.77195 40.2469 7.78132C40.6969 7.8657 41.2219 7.87507 41.3344 7.8282C41.2219 7.73445 41.1656 7.68757 41.0062 7.6407C40.6687 7.57507 40.425 7.47195 40.4156 7.47195C40.3875 7.46257 40.3781 7.43445 40.3875 7.40632C40.3969 7.3782 40.425 7.36882 40.4531 7.3782C40.5656 7.40632 40.6594 7.43445 40.7437 7.46257C40.8656 7.50007 40.9594 7.5282 41.0344 7.54695C41.4656 7.62195 42.0469 7.62195 42.45 7.20007C41.7844 7.29382 40.3406 6.99382 40.2844 6.9657L40.3125 6.91882L40.3312 6.87195C40.3969 6.8907 42.0187 7.23757 42.5625 7.06882C42.5812 7.05945 42.6094 7.06882 42.6187 7.08757C42.6281 7.10632 42.6281 7.13445 42.6187 7.14382C42.2719 7.61257 41.7562 7.70632 41.3062 7.6782C41.3437 7.70632 41.3812 7.73445 41.4187 7.77195C41.4281 7.78132 41.4281 7.78132 41.4281 7.7907C41.4469 7.8282 41.4375 7.8657 41.4 7.89382C41.325 7.95945 41.0625 7.9782 40.7625 7.95007C40.9594 8.02507 40.9781 8.06257 41.0062 8.14695C41.0062 8.1657 41.0156 8.22195 40.9406 8.25007C40.725 8.34382 39.7875 8.25007 39.1875 8.08132C39.3469 8.17507 39.4781 8.25007 39.6 8.3157C39.7125 8.37195 39.8156 8.4282 39.9281 8.49382C39.9469 8.5032 39.9562 8.52195 39.9562 8.5407C39.9562 8.55945 39.9469 8.5782 39.9281 8.58757C39.7219 8.68132 39.1781 8.92507 38.175 8.40945C39.1125 9.08445 39.9375 9.2907 40.4719 9.43132C40.7625 9.50632 40.9594 9.5532 41.0437 9.64695C41.0625 9.6657 41.0625 9.69382 41.0437 9.71257C40.6219 10.3407 39.4125 9.8907 38.3062 9.28132C38.9344 9.7032 39.5625 10.0876 39.675 10.0782C39.6937 10.0782 39.7125 10.0876 39.7219 10.1063C39.7312 10.1251 39.7312 10.1438 39.7219 10.1626C39.6937 10.2282 39.5437 10.2751 39.3094 10.2751Z" fill="black"/>
<path fill-rule="evenodd" clip-rule="evenodd" d="M40.7531 8.50317C40.5656 8.5313 39.975 8.5313 39.8906 8.51255L40.7531 8.50317Z" fill="#EF7D00"/>
<path d="M40.2281 8.57815C40.0687 8.57815 39.9281 8.56877 39.8812 8.5594C39.8531 8.55002 39.8344 8.5219 39.8437 8.49377C39.8531 8.46565 39.8812 8.4469 39.9094 8.45627C39.9844 8.47502 40.5656 8.47502 40.7531 8.4469C40.7812 8.4469 40.8094 8.46565 40.8094 8.49377C40.8094 8.5219 40.7906 8.55002 40.7625 8.55002C40.6594 8.56877 40.425 8.57815 40.2281 8.57815Z" fill="black"/>
<path fill-rule="evenodd" clip-rule="evenodd" d="M28.1343 6.09375C28.1343 6.09375 29.4093 6.76875 29.953 6.72187C29.8499 6.80625 29.728 6.87187 29.5968 6.90937C29.728 6.96562 30.103 7.1625 30.6655 7.04062L30.3562 7.32187C30.3562 7.32187 30.8437 7.50937 31.3874 7.22812C31.2937 7.34062 31.2093 7.45313 31.1249 7.575L31.5093 7.60312" fill="#EF7D00"/>
<path d="M31.5093 7.65941C31.5093 7.65004 31.5093 7.65941 31.5093 7.65941L31.1249 7.63129C31.1062 7.63129 31.0874 7.62191 31.0781 7.60316C31.0687 7.58441 31.0687 7.56566 31.0781 7.55629C31.1249 7.49066 31.1624 7.42504 31.2187 7.36879C30.7406 7.53754 30.3562 7.38754 30.3374 7.37816C30.3187 7.36879 30.3093 7.35941 30.3093 7.34066C30.3093 7.32191 30.3093 7.30316 30.3281 7.29379L30.5062 7.13441C30.0656 7.18129 29.7562 7.05004 29.6156 6.98441L29.5874 6.96566C29.5687 6.95629 29.5593 6.93754 29.5593 6.91879C29.5593 6.90004 29.5781 6.88129 29.5968 6.87191C29.6718 6.85316 29.7468 6.82504 29.8124 6.77816C29.2124 6.72191 28.1718 6.16879 28.1249 6.15004C28.0968 6.14066 28.0874 6.10316 28.1062 6.08441C28.1156 6.05629 28.1531 6.04691 28.1718 6.06566C28.1812 6.07504 29.4374 6.73129 29.9624 6.68441C29.9812 6.68441 30.0093 6.69379 30.0187 6.71254C30.0281 6.73129 30.0187 6.75941 29.9999 6.76879C29.9249 6.83441 29.8406 6.88129 29.7562 6.91879C29.9343 6.99379 30.2531 7.08754 30.6749 6.99379C30.6937 6.98441 30.7218 7.00316 30.7312 7.02191C30.7406 7.04066 30.7406 7.06879 30.7218 7.08754L30.4781 7.30316C30.6374 7.34066 30.9937 7.38754 31.3781 7.19066C31.3968 7.18129 31.4249 7.18129 31.4437 7.20004C31.4624 7.21879 31.4624 7.24691 31.4437 7.26566C31.3687 7.35004 31.3031 7.44379 31.2374 7.53754L31.5281 7.55629C31.5562 7.55629 31.5749 7.58441 31.5749 7.61254C31.5562 7.63129 31.5374 7.65941 31.5093 7.65941Z" fill="black"/>
</g>
</g>
</g>
<defs>
<clipPath id="clip0_191_23426">
<rect width="48" height="48" fill="white"/>
</clipPath>
<clipPath id="clip1_191_23426">
<rect width="64" height="48" fill="white" transform="translate(-16)"/>
</clipPath>
</defs>
</svg>
