<svg width="48" height="48" viewBox="0 0 48 48" fill="none" xmlns="http://www.w3.org/2000/svg">
<g clip-path="url(#clip0_191_23379)">
<mask id="mask0_191_23379" style="mask-type:alpha" maskUnits="userSpaceOnUse" x="0" y="0" width="48" height="48">
<circle cx="24" cy="24" r="24" fill="#D9D9D9"/>
</mask>
<g mask="url(#mask0_191_23379)">
<g clip-path="url(#clip1_191_23379)">
<path fill-rule="evenodd" clip-rule="evenodd" d="M-8 0H13.33V48H-8V0Z" fill="#00319C"/>
<path fill-rule="evenodd" clip-rule="evenodd" d="M13.33 0H34.67V48H13.33V0Z" fill="#FFDE00"/>
<path fill-rule="evenodd" clip-rule="evenodd" d="M34.67 0H56V48H34.67V0Z" fill="#DE2110"/>
<path fill-rule="evenodd" clip-rule="evenodd" d="M28.04 32.04L30.46 35.54C30.6 35.74 30.73 35.93 30.53 36.06C30.33 36.19 30.39 36.7 30.53 36.9C30.8 37.29 31.13 37.35 31.33 37.22L33.17 36.06C33.37 35.94 33.44 35.61 33.17 35.22C33.02 35.02 32.57 34.77 32.37 34.9C32.16 35.03 32.02 34.83 31.89 34.64L29.46 31.14" fill="#FF1900"/>
<path d="M31.11 37.32C30.92 37.32 30.69 37.21 30.5 36.92C30.39 36.77 30.34 36.47 30.38 36.26C30.4 36.15 30.45 36.07 30.51 36.03C30.56 36 30.59 35.96 30.59 35.92C30.61 35.82 30.52 35.69 30.43 35.56L28.01 32.06L28.07 32.02L30.49 35.52C30.59 35.66 30.69 35.81 30.67 35.94C30.66 36 30.62 36.05 30.56 36.09C30.51 36.12 30.48 36.18 30.46 36.27C30.42 36.46 30.47 36.74 30.57 36.88C30.83 37.26 31.14 37.31 31.32 37.19L33.16 36.03C33.24 35.98 33.29 35.91 33.31 35.81C33.35 35.64 33.29 35.44 33.15 35.24C33 35.04 32.57 34.81 32.4 34.93C32.16 35.08 32 34.85 31.87 34.66L29.44 31.16L29.5 31.12L31.93 34.62C32.08 34.84 32.19 34.98 32.36 34.87C32.59 34.72 33.06 35 33.21 35.2C33.36 35.42 33.42 35.64 33.38 35.82C33.35 35.94 33.29 36.03 33.2 36.09L31.36 37.25C31.28 37.29 31.2 37.32 31.11 37.32Z" fill="black"/>
<path fill-rule="evenodd" clip-rule="evenodd" d="M28.99 29.57C30.07 30.8 30.45 32.21 29.83 32.7C29.21 33.2 27.82 32.6 26.74 31.37C25.66 30.14 25.2901 28.73 25.9001 28.23C26.5201 27.74 27.91 28.33 28.99 29.57Z" fill="#A77B3B"/>
<path d="M29.2701 33.01C28.5301 33.01 27.5101 32.43 26.6501 31.46C25.8701 30.58 25.4301 29.57 25.4901 28.84C25.5201 28.54 25.6301 28.29 25.8301 28.14C26.5101 27.59 27.9401 28.18 29.0901 29.48L29.1801 29.58H29.1701C29.9001 30.44 30.3101 31.4 30.2501 32.1C30.2201 32.4 30.1101 32.64 29.9101 32.8C29.7401 32.94 29.5201 33.01 29.2701 33.01ZM26.4701 28.19C26.2801 28.19 26.1101 28.24 25.9901 28.34C25.8501 28.46 25.7601 28.63 25.7401 28.87C25.6801 29.52 26.1101 30.48 26.8401 31.3C27.8601 32.46 29.2001 33.06 29.7601 32.61C29.9001 32.5 29.9801 32.32 30.0101 32.08C30.0701 31.43 29.6301 30.48 28.9101 29.65L28.8201 29.55C28.0401 28.71 27.1101 28.19 26.4701 28.19Z" fill="black"/>
<path fill-rule="evenodd" clip-rule="evenodd" d="M18.2 30.61L16.05 34.28C15.93 34.48 15.81 34.68 15.6 34.58C15.39 34.46 14.94 34.75 14.82 34.96C14.58 35.36 14.67 35.68 14.89 35.8L16.81 36.82C17.01 36.93 17.35 36.84 17.59 36.44C17.7 36.22 17.73 35.71 17.52 35.6C17.31 35.49 17.42 35.28 17.55 35.08L19.69 31.41" fill="#FF1900"/>
<path d="M16.99 36.9C16.92 36.9 16.85 36.88 16.8 36.85L14.88 35.83C14.78 35.77 14.7 35.68 14.67 35.56C14.62 35.38 14.67 35.16 14.8 34.95C14.86 34.84 15.01 34.71 15.17 34.62C15.28 34.56 15.48 34.47 15.63 34.55C15.8 34.63 15.89 34.49 16.03 34.26L18.18 30.59L18.24 30.63L16.08 34.3C15.96 34.5 15.82 34.73 15.58 34.61C15.5 34.56 15.35 34.59 15.19 34.68C15.04 34.76 14.9 34.88 14.85 34.98C14.73 35.18 14.69 35.38 14.73 35.54C14.76 35.64 14.82 35.72 14.91 35.77L16.83 36.79C17.02 36.89 17.34 36.8 17.56 36.42C17.67 36.2 17.68 35.72 17.5 35.63C17.43 35.59 17.39 35.54 17.37 35.48C17.34 35.35 17.43 35.19 17.52 35.06L19.66 31.39L19.72 31.43L17.58 35.1C17.49 35.23 17.42 35.37 17.44 35.47C17.45 35.51 17.48 35.55 17.53 35.57C17.77 35.69 17.73 36.23 17.62 36.46C17.44 36.76 17.19 36.9 16.99 36.9Z" fill="black"/>
<path fill-rule="evenodd" clip-rule="evenodd" d="M25.1199 28.06H23.1599C23.0999 28.12 22.5399 31.62 21.9399 32.96C21.2099 34.59 19.0199 36.03 19.0199 36.03C19.0199 36.03 20.3299 36.43 20.7199 36.69C20.8199 36.66 22.9199 36.22 23.1599 33.66C23.3999 36.22 21.6999 37.39 21.6999 37.39C21.6999 37.39 24.1399 38.09 24.1399 39.72C24.1399 38.09 26.5799 37.39 26.5799 37.39C26.5799 37.39 25.3599 36.22 25.1099 33.66C25.6099 36.22 27.4599 36.66 27.5599 36.69C27.9499 36.43 29.2599 36.03 29.2599 36.03C29.2599 36.03 27.0699 34.59 26.3399 32.96C25.7399 31.62 25.1799 28.12 25.1199 28.06ZM16.8199 16.39L20.4799 17.56C21.6899 17.56 22.9199 16.39 22.9199 15.22C22.9599 12.62 21.9399 11.72 21.6999 11.72L22.1799 11.26L21.4499 10.56C21.4499 10.56 21.6999 9.35001 24.1399 9.39001C26.5799 9.44001 26.5799 10.56 26.5799 11.72C26.5799 12.88 25.3599 12.89 25.3599 15.22C25.3599 16.39 26.5799 17.56 27.7999 17.56L31.4599 16.39V28.06H16.8099V16.39H16.8199Z" fill="#A77B3B"/>
<path d="M24.22 39.72H24.05C24.05 38.17 21.7 37.48 21.67 37.47L21.5 37.42L21.65 37.32C21.66 37.31 22.93 36.41 23.08 34.51C22.58 36.16 21.22 36.65 20.76 36.77L20.7 36.79L20.67 36.77C20.29 36.52 19.01 36.12 18.99 36.12L18.82 36.07L18.97 35.97C18.99 35.96 21.15 34.52 21.86 32.94C22.29 31.98 22.7 29.89 22.92 28.77C22.98 28.44 23.02 28.26 23.04 28.16H16.72V16.3H16.84L20.49 17.47C21.65 17.46 22.83 16.33 22.83 15.22C22.86 13.08 22.17 12.2 21.95 11.98C21.81 11.83 21.71 11.8 21.69 11.8H21.48L22.05 11.25L21.35 10.58L21.36 10.53C21.37 10.48 21.64 9.29004 24.01 9.29004C24.05 9.29004 24.09 9.29004 24.13 9.29004C26.65 9.34004 26.65 10.54 26.65 11.71C26.65 12.22 26.43 12.51 26.18 12.86C25.83 13.34 25.43 13.88 25.43 15.21C25.43 16.32 26.61 17.46 27.77 17.46L31.53 16.26V28.13H25.22C25.24 28.23 25.28 28.41 25.34 28.74C25.56 29.86 25.97 31.95 26.4 32.91C27.11 34.5 29.27 35.93 29.29 35.94L29.44 36.04L29.27 36.09C29.26 36.09 27.97 36.49 27.59 36.74L27.56 36.76L27.51 36.75C27.13 36.64 26.04 36.23 25.39 34.84C25.81 36.51 26.62 37.31 26.63 37.31L26.74 37.41L26.6 37.45C26.58 37.48 24.22 38.17 24.22 39.72ZM21.88 37.36C22.36 37.52 23.78 38.09 24.14 39.19C24.51 38.07 25.97 37.5 26.43 37.35C26.13 37.01 25.24 35.84 25.03 33.67L25.2 33.65C25.63 35.87 27.08 36.47 27.55 36.6C27.89 36.39 28.71 36.12 29.07 36C28.56 35.64 26.9 34.4 26.27 32.99C25.83 32.01 25.42 29.91 25.2 28.78C25.14 28.49 25.09 28.24 25.07 28.14H23.23C23.2 28.24 23.15 28.5 23.1 28.78C22.88 29.91 22.47 32.01 22.03 32.99C21.4 34.4 19.73 35.64 19.23 36C19.59 36.11 20.41 36.39 20.75 36.6C21.27 36.46 22.88 35.86 23.09 33.65H23.26C23.45 35.81 22.27 37.01 21.88 37.36ZM16.9 27.98H31.38V16.51L27.82 17.65H27.8C26.53 17.65 25.28 16.45 25.28 15.23C25.28 13.84 25.71 13.25 26.06 12.77C26.3 12.44 26.5 12.18 26.5 11.73C26.5 10.55 26.5 9.53004 24.14 9.48004C22.07 9.44004 21.62 10.33 21.55 10.54L22.31 11.27L21.87 11.7C21.94 11.74 22.02 11.8 22.09 11.88C22.32 12.11 23.05 13.03 23.01 15.24C23.01 16.44 21.74 17.66 20.48 17.66H20.45L16.9 16.5V27.98Z" fill="black"/>
<path d="M23.89 17.68L23.64 16.91L23.15 17.61L22.92 16.93L22.67 17.63L22.4 16.87L22.45 16.85L22.67 17.48L22.92 16.78L23.17 17.5L23.66 16.8L23.89 17.52L24.13 16.79L24.5 17.54L24.87 16.79L25.11 17.48L25.33 16.85L25.38 16.87L25.11 17.63L24.86 16.92L24.5 17.65L24.14 16.92L23.89 17.68Z" fill="black"/>
<path d="M22.93 16.86H22.91L23.4 14.29H23.42L22.93 16.86ZM24.86 16.86L24.62 14.29H24.64L24.88 16.86H24.86ZM25.35 16.86L25.11 14.29H25.13L25.37 16.86H25.35ZM24.15 16.86H24.13V14.29H24.15V16.86ZM23.66 16.86H23.64V14.29H23.66V16.86Z" fill="black"/>
<path fill-rule="evenodd" clip-rule="evenodd" d="M14.3701 9.40002C11.9301 10.57 11.9301 12.9 11.9301 14.07C12.0101 15.13 11.9301 37.4 11.9301 37.4C11.9301 37.4 12.0901 36.08 13.1501 35.07L14.3601 33.9L15.5801 32.73C16.4801 31.95 16.8001 30.39 16.8001 29.23V12.9C16.8001 12.9 16.8001 11.73 14.3701 9.40002Z" fill="#A77B3B"/>
<path d="M12.05 37.41L11.8 37.39C11.8 37.17 11.88 15.11 11.8 14.07C11.8 12.92 11.8 10.59 14.14 9.36002L14.04 9.27002H14.35L14.38 9.37002L14.44 9.31002C16.89 11.65 16.92 12.85 16.92 12.9V29.23C16.92 30.44 16.59 32.02 15.66 32.83L13.23 35.16C12.22 36.12 12.05 37.39 12.05 37.41ZM14.34 9.55002C12.05 10.69 12.05 12.88 12.05 14.07C12.12 15 12.07 32.22 12.05 36.48C12.23 36.03 12.54 35.47 13.05 34.98L15.48 32.65C16.35 31.89 16.66 30.34 16.66 29.24V12.9C16.67 12.89 16.63 11.75 14.34 9.55002Z" fill="black"/>
<path d="M14.3701 14.24L13.1501 13.07L12.0201 14.15L11.8501 13.97L13.1601 12.72L14.3801 13.89L15.6001 12.72L15.6901 12.8C16.1201 13.22 16.8201 13.9 16.8901 13.95L16.8201 14.04V14.18C16.7601 14.18 16.7401 14.18 15.6001 13.06L14.3701 14.24Z" fill="black"/>
<path d="M15.5901 16.57L14.3701 15.4L13.1501 16.57L11.8401 15.32L12.0101 15.14L13.1401 16.22L14.3601 15.05L15.5801 16.21C16.7201 15.09 16.7401 15.09 16.8001 15.09V15.21L16.8701 15.31C16.8001 15.36 16.1001 16.04 15.6701 16.46L15.5901 16.57Z" fill="black"/>
<path d="M14.3701 18.9L13.1501 17.73L12.0201 18.81L11.8501 18.63L13.1601 17.38L14.3801 18.55L15.6001 17.38L15.6901 17.46C16.1201 17.88 16.8201 18.56 16.8901 18.61L16.8201 18.7V18.84C16.7601 18.84 16.7401 18.84 15.6001 17.72L14.3701 18.9Z" fill="black"/>
<path d="M15.7001 12.9H15.4501V32.74H15.7001V12.9Z" fill="black"/>
<path d="M14.5 14.0601H14.25V33.8501H14.5V14.0601Z" fill="black"/>
<path d="M13.28 12.9H13.03V35.07H13.28V12.9Z" fill="black"/>
<path fill-rule="evenodd" clip-rule="evenodd" d="M33.9 9.40002C36.34 10.57 36.34 12.9 36.34 14.07C36.26 15.13 36.34 37.4 36.34 37.4C36.34 37.4 36.18 36.08 35.12 35.07L33.91 33.9L32.69 32.73C31.79 31.95 31.47 30.39 31.47 29.23V12.9C31.47 12.9 31.47 11.73 33.9 9.40002Z" fill="#A77B3B"/>
<path d="M36.22 37.41C36.22 37.4 36.05 36.12 35.04 35.15L32.6 32.82C31.67 32.02 31.34 30.44 31.34 29.23V12.9C31.34 12.85 31.37 11.65 33.82 9.31002L33.88 9.37002L33.9 9.27002H34.22L34.12 9.36002C36.47 10.58 36.46 12.92 36.46 14.06C36.38 15.11 36.46 37.17 36.46 37.39L36.22 37.41ZM33.93 9.55002C31.64 11.75 31.6 12.89 31.6 12.9V29.23C31.6 30.33 31.91 31.89 32.78 32.64L35.22 34.98C35.73 35.47 36.04 36.03 36.22 36.48C36.21 32.21 36.15 15 36.22 14.06C36.22 12.88 36.22 10.69 33.93 9.55002Z" fill="black"/>
<path d="M33.9 14.24L32.68 13.08C31.54 14.2 31.52 14.2 31.46 14.2V14.08L31.39 13.98C31.46 13.93 32.16 13.25 32.59 12.83L32.68 12.75L33.9 13.92L35.12 12.75L36.43 14L36.26 14.18L35.13 13.1L33.9 14.24Z" fill="black"/>
<path d="M32.68 16.5701L32.59 16.4901C32.16 16.0701 31.46 15.3901 31.39 15.3401L31.46 15.2501V15.1001C31.52 15.1001 31.54 15.1001 32.68 16.2201L33.9 15.0601L35.12 16.2301L36.25 15.1501L36.42 15.3301L35.11 16.5801L33.9 15.4001L32.68 16.5701Z" fill="black"/>
<path d="M33.9 18.9L32.68 17.74C31.54 18.86 31.52 18.86 31.46 18.86V18.74L31.39 18.64C31.46 18.59 32.16 17.91 32.59 17.49L32.68 17.41L33.9 18.58L35.12 17.41L36.43 18.66L36.26 18.84L35.13 17.76L33.9 18.9Z" fill="black"/>
<path d="M32.8199 12.9H32.5699V32.74H32.8199V12.9Z" fill="black"/>
<path d="M34.0299 14.0601H33.7799V33.8501H34.0299V14.0601Z" fill="black"/>
<path d="M35.25 12.9H35V35.07H35.25V12.9Z" fill="black"/>
<path fill-rule="evenodd" clip-rule="evenodd" d="M20.93 30.29C20.28 31.77 19.15 32.74 18.4 32.44C17.66 32.14 17.57 30.69 18.22 29.21C18.87 27.73 20.01 26.76 20.76 27.06C21.5 27.35 21.58 28.8 20.93 30.29Z" fill="#A77B3B"/>
<path d="M18.6899 32.62C18.5699 32.62 18.4599 32.6 18.3499 32.56C18.1099 32.46 17.9199 32.26 17.7999 31.97C17.5199 31.29 17.6399 30.22 18.0999 29.16C18.7699 27.61 19.9799 26.62 20.7999 26.94C21.0399 27.04 21.2299 27.24 21.3499 27.53C21.6299 28.2 21.5099 29.28 21.0499 30.34L20.9999 30.45H20.9899C20.3899 31.75 19.4499 32.62 18.6899 32.62ZM20.4599 27.13C19.7899 27.13 18.8699 28.02 18.3299 29.26C17.8999 30.24 17.7899 31.27 18.0299 31.88C18.1199 32.11 18.2599 32.26 18.4399 32.33C19.1099 32.6 20.1999 31.64 20.8099 30.24L20.8599 30.13H20.8699C21.2599 29.18 21.3599 28.21 21.1199 27.63C21.0299 27.4 20.8899 27.25 20.7099 27.18C20.6299 27.14 20.5499 27.13 20.4599 27.13Z" fill="black"/>
<path fill-rule="evenodd" clip-rule="evenodd" d="M16.8101 17.5601H31.4601V24.5601H16.8101V17.5601Z" fill="#FF0000"/>
<path fill-rule="evenodd" clip-rule="evenodd" d="M16.81 24.5601H31.46V28.0601C31.46 30.3901 27.8 30.3901 24.14 32.7201C20.47 30.4001 16.8 30.4001 16.8 28.0601V24.5601H16.81Z" fill="#564DFF"/>
<path d="M24.14 32.86L24.09 32.83C22.7 31.94 21.33 31.4 20.11 30.92C18.14 30.14 16.71 29.58 16.71 28.07V17.47L16.81 17.46H31.56V28.07C31.56 29.58 30.14 30.14 28.17 30.91C26.96 31.39 25.58 31.93 24.19 32.82L24.14 32.86ZM16.91 17.66V28.06C16.91 29.44 18.28 29.98 20.18 30.73C21.38 31.21 22.75 31.74 24.14 32.62C25.53 31.74 26.89 31.2 28.1 30.73C30 29.98 31.36 29.44 31.36 28.07V17.66H16.91Z" fill="#FFFF00"/>
<path fill-rule="evenodd" clip-rule="evenodd" d="M21.45 18.03C21.45 18.03 19.01 19.75 19.01 21.39C19.01 23.03 21.57 23.58 21.57 23.58C21.57 23.58 20.72 23.58 20.72 25.77C20.72 26.87 23.28 26.32 23.28 26.87C23.28 27.42 23.25 28.74 23.28 29.61C23.28 30.16 21.57 29.61 21.57 30.16C21.57 30.43 22.85 31.8 24.14 31.8C25.42 31.8 26.7 30.43 26.7 30.16C26.7 29.61 24.99 30.16 24.99 29.61V26.87C24.99 26.32 27.55 26.87 27.55 25.77C27.55 23.58 26.7 23.58 26.7 23.58C26.7 23.58 29.27 23.03 29.27 21.39C29.27 19.75 26.82 18.03 26.82 18.03C26.82 18.03 28.19 20.29 28.19 21.39C28.19 21.94 27.55 23.03 25.84 23.03C25.84 23.03 25.41 22.48 24.99 23.03C24.99 23.03 24.5 22.48 24.14 23.03C24.01 23.22 23.79 22.48 23.28 23.03C23.07 23.18 22.89 22.48 22.43 23.03C21.58 23.03 19.87 22.48 19.87 21.39C19.86 20.29 21.45 18.03 21.45 18.03Z" fill="#FFFF00"/>
<path d="M24.14 31.92C22.82 31.92 21.45 30.53 21.45 30.15C21.45 29.75 21.97 29.75 22.43 29.75C22.75 29.75 23.16 29.75 23.16 29.6C23.14 28.98 23.15 28.11 23.15 27.48C23.15 27.23 23.16 27.02 23.16 26.86C23.16 26.75 22.63 26.7 22.32 26.67C21.55 26.6 20.6 26.52 20.6 25.76C20.6 24.39 20.94 23.83 21.22 23.6C20.5 23.38 18.9 22.74 18.9 21.38C18.9 19.69 21.29 17.99 21.39 17.92L21.56 18.09C21.54 18.11 20 20.33 20 21.38C20 22.34 21.54 22.88 22.38 22.9C22.73 22.52 22.99 22.73 23.13 22.85C23.16 22.87 23.19 22.9 23.22 22.92C23.62 22.51 23.92 22.77 24.05 22.88C24.06 22.89 24.07 22.9 24.08 22.9C24.19 22.75 24.33 22.66 24.49 22.65C24.7 22.63 24.88 22.75 24.99 22.84C25.12 22.71 25.25 22.65 25.4 22.65C25.63 22.65 25.82 22.81 25.91 22.89C27.44 22.87 28.08 21.89 28.08 21.37C28.08 20.32 26.74 18.1 26.72 18.08L26.9 17.91C27 17.98 29.4 19.68 29.4 21.37C29.4 22.74 27.79 23.38 27.07 23.59C27.35 23.82 27.68 24.38 27.68 25.75C27.68 26.51 26.73 26.59 25.96 26.66C25.65 26.69 25.12 26.73 25.12 26.85V29.6C25.12 29.75 25.52 29.75 25.85 29.75C26.31 29.75 26.83 29.75 26.83 30.15C26.82 30.52 25.46 31.92 24.14 31.92ZM20.91 18.61C20.2 19.22 19.13 20.33 19.13 21.38C19.13 22.9 21.57 23.44 21.59 23.45L21.56 23.7C21.56 23.7 20.83 23.76 20.83 25.76C20.83 26.25 21.48 26.35 22.32 26.42C22.92 26.47 23.39 26.51 23.39 26.86C23.39 27.01 23.39 27.23 23.38 27.48C23.37 28.11 23.36 28.97 23.39 29.6C23.39 30 22.87 30 22.41 30C22.09 30 21.68 30 21.68 30.15C21.71 30.37 22.92 31.67 24.12 31.67C25.32 31.67 26.53 30.37 26.56 30.15C26.56 30 26.16 30 25.83 30C25.37 30 24.85 30 24.85 29.6V26.86C24.85 26.52 25.32 26.48 25.92 26.42C26.77 26.34 27.41 26.25 27.41 25.76C27.41 23.75 26.69 23.7 26.68 23.7L26.66 23.45C26.68 23.44 29.13 22.9 29.13 21.38C29.13 20.27 27.94 19.11 27.24 18.52C27.65 19.27 28.31 20.6 28.31 21.38C28.31 21.93 27.69 23.15 25.84 23.15H25.78L25.74 23.1C25.74 23.1 25.58 22.9 25.39 22.9C25.29 22.9 25.18 22.97 25.08 23.1L24.99 23.22L24.89 23.11C24.84 23.05 24.66 22.89 24.49 22.91C24.39 22.92 24.31 22.98 24.23 23.1C24.19 23.16 24.14 23.18 24.1 23.19C24.01 23.2 23.94 23.14 23.87 23.08C23.73 22.96 23.61 22.85 23.36 23.12L23.34 23.14C23.18 23.25 23.04 23.13 22.95 23.05C22.81 22.93 22.72 22.86 22.51 23.11L22.47 23.15H22.41C21.47 23.15 19.72 22.54 19.72 21.38C19.74 20.63 20.44 19.38 20.91 18.61Z" fill="black"/>
<path fill-rule="evenodd" clip-rule="evenodd" d="M21.5 27.83C21.33 27.94 21.72 29.73 21.84 29.8C22.01 29.91 23.04 29.91 23.21 29.8C23.33 29.72 23.21 28.05 23.04 27.94C22.86 27.83 21.62 27.75 21.5 27.83Z" fill="#FFFF00"/>
<path d="M22.52 30.01C22.2 30.01 21.88 29.98 21.77 29.91C21.58 29.79 21.33 28.39 21.33 28.01C21.33 27.99 21.33 27.97 21.33 27.95H21.04L21.43 27.72C21.6 27.62 22.9 27.7 23.1 27.83C23.35 27.99 23.38 29.41 23.38 29.42C23.38 29.77 23.34 29.86 23.27 29.9C23.17 29.97 22.85 30.01 22.52 30.01ZM21.92 29.7C22.09 29.77 22.92 29.77 23.12 29.7C23.19 29.44 23.07 28.21 22.97 28.03C22.8 27.95 21.83 27.89 21.59 27.92C21.53 28.19 21.8 29.49 21.92 29.7Z" fill="black"/>
<path fill-rule="evenodd" clip-rule="evenodd" d="M26.78 27.8299C26.95 27.9399 26.56 29.7299 26.44 29.7999C26.27 29.9099 25.24 29.9099 25.07 29.7999C24.95 29.7199 25.07 28.0499 25.24 27.9399C25.42 27.8299 26.66 27.7499 26.78 27.8299Z" fill="#FFFF00"/>
<path d="M25.75 30.01C25.43 30.01 25.1 29.98 25 29.91C24.93 29.87 24.89 29.78 24.89 29.43C24.89 29.42 24.91 28 25.17 27.84C25.37 27.71 26.67 27.62 26.84 27.73L27.23 27.96H26.94C26.94 27.98 26.94 28 26.94 28.02C26.94 28.4 26.69 29.79 26.5 29.91C26.4 29.97 26.08 30.01 25.75 30.01ZM25.16 29.71C25.35 29.78 26.18 29.78 26.36 29.71C26.48 29.49 26.75 28.19 26.69 27.94C26.48 27.91 25.49 27.97 25.31 28.05C25.21 28.22 25.1 29.45 25.16 29.71Z" fill="black"/>
<path fill-rule="evenodd" clip-rule="evenodd" d="M23.26 27.1799C23.26 27.5199 22.86 27.7999 22.37 27.7999C21.88 27.7999 21.48 27.5199 21.48 27.1799C21.48 26.8399 21.88 26.5599 22.37 26.5599C22.86 26.5599 23.26 26.8399 23.26 27.1799Z" fill="#FFFF00"/>
<path d="M22.37 27.9199C21.81 27.9199 21.36 27.5899 21.36 27.1799C21.36 26.7599 21.8 26.4399 22.37 26.4399C22.94 26.4399 23.38 26.7699 23.38 27.1799C23.38 27.5899 22.93 27.9199 22.37 27.9199ZM22.37 26.6899C21.96 26.6899 21.61 26.9199 21.61 27.1799C21.61 27.4399 21.96 27.6699 22.37 27.6699C22.78 27.6699 23.13 27.4399 23.13 27.1799C23.13 26.9199 22.78 26.6899 22.37 26.6899Z" fill="black"/>
<path fill-rule="evenodd" clip-rule="evenodd" d="M26.79 27.1799C26.79 27.5199 26.39 27.7999 25.9 27.7999C25.41 27.7999 25.01 27.5199 25.01 27.1799C25.01 26.8399 25.41 26.5599 25.9 26.5599C26.39 26.5599 26.79 26.8399 26.79 27.1799Z" fill="#FFFF00"/>
<path d="M25.9 27.9199C25.33 27.9199 24.89 27.5899 24.89 27.1799C24.89 26.7699 25.34 26.4399 25.9 26.4399C26.46 26.4399 26.91 26.7699 26.91 27.1799C26.91 27.5899 26.47 27.9199 25.9 27.9199ZM25.9 26.6899C25.49 26.6899 25.14 26.9199 25.14 27.1799C25.14 27.4399 25.49 27.6699 25.9 27.6699C26.31 27.6699 26.66 27.4399 26.66 27.1799C26.66 26.9199 26.31 26.6899 25.9 26.6899Z" fill="black"/>
<path fill-rule="evenodd" clip-rule="evenodd" d="M25.68 30.75C25.68 30.9 25.48 31.02 25.25 31.02C25.01 31.02 24.82 30.9 24.82 30.75C24.82 30.6 25.02 30.48 25.25 30.48C25.48 30.48 25.68 30.6 25.68 30.75ZM23.45 30.75C23.45 30.9 23.26 31.02 23.03 31.02C22.79 31.02 22.6 30.9 22.6 30.75C22.6 30.6 22.79 30.48 23.03 30.48C23.26 30.48 23.45 30.6 23.45 30.75Z" fill="black"/>
<path fill-rule="evenodd" clip-rule="evenodd" d="M24.1399 22L23.6199 21.34L22.7599 21.45L22.8799 20.63L22.1899 20.14L22.8799 19.64L22.7599 18.82L23.6199 18.94L24.1399 18.28L24.6599 18.94L25.5099 18.82L25.3999 19.64L26.0899 20.14L25.3999 20.64L25.5099 21.46L24.6499 21.35L24.1399 22Z" fill="#FFFF00"/>
<path d="M24.14 22.09L23.59 21.4L22.69 21.51L22.82 20.65L22.09 20.13L22.82 19.6L22.69 18.74L23.59 18.86L24.14 18.17L24.69 18.86L25.58 18.74L25.46 19.6L26.18 20.13L25.46 20.66L25.58 21.51L24.68 21.4L24.14 22.09ZM23.64 21.28L24.14 21.91L24.63 21.28L25.45 21.38L25.34 20.6L25.99 20.12L25.34 19.64L25.45 18.86L24.64 18.97L24.14 18.34L23.64 18.97L22.82 18.86L22.94 19.64L22.28 20.12L22.94 20.59L22.82 21.37L23.64 21.28Z" fill="black"/>
<path fill-rule="evenodd" clip-rule="evenodd" d="M27.8 24.56L29.27 25.26L30.74 24.56L29.27 23.86L27.8 24.56Z" fill="#FFFF00"/>
<path d="M29.26 25.32L27.77 24.6L27.79 24.52L27.78 24.5L29.26 23.79L30.86 24.55L29.26 25.32ZM27.93 24.56L29.27 25.2L30.61 24.56L29.27 23.92L27.93 24.56Z" fill="black"/>
<path fill-rule="evenodd" clip-rule="evenodd" d="M17.3 24.56L18.77 25.26L20.24 24.56L18.77 23.86L17.3 24.56Z" fill="#FFFF00"/>
<path d="M18.76 25.32L17.27 24.6L17.29 24.52L17.28 24.5L18.76 23.79L20.36 24.55L18.76 25.32ZM17.43 24.56L18.77 25.2L20.11 24.56L18.77 23.92L17.43 24.56Z" fill="black"/>
<path fill-rule="evenodd" clip-rule="evenodd" d="M30.0601 28.73C29.6101 28.45 28.8501 28.59 28.4301 28.82C28.0101 29.05 27.5801 29.29 27.5201 30.13C27.0301 29.32 27.4201 28.57 28.0601 28.22C28.7801 27.89 29.6301 28.11 30.0601 28.73Z" fill="#FFFF00"/>
<path d="M27.5701 30.31L27.48 30.16C27.26 29.8 27.2 29.42 27.3 29.07C27.4 28.7 27.67 28.37 28.05 28.17C28.78 27.83 29.66 28.05 30.11 28.69L30.12 28.71L30.06 28.75L30.04 28.78C29.64 28.52 28.9101 28.63 28.4701 28.87C28.0501 29.1 27.65 29.32 27.59 30.13L27.5701 30.31ZM28.76 28.12C28.54 28.12 28.31 28.17 28.1 28.27C27.75 28.46 27.5 28.76 27.41 29.1C27.34 29.37 27.37 29.66 27.5 29.95C27.6 29.22 28.0201 29 28.4201 28.78C28.7701 28.59 29.4 28.43 29.88 28.59C29.58 28.28 29.17 28.12 28.76 28.12Z" fill="black"/>
<path fill-rule="evenodd" clip-rule="evenodd" d="M19.98 27.36C19.98 27.62 19.76 27.82 19.49 27.82C19.22 27.82 19 27.61 19 27.36C19 27.1 19.22 26.9 19.49 26.9C19.76 26.9 19.98 27.1 19.98 27.36Z" fill="#FFFF00"/>
<path d="M19.5 27.88C19.2 27.88 18.96 27.65 18.96 27.36C18.96 27.07 19.2 26.84 19.5 26.84C19.8 26.84 20.04 27.07 20.04 27.36C20.04 27.65 19.79 27.88 19.5 27.88ZM19.5 26.95C19.26 26.95 19.07 27.13 19.07 27.36C19.07 27.59 19.26 27.77 19.5 27.77C19.74 27.77 19.93 27.59 19.93 27.36C19.93 27.13 19.73 26.95 19.5 26.95Z" fill="black"/>
<path fill-rule="evenodd" clip-rule="evenodd" d="M19.49 28.99C19.49 29.25 19.27 29.45 19 29.45C18.73 29.45 18.51 29.24 18.51 28.99C18.51 28.73 18.73 28.53 19 28.53C19.27 28.53 19.49 28.73 19.49 28.99Z" fill="#FFFF00"/>
<path d="M19.01 29.51C18.71 29.51 18.47 29.28 18.47 28.99C18.47 28.7 18.71 28.47 19.01 28.47C19.31 28.47 19.55 28.7 19.55 28.99C19.55 29.28 19.3 29.51 19.01 29.51ZM19.01 28.58C18.77 28.58 18.58 28.76 18.58 28.99C18.58 29.22 18.77 29.4 19.01 29.4C19.25 29.4 19.44 29.22 19.44 28.99C19.44 28.76 19.24 28.58 19.01 28.58Z" fill="black"/>
<path fill-rule="evenodd" clip-rule="evenodd" d="M19.25 28.0601C19.25 28.3201 19.03 28.5201 18.76 28.5201C18.49 28.5201 18.27 28.3101 18.27 28.0601C18.27 27.8001 18.49 27.6001 18.76 27.6001C19.03 27.6001 19.25 27.8001 19.25 28.0601Z" fill="#FFFF00"/>
<path d="M18.77 28.58C18.47 28.58 18.23 28.35 18.23 28.06C18.23 27.77 18.47 27.54 18.77 27.54C19.07 27.54 19.31 27.77 19.31 28.06C19.31 28.35 19.06 28.58 18.77 28.58ZM18.77 27.65C18.53 27.65 18.34 27.83 18.34 28.06C18.34 28.29 18.53 28.47 18.77 28.47C19.01 28.47 19.2 28.29 19.2 28.06C19.2 27.83 19 27.65 18.77 27.65Z" fill="black"/>
<path fill-rule="evenodd" clip-rule="evenodd" d="M20.47 28.99C20.47 29.25 20.25 29.45 19.98 29.45C19.71 29.45 19.49 29.24 19.49 28.99C19.49 28.73 19.71 28.53 19.98 28.53C20.25 28.53 20.47 28.73 20.47 28.99Z" fill="#FFFF00"/>
<path d="M19.99 29.51C19.69 29.51 19.45 29.28 19.45 28.99C19.45 28.7 19.69 28.47 19.99 28.47C20.29 28.47 20.5299 28.7 20.5299 28.99C20.5299 29.28 20.28 29.51 19.99 29.51ZM19.99 28.58C19.75 28.58 19.56 28.76 19.56 28.99C19.56 29.22 19.75 29.4 19.99 29.4C20.23 29.4 20.42 29.22 20.42 28.99C20.42 28.76 20.22 28.58 19.99 28.58Z" fill="black"/>
<path fill-rule="evenodd" clip-rule="evenodd" d="M20.71 28.0601C20.71 28.3201 20.49 28.5201 20.22 28.5201C19.95 28.5201 19.73 28.3101 19.73 28.0601C19.73 27.8001 19.95 27.6001 20.22 27.6001C20.49 27.6001 20.71 27.8001 20.71 28.0601Z" fill="#FFFF00"/>
<path d="M20.2299 28.58C19.9299 28.58 19.6899 28.35 19.6899 28.06C19.6899 27.77 19.9299 27.54 20.2299 27.54C20.5299 27.54 20.7699 27.77 20.7699 28.06C20.7699 28.35 20.5199 28.58 20.2299 28.58ZM20.2299 27.65C19.9899 27.65 19.7999 27.83 19.7999 28.06C19.7999 28.29 19.9899 28.47 20.2299 28.47C20.4699 28.47 20.6599 28.29 20.6599 28.06C20.6599 27.83 20.4599 27.65 20.2299 27.65Z" fill="black"/>
<path fill-rule="evenodd" clip-rule="evenodd" d="M19.98 28.29C19.98 28.55 19.76 28.75 19.49 28.75C19.22 28.75 19 28.54 19 28.29C19 28.03 19.22 27.83 19.49 27.83C19.76 27.83 19.98 28.03 19.98 28.29Z" fill="#FFFF00"/>
<path d="M19.5 28.81C19.2 28.81 18.96 28.58 18.96 28.29C18.96 28 19.2 27.77 19.5 27.77C19.8 27.77 20.04 28 20.04 28.29C20.04 28.58 19.79 28.81 19.5 28.81ZM19.5 27.88C19.26 27.88 19.07 28.06 19.07 28.29C19.07 28.52 19.26 28.7 19.5 28.7C19.74 28.7 19.93 28.52 19.93 28.29C19.93 28.06 19.73 27.88 19.5 27.88Z" fill="black"/>
<path fill-rule="evenodd" clip-rule="evenodd" d="M21.7799 12.04C20.5399 12.04 20.3799 12.24 19.8199 12.43C19.8199 11.89 21.1999 11.26 22.4199 11.26C22.4199 11.65 22.0999 12.04 21.7799 12.04Z" fill="#DA4500"/>
<path fill-rule="evenodd" clip-rule="evenodd" d="M23.6499 10.8001C23.6499 11.0501 23.4299 11.2601 23.1599 11.2601C22.8899 11.2601 22.6699 11.0501 22.6699 10.7901C22.6699 10.5301 22.8899 10.3301 23.1599 10.3301C23.4299 10.3301 23.6499 10.5301 23.6499 10.8001Z" fill="#CAC9C7"/>
<path fill-rule="evenodd" clip-rule="evenodd" d="M18.52 9.17011V9.87011H19.74V13.3701H20.48V9.87011H21.7V9.17011H20.48V8.24011H19.74V9.17011H18.52Z" fill="#FFFF00"/>
<path d="M20.53 13.4101H19.68V9.91005H18.46V9.16005H18.51V9.11005H19.67V8.18005H20.52V9.11005H21.74V9.92005H20.52V13.4101H20.53ZM19.8 13.3001H20.43V9.80005H21.65V9.21005H20.43V8.28005H19.8V9.21005H18.59V9.80005H19.8V13.3001Z" fill="black"/>
<path fill-rule="evenodd" clip-rule="evenodd" d="M22.43 11.2601C21.44 11.2001 20.44 11.3401 19.5 11.6501C19.5 10.9301 20.34 10.0901 21.78 10.0901C22.1 10.0901 22.43 10.8701 22.43 11.2601Z" fill="#DA4500"/>
<path fill-rule="evenodd" clip-rule="evenodd" d="M9.73003 23.65C9.38003 22.89 9.39003 22.65 10.01 23.52L17.54 37.8L17.31 37.87L9.73003 23.65Z" fill="#008500"/>
<path d="M17.29 37.9L9.69002 23.66C9.38002 22.99 9.45002 22.96 9.48002 22.93C9.52002 22.91 9.58002 22.87 10.03 23.49L17.58 37.81L17.29 37.9ZM9.75002 23.63L17.32 37.82L17.48 37.77L9.97002 23.53C9.66002 23.1 9.55002 23.02 9.52002 23C9.53002 23.04 9.54002 23.17 9.75002 23.63Z" fill="black"/>
<path fill-rule="evenodd" clip-rule="evenodd" d="M14.84 33.04C14.92 31.98 12.98 30.84 12.9 30.91C12.83 30.99 13.02 31.61 13.39 31.92C12.69 31.56 11.95 31.34 11.93 31.49C11.87 31.71 13.03 32.21 13.13 32.41C13.13 32.55 12.27 32.53 12.29 32.67C12.31 32.81 14.72 34.03 14.84 33.04ZM12.9 29.96C12.98 28.9 11.04 27.76 10.97 27.83C10.89 27.9 11.08 28.52 11.45 28.84C10.75 28.48 10.01 28.25 9.98998 28.41C9.93998 28.62 11.09 29.13 11.19 29.33C11.2 29.47 10.34 29.45 10.35 29.59C10.37 29.73 12.78 30.94 12.9 29.96ZM11.42 27.16C11.5 26.1 9.55998 24.96 9.47998 25.03C9.40998 25.1 9.59998 25.72 9.96998 26.04C9.26998 25.68 8.52998 25.45 8.50998 25.61C8.45998 25.82 9.60998 26.33 9.70998 26.53C9.70998 26.67 8.85998 26.65 8.86998 26.79C8.88998 26.93 11.3 28.15 11.42 27.16ZM9.95998 24.12C10.03 23.07 8.09998 21.92 8.01998 21.99C7.93998 22.07 8.13998 22.69 8.49998 23.01C7.79998 22.64 7.05998 22.42 7.04998 22.58C6.98998 22.79 8.14998 23.3 8.23998 23.49C8.24998 23.63 7.38998 23.62 7.40998 23.76C7.41998 23.9 9.82998 25.11 9.95998 24.12Z" fill="#008F00"/>
<path fill-rule="evenodd" clip-rule="evenodd" d="M10.46 23.99C11.4 23.42 11.21 21.25 11.11 21.23C11 21.22 10.59 21.73 10.54 22.21C10.43 21.45 10.18 20.75 10.04 20.83C9.83004 20.91 10.08 22.1 9.97004 22.29C9.87004 22.39 9.37004 21.71 9.27004 21.81C9.15004 21.91 9.55004 24.48 10.47 23.99H10.46ZM11.82 26.65C12.9 26.41 13.49 24.31 13.39 24.26C13.29 24.21 12.73 24.56 12.52 25C12.68 24.25 12.69 23.51 12.52 23.54C12.29 23.55 12.12 24.75 11.95 24.89C11.82 24.95 11.58 24.16 11.45 24.21C11.31 24.27 10.79 26.82 11.82 26.65ZM13.44 29.37C14.43 28.89 14.44 26.71 14.34 26.69C14.24 26.66 13.79 27.14 13.69 27.61C13.65 26.84 13.47 26.13 13.32 26.2C13.1 26.26 13.24 27.46 13.12 27.64C13 27.73 12.57 27.01 12.45 27.1C12.33 27.18 12.49 29.78 13.45 29.37H13.44ZM15.2 32.93C16.23 32.54 16.48 30.38 16.38 30.34C16.28 30.31 15.78 30.74 15.63 31.2C15.67 30.43 15.57 29.7 15.41 29.76C15.18 29.8 15.2 31.01 15.06 31.18C14.93 31.25 14.58 30.5 14.46 30.58C14.33 30.64 14.21 33.25 15.2 32.93Z" fill="#008F00"/>
<path fill-rule="evenodd" clip-rule="evenodd" d="M17.4699 36.64C17.2099 37.09 16.3799 37.13 15.6099 36.72C14.8399 36.31 14.4399 35.61 14.6999 35.17C14.9599 34.72 15.7999 34.68 16.5599 35.09C17.3299 35.49 17.7299 36.19 17.4699 36.64Z" fill="#FF1900"/>
<path d="M16.66 37.06C16.33 37.06 15.95 36.96 15.59 36.77C15.09 36.5 14.72 36.11 14.61 35.71C14.55 35.5 14.57 35.3 14.66 35.14C14.94 34.66 15.81 34.62 16.59 35.04C17.09 35.31 17.46 35.7 17.57 36.1C17.63 36.31 17.61 36.51 17.52 36.67C17.37 36.92 17.04 37.06 16.66 37.06ZM15.51 34.86C15.16 34.86 14.88 34.97 14.75 35.2C14.67 35.34 14.66 35.5 14.71 35.68C14.81 36.04 15.17 36.42 15.64 36.67C16.38 37.06 17.18 37.04 17.43 36.61C17.51 36.48 17.52 36.31 17.47 36.13C17.37 35.77 17.01 35.38 16.54 35.13C16.19 34.95 15.82 34.86 15.51 34.86Z" fill="black"/>
<path fill-rule="evenodd" clip-rule="evenodd" d="M37.3501 21.6201L37.4801 21.2901L37.8301 21.4001L37.9601 21.0701L38.3101 21.1801L38.1801 21.5101L38.5401 21.6201L38.4101 21.9601L38.0501 21.8501L37.7301 22.6801L37.3801 22.5701L37.7001 21.7401L37.3501 21.6201ZM36.6001 24.5701L36.9501 24.6801L33.2001 34.3601L32.8501 34.2501L36.6001 24.5701Z" fill="#FFFF00"/>
<path d="M33.2101 34.39L32.8101 34.27L32.8201 34.25L36.5801 24.54L36.9801 24.66L36.9701 24.68L33.2101 34.39ZM32.8801 34.24L33.1801 34.33L36.9101 24.69L36.6101 24.6L32.8801 34.24ZM37.7401 22.71L37.3401 22.58L37.6601 21.75L37.3101 21.64L37.4601 21.26L37.8101 21.37L37.9401 21.04L38.3401 21.17L38.2101 21.5L38.5701 21.61L38.4201 22L38.0601 21.89L37.7401 22.71ZM37.4101 22.55L37.7101 22.64L38.0301 21.81L38.3901 21.92L38.5001 21.63L38.1401 21.52L38.2701 21.19L37.9701 21.1L37.8401 21.43L37.4901 21.32L37.3801 21.61L37.7301 21.72L37.4101 22.55Z" fill="black"/>
<path fill-rule="evenodd" clip-rule="evenodd" d="M32.7301 34.0301L33.4401 34.2501L32.4001 36.9201L31.7001 36.7001L32.7301 34.0301ZM36.9001 22.7901L37.9601 23.1201C38.6601 23.3401 37.0701 24.9001 37.0701 24.9001L36.3701 24.6801C36.3701 24.6801 36.1901 22.5701 36.9001 22.7901ZM37.8801 22.8101C37.8301 22.9501 37.6301 23.0201 37.4301 22.9501C37.2401 22.8901 37.1201 22.7301 37.1701 22.5901C37.2201 22.4501 37.4201 22.3801 37.6201 22.4501C37.8101 22.5101 37.9301 22.6801 37.8801 22.8101Z" fill="#FFFF00"/>
<path d="M32.42 36.9601L31.66 36.7201L31.67 36.7001L32.71 34.0101L33.47 34.2501L33.46 34.2701L32.42 36.9601ZM31.73 36.6901L32.39 36.9001L33.41 34.2701L32.75 34.0601L31.73 36.6901ZM37.08 24.9301L36.35 24.7001V24.6801C36.34 24.6201 36.23 23.1301 36.63 22.8001C36.71 22.7401 36.81 22.7201 36.91 22.7501L37.23 22.8501C37.2 22.8201 37.18 22.7901 37.16 22.7501C37.13 22.6901 37.13 22.6201 37.15 22.5601C37.21 22.4101 37.42 22.3401 37.63 22.4001C37.75 22.4401 37.85 22.5101 37.89 22.6101C37.92 22.6701 37.92 22.7401 37.9 22.8001C37.86 22.8901 37.77 22.9601 37.65 22.9701L37.97 23.0701C38.07 23.1001 38.14 23.1601 38.16 23.2501C38.27 23.7201 37.14 24.8401 37.09 24.8901L37.08 24.9301ZM36.39 24.6701L37.06 24.8801C37.18 24.7601 38.21 23.7201 38.11 23.3001C38.09 23.2301 38.04 23.1801 37.96 23.1501L36.9 22.8201C36.81 22.7901 36.73 22.8001 36.66 22.8601C36.29 23.1401 36.38 24.5001 36.39 24.6701ZM37.47 22.4501C37.34 22.4501 37.23 22.5101 37.19 22.6001C37.17 22.6501 37.18 22.7001 37.2 22.7501C37.24 22.8301 37.33 22.9001 37.43 22.9301C37.61 22.9901 37.79 22.9301 37.85 22.8001C37.87 22.7501 37.86 22.7001 37.84 22.6501C37.8 22.5701 37.72 22.5001 37.61 22.4701C37.57 22.4601 37.52 22.4501 37.47 22.4501Z" fill="black"/>
<path fill-rule="evenodd" clip-rule="evenodd" d="M33.2999 35.42C33.5999 35.85 33.2499 36.57 32.5199 37.04C31.7799 37.51 30.9599 37.52 30.6599 37.1C30.3599 36.67 30.7099 35.95 31.4399 35.48C32.1699 35.01 33.0099 34.99 33.2999 35.42Z" fill="#FF1900"/>
<path d="M31.38 37.45C31.04 37.45 30.76 37.34 30.61 37.12C30.5 36.97 30.47 36.77 30.51 36.55C30.59 36.15 30.93 35.72 31.4 35.42C32.15 34.94 33.02 34.92 33.34 35.38C33.45 35.54 33.48 35.73 33.44 35.95C33.36 36.35 33.02 36.77 32.55 37.08C32.16 37.33 31.74 37.45 31.38 37.45ZM32.58 35.17C32.24 35.17 31.84 35.29 31.47 35.53C31.02 35.81 30.7 36.22 30.63 36.59C30.59 36.78 30.62 36.94 30.71 37.07C30.99 37.48 31.79 37.44 32.5 37C32.95 36.71 33.27 36.32 33.35 35.94C33.39 35.75 33.36 35.59 33.27 35.46C33.12 35.26 32.88 35.17 32.58 35.17Z" fill="black"/>
</g>
</g>
</g>
<defs>
<clipPath id="clip0_191_23379">
<rect width="48" height="48" fill="white"/>
</clipPath>
<clipPath id="clip1_191_23379">
<rect width="64" height="48" fill="white" transform="translate(-8)"/>
</clipPath>
</defs>
</svg>
