<svg width="48" height="48" viewBox="0 0 48 48" fill="none" xmlns="http://www.w3.org/2000/svg">
<g clip-path="url(#clip0_152_46362)">
<mask id="mask0_152_46362" style="mask-type:alpha" maskUnits="userSpaceOnUse" x="0" y="0" width="48" height="48">
<circle cx="24" cy="24" r="24" fill="#D9D9D9"/>
</mask>
<g mask="url(#mask0_152_46362)">
<g clip-path="url(#clip1_152_46362)">
<path d="M-8 32H56V48H-8V32Z" fill="black"/>
<path d="M-8 16H56V32H-8V16Z" fill="white"/>
<path d="M-8 0H56V16H-8V0Z" fill="#CE1126"/>
<path d="M24.0641 24.192L29.5441 29.28L29.1521 20.04C29.0961 18.64 27.8801 18.96 26.9921 19.464C26.1041 20.04 25.0721 20.04 24.0001 19.664C22.9201 20.04 21.8961 20.04 21.0081 19.464C20.1281 18.96 18.9041 18.64 18.8481 20.04L18.4561 29.28L24.0641 24.192Z" fill="white"/>
<path fill-rule="evenodd" clip-rule="evenodd" d="M19.6151 18.9862C20.0544 18.9529 20.5919 19.1657 21.0339 19.4189C21.0347 19.4194 21.0355 19.4199 21.0364 19.4204C21.9066 19.9849 22.9126 19.9875 23.983 19.6149C23.9941 19.611 24.0062 19.611 24.0173 19.6149C25.0795 19.9875 26.0934 19.9849 26.9638 19.4204C26.9646 19.4198 26.9655 19.4193 26.9664 19.4188C27.4122 19.1658 27.9497 18.9529 28.388 18.9862C28.6094 19.0029 28.8086 19.0829 28.9554 19.2547C29.1013 19.4256 29.1897 19.681 29.204 20.0379L29.596 29.2778C29.5969 29.2989 29.585 29.3184 29.5658 29.3272C29.5467 29.3361 29.5241 29.3325 29.5087 29.3181L24.0636 24.2626L18.491 29.3185C18.4755 29.3326 18.453 29.336 18.434 29.3271C18.415 29.3182 18.4032 29.2988 18.4041 29.2778L18.7961 20.0379C18.7961 20.0379 18.7961 20.0379 18.7961 20.0379C18.8104 19.6809 18.8994 19.4255 19.046 19.2547C19.1933 19.0828 19.3933 19.0029 19.6151 18.9862ZM24.0641 24.192L24.0994 24.1539L29.4867 29.1558L29.1001 20.0422L29.1001 20.0421C29.0864 19.699 29.0018 19.4694 28.8763 19.3223C28.7515 19.1761 28.5807 19.1051 28.3801 19.0899C27.9748 19.0591 27.4609 19.2579 27.019 19.5085C26.1184 20.092 25.0752 20.0923 24 19.7191C22.917 20.0923 21.8816 20.092 20.981 19.5084C20.5432 19.2579 20.0293 19.0591 19.623 19.0899C19.4218 19.1051 19.2503 19.1762 19.1249 19.3224C18.9987 19.4695 18.9137 19.6991 18.9 20.0421L18.9 20.0422L18.5133 29.1579L24.0291 24.1535L24.0641 24.192Z" fill="#C09300"/>
<path d="M19.4802 19.72L19.0962 28.704L18.4562 29.28L18.8482 20.04C19.0372 19.8951 19.2515 19.7866 19.4802 19.72ZM20.2482 20.36L19.9282 27.88L19.2882 28.536L19.6722 19.856C19.8002 19.984 20.1762 20.296 20.2482 20.36ZM20.9442 20.936L20.6962 27.208L20.1762 27.712L20.4962 20.56C20.6242 20.68 20.8802 20.864 20.9442 20.936ZM21.7042 21.256L21.4562 26.6L20.9522 27.008L21.2002 21.064C21.3282 21.12 21.5762 21.256 21.7042 21.256ZM22.4082 21.256L22.2242 25.712L21.7042 26.216L21.9042 21.312C22.0242 21.312 22.3522 21.312 22.4082 21.256Z" fill="#C09300"/>
<path d="M28.5228 19.72L28.9068 28.704L29.5468 29.28L29.1548 20.04C28.9658 19.8951 28.7514 19.7866 28.5228 19.72ZM27.7548 20.36L28.0748 27.88L28.7148 28.536L28.3308 19.856C28.2028 19.984 27.8268 20.296 27.7548 20.36ZM27.0588 20.936L27.3068 27.208L27.8268 27.712L27.5068 20.56C27.3788 20.68 27.1228 20.864 27.0588 20.936ZM26.2988 21.256L26.5468 26.6L27.0508 27.008L26.8028 21.064C26.6748 21.12 26.4268 21.256 26.2988 21.256ZM25.5948 21.256L25.7788 25.712L26.2988 26.216L26.0988 21.312C25.9788 21.312 25.6508 21.312 25.5948 21.256Z" fill="#C09300"/>
<path d="M24.2561 25.2L25.0241 28.704L24.7681 28.96L24.5041 28.76L24.0721 25.64L24.2561 28.76L24.0001 29.08L23.7521 28.76L23.9361 25.64L23.4961 28.76L23.2321 28.96L22.9761 28.704L23.7441 25.208H24.2561V25.2Z" fill="#C09300"/>
<path fill-rule="evenodd" clip-rule="evenodd" d="M23.7086 25.164H24.256V25.1952L24.299 25.1906L25.0721 28.7181L24.772 29.0182L24.4629 28.7841L24.1817 26.7533L24.3009 28.7743L23.9994 29.1511L23.7071 28.7739L23.8283 26.7187L23.537 28.7841L23.228 29.0182L22.9279 28.7181L23.7086 25.164ZM24.2224 25.252H23.7794L23.0241 28.6899L23.236 28.9018L23.455 28.7359L23.8924 25.6339L23.9799 25.6426L23.7969 28.7461L24.0005 29.0089L24.2111 28.7457L24.0281 25.6426L24.1156 25.634L24.5451 28.7359L24.764 28.9018L24.9759 28.6899L24.2224 25.252Z" fill="#C09300"/>
<path d="M22.2802 23.6638L20.7522 29.0798L22.8562 29.3998L23.7442 25.3278L22.2802 23.6638Z" fill="white"/>
<path fill-rule="evenodd" clip-rule="evenodd" d="M22.2696 23.617C22.2867 23.6131 22.3046 23.6189 22.3163 23.6321L23.7803 25.2961C23.7903 25.3076 23.7944 25.3232 23.7911 25.3381L22.9031 29.4101C22.8977 29.4348 22.874 29.4511 22.849 29.4473L20.745 29.1273C20.7314 29.1252 20.7193 29.1174 20.7119 29.1058C20.7044 29.0943 20.7023 29.0801 20.706 29.0668L22.234 23.6508C22.2388 23.6339 22.2524 23.6209 22.2696 23.617ZM22.3025 23.7618L20.8132 29.0406L22.8189 29.3456L23.6922 25.3413L22.3025 23.7618Z" fill="#C09300"/>
<path fill-rule="evenodd" clip-rule="evenodd" d="M22.9881 25.0535L21.9961 25.9975C21.9837 26.0093 21.9663 26.0142 21.9496 26.0107C21.9328 26.0072 21.9189 25.9957 21.9123 25.9799L21.7283 25.5399L21.8242 25.4998L21.9791 25.8701L22.9164 24.9781L22.9881 25.0535Z" fill="#C09300"/>
<path fill-rule="evenodd" clip-rule="evenodd" d="M22.4451 24.3515C22.4668 24.3429 22.4916 24.3498 22.5057 24.3685L23.3457 25.4805C23.3597 25.4991 23.3597 25.5247 23.3456 25.5433L23.1089 25.8549L23.3643 26.746L23.4848 26.5632C23.5006 26.5392 23.5328 26.5326 23.5568 26.5484C23.5808 26.5642 23.5874 26.5965 23.5716 26.6205L23.4021 26.8777L23.4422 27.0175C23.4501 27.0451 23.4341 27.0739 23.4065 27.0818C23.3789 27.0897 23.3501 27.0738 23.3422 27.0462L23.3267 26.9921L22.8815 27.6675L23.0991 28.6931L22.9973 28.7146L22.7993 27.7812L22.3878 28.4122C22.3768 28.429 22.3572 28.438 22.3373 28.4354C22.3174 28.4327 22.3009 28.4189 22.2947 28.3998L22.0813 27.739L21.6765 28.3951C21.6656 28.4128 21.6452 28.4223 21.6247 28.4193C21.6042 28.4163 21.5874 28.4014 21.582 28.3814L21.254 27.1654C21.2492 27.1476 21.2541 27.1287 21.267 27.1155L21.923 26.4435C21.936 26.4302 21.9552 26.4248 21.9732 26.4295C21.9912 26.4341 22.0054 26.4481 22.0103 26.4661L22.1822 27.0915L22.5905 26.5447C22.6029 26.5281 22.624 26.5205 22.6442 26.5252C22.6643 26.53 22.6797 26.5463 22.6834 26.5667L22.8541 27.5201L23.2889 26.8604L23.0304 25.9583L22.7136 26.3753C22.7007 26.3923 22.6788 26.3997 22.6583 26.3939C22.6377 26.3882 22.6228 26.3706 22.6205 26.3494L22.4125 24.4054C22.41 24.3821 22.4233 24.3601 22.4451 24.3515ZM23.0338 25.7819C23.0112 25.7884 22.9964 25.809 22.9962 25.8314L22.71 26.2081L22.5359 24.581L23.239 25.5118L23.0338 25.7819ZM22.7694 27.6367L22.6021 26.703L22.2019 27.239C22.19 27.2549 22.1701 27.2626 22.1505 27.2589C22.131 27.2553 22.1153 27.2408 22.1101 27.2216L21.9341 26.581L21.3621 27.1669L21.6511 28.2382L22.0519 27.5885C22.0626 27.5713 22.0823 27.5618 22.1024 27.5642C22.1226 27.5667 22.1395 27.5806 22.1457 27.5999L22.3602 28.2641L22.7694 27.6367Z" fill="#C09300"/>
<path fill-rule="evenodd" clip-rule="evenodd" d="M21.6327 28.3086C21.6523 28.3118 21.6684 28.326 21.674 28.3451L21.9125 29.1516L22.2356 28.6131C22.2461 28.5956 22.2658 28.5859 22.2861 28.5882C22.3064 28.5905 22.3234 28.6045 22.3297 28.6239L22.5777 29.3919L22.4787 29.4238L22.2659 28.7648L21.9408 29.3066C21.9302 29.3243 21.9101 29.334 21.8896 29.3314C21.8692 29.3288 21.8522 29.3144 21.8463 29.2946L21.6047 28.4775L21.2426 28.9899L21.1577 28.9299L21.5817 28.3299C21.5932 28.3136 21.613 28.3053 21.6327 28.3086Z" fill="#C09300"/>
<path d="M25.7841 23.6638L27.3121 29.0798L25.2081 29.3998L24.3201 25.3278L25.7841 23.6638Z" fill="white"/>
<path fill-rule="evenodd" clip-rule="evenodd" d="M25.7947 23.617C25.7776 23.6131 25.7597 23.6189 25.7481 23.6321L24.2841 25.2961C24.274 25.3076 24.27 25.3232 24.2732 25.3381L25.1612 29.4101C25.1666 29.4348 25.1903 29.4511 25.2153 29.4473L27.3193 29.1273C27.3329 29.1252 27.345 29.1174 27.3525 29.1058C27.3599 29.0943 27.362 29.0801 27.3583 29.0668L25.8303 23.6508C25.8255 23.6339 25.8119 23.6209 25.7947 23.617ZM25.7619 23.7618L27.2512 29.0406L25.2454 29.3456L24.3722 25.3413L25.7619 23.7618Z" fill="#C09300"/>
<path fill-rule="evenodd" clip-rule="evenodd" d="M25.0762 25.0535L26.0682 25.9975C26.0806 26.0093 26.098 26.0142 26.1148 26.0107C26.1315 26.0072 26.1455 25.9957 26.1521 25.9799L26.3361 25.5399L26.2401 25.4998L26.0852 25.8701L25.1479 24.9781L25.0762 25.0535Z" fill="#C09300"/>
<path fill-rule="evenodd" clip-rule="evenodd" d="M25.6193 24.3515C25.5975 24.3429 25.5727 24.3498 25.5586 24.3685L24.7186 25.4805C24.7046 25.4991 24.7046 25.5247 24.7187 25.5433L24.9554 25.8549L24.7 26.746L24.5795 26.5632C24.5637 26.5392 24.5315 26.5326 24.5075 26.5484C24.4835 26.5642 24.4769 26.5965 24.4927 26.6205L24.6622 26.8777L24.6221 27.0175C24.6142 27.0451 24.6302 27.0739 24.6578 27.0818C24.6854 27.0897 24.7142 27.0738 24.7221 27.0462L24.7376 26.9921L25.1828 27.6675L24.9653 28.6931L25.067 28.7146L25.265 27.7812L25.6766 28.4122C25.6875 28.429 25.7071 28.438 25.727 28.4354C25.7469 28.4327 25.7635 28.4189 25.7696 28.3998L25.983 27.739L26.3879 28.3951C26.3988 28.4128 26.4191 28.4223 26.4396 28.4193C26.4602 28.4163 26.4769 28.4014 26.4823 28.3814L26.8103 27.1654C26.8151 27.1476 26.8102 27.1287 26.7973 27.1155L26.1413 26.4435C26.1283 26.4302 26.1092 26.4248 26.0911 26.4295C26.0731 26.4341 26.0589 26.4481 26.054 26.4661L25.8822 27.0915L25.4738 26.5447C25.4614 26.5281 25.4403 26.5205 25.4202 26.5252C25.4 26.53 25.3846 26.5463 25.3809 26.5667L25.2102 27.5201L24.7754 26.8604L25.034 25.9583L25.3507 26.3753C25.3636 26.3923 25.3856 26.3997 25.4061 26.3939C25.4266 26.3882 25.4416 26.3706 25.4438 26.3494L25.6518 24.4054C25.6543 24.3821 25.641 24.3601 25.6193 24.3515ZM25.0306 25.7819C25.0532 25.7884 25.0679 25.809 25.0681 25.8314L25.3544 26.2081L25.5285 24.581L24.8254 25.5118L25.0306 25.7819ZM25.295 27.6367L25.4622 26.703L25.8625 27.239C25.8744 27.2549 25.8943 27.2626 25.9138 27.2589C25.9333 27.2553 25.949 27.2408 25.9543 27.2216L26.1303 26.581L26.7022 27.1669L26.4132 28.2382L26.0124 27.5885C26.0017 27.5713 25.982 27.5618 25.9619 27.5642C25.9418 27.5667 25.9249 27.5806 25.9186 27.5999L25.7041 28.2641L25.295 27.6367Z" fill="#C09300"/>
<path fill-rule="evenodd" clip-rule="evenodd" d="M26.4317 28.3086C26.412 28.3118 26.3959 28.326 26.3903 28.3451L26.1518 29.1516L25.8287 28.6131C25.8182 28.5956 25.7985 28.5859 25.7782 28.5882C25.758 28.5905 25.7409 28.6045 25.7347 28.6239L25.4867 29.3919L25.5856 29.4238L25.7985 28.7648L26.1236 29.3066C26.1342 29.3243 26.1542 29.334 26.1747 29.3314C26.1952 29.3288 26.2122 29.3144 26.218 29.2946L26.4596 28.4775L26.8217 28.9899L26.9066 28.9299L26.4826 28.3299C26.4711 28.3136 26.4513 28.3053 26.4317 28.3086Z" fill="#C09300"/>
<path d="M24 31.504C25.6 31.504 27.12 31.376 28.016 31.128C28.392 31.056 28.392 30.864 28.392 30.608C28.776 30.48 28.584 30.032 28.848 30.032C28.576 30.112 28.528 29.592 28.208 29.656C28.208 29.208 27.752 29.152 27.376 29.28C26.616 29.528 25.272 29.592 24 29.592C22.72 29.528 21.392 29.528 20.624 29.272C20.248 29.152 19.8 29.208 19.8 29.656C19.48 29.592 19.424 30.104 19.16 30.032C19.424 30.032 19.224 30.488 19.608 30.608C19.608 30.864 19.608 31.056 19.992 31.128C20.872 31.376 22.408 31.504 24 31.504Z" fill="white"/>
<path fill-rule="evenodd" clip-rule="evenodd" d="M20.0397 29.1603C20.2253 29.0961 20.4541 29.117 20.6533 29.1806L20.6545 29.1809L20.6545 29.1809C21.0259 29.3047 21.5391 29.3683 22.1266 29.4082C22.4885 29.4329 22.873 29.4483 23.2655 29.464C23.5093 29.4738 23.7561 29.4837 24.0025 29.496C25.2759 29.4959 26.603 29.4311 27.3457 29.1889C27.5455 29.121 27.7761 29.0981 27.9636 29.161C28.0591 29.193 28.1459 29.2483 28.2084 29.3335C28.2542 29.3959 28.2841 29.4705 28.297 29.5564C28.3595 29.5632 28.4138 29.5873 28.4607 29.621C28.5279 29.6691 28.5805 29.7372 28.6222 29.7915L28.6237 29.7935C28.669 29.8524 28.7017 29.895 28.7366 29.9217C28.7526 29.9339 28.7668 29.9412 28.782 29.9436C28.8031 29.9384 28.8252 29.936 28.8481 29.936C28.8958 29.936 28.9363 29.9711 28.9431 30.0183C28.9499 30.0656 28.921 30.1106 28.8752 30.1241C28.8546 30.1302 28.8347 30.1339 28.8155 30.1355C28.8123 30.138 28.808 30.1426 28.8028 30.1516C28.7883 30.177 28.7796 30.2115 28.7655 30.2667C28.7632 30.2759 28.7607 30.2856 28.7581 30.296C28.7413 30.361 28.7179 30.4428 28.668 30.5174C28.6266 30.5793 28.5689 30.6335 28.488 30.6726C28.487 30.7764 28.4798 30.8875 28.43 30.9818C28.3643 31.1062 28.2385 31.1825 28.038 31.2216C27.1286 31.4725 25.5999 31.6 24.0001 31.6C22.4088 31.6 20.8641 31.4725 19.9701 31.2216C19.7665 31.1827 19.6386 31.1068 19.5716 30.9826C19.5207 30.8883 19.5133 30.7772 19.5122 30.6737C19.4315 30.6359 19.3741 30.5823 19.3331 30.5203C19.2838 30.4456 19.2615 30.3629 19.2458 30.2974C19.2431 30.2863 19.2406 30.2759 19.2383 30.2661C19.2254 30.2113 19.2172 30.1767 19.2032 30.1512C19.1976 30.1408 19.193 30.1364 19.1901 30.1343C19.1723 30.133 19.1539 30.1298 19.1348 30.1246C19.0884 30.112 19.0586 30.0669 19.0649 30.0193C19.0713 29.9716 19.112 29.936 19.1601 29.936C19.1807 29.936 19.2007 29.938 19.2199 29.9422C19.2353 29.9399 19.2502 29.9324 19.2675 29.9189C19.3017 29.8922 19.3338 29.8513 19.3774 29.7957C19.3794 29.7931 19.3814 29.7905 19.3835 29.7878C19.426 29.7336 19.4794 29.6664 19.5473 29.6191C19.5945 29.5863 19.6489 29.5627 19.7111 29.5562C19.7237 29.4707 19.7531 29.3963 19.7981 29.334C19.8596 29.2487 19.9452 29.193 20.0397 29.1603ZM19.3797 30.0748C19.4024 30.1227 19.4156 30.1801 19.4266 30.2274C19.4286 30.2362 19.4305 30.2446 19.4324 30.2526C19.4477 30.3161 19.4639 30.37 19.4933 30.4145C19.5206 30.4557 19.5619 30.493 19.6367 30.5164C19.6768 30.5289 19.7041 30.566 19.7041 30.608C19.7041 30.7434 19.7064 30.8281 19.7406 30.8914C19.7691 30.9444 19.8319 31.0003 20.0098 31.0337C20.0126 31.0342 20.0154 31.0348 20.0181 31.0356C20.8848 31.2799 22.4098 31.408 24.0001 31.408C25.5981 31.408 27.1074 31.2799 27.9905 31.0355C27.993 31.0348 27.9955 31.0342 27.998 31.0337C28.1713 31.0005 28.2323 30.9451 28.2602 30.8922C28.2938 30.8285 28.2961 30.7433 28.2961 30.608C28.2961 30.5667 28.3225 30.53 28.3617 30.5169C28.4373 30.4917 28.48 30.4531 28.5084 30.4106C28.5388 30.3652 28.5559 30.311 28.5721 30.248C28.5741 30.2404 28.5761 30.2322 28.5782 30.2238C28.5895 30.1787 28.603 30.1243 28.6249 30.0779C28.6233 30.0767 28.6217 30.0755 28.62 30.0743C28.5641 30.0315 28.517 29.97 28.4785 29.9197C28.4756 29.9159 28.4728 29.9121 28.47 29.9085C28.4257 29.8508 28.3893 29.806 28.3489 29.7771C28.3136 29.7517 28.2772 29.7401 28.2269 29.7501C28.1987 29.7558 28.1695 29.7485 28.1472 29.7303C28.125 29.712 28.1121 29.6848 28.1121 29.656C28.1121 29.5608 28.0881 29.4941 28.0536 29.4471C28.0188 29.3997 27.9681 29.365 27.9026 29.343C27.7683 29.298 27.5831 29.3109 27.407 29.3709L27.4059 29.3713L27.4059 29.3713C26.629 29.6248 25.2696 29.688 24.0001 29.688C23.9985 29.688 23.9969 29.688 23.9953 29.6879C23.7525 29.6757 23.5065 29.6659 23.2625 29.6561C22.8675 29.6402 22.4774 29.6245 22.1136 29.5998C21.5253 29.5598 20.9909 29.4953 20.5943 29.3633C20.4177 29.307 20.2347 29.296 20.1025 29.3417C20.038 29.364 19.9881 29.3988 19.9538 29.4463C19.9197 29.4935 19.8961 29.5605 19.8961 29.656C19.8961 29.6848 19.8832 29.712 19.861 29.7303C19.8387 29.7485 19.8095 29.7558 19.7813 29.7501C19.7305 29.74 19.6932 29.7515 19.6571 29.7767C19.6162 29.8051 19.5792 29.8494 19.5347 29.9062C19.5312 29.9106 19.5277 29.9151 19.5241 29.9197C19.4857 29.9689 19.4393 30.0284 19.3854 30.0704C19.3835 30.0719 19.3816 30.0733 19.3797 30.0748Z" fill="#C09300"/>
<path d="M21.8322 29.08C22.3442 29.152 22.9202 29.208 23.3682 29.152C23.6242 29.152 23.8082 29.592 23.2962 29.656C22.8562 29.712 22.1522 29.656 21.7762 29.592C21.2813 29.5054 20.7903 29.3986 20.3042 29.272C19.8562 29.08 20.1762 28.712 20.4322 28.76C20.8889 28.9063 21.3572 29.0134 21.8322 29.08ZM26.1682 29.08C25.6562 29.152 25.0802 29.208 24.6482 29.152C24.3762 29.152 24.1922 29.592 24.7042 29.656C25.1522 29.712 25.8482 29.656 26.2242 29.592C26.5441 29.528 27.2482 29.408 27.6962 29.272C28.1442 29.08 27.8242 28.712 27.5682 28.76C27.1115 28.9064 26.6431 29.0134 26.1682 29.08Z" fill="white"/>
<path fill-rule="evenodd" clip-rule="evenodd" d="M20.321 29.2227C20.2182 29.178 20.1674 29.1268 20.146 29.0819C20.125 29.0379 20.1285 28.9925 20.1504 28.9496C20.1728 28.9056 20.2142 28.8654 20.2651 28.8389C20.3148 28.8129 20.3698 28.8021 20.4195 28.8106C20.8779 28.9573 21.3481 29.0646 21.8248 29.1315M20.321 29.2227C20.8044 29.3485 21.2928 29.4546 21.7849 29.5408C22.1584 29.6043 22.8566 29.6595 23.2895 29.6044L23.2896 29.6044C23.4107 29.5893 23.4828 29.5528 23.5227 29.5133C23.5614 29.475 23.5736 29.4301 23.5684 29.3861C23.5573 29.2929 23.4692 29.2058 23.371 29.204C22.9161 29.2603 22.3357 29.2034 21.8248 29.1315M20.217 28.7467C20.2842 28.7116 20.364 28.6944 20.4416 28.7089C20.4437 28.7093 20.4458 28.7098 20.4479 28.7105C20.9018 28.8559 21.3673 28.9623 21.8393 29.0285L21.832 29.08L21.8393 29.0285C22.3511 29.1005 22.9211 29.1555 23.3616 29.1004C23.3637 29.1002 23.3659 29.1 23.368 29.1C23.5246 29.1 23.6548 29.232 23.6717 29.3739C23.6805 29.4479 23.6586 29.5251 23.5959 29.5872C23.5343 29.6482 23.4375 29.6907 23.3026 29.7076C22.8555 29.7645 22.1458 29.7077 21.7673 29.6433L21.7671 29.6432C21.2709 29.5564 20.7784 29.4493 20.2909 29.3223C20.2884 29.3217 20.2859 29.3208 20.2835 29.3198C20.1647 29.2689 20.0884 29.2028 20.0521 29.1267C20.0151 29.0491 20.0236 28.9695 20.0577 28.9024C20.0913 28.8364 20.1499 28.7816 20.217 28.7467ZM27.948 29.1267C27.9116 29.2028 27.8353 29.2689 27.7165 29.3198C27.7148 29.3206 27.713 29.3212 27.7111 29.3218C27.3522 29.4307 26.8303 29.5295 26.4723 29.5973C26.3803 29.6147 26.2991 29.63 26.2342 29.643L26.2328 29.6433C25.8542 29.7077 25.1526 29.7645 24.6976 29.7076C24.5627 29.6908 24.4658 29.6482 24.4044 29.5871C24.3417 29.5248 24.3204 29.4473 24.3305 29.373C24.3499 29.2301 24.4852 29.1 24.648 29.1C24.6503 29.1 24.6525 29.1002 24.6547 29.1004C25.079 29.1555 25.6488 29.1005 26.1608 29.0285L26.168 29.08L26.1608 29.0285C26.6328 28.9623 27.0983 28.856 27.5522 28.7105C27.5542 28.7098 27.5563 28.7093 27.5585 28.7089C27.636 28.6944 27.7158 28.7116 27.7831 28.7467C27.8502 28.7816 27.9088 28.8364 27.9424 28.9024C27.9765 28.9695 27.985 29.0491 27.948 29.1267ZM26.1753 29.1315C25.6647 29.2033 25.0842 29.2603 24.6449 29.204C24.5371 29.2057 24.4461 29.2949 24.4336 29.387C24.4276 29.4307 24.4393 29.4752 24.4777 29.5134C24.5173 29.5528 24.5894 29.5893 24.7105 29.6044C25.1512 29.6595 25.841 29.6044 26.2146 29.5409C26.2812 29.5276 26.3638 29.5119 26.4569 29.4943C26.8142 29.4267 27.3254 29.3299 27.6781 29.2231C27.7816 29.1783 27.8326 29.1269 27.8541 29.0819C27.8751 29.0379 27.8716 28.9925 27.8497 28.9496C27.8273 28.9056 27.7859 28.8654 27.735 28.8389C27.6852 28.8129 27.6303 28.8021 27.5806 28.8106C27.1221 28.9573 26.652 29.0647 26.1753 29.1315" fill="#C09300"/>
<path d="M20.2401 28.832C19.8561 28.76 19.6801 29.208 19.8001 29.464C19.8561 29.336 20.1201 29.336 20.1761 29.208C20.2481 29.016 20.1201 29.016 20.2481 28.832H20.2401ZM21.7761 30.008C21.7761 29.752 22.0241 29.784 22.0241 29.528C22.0241 29.408 21.9601 29.208 21.8321 29.208C21.7654 29.2118 21.7025 29.24 21.6553 29.2872C21.6081 29.3344 21.5799 29.3974 21.5761 29.464C21.5201 29.712 21.7761 29.752 21.7761 30.008ZM23.5921 29.28C23.9681 29.28 23.9281 29.784 23.7521 30.04C23.7521 29.856 23.4321 29.784 23.4321 29.656C23.4321 29.464 23.7201 29.464 23.5921 29.28ZM27.7521 28.832C28.1441 28.76 28.3281 29.208 28.2001 29.464C28.1441 29.336 27.8801 29.336 27.8241 29.208C27.7521 29.016 27.8801 29.016 27.7521 28.832ZM26.2401 30C26.2401 29.744 25.9841 29.776 25.9841 29.52C25.9841 29.4 26.0481 29.2 26.1761 29.2C26.2427 29.2038 26.3056 29.232 26.3528 29.2792C26.4001 29.3264 26.4283 29.3894 26.4321 29.456C26.4881 29.704 26.2321 29.744 26.2321 30H26.2401ZM24.4001 29.28C24.0241 29.28 24.0641 29.784 24.2401 30.04C24.2401 29.856 24.5601 29.784 24.5601 29.656C24.5601 29.464 24.2721 29.464 24.4001 29.28Z" fill="white"/>
<path fill-rule="evenodd" clip-rule="evenodd" d="M20.2448 28.78C20.0296 28.7417 19.8712 28.8498 19.7859 28.9992C19.7019 29.1466 19.6848 29.3405 19.753 29.4861C19.7617 29.5045 19.7803 29.5162 19.8008 29.516C19.8212 29.5157 19.8395 29.5035 19.8477 29.4848C19.8556 29.4669 19.8722 29.45 19.9012 29.4326C19.9305 29.4151 19.9665 29.4006 20.0074 29.3843L20.0094 29.3835C20.048 29.368 20.0912 29.3508 20.1282 29.3286C20.1662 29.306 20.2036 29.2749 20.2237 29.2288C20.2241 29.228 20.2244 29.2271 20.2248 29.2262C20.2447 29.1732 20.2516 29.1311 20.2517 29.0943C20.2518 29.0659 20.2477 29.0407 20.2445 29.0217C20.2438 29.0172 20.2431 29.0131 20.2425 29.0093C20.2395 28.989 20.2386 28.9733 20.2434 28.9538C20.2485 28.9332 20.2609 28.9046 20.2908 28.8617C20.3018 28.8458 20.3031 28.8251 20.2942 28.8079C20.2852 28.7907 20.2674 28.78 20.2481 28.78H20.2448ZM20.1616 28.8763C20.0307 28.8756 19.9346 28.9485 19.8763 29.0507C19.8221 29.1457 19.8033 29.2618 19.8216 29.3607C19.8302 29.3544 19.8391 29.3486 19.8479 29.3433C19.885 29.3212 19.9282 29.3039 19.9668 29.2885L19.9688 29.2877C20.0097 29.2713 20.0456 29.2568 20.0749 29.2393C20.1034 29.2223 20.1199 29.2058 20.1279 29.1883C20.1436 29.1461 20.1476 29.1166 20.1477 29.0939C20.1478 29.075 20.1454 29.0605 20.1425 29.0425C20.1416 29.0369 20.1406 29.0311 20.1396 29.0246C20.1357 28.998 20.133 28.9671 20.1425 28.9289C20.1466 28.9122 20.1528 28.8948 20.1616 28.8763ZM27.7521 28.832L27.7094 28.8617C27.7393 28.9046 27.7516 28.9332 27.7567 28.9538C27.7615 28.9733 27.7607 28.989 27.7576 29.0093C27.7571 29.0131 27.7564 29.0172 27.7557 29.0217C27.7525 29.0407 27.7483 29.0659 27.7485 29.0943C27.7486 29.1311 27.7555 29.1732 27.7754 29.2262C27.7757 29.2271 27.7761 29.228 27.7764 29.2288C27.7966 29.2749 27.834 29.306 27.8719 29.3286C27.909 29.3508 27.9522 29.368 27.9908 29.3835L27.9928 29.3843C28.0337 29.4006 28.0696 29.4151 28.0989 29.4326C28.128 29.45 28.1446 29.4669 28.1524 29.4848C28.1605 29.5033 28.1786 29.5155 28.1987 29.516C28.2189 29.5165 28.2376 29.5053 28.2466 29.4872C28.3197 29.341 28.3023 29.1463 28.216 28.9987C28.1277 28.848 27.9636 28.7403 27.7427 28.7808L27.7521 28.832ZM28.1262 29.0512C28.0674 28.9507 27.9702 28.8779 27.8386 28.8763C27.8473 28.8948 27.8536 28.9122 27.8577 28.9289C27.8671 28.9671 27.8645 28.998 27.8605 29.0246C27.8596 29.0311 27.8586 29.0369 27.8577 29.0425C27.8548 29.0605 27.8524 29.075 27.8525 29.0939C27.8526 29.1166 27.8566 29.1461 27.8722 29.1883C27.8803 29.2058 27.8968 29.2223 27.9252 29.2393C27.9545 29.2568 27.9905 29.2713 28.0314 29.2877L28.0334 29.2885C28.072 29.3039 28.1152 29.3212 28.1522 29.3433C28.1617 29.349 28.1712 29.3552 28.1804 29.362C28.2008 29.2633 28.182 29.1467 28.1262 29.0512ZM26.0787 29.338C26.0505 29.3953 26.0361 29.4674 26.0361 29.52C26.0361 29.5743 26.0494 29.6104 26.0677 29.6387C26.0871 29.6687 26.1135 29.6921 26.1463 29.7209L26.1483 29.7226C26.1746 29.7456 26.2053 29.7724 26.2311 29.8067C26.2529 29.7682 26.2785 29.7356 26.3017 29.7062C26.3053 29.7017 26.3087 29.6973 26.3121 29.693C26.3406 29.6565 26.3628 29.6257 26.3758 29.5912C26.3882 29.5585 26.3932 29.5199 26.3814 29.4674C26.3807 29.4647 26.3803 29.4618 26.3802 29.459C26.3771 29.4051 26.3543 29.3542 26.3161 29.316C26.2783 29.2782 26.228 29.2554 26.1747 29.252C26.1419 29.2527 26.1078 29.279 26.0787 29.338ZM26.2886 29.9473C26.3016 29.875 26.3411 29.8246 26.386 29.7673C26.3887 29.7639 26.3914 29.7605 26.3941 29.757C26.4226 29.7205 26.4539 29.6788 26.4731 29.628C26.4926 29.5765 26.4987 29.5184 26.4837 29.4487C26.4782 29.3709 26.4448 29.2976 26.3896 29.2424C26.3334 29.1862 26.2584 29.1526 26.1791 29.1481C26.1785 29.148 26.178 29.148 26.1774 29.148C26.177 29.148 26.1765 29.148 26.1761 29.148C26.0813 29.148 26.02 29.2218 25.9854 29.292C25.9497 29.3647 25.9321 29.4526 25.9321 29.52C25.9321 29.5936 25.9508 29.6495 25.9805 29.6953C26.0084 29.7384 26.0451 29.7705 26.0759 29.7974L26.0778 29.7991C26.1106 29.8278 26.137 29.8513 26.1565 29.8813C26.1682 29.8994 26.1779 29.9208 26.1833 29.9481C26.1812 29.9646 26.1801 29.9818 26.1801 30C26.1801 30.0287 26.2034 30.052 26.2321 30.052H26.2401C26.2688 30.052 26.2921 30.0287 26.2921 30C26.2921 29.9813 26.2909 29.9638 26.2886 29.9473ZM21.8291 29.1561C21.8301 29.156 21.8311 29.156 21.8321 29.156C21.9268 29.156 21.9882 29.2298 22.0227 29.3C22.0585 29.3727 22.0761 29.4606 22.0761 29.528C22.0761 29.6013 22.0581 29.657 22.0294 29.7027C22.0023 29.7458 21.9667 29.7779 21.9368 29.8049L21.9349 29.8066C21.9032 29.8353 21.8777 29.8587 21.8589 29.8887C21.8411 29.917 21.8281 29.9533 21.8281 30.008H21.7241C21.7241 29.9054 21.6772 29.8456 21.6222 29.7753C21.6195 29.7719 21.6168 29.7685 21.6141 29.765C21.5856 29.7285 21.5543 29.6868 21.5351 29.636C21.5156 29.5845 21.5094 29.5264 21.5244 29.4567C21.5299 29.3789 21.5633 29.3056 21.6185 29.2504C21.6748 29.1942 21.7497 29.1606 21.8291 29.1561ZM21.7798 29.8198C21.7575 29.779 21.7306 29.7449 21.7064 29.7142C21.7029 29.7097 21.6994 29.7053 21.6961 29.701C21.6676 29.6645 21.6454 29.6337 21.6323 29.5992C21.62 29.5665 21.615 29.5279 21.6268 29.4754C21.6274 29.4726 21.6278 29.4698 21.628 29.467C21.6311 29.413 21.6539 29.3622 21.6921 29.324C21.7299 29.2862 21.7801 29.2634 21.8334 29.26C21.8663 29.2607 21.9004 29.287 21.9294 29.346C21.9577 29.4033 21.9721 29.4754 21.9721 29.528C21.9721 29.5827 21.9591 29.619 21.9413 29.6473C21.9225 29.6773 21.897 29.7007 21.8652 29.7294L21.8634 29.7311C21.8367 29.7552 21.8055 29.7833 21.7798 29.8198ZM23.546 29.2559C23.555 29.2387 23.5727 29.228 23.5921 29.228C23.6988 29.228 23.7815 29.2643 23.839 29.3278C23.8953 29.39 23.9227 29.473 23.9308 29.5591C23.9471 29.7301 23.8894 29.9321 23.7949 30.0694C23.782 30.0882 23.7584 30.0964 23.7367 30.0896C23.7149 30.0829 23.7001 30.0628 23.7001 30.04C23.7001 30.0105 23.6877 29.9831 23.6628 29.9544C23.6373 29.9249 23.6019 29.8978 23.5619 29.8693C23.5553 29.8646 23.5485 29.8598 23.5416 29.855C23.509 29.8321 23.4742 29.8075 23.4469 29.7824C23.4143 29.7523 23.3801 29.7107 23.3801 29.656C23.3801 29.5434 23.4591 29.4797 23.5103 29.4385C23.5162 29.4338 23.5217 29.4293 23.5267 29.4252C23.5552 29.4012 23.5675 29.3866 23.5714 29.3739C23.5739 29.3661 23.5763 29.3484 23.5494 29.3097C23.5383 29.2938 23.537 29.2731 23.546 29.2559ZM23.6754 29.3434C23.7124 29.3548 23.7405 29.3739 23.7619 29.3976C23.7984 29.438 23.8205 29.497 23.8273 29.5689C23.8377 29.6784 23.8116 29.8068 23.763 29.9142C23.7563 29.9044 23.749 29.8951 23.7414 29.8863C23.7069 29.8465 23.6623 29.8132 23.6223 29.7846C23.6143 29.779 23.6067 29.7736 23.5992 29.7683C23.5669 29.7455 23.5391 29.726 23.5173 29.7059C23.4899 29.6806 23.4841 29.6652 23.4841 29.656C23.4841 29.5956 23.522 29.5642 23.5766 29.5189C23.5821 29.5143 23.5877 29.5097 23.5935 29.5048C23.6209 29.4818 23.6567 29.4499 23.6707 29.4048C23.677 29.3846 23.6784 29.3641 23.6754 29.3434ZM24.1531 29.3278C24.2106 29.2643 24.2934 29.228 24.4001 29.228C24.4194 29.228 24.4372 29.2387 24.4462 29.2559C24.4551 29.2731 24.4538 29.2938 24.4428 29.3097C24.4158 29.3484 24.4183 29.3661 24.4207 29.3739C24.4247 29.3866 24.4369 29.4012 24.4655 29.4252C24.4705 29.4293 24.476 29.4338 24.4819 29.4385C24.5331 29.4797 24.6121 29.5434 24.6121 29.656C24.6121 29.7107 24.5779 29.7523 24.5453 29.7824C24.518 29.8075 24.4831 29.8321 24.4506 29.855C24.4437 29.8598 24.4369 29.8646 24.4303 29.8693C24.3903 29.8978 24.3549 29.9249 24.3294 29.9544C24.3045 29.9831 24.2921 30.0105 24.2921 30.04C24.2921 30.0628 24.2773 30.0829 24.2555 30.0896C24.2338 30.0964 24.2101 30.0882 24.1972 30.0694C24.1028 29.9321 24.0451 29.7301 24.0613 29.5591C24.0695 29.473 24.0969 29.39 24.1531 29.3278ZM24.2292 29.9142C24.1806 29.8068 24.1544 29.6784 24.1648 29.5689C24.1717 29.497 24.1938 29.438 24.2303 29.3976C24.2517 29.3739 24.2798 29.3548 24.3168 29.3434C24.3138 29.3641 24.3151 29.3846 24.3214 29.4048C24.3355 29.4499 24.3712 29.4818 24.3987 29.5048C24.4044 29.5097 24.4101 29.5143 24.4155 29.5189C24.4702 29.5642 24.5081 29.5956 24.5081 29.656C24.5081 29.6652 24.5023 29.6806 24.4749 29.7059C24.453 29.726 24.4253 29.7455 24.393 29.7683C24.3855 29.7736 24.3778 29.779 24.3699 29.7846C24.3299 29.8132 24.2853 29.8465 24.2508 29.8863C24.2432 29.8951 24.2359 29.9044 24.2292 29.9142Z" fill="#C09300"/>
<path d="M20.3761 28.96C20.5041 28.96 20.6961 29.016 20.7521 29.088L20.3761 28.96ZM21.0081 29.152C21.0721 29.152 21.3281 29.208 21.4481 29.28L21.0081 29.152ZM23.2961 29.408C23.1761 29.408 22.9201 29.408 22.8561 29.464L23.2961 29.4V29.408ZM22.6001 29.408C22.5281 29.336 22.2801 29.336 22.1521 29.408H22.6001ZM27.6241 28.96C27.4884 28.9617 27.3567 29.0066 27.2481 29.088L27.6241 28.96ZM27.0001 29.152C26.9201 29.152 26.6801 29.208 26.5521 29.28L27.0001 29.152ZM24.7041 29.408C24.8241 29.408 25.0801 29.408 25.1521 29.464L24.7041 29.4V29.408ZM25.4001 29.408C25.4721 29.336 25.7201 29.336 25.8481 29.408H25.4001Z" fill="white"/>
<path fill-rule="evenodd" clip-rule="evenodd" d="M27.6596 28.9539C27.6626 28.9714 27.6524 28.9884 27.6357 28.9941L27.2597 29.1221C27.2429 29.1278 27.2245 29.1205 27.2163 29.1048C27.208 29.0892 27.2123 29.0698 27.2265 29.0592C27.3412 28.9732 27.4803 28.9258 27.6236 28.924C27.6413 28.9238 27.6566 28.9365 27.6596 28.9539ZM20.3406 28.9541C20.3435 28.9368 20.3585 28.924 20.3761 28.924C20.4445 28.924 20.5283 28.9388 20.6022 28.9628C20.6393 28.9748 20.6747 28.9894 20.7051 29.0061C20.735 29.0226 20.7622 29.0424 20.7805 29.0659C20.7903 29.0785 20.7906 29.0959 20.7814 29.1089C20.7722 29.1219 20.7555 29.1272 20.7405 29.1221L20.3645 28.9941C20.3478 28.9884 20.3377 28.9715 20.3406 28.9541ZM20.9725 29.1469C20.975 29.1292 20.9902 29.116 21.0081 29.116C21.0452 29.116 21.1292 29.1312 21.2163 29.1542C21.304 29.1774 21.4021 29.2104 21.4666 29.2491C21.4821 29.2585 21.4883 29.2778 21.4811 29.2944C21.4738 29.311 21.4554 29.3196 21.438 29.3146L20.998 29.1866C20.9808 29.1816 20.9699 29.1647 20.9725 29.1469ZM26.7848 29.1542C26.8713 29.1311 26.9551 29.116 27.0001 29.116C27.018 29.116 27.0333 29.1292 27.0357 29.147C27.0382 29.1648 27.0272 29.1817 27.01 29.1866L26.562 29.3146C26.5444 29.3196 26.5259 29.3107 26.5189 29.2939C26.5118 29.277 26.5185 29.2576 26.5344 29.2486C26.6023 29.2105 26.6977 29.1775 26.7848 29.1542ZM22.5266 29.3326C22.5647 29.3423 22.6009 29.3579 22.6255 29.3826C22.6358 29.3929 22.6389 29.4083 22.6334 29.4218C22.6278 29.4352 22.6147 29.444 22.6001 29.444H22.1521C22.1357 29.444 22.1214 29.433 22.1173 29.4171C22.1131 29.4013 22.1202 29.3847 22.1344 29.3766C22.2057 29.3366 22.3064 29.318 22.3971 29.318C22.4429 29.318 22.4877 29.3227 22.5266 29.3326ZM25.6031 29.318C25.6937 29.318 25.7945 29.3366 25.8657 29.3766C25.88 29.3847 25.8871 29.4013 25.8829 29.4171C25.8788 29.433 25.8645 29.444 25.8481 29.444H25.4001C25.3855 29.444 25.3724 29.4352 25.3668 29.4218C25.3613 29.4083 25.3643 29.3929 25.3746 29.3826C25.3993 29.3579 25.4355 29.3423 25.4736 29.3326C25.5125 29.3227 25.5573 29.318 25.6031 29.318ZM23.3196 29.3728C23.3275 29.3796 23.3321 29.3896 23.3321 29.4V29.408C23.3321 29.4279 23.316 29.444 23.2961 29.444C23.2803 29.444 23.2623 29.444 23.2428 29.4441L22.8613 29.4996C22.8455 29.5019 22.8301 29.4936 22.8234 29.4791C22.8167 29.4646 22.8204 29.4474 22.8324 29.4369C22.8556 29.4166 22.8914 29.4046 22.927 29.3965C22.9643 29.3881 23.0079 29.3827 23.0522 29.3791C23.1156 29.374 23.1825 29.3726 23.2374 29.3722L23.2909 29.3644C23.3013 29.3629 23.3117 29.3659 23.3196 29.3728ZM24.6805 29.3728C24.6884 29.366 24.6988 29.3629 24.7092 29.3644L24.7638 29.3722C24.8185 29.3726 24.8852 29.3741 24.9489 29.3791C24.9937 29.3827 25.038 29.3881 25.0763 29.3965C25.1133 29.4046 25.1495 29.4164 25.1742 29.4356C25.1871 29.4456 25.1916 29.4631 25.1852 29.4781C25.1788 29.4931 25.1632 29.502 25.147 29.4996L24.7585 29.4441C24.7385 29.444 24.7201 29.444 24.7041 29.444C24.6842 29.444 24.6681 29.4279 24.6681 29.408V29.4C24.6681 29.3896 24.6726 29.3797 24.6805 29.3728Z" fill="#C09300"/>
<path d="M20.2641 29.968C20.2241 29.96 20.2001 29.92 20.2161 29.888C20.2241 29.832 20.2641 29.808 20.2961 29.824C20.3281 29.824 20.3681 29.872 20.3681 29.888L20.3361 29.944L20.3201 29.952C20.3201 29.968 20.2881 29.968 20.2641 29.968ZM24.6641 30.28C24.6481 30.28 24.6161 30.24 24.6161 30.224C24.6161 30.192 24.6641 30.144 24.6961 30.144L24.7601 30.176C24.7841 30.2 24.7841 30.248 24.7521 30.272C24.7361 30.288 24.6881 30.288 24.6641 30.272V30.28ZM24.6881 30.48C24.6561 30.464 24.6481 30.448 24.6401 30.416C24.6401 30.376 24.6401 30.368 24.6801 30.344L24.7121 30.328L24.7441 30.344C24.7761 30.36 24.8001 30.376 24.8001 30.408C24.8001 30.432 24.7761 30.456 24.7441 30.472C24.7201 30.488 24.7121 30.488 24.6881 30.472V30.48Z" fill="#C09300"/>
<path d="M20.6241 29.6C20.5921 29.6 20.5521 29.632 20.5281 29.648C20.4801 29.656 20.4161 29.688 20.3681 29.648C20.3201 29.64 20.2561 29.648 20.2481 29.712C20.2561 29.768 20.3281 29.792 20.3761 29.76C20.4081 29.72 20.4961 29.688 20.5121 29.76C20.4721 29.824 20.4801 29.896 20.4481 29.952C20.4481 29.992 20.4241 30.024 20.4081 30.056C20.3681 30.056 20.3281 30.056 20.2961 30.08C20.2712 30.08 20.2467 30.0858 20.2245 30.0969C20.2023 30.108 20.183 30.1242 20.1681 30.144C20.1361 30.192 20.1041 30.24 20.0961 30.304C20.1041 30.352 20.1761 30.368 20.2241 30.376L20.3841 30.424L20.6401 30.496C20.7681 30.536 20.8961 30.552 21.0241 30.584L21.0641 30.592C21.1201 30.608 21.1441 30.552 21.1441 30.512L21.2241 30.224C21.2401 30.184 21.2641 30.104 21.1921 30.12C21.1521 30.144 21.1121 30.184 21.0641 30.184C20.9921 30.184 21.0321 30.264 21.0641 30.288C21.0641 30.336 21.0481 30.392 21.0241 30.432C20.9761 30.456 20.9281 30.432 20.8801 30.416C20.8401 30.416 20.7441 30.392 20.7841 30.336L20.8241 30.192C20.8481 30.144 20.8481 30.088 20.8641 30.032C20.8321 29.976 20.7841 30.056 20.7441 30.064C20.7121 30.08 20.6161 30.088 20.6641 30.144C20.7121 30.176 20.6801 30.232 20.6641 30.28C20.6641 30.336 20.6001 30.36 20.5521 30.336C20.5041 30.336 20.4321 30.296 20.4721 30.248L20.5121 30.104L20.5681 29.944C20.5681 29.888 20.5921 29.848 20.6161 29.8C20.6161 29.744 20.6561 29.696 20.6561 29.64C20.6561 29.616 20.6401 29.608 20.6241 29.608V29.6ZM20.3281 30.184C20.3317 30.1819 20.3359 30.1808 20.3401 30.1808C20.3443 30.1808 20.3484 30.1819 20.3521 30.184C20.3681 30.2 20.3681 30.216 20.3521 30.232L20.3281 30.248C20.2881 30.248 20.2801 30.24 20.2801 30.224C20.2801 30.216 20.2801 30.208 20.3041 30.2C20.3138 30.193 20.3246 30.1876 20.3361 30.184H20.3281ZM20.2481 30.584C20.2081 30.552 20.2161 30.528 20.2721 30.48C20.3041 30.464 20.3121 30.464 20.3441 30.488C20.3921 30.528 20.3921 30.552 20.3441 30.592C20.3281 30.608 20.3201 30.608 20.3041 30.608C20.2801 30.608 20.2721 30.608 20.2481 30.592V30.584ZM20.4881 30.664C20.4702 30.6585 20.4552 30.6462 20.4462 30.6298C20.4373 30.6133 20.4351 30.5941 20.4401 30.576C20.4561 30.544 20.4641 30.536 20.5121 30.536C20.5681 30.536 20.5761 30.544 20.5841 30.592C20.5841 30.624 20.5841 30.632 20.5601 30.648C20.5512 30.6551 20.5408 30.6602 20.5298 30.6629C20.5188 30.6657 20.5073 30.6661 20.4961 30.664H20.4881ZM27.6241 30.664C27.6081 30.656 27.6001 30.648 27.6001 30.624C27.6001 30.592 27.6161 30.568 27.6641 30.552C27.7121 30.528 27.7441 30.528 27.7601 30.568C27.7841 30.616 27.7841 30.632 27.7521 30.664C27.7361 30.688 27.7281 30.688 27.6881 30.688C27.6481 30.688 27.6401 30.688 27.6241 30.672V30.664ZM20.8241 30.76C20.7921 30.76 20.7761 30.728 20.7761 30.696C20.7761 30.672 20.7761 30.664 20.7921 30.648L20.8401 30.632L20.8881 30.64C20.9281 30.672 20.9361 30.704 20.9121 30.736C20.8881 30.768 20.8641 30.768 20.8161 30.76H20.8241ZM22.5681 30.84L22.5521 30.816C22.5521 30.768 22.5521 30.728 22.5681 30.68C22.5761 30.64 22.5681 30.6 22.5841 30.56L22.6161 30.336C22.6161 30.296 22.6161 30.256 22.6321 30.224C22.6401 30.16 22.6321 30.104 22.6481 30.048C22.6481 30.024 22.6721 29.968 22.6961 30C22.7281 30.048 22.7681 30.08 22.8081 30.12C22.8401 30.144 22.8081 30.176 22.7841 30.184C22.7521 30.192 22.7441 30.232 22.7441 30.264L22.7281 30.36C22.7281 30.416 22.7281 30.464 22.7121 30.52L22.7041 30.664L22.6881 30.76C22.6881 30.792 22.6881 30.832 22.6561 30.848C22.6321 30.864 22.5921 30.864 22.5761 30.84H22.5681ZM24.9441 30.056L24.8401 30.152C24.7921 30.192 24.8801 30.208 24.8881 30.24C24.9041 30.288 24.9041 30.336 24.9041 30.384C24.9201 30.432 24.9281 30.472 24.9201 30.52C24.9201 30.576 24.8561 30.56 24.8241 30.592C24.7841 30.608 24.7681 30.648 24.7441 30.672C24.725 30.7122 24.7142 30.7557 24.7121 30.8C24.7121 30.84 24.6881 30.88 24.7121 30.912L24.7201 30.928H24.7601L24.8801 30.92C24.9761 30.904 25.0801 30.904 25.1761 30.896L25.3521 30.88C25.4001 30.888 25.4241 30.84 25.4241 30.8C25.3921 30.744 25.4161 30.688 25.3921 30.64C25.3761 30.576 25.3841 30.52 25.3761 30.464C25.3761 30.416 25.3201 30.4 25.2961 30.432C25.2641 30.464 25.2161 30.472 25.2001 30.504C25.1761 30.552 25.2481 30.552 25.2641 30.584L25.2721 30.704C25.2801 30.752 25.2321 30.752 25.1921 30.76C25.1521 30.776 25.0961 30.784 25.0721 30.736C25.0561 30.696 25.0561 30.656 25.0561 30.616C25.0561 30.536 25.0321 30.472 25.0321 30.4C25.0321 30.32 25.0081 30.232 25.0081 30.144C25.0081 30.104 25.0001 30.048 24.9441 30.056ZM24.8961 30.712H24.9201V30.776L24.8961 30.784C24.8856 30.7874 24.8749 30.79 24.8641 30.792C24.8587 30.7922 24.8534 30.7922 24.8481 30.792C24.8321 30.776 24.8321 30.752 24.8561 30.728L24.8961 30.712ZM22.4961 29.976C22.4721 29.976 22.4321 30.032 22.4001 30.024C22.3281 30.032 22.3361 30.104 22.3921 30.128V30.192C22.4001 30.256 22.3601 30.312 22.3681 30.376C22.3681 30.44 22.3441 30.512 22.3441 30.584C22.3201 30.656 22.3201 30.728 22.3121 30.8C22.3041 30.864 22.2561 30.84 22.2161 30.824V30.744C22.2241 30.672 22.1761 30.656 22.1201 30.648C22.0641 30.648 22.0401 30.608 22.0561 30.56C22.0801 30.528 22.1361 30.536 22.1761 30.536C22.2561 30.552 22.2481 30.448 22.2081 30.408C22.1761 30.36 22.1121 30.328 22.0961 30.28C22.0961 30.216 22.0561 30.144 22.0001 30.112C21.9121 30.104 21.8401 30.176 21.8161 30.256C21.7761 30.256 21.7361 30.272 21.7041 30.288C21.6481 30.304 21.5681 30.4 21.6481 30.44C21.6881 30.448 21.8241 30.48 21.7601 30.536C21.7281 30.6 21.6641 30.6 21.6081 30.584C21.5521 30.584 21.4881 30.552 21.4881 30.488C21.4801 30.424 21.4801 30.36 21.4561 30.304C21.4401 30.24 21.3681 30.256 21.3601 30.32C21.3041 30.36 21.3121 30.432 21.3521 30.48C21.3761 30.536 21.3521 30.608 21.3281 30.656C21.3121 30.736 21.2321 30.736 21.1761 30.752C21.1521 30.768 21.0481 30.752 21.0881 30.808C21.1481 30.8357 21.2151 30.844 21.2801 30.832C21.3441 30.832 21.4001 30.776 21.4401 30.72C21.4801 30.68 21.5521 30.704 21.6161 30.704C21.6721 30.704 21.7361 30.744 21.8001 30.712C21.8161 30.672 21.8961 30.592 21.9201 30.672C21.9201 30.744 21.9761 30.776 22.0401 30.768C22.1121 30.768 22.0801 30.816 22.0801 30.864C22.0801 30.936 22.1361 30.976 22.2001 31.008H22.2641C22.3201 30.984 22.3841 30.96 22.4081 30.896C22.4321 30.84 22.4321 30.776 22.4481 30.72C22.4641 30.632 22.4801 30.536 22.4801 30.448C22.5041 30.368 22.4961 30.28 22.5121 30.192L22.5361 30.008C22.5361 29.968 22.5201 29.968 22.4961 29.976ZM21.9601 30.304C21.9681 30.304 21.9761 30.32 21.9761 30.344C21.9761 30.376 21.9921 30.4 22.0161 30.408V30.432L21.9521 30.448C21.9121 30.448 21.8801 30.432 21.8561 30.408L21.8401 30.392L21.8641 30.376L21.9041 30.336C21.9281 30.312 21.9441 30.304 21.9601 30.304ZM27.2401 29.672C27.194 29.6753 27.1485 29.6834 27.1041 29.696C27.0241 29.696 26.9841 29.776 27.0641 29.824C27.1121 29.944 27.1841 29.792 27.2641 29.808C27.3761 29.824 27.3841 29.952 27.4081 30.048C27.4081 30.136 27.4401 30.224 27.4641 30.312C27.5441 30.4 27.4081 30.456 27.3521 30.392C27.3041 30.336 27.1921 30.272 27.1361 30.344C27.0641 30.376 27.0561 30.472 27.0001 30.504C26.9041 30.528 26.8961 30.408 26.8401 30.36C26.7921 30.288 26.7041 30.28 26.6321 30.264C26.6001 30.192 26.6161 30.072 26.5521 30.024C26.4881 30.048 26.3761 30.16 26.4721 30.216C26.5521 30.296 26.4321 30.328 26.3921 30.376C26.3281 30.448 26.3121 30.536 26.3121 30.616C26.2081 30.672 26.1921 30.552 26.1761 30.48C26.1761 30.392 26.0961 30.416 26.0401 30.448C25.9601 30.48 25.9281 30.552 25.8801 30.608V30.768C25.8961 30.84 25.9761 30.808 26.0241 30.8C26.1041 30.768 26.1361 30.856 26.0721 30.904C26.0241 30.952 25.8961 30.928 25.9121 31.016H26.0401C26.1201 30.992 26.2161 30.928 26.2241 30.832C26.2401 30.752 26.3601 30.76 26.4241 30.744C26.5041 30.72 26.6081 30.712 26.6321 30.824C26.6881 30.88 26.8081 30.944 26.8721 30.864C26.9025 30.8447 26.927 30.8172 26.9425 30.7847C26.9581 30.7521 26.9642 30.7159 26.9601 30.68C26.9521 30.616 27.0641 30.616 27.0961 30.656C27.1361 30.72 27.2641 30.704 27.3281 30.656C27.3921 30.616 27.4081 30.528 27.5041 30.528L27.9361 30.408C28.0481 30.384 27.9201 30.312 27.8881 30.264C27.8081 30.224 27.7281 30.4 27.6321 30.312C27.5521 30.256 27.5601 30.152 27.5361 30.064C27.5121 29.952 27.5201 29.824 27.4401 29.744C27.3921 29.688 27.3121 29.672 27.2401 29.672ZM26.6961 30.432C26.7041 30.432 26.7201 30.432 26.7361 30.448C26.7681 30.464 26.7921 30.496 26.7921 30.528C26.7921 30.544 26.7921 30.544 26.7681 30.552L26.7281 30.568C26.7121 30.568 26.6721 30.544 26.6721 30.528V30.496C26.6561 30.464 26.6561 30.464 26.6721 30.448L26.6961 30.432ZM27.2161 30.464C27.2481 30.464 27.2641 30.464 27.2801 30.488C27.2881 30.52 27.2801 30.536 27.2481 30.552L27.2081 30.568L27.1761 30.544C27.1601 30.536 27.1521 30.528 27.1521 30.512C27.1521 30.488 27.1841 30.464 27.2161 30.456V30.464ZM26.4961 30.464C26.5121 30.464 26.5201 30.464 26.5281 30.48C26.5441 30.496 26.5521 30.504 26.5521 30.528V30.576C26.5521 30.6 26.5521 30.592 26.5041 30.592C26.4561 30.592 26.4481 30.592 26.4481 30.544C26.4481 30.512 26.4481 30.504 26.4721 30.488C26.4801 30.472 26.4961 30.472 26.5041 30.472L26.4961 30.464ZM26.0641 30.584C26.0716 30.5863 26.0785 30.5904 26.0841 30.596C26.0897 30.6016 26.0938 30.6085 26.0961 30.616C26.0961 30.64 26.0961 30.656 26.0801 30.664C26.0561 30.672 26.0161 30.68 26.0001 30.664C25.9998 30.6614 25.9998 30.6587 26.0001 30.656C25.9841 30.648 25.9841 30.64 26.0001 30.632V30.624L26.0161 30.6C26.021 30.5922 26.0285 30.5864 26.0372 30.5835C26.046 30.5806 26.0554 30.5808 26.0641 30.584ZM26.8001 30.68L26.8401 30.688V30.736H26.7441L26.7361 30.72C26.7361 30.704 26.7361 30.696 26.7521 30.688L26.8001 30.68ZM25.4321 31.064C25.4241 31.064 25.4081 31.056 25.4241 31.048C25.4321 31.024 25.4641 31.016 25.4881 31C25.5316 30.9834 25.5702 30.9559 25.6001 30.92C25.6001 30.888 25.6321 30.872 25.6321 30.84L25.6241 30.728C25.6133 30.6944 25.5905 30.666 25.5601 30.648C25.5361 30.64 25.5041 30.632 25.4961 30.6C25.4961 30.576 25.5201 30.552 25.5281 30.528L25.5761 30.432C25.6001 30.408 25.6321 30.432 25.6401 30.448L25.6801 30.528C25.7041 30.552 25.7201 30.576 25.7281 30.608C25.7441 30.64 25.7601 30.664 25.7601 30.688L25.7761 30.792C25.7761 30.832 25.7761 30.88 25.7601 30.92L25.7121 30.984C25.6881 31.008 25.6641 31.032 25.6321 31.04C25.6081 31.048 25.5921 31.072 25.5601 31.072H25.4401L25.4321 31.064ZM24.8801 31.096C24.8641 31.08 24.8561 31.072 24.8561 31.048C24.8561 31.024 24.8561 31.024 24.8801 31C24.9121 30.968 24.9281 30.968 24.9921 31C25.0481 31.032 25.0721 31.032 25.0721 31.008C25.0801 30.992 25.1121 30.968 25.1521 30.968C25.1668 30.9686 25.181 30.9742 25.1921 30.984C25.2081 31 25.2161 31.008 25.2161 31.04C25.2161 31.08 25.2161 31.08 25.1921 31.104C25.1681 31.12 25.1681 31.12 25.1361 31.12C25.1219 31.1193 25.1082 31.1143 25.0968 31.1057C25.0854 31.0972 25.0768 31.0855 25.0721 31.072C25.0721 31.056 25.0721 31.048 25.0561 31.064L25.0401 31.072C25.0241 31.072 24.9921 31.096 24.9761 31.112L24.9361 31.12C24.9041 31.12 24.9041 31.12 24.8801 31.096ZM23.2961 30.384C23.2401 30.384 23.1841 30.432 23.1761 30.488C23.1921 30.544 23.2401 30.608 23.2081 30.664C23.2321 30.744 23.1441 30.776 23.0881 30.736C23.0561 30.656 23.0401 30.576 22.9841 30.496C22.9201 30.48 22.8961 30.584 22.8481 30.624C22.8721 30.68 22.9361 30.736 22.9441 30.808C22.9601 30.888 22.9121 30.968 22.8561 31C22.8001 31.056 22.7201 31.04 22.6561 31.048C22.5761 31.096 22.7121 31.112 22.7521 31.112C22.8321 31.12 22.9201 31.112 22.9921 31.048C23.0481 31.024 23.0401 30.912 23.1121 30.904L23.4961 30.928C23.5601 30.944 23.6641 30.92 23.7121 30.968C23.7121 31.048 23.7921 31.112 23.8641 31.144C23.9041 31.16 23.9441 31.104 23.9841 31.096C24.0641 31.072 24.0401 30.976 24.0881 30.936H24.4881C24.5041 30.936 24.5121 30.896 24.5361 30.88L24.5201 30.728C24.4961 30.664 24.5201 30.584 24.4801 30.528C24.4081 30.512 24.3521 30.568 24.2881 30.576C24.2081 30.608 24.1521 30.68 24.1441 30.76C24.1041 30.832 24.0321 30.744 24.0641 30.68L24.0561 30.6C24.0161 30.56 23.9441 30.576 23.8881 30.568L23.6481 30.552C23.5681 30.552 23.4961 30.56 23.4321 30.544C23.3521 30.544 23.3521 30.464 23.3521 30.4C23.3361 30.3879 23.3161 30.3821 23.2961 30.384ZM23.4561 30.68L23.5361 30.688H23.6401C23.7201 30.704 23.8001 30.704 23.8801 30.704C23.8961 30.704 23.9121 30.72 23.9281 30.736V30.896C23.9281 30.92 23.9281 30.952 23.9121 30.96C23.9079 30.9664 23.9024 30.9718 23.8961 30.976C23.8843 30.974 23.8732 30.9693 23.8635 30.9624C23.8539 30.9554 23.8458 30.9465 23.8401 30.936V30.824C23.8242 30.8106 23.8047 30.8023 23.7841 30.8L23.5761 30.792L23.4161 30.784C23.3921 30.776 23.3601 30.784 23.3441 30.752C23.3281 30.736 23.3521 30.704 23.3761 30.696C23.4012 30.6848 23.4285 30.6793 23.4561 30.68ZM24.3601 30.704C24.3681 30.704 24.3761 30.704 24.3761 30.728L24.3921 30.768C24.3921 30.776 24.3921 30.784 24.3761 30.784C24.3361 30.8 24.2961 30.8 24.2801 30.784C24.2801 30.776 24.2801 30.744 24.2961 30.736L24.3601 30.704Z" fill="#C09300"/>
<path d="M24.0001 26.176C26.6081 24.176 26.3841 21.232 26.3841 21.232L26.1841 21.248C25.6321 21.248 24.3281 20.928 24.0241 20.536C23.7041 20.896 22.3601 21.256 21.8161 21.256L21.6161 21.232C21.6161 21.232 21.3841 24.168 24.0001 26.176Z" fill="white"/>
<path fill-rule="evenodd" clip-rule="evenodd" d="M24.0263 20.4672L24.0588 20.5091C24.1285 20.5989 24.2595 20.6888 24.4315 20.7732C24.6023 20.8569 24.8086 20.9328 25.0236 20.9969C25.4535 21.1249 25.9119 21.2037 26.1823 21.204L26.4246 21.1847L26.4279 21.2287L26.384 21.232C26.4279 21.2287 26.4279 21.2287 26.4279 21.2287L26.428 21.2294L26.4281 21.2312L26.4285 21.2379C26.4289 21.2437 26.4294 21.2523 26.4299 21.2636C26.4309 21.2861 26.432 21.3192 26.4326 21.3619C26.4336 21.4473 26.4321 21.5713 26.4222 21.7261C26.4023 22.0358 26.3484 22.4693 26.2125 22.9657C25.9406 23.9586 25.3401 25.2038 24.0268 26.211L24 26.2315L23.9732 26.211C22.656 25.1998 22.0555 23.9547 21.7846 22.9626C21.6492 22.4667 21.596 22.0339 21.5767 21.7249C21.5671 21.5704 21.5659 21.4467 21.5672 21.3615C21.5678 21.3189 21.569 21.2859 21.5701 21.2634C21.5707 21.2522 21.5712 21.2436 21.5715 21.2377L21.572 21.231L21.5721 21.2293L21.5722 21.2288L21.5722 21.2287C21.5722 21.2286 21.5722 21.2286 21.616 21.232L21.5722 21.2287L21.5758 21.1829L21.8186 21.212C22.0847 21.2115 22.5503 21.123 22.9912 20.989C23.2119 20.9219 23.4248 20.8438 23.6018 20.7606C23.7802 20.6768 23.9173 20.5898 23.9911 20.5068L24.0263 20.4672ZM21.6574 21.2813C21.6565 21.3019 21.6557 21.3292 21.6552 21.3628C21.654 21.446 21.6551 21.5673 21.6646 21.7194C21.6836 22.0236 21.7359 22.4504 21.8695 22.9395C22.1347 23.9107 22.72 25.1274 24 26.1205C25.2761 25.1313 25.8614 23.9147 26.1276 22.9424C26.2617 22.4528 26.3148 22.0253 26.3344 21.7205C26.3442 21.5681 26.3456 21.4464 26.3446 21.363C26.3441 21.3284 26.3433 21.3004 26.3425 21.2795L26.1858 21.292H26.184C25.9022 21.292 25.4337 21.2109 24.9985 21.0812C24.7805 21.0163 24.5693 20.9387 24.3928 20.8522C24.2388 20.7767 24.1074 20.6925 24.0219 20.6012C23.9328 20.6852 23.7975 20.7659 23.6393 20.8402C23.4573 20.9258 23.2402 21.0052 23.0168 21.0731C22.5713 21.2086 22.0944 21.3 21.816 21.3H21.8134L21.6574 21.2813Z" fill="#C09300"/>
<path d="M26.1761 21.44H26.1121C25.6161 21.44 24.4641 21.192 24.0161 20.808C23.5521 21.16 22.3761 21.448 21.8881 21.448C21.8666 21.4472 21.8452 21.4445 21.8241 21.44C21.8285 21.9456 21.8984 22.4485 22.0321 22.936C22.353 24.1108 23.0429 25.1513 24.0001 25.904C24.9579 25.1484 25.6477 24.1052 25.9681 22.928C26.1011 22.4431 26.171 21.9429 26.1761 21.44Z" fill="white"/>
<path fill-rule="evenodd" clip-rule="evenodd" d="M24.0175 20.7618L24.0395 20.7807C24.2571 20.9671 24.6503 21.1235 25.0555 21.2333C25.4597 21.3428 25.8684 21.404 26.1121 21.404H26.1761V21.44L26.2121 21.4404C26.207 21.9464 26.1367 22.4496 26.0028 22.9375C25.6804 24.1221 24.9862 25.1719 24.0224 25.9323L24.0001 25.9498L23.9779 25.9323C23.0146 25.1747 22.3203 24.1277 21.9974 22.9455C21.8629 22.4549 21.7925 21.949 21.7881 21.4403L21.7877 21.3954L21.8316 21.4048C21.8504 21.4088 21.8696 21.4112 21.8888 21.412C22.1281 21.4119 22.54 21.3409 22.9514 21.2254C23.3636 21.1096 23.7681 20.951 23.9944 20.7793L24.0175 20.7618ZM26.1396 21.476H26.1121C25.8598 21.476 25.4445 21.4132 25.0367 21.3028C24.6426 21.196 24.2486 21.0428 24.0148 20.8537C23.7739 21.0272 23.3715 21.1821 22.9708 21.2947C22.5566 21.411 22.1369 21.484 21.8881 21.484H21.8867L21.8867 21.484C21.878 21.4837 21.8693 21.483 21.8606 21.4822C21.8684 21.9703 21.9377 22.4556 22.0668 22.9265L22.0668 22.9265C22.3832 24.0847 23.0605 25.1115 24.0001 25.8581C24.9402 25.1087 25.6175 24.0791 25.9334 22.9186L25.9334 22.9185C26.0624 22.4482 26.1317 21.9635 26.1396 21.476Z" fill="#C09300"/>
<path d="M23.1521 21.2C22.7224 21.34 22.2756 21.4207 21.8241 21.44L21.8321 21.768C21.8594 22.1604 21.9264 22.5491 22.0321 22.928C22.2472 23.7148 22.6292 24.4461 23.1521 25.072V21.2ZM24.8001 21.2V25.136C25.3482 24.4957 25.7472 23.7415 25.9681 22.928C26.0737 22.5491 26.1407 22.1604 26.1681 21.768L26.1761 21.448H26.1121C25.8081 21.448 25.2801 21.352 24.8001 21.192V21.2Z" fill="#C09300"/>
<path d="M24.984 20.24C25.04 20.248 24.912 19.96 24.912 19.96C25.056 20.104 25.584 20.144 25.584 20.144C25.264 20 24.944 18.936 24.984 18.08C25.016 17.232 24.864 16.896 24.744 16.768C24.584 16.608 24.064 16.464 23.728 16.448C23.528 16.44 23.568 16.592 23.568 16.592C23.208 16.504 22.848 16.464 22.688 16.576C22.544 16.672 22.512 17.176 22.624 17.088C22.888 16.872 23.12 17.072 23.28 17.304C23.424 17.504 23.416 18.08 23.208 18.76C23.0238 19.2741 22.7532 19.7529 22.408 20.176C22.728 20.176 23.176 19.896 23.176 19.896L23.072 20.336C23.408 20.176 23.672 19.928 23.672 19.928L23.992 20.264C24.096 20.12 24.312 19.928 24.312 19.928C24.312 19.928 24.576 20.208 24.984 20.248V20.24Z" fill="white"/>
<path fill-rule="evenodd" clip-rule="evenodd" d="M23.5959 16.4249C23.6301 16.4065 23.6743 16.3978 23.7299 16.4001L23.7303 16.4001C23.903 16.4083 24.121 16.4492 24.3159 16.5081C24.4135 16.5376 24.5064 16.5719 24.5856 16.6094C24.664 16.6466 24.7322 16.6884 24.778 16.7341L24.7785 16.7346L24.779 16.7352C24.9128 16.8779 25.0641 17.2309 25.032 18.0818L25.032 18.0823C25.0122 18.5042 25.0813 18.9788 25.1951 19.3655C25.2519 19.5587 25.3194 19.7284 25.3916 19.8578C25.4649 19.9893 25.5386 20.0709 25.6037 20.1003L25.5804 20.1919L25.584 20.144C25.5804 20.1919 25.5804 20.1919 25.5804 20.1919L25.5802 20.1919L25.5799 20.1918L25.5787 20.1918L25.574 20.1914C25.57 20.191 25.5641 20.1905 25.5566 20.1898C25.5416 20.1884 25.52 20.1862 25.4937 20.1832C25.4413 20.1771 25.3696 20.1675 25.2932 20.1532C25.217 20.139 25.135 20.12 25.0621 20.0949C25.0445 20.0888 25.027 20.0823 25.0101 20.0752C25.0115 20.0792 25.0129 20.0831 25.0143 20.0871C25.0269 20.1229 25.0389 20.1616 25.0438 20.1921C25.046 20.206 25.048 20.2251 25.0434 20.2424C25.0417 20.249 25.0385 20.2577 25.032 20.266V20.301L24.9793 20.2958C24.7656 20.2748 24.5903 20.1911 24.4691 20.1134C24.4084 20.0745 24.3608 20.0368 24.3283 20.0087C24.322 20.0033 24.3163 19.9983 24.3112 19.9937C24.3106 19.9943 24.3099 19.9949 24.3092 19.9955C24.2876 20.0155 24.2578 20.0436 24.2247 20.0762C24.158 20.1419 24.0804 20.2236 24.0309 20.2921L23.9971 20.339L23.6694 19.9948C23.6655 19.9982 23.6613 20.0018 23.6568 20.0057C23.6262 20.032 23.5819 20.0686 23.527 20.1103C23.4175 20.1934 23.2646 20.2975 23.0927 20.3794L23.0023 20.4224L23.1037 19.9931C23.0581 20.0181 22.9989 20.0489 22.9321 20.0796C22.7792 20.15 22.5791 20.224 22.408 20.224H22.3069L22.3708 20.1457C22.7124 19.7271 22.9801 19.2534 23.1624 18.7449C23.2653 18.4085 23.3183 18.099 23.3281 17.8501C23.333 17.7255 23.327 17.6171 23.3115 17.5286C23.2959 17.4393 23.2711 17.3738 23.2411 17.3321L23.2405 17.3313C23.1619 17.2174 23.0699 17.118 22.9707 17.0715C22.922 17.0487 22.8724 17.039 22.8216 17.0456C22.7707 17.0523 22.7148 17.0757 22.6544 17.1252L22.6537 17.1258C22.632 17.1428 22.5984 17.1563 22.5646 17.1367C22.5381 17.1214 22.5263 17.0926 22.5204 17.072C22.5074 17.0269 22.506 16.962 22.5122 16.8965C22.5185 16.8297 22.5333 16.7564 22.5564 16.6926C22.5786 16.6311 22.6119 16.5693 22.6609 16.5364C22.7548 16.4709 22.8987 16.454 23.0552 16.4611C23.197 16.4675 23.3578 16.4941 23.5194 16.5312C23.5212 16.5209 23.5241 16.51 23.5285 16.499C23.5399 16.471 23.5608 16.4438 23.5959 16.4249ZM23.1506 19.8553L23.2496 19.7934L23.1426 20.2463C23.2697 20.1774 23.3827 20.0993 23.469 20.0338C23.5221 19.9935 23.5649 19.9581 23.5943 19.9329C23.6089 19.9202 23.6203 19.9102 23.6279 19.9033C23.6317 19.8999 23.6346 19.8973 23.6365 19.8955L23.6386 19.8936L23.6391 19.893M23.1506 19.8553L23.1504 19.8555L23.1495 19.856L23.1459 19.8582C23.1427 19.8602 23.1379 19.8631 23.1316 19.8668C23.1191 19.8743 23.1007 19.885 23.0776 19.8979C23.0314 19.9237 22.9665 19.9581 22.8919 19.9924C22.7755 20.046 22.6397 20.0975 22.5154 20.1183C22.8307 19.7131 23.0798 19.2601 23.2532 18.7762L23.2536 18.7751L23.2539 18.7741C23.3589 18.4309 23.4138 18.1127 23.424 17.8539C23.4291 17.7245 23.423 17.609 23.406 17.512C23.3892 17.4159 23.361 17.3346 23.3193 17.2764C23.2379 17.1584 23.134 17.042 23.0114 16.9846C22.949 16.9554 22.8811 16.9411 22.8092 16.9504C22.743 16.959 22.6766 16.9873 22.6106 17.0374C22.6042 17.0086 22.6025 16.9616 22.6078 16.9055C22.6135 16.8453 22.6268 16.7801 22.6466 16.7252C22.6673 16.6682 22.6919 16.6311 22.7146 16.616L22.7155 16.6153C22.7817 16.5691 22.8976 16.5501 23.0509 16.557C23.2015 16.5638 23.3782 16.595 23.5566 16.6386L23.635 16.6578L23.6145 16.5802C23.6145 16.5801 23.6145 16.5801 23.6145 16.58C23.6144 16.5796 23.6142 16.5787 23.614 16.5775C23.6136 16.5749 23.6131 16.571 23.6128 16.5663C23.6124 16.5564 23.6134 16.5451 23.6175 16.5351C23.6212 16.526 23.6277 16.5168 23.6414 16.5094C23.656 16.5016 23.6817 16.4942 23.7259 16.496C23.8892 16.5038 24.0991 16.5429 24.2881 16.6C24.3825 16.6285 24.4707 16.6612 24.5445 16.6962C24.6186 16.7313 24.6752 16.7673 24.7095 16.8014C24.8157 16.9152 24.9679 17.2345 24.9361 18.078C24.9158 18.512 24.9867 18.9973 25.103 19.3926C25.1611 19.5903 25.2311 19.7671 25.3077 19.9045C25.3446 19.9707 25.3841 20.0296 25.4259 20.0777" fill="#C09300"/>
<path fill-rule="evenodd" clip-rule="evenodd" d="M23.976 18.168L24.0279 18.1711L23.9247 18.1592L23.6207 19.9192L23.7179 19.9523C23.7775 19.8395 23.8257 19.6705 23.8648 19.4849C23.9043 19.298 23.9355 19.0897 23.9596 18.8954C23.9837 18.701 24.0007 18.5201 24.0118 18.3877C24.0173 18.3215 24.0213 18.2675 24.024 18.2299C24.0253 18.2111 24.0263 18.1965 24.0269 18.1865L24.0276 18.1751L24.0279 18.1711C24.0279 18.1711 24.0279 18.1711 23.976 18.168ZM23.688 18.208L23.7395 18.2149L23.6382 18.1929L23.1262 19.8729L23.2144 19.9231C23.3055 19.8232 23.3823 19.6642 23.4466 19.4881C23.5113 19.3106 23.5654 19.1098 23.6086 18.9217C23.6519 18.7334 23.6846 18.5569 23.7065 18.4274C23.7174 18.3627 23.7257 18.3097 23.7312 18.2728C23.7339 18.2544 23.736 18.24 23.7374 18.2301L23.739 18.2189L23.7394 18.216L23.7395 18.2149C23.7395 18.2149 23.7395 18.2149 23.688 18.208ZM24.172 18.224L24.2759 18.2216L24.3559 19.9256L24.2545 19.944C24.2428 19.9078 24.2336 19.8536 24.2259 19.7898C24.2181 19.725 24.2115 19.6467 24.2058 19.5606C24.1945 19.3882 24.187 19.1821 24.182 18.9843C24.177 18.7865 24.1745 18.5964 24.1732 18.4559C24.1726 18.3856 24.1723 18.3277 24.1721 18.2873C24.172 18.2671 24.172 18.2513 24.172 18.2405L24.172 18.224C24.172 18.224 24.172 18.224 24.224 18.224H24.172ZM24.492 18.2988C24.492 18.2988 24.492 18.2987 24.544 18.296L24.5959 18.2933L24.5959 18.2941L24.5961 18.2966L24.5967 18.3068C24.5972 18.3157 24.598 18.3289 24.5992 18.3459C24.6015 18.38 24.6052 18.4291 24.6105 18.4896C24.6212 18.6105 24.6386 18.7761 24.6654 18.9553C24.6922 19.1347 24.7283 19.3267 24.7763 19.5006C24.8246 19.6754 24.8837 19.8277 24.9547 19.9305L24.8692 19.9896C24.7882 19.8724 24.7253 19.7066 24.6761 19.5282C24.6266 19.3489 24.5897 19.1524 24.5625 18.9707C24.5353 18.7889 24.5177 18.6211 24.5069 18.4987C24.5015 18.4375 24.4978 18.3877 24.4954 18.353C24.4942 18.3357 24.4934 18.3222 24.4928 18.313L24.4922 18.3025L24.4921 18.2997L24.492 18.2988Z" fill="#C09300"/>
<path d="M23.36 17.5681C23.3529 17.4753 23.3256 17.3852 23.28 17.3041C23.12 17.0641 22.888 16.8721 22.624 17.0881C22.624 17.0881 22.712 16.808 22.912 16.8C23.056 16.792 23.4 16.9121 23.704 17.4241C23.704 17.4241 23.48 17.3761 23.424 17.4241C23.328 17.5041 23.368 17.5681 23.368 17.5681H23.36Z" fill="#C09300"/>
<path fill-rule="evenodd" clip-rule="evenodd" d="M23.6798 17.4071C23.3807 16.9169 23.0485 16.8045 22.9126 16.812L22.9124 16.812C22.8184 16.8158 22.7493 16.8836 22.703 16.9537C22.68 16.9884 22.663 17.023 22.6519 17.0489C22.6512 17.0504 22.6506 17.0518 22.65 17.0532C22.7057 17.0143 22.7604 16.9925 22.8137 16.985C22.8776 16.976 22.9387 16.9878 22.996 17.0141C23.11 17.0665 23.2095 17.1768 23.2899 17.2974L23.2905 17.2981C23.3229 17.356 23.3462 17.4183 23.3598 17.4828C23.3699 17.4619 23.3875 17.4388 23.4162 17.4149C23.4334 17.4002 23.4613 17.3941 23.4904 17.3918C23.5203 17.3895 23.5543 17.3911 23.5861 17.3941C23.618 17.3971 23.648 17.4017 23.6701 17.4054C23.6735 17.406 23.6768 17.4066 23.6798 17.4071ZM23.3781 17.5617L23.378 17.5615C23.3779 17.5612 23.3776 17.5607 23.3773 17.56C23.3766 17.5585 23.3756 17.5562 23.3747 17.5532C23.3728 17.5472 23.3711 17.5382 23.3719 17.5269C23.3736 17.5048 23.3856 17.4716 23.4316 17.4332L23.4318 17.4331C23.4426 17.4238 23.4637 17.418 23.4923 17.4157C23.5202 17.4136 23.5526 17.415 23.5838 17.418C23.6149 17.4209 23.6444 17.4254 23.6661 17.4291C23.6769 17.431 23.6858 17.4326 23.6919 17.4338C23.695 17.4344 23.6974 17.4349 23.699 17.4353L23.7008 17.4356L23.7013 17.4357L23.7014 17.4358L23.7283 17.4415L23.7143 17.4179C23.409 16.9037 23.0615 16.7798 22.9114 16.788C22.8055 16.7923 22.7306 16.8684 22.683 16.9404C22.6589 16.9767 22.6414 17.0126 22.6298 17.0394C22.624 17.0528 22.6197 17.064 22.6169 17.0719C22.6154 17.0758 22.6143 17.0789 22.6136 17.081L22.6128 17.0835L22.6126 17.0842L22.6125 17.0843C22.6125 17.0844 22.6125 17.0844 22.624 17.088L22.6125 17.0843L22.6005 17.1228L22.6316 17.0973C22.6962 17.0444 22.7582 17.017 22.817 17.0088C22.8758 17.0005 22.9322 17.0112 22.9859 17.0359C23.0938 17.0855 23.1902 17.1911 23.2697 17.3103C23.3143 17.3898 23.341 17.4781 23.348 17.569L23.3488 17.58H23.3896L23.3781 17.5617C23.3782 17.5617 23.3782 17.5617 23.3781 17.5617Z" fill="#C09300"/>
<path d="M22.592 16.744C22.616 16.664 22.648 16.6 22.696 16.576C22.856 16.464 23.208 16.496 23.568 16.592C23.568 16.592 23.536 16.44 23.728 16.448C24.064 16.464 24.576 16.608 24.736 16.768C24.7873 16.8243 24.8279 16.8893 24.856 16.96C24.776 16.848 24.552 16.856 24.496 16.864C24.416 16.872 24.36 16.864 24.248 16.896C24.192 16.912 24.112 16.928 24.064 16.96C24.032 16.992 24 17.088 23.952 17.088C23.872 17.088 23.872 17.072 23.848 17.048C23.824 17.008 23.808 16.96 23.776 16.968C23.696 16.976 23.552 16.912 23.376 16.768C23.192 16.624 23.12 16.592 22.896 16.608C22.656 16.624 22.592 16.76 22.592 16.76V16.744Z" fill="#C09300"/>
<path fill-rule="evenodd" clip-rule="evenodd" d="M23.5797 16.5896L23.5797 16.5894L23.5795 16.5883C23.5793 16.5874 23.5791 16.5859 23.5789 16.5841C23.5784 16.5803 23.578 16.5749 23.578 16.5684C23.578 16.5553 23.5798 16.5383 23.587 16.5218C23.594 16.5055 23.6063 16.4894 23.6277 16.4777C23.6493 16.4659 23.6809 16.4581 23.7274 16.46C23.8942 16.468 24.1052 16.5077 24.2945 16.5655C24.389 16.5944 24.478 16.6277 24.553 16.6636C24.6282 16.6996 24.6887 16.7378 24.7273 16.7763C24.7635 16.8161 24.7943 16.8605 24.8191 16.9081C24.7759 16.8785 24.7207 16.863 24.6687 16.8552C24.5947 16.844 24.5237 16.848 24.4945 16.8521C24.4946 16.8521 24.4947 16.8521 24.4948 16.8521L24.496 16.864L24.4943 16.8522C24.4943 16.8521 24.4944 16.8521 24.4945 16.8521M23.8575 17.0406C23.8529 17.0329 23.8486 17.0248 23.8442 17.0167C23.8434 17.0151 23.8425 17.0135 23.8417 17.0119C23.8363 17.0019 23.8308 16.9918 23.8248 16.9832C23.819 16.9747 23.8121 16.9667 23.8037 16.9614C23.7951 16.9559 23.7851 16.9537 23.774 16.9562C23.7373 16.9596 23.684 16.9467 23.6172 16.9142C23.5502 16.8818 23.471 16.8303 23.3836 16.7587L23.3836 16.7587L23.3834 16.7586C23.2914 16.6866 23.226 16.6414 23.1549 16.6167C23.0836 16.5919 23.0076 16.588 22.8951 16.5961C22.7728 16.6042 22.6945 16.6431 22.6466 16.6806C22.6349 16.6897 22.625 16.6988 22.6168 16.7072C22.6253 16.684 22.6348 16.6631 22.6453 16.6451C22.6617 16.6172 22.6802 16.5973 22.7013 16.5868L22.7021 16.5864L22.7028 16.5859C22.7795 16.5322 22.9041 16.512 23.0565 16.518C23.2083 16.524 23.3854 16.5558 23.5649 16.6036L23.5837 16.6087L23.5797 16.5896L23.5797 16.5896L23.5797 16.5896M22.604 16.7458C22.608 16.7324 22.6123 16.7195 22.6168 16.7072C22.6082 16.7161 22.6014 16.7243 22.5961 16.7313C22.5929 16.7357 22.5902 16.7396 22.5881 16.7429L22.5805 16.7406C22.5926 16.7001 22.6069 16.6631 22.6246 16.633C22.6421 16.6032 22.6633 16.5792 22.6898 16.5657C22.6896 16.5659 22.6893 16.566 22.6891 16.5662L22.696 16.576L22.6906 16.5653C22.6903 16.5654 22.6901 16.5656 22.6898 16.5657C22.7732 16.5077 22.9043 16.488 23.0574 16.494C23.2068 16.4999 23.3794 16.5303 23.5541 16.576C23.5543 16.5803 23.5547 16.584 23.555 16.587C23.5553 16.5892 23.5556 16.591 23.5558 16.5923L23.5561 16.5938L23.5562 16.5943L23.5562 16.5944L23.5562 16.5945L23.5562 16.5945C23.5562 16.5945 23.5562 16.5945 23.568 16.592L23.571 16.5804C23.5654 16.5789 23.5598 16.5774 23.5541 16.576C23.554 16.5736 23.554 16.5711 23.554 16.5684C23.554 16.5533 23.5561 16.5328 23.5649 16.5123C23.5739 16.4916 23.5896 16.4712 23.6162 16.4566C23.6426 16.4422 23.679 16.434 23.7285 16.436L23.7285 16.436V16.436C23.8977 16.4441 24.1107 16.4843 24.3015 16.5426C24.3969 16.5717 24.487 16.6054 24.5634 16.642C24.6396 16.6784 24.703 16.7181 24.7444 16.7595L24.7448 16.7599L24.7448 16.76C24.797 16.8173 24.8385 16.8836 24.8671 16.9556L24.8462 16.967C24.8092 16.9152 24.7375 16.8898 24.6652 16.8789C24.5934 16.8681 24.5246 16.8721 24.4977 16.8759L24.4972 16.876L24.4972 16.876C24.4734 16.8783 24.4521 16.8793 24.4312 16.8803C24.3795 16.8828 24.33 16.8851 24.2513 16.9076C24.2391 16.911 24.2265 16.9144 24.2134 16.9178C24.1951 16.9226 24.1759 16.9276 24.1564 16.9335C24.1242 16.9433 24.094 16.9547 24.0716 16.9693C24.065 16.9763 24.0579 16.9868 24.0499 16.9998C24.0471 17.0045 24.0441 17.0096 24.041 17.0148C24.0355 17.0239 24.0298 17.0336 24.024 17.0425C24.0149 17.0568 24.0047 17.0708 23.9934 17.0813C23.982 17.0919 23.9682 17.1 23.952 17.1C23.9117 17.1 23.8891 17.0961 23.8733 17.0876C23.8652 17.0833 23.8595 17.078 23.8544 17.0727C23.852 17.0701 23.8501 17.068 23.8482 17.0659C23.8456 17.0629 23.8431 17.0601 23.8395 17.0565L23.8384 17.0555L23.8377 17.0542C23.8324 17.0455 23.8276 17.0364 23.823 17.0279C23.8222 17.0263 23.8213 17.0247 23.8205 17.0232C23.8151 17.0132 23.8102 17.0042 23.8051 16.9968C23.7999 16.9894 23.7953 16.9844 23.791 16.9817C23.7871 16.9793 23.7834 16.9785 23.7789 16.9797L23.778 16.9799L23.7772 16.98C23.7338 16.9843 23.6754 16.9692 23.6067 16.9358C23.5377 16.9023 23.4569 16.8498 23.3685 16.7774C23.2765 16.7055 23.2139 16.6626 23.147 16.6394C23.0803 16.6162 23.0083 16.612 22.8968 16.62L22.8968 16.62C22.7791 16.6279 22.7054 16.665 22.6614 16.6995C22.6393 16.7168 22.6245 16.7335 22.6153 16.7457C22.6107 16.7519 22.6075 16.7569 22.6055 16.7603C22.6045 16.762 22.6038 16.7633 22.6033 16.7641L22.6029 16.765L22.6028 16.7652C22.6028 16.7652 22.6028 16.7652 22.6028 16.7651L22.58 16.76V16.744H22.5873C22.5875 16.7437 22.5878 16.7433 22.5881 16.7429L22.592 16.744M22.8951 16.5961C22.8951 16.5961 22.8951 16.5961 22.8951 16.5961L22.896 16.608L22.8952 16.5961C22.8952 16.5961 22.8951 16.5961 22.8951 16.5961ZM23.774 16.9562C23.7737 16.9562 23.7734 16.9563 23.773 16.9564L23.776 16.968L23.7748 16.9561C23.7745 16.9561 23.7742 16.9561 23.774 16.9562ZM23.8575 17.0406C23.8578 17.041 23.858 17.0415 23.8582 17.0419L23.848 17.048L23.8564 17.0395C23.8568 17.0399 23.8572 17.0403 23.8575 17.0406Z" fill="#C09300"/>
<path d="M23.904 16.952C23.957 16.952 24 16.909 24 16.856C24 16.803 23.957 16.76 23.904 16.76C23.851 16.76 23.808 16.803 23.808 16.856C23.808 16.909 23.851 16.952 23.904 16.952Z" fill="white"/>
</g>
</g>
</g>
<defs>
<clipPath id="clip0_152_46362">
<rect width="48" height="48" fill="white"/>
</clipPath>
<clipPath id="clip1_152_46362">
<rect width="64" height="48" fill="white" transform="translate(-8)"/>
</clipPath>
</defs>
</svg>
