<svg width="48" height="48" viewBox="0 0 48 48" fill="none" xmlns="http://www.w3.org/2000/svg">
<g clip-path="url(#clip0_191_23373)">
<mask id="mask0_191_23373" style="mask-type:alpha" maskUnits="userSpaceOnUse" x="0" y="0" width="48" height="48">
<circle cx="24" cy="24" r="24" fill="#D9D9D9"/>
</mask>
<g mask="url(#mask0_191_23373)">
<g clip-path="url(#clip1_191_23373)">
<path d="M-14 0H50V48H-14V0Z" fill="#20603D"/>
<path d="M-14 0H50V36H-14V0Z" fill="#FAD201"/>
<path d="M-14 0H50V24H-14V0Z" fill="#00A1DE"/>
<path d="M44.84 12.5399L39.48 12.8533L44.5734 14.5466L39.32 13.4599L43.8067 16.4066L39.0067 13.9933L42.5667 18.0133L38.56 14.4466L40.9733 19.2466L38.02 14.7599L39.1 20.0066L37.4133 14.9199L37.1 20.28L37.0333 12.4733L44.84 12.5399Z" fill="#E5BE01"/>
<path d="M44.84 12.54L39.48 12.8533L44.5734 14.5467L39.32 13.46L43.8067 16.4067L39.0067 13.9933L42.5667 18.0134L38.56 14.4467L40.9733 19.2467L38.02 14.76L39.1 20.0067L37.4133 14.92L37.1 20.28L37.0333 12.4733L44.84 12.54Z" fill="#E5BE01"/>
<path d="M44.8401 12.5399L39.4801 12.8533L44.5734 14.5466L39.3201 13.4599L43.8067 16.4066L39.0067 13.9933L42.5667 18.0133L38.5601 14.4466L40.9734 19.2466L38.0201 14.7599L39.1001 20.0066L37.4134 14.9199L37.1001 20.28L37.0334 12.4733L44.8401 12.5399Z" fill="#E5BE01"/>
<path d="M44.8401 12.54L39.4801 12.8533L44.5734 14.5467L39.3201 13.46L43.8067 16.4067L39.0067 13.9933L42.5667 18.0134L38.5601 14.4467L40.9734 19.2467L38.0201 14.76L39.1001 20.0067L37.4134 14.92L37.1001 20.28L37.0334 12.4733L44.8401 12.54Z" fill="#E5BE01"/>
<path d="M29.3557 12.54L34.7157 12.8533L29.6224 14.5467L34.8757 13.46L30.3891 16.4067L35.1891 13.9933L31.6291 18.0134L35.6357 14.4467L33.2224 19.2467L36.1757 14.76L35.0957 20.0067L36.7824 14.92L37.0958 20.28L37.1624 12.4733L29.3557 12.54Z" fill="#E5BE01"/>
<path d="M44.8401 12.5461L39.4801 12.2327L44.5734 10.5394L39.3201 11.6261L43.8067 8.67938L39.0067 11.0927L42.5667 7.07271L38.5601 10.6394L40.9734 5.83937L38.0201 10.3261L39.1001 5.07936L37.4134 10.1661L37.1001 4.80603L37.0334 12.6127L44.8401 12.5461Z" fill="#E5BE01"/>
<path d="M29.3557 12.5461L34.7157 12.2327L29.6224 10.5394L34.8757 11.6261L30.3891 8.67938L35.1891 11.0927L31.6291 7.07271L35.6357 10.6394L33.2224 5.83937L36.1757 10.3261L35.0957 5.07936L36.7824 10.1661L37.0958 4.80603L37.1624 12.6127L29.3557 12.5461Z" fill="#E5BE01"/>
<path d="M37.1 14.8265C38.3629 14.8265 39.3867 13.8027 39.3867 12.5399C39.3867 11.277 38.3629 10.2532 37.1 10.2532C35.8371 10.2532 34.8134 11.277 34.8134 12.5399C34.8134 13.8027 35.8371 14.8265 37.1 14.8265Z" fill="#E5BE01"/>
<path d="M37.1001 14.9399C35.7734 14.9399 34.7001 13.8666 34.7001 12.5399C34.7001 11.2132 35.7734 10.1399 37.1001 10.1399C38.4268 10.1399 39.5001 11.2132 39.5001 12.5399C39.5001 13.8666 38.4268 14.9399 37.1001 14.9399ZM37.1001 10.3666C35.9001 10.3666 34.9267 11.3399 34.9267 12.5399C34.9267 13.7399 35.9001 14.7132 37.1001 14.7132C38.3001 14.7132 39.2734 13.7399 39.2734 12.5399C39.2734 11.3399 38.3001 10.3666 37.1001 10.3666Z" fill="#00A1DE"/>
</g>
</g>
</g>
<defs>
<clipPath id="clip0_191_23373">
<rect width="48" height="48" fill="white"/>
</clipPath>
<clipPath id="clip1_191_23373">
<rect width="64" height="48" fill="white" transform="translate(-14)"/>
</clipPath>
</defs>
</svg>
