<svg width="48" height="48" viewBox="0 0 48 48" fill="none" xmlns="http://www.w3.org/2000/svg">
<g clip-path="url(#clip0_154_54487)">
<mask id="mask0_154_54487" style="mask-type:alpha" maskUnits="userSpaceOnUse" x="0" y="0" width="48" height="48">
<circle cx="24" cy="24" r="24" fill="#D9D9D9"/>
</mask>
<g mask="url(#mask0_154_54487)">
<g clip-path="url(#clip1_154_54487)">
<path d="M-8 32H56V48H-8V32Z" fill="#1EB53A"/>
<path d="M-8 0H56V16H-8V0Z" fill="#0099B5"/>
<path d="M-8 15.36H56V32.64H-8V15.36Z" fill="#CE1126"/>
<path d="M-8 16.32H56V31.68H-8V16.32Z" fill="white"/>
<path d="M5.44005 13.44C8.62121 13.44 11.2001 10.8611 11.2001 7.67998C11.2001 4.49882 8.62121 1.91998 5.44005 1.91998C2.25889 1.91998 -0.319946 4.49882 -0.319946 7.67998C-0.319946 10.8611 2.25889 13.44 5.44005 13.44Z" fill="white"/>
<path d="M7.35998 13.44C10.5411 13.44 13.12 10.8611 13.12 7.67998C13.12 4.49882 10.5411 1.91998 7.35998 1.91998C4.17882 1.91998 1.59998 4.49882 1.59998 7.67998C1.59998 10.8611 4.17882 13.44 7.35998 13.44Z" fill="#0099B5"/>
<path d="M18.137 12.1285L17.8727 11.3162L17.6085 12.1285H16.757L17.4421 12.6277L17.1778 13.4401L17.8727 12.9409L18.5677 13.4401L18.3034 12.6277L18.9885 12.1285H18.137Z" fill="white"/>
<path d="M17.8727 6.61804L17.6085 7.43041H16.757L17.4421 7.92958L17.1778 8.74195L17.8727 8.24278L18.5677 8.74195L18.3034 7.92958L18.9885 7.43041H18.137L17.8727 6.61804Z" fill="white"/>
<path d="M17.8727 1.91992L17.6085 2.73229H16.757L17.4421 3.23146L17.1778 4.04383L17.8727 3.54466L18.5677 4.04383L18.3034 3.23146L18.9885 2.73229H18.137L17.8727 1.91992Z" fill="white"/>
<path d="M22.8351 12.1285L22.5709 11.3162L22.3066 12.1285H21.4551L22.1402 12.6277L21.8759 13.4401L22.5709 12.9409L23.2658 13.4401L23.0015 12.6277L23.6866 12.1285H22.8351Z" fill="white"/>
<path d="M22.5709 6.61804L22.3066 7.43041H21.4551L22.1402 7.92958L21.8759 8.74195L22.5709 8.24278L23.2658 8.74195L23.0015 7.92958L23.6866 7.43041H22.8351L22.5709 6.61804Z" fill="white"/>
<path d="M22.5709 1.91992L22.3066 2.73229H21.4551L22.1402 3.23146L21.8759 4.04383L22.5709 3.54466L23.2658 4.04383L23.0015 3.23146L23.6866 2.73229H22.8351L22.5709 1.91992Z" fill="white"/>
<path d="M27.5325 12.1285L27.2683 11.3162L27.004 12.1285H26.1525L26.8376 12.6277L26.5733 13.4401L27.2683 12.9409L27.9632 13.4401L27.6989 12.6277L28.384 12.1285H27.5325Z" fill="white"/>
<path d="M27.2683 6.61804L27.004 7.43041H26.1525L26.8376 7.92958L26.5733 8.74195L27.2683 8.24278L27.9632 8.74195L27.6989 7.92958L28.384 7.43041H27.5325L27.2683 6.61804Z" fill="white"/>
<path d="M26.8376 3.23146L26.5733 4.04383L27.2683 3.54466L27.9632 4.04383L27.6989 3.23146L28.384 2.73229H27.5325L27.2683 1.91992L27.004 2.73229H26.1525L26.8376 3.23146Z" fill="white"/>
<path d="M8.74077 12.1285L8.4765 11.3162L8.21224 12.1285H7.36072L8.04585 12.6277L7.78158 13.4401L8.4765 12.9409L9.17142 13.4401L8.90716 12.6277L9.59229 12.1285H8.74077Z" fill="white"/>
<path d="M13.4389 12.1285L13.1746 11.3162L12.9104 12.1285H12.0588L12.744 12.6277L12.4797 13.4401L13.1746 12.9409L13.8695 13.4401L13.6053 12.6277L14.2904 12.1285H13.4389Z" fill="white"/>
<path d="M13.1746 6.61804L12.9104 7.43041H12.0588L12.744 7.92958L12.4797 8.74195L13.1746 8.24278L13.8695 8.74195L13.6053 7.92958L14.2904 7.43041H13.4389L13.1746 6.61804Z" fill="white"/>
</g>
</g>
</g>
<defs>
<clipPath id="clip0_154_54487">
<rect width="48" height="48" fill="white"/>
</clipPath>
<clipPath id="clip1_154_54487">
<rect width="64" height="48" fill="white" transform="translate(-8)"/>
</clipPath>
</defs>
</svg>
