<svg width="48" height="48" viewBox="0 0 48 48" fill="none" xmlns="http://www.w3.org/2000/svg">
<g clip-path="url(#clip0_154_54486)">
<mask id="mask0_154_54486" style="mask-type:alpha" maskUnits="userSpaceOnUse" x="0" y="0" width="48" height="48">
<circle cx="24" cy="24" r="24" fill="#D9D9D9"/>
</mask>
<g mask="url(#mask0_154_54486)">
<g clip-path="url(#clip1_154_54486)">
<path fill-rule="evenodd" clip-rule="evenodd" d="M-12 0H60V48H-12V0Z" fill="#E70013"/>
<path fill-rule="evenodd" clip-rule="evenodd" d="M36.1688 23.9812C36.1688 27.1912 34.8936 30.2697 32.6238 32.5394C30.3541 34.8092 27.2756 36.0844 24.0656 36.0844C20.8557 36.0844 17.7772 34.8092 15.5074 32.5394C13.2377 30.2697 11.9625 27.1912 11.9625 23.9812C11.9625 20.7713 13.2377 17.6928 15.5074 15.423C17.7772 13.1533 20.8557 11.8781 24.0656 11.8781C27.2756 11.8781 30.3541 13.1533 32.6238 15.423C34.8936 17.6928 36.1688 20.7713 36.1688 23.9812Z" fill="white"/>
<path fill-rule="evenodd" clip-rule="evenodd" d="M24.0656 32.0063C21.9835 31.9351 20.0104 31.058 18.5627 29.5599C17.1149 28.0618 16.3057 26.0599 16.3057 23.9766C16.3057 21.8933 17.1149 19.8914 18.5627 18.3933C20.0104 16.8952 21.9835 16.0181 24.0656 15.9469C25.1719 15.9469 26.4375 16.2094 27.2906 16.8375C21.4219 17.0531 19.9313 22.0406 19.9313 24.0469C19.9313 26.0531 20.8781 30.525 27.2906 31.1906C26.5594 31.6594 25.1719 32.0063 24.0656 32.0063Z" fill="#E70013"/>
<path fill-rule="evenodd" clip-rule="evenodd" d="M31.1344 27.3562L27.4875 26.025L25.0782 29.0625L25.2188 25.1906L21.5813 23.8312L25.3125 22.7625L25.4719 18.8906L27.6469 22.1063L31.3782 21.075L28.9875 24.1219L31.1344 27.3562Z" fill="#E70013"/>
</g>
</g>
</g>
<defs>
<clipPath id="clip0_154_54486">
<rect width="48" height="48" fill="white"/>
</clipPath>
<clipPath id="clip1_154_54486">
<rect width="64" height="48" fill="white" transform="translate(-8)"/>
</clipPath>
</defs>
</svg>
