<svg width="48" height="48" viewBox="0 0 48 48" fill="none" xmlns="http://www.w3.org/2000/svg">
<g clip-path="url(#clip0_152_51421)">
<mask id="mask0_152_51421" style="mask-type:alpha" maskUnits="userSpaceOnUse" x="0" y="0" width="48" height="48">
<circle cx="24" cy="24" r="24" fill="#D9D9D9"/>
</mask>
<g mask="url(#mask0_152_51421)">
<g clip-path="url(#clip1_152_51421)">
<path d="M-8 0H56V48H-8V0Z" fill="white"/>
<path fill-rule="evenodd" clip-rule="evenodd" d="M-16 0V3.2L19.04 24L-15.84 44.8V48H-10.72L24.16 27.2L58.88 48H64V44.8L29.28 24L64.16 3.2V0H58.88L24 20.8L-10.72 0H-15.84H-16Z" fill="#DF112D"/>
<path d="M28.1599 7.20003C29.2799 11.36 28.6399 16.48 23.9999 19.36C19.3599 16.48 18.7199 11.36 19.8399 7.20003C20.9599 6.24003 25.9199 5.60003 28.1599 7.20003Z" fill="#E8112D"/>
<path d="M24 6.4C25.6 6.4 26.88 6.72 28.16 7.36C28.3903 5.97383 28.9379 4.65964 29.76 3.52C28.96 3.52 28.64 3.84 28.64 4.32C28.48 3.84 27.68 3.84 27.36 4.16C28.32 4.64 27.68 5.76 26.88 5.6C26.4 5.44 26.24 5.12 26.24 4.8C26.3586 4.77994 26.4654 4.71603 26.5392 4.62093C26.613 4.52584 26.6483 4.4065 26.6383 4.28657C26.6282 4.16664 26.5735 4.05486 26.4849 3.97339C26.3963 3.89192 26.2803 3.84671 26.16 3.84671C26.0396 3.84671 25.9236 3.89192 25.835 3.97339C25.7465 4.05486 25.6917 4.16664 25.6816 4.28657C25.6716 4.4065 25.7069 4.52584 25.7807 4.62093C25.8545 4.71603 25.9613 4.77994 26.08 4.8C25.7845 5.10146 25.382 5.27398 24.96 5.28C24.7762 5.19311 24.6196 5.05786 24.5068 4.88875C24.3941 4.71963 24.3295 4.52302 24.32 4.32C24.32 3.52 25.28 3.36 25.44 3.52C25.44 3.04 24.48 2.4 24.32 3.04C24.4852 2.72931 24.5434 2.37283 24.4855 2.02574C24.4277 1.67864 24.257 1.3603 24 1.12C23.7774 1.34812 23.628 1.63752 23.571 1.9511C23.514 2.26467 23.5519 2.58812 23.68 2.88C23.36 2.4 22.56 2.88 22.56 3.52C22.72 3.36 23.52 3.52 23.52 4.32C23.52 4.64 23.52 5.12 23.04 5.12C22.844 5.1968 22.6282 5.20709 22.4259 5.14927C22.2235 5.09145 22.0457 4.96873 21.92 4.8L22.24 4.64C22.3315 4.58716 22.403 4.50561 22.4434 4.40799C22.4839 4.31037 22.4909 4.20213 22.4636 4.10007C22.4363 3.99801 22.376 3.90782 22.2922 3.84349C22.2083 3.77917 22.1056 3.7443 22 3.7443C21.8943 3.7443 21.7916 3.77917 21.7077 3.84349C21.6239 3.90782 21.5637 3.99801 21.5363 4.10007C21.509 4.20213 21.5161 4.31037 21.5565 4.40799C21.5969 4.50561 21.6684 4.58716 21.76 4.64C21.76 5.12 21.44 5.44 21.12 5.44C20.952 5.44 20.7884 5.38717 20.6522 5.28899C20.516 5.19081 20.4141 5.05227 20.361 4.89298C20.3079 4.73369 20.3063 4.56173 20.3563 4.40146C20.4064 4.24119 20.5056 4.10074 20.64 4C20.32 3.68 19.52 3.68 19.36 4.32C19.36 3.84 19.04 3.52 18.08 3.52C18.902 4.65964 19.4496 5.97383 19.68 7.36C21.0096 6.66327 22.5004 6.33199 24 6.4Z" fill="#F9DD16"/>
<path d="M27.68 10.56H27.36H27.84C28 10.56 28.16 10.4 28 10.24H28.32L28 9.91997H28.32L28 9.59997H28.16C28.1319 9.55133 28.1171 9.49615 28.1171 9.43997C28.1171 9.3838 28.1319 9.32862 28.16 9.27997H27.04L26.24 9.11997L27.2 8.63997C27.2 8.31997 26.72 7.83997 25.92 8.15997L24.16 7.99997L25.28 7.67997L26.56 7.51998H25.44C24.96 7.51998 23.84 7.35997 23.84 7.99997C23.84 8.63997 24.96 8.47997 26.08 8.31997L27.04 8.47997L26.08 8.79997C25.6062 8.69057 25.1138 8.69057 24.64 8.79997H23.52C23.2 8.79997 22.72 8.79997 22.4 8.47997C22.4 8.47997 21.76 8.79997 21.76 9.11997V9.59997C22.08 9.91997 21.76 9.75997 21.44 9.75997L20.64 9.59997C20.48 9.27997 20.32 9.11997 20 9.27997V9.59997H20.32C20.2714 9.57189 20.2162 9.5571 20.16 9.5571C20.1038 9.5571 20.0486 9.57189 20 9.59997V9.91997H20.48H20.16V10.08H20.8C20.7151 10.08 20.6337 10.1137 20.5737 10.1737C20.5137 10.2337 20.48 10.3151 20.48 10.4C20.64 10.24 20.8 10.4 21.12 10.4L20.8 10.56C20.96 10.56 21.92 10.72 21.92 10.4V10.56C21.92 10.56 22.4 10.56 22.4 10.24V10.56C22.4 10.56 22.72 10.56 22.88 10.24V9.91997H23.68C24 9.59997 24.16 9.91997 24.32 9.75997H24.64C24.8 9.75997 24.96 9.75997 25.12 9.43997C25.44 9.59997 25.92 9.75997 26.88 9.59997C27.36 9.59997 27.68 9.75997 27.68 10.08H26.88C26.88 10.08 26.72 10.24 26.88 10.4C27.04 10.56 26.88 10.4 27.04 10.4C27.04 10.4 26.88 10.56 27.04 10.72L27.52 10.56H27.68ZM21.28 7.83997V7.99997L21.44 8.31997L21.6 7.83997H21.28Z" fill="#F9DD16"/>
<path d="M22.4 7.99997C22.56 7.83997 22.72 7.83997 22.72 7.99997L22.56 8.31997L22.4 7.83997V7.99997Z" fill="#F9DD16"/>
<path d="M21.9199 7.67999C22.3999 7.67999 22.5599 7.99999 22.5599 8.31999L22.2399 8.95999L21.9199 9.11999L21.5999 8.95999C21.5999 8.47999 21.2799 8.63999 21.2799 8.31999C21.2799 7.99999 21.2799 7.67999 21.9199 7.67999Z" fill="#F9DD16"/>
<path d="M20.64 8.95999H20.32C20.48 8.95999 20.48 9.27999 20.96 9.27999H20.64C20.8 9.27999 20.96 9.59999 21.44 9.59999C21.44 9.59999 21.6 9.59999 21.44 9.59999C21.44 9.75999 21.76 9.59999 21.92 9.91999C21.92 9.75999 21.6 9.43999 21.92 9.11999C21.28 9.11999 21.12 8.79999 20.96 8.63999C20.64 8.47999 20.64 8.15999 20.48 7.83999C20.48 7.83999 20.32 7.51999 20.16 7.67999V7.99999H20C20.16 7.99999 20 8.31999 20.32 8.47999C20.16 8.31999 20 8.15999 19.84 8.31999H20L20.64 8.95999ZM24.8 10.56H25.6L25.92 10.4V10.08C25.76 10.08 25.6 9.91999 25.76 9.75999C25.28 9.11999 24.32 9.43999 24.32 9.75999L24.96 10.08H25.12H24L24.16 10.24L23.84 10.4C23.84 10.72 24.16 10.4 24.16 10.4V10.56C24.16 10.56 24.16 10.72 24.32 10.56C24.4235 10.5234 24.5364 10.5234 24.64 10.56H24.8Z" fill="#F9DD16"/>
<path d="M21.92 8.96001H22.08V8.64001H21.6V8.80001L21.92 8.96001Z" fill="#FF0016"/>
<path d="M20.1599 7.68C20.1599 7.52 19.8399 7.68 19.8399 7.68H20.1599ZM20.1599 7.84L19.6799 8H19.9999L20.1599 7.84ZM20.1599 8.32H19.6799H19.9999H20.1599ZM20.1599 9.44C19.9999 9.44 19.8399 9.44 19.8399 9.76C19.8399 9.6 19.9999 9.76 20.1599 9.76V9.44ZM20.1599 9.76L19.8399 10.08L20.1599 9.92V9.6V9.76ZM20.1599 9.92C20.1599 9.92 19.9999 10.08 20.1599 10.24V9.76V9.92ZM24.1599 10.4C23.9999 10.4 23.8399 10.4 23.8399 10.72L24.1599 10.56V10.4ZM24.3199 10.4C24.1599 10.4 23.9999 10.72 24.1599 10.88L24.3199 10.72V10.56V10.4ZM24.3199 10.08C23.9999 10.08 23.8399 10.08 23.8399 10.4L24.1599 10.24L24.3199 10.08ZM26.8799 10.4C26.8799 10.4 26.5599 10.56 26.7199 10.72L26.8799 10.56V10.4ZM26.8799 10.24L26.5599 10.4H26.8799V9.92V10.24ZM26.8799 10.56C26.8799 10.56 26.7199 10.88 26.8799 10.88H27.0399V10.4L26.8799 10.56ZM22.0799 8.96V9.6C21.7599 9.6 21.7599 9.6 21.7599 9.28V8.96H21.9199H22.0799Z" fill="#0051BA"/>
<path d="M27.0399 13.92H27.3599C27.3599 13.92 27.5199 13.92 27.3599 13.76H27.6799L27.5199 13.44H27.6799L27.5199 13.12C27.4919 13.0714 27.4771 13.0162 27.4771 12.96C27.4771 12.9038 27.4919 12.8487 27.5199 12.8H26.7199L25.9199 12.64C26.3999 12.8 26.8799 12.48 26.8799 12.16C26.8799 11.84 26.3999 11.52 25.7599 11.84L23.9999 11.68L24.9599 11.36H26.2399L25.1199 11.2C24.6399 11.04 23.6799 11.2 23.6799 11.68C23.6799 12.16 24.7999 12.16 25.7599 12H26.5599L25.7599 12.32C25.3387 12.224 24.9012 12.224 24.4799 12.32L23.3599 12.48C23.1999 12.48 22.7199 12.48 22.3999 12.16L21.7599 12.64L21.9199 13.28C22.0799 13.44 21.9199 13.28 21.5999 13.28H20.7999C20.7999 12.96 20.4799 12.8 20.3199 12.96V13.12H20.6399C20.5913 13.0919 20.5361 13.0771 20.4799 13.0771C20.4238 13.0771 20.3686 13.0919 20.3199 13.12V13.44H20.6399H20.4799C20.7999 13.44 20.7999 13.76 20.9599 13.6C20.9075 13.5865 20.8524 13.5865 20.7999 13.6C20.7999 13.6 21.1199 13.92 21.2799 13.76L21.1199 14.08C21.1199 13.92 22.0799 14.08 22.0799 13.76V14.08C22.0799 14.08 22.3999 14.08 22.5599 13.76H22.8799V13.44H23.1999L23.6799 13.28H24.4799C24.6399 13.28 24.7999 13.28 24.9599 12.96C25.2799 13.12 25.5999 13.28 26.5599 13.12C26.8799 13.12 27.0399 13.12 27.0399 13.44V13.6H26.3999V13.92C26.3999 14.08 26.5599 13.92 26.7199 13.92C26.5599 13.92 26.3999 13.92 26.5599 14.08H26.7199L27.0399 13.92ZM21.5999 11.52H21.2799L21.4399 12L21.5999 11.52Z" fill="#F9DD16"/>
<path d="M22.3999 11.52H22.7199L22.5599 12L22.3999 11.52Z" fill="#F9DD16"/>
<path d="M22.0799 11.36C22.5599 11.36 22.5599 11.68 22.5599 12C22.5599 12.32 22.3999 12 22.2399 12.48L21.9199 12.64H21.7599C21.7599 12.16 21.4399 12.16 21.4399 12C21.4399 11.84 21.4399 11.36 22.0799 11.36Z" fill="#F9DD16"/>
<path d="M20.7999 12.48H20.6399C20.6399 12.48 20.6399 12.8 21.1199 12.8H20.7999L21.4399 13.12C21.4399 13.12 21.7599 13.12 21.4399 13.12L22.0799 13.44C22.0799 13.12 21.7599 12.96 21.9199 12.64C21.4399 12.64 21.2799 12.32 21.1199 12.16C20.7999 12.16 20.7999 11.84 20.7999 11.52L20.4799 11.36C20.3199 11.36 20.4799 11.36 20.4799 11.36V11.68H20.3199L20.4799 12H20.1599C20.4799 12 20.6399 12.48 20.7999 12.48ZM24.6399 13.92H24.4799H25.7599V13.6C25.5999 13.6 25.4399 13.44 25.5999 13.12C25.1199 12.64 24.3199 12.96 24.3199 13.12L24.9599 13.44C24.9599 13.44 25.2799 13.44 24.9599 13.6H24.6399C24.3199 13.6 24.1599 13.44 23.9999 13.6V13.92H24.1599C24.1599 13.92 24.1599 14.08 24.3199 13.92C24.4234 13.8834 24.5364 13.8834 24.6399 13.92Z" fill="#F9DD16"/>
<path d="M22.08 12.64V12.48C22.08 12.48 22.24 12.32 22.08 12.16C22.08 12.32 22.24 12.32 22.08 12.16C22.08 12.32 21.76 12.32 21.76 12.16V12.48H22.08V12.64Z" fill="#FF0016"/>
<path d="M21.92 12.32L21.6 12.16L21.92 12.32ZM21.92 12.16H21.6H21.92ZM21.92 12.16L21.6 12.32L21.92 12.16ZM22.08 12.32L22.4 12.16L22.08 12.32ZM22.08 12.16H22.4H22.08ZM22.08 12.16L22.4 12.32L22.08 12.16Z" fill="black"/>
<path d="M20.48 11.2L20.16 11.36H20.48V11.2ZM20.48 11.52L20 11.68H20.32L20.48 11.52ZM20.32 12C20.32 11.84 20 12 20 12H20.32ZM20.32 12.96L20 13.12H20.48L20.32 12.96ZM20.32 13.28C20.32 13.28 20 13.28 20.32 13.6V13.28ZM20.64 13.28L20.32 13.76L20.64 13.6V13.44V13.28ZM23.84 13.76C23.84 13.76 23.68 13.76 23.84 14.08L24 13.92V13.76H23.84ZM24.16 13.92C24.16 13.92 23.84 14.08 24 14.24L24.16 14.08V13.92ZM24.16 13.44C24 13.44 23.68 13.6 23.84 13.76H24V13.6L24.16 13.44ZM26.4 13.92C26.4 13.92 26.24 13.92 26.4 14.08V13.76V13.92ZM26.4 13.6L26.24 13.76H26.56V13.6H26.4ZM26.56 14.08C26.56 14.08 26.4 14.08 26.56 14.24V14.08ZM22.08 12.48V13.12V12.8C22.08 12.64 22.08 12.48 21.92 12.64V12.48H22.08Z" fill="#0051BA"/>
<path d="M27.0368 16.688C26.9472 16.688 26.9472 16.808 26.9248 16.808C27.104 16.808 27.1936 16.736 27.2384 16.64V16.784C27.3728 16.736 27.4176 16.616 27.3728 16.544L27.5296 16.592C27.44 16.52 27.5072 16.352 27.3504 16.256C27.3952 16.256 27.4848 16.304 27.5296 16.376C27.5072 16.208 27.4848 16.112 27.3504 16.016H27.4624C27.4331 15.9951 27.4094 15.9665 27.3937 15.9328C27.378 15.8991 27.3708 15.8616 27.3728 15.824C27.3728 15.728 27.328 15.728 27.2384 15.752L26.8352 15.776C26.6112 15.776 26.3872 15.776 26.208 15.632C26.4992 15.776 26.88 15.488 26.88 15.272C26.88 15.032 26.5664 14.792 25.984 14.936C25.4016 15.08 24.6848 15.032 24.6848 14.816C24.6848 14.6 25.2 14.576 25.4688 14.624C25.7376 14.672 25.9168 14.696 26.4096 14.504C26.2976 14.552 25.8944 14.576 25.5808 14.48C25.2672 14.384 24.5056 14.384 24.5056 14.816C24.5056 15.272 25.312 15.224 26.0288 15.104C26.432 15.056 26.656 15.104 26.656 15.224C26.656 15.368 26.2752 15.416 25.984 15.392C25.6765 15.3476 25.3637 15.3721 25.0656 15.464C24.7744 15.56 24.5728 15.464 24.2592 15.536C24.1024 15.536 23.7216 15.536 23.5424 15.2C23.4304 15.296 23.0944 15.464 23.0272 15.656C22.96 15.8 23.0272 15.968 23.1168 16.136C23.2512 16.328 23.0496 16.304 22.8928 16.304C22.7136 16.304 22.4448 16.304 22.3104 16.112C22.176 15.968 22.0192 15.848 21.8848 15.944C21.8176 16.016 21.8848 16.088 21.9296 16.064L22.1088 16.112C22.0728 16.0945 22.0331 16.0874 21.9937 16.0917C21.9544 16.0959 21.9168 16.1112 21.8848 16.136C21.8176 16.184 21.8848 16.28 21.952 16.256C21.9968 16.232 22.1088 16.208 22.176 16.256C22.1088 16.256 22.0192 16.256 21.9968 16.304C21.9744 16.352 21.9968 16.4 22.064 16.4C22.1984 16.4 22.2208 16.496 22.3552 16.472C22.3239 16.4738 22.2934 16.4835 22.2662 16.5001C22.2389 16.5168 22.2157 16.54 22.1984 16.568C22.3328 16.496 22.4448 16.664 22.6016 16.616C22.5568 16.64 22.4448 16.712 22.4448 16.76C22.5344 16.64 23.1616 16.856 23.1616 16.592L23.1392 16.784C23.2064 16.736 23.4528 16.712 23.5424 16.544C23.5424 16.592 23.5424 16.664 23.4976 16.688C23.5648 16.688 23.6768 16.64 23.7888 16.472C23.8336 16.4 23.8336 16.352 23.8336 16.304C23.9456 16.304 24.0128 16.28 24.1024 16.208C24.192 16.136 24.2816 16.28 24.4384 16.16C24.5728 16.064 24.7072 16.16 24.7968 16.112C24.864 16.064 24.976 16.112 25.0656 16.064C25.1552 16.016 25.2896 16.088 25.424 15.968C25.648 16.064 25.9392 16.208 26.5888 16.088C26.9472 16.016 27.0816 16.16 27.0816 16.328C27.0816 16.472 26.992 16.472 26.9472 16.472C26.7232 16.496 26.656 16.4 26.5664 16.424C26.5216 16.448 26.4768 16.544 26.5664 16.592C26.4992 16.616 26.4992 16.688 26.544 16.712C26.5888 16.736 26.656 16.712 26.7232 16.688C26.6336 16.712 26.5664 16.784 26.6112 16.856C26.6336 16.904 26.7008 16.928 26.768 16.856C26.8352 16.76 26.9472 16.688 27.0368 16.688ZM22.8704 14.768C22.6912 14.696 22.6464 14.696 22.6688 14.864C22.6688 14.936 22.736 15.032 22.7808 15.08C22.7808 15.008 22.8032 14.84 22.8704 14.792V14.768Z" fill="#F9DD16"/>
<path fill-rule="evenodd" clip-rule="evenodd" d="M24.9235 14.4386C25.1549 14.3963 25.4256 14.4204 25.5842 14.4689C25.7395 14.5165 25.9175 14.5344 26.0708 14.5344C26.1473 14.5344 26.2175 14.5299 26.2754 14.5225C26.3258 14.516 26.3662 14.5074 26.3934 14.4978C26.3973 14.4963 26.4013 14.4948 26.4054 14.4932L26.4141 14.5147C26.4102 14.5163 26.406 14.518 26.4015 14.5196C26.1612 14.6124 25.9953 14.6536 25.8561 14.6656C25.7145 14.6777 25.6012 14.6594 25.4667 14.6354C25.3335 14.6116 25.1388 14.6057 24.9779 14.6324C24.8973 14.6458 24.8262 14.6673 24.7755 14.698C24.725 14.7287 24.6964 14.7675 24.6964 14.816C24.6964 14.8625 24.7349 14.9032 24.8104 14.9355C24.8851 14.9674 24.9915 14.989 25.1169 14.9994C25.3676 15.0203 25.6912 14.9965 25.9812 14.9247C26.2742 14.8523 26.5011 14.8761 26.6553 14.9495C26.8096 15.023 26.8916 15.1465 26.8916 15.272C26.8916 15.3293 26.8664 15.3901 26.8253 15.4465C26.7841 15.5029 26.7262 15.5557 26.6592 15.5969C26.5504 15.6638 26.4159 15.7013 26.2885 15.6727C26.4499 15.764 26.6404 15.7644 26.8348 15.7644L27.2365 15.7405C27.2586 15.7346 27.2785 15.73 27.2959 15.7281C27.3135 15.7261 27.3297 15.7267 27.3435 15.7322C27.3731 15.7441 27.3844 15.7753 27.3844 15.824V15.8246C27.3825 15.8603 27.3893 15.8959 27.4042 15.9279C27.4191 15.9598 27.4415 15.9869 27.4691 16.0066L27.4986 16.0276H27.3848C27.437 16.0699 27.4701 16.1136 27.4926 16.1643C27.5185 16.223 27.5299 16.2906 27.541 16.3745L27.5197 16.3821C27.4985 16.348 27.4663 16.3191 27.4338 16.2988C27.4232 16.2922 27.4128 16.2866 27.4029 16.2821C27.4487 16.3271 27.4654 16.3805 27.4765 16.4305C27.4787 16.4404 27.4807 16.4501 27.4826 16.4595C27.4869 16.4807 27.4909 16.5006 27.4969 16.5191C27.5052 16.5453 27.5169 16.5669 27.5368 16.583L27.5262 16.6031L27.3944 16.5628C27.4218 16.6427 27.367 16.7504 27.2423 16.7949L27.2268 16.8004V16.6847C27.2049 16.718 27.176 16.7473 27.1379 16.77C27.0853 16.8013 27.0159 16.8196 26.9248 16.8196V16.7964C26.9232 16.7964 26.9223 16.797 26.922 16.7972C26.9222 16.7971 26.9224 16.7968 26.9229 16.7962C26.9243 16.7941 26.9261 16.7904 26.9284 16.7849C26.9297 16.7817 26.9311 16.7778 26.9327 16.7735C26.9361 16.7644 26.9402 16.7535 26.9451 16.7431C26.9495 16.7337 26.9548 16.7239 26.9616 16.7148C26.9412 16.7225 26.9205 16.733 26.9001 16.7458C26.8538 16.775 26.8102 16.8159 26.7775 16.8626L26.777 16.8633L26.7764 16.8639C26.7411 16.9018 26.7041 16.916 26.6715 16.9125C26.6393 16.9091 26.6138 16.8885 26.6009 16.8615C26.5888 16.8418 26.584 16.8215 26.5856 16.8018C26.5872 16.782 26.5952 16.7635 26.6075 16.7471C26.6118 16.7412 26.6167 16.7357 26.6221 16.7304C26.5922 16.7356 26.563 16.7353 26.5385 16.7222C26.5116 16.7078 26.4983 16.6791 26.5016 16.6507C26.5043 16.6275 26.5179 16.6053 26.5424 16.5905C26.5283 16.5797 26.5182 16.5673 26.5118 16.5539C26.5029 16.5352 26.5014 16.5155 26.5045 16.4971C26.5107 16.4608 26.5351 16.4276 26.5609 16.4138L26.5621 16.4131L26.5634 16.4128C26.5882 16.4061 26.6112 16.4079 26.6348 16.4135C26.651 16.4173 26.6682 16.423 26.6864 16.4292C26.6941 16.4317 26.7019 16.4344 26.7099 16.437C26.7649 16.4546 26.836 16.4723 26.9459 16.4605L26.9472 16.4603C26.97 16.4603 27.0002 16.4601 27.0249 16.4442C27.0485 16.4291 27.07 16.3975 27.07 16.328C27.07 16.2473 27.0378 16.1734 26.9635 16.1279C26.8886 16.082 26.7688 16.0637 26.591 16.0994L26.5909 16.0994C26.2649 16.1596 26.0283 16.1537 25.8447 16.1204C25.6771 16.09 25.5541 16.0369 25.4489 15.9914C25.4412 15.988 25.4336 15.9848 25.4261 15.9815C25.358 16.0398 25.2898 16.0516 25.2285 16.0546C25.2143 16.0553 25.2003 16.0555 25.187 16.0557L25.1831 16.0558C25.1685 16.056 25.1546 16.0563 25.1413 16.0572C25.1146 16.059 25.0913 16.0634 25.071 16.0742C25.0237 16.0996 24.9708 16.0996 24.924 16.0996H24.9228C24.8741 16.0996 24.8335 16.1 24.8035 16.1214L24.8029 16.1219L24.8022 16.1222C24.7773 16.1356 24.7498 16.1386 24.7215 16.1378C24.7025 16.1373 24.6821 16.135 24.6616 16.1326C24.6522 16.1315 24.6427 16.1305 24.6332 16.1295C24.5725 16.1236 24.5089 16.1239 24.4452 16.1693C24.4047 16.2003 24.3679 16.2147 24.3339 16.2195C24.3 16.2243 24.2697 16.2194 24.2426 16.2133C24.2351 16.2116 24.228 16.2099 24.2212 16.2082C24.2026 16.2037 24.1861 16.1996 24.1699 16.1986C24.1488 16.1972 24.1294 16.2012 24.1096 16.217C24.0642 16.2535 24.0239 16.2783 23.9803 16.2939C23.9396 16.3084 23.8967 16.3147 23.8451 16.3155C23.845 16.336 23.8442 16.3575 23.8393 16.3814C23.8334 16.4098 23.8217 16.4411 23.7986 16.4781L23.7984 16.4784C23.6852 16.6483 23.5701 16.6996 23.4976 16.6996L23.4921 16.6778C23.5099 16.6682 23.5201 16.6485 23.5254 16.6226C23.5279 16.6106 23.5292 16.5978 23.53 16.5851C23.4808 16.6511 23.4068 16.6913 23.3367 16.7197C23.3039 16.7331 23.2715 16.744 23.2426 16.7538C23.2354 16.7562 23.2284 16.7585 23.2217 16.7608C23.1873 16.7726 23.1611 16.7826 23.1459 16.7934L23.1246 16.8086L23.1394 16.6818C23.1205 16.7013 23.095 16.7147 23.0656 16.7238C23.0033 16.7432 22.9203 16.7446 22.8363 16.7416C22.8047 16.7405 22.7731 16.7387 22.7421 16.737C22.6897 16.7341 22.6394 16.7314 22.5947 16.7318C22.5593 16.7322 22.5284 16.7346 22.504 16.7404C22.4792 16.7463 22.4628 16.7552 22.454 16.7669L22.4332 16.7949V16.76C22.4332 16.7439 22.4423 16.7277 22.4539 16.7133C22.4659 16.6986 22.482 16.6837 22.4991 16.67C22.5141 16.6579 22.5302 16.6464 22.5454 16.6363C22.4899 16.6369 22.4399 16.6159 22.3938 16.5965C22.3916 16.5956 22.3893 16.5946 22.3871 16.5937C22.3221 16.5665 22.2656 16.5451 22.2038 16.5782L22.1657 16.5987L22.1885 16.5619C22.2068 16.5324 22.2313 16.5079 22.2601 16.4902C22.2643 16.4877 22.2686 16.4853 22.2729 16.483C22.2716 16.4827 22.2704 16.4824 22.2691 16.4821C22.2445 16.4761 22.2238 16.4658 22.2041 16.4552C22.2013 16.4537 22.1986 16.4522 22.1958 16.4508C22.1594 16.431 22.1234 16.4116 22.064 16.4116C22.0276 16.4116 22.0008 16.3985 21.9869 16.3761C21.9731 16.354 21.9739 16.3256 21.9863 16.2991C22.0001 16.2695 22.0334 16.2567 22.0675 16.2506C22.0851 16.2474 22.1042 16.2459 22.123 16.2451C22.1019 16.2401 22.079 16.2389 22.0564 16.2406C22.0158 16.2435 21.9782 16.2551 21.9574 16.2662L21.9567 16.2666L21.9559 16.2669C21.9158 16.2812 21.877 16.2595 21.8581 16.2291C21.8485 16.2137 21.8434 16.1953 21.846 16.1768C21.8485 16.1581 21.8587 16.1404 21.8778 16.1267C21.9036 16.1068 21.9328 16.0927 21.9637 16.0852L21.9307 16.0763C21.9021 16.0884 21.8704 16.072 21.8551 16.0458C21.8382 16.0168 21.8397 15.9753 21.8763 15.9361L21.8771 15.9352L21.878 15.9346C21.9498 15.8833 22.0275 15.8904 22.1027 15.9276C22.1774 15.9646 22.2514 16.0319 22.3188 16.1041L22.3194 16.1047L22.3199 16.1054C22.3848 16.1981 22.4825 16.2451 22.5873 16.2687C22.6923 16.2924 22.803 16.2924 22.8928 16.2924C22.9088 16.2924 22.925 16.2926 22.9411 16.2929C22.9652 16.2932 22.9893 16.2936 23.0126 16.2932C23.0513 16.2924 23.0855 16.2894 23.1102 16.281C23.1347 16.2727 23.1472 16.2604 23.149 16.2421C23.151 16.2218 23.1406 16.1903 23.1073 16.1426L23.1065 16.1415C23.0615 16.0573 23.0218 15.9722 23.0019 15.8897C22.9819 15.8073 22.9816 15.7266 23.0164 15.6516C23.034 15.6016 23.0688 15.5539 23.1119 15.5092C23.1553 15.4643 23.2077 15.4218 23.2611 15.3826C23.3091 15.3475 23.3581 15.3148 23.4025 15.2852C23.4076 15.2818 23.4127 15.2784 23.4176 15.2751C23.4661 15.2427 23.5075 15.2147 23.5348 15.1912L23.5458 15.1818L23.5526 15.1945C23.7277 15.5228 24.0994 15.5244 24.2579 15.5244C24.4055 15.4907 24.5287 15.4938 24.6466 15.4968C24.6548 15.497 24.6629 15.4972 24.671 15.4974C24.7968 15.5004 24.9183 15.5003 25.0619 15.453L25.0621 15.4529C25.3618 15.3606 25.6762 15.3359 25.9853 15.3805C26.1299 15.3924 26.2966 15.3864 26.4268 15.3596C26.4921 15.3463 26.5473 15.3278 26.5859 15.3045C26.6246 15.281 26.6444 15.2541 26.6444 15.224C26.6444 15.1982 26.6326 15.176 26.6077 15.1571C26.5823 15.138 26.5437 15.1227 26.4913 15.1124C26.3867 15.0917 26.2314 15.0916 26.0304 15.1155C25.6719 15.1755 25.29 15.2177 24.9972 15.1875C24.8508 15.1725 24.7254 15.1392 24.6363 15.0799C24.5466 15.0202 24.494 14.9342 24.494 14.816C24.494 14.704 24.5436 14.6198 24.6223 14.5586C24.7007 14.4978 24.8077 14.4598 24.9235 14.4386ZM22.0283 16.1024L22.1058 16.1232L22.1138 16.1016C22.088 16.089 22.0603 16.0815 22.0321 16.0795L21.9281 16.0516L21.9241 16.0538C21.9089 16.0619 21.8871 16.0546 21.8752 16.0342C21.8642 16.0153 21.8627 15.9852 21.8924 15.9528C21.9548 15.9088 22.0224 15.9138 22.0924 15.9484C22.1631 15.9833 22.2345 16.0478 22.3013 16.1193C22.3708 16.2181 22.4744 16.267 22.5822 16.2913C22.6899 16.3156 22.8029 16.3156 22.8923 16.3156H22.8928C22.908 16.3156 22.9239 16.3158 22.94 16.3161C22.9646 16.3164 22.9896 16.3168 23.013 16.3163C23.052 16.3156 23.0892 16.3126 23.1177 16.303C23.1464 16.2933 23.169 16.2756 23.172 16.2444C23.1749 16.2153 23.1602 16.178 23.1267 16.1299C23.0821 16.0463 23.0436 15.9636 23.0244 15.8843C23.0052 15.8049 23.0055 15.7298 23.0377 15.6609L23.0381 15.6598C23.0541 15.614 23.0865 15.5689 23.1286 15.5253C23.1707 15.4817 23.2219 15.4402 23.2748 15.4013C23.3223 15.3665 23.371 15.3341 23.4154 15.3044C23.4205 15.3011 23.4255 15.2977 23.4305 15.2944C23.4728 15.2661 23.5109 15.2404 23.5389 15.2179C23.7241 15.5476 24.1037 15.5476 24.2582 15.5476H24.2605L24.2618 15.5473C24.407 15.5139 24.5279 15.517 24.6463 15.52C24.6544 15.5202 24.6624 15.5204 24.6705 15.5206C24.7967 15.5236 24.9215 15.5237 25.0691 15.475C25.3656 15.3837 25.6766 15.3593 25.9823 15.4035L25.983 15.4036C26.1294 15.4156 26.2986 15.4096 26.4315 15.3824C26.4979 15.3687 26.556 15.3497 26.5979 15.3243C26.6397 15.299 26.6676 15.2659 26.6676 15.224C26.6676 15.1898 26.6513 15.161 26.6216 15.1386C26.5924 15.1165 26.5498 15.1003 26.4958 15.0896C26.3876 15.0683 26.2294 15.0684 26.0274 15.0925L26.0268 15.0926C25.6686 15.1525 25.2891 15.1943 24.9995 15.1645C24.8547 15.1495 24.7337 15.1168 24.6492 15.0606C24.5654 15.0048 24.5172 14.9258 24.5172 14.816C24.5172 14.712 24.5627 14.6342 24.6366 14.5769C24.7108 14.5192 24.8138 14.4822 24.9276 14.4614C25.1554 14.4197 25.4223 14.4436 25.5774 14.4911C25.7356 14.5395 25.916 14.5576 26.0708 14.5576C26.1386 14.5576 26.2016 14.5541 26.2559 14.5482C26.0884 14.6056 25.9626 14.6332 25.8542 14.6424C25.7158 14.6543 25.6051 14.6366 25.4708 14.6126C25.3352 14.5884 25.1379 14.5823 24.9741 14.6096C24.8922 14.6232 24.8178 14.6452 24.7634 14.6782C24.709 14.7113 24.6732 14.7565 24.6732 14.816C24.6732 14.8775 24.7242 14.9238 24.8013 14.9568C24.8792 14.9901 24.9884 15.012 25.115 15.0226C25.3683 15.0437 25.6944 15.0195 25.9867 14.9473C26.2761 14.8757 26.4972 14.8999 26.6454 14.9705C26.7935 15.041 26.8684 15.1575 26.8684 15.272C26.8684 15.3227 26.8459 15.3789 26.8065 15.4328C26.7673 15.4866 26.7117 15.5373 26.6471 15.5771C26.5175 15.6569 26.3539 15.6912 26.2131 15.6216L26.2007 15.641C26.3831 15.7876 26.6107 15.7876 26.8333 15.7876H26.8352L27.2402 15.7635L27.2414 15.7632C27.2636 15.7572 27.2826 15.7529 27.2984 15.7511C27.3144 15.7494 27.3262 15.7503 27.3348 15.7538C27.35 15.7598 27.3611 15.7766 27.3612 15.8237C27.3591 15.8631 27.3667 15.9023 27.3832 15.9377C27.395 15.9629 27.411 15.9855 27.4304 16.0044H27.3142L27.3436 16.0254C27.4094 16.0724 27.4471 16.1189 27.4714 16.1737C27.4914 16.219 27.5024 16.2704 27.5119 16.3338C27.4921 16.312 27.469 16.2935 27.4461 16.2792C27.4117 16.2577 27.3759 16.2444 27.3504 16.2444H27.3092L27.3443 16.2659C27.4187 16.3114 27.4401 16.3736 27.4538 16.4355C27.4558 16.4445 27.4577 16.4536 27.4595 16.4627C27.464 16.4846 27.4684 16.5064 27.4748 16.5262C27.4796 16.5412 27.4857 16.5557 27.494 16.569L27.3466 16.5239L27.3629 16.5501C27.4007 16.6108 27.3679 16.7173 27.25 16.7671V16.64L27.2279 16.6351C27.2063 16.6813 27.1741 16.7214 27.126 16.75C27.0824 16.776 27.0248 16.793 26.9489 16.7959C26.9492 16.7952 26.9495 16.7944 26.9499 16.7936C26.9516 16.7893 26.9532 16.7849 26.955 16.7803C26.9582 16.7717 26.9616 16.7625 26.9661 16.7529C26.9794 16.7242 26.9989 16.6996 27.0368 16.6996V16.6764C26.9891 16.6764 26.9365 16.6955 26.8878 16.7262C26.8391 16.7569 26.7934 16.7997 26.7589 16.8487C26.7273 16.8823 26.6973 16.892 26.674 16.8895C26.6504 16.8869 26.6313 16.8718 26.6217 16.8511L26.621 16.8499C26.611 16.8338 26.6075 16.8183 26.6087 16.8037C26.6099 16.789 26.6159 16.7745 26.626 16.7609C26.6409 16.7411 26.6643 16.7236 26.6924 16.7111C26.7038 16.7072 26.7152 16.7031 26.7265 16.6991L26.7271 16.6989L26.7202 16.6768C26.7077 16.6801 26.6956 16.6844 26.6841 16.6894C26.6628 16.6966 26.6422 16.7029 26.6229 16.7066C26.593 16.7124 26.5683 16.7119 26.5494 16.7018C26.5315 16.6922 26.5224 16.6729 26.5247 16.6533C26.5269 16.6341 26.5404 16.6136 26.5703 16.6029L26.5949 16.5941L26.5718 16.5818C26.5513 16.5708 26.5392 16.5575 26.5327 16.5439C26.5262 16.5303 26.5249 16.5155 26.5274 16.5009C26.5323 16.4718 26.552 16.4455 26.5707 16.4349C26.5902 16.4299 26.6087 16.4312 26.6295 16.436C26.6446 16.4396 26.6601 16.4448 26.6778 16.4508C26.6857 16.4534 26.694 16.4562 26.7028 16.459C26.7598 16.4773 26.8341 16.4957 26.9478 16.4836H26.948C26.9701 16.4836 27.0066 16.4836 27.0374 16.4638C27.0698 16.4429 27.0932 16.4025 27.0932 16.328C27.0932 16.2407 27.0581 16.1586 26.9756 16.1081C26.8937 16.058 26.7671 16.0404 26.5866 16.0766C26.263 16.1364 26.0292 16.1303 25.8488 16.0976C25.6839 16.0677 25.5632 16.0155 25.458 15.97C25.448 15.9657 25.4382 15.9615 25.4285 15.9573L25.4217 15.9544L25.4162 15.9594C25.3518 16.0169 25.2876 16.0285 25.2274 16.0314C25.2135 16.0321 25.2 16.0323 25.1866 16.0325L25.1827 16.0326C25.1681 16.0328 25.1537 16.0331 25.1397 16.0341C25.1117 16.036 25.0846 16.0406 25.0601 16.0538C25.0183 16.0762 24.9709 16.0764 24.9228 16.0764L24.9206 16.0764C24.875 16.0764 24.8272 16.0764 24.7907 16.1021C24.771 16.1125 24.7483 16.1154 24.7222 16.1147C24.7041 16.1142 24.6855 16.112 24.6655 16.1097C24.6559 16.1086 24.6459 16.1075 24.6355 16.1065C24.573 16.1004 24.5023 16.1001 24.4316 16.1506L24.4313 16.1508C24.3935 16.1797 24.3603 16.1923 24.3307 16.1965C24.3009 16.2007 24.2738 16.1966 24.2477 16.1907C24.2413 16.1893 24.2349 16.1877 24.2285 16.1861C24.2092 16.1814 24.1898 16.1766 24.1713 16.1754C24.1456 16.1738 24.1202 16.1788 24.0951 16.199C24.0509 16.2345 24.0128 16.2577 23.9725 16.2721C23.9321 16.2865 23.8887 16.2924 23.8336 16.2924H23.822V16.304C23.822 16.3281 23.8219 16.351 23.8166 16.3766C23.8113 16.4021 23.8007 16.4308 23.779 16.4657C23.6859 16.6053 23.5942 16.6591 23.5305 16.6727C23.5394 16.6592 23.5448 16.6433 23.5481 16.6274C23.554 16.5992 23.554 16.5682 23.554 16.5445V16.544L23.5321 16.5385C23.4893 16.6188 23.4085 16.6655 23.328 16.6983C23.2959 16.7113 23.2643 16.722 23.2355 16.7317C23.2282 16.7341 23.2211 16.7365 23.2142 16.7389C23.1913 16.7467 23.1703 16.7543 23.1533 16.7625L23.1691 16.6278C23.1718 16.6168 23.1732 16.6049 23.1732 16.592L23.15 16.5907L23.1462 16.6236C23.1422 16.639 23.1352 16.6518 23.1257 16.6624C23.1103 16.6799 23.0876 16.6927 23.0587 16.7017C23.0006 16.7198 22.9212 16.7214 22.8372 16.7184C22.8066 16.7173 22.7754 16.7156 22.7446 16.7139C22.6916 16.711 22.6397 16.7082 22.5944 16.7087C22.5584 16.709 22.5256 16.7115 22.4986 16.7179C22.4899 16.7199 22.4816 16.7225 22.4739 16.7255C22.4842 16.7133 22.4981 16.7005 22.5136 16.688C22.5465 16.6616 22.5851 16.638 22.607 16.6262L22.5982 16.6049C22.5262 16.6269 22.4643 16.6009 22.4008 16.5743C22.3992 16.5736 22.3976 16.573 22.396 16.5723C22.3439 16.5505 22.29 16.5287 22.2324 16.5426C22.2442 16.5299 22.2576 16.519 22.2722 16.51C22.2906 16.4988 22.3105 16.491 22.3311 16.4868C22.3394 16.4861 22.3481 16.485 22.3572 16.4834L22.3545 16.4604C22.3456 16.4609 22.3367 16.4621 22.328 16.4638C22.3074 16.4652 22.2901 16.4634 22.2746 16.4596C22.253 16.4544 22.2345 16.4452 22.215 16.4348C22.2122 16.4333 22.2094 16.4318 22.2066 16.4302C22.1699 16.4104 22.1294 16.3884 22.064 16.3884C22.0331 16.3884 22.0151 16.3775 22.0066 16.3639C21.998 16.35 21.9973 16.3304 22.0073 16.3089C22.0159 16.2905 22.0385 16.2793 22.0716 16.2734C22.104 16.2676 22.1421 16.2676 22.176 16.2676H22.2121L22.1827 16.2466C22.146 16.2203 22.098 16.2143 22.0547 16.2174C22.0118 16.2205 21.9714 16.2326 21.9473 16.2453C21.9204 16.2545 21.8924 16.2403 21.8778 16.2169C21.8706 16.2053 21.8673 16.1922 21.8689 16.1799C21.8706 16.168 21.8771 16.1557 21.8915 16.1454L21.8919 16.1452C21.9222 16.1216 21.9578 16.1072 21.995 16.1032C22.0061 16.102 22.0172 16.1018 22.0283 16.1024ZM26.9219 16.7973C26.9219 16.7973 26.922 16.7972 26.922 16.7972L26.9219 16.7973ZM22.763 14.7178C22.7929 14.7255 22.8299 14.7392 22.8747 14.7572L22.882 14.7602V14.798L22.8771 14.8014C22.8625 14.8119 22.8496 14.8294 22.8384 14.8522C22.8274 14.8749 22.8185 14.9018 22.8116 14.9298C22.7978 14.9858 22.7924 15.0449 22.7924 15.08V15.1094L22.7723 15.0879C22.7493 15.0633 22.7208 15.0266 22.6979 14.9868C22.6754 14.9475 22.6574 14.9037 22.6572 14.8648C22.6516 14.823 22.65 14.7902 22.6542 14.766C22.6584 14.7412 22.6692 14.7232 22.6897 14.7152C22.7088 14.7078 22.7336 14.7102 22.763 14.7178ZM22.677 14.77C22.6735 14.7906 22.6747 14.8206 22.6802 14.8625L22.6804 14.8632V14.864C22.6804 14.8969 22.6959 14.9367 22.718 14.9752C22.7339 15.0029 22.7527 15.029 22.7702 15.0503C22.7723 15.0145 22.7782 14.9685 22.7891 14.9242C22.7962 14.8952 22.8056 14.8666 22.8176 14.842C22.8285 14.8197 22.842 14.7999 22.8588 14.7863V14.7758C22.8174 14.7593 22.7839 14.7471 22.7572 14.7402C22.7285 14.7328 22.7099 14.7322 22.6982 14.7368C22.6879 14.7408 22.6805 14.7498 22.677 14.77Z" fill="black"/>
<path d="M23.4751 14.792C23.6543 14.696 23.7215 14.696 23.6767 14.864C23.6767 14.936 23.6095 15.032 23.5647 15.08C23.5647 15.008 23.5647 14.84 23.4751 14.792Z" fill="#F9DD16"/>
<path fill-rule="evenodd" clip-rule="evenodd" d="M23.4979 14.7931C23.5359 14.823 23.555 14.8743 23.5649 14.9248C23.5735 14.9687 23.5756 15.0142 23.5761 15.0493C23.5934 15.0282 23.6118 15.0025 23.6275 14.9753C23.6496 14.9368 23.6651 14.8969 23.6651 14.864V14.8625L23.6655 14.861C23.6766 14.8194 23.6803 14.7897 23.6778 14.7699C23.6766 14.7601 23.6739 14.7535 23.6706 14.7491C23.6674 14.7448 23.663 14.7419 23.6569 14.7402C23.6437 14.7367 23.6229 14.7393 23.5924 14.7501C23.5664 14.7593 23.5349 14.7738 23.4979 14.7931ZM23.6883 14.8656C23.6993 14.8239 23.7039 14.7911 23.7008 14.7669C23.6992 14.7546 23.6956 14.7437 23.6891 14.7351C23.6825 14.7264 23.6736 14.7207 23.6629 14.7178C23.6425 14.7124 23.6158 14.7172 23.5847 14.7282C23.553 14.7394 23.5146 14.7577 23.4696 14.7818L23.4506 14.792L23.4696 14.8022C23.5095 14.8236 23.531 14.8728 23.5421 14.9293C23.5531 14.985 23.5531 15.0439 23.5531 15.08V15.1094L23.5732 15.0879C23.5961 15.0634 23.6247 15.0266 23.6476 14.9868C23.67 14.9478 23.6878 14.9043 23.6883 14.8656Z" fill="black"/>
<path d="M23.184 14.672C23.5424 14.672 23.5872 14.864 23.5648 15.08C23.5648 15.32 23.4528 15.224 23.3856 15.56C23.3632 15.656 23.2736 15.68 23.1616 15.68C23.0944 15.68 23.0048 15.68 22.96 15.536C22.8928 15.224 22.7808 15.296 22.7808 15.056C22.7808 14.864 22.8256 14.672 23.184 14.672Z" fill="#F9DD16"/>
<path fill-rule="evenodd" clip-rule="evenodd" d="M22.8571 14.7991C22.8037 14.8678 22.7924 14.9604 22.7924 15.056C22.7924 15.1151 22.7993 15.1542 22.8102 15.1844C22.8212 15.2147 22.8364 15.2368 22.8546 15.2623C22.8555 15.2635 22.8564 15.2648 22.8573 15.266C22.8748 15.2905 22.8946 15.3182 22.914 15.358C22.9344 15.3998 22.9542 15.4546 22.9712 15.533C22.9929 15.6024 23.0247 15.6354 23.0575 15.6516C23.0911 15.6682 23.1276 15.6684 23.1616 15.6684C23.217 15.6684 23.2654 15.6624 23.3023 15.6455C23.3385 15.6289 23.3639 15.6017 23.3742 15.5575C23.3912 15.4729 23.411 15.415 23.4314 15.372C23.4519 15.3289 23.4728 15.3011 23.4911 15.277L23.4916 15.2763C23.5097 15.2525 23.5246 15.2328 23.5354 15.2048C23.5463 15.1766 23.5532 15.1391 23.5532 15.08V15.0788L23.5532 15.0788C23.5644 14.9713 23.5583 14.873 23.5077 14.8017C23.4576 14.7311 23.3613 14.6836 23.184 14.6836C23.0067 14.6836 22.9101 14.731 22.8571 14.7991ZM22.8388 14.7849C22.8978 14.709 23.0028 14.6604 23.184 14.6604C23.365 14.6604 23.4703 14.7089 23.5266 14.7883C23.5823 14.8668 23.5875 14.9723 23.5764 15.0806C23.5763 15.1411 23.5692 15.1815 23.557 15.2132C23.5451 15.2442 23.5284 15.2662 23.5107 15.2895L23.5096 15.291C23.4915 15.3149 23.4718 15.3411 23.4524 15.382C23.4329 15.4229 23.4136 15.479 23.3969 15.5623L23.3969 15.5626L23.3968 15.5626C23.3848 15.6144 23.3542 15.6472 23.312 15.6665C23.2705 15.6856 23.2181 15.6916 23.1616 15.6916H23.1607C23.1276 15.6916 23.0861 15.6916 23.0472 15.6724C23.0073 15.6527 22.972 15.6137 22.9489 15.5394L22.9486 15.5384L22.9486 15.5384C22.932 15.4612 22.9127 15.4081 22.8932 15.3682C22.8746 15.3302 22.8558 15.3038 22.8383 15.2793C22.8374 15.2781 22.8366 15.2769 22.8357 15.2757C22.8175 15.2502 22.8005 15.2258 22.7884 15.1923C22.7763 15.1588 22.7692 15.1169 22.7692 15.056C22.7692 14.9596 22.7803 14.8602 22.8388 14.7849Z" fill="black"/>
<path d="M22.2655 15.56C22.1759 15.512 22.1087 15.56 22.0639 15.56C22.1983 15.584 22.1983 15.752 22.4671 15.8C22.3999 15.8 22.3775 15.848 22.3103 15.8C22.4223 15.896 22.5343 16.016 22.8031 16.016C22.9599 16.016 22.8479 16.088 22.7583 16.04C22.8479 16.16 23.0495 16.064 23.1839 16.28C23.1839 16.112 22.9599 15.872 23.0719 15.704C22.6911 15.68 22.6687 15.464 22.4671 15.296C22.2879 15.152 22.2655 15.008 22.1983 14.744C22.1759 14.624 22.0415 14.552 21.9743 14.576C21.9071 14.576 21.8623 14.648 21.9295 14.696C21.9743 14.744 22.0639 14.744 22.0639 14.864C21.9967 14.768 21.8847 14.744 21.8399 14.792C21.8175 14.84 21.8399 14.912 21.8847 14.912C21.9967 14.912 21.9295 15.056 22.0415 15.152C21.9295 15.032 21.8399 15.008 21.7727 15.08C21.7503 15.128 21.7727 15.2 21.8623 15.2C21.9743 15.2 22.0863 15.488 22.2655 15.56ZM25.1775 16.664C25.1327 16.664 25.1551 16.784 25.0655 16.784C25.2447 16.784 25.3567 16.736 25.4239 16.664L25.3791 16.784C25.4687 16.712 25.7151 16.688 25.8271 16.712C25.9391 16.736 25.9615 16.688 26.0063 16.616C26.0511 16.52 26.0063 16.472 25.9391 16.424C25.8719 16.352 25.8495 16.256 25.8719 16.112C25.5583 15.632 24.9759 15.872 24.9759 16.064C25.1775 16.328 25.1999 16.304 25.3791 16.328C25.5359 16.376 25.6479 16.376 25.5359 16.472C25.4911 16.52 25.3119 16.472 25.1999 16.496C24.9087 16.496 24.7519 16.28 24.6847 16.4C24.6175 16.496 24.6847 16.544 24.8191 16.544C24.7295 16.544 24.5951 16.544 24.6175 16.64C24.6623 16.808 24.7967 16.616 24.8639 16.664C24.8191 16.664 24.7295 16.688 24.7295 16.736C24.7295 16.784 24.8415 16.856 24.9535 16.736C25.0186 16.6859 25.0974 16.6605 25.1775 16.664Z" fill="#F9DD16"/>
<path fill-rule="evenodd" clip-rule="evenodd" d="M22.2096 14.7415C22.2154 14.7641 22.2208 14.7857 22.226 14.8066C22.2819 15.0301 22.3138 15.1579 22.4744 15.287L22.4745 15.2871C22.5258 15.3298 22.5655 15.3755 22.6021 15.4199C22.6091 15.4285 22.6161 15.437 22.6229 15.4454C22.6517 15.4808 22.6793 15.5147 22.7105 15.5458C22.7869 15.6218 22.885 15.6806 23.0727 15.6924L23.0927 15.6937L23.0816 15.7104C23.0293 15.7888 23.0545 15.8852 23.0966 15.9876C23.1061 16.0105 23.1162 16.0333 23.1263 16.0562C23.1274 16.0586 23.1285 16.0611 23.1296 16.0635C23.1407 16.0887 23.1517 16.1139 23.1615 16.1385C23.1808 16.1875 23.1955 16.2357 23.1955 16.28V16.3206L23.1741 16.2861C23.1092 16.1818 23.0286 16.153 22.9517 16.1353C22.9403 16.1327 22.9287 16.1303 22.9172 16.1279C22.8904 16.1223 22.864 16.1168 22.84 16.1087C22.8051 16.097 22.7733 16.0795 22.749 16.0469L22.7638 16.0298C22.7843 16.0408 22.8061 16.0449 22.8252 16.0449C22.8446 16.0449 22.8597 16.0406 22.8671 16.0361C22.8673 16.036 22.8675 16.0359 22.8676 16.0358C22.8641 16.034 22.8579 16.032 22.8481 16.0305C22.8371 16.0287 22.8223 16.0276 22.8031 16.0276C22.6668 16.0276 22.5697 15.9971 22.4923 15.9541C22.4284 15.9187 22.3781 15.8746 22.3312 15.8335C22.3216 15.8251 22.3122 15.8169 22.3028 15.8088L22.3171 15.7906C22.3329 15.8019 22.3453 15.807 22.3558 15.8088C22.3661 15.8107 22.3755 15.8095 22.3857 15.8068C22.3907 15.8055 22.3962 15.8036 22.4021 15.8016C22.4046 15.8007 22.4071 15.7999 22.4098 15.799C22.3082 15.771 22.2511 15.7239 22.2069 15.6792C22.1977 15.6699 22.1894 15.661 22.1814 15.6525C22.1665 15.6367 22.153 15.6223 22.1383 15.6097C22.1163 15.5907 22.0929 15.577 22.0619 15.5714L22.0639 15.5484C22.0734 15.5484 22.0846 15.5458 22.0987 15.5421C22.1009 15.5415 22.1032 15.5408 22.1056 15.5402C22.1176 15.5369 22.1313 15.5332 22.1459 15.5306C22.1585 15.5283 22.172 15.5269 22.1863 15.5271C22.1682 15.5134 22.151 15.498 22.1345 15.4816C22.0965 15.4439 22.0618 15.4007 22.0296 15.3602C22.0284 15.3586 22.0271 15.357 22.0258 15.3554C21.9949 15.3165 21.9666 15.2808 21.9393 15.2545C21.9106 15.2267 21.8855 15.2116 21.8623 15.2116C21.8141 15.2116 21.7819 15.192 21.7655 15.1638C21.7494 15.1363 21.7496 15.1022 21.7622 15.0751L21.763 15.0734L21.7642 15.0721C21.7822 15.0529 21.802 15.0396 21.8239 15.0329C21.8459 15.0262 21.8691 15.0263 21.8933 15.0328C21.9187 15.0396 21.9452 15.0534 21.9729 15.0738C21.9637 15.0504 21.9585 15.0274 21.9538 15.007C21.9531 15.0041 21.9525 15.0014 21.9518 14.9986C21.9461 14.9742 21.9409 14.9557 21.9314 14.9429C21.9228 14.9314 21.9098 14.9236 21.8847 14.9236C21.8551 14.9236 21.8353 14.8999 21.8262 14.8738C21.8169 14.8474 21.8168 14.8142 21.8294 14.7871L21.8302 14.7854L21.8314 14.7841C21.858 14.7557 21.9025 14.7502 21.9467 14.7629C21.9816 14.7728 22.0178 14.7943 22.0487 14.827C22.0464 14.8162 22.043 14.8071 22.0389 14.7992C22.0308 14.7835 22.0196 14.772 22.0066 14.7623C21.996 14.7544 21.9848 14.7479 21.973 14.7411C21.9699 14.7393 21.9667 14.7375 21.9636 14.7356C21.9491 14.7271 21.9341 14.7176 21.9218 14.7048C21.904 14.6918 21.8927 14.6766 21.8877 14.6604C21.8825 14.644 21.8843 14.6275 21.891 14.6131C21.9041 14.585 21.9356 14.5651 21.9723 14.5644C21.9915 14.5581 22.0142 14.5586 22.0372 14.564C22.0611 14.5696 22.0861 14.5807 22.1096 14.5964C22.1562 14.6276 22.1977 14.6779 22.2096 14.7415ZM22.0079 15.1343C22.0154 15.1434 22.024 15.1523 22.034 15.1608L22.05 15.1441C22.0416 15.135 22.0332 15.1265 22.025 15.1185C21.9947 15.0811 21.985 15.0391 21.9762 15.001C21.9756 14.9984 21.975 14.9959 21.9744 14.9934C21.9689 14.9698 21.9629 14.9463 21.95 14.9291C21.9362 14.9106 21.9157 14.9004 21.8847 14.9004C21.8695 14.9004 21.8557 14.8881 21.8481 14.8662C21.8407 14.8452 21.8407 14.8193 21.8497 14.7986C21.8682 14.7801 21.9015 14.774 21.9403 14.7852C21.9796 14.7964 22.0223 14.8247 22.0544 14.8707L22.0755 14.9008V14.864C22.0755 14.8325 22.0696 14.8081 22.0595 14.7886C22.0494 14.769 22.0355 14.755 22.0205 14.7437C22.0087 14.7349 21.9959 14.7275 21.9839 14.7206C21.981 14.7189 21.9781 14.7173 21.9753 14.7156C21.9607 14.7071 21.948 14.6988 21.938 14.6881L21.9372 14.6872L21.9363 14.6866C21.9211 14.6757 21.9131 14.6642 21.9098 14.6536C21.9065 14.643 21.9076 14.6325 21.912 14.6229C21.9211 14.6035 21.9447 14.5876 21.9743 14.5876H21.9763L21.9782 14.5869C21.9923 14.5819 22.0109 14.5816 22.0319 14.5865C22.0528 14.5914 22.0753 14.6013 22.0967 14.6156C22.1395 14.6443 22.1764 14.6899 22.1869 14.7461L22.1871 14.7469C22.1929 14.7698 22.1984 14.7918 22.2037 14.8131C22.2592 15.0356 22.293 15.1709 22.4598 15.305C22.5093 15.3462 22.5479 15.3906 22.5842 15.4346C22.591 15.443 22.5978 15.4513 22.6046 15.4597C22.6335 15.4951 22.662 15.5302 22.6941 15.5622C22.7719 15.6396 22.8712 15.6993 23.0523 15.7142C23.0063 15.8003 23.0359 15.901 23.0752 15.9964C23.0847 16.0196 23.095 16.0428 23.1051 16.0656C23.1062 16.068 23.1073 16.0705 23.1084 16.0729C23.1195 16.0981 23.1304 16.1229 23.1399 16.147C23.1524 16.1786 23.1624 16.2087 23.1678 16.2368C23.1032 16.1548 23.0272 16.1288 22.9569 16.1127C22.9443 16.1098 22.9321 16.1073 22.9203 16.1048C22.8943 16.0994 22.87 16.0943 22.8474 16.0868C22.8316 16.0815 22.817 16.075 22.8038 16.0666C22.8112 16.0676 22.8183 16.0681 22.8252 16.0681C22.8471 16.0681 22.8669 16.0634 22.8792 16.0559C22.8849 16.0524 22.8917 16.0466 22.893 16.0379C22.8944 16.0277 22.8875 16.0205 22.8808 16.0165C22.8739 16.0124 22.8641 16.0095 22.8517 16.0076C22.8392 16.0056 22.8231 16.0044 22.8031 16.0044C22.6706 16.0044 22.5774 15.9749 22.5036 15.9339C22.4502 15.9042 22.4069 15.8686 22.3658 15.8329C22.375 15.8329 22.3835 15.8314 22.3917 15.8292C22.3991 15.8272 22.406 15.8249 22.4127 15.8226C22.429 15.817 22.4448 15.8116 22.4671 15.8116L22.4692 15.7886C22.3377 15.7651 22.2725 15.7126 22.2234 15.6629C22.2152 15.6546 22.2073 15.6462 22.1995 15.6379C22.184 15.6215 22.169 15.6055 22.1534 15.5921C22.1402 15.5807 22.1261 15.5708 22.1102 15.563C22.1108 15.5628 22.1113 15.5627 22.1119 15.5625C22.124 15.5592 22.1365 15.5558 22.15 15.5534C22.1761 15.5487 22.2055 15.5479 22.2384 15.5604C22.2459 15.5642 22.2535 15.5677 22.2612 15.5708L22.2655 15.56L22.271 15.5498C22.2631 15.5456 22.2554 15.5421 22.2479 15.5392C22.2135 15.5214 22.1813 15.4954 22.1508 15.4651C22.1139 15.4286 22.08 15.3863 22.0478 15.3458C22.0463 15.344 22.0449 15.3421 22.0435 15.3403C22.013 15.302 21.9838 15.2653 21.9554 15.2378C21.926 15.2093 21.8952 15.1884 21.8623 15.1884C21.8209 15.1884 21.7971 15.172 21.7855 15.1522C21.7739 15.1323 21.7735 15.1071 21.7825 15.0866C21.7978 15.0705 21.8139 15.0602 21.8307 15.0551C21.848 15.0498 21.8667 15.0497 21.8873 15.0552C21.9226 15.0646 21.9628 15.0905 22.0079 15.1343ZM25.3048 15.8245C25.4935 15.8 25.7221 15.8615 25.8816 16.1057L25.8841 16.1094L25.8834 16.1138C25.8614 16.2552 25.8835 16.3469 25.9468 16.4153C25.9801 16.4391 26.01 16.4644 26.0252 16.4971C26.0411 16.531 26.0403 16.5707 26.0168 16.6209L26.0162 16.6222C26.0139 16.6259 26.0115 16.6296 26.0093 16.6333C26.0009 16.6469 25.9928 16.6599 25.9846 16.6715C25.9741 16.6862 25.9627 16.6994 25.9487 16.7094C25.9198 16.7301 25.8824 16.7357 25.8247 16.7233C25.7705 16.7117 25.6824 16.7116 25.5963 16.7235C25.5534 16.7294 25.5114 16.7383 25.4747 16.75C25.4379 16.7618 25.4072 16.7763 25.3864 16.793L25.3535 16.8195L25.3962 16.705C25.3247 16.761 25.2185 16.7956 25.0655 16.7956V16.7724C25.085 16.7724 25.0974 16.7661 25.1063 16.7571C25.1157 16.7476 25.122 16.7346 25.1275 16.72C25.1293 16.715 25.131 16.7101 25.1327 16.7052C25.1335 16.7028 25.1343 16.7005 25.1351 16.6982C25.1375 16.6911 25.1402 16.6839 25.1433 16.6776C25.1436 16.677 25.1439 16.6764 25.1443 16.6758C25.0787 16.6796 25.0152 16.7033 24.9613 16.7446C24.9033 16.8065 24.8436 16.8203 24.7971 16.8103C24.7741 16.8054 24.7546 16.7947 24.7408 16.7815C24.7272 16.7686 24.7179 16.7523 24.7179 16.736C24.7179 16.7277 24.72 16.72 24.7235 16.7132C24.7033 16.7208 24.6819 16.7253 24.6619 16.7189C24.6364 16.7108 24.6179 16.6865 24.6063 16.643L24.6062 16.6426C24.6 16.6159 24.6044 16.594 24.6179 16.5772C24.631 16.561 24.6511 16.5511 24.6731 16.5449C24.6828 16.5421 24.6932 16.5399 24.704 16.5383C24.6898 16.5326 24.6777 16.5254 24.6683 16.5164C24.6533 16.5021 24.6456 16.4838 24.6469 16.4623C24.6481 16.4415 24.6576 16.4186 24.6749 16.3938C24.6841 16.3776 24.6953 16.3661 24.7091 16.3593C24.7229 16.3524 24.7381 16.351 24.754 16.3529C24.7849 16.3565 24.8218 16.3733 24.8632 16.3925C24.8654 16.3935 24.8676 16.3946 24.8699 16.3956C24.9529 16.4342 25.0603 16.4841 25.1987 16.4844C25.2489 16.4739 25.3115 16.4772 25.3684 16.4802C25.3769 16.4806 25.3854 16.481 25.3937 16.4814C25.4259 16.4829 25.4552 16.4836 25.4791 16.4811C25.5035 16.4785 25.5193 16.4728 25.5274 16.4641L25.5283 16.4631C25.542 16.4514 25.552 16.4415 25.5587 16.433C25.5655 16.4245 25.5684 16.4181 25.5693 16.4135C25.5701 16.4095 25.5694 16.4065 25.5674 16.4035C25.565 16.4001 25.5605 16.3963 25.5528 16.3922C25.5374 16.384 25.5136 16.3768 25.4825 16.3685C25.4752 16.3665 25.4675 16.3645 25.4596 16.3624C25.4345 16.3558 25.4063 16.3484 25.3766 16.3394C25.3598 16.3371 25.3441 16.3353 25.3295 16.3336C25.2686 16.3265 25.225 16.3214 25.1802 16.2961C25.1246 16.2648 25.0673 16.2028 24.9667 16.071L24.9643 16.0679V16.064C24.9643 16.0103 25.0046 15.9563 25.0651 15.9135C25.1263 15.8704 25.2107 15.8367 25.3048 15.8245ZM24.8191 16.5324V16.5556C24.7738 16.5556 24.7196 16.5557 24.6795 16.5672C24.6595 16.5729 24.6447 16.581 24.636 16.5918C24.6278 16.6019 24.6239 16.6161 24.6288 16.6372C24.6396 16.6776 24.6547 16.6923 24.669 16.6968C24.6845 16.7018 24.7039 16.6969 24.7276 16.6864C24.7373 16.6821 24.747 16.6773 24.757 16.6723C24.759 16.6713 24.761 16.6702 24.7631 16.6692C24.775 16.6633 24.7873 16.6573 24.7993 16.6528C24.8226 16.6439 24.8488 16.6389 24.8707 16.6546L24.9001 16.6756H24.8639C24.8431 16.6756 24.811 16.6813 24.7845 16.6927C24.7712 16.6983 24.7601 16.7051 24.7524 16.7127C24.7448 16.7203 24.7411 16.728 24.7411 16.736C24.7411 16.7437 24.7459 16.7544 24.7568 16.7647C24.7674 16.7748 24.783 16.7836 24.802 16.7877C24.8393 16.7957 24.8913 16.7856 24.945 16.7281L24.9457 16.7274L24.9464 16.7268C25.0136 16.675 25.0951 16.6488 25.178 16.6524L25.1775 16.664V16.6756C25.1731 16.6756 25.1691 16.6779 25.1641 16.6879C25.1617 16.6928 25.1594 16.6988 25.157 16.7058C25.1563 16.7079 25.1555 16.71 25.1547 16.7123C25.153 16.7173 25.1512 16.7228 25.1492 16.7281C25.1439 16.7423 25.1369 16.7579 25.1255 16.7705C25.2678 16.7609 25.3588 16.7168 25.4154 16.6561L25.4348 16.6681L25.4023 16.755C25.4215 16.7446 25.4437 16.7356 25.4676 16.728C25.5059 16.7157 25.5492 16.7066 25.5931 16.7005C25.6806 16.6884 25.7717 16.6883 25.8296 16.7007C25.8839 16.7123 25.9137 16.7059 25.9352 16.6906C25.9463 16.6826 25.9559 16.6718 25.9657 16.658C25.9735 16.6472 25.9809 16.635 25.9893 16.6215C25.9915 16.6179 25.9938 16.6143 25.9961 16.6105C26.0172 16.565 26.0163 16.5329 26.0042 16.5069C25.9916 16.4799 25.9659 16.4574 25.9324 16.4334L25.9314 16.4328L25.9306 16.4319C25.8609 16.3571 25.8382 16.2583 25.8598 16.1147C25.7058 15.8819 25.4878 15.8241 25.3078 15.8475C25.2171 15.8593 25.1363 15.8917 25.0785 15.9325C25.0218 15.9725 24.9895 16.0188 24.9876 16.0602C25.087 16.1902 25.1412 16.2475 25.1916 16.2759C25.232 16.2987 25.27 16.3032 25.3301 16.3103C25.3454 16.3121 25.3621 16.314 25.3807 16.3165L25.3816 16.3166L25.3825 16.3169C25.412 16.326 25.4399 16.3333 25.4651 16.3399C25.4732 16.342 25.481 16.344 25.4885 16.3461C25.5191 16.3542 25.5456 16.362 25.5638 16.3718C25.573 16.3767 25.5811 16.3826 25.5864 16.3903C25.592 16.3984 25.5941 16.4078 25.5921 16.418C25.5902 16.4277 25.5848 16.4374 25.5769 16.4474C25.569 16.4574 25.558 16.4683 25.5439 16.4804C25.5296 16.4953 25.5065 16.5015 25.4815 16.5042C25.4557 16.5069 25.4248 16.5061 25.3926 16.5046C25.3841 16.5042 25.3755 16.5037 25.3668 16.5033C25.3091 16.5003 25.2494 16.4973 25.2024 16.5073L25.2012 16.5076H25.1999C25.0558 16.5076 24.9439 16.4556 24.8608 16.4169C24.8583 16.4158 24.8559 16.4147 24.8534 16.4135C24.8109 16.3937 24.7777 16.379 24.7513 16.3759C24.7384 16.3744 24.7281 16.3758 24.7193 16.3801C24.7106 16.3844 24.7024 16.3922 24.6948 16.4057L24.6943 16.4067C24.6781 16.4297 24.6709 16.4486 24.67 16.4637C24.6692 16.4782 24.6741 16.4899 24.6843 16.4996C24.6949 16.5097 24.7117 16.518 24.7348 16.5238C24.7577 16.5295 24.7861 16.5324 24.8191 16.5324Z" fill="black"/>
<path fill-rule="evenodd" clip-rule="evenodd" d="M23.3869 14.9633C23.4017 14.9684 23.4156 14.9724 23.4304 14.9724L23.4343 14.9949L23.3697 15.018C23.3522 15.036 23.335 15.0447 23.3182 15.0465C23.3009 15.0484 23.2858 15.0427 23.2737 15.0362C23.2676 15.0329 23.262 15.0293 23.2571 15.0261C23.2568 15.0259 23.2565 15.0257 23.2562 15.0256C23.2515 15.0225 23.2477 15.02 23.2443 15.0182C23.2427 15.0173 23.2414 15.0167 23.2403 15.0164V15.0792C23.2446 15.1109 23.2496 15.139 23.2541 15.1641C23.2555 15.1718 23.2568 15.1792 23.258 15.1864C23.2632 15.2166 23.267 15.2427 23.2655 15.2638C23.264 15.2856 23.2566 15.3038 23.2382 15.3158C23.2209 15.3271 23.1957 15.3316 23.1616 15.3316C23.1329 15.3316 23.1112 15.3271 23.0967 15.315C23.0816 15.3024 23.0772 15.2839 23.0772 15.263C23.0772 15.2422 23.0816 15.2164 23.0872 15.1863C23.0878 15.1825 23.0886 15.1786 23.0893 15.1747C23.0944 15.147 23.1003 15.1154 23.1052 15.0792V15.0164C23.1041 15.0167 23.1028 15.0173 23.1012 15.0182C23.0978 15.02 23.094 15.0225 23.0893 15.0256C23.089 15.0257 23.0887 15.0259 23.0884 15.0261C23.0835 15.0293 23.0779 15.0329 23.0718 15.0362C23.0597 15.0427 23.0446 15.0484 23.0273 15.0465C23.0098 15.0446 22.992 15.0353 22.9739 15.0159L22.9291 14.9679L22.946 14.9521C22.946 14.9521 22.946 14.9521 22.946 14.9521C22.9506 14.957 22.9548 14.9596 22.9585 14.9611C22.9623 14.9625 22.9664 14.963 22.9711 14.9627C22.976 14.9624 22.9813 14.9613 22.9875 14.9597C22.9893 14.9593 22.9912 14.9588 22.9932 14.9582C22.9978 14.957 23.0029 14.9557 23.0079 14.9546C23.0229 14.9514 23.0405 14.9496 23.0606 14.9556C23.0806 14.9616 23.1019 14.975 23.1252 15.0001L23.1168 15.008H23.1283V15.0808L23.1282 15.0815C23.1233 15.1186 23.1173 15.1511 23.1121 15.179C23.1114 15.1829 23.1106 15.1867 23.11 15.1905C23.1043 15.2211 23.1003 15.2447 23.1003 15.263C23.1003 15.2811 23.1043 15.2911 23.1116 15.2972C23.1195 15.3039 23.1342 15.3084 23.1616 15.3084C23.1946 15.3084 23.2142 15.3039 23.2256 15.2964C23.2359 15.2896 23.2412 15.2794 23.2424 15.2622C23.2437 15.2443 23.2405 15.2209 23.2352 15.1903C23.234 15.1834 23.2327 15.1761 23.2313 15.1685C23.2268 15.1431 23.2216 15.1141 23.2173 15.0815L23.2172 15.0808V15.008H23.2288L23.2203 15.0001C23.2434 14.9752 23.2645 14.9605 23.2845 14.9529C23.3048 14.9452 23.3231 14.9453 23.3402 14.9486C23.3533 14.9512 23.3661 14.9558 23.3779 14.9601C23.381 14.9612 23.384 14.9623 23.3869 14.9633ZM23.2556 14.998C23.2695 14.986 23.2817 14.9787 23.2927 14.9746C23.3081 14.9687 23.322 14.9687 23.3357 14.9714C23.3469 14.9735 23.3575 14.9774 23.3691 14.9816C23.3724 14.9827 23.3758 14.984 23.3793 14.9852C23.3815 14.986 23.3838 14.9867 23.3861 14.9875L23.3566 14.998L23.3547 15.0001C23.3392 15.0166 23.3262 15.0223 23.3157 15.0235C23.305 15.0246 23.2949 15.0213 23.2846 15.0158C23.2795 15.013 23.2746 15.0099 23.2697 15.0067C23.2693 15.0065 23.269 15.0062 23.2686 15.006C23.2643 15.0032 23.2599 15.0003 23.2556 14.998ZM23.0896 14.9981C23.0762 14.987 23.0643 14.981 23.0539 14.9778C23.039 14.9734 23.0258 14.9745 23.0128 14.9773C23.0082 14.9783 23.004 14.9794 22.9996 14.9805C22.9975 14.9811 22.9954 14.9816 22.9931 14.9822C22.988 14.9835 22.9826 14.9847 22.9771 14.9854L22.9908 15.0001C22.9908 15.0001 22.9908 15.0001 22.9908 15.0001C23.0063 15.0166 23.0193 15.0223 23.0298 15.0235C23.0405 15.0246 23.0506 15.0213 23.0609 15.0158C23.066 15.013 23.0709 15.0099 23.0758 15.0067C23.0762 15.0065 23.0765 15.0062 23.0769 15.006C23.0811 15.0033 23.0854 15.0004 23.0896 14.9981ZM25.1079 15.9086C25.223 15.884 25.3378 15.9087 25.4294 15.9578L25.4222 15.9794L25.1086 15.9314L25.1079 15.9086ZM25.3317 15.9421L25.2012 15.9222C25.2462 15.9223 25.2902 15.9295 25.3317 15.9421ZM23.7912 16.1485C23.7883 16.0864 23.8 16.0125 23.8454 15.9151L23.8675 15.9207L23.8451 16.3047L23.8223 16.3066C23.8196 16.2953 23.8166 16.2839 23.8135 16.2721C23.8038 16.2351 23.7933 16.1951 23.7912 16.1485ZM23.8264 16.2282C23.8205 16.2031 23.8157 16.1769 23.8143 16.1474C23.8123 16.1034 23.818 16.0522 23.8403 15.9885L23.8264 16.2282Z" fill="black"/>
<path d="M23.1839 15.608C23.2735 15.608 23.3183 15.608 23.3183 15.464C23.3183 15.416 23.3855 15.392 23.3407 15.296C23.3855 15.392 23.1839 15.392 23.1839 15.344C23.1839 15.392 22.9599 15.392 23.0047 15.296C22.9823 15.392 23.0495 15.416 23.0271 15.464C23.0271 15.608 23.0719 15.608 23.1839 15.608Z" fill="#FF0016"/>
<path fill-rule="evenodd" clip-rule="evenodd" d="M23.1675 15.3503C23.1719 15.3471 23.1723 15.3449 23.1723 15.344H23.1955C23.1955 15.3454 23.1961 15.3477 23.1998 15.3506C23.2036 15.3537 23.2097 15.3567 23.2179 15.3591C23.2344 15.3638 23.2565 15.3653 23.2776 15.3625C23.2989 15.3596 23.3169 15.3527 23.3269 15.3426C23.3316 15.3378 23.3345 15.3323 23.3353 15.326C23.3362 15.3196 23.3351 15.3114 23.3302 15.3009L23.3512 15.2911C23.363 15.3163 23.3677 15.3374 23.3677 15.356C23.3677 15.3746 23.3629 15.3898 23.3568 15.4029C23.3538 15.4094 23.3504 15.4153 23.3472 15.4209C23.3464 15.4222 23.3456 15.4236 23.3449 15.4249C23.3425 15.4289 23.3403 15.4327 23.3383 15.4364C23.3331 15.4463 23.3299 15.4548 23.3299 15.464C23.3299 15.5359 23.319 15.5773 23.292 15.599C23.2785 15.6099 23.2621 15.6148 23.2442 15.6172C23.2267 15.6196 23.2064 15.6196 23.1845 15.6196H23.1833C23.1558 15.6196 23.1315 15.6196 23.1109 15.6172C23.0901 15.6149 23.0717 15.6101 23.0568 15.5994C23.0263 15.5777 23.0155 15.5358 23.0155 15.464V15.4614L23.0166 15.4591C23.0242 15.4427 23.0188 15.4312 23.0086 15.4097C23.0076 15.4076 23.0065 15.4053 23.0054 15.4029C22.9968 15.3844 22.988 15.362 22.9885 15.3313C22.9884 15.3308 22.9883 15.3304 22.9882 15.3299C22.9857 15.3178 22.9878 15.3048 22.9942 15.2911L23.016 15.2986C23.0134 15.3095 23.0121 15.3194 23.0118 15.3285C23.0134 15.3333 23.0166 15.3378 23.0214 15.342C23.0335 15.3525 23.0546 15.3596 23.0789 15.3625C23.1029 15.3653 23.128 15.3638 23.1467 15.359C23.1561 15.3566 23.1631 15.3535 23.1675 15.3503ZM23.3445 15.3577C23.3441 15.3581 23.3437 15.3585 23.3433 15.3589C23.3281 15.3743 23.3041 15.3823 23.2806 15.3855C23.2569 15.3887 23.2314 15.3871 23.2115 15.3814C23.2016 15.3785 23.1922 15.3744 23.1852 15.3686C23.1846 15.3682 23.184 15.3677 23.1835 15.3672C23.1827 15.3678 23.182 15.3684 23.1812 15.369C23.1735 15.3746 23.1634 15.3786 23.1525 15.3815C23.1306 15.3871 23.1025 15.3886 23.0761 15.3855C23.0547 15.3829 23.0329 15.3771 23.0162 15.3668C23.019 15.3765 23.0227 15.3851 23.0264 15.3931C23.0275 15.3954 23.0286 15.3977 23.0298 15.4001C23.0392 15.4196 23.0495 15.4407 23.0387 15.4664C23.039 15.5368 23.0505 15.5664 23.0702 15.5805C23.0805 15.5879 23.0943 15.5921 23.1135 15.5942C23.1326 15.5964 23.1557 15.5964 23.1839 15.5964C23.2065 15.5964 23.2253 15.5964 23.2412 15.5942C23.2569 15.5921 23.2685 15.5881 23.2774 15.5809C23.2952 15.5667 23.3067 15.536 23.3067 15.464C23.3067 15.4492 23.3119 15.4366 23.3179 15.4255C23.3201 15.4213 23.3226 15.417 23.325 15.4129C23.3257 15.4117 23.3265 15.4104 23.3272 15.4092C23.3303 15.4039 23.3332 15.3986 23.3358 15.3931C23.3407 15.3826 23.3442 15.3713 23.3445 15.3577Z" fill="black"/>
<path d="M23.0719 15.32L22.8479 15.248L23.0719 15.32ZM23.0719 15.32H22.8479H23.0719ZM23.0719 15.344L22.8703 15.416L23.0719 15.344ZM23.2511 15.32L23.4751 15.248L23.2511 15.32ZM23.2511 15.32H23.5199H23.2511ZM23.2511 15.344L23.4751 15.416L23.2511 15.344Z" fill="black"/>
<path fill-rule="evenodd" clip-rule="evenodd" d="M22.8515 15.2369L23.0755 15.3089L23.0719 15.32V15.3316H22.8479V15.3084H22.998L22.8444 15.259L22.8515 15.2369ZM23.2511 15.32L23.2476 15.3089L23.4716 15.2369L23.4787 15.259L23.3251 15.3084H23.5199V15.3316H23.2511V15.32ZM23.4716 15.427L23.2476 15.355L23.2547 15.3329L23.4787 15.4049L23.4716 15.427ZM22.8664 15.4051L23.068 15.3331L23.0758 15.3549L22.8742 15.4269L22.8664 15.4051Z" fill="black"/>
<path d="M21.28 14.72H21.44H21.28ZM21.28 14.88H20.96H21.28ZM21.28 15.2H20.96H21.12H21.28ZM21.28 16.16C21.28 16 21.12 16.16 21.12 16.16H21.28ZM21.28 16.16C21.28 16.16 21.12 16.48 21.28 16.48V16.32V16.16ZM24 16.64C24 16.64 23.68 16.8 23.84 16.96V16.64H24ZM24 16.8V17.12V16.96V16.8ZM24 16.48L23.84 16.64H24V16.48ZM25.76 16.8V16.96V16.8ZM25.76 16.64C25.6 16.64 25.76 16.64 25.76 16.64V16.64ZM25.76 16.96V17.12H25.92V16.96H25.76ZM22.56 15.68V16.16V15.68Z" fill="#0051BA"/>
</g>
</g>
</g>
<defs>
<clipPath id="clip0_152_51421">
<rect width="48" height="48" fill="white"/>
</clipPath>
<clipPath id="clip1_152_51421">
<rect width="64" height="48" fill="white" transform="translate(-8)"/>
</clipPath>
</defs>
</svg>
