<svg width="48" height="48" viewBox="0 0 48 48" fill="none" xmlns="http://www.w3.org/2000/svg">
<g clip-path="url(#clip0_191_23380)">
<mask id="mask0_191_23380" style="mask-type:alpha" maskUnits="userSpaceOnUse" x="0" y="0" width="48" height="48">
<circle cx="24" cy="24" r="24" fill="#D9D9D9"/>
</mask>
<g mask="url(#mask0_191_23380)">
<g clip-path="url(#clip1_191_23380)">
<path fill-rule="evenodd" clip-rule="evenodd" d="M-9 0H63V15H-9V0Z" fill="#009A00"/>
<path fill-rule="evenodd" clip-rule="evenodd" d="M-9 15H63V16.5H-9V15Z" fill="white"/>
<path fill-rule="evenodd" clip-rule="evenodd" d="M-9 16.5H63V31.5H-9V16.5Z" fill="black"/>
<path fill-rule="evenodd" clip-rule="evenodd" d="M-9 31.5H63V33H-9V31.5Z" fill="white"/>
<path fill-rule="evenodd" clip-rule="evenodd" d="M-9 33H63V48H-9V33Z" fill="#FFCA00"/>
<path fill-rule="evenodd" clip-rule="evenodd" d="M-9 0V48L22.5 24L-9 0Z" fill="#FF0000"/>
<path fill-rule="evenodd" clip-rule="evenodd" d="M9.60938 31.2187L4.80938 27.7031L0.00937486 31.2187L1.875 25.5656L-2.95312 22.0875L3 22.1062L4.80938 16.4437L6.62813 22.1156L12.5813 22.0875L7.75313 25.5656L9.60938 31.2187Z" fill="#FFCA00"/>
<path fill-rule="evenodd" clip-rule="evenodd" d="M0.637451 27.2719H4.1062C4.38745 27.5812 4.99683 27.7125 5.58745 27.2719C6.67495 26.6719 8.77495 27.2719 8.77495 27.2719L9.18745 26.8313L8.18433 23.5313L7.8187 23.1375C7.8187 23.1375 7.04058 22.6687 5.5687 22.8281C4.09683 22.9875 3.5812 22.7812 3.5812 22.7812C3.5812 22.7812 2.29683 22.9313 1.9312 23.1188L1.5187 23.5313L0.637451 27.2719Z" fill="white"/>
<path fill-rule="evenodd" clip-rule="evenodd" d="M3.6004 22.7334C3.60039 22.7334 3.60041 22.7334 3.6004 22.7334C3.60038 22.7334 3.60028 22.7334 3.60026 22.7334C3.59233 22.7302 3.58374 22.7291 3.57527 22.7301L3.58125 22.7813C3.57527 22.7301 3.57528 22.7301 3.57527 22.7301L3.57148 22.7305L3.56057 22.7318C3.551 22.733 3.53696 22.7347 3.51897 22.7369C3.48299 22.7414 3.43122 22.748 3.36797 22.7566C3.2415 22.7736 3.06898 22.7983 2.88491 22.8289C2.70095 22.8594 2.50488 22.896 2.3315 22.9368C2.15946 22.9773 2.00521 23.0229 1.90772 23.0729C1.90295 23.0754 1.89858 23.0785 1.89479 23.0823L1.48229 23.4948C1.47551 23.5016 1.47076 23.5101 1.46856 23.5195L0.587572 27.259C0.586505 27.2631 0.585938 27.2675 0.585938 27.2719C0.585938 27.3004 0.609023 27.3235 0.6375 27.3235H4.0839C4.3907 27.6417 5.0174 27.7597 5.61545 27.3154C6.14384 27.0255 6.92445 27.0234 7.58325 27.0982C7.91151 27.1354 8.2062 27.1913 8.41884 27.2379C8.52513 27.2612 8.61082 27.2822 8.66986 27.2973C8.69938 27.3048 8.72222 27.3109 8.73764 27.3151C8.74172 27.3162 8.74529 27.3172 8.74831 27.318C8.751 27.3188 8.75326 27.3194 8.7551 27.3199L8.75947 27.3211L8.76053 27.3214L8.76078 27.3215C8.77937 27.3268 8.79943 27.3213 8.81264 27.3072L9.22514 26.8665C9.23773 26.8531 9.24219 26.8339 9.23683 26.8163L8.23371 23.5163C8.23143 23.5088 8.22748 23.5019 8.22216 23.4962L7.85653 23.1025C7.85325 23.0989 7.84949 23.0959 7.84536 23.0934L7.81875 23.1375C7.84536 23.0934 7.84538 23.0934 7.84536 23.0934L7.84504 23.0932L7.84444 23.0928L7.84239 23.0916C7.84064 23.0906 7.83812 23.0892 7.83485 23.0873C7.82831 23.0837 7.81874 23.0784 7.80615 23.0719C7.78097 23.0589 7.74374 23.0407 7.69462 23.0195C7.59637 22.977 7.45057 22.9225 7.25854 22.8732C6.87436 22.7744 6.30563 22.6965 5.5632 22.7769C4.83022 22.8563 4.33699 22.8444 4.02823 22.8132C3.87387 22.7976 3.76566 22.7771 3.69666 22.7609C3.66217 22.7527 3.63748 22.7456 3.62172 22.7407C3.61385 22.7382 3.6082 22.7362 3.60469 22.735C3.60293 22.7344 3.6017 22.7339 3.60099 22.7336L3.6004 22.7334ZM7.78624 23.1783C7.78568 23.178 7.78508 23.1777 7.78445 23.1773C7.77887 23.1742 7.77029 23.1695 7.75873 23.1635C7.7356 23.1515 7.70054 23.1344 7.65372 23.1141C7.56007 23.0737 7.41935 23.021 7.23287 22.973C6.86001 22.8772 6.30374 22.8005 5.5743 22.8794C4.8354 22.9594 4.33488 22.9479 4.01786 22.9158C3.85933 22.8998 3.74665 22.8786 3.67296 22.8612C3.63612 22.8525 3.60903 22.8448 3.59084 22.839C3.5846 22.8371 3.57942 22.8354 3.57524 22.8339L3.57291 22.8342C3.56348 22.8354 3.54957 22.8371 3.53173 22.8393C3.49604 22.8437 3.44461 22.8503 3.38174 22.8588C3.25596 22.8757 3.08454 22.9002 2.90181 22.9306C2.71897 22.961 2.52539 22.9971 2.35512 23.0372C2.18816 23.0764 2.0479 23.1186 1.96185 23.1611L1.56558 23.5574L0.702622 27.2204H4.10625C4.12078 27.2204 4.13463 27.2265 4.1444 27.2372C4.40575 27.5247 4.9848 27.6572 5.55667 27.2306C5.55855 27.2292 5.56053 27.2279 5.56259 27.2268C6.12166 26.9183 6.93306 26.9206 7.59488 26.9957C7.92755 27.0334 8.22583 27.09 8.44092 27.1372C8.5485 27.1608 8.63537 27.182 8.69542 27.1974C8.72186 27.2041 8.74311 27.2098 8.75865 27.2139L9.1295 26.8178L8.1385 23.5577L7.78624 23.1783Z" fill="black"/>
<path fill-rule="evenodd" clip-rule="evenodd" d="M4.14996 27.2881C4.3812 27.4497 4.60314 27.5219 4.82551 27.5156C5.04818 27.5093 5.27723 27.4242 5.52223 27.2605C5.35848 27.0618 5.13116 26.9066 4.86435 26.7863C4.65203 26.8881 4.48885 26.9938 4.36988 27.0854C4.29252 27.1449 4.23401 27.1983 4.19293 27.2407C4.17495 27.2592 4.16077 27.2751 4.14996 27.2881ZM4.73892 26.7334C4.55872 26.8258 4.41581 26.9199 4.30698 27.0036C4.226 27.066 4.16373 27.1227 4.11893 27.1688C4.07524 27.2138 4.04555 27.2515 4.03263 27.2757C4.02061 27.2982 4.02691 27.3262 4.04744 27.3414C4.30756 27.5341 4.56471 27.6261 4.82841 27.6187C5.09137 27.6113 5.35418 27.5051 5.6265 27.314C5.63795 27.306 5.64564 27.2937 5.64782 27.2798C5.64999 27.266 5.64645 27.2519 5.63802 27.2408C5.47572 27.0259 5.24978 26.8593 4.9874 26.7303C5.01391 26.7188 5.04108 26.7075 5.06891 26.6962C5.69846 26.4421 6.67135 26.2506 8.07429 26.4417C8.10251 26.4455 8.1285 26.4258 8.13234 26.3975C8.13619 26.3693 8.11643 26.3433 8.08821 26.3395C6.66929 26.1462 5.67811 26.3391 5.03031 26.6006C4.97172 26.6242 4.91594 26.6485 4.86293 26.673C4.76062 26.6289 4.65379 26.5899 4.54386 26.5554C4.09446 26.4144 3.58769 26.3469 3.11316 26.3192C2.63832 26.2915 2.19383 26.3036 1.8682 26.3226C1.70532 26.332 1.57204 26.3433 1.47939 26.3521C1.43306 26.3566 1.39688 26.3604 1.37223 26.3631C1.3599 26.3645 1.35046 26.3656 1.34407 26.3664L1.3368 26.3672L1.33492 26.3675L1.33429 26.3675C1.33426 26.3675 1.33423 26.3675 1.34063 26.4187L1.33429 26.3675C1.30604 26.3711 1.28593 26.3968 1.28947 26.4251C1.293 26.4534 1.31877 26.4734 1.34702 26.4699L1.34063 26.4187C1.34702 26.4699 1.34701 26.4699 1.34702 26.4699L1.34754 26.4698L1.34925 26.4696L1.35618 26.4688C1.36234 26.468 1.37154 26.467 1.38362 26.4656C1.40778 26.4629 1.44343 26.4592 1.4892 26.4548C1.58075 26.446 1.71275 26.4349 1.87419 26.4255C2.19719 26.4067 2.63747 26.3948 3.10716 26.4221C3.57716 26.4495 4.07469 26.5162 4.51298 26.6538C4.59047 26.6781 4.66592 26.7046 4.73892 26.7334Z" fill="black"/>
<path fill-rule="evenodd" clip-rule="evenodd" d="M4.79065 26.7558L4.81877 23.1183L4.93127 23.1192L4.90315 26.7567L4.79065 26.7558ZM8.38251 26.0742L7.76376 23.1773L7.87378 23.1538L8.49253 26.0507L8.38251 26.0742Z" fill="black"/>
<path fill-rule="evenodd" clip-rule="evenodd" d="M1.98038 23.0685C2.00812 23.0749 2.02541 23.1026 2.019 23.1303L1.67212 24.6303C1.66571 24.6581 1.63801 24.6754 1.61027 24.6689C1.58252 24.6625 1.56523 24.6348 1.57165 24.6071L1.91852 23.1071C1.92494 23.0794 1.95263 23.0621 1.98038 23.0685Z" fill="black"/>
<path fill-rule="evenodd" clip-rule="evenodd" d="M-1.60315 27.6656L-0.7969 28.6219C-0.70315 28.6781 -0.6094 28.6781 -0.525025 28.6219L0.674975 27.1781L1.18123 26.55C1.2656 26.4563 1.28435 26.3531 1.27498 26.2688L2.24997 25.3969L2.45622 25.4156C2.36247 25.3969 2.29685 25.35 2.36247 25.2469L2.58747 25.0781L2.75623 25.2937C2.75623 25.2937 2.51248 25.6125 2.48435 25.6125H2.22185L1.7156 26.0719L1.9406 26.2594L2.26872 27.1781L2.68122 26.8875L2.41873 25.95L2.9906 25.3219L2.77497 24.9844L2.92497 24.7969C2.92497 24.7969 4.92185 26.0531 5.69998 25.7156C5.71873 25.7156 5.74685 24.8156 5.74685 24.8156C5.74685 24.8156 3.6656 24.6 3.61873 24.1875C3.57185 23.775 4.08748 23.7188 4.08748 23.7188L3.86247 23.4188L3.90935 23.25L4.27498 23.7L5.0906 23.0062L9.91872 28.5C10.1812 28.3969 10.2375 28.3313 10.2562 28.0688L5.53122 22.6406L5.88748 22.2562C5.96248 22.1719 5.98123 22.1438 5.98123 22.0125L6.54373 21.5344C6.69101 21.5849 6.81668 21.6841 6.89997 21.8156L8.43747 20.5313C8.47497 20.5688 8.59685 20.6062 8.68122 20.5687L11.2031 18.1406L8.45622 20.0812L8.36247 20.0156C8.36247 19.9313 8.45622 19.9219 8.36247 19.7719C8.24997 19.6406 8.0906 19.8937 8.07185 19.8937C8.04373 19.8937 7.66872 19.7625 7.58435 19.5938L7.5656 20.0344L6.86247 20.6906L6.3281 20.6625L5.55935 21.4125L5.4656 21.6937L5.58748 21.9469C5.58748 21.9469 5.17497 22.3031 5.17497 22.2844C5.17497 22.2562 5.0906 22.1719 5.08122 22.1625L5.43747 21.8438L5.48435 21.6281L5.37185 21.4406C5.33435 21.4688 4.88435 21.9469 4.85623 21.8906L3.54373 20.4375L3.61873 20.1656L2.8031 19.275C2.5031 19.1719 2.02498 19.1531 1.93123 19.8094C1.85623 19.9594 1.23747 19.8281 1.23747 19.8281L0.899975 19.9031L-1.01252 22.5938L0.0468503 23.8688L2.22185 21.1219L2.28747 20.3438L2.73747 20.85C2.89685 20.8687 3.03747 20.8781 3.1781 20.8031L4.46248 22.2375L4.24685 22.4531L4.43435 22.6594L4.65935 22.5094L4.74373 22.6312C4.6406 22.6875 4.55622 22.7719 4.4531 22.8281C4.28435 22.7156 4.1156 22.575 4.12497 22.3594L3.4031 22.9594L3.37497 23.0719L1.2281 24.8531L1.0406 24.8812L0.993725 25.4437L2.3906 24.2813V24.1125L2.53122 24.2344L3.61873 23.3625C3.61873 23.3625 3.69373 23.4563 3.6656 23.4563C3.63748 23.4563 2.69998 24.3281 2.69998 24.3281L2.68122 24.4219L2.51248 24.5719L2.41873 24.4969L1.10623 25.6594H0.918725L0.19685 26.3813C0.00935006 26.4 -0.150025 26.4187 -0.3094 26.5219L-1.60315 27.6656Z" fill="black"/>
<path fill-rule="evenodd" clip-rule="evenodd" d="M11.2428 18.1078C11.26 18.1286 11.2583 18.1591 11.2389 18.1778L8.71698 20.6059C8.71266 20.6101 8.70764 20.6135 8.70216 20.6159C8.64662 20.6406 8.58309 20.6393 8.5314 20.6287C8.49932 20.6221 8.46694 20.6109 8.4402 20.5962L6.93302 21.8552C6.92162 21.8648 6.90667 21.8689 6.892 21.8666C6.87732 21.8643 6.86435 21.8558 6.8564 21.8433C6.78455 21.7298 6.67862 21.6424 6.55416 21.5932L6.03255 22.0366C6.03145 22.0914 6.02599 22.1333 6.01011 22.1717C5.99222 22.2149 5.96277 22.2492 5.926 22.2906L5.92529 22.2914L5.60052 22.6418L10.2951 28.0349C10.3041 28.0453 10.3086 28.0588 10.3076 28.0725C10.2982 28.205 10.2789 28.301 10.2193 28.3762C10.1606 28.4503 10.0685 28.4966 9.93757 28.548C9.91735 28.556 9.89432 28.5504 9.87998 28.5341L5.08535 23.0784L4.30837 23.7393C4.2978 23.7483 4.28406 23.7527 4.27024 23.7514C4.25642 23.7501 4.2437 23.7433 4.23495 23.7326L3.9323 23.3601L3.91894 23.4082L4.12872 23.6879C4.13983 23.7027 4.14214 23.7223 4.13477 23.7393C4.1274 23.7563 4.11149 23.768 4.09309 23.7701L4.09224 23.7702C4.0915 23.7702 4.09029 23.7704 4.08864 23.7706C4.08536 23.7711 4.08037 23.7718 4.07391 23.7729C4.06099 23.775 4.04232 23.7786 4.01996 23.7841C3.97497 23.7952 3.91635 23.8138 3.85978 23.844C3.8031 23.8742 3.75078 23.9148 3.71522 23.9687C3.68033 24.0216 3.65956 24.0903 3.66995 24.1817C3.67338 24.2119 3.69691 24.2491 3.75426 24.2915C3.81036 24.333 3.89068 24.3733 3.98966 24.4116C4.18719 24.4882 4.44829 24.5532 4.71049 24.6057C4.97216 24.6582 5.23264 24.6979 5.42787 24.7244C5.52544 24.7377 5.6066 24.7477 5.66334 24.7544C5.69171 24.7577 5.71396 24.7602 5.7291 24.7619C5.73667 24.7627 5.74246 24.7634 5.74634 24.7638L5.75072 24.7642L5.75208 24.7644C5.75209 24.7644 5.75215 24.7644 5.74684 24.8157C5.79838 24.8173 5.79838 24.8173 5.79838 24.8173L5.79837 24.8175L5.79836 24.8179L5.79713 24.856C5.79632 24.8807 5.79515 24.9159 5.79368 24.9581C5.79075 25.0425 5.78665 25.1552 5.78195 25.2678C5.77726 25.3804 5.77197 25.4933 5.76666 25.5783C5.76402 25.6206 5.76133 25.6566 5.75865 25.6823C5.75733 25.695 5.7559 25.7063 5.75426 25.7151C5.75351 25.7191 5.75232 25.7248 5.75035 25.7303C5.74949 25.7327 5.74741 25.7383 5.74334 25.7442C5.7416 25.7468 5.73324 25.7587 5.71735 25.7643C5.5071 25.8541 5.22371 25.8352 4.92621 25.7647C4.62495 25.6933 4.29897 25.5664 3.99928 25.4298C3.69929 25.293 3.42399 25.1458 3.2238 25.0328C3.12366 24.9763 3.04221 24.9284 2.98575 24.8945C2.96639 24.8828 2.94996 24.8729 2.93672 24.8648L2.8383 24.9878L3.03404 25.2942C3.04659 25.3138 3.04441 25.3394 3.02872 25.3566L2.47607 25.9636L2.73087 26.8736C2.73676 26.8947 2.72876 26.9171 2.71091 26.9297L2.29841 27.2203C2.28524 27.2296 2.26849 27.2322 2.25313 27.2273C2.23778 27.2225 2.22558 27.2107 2.22016 27.1955L1.89677 26.29L1.68258 26.1115C1.67112 26.102 1.66436 26.0879 1.66404 26.073C1.66373 26.0581 1.66989 26.0438 1.68094 26.0337L2.18719 25.5744C2.19668 25.5658 2.20903 25.561 2.22184 25.561H2.4691C2.47675 25.5538 2.48732 25.5428 2.50031 25.5283C2.52621 25.4994 2.55866 25.4604 2.59074 25.4208C2.6227 25.3812 2.65384 25.3416 2.67702 25.3119C2.68206 25.3054 2.68672 25.2995 2.69092 25.294L2.57799 25.1497L2.40134 25.2822C2.39138 25.2995 2.38823 25.3113 2.38763 25.3185C2.38705 25.3253 2.38858 25.329 2.39104 25.3323C2.39878 25.3428 2.42156 25.3562 2.46633 25.3651C2.4932 25.3705 2.51118 25.396 2.50725 25.4231C2.50331 25.4502 2.47884 25.4695 2.45155 25.467L2.26762 25.4503L1.32832 26.2903C1.33234 26.3813 1.3065 26.4874 1.2205 26.5835L0.714625 27.2111L-0.485379 28.6549C-0.488563 28.6587 -0.492286 28.6621 -0.496431 28.6648C-0.598966 28.7332 -0.714291 28.7316 -0.823436 28.6661C-0.828309 28.6632 -0.832665 28.6595 -0.836328 28.6552L-1.64258 27.6989L-1.60316 27.6657L-1.63731 27.627L-0.34356 26.4833C-0.341632 26.4816 -0.33958 26.48 -0.33742 26.4786C-0.171996 26.3716 -0.00648022 26.3501 0.173385 26.3318L0.882257 25.623C0.891927 25.6133 0.905042 25.6079 0.918717 25.6079H1.08666L2.38453 24.4583C2.40331 24.4417 2.43134 24.441 2.45093 24.4567L2.51072 24.5045L2.63404 24.3949L2.64941 24.3181C2.65153 24.3075 2.65693 24.2978 2.66485 24.2904L2.69997 24.3282C2.66485 24.2904 2.66484 24.2904 2.66485 24.2904L2.70523 24.2529C2.73094 24.2291 2.76768 24.195 2.81187 24.1541C2.90024 24.0723 3.01837 23.9633 3.1374 23.8542C3.25639 23.7452 3.37644 23.636 3.46857 23.554C3.49079 23.5342 3.51146 23.516 3.53014 23.4997L2.56347 24.2747C2.54404 24.2902 2.51626 24.2897 2.49745 24.2734L2.44215 24.2255V24.2813C2.44215 24.2966 2.43535 24.3111 2.42357 24.3209L1.0267 25.4834C1.01073 25.4967 0.98834 25.4991 0.969909 25.4895C0.951479 25.4799 0.940607 25.4602 0.942332 25.4395L0.989207 24.877C0.991193 24.8532 1.0093 24.8339 1.03294 24.8303L1.20623 24.8043L3.32904 23.043L3.35307 22.9469C3.35573 22.9363 3.3617 22.9268 3.37013 22.9198L4.09201 22.3198C4.1077 22.3067 4.1296 22.3042 4.14788 22.3132C4.16615 22.3223 4.17737 22.3413 4.17648 22.3617C4.1689 22.5361 4.2968 22.6584 4.45524 22.7674C4.49296 22.7443 4.52909 22.7173 4.56747 22.6885L4.56881 22.6875C4.60067 22.6636 4.63416 22.6385 4.66996 22.6153L4.64579 22.5804L4.46294 22.7023C4.44172 22.7165 4.41334 22.713 4.39619 22.6941L4.20869 22.4879C4.19017 22.4675 4.19092 22.4362 4.21038 22.4167L4.3915 22.2356L3.16563 20.8666C3.02183 20.93 2.87835 20.9185 2.73144 20.9013C2.71889 20.8998 2.70732 20.8938 2.69893 20.8843L2.32875 20.4679L2.27322 21.1263C2.27237 21.1364 2.26856 21.146 2.26227 21.1539L0.0872667 23.9008C0.077619 23.913 0.0629902 23.9202 0.0474496 23.9204C0.0319091 23.9205 0.017115 23.9137 0.00718284 23.9018L-1.05219 22.6268C-1.06713 22.6088 -1.06811 22.583 -1.05456 22.5639L0.857939 19.8733C0.865334 19.8629 0.876323 19.8556 0.888781 19.8528L1.22628 19.7778C1.23348 19.7762 1.24095 19.7762 1.24817 19.7777L1.24851 19.7778L1.24973 19.7781L1.2547 19.7791C1.2591 19.78 1.26562 19.7813 1.27398 19.7829C1.2907 19.7861 1.31475 19.7906 1.34388 19.7955C1.40224 19.8053 1.48045 19.8168 1.56062 19.8237C1.64137 19.8306 1.72148 19.8326 1.78462 19.8245C1.81624 19.8204 1.84109 19.8142 1.85884 19.8062C1.87127 19.8007 1.87808 19.7953 1.88179 19.7911C1.88124 19.7948 1.8807 19.7984 1.88017 19.8021L1.93122 19.8094L1.8851 19.7864C1.88445 19.7877 1.88342 19.7893 1.88179 19.7911C1.93228 19.4566 2.083 19.2813 2.27141 19.2093C2.45655 19.1386 2.66496 19.173 2.81985 19.2263C2.82799 19.2291 2.8353 19.2339 2.84112 19.2402L3.65674 20.1309C3.66873 20.1439 3.67314 20.1623 3.66842 20.1794L3.60095 20.424L3.58198 20.403L3.54372 20.4376L3.59342 20.4513L3.60095 20.424L4.87503 21.8346C4.86963 21.8381 4.86506 21.8409 4.86134 21.8428C4.85869 21.8441 4.85744 21.8446 4.85737 21.8446C4.85729 21.8446 4.85889 21.8441 4.86179 21.8438C4.86498 21.8436 4.8723 21.8434 4.88097 21.8473C4.88606 21.8495 4.89051 21.8527 4.8942 21.8564C4.89757 21.8597 4.90031 21.8636 4.90234 21.8676C4.90025 21.8634 4.89761 21.8596 4.89448 21.8561L4.87503 21.8346C4.88453 21.8283 4.8966 21.8194 4.91118 21.8078C4.95595 21.772 5.01458 21.718 5.07478 21.6601C5.13471 21.6025 5.195 21.5423 5.24295 21.4943L5.24338 21.4939C5.26709 21.4702 5.28789 21.4494 5.30395 21.4336C5.31866 21.4192 5.33277 21.4055 5.3409 21.3994C5.35258 21.3907 5.36743 21.3873 5.38175 21.3901C5.39608 21.3929 5.40854 21.4016 5.41606 21.4141L5.47289 21.5089L5.43658 21.6178L5.43396 21.6172L5.42962 21.6372L5.36076 21.5224C5.36632 21.5169 5.37147 21.5118 5.37619 21.5072C5.38407 21.4995 5.39052 21.4932 5.39547 21.4886C5.39986 21.4845 5.40203 21.4826 5.40263 21.4821C5.40279 21.4819 5.40283 21.4819 5.40278 21.4819L5.37184 21.4407L5.32763 21.4672L5.36076 21.5224C5.3478 21.5353 5.33268 21.5504 5.31587 21.5672L5.31565 21.5674C5.26783 21.6153 5.20693 21.6762 5.14624 21.7345C5.08575 21.7926 5.02426 21.8494 4.97557 21.8883C4.95171 21.9074 4.92836 21.9243 4.90848 21.9345C4.89922 21.9393 4.8857 21.9453 4.87067 21.9466C4.86262 21.9473 4.85118 21.9469 4.83915 21.9415C4.82936 21.9372 4.8213 21.9305 4.81535 21.9224L4.81795 21.9252L4.85622 21.8907L4.8101 21.9137C4.8116 21.9167 4.81336 21.9196 4.81535 21.9224L3.50545 20.4721C3.49364 20.459 3.48932 20.4408 3.49401 20.4238L3.56143 20.1795L3.58069 20.2005L3.61872 20.1657L3.56901 20.152L3.56143 20.1795L2.77404 19.3197C2.77816 19.321 2.78226 19.3224 2.78633 19.3238L2.80309 19.2751L2.76507 19.3099L2.77404 19.3197C2.63111 19.2725 2.45629 19.2491 2.30821 19.3056C2.16118 19.3618 2.02719 19.5022 1.98226 19.8167C1.98148 19.8222 1.97981 19.8275 1.97734 19.8325C1.96072 19.8657 1.93123 19.8868 1.90091 19.9004C1.87046 19.914 1.83467 19.922 1.79773 19.9268C1.72377 19.9363 1.63512 19.9336 1.55181 19.9264C1.46792 19.9192 1.38676 19.9073 1.32676 19.8972C1.2967 19.8921 1.27183 19.8875 1.25442 19.8841C1.2478 19.8829 1.24225 19.8818 1.23791 19.8809L1.24865 19.8785L1.23747 19.8282C1.22677 19.8786 1.22678 19.8786 1.22679 19.8786L1.22732 19.8787L1.22875 19.879L1.23417 19.8801C1.23529 19.8804 1.23654 19.8806 1.23791 19.8809M0.930507 19.9492L0.941994 19.933L0.899967 19.9032L0.911152 19.9535L0.930507 19.9492ZM5.42869 21.6415L5.42962 21.6372L5.42993 21.6377L5.42869 21.6415ZM5.41507 21.7041C5.41328 21.6953 5.41379 21.6861 5.41667 21.6775L5.42869 21.6415L5.41507 21.7041ZM5.48718 21.8575L5.41913 21.7162C5.41727 21.7123 5.41591 21.7082 5.41507 21.7041L5.39063 21.8165L5.04683 22.1241C5.03627 22.1336 5.03007 22.147 5.02967 22.1611C5.02928 22.1753 5.03473 22.189 5.04476 22.199C5.04932 22.2036 5.07163 22.2259 5.09258 22.2502C5.10316 22.2624 5.11245 22.2741 5.11881 22.2836C5.12142 22.2874 5.12306 22.2903 5.124 22.2921C5.1259 22.3046 5.13276 22.3202 5.14979 22.3299C5.16542 22.3387 5.18017 22.3367 5.18425 22.336C5.19376 22.3345 5.20122 22.3306 5.20333 22.3295L5.20348 22.3294C5.20973 22.3262 5.21652 22.3216 5.22239 22.3175C5.23496 22.3086 5.25205 22.2954 5.27152 22.28C5.31076 22.2487 5.36277 22.2056 5.4144 22.1622C5.46612 22.1187 5.51781 22.0746 5.55655 22.0415C5.57592 22.0249 5.59206 22.011 5.60337 22.0013L5.62086 21.9862L5.62109 21.986L5.58747 21.9469L5.62117 21.986C5.6388 21.9707 5.64403 21.9456 5.63392 21.9246L5.52283 21.6938L5.52828 21.6688L5.6043 21.4407L6.34793 20.7152L6.85976 20.7422C6.87373 20.7429 6.88741 20.7379 6.89765 20.7284L7.60077 20.0721C7.61066 20.0629 7.61653 20.0501 7.61711 20.0366L7.63023 19.7281C7.64022 19.7367 7.65051 19.745 7.66097 19.7529C7.71181 19.7915 7.77048 19.8254 7.82613 19.8532C7.88192 19.8811 7.93582 19.9035 7.97779 19.919C7.99877 19.9268 8.01712 19.9329 8.03151 19.9372C8.03867 19.9394 8.04528 19.9412 8.05098 19.9425C8.05509 19.9435 8.06348 19.9454 8.07184 19.9454C8.0855 19.9454 8.09549 19.9401 8.09905 19.9382C8.10365 19.9356 8.1073 19.9328 8.10963 19.9309C8.11434 19.927 8.11881 19.9225 8.12237 19.9188C8.12806 19.9129 8.13503 19.905 8.14217 19.897C8.14405 19.8949 8.14594 19.8927 8.14782 19.8906C8.16703 19.8691 8.19005 19.844 8.21501 19.8233C8.24085 19.8017 8.26334 19.7894 8.28086 19.7864C8.29276 19.7844 8.30525 19.7857 8.32093 19.8028C8.34084 19.8353 8.34867 19.8568 8.35135 19.871C8.35383 19.8842 8.35222 19.8925 8.34927 19.9005C8.34751 19.9052 8.34509 19.9103 8.34156 19.917C8.34075 19.9185 8.33981 19.9203 8.33877 19.9222C8.33588 19.9276 8.33231 19.9343 8.32926 19.9406C8.31999 19.9597 8.3109 19.984 8.3109 20.0157C8.3109 20.0325 8.31911 20.0483 8.3329 20.0579L8.42665 20.1235C8.44447 20.136 8.4682 20.136 8.48597 20.1234L10.6776 18.5751L8.65266 20.5247C8.62468 20.5347 8.58845 20.5351 8.55212 20.5277C8.51111 20.5193 8.48253 20.5035 8.47393 20.4948C8.45505 20.476 8.42489 20.4746 8.40441 20.4917L6.91025 21.7399C6.82201 21.6224 6.70029 21.5336 6.56044 21.4857C6.54323 21.4798 6.52418 21.4834 6.51032 21.4951L5.94782 21.9733C5.9363 21.9831 5.92965 21.9974 5.92965 22.0126C5.92965 22.0768 5.92482 22.1081 5.91482 22.1323C5.90462 22.157 5.88728 22.1789 5.8493 22.2216L5.84965 22.2213L5.88747 22.2563L5.84893 22.222L5.4934 22.6056C5.47549 22.6249 5.47503 22.6547 5.49232 22.6745L10.2031 28.0864C10.1934 28.2027 10.1751 28.2659 10.1385 28.3122C10.1023 28.3578 10.0431 28.3935 9.93337 28.4386L5.12932 22.9723C5.11074 22.9511 5.07863 22.9488 5.05718 22.967L4.28173 23.6266L3.94936 23.2175C3.9372 23.2026 3.91769 23.1956 3.89881 23.1996C3.87993 23.2035 3.86482 23.2177 3.85966 23.2363L3.81278 23.405C3.8085 23.4204 3.81162 23.4369 3.82122 23.4497L3.99664 23.6836C3.9962 23.6837 3.99575 23.6839 3.99531 23.684C3.94509 23.6963 3.87773 23.7175 3.81125 23.753C3.74488 23.7884 3.67708 23.8392 3.62914 23.9119C3.58055 23.9856 3.55444 24.0786 3.56748 24.1934C3.57577 24.2663 3.62753 24.3261 3.69297 24.3744C3.75967 24.4237 3.84963 24.468 3.95237 24.5078C4.15826 24.5876 4.42625 24.6539 4.69022 24.7069C4.95473 24.7599 5.21749 24.7999 5.41396 24.8266C5.51224 24.84 5.59404 24.8501 5.6513 24.8568C5.66747 24.8587 5.68168 24.8604 5.69376 24.8617C5.69298 24.8856 5.69191 24.9173 5.69062 24.9545C5.68769 25.0388 5.6836 25.1512 5.67892 25.2635C5.67423 25.3759 5.66898 25.488 5.66374 25.5718C5.66111 25.6139 5.65853 25.6482 5.65608 25.6717C5.65584 25.674 5.65561 25.6761 5.65538 25.6781C5.47824 25.7446 5.23129 25.731 4.94999 25.6643C4.65799 25.5951 4.33886 25.4712 4.04205 25.3359C3.74557 25.2008 3.47302 25.0551 3.27448 24.943C3.17525 24.887 3.09461 24.8395 3.03883 24.806C3.01094 24.7893 2.98927 24.7761 2.97461 24.767C2.96728 24.7625 2.9617 24.7591 2.95797 24.7567L2.95377 24.7541L2.95274 24.7535L2.95249 24.7533C2.95248 24.7533 2.95242 24.7533 2.92497 24.7969L2.95249 24.7533C2.93029 24.7394 2.90108 24.7442 2.8847 24.7647L2.7347 24.9522C2.72091 24.9695 2.71962 24.9936 2.73151 25.0122L2.92588 25.3164L2.38059 25.9153C2.36863 25.9285 2.36427 25.9468 2.36906 25.964L2.62174 26.8664L2.29446 27.097L1.98915 26.2421C1.98605 26.2334 1.98068 26.2257 1.9736 26.2198L1.79415 26.0703L2.24175 25.6641H2.48434C2.49622 25.6641 2.50535 25.6603 2.50949 25.6583C2.51441 25.656 2.51857 25.6533 2.52163 25.6512C2.52778 25.6469 2.53383 25.6416 2.53924 25.6366C2.55029 25.6263 2.56333 25.6125 2.57707 25.5972C2.60477 25.5663 2.63854 25.5256 2.67092 25.4856C2.70341 25.4454 2.73496 25.4053 2.75836 25.3753C2.77007 25.3603 2.77976 25.3478 2.78652 25.339L2.79437 25.3288L2.79699 25.3254L2.79712 25.3252C2.81139 25.3065 2.8113 25.2805 2.79682 25.262L2.62807 25.0464C2.61078 25.0243 2.57898 25.0201 2.55653 25.0369L2.33153 25.2057C2.32656 25.2094 2.3223 25.214 2.31896 25.2192C2.29981 25.2493 2.2874 25.2796 2.28486 25.3098C2.28373 25.3233 2.28463 25.3363 2.28739 25.3486L2.25464 25.3456C2.24039 25.3443 2.22626 25.349 2.2156 25.3585L1.2406 26.2304C1.22817 26.2415 1.22188 26.2579 1.22372 26.2745C1.2317 26.3463 1.21613 26.4342 1.14289 26.5156C1.14226 26.5163 1.14166 26.517 1.14107 26.5177L0.635313 27.1452L0.674967 27.1782L0.63482 27.1458L-0.559646 28.5829C-0.622183 28.6219 -0.689984 28.6233 -0.763232 28.5819L-1.53127 27.6709L-0.278205 26.5632C-0.131544 26.4694 0.0153062 26.4513 0.201972 26.4326C0.213816 26.4314 0.224885 26.4262 0.233302 26.4178L0.940075 25.711H1.10622C1.11881 25.711 1.13098 25.7064 1.1404 25.698L2.42041 24.5643L2.48026 24.6122C2.49987 24.6279 2.52795 24.6272 2.54672 24.6105L2.71547 24.4605C2.72385 24.453 2.72958 24.443 2.73178 24.432L2.74726 24.3546L2.77538 24.3285C2.80105 24.3047 2.83777 24.2706 2.88191 24.2298C2.97021 24.1481 3.08821 24.0392 3.20707 23.9303C3.32597 23.8213 3.44557 23.7125 3.53713 23.631C3.58296 23.5903 3.62146 23.5566 3.64923 23.5332C3.66319 23.5215 3.67392 23.5128 3.68129 23.5072C3.68241 23.5063 3.68339 23.5056 3.68422 23.505C3.68901 23.5034 3.69403 23.5011 3.69897 23.4977C3.71202 23.4887 3.71886 23.476 3.72168 23.4648C3.72624 23.4465 3.72081 23.4303 3.7188 23.4246C3.71351 23.4095 3.70372 23.3933 3.69593 23.3813C3.68744 23.3683 3.67819 23.3555 3.67125 23.3463C3.66773 23.3416 3.66472 23.3377 3.66257 23.3349L3.66001 23.3316L3.65929 23.3307L3.65908 23.3305L3.65902 23.3304C3.65902 23.3304 3.65898 23.3303 3.65624 23.3325L3.65902 23.3304C3.65047 23.3197 3.63799 23.3128 3.62438 23.3113C3.61078 23.3098 3.59714 23.3138 3.58646 23.3223L2.5325 24.1673L2.42436 24.0736C2.40911 24.0604 2.38754 24.0573 2.36917 24.0656C2.35081 24.074 2.33903 24.0924 2.33903 24.1126V24.2571L1.05532 25.3255L1.08859 24.9262L1.23574 24.9042C1.24504 24.9028 1.25378 24.8989 1.26102 24.8929L3.40789 23.1116C3.41634 23.1046 3.42233 23.0951 3.42499 23.0844L3.44902 22.9883L4.0817 22.4624C4.12051 22.65 4.28245 22.7764 4.42449 22.8711C4.44043 22.8817 4.46096 22.8826 4.47778 22.8734C4.53262 22.8435 4.582 22.8065 4.628 22.772L4.62934 22.771C4.67671 22.7355 4.72066 22.7026 4.76841 22.6766C4.78125 22.6696 4.79051 22.6574 4.79389 22.6432C4.79726 22.629 4.79444 22.614 4.78611 22.602L4.70174 22.4801C4.68573 22.457 4.65414 22.4509 4.63074 22.4665L4.44265 22.5919L4.31807 22.4549L4.49893 22.274C4.51828 22.2547 4.51914 22.2235 4.50088 22.2032L3.2165 20.7688C3.20066 20.7511 3.17478 20.7465 3.15383 20.7577C3.03384 20.8217 2.91315 20.818 2.76293 20.8011L2.326 20.3095C2.31231 20.2941 2.29075 20.2884 2.27119 20.2949C2.25162 20.3014 2.23782 20.3189 2.23609 20.3395L2.17177 21.1021L0.0458778 23.787L-0.94753 22.5914L-0.970506 22.6237L-1.01253 22.5938L-0.972874 22.5608L-0.94753 22.5914M0.0458778 23.787L0.00641763 23.8368L0.0468421 23.8688L0.0865012 23.8358L0.0458778 23.787ZM2.17177 21.1021L2.17046 21.1176L2.22184 21.1219L2.18142 21.0899L2.17177 21.1021ZM2.76293 20.8011C2.7565 20.8004 2.75003 20.7996 2.74349 20.7988L2.73747 20.8501L2.776 20.8158L2.76293 20.8011ZM4.31807 22.4549L4.285 22.4185L4.24684 22.4532L4.2833 22.4896L4.31807 22.4549ZM4.44265 22.5919L4.40574 22.6165L4.43434 22.6594L4.47249 22.6247L4.44265 22.5919ZM4.0817 22.4624L4.15793 22.3991L4.12497 22.3594L4.07345 22.3572C4.07184 22.3943 4.07485 22.4293 4.0817 22.4624ZM3.44902 22.9883L3.45311 22.9719L3.40309 22.9594L3.43605 22.9991L3.44902 22.9883ZM1.08859 24.9262L1.09198 24.8856L1.04059 24.8813L1.04824 24.9323L1.08859 24.9262ZM1.05532 25.3255L0.960733 25.4042L0.993717 25.4438L1.0451 25.4481L1.05532 25.3255ZM2.33903 24.2571V24.2813H2.39059L2.35761 24.2417L2.33903 24.2571ZM2.5325 24.1673L2.49896 24.1942L2.53122 24.2344L2.56499 24.1955L2.5325 24.1673ZM3.68422 23.505C3.68621 23.5035 3.68742 23.5027 3.68798 23.5023C3.68845 23.502 3.6876 23.5026 3.68586 23.5035C3.68497 23.5039 3.68309 23.5047 3.68049 23.5056C3.67836 23.5062 3.6729 23.5079 3.66559 23.5079C3.67066 23.5079 3.67719 23.5072 3.68422 23.505ZM2.42041 24.5643L2.4529 24.5355L2.41872 24.4969L2.38651 24.5372L2.42041 24.5643ZM0.940075 25.711L0.955177 25.6959L0.918717 25.6594V25.711H0.940075ZM-0.278205 26.5632L-0.275256 26.5606L-0.309408 26.5219L-0.281397 26.5652C-0.280333 26.5645 -0.279269 26.5638 -0.278205 26.5632ZM-0.763232 28.5819C-0.765609 28.5805 -0.767991 28.5791 -0.770379 28.5777L-0.796908 28.6219L-0.757487 28.5887L-0.763232 28.5819ZM-0.559646 28.5829L-0.564686 28.589L-0.525033 28.6219L-0.553634 28.579C-0.555633 28.5804 -0.557637 28.5816 -0.559646 28.5829ZM2.28739 25.3486C2.29108 25.3649 2.29812 25.3801 2.30811 25.3936C2.34022 25.437 2.39712 25.4564 2.4461 25.4662L2.45622 25.4157L2.46088 25.3643L2.28739 25.3486ZM2.24175 25.6641L2.25649 25.6507L2.22184 25.6126V25.6641H2.24175ZM1.79415 26.0703L1.7486 26.0323L1.71559 26.0719L1.75024 26.1101L1.79415 26.0703ZM2.29446 27.097L2.23902 27.136L2.26872 27.1782L2.31728 27.1608L2.29446 27.097ZM2.62174 26.8664L2.63156 26.9015L2.68122 26.8875L2.65152 26.8454L2.62174 26.8664ZM2.92588 25.3164L2.94714 25.3497L2.99059 25.3219L2.95246 25.2872L2.92588 25.3164ZM5.67881 25.6686C5.66616 25.6745 5.65957 25.6841 5.65837 25.6858C5.65496 25.6908 5.65345 25.695 5.65316 25.6958C5.65275 25.697 5.65256 25.6977 5.65255 25.6978C5.65255 25.6978 5.65268 25.6973 5.6529 25.6961C5.65358 25.6925 5.65442 25.6866 5.65538 25.6781C5.66333 25.6751 5.67114 25.672 5.67881 25.6686ZM5.67881 25.6686C5.68458 25.666 5.69161 25.6641 5.69997 25.6641C5.69291 25.6641 5.68592 25.6656 5.67945 25.6684C5.67924 25.6685 5.67902 25.6686 5.67881 25.6686ZM4.08747 23.7188L4.04622 23.7497L3.99664 23.6836C4.0213 23.6776 4.04207 23.6736 4.05689 23.6712C4.06445 23.6699 4.07048 23.669 4.07473 23.6684C4.07686 23.6682 4.07853 23.6679 4.07974 23.6678L4.08118 23.6676L4.08162 23.6676L4.08177 23.6676C4.0818 23.6676 4.08188 23.6675 4.08747 23.7188ZM4.28173 23.6266L4.24156 23.6608L4.27497 23.7001L4.31499 23.6675L4.28173 23.6266ZM9.93337 28.4386C9.92269 28.443 9.91153 28.4475 9.89986 28.4521L9.91871 28.5001L9.95745 28.466L9.93337 28.4386ZM10.2031 28.0864L10.2173 28.1027L10.2562 28.0688L10.2048 28.0651C10.2043 28.0724 10.2037 28.0795 10.2031 28.0864ZM6.91025 21.7399L6.86691 21.7761L6.89997 21.8157L6.94353 21.7881C6.93305 21.7715 6.92195 21.7555 6.91025 21.7399ZM8.65266 20.5247L8.64545 20.5317L8.68122 20.5688L8.66027 20.5217C8.65781 20.5228 8.65527 20.5238 8.65266 20.5247ZM8.32093 19.8028C8.32172 19.8036 8.32251 19.8045 8.32332 19.8055L8.36246 19.7719L8.31874 19.7993C8.31949 19.8004 8.32022 19.8016 8.32093 19.8028ZM7.63023 19.7281L7.63586 19.596L7.58434 19.5938L7.53822 19.6169C7.55897 19.6584 7.59236 19.6956 7.63023 19.7281ZM6.34793 20.7152L6.3641 20.6995L6.32809 20.6626L6.32538 20.714L6.34793 20.7152ZM5.6043 21.4407L5.60826 21.4289L5.55934 21.4126L5.59535 21.4495L5.6043 21.4407ZM5.52112 21.6903L5.52283 21.6938L5.48785 21.8548C5.48765 21.8557 5.48743 21.8566 5.48718 21.8575L5.52385 21.9337C5.51421 21.9419 5.50259 21.9519 5.48948 21.9631C5.45087 21.9962 5.39943 22.04 5.34803 22.0832C5.29654 22.1265 5.24542 22.1689 5.20732 22.1992C5.20233 22.2032 5.19761 22.2069 5.19318 22.2104C5.18597 22.2009 5.17816 22.1915 5.17063 22.1828C5.16549 22.1768 5.1603 22.171 5.15528 22.1655L5.47185 21.8822C5.47924 21.8756 5.48455 21.867 5.48718 21.8575M5.19318 22.2104C5.18059 22.2202 5.17038 22.2279 5.16299 22.2332C5.15843 22.2364 5.15624 22.2377 5.15579 22.238C5.1557 22.238 5.15575 22.238 5.15579 22.238C5.15601 22.2379 5.15689 22.2374 5.15839 22.2368C5.15954 22.2364 5.16307 22.235 5.16805 22.2342C5.17134 22.2337 5.1855 22.2315 5.20074 22.2402C5.22108 22.2518 5.22653 22.2719 5.22653 22.2844C5.22653 22.2697 5.22149 22.2571 5.2181 22.2498C5.21423 22.2415 5.20931 22.2334 5.20446 22.2261C5.20098 22.2209 5.19717 22.2157 5.19318 22.2104ZM5.15528 22.1655L5.1156 22.201L5.08122 22.1626L5.11768 22.1261C5.12144 22.1299 5.13728 22.1457 5.15528 22.1655ZM5.52112 21.6903L5.52828 21.6688L5.53473 21.6391C5.53751 21.6263 5.53531 21.6129 5.52855 21.6016L5.47289 21.5089L5.51042 21.3962C5.51302 21.3884 5.51745 21.3814 5.52333 21.3756L6.29208 20.6256C6.30239 20.6156 6.31642 20.6103 6.3308 20.6111L6.8433 20.638L6.82728 20.653L6.86246 20.6907L6.86518 20.6392L6.8433 20.638L7.51497 20.0111L7.51407 20.0322L7.56559 20.0344L7.53041 19.9967L7.51497 20.0111L7.53282 19.5916C7.53382 19.5681 7.55058 19.5483 7.57356 19.5434C7.59655 19.5385 7.61995 19.5497 7.63046 19.5707C7.64643 19.6027 7.67855 19.6368 7.72333 19.6708C7.76741 19.7043 7.82007 19.7349 7.87224 19.761C7.92426 19.787 7.97465 19.8079 8.01354 19.8223C8.03099 19.8287 8.04584 19.8338 8.05724 19.8373C8.05361 19.8413 8.05053 19.8447 8.04783 19.8475C8.04501 19.8505 8.04402 19.8513 8.04429 19.8511C8.04439 19.851 8.04607 19.8496 8.04896 19.848C8.05081 19.847 8.05935 19.8422 8.07184 19.8422C8.07439 19.8422 8.07619 19.8425 8.07668 19.8426C8.07712 19.8426 8.07648 19.8426 8.07433 19.8421C8.07141 19.8414 8.067 19.8402 8.06104 19.8384C8.05982 19.8381 8.05856 19.8377 8.05724 19.8373C8.05935 19.8349 8.06164 19.8323 8.06415 19.8295C8.06623 19.8272 8.06846 19.8247 8.07086 19.822C8.09032 19.8002 8.11769 19.7701 8.14899 19.744C8.17939 19.7187 8.21901 19.6923 8.2636 19.6848C8.31322 19.6763 8.36217 19.6924 8.40161 19.7384C8.40329 19.7403 8.40482 19.7424 8.40619 19.7446C8.43153 19.7851 8.44667 19.82 8.45268 19.8519C8.45899 19.8853 8.45474 19.9126 8.44597 19.9363C8.44187 19.9474 8.43697 19.9571 8.43281 19.965C8.43124 19.968 8.42986 19.9706 8.4286 19.973C8.42614 19.9775 8.42414 19.9813 8.42203 19.9856C8.4209 19.9879 8.41989 19.9902 8.419 19.9923L8.39203 19.9734L8.36246 20.0157H8.41403C8.41403 20.0074 8.41566 20.0003 8.419 19.9923L8.45608 20.0183L8.42646 20.0392L8.45621 20.0813L8.48578 20.0391L8.45608 20.0183L11.1733 18.0986C11.1954 18.083 11.2257 18.087 11.2428 18.1078M5.52385 21.9337C5.5284 21.9297 5.5325 21.9262 5.53611 21.9231L5.55369 21.908L5.58747 21.9469L5.54101 21.9693L5.52385 21.9337ZM5.124 22.2921C5.12421 22.2925 5.12439 22.2929 5.12454 22.2932C5.12581 22.2959 5.1234 22.2921 5.1234 22.2844C5.1234 22.2868 5.12358 22.2894 5.124 22.2921ZM5.39063 21.8165L5.38708 21.8328L5.43747 21.8438L5.40308 21.8054L5.39063 21.8165ZM5.74684 24.8157L5.79838 24.8173C5.79922 24.7903 5.77897 24.7672 5.75208 24.7644L5.74684 24.8157Z" fill="black"/>
</g>
</g>
</g>
<defs>
<clipPath id="clip0_191_23380">
<rect width="48" height="48" fill="white"/>
</clipPath>
<clipPath id="clip1_191_23380">
<rect width="64" height="48" fill="white" transform="translate(-9)"/>
</clipPath>
</defs>
</svg>
