<svg width="48" height="48" viewBox="0 0 48 48" fill="none" xmlns="http://www.w3.org/2000/svg">
<g clip-path="url(#clip0_152_51423)">
<mask id="mask0_152_51423" style="mask-type:alpha" maskUnits="userSpaceOnUse" x="0" y="0" width="48" height="48">
<circle cx="24" cy="24" r="24" fill="#D9D9D9"/>
</mask>
<g mask="url(#mask0_152_51423)">
<g clip-path="url(#clip1_152_51423)">
<path fill-rule="evenodd" clip-rule="evenodd" d="M-18 0H66V48H-18V0Z" fill="white"/>
<path fill-rule="evenodd" clip-rule="evenodd" d="M-18 32.2313H66V48H-18V32.2313Z" fill="#DA0000"/>
<path fill-rule="evenodd" clip-rule="evenodd" d="M-2.02502 32.9062H2.56873V33.2156H-2.02502V32.9062ZM-1.34065 34.4812H-1.0219V34.7906H-1.34065V34.4812ZM2.58747 34.4812V34.7906H1.66873V34.4719L2.58747 34.4812ZM3.07498 32.9062H3.39373V34.7812H3.07498V32.9062Z" fill="white"/>
<path fill-rule="evenodd" clip-rule="evenodd" d="M4.91243 34.4719V34.7906H3.16868V34.4719H4.91243ZM1.66868 33.7313H1.96868V34.7906H1.6593L1.66868 33.7313Z" fill="white"/>
<path fill-rule="evenodd" clip-rule="evenodd" d="M4.64998 32.9062H4.96873V34.7812H4.64998V32.9062ZM3.86248 32.9062H4.17185V34.7812H3.86248V32.9062ZM-0.337524 33.6562V33.975H-2.02502V33.6562H-0.337524ZM3.34685 33.6562V33.975H1.65935V33.6562H3.34685Z" fill="white"/>
<path fill-rule="evenodd" clip-rule="evenodd" d="M1.66868 33.7406H1.96868V34.7812H1.6593L1.66868 33.7406Z" fill="white"/>
<path fill-rule="evenodd" clip-rule="evenodd" d="M1.66868 33.7406H1.96868V34.7812H1.6593L1.66868 33.7406Z" fill="white"/>
<path fill-rule="evenodd" clip-rule="evenodd" d="M1.66875 33.7406H1.96875V34.7812H1.65937L1.66875 33.7406ZM-2.01562 33.7406H-1.70625V34.7812H-2.01562V33.7406ZM0.684375 33.7406H1.00312V34.7812H0.684375V33.7406ZM-0.65625 33.7406H-0.3375V34.7812H-0.65625V33.7406Z" fill="white"/>
<path fill-rule="evenodd" clip-rule="evenodd" d="M0.9 34.4719V34.7906H-0.515625V34.4719H0.9ZM0.99375 33.6562V33.975H0.0937499V33.6562H0.99375Z" fill="white"/>
<path fill-rule="evenodd" clip-rule="evenodd" d="M5.46558 32.9062H10.0593V33.2156H5.46558V32.9062ZM6.14995 34.4812H6.4687V34.7906H6.14995V34.4812ZM10.0781 34.4812V34.7906H9.15933V34.4719L10.0781 34.4812ZM10.575 32.9062H10.8937V34.7812H10.575V32.9062Z" fill="white"/>
<path fill-rule="evenodd" clip-rule="evenodd" d="M12.4031 34.4719V34.7906H10.6593V34.4719H12.4031ZM9.1593 33.7313H9.47805V34.7906H9.1593V33.7313Z" fill="white"/>
<path fill-rule="evenodd" clip-rule="evenodd" d="M12.1406 32.9062H12.4593V34.7812H12.1406V32.9062ZM11.3531 32.9062H11.6718V34.7812H11.3437L11.3531 32.9062ZM7.15308 33.6562V33.975H5.46558V33.6562H7.15308ZM10.8375 33.6562V33.975H9.14995V33.6562H10.8375Z" fill="white"/>
<path fill-rule="evenodd" clip-rule="evenodd" d="M9.1593 33.7406H9.47805V34.7812H9.1593V33.7406Z" fill="white"/>
<path fill-rule="evenodd" clip-rule="evenodd" d="M9.1593 33.7406H9.47805V34.7812H9.1593V33.7406Z" fill="white"/>
<path fill-rule="evenodd" clip-rule="evenodd" d="M9.15935 33.7406H9.4781V34.7812H9.15935V33.7406ZM5.47498 33.7406H5.79373V34.7812H5.47498V33.7406ZM8.17498 33.7406H8.49373V34.7812H8.17498V33.7406ZM6.83435 33.7406H7.1531V34.7812H6.83435V33.7406Z" fill="white"/>
<path fill-rule="evenodd" clip-rule="evenodd" d="M8.39998 34.4719V34.7906H6.97498V34.4719H8.39998ZM8.49373 33.6562V33.975H7.59373V33.6562H8.49373Z" fill="white"/>
<path fill-rule="evenodd" clip-rule="evenodd" d="M13.0031 32.9062H17.6062V33.2156H13.0125L13.0031 32.9062ZM13.6969 34.4812H14.0062V34.7906H13.6969V34.4812ZM17.6156 34.4812V34.7906H16.6969V34.4719L17.6156 34.4812ZM18.1125 32.9062H18.4312V34.7812H18.1125V32.9062Z" fill="white"/>
<path fill-rule="evenodd" clip-rule="evenodd" d="M19.95 34.4719V34.7906H18.2062V34.4719H19.95ZM16.6968 33.7313H17.0156V34.7906H16.6968V33.7313Z" fill="white"/>
<path fill-rule="evenodd" clip-rule="evenodd" d="M19.6875 32.9062H20.0063V34.7812H19.6875V32.9062ZM18.8906 32.9062H19.2094V34.7812H18.8906V32.9062ZM14.6906 33.6562V33.975H13.0125V33.6562H14.6906ZM18.375 33.6562V33.975H16.6969V33.6562H18.375Z" fill="white"/>
<path fill-rule="evenodd" clip-rule="evenodd" d="M16.6968 33.7406H17.0156V34.7812H16.6968V33.7406Z" fill="white"/>
<path fill-rule="evenodd" clip-rule="evenodd" d="M16.6968 33.7406H17.0156V34.7812H16.6968V33.7406Z" fill="white"/>
<path fill-rule="evenodd" clip-rule="evenodd" d="M16.6969 33.7406H17.0156V34.7812H16.6969V33.7406ZM13.0125 33.7406H13.3313V34.7812H13.0125V33.7406ZM15.7125 33.7406H16.0313V34.7812H15.7125V33.7406ZM14.3813 33.7406H14.6906V34.7812H14.3813V33.7406Z" fill="white"/>
<path fill-rule="evenodd" clip-rule="evenodd" d="M15.9375 34.4719V34.7906H14.5219V34.4719H15.9375ZM16.0312 33.6562V33.975H15.1312V33.6562H16.0312Z" fill="white"/>
<path fill-rule="evenodd" clip-rule="evenodd" d="M20.5781 32.9062H25.1719V33.2156H20.5781V32.9062ZM21.2625 34.4812H21.5812V34.7906H21.2625V34.4812ZM25.1906 34.4812V34.7906H24.2719V34.4719L25.1906 34.4812ZM25.6875 32.9062H25.9969V34.7812H25.6875V32.9062Z" fill="white"/>
<path fill-rule="evenodd" clip-rule="evenodd" d="M27.5156 34.4719V34.7906H25.7719V34.4719H27.5156ZM24.2719 33.7313H24.5906V34.7906H24.2719V33.7313Z" fill="white"/>
<path fill-rule="evenodd" clip-rule="evenodd" d="M27.2531 32.9062H27.5719V34.7812H27.2531V32.9062ZM26.4656 32.9062H26.7844V34.7812H26.4656V32.9062ZM22.2656 33.6562V33.975H20.5781V33.6562H22.2656ZM25.95 33.6562V33.975H24.2625V33.6562H25.95Z" fill="white"/>
<path fill-rule="evenodd" clip-rule="evenodd" d="M24.2719 33.7406H24.5906V34.7812H24.2719V33.7406Z" fill="white"/>
<path fill-rule="evenodd" clip-rule="evenodd" d="M24.2719 33.7406H24.5906V34.7812H24.2719V33.7406Z" fill="white"/>
<path fill-rule="evenodd" clip-rule="evenodd" d="M24.2719 33.7406H24.5906V34.7812H24.2719V33.7406ZM20.5875 33.7406H20.8969V34.7812H20.5875V33.7406ZM23.2875 33.7406H23.6063V34.7812H23.2875V33.7406ZM21.9469 33.7406H22.2656V34.7812H21.9375L21.9469 33.7406Z" fill="white"/>
<path fill-rule="evenodd" clip-rule="evenodd" d="M23.5125 34.4719V34.7906H22.0875V34.4719H23.5125ZM23.6063 33.6562V33.975H22.6875V33.6562H23.6063Z" fill="white"/>
<path fill-rule="evenodd" clip-rule="evenodd" d="M-18 0H66V15.7688H-18V0Z" fill="#239F40"/>
<path fill-rule="evenodd" clip-rule="evenodd" d="M28.1906 32.9062H32.7844V33.2156H28.1906V32.9062ZM28.875 34.4812H29.1937V34.7906H28.875V34.4812ZM32.8031 34.4812V34.7906H31.875V34.4719L32.8031 34.4812ZM33.3 32.9062H33.6094V34.7812H33.3V32.9062Z" fill="white"/>
<path fill-rule="evenodd" clip-rule="evenodd" d="M35.1281 34.4719V34.7906H33.3844V34.4719H35.1281ZM31.8844 33.7313H32.2031V34.7906H31.875L31.8844 33.7313Z" fill="white"/>
<path fill-rule="evenodd" clip-rule="evenodd" d="M34.875 32.9062H35.1844V34.7812H34.875V32.9062ZM34.0781 32.9062H34.3969V34.7812H34.0781V32.9062ZM29.8781 33.6562V33.975H28.1906V33.6562H29.8781ZM33.5625 33.6562V33.975H31.875V33.6562H33.5625Z" fill="white"/>
<path fill-rule="evenodd" clip-rule="evenodd" d="M31.875 33.7406H32.2031V34.7812H31.875V33.7406Z" fill="white"/>
<path fill-rule="evenodd" clip-rule="evenodd" d="M31.875 33.7406H32.2031V34.7812H31.875V33.7406Z" fill="white"/>
<path fill-rule="evenodd" clip-rule="evenodd" d="M31.875 33.7406H32.2031V34.7812H31.875V33.7406ZM28.2 33.7406H28.5188V34.7812H28.2V33.7406ZM30.9 33.7406H31.2188V34.7812H30.9V33.7406ZM29.5594 33.7406H29.8781V34.7812H29.5594V33.7406Z" fill="white"/>
<path fill-rule="evenodd" clip-rule="evenodd" d="M31.125 34.4719V34.7906H29.7V34.4719H31.125ZM31.2188 33.6562V33.975H30.3188V33.6562H31.2188Z" fill="white"/>
<path fill-rule="evenodd" clip-rule="evenodd" d="M35.7562 32.9062H40.35V33.2156H35.7562V32.9062ZM36.4406 34.4812H36.7594V34.7906H36.4406V34.4812ZM40.3781 34.4812V34.7906H39.45V34.4719L40.3781 34.4812ZM40.8656 32.9062H41.1843V34.7812H40.8656V32.9062Z" fill="white"/>
<path fill-rule="evenodd" clip-rule="evenodd" d="M42.6937 34.4719V34.7906H40.95V34.4719H42.6937ZM39.45 33.7313H39.7687V34.7906H39.45V33.7313Z" fill="white"/>
<path fill-rule="evenodd" clip-rule="evenodd" d="M42.4406 32.9062H42.75V34.7812H42.4406V32.9062ZM41.6438 32.9062H41.9625V34.7812H41.6438V32.9062ZM37.4437 33.6562V33.975H35.7656V33.6562H37.4437ZM41.1281 33.6562V33.975H39.45V33.6562H41.1281Z" fill="white"/>
<path fill-rule="evenodd" clip-rule="evenodd" d="M39.45 33.7406H39.7687V34.7812H39.45V33.7406Z" fill="white"/>
<path fill-rule="evenodd" clip-rule="evenodd" d="M39.45 33.7406H39.7687V34.7812H39.45V33.7406Z" fill="white"/>
<path fill-rule="evenodd" clip-rule="evenodd" d="M39.45 33.7406H39.7688V34.7812H39.45V33.7406ZM35.7656 33.7406H36.0844V34.7812H35.7656V33.7406ZM38.4656 33.7406H38.7844V34.7812H38.4656V33.7406ZM37.125 33.7406H37.4437V34.7812H37.1344L37.125 33.7406Z" fill="white"/>
<path fill-rule="evenodd" clip-rule="evenodd" d="M38.6906 34.4719V34.7906H37.275V34.4719H38.6906ZM38.7843 33.6562V33.975H37.875V33.6562H38.7843Z" fill="white"/>
<path fill-rule="evenodd" clip-rule="evenodd" d="M43.3312 32.9062H47.925V33.2156H43.3312V32.9062ZM44.0156 34.4812H44.3344V34.7906H44.0156V34.4812ZM47.9437 34.4812V34.7906H47.025V34.4719L47.9437 34.4812ZM48.4312 32.9062H48.75V34.7812H48.4312V32.9062Z" fill="white"/>
<path fill-rule="evenodd" clip-rule="evenodd" d="M50.2688 34.4719V34.7906H48.525V34.4719H50.2688ZM47.0156 33.7313H47.3344V34.7906H47.0156V33.7313Z" fill="white"/>
<path fill-rule="evenodd" clip-rule="evenodd" d="M50.0062 32.9062H50.325V34.7812H50.0062V32.9062ZM49.2187 32.9062H49.5281V34.7812H49.2187V32.9062ZM45.0187 33.6562V33.975H43.3312V33.6562H45.0187ZM48.7031 33.6562V33.975H47.0156V33.6562H48.7031Z" fill="white"/>
<path fill-rule="evenodd" clip-rule="evenodd" d="M47.025 33.7406H47.3343V34.7812H47.025V33.7406Z" fill="white"/>
<path fill-rule="evenodd" clip-rule="evenodd" d="M47.025 33.7406H47.3343V34.7812H47.025V33.7406Z" fill="white"/>
<path fill-rule="evenodd" clip-rule="evenodd" d="M47.025 33.7406H47.3344V34.7812H47.025V33.7406ZM43.3312 33.7406H43.65V34.7812H43.3312V33.7406ZM46.0406 33.7406H46.35V34.7812H46.0406V33.7406ZM44.7 33.7406H45.0187V34.7812H44.7V33.7406Z" fill="white"/>
<path fill-rule="evenodd" clip-rule="evenodd" d="M46.2563 34.4719V34.7906H44.8406V34.4719H46.2563ZM46.35 33.6562V33.975H45.45V33.6562H46.35Z" fill="white"/>
<path fill-rule="evenodd" clip-rule="evenodd" d="M-2.02502 13.4437H2.56873V13.7625H-2.02502V13.4437ZM-1.34065 15.0375H-1.0219V15.3375H-1.34065V15.0375ZM2.58747 15.0187V15.3375H1.66873V15.0187H2.58747ZM3.07498 13.4437H3.39373V15.3375H3.07498V13.4437Z" fill="white"/>
<path fill-rule="evenodd" clip-rule="evenodd" d="M4.91243 15.0187V15.3375H3.16868V15.0187H4.91243ZM1.66868 14.2781H1.96868V15.3375H1.6593L1.66868 14.2781Z" fill="white"/>
<path fill-rule="evenodd" clip-rule="evenodd" d="M4.64998 13.4437H4.96873V15.3375H4.64998V13.4437ZM3.86248 13.4437H4.17185V15.3375H3.86248V13.4437ZM-0.337524 14.1937V14.5125H-2.02502V14.2031L-0.337524 14.1937ZM3.34685 14.1937V14.5125H1.65935V14.2031L3.34685 14.1937Z" fill="white"/>
<path fill-rule="evenodd" clip-rule="evenodd" d="M1.66868 14.2781H1.96868V15.3375H1.6593L1.66868 14.2781Z" fill="white"/>
<path fill-rule="evenodd" clip-rule="evenodd" d="M1.66868 14.2781H1.96868V15.3375H1.6593L1.66868 14.2781Z" fill="white"/>
<path fill-rule="evenodd" clip-rule="evenodd" d="M1.66875 14.2781H1.96875V15.3375H1.65937L1.66875 14.2781ZM-2.01562 14.2781H-1.70625V15.3375H-2.01562V14.2781ZM0.684375 14.2781H1.00312V15.3375H0.684375V14.2781ZM-0.65625 14.2781H-0.3375V15.3375H-0.65625V14.2781Z" fill="white"/>
<path fill-rule="evenodd" clip-rule="evenodd" d="M0.9 15.0187V15.3375H-0.515625V15.0187H0.9ZM0.99375 14.2031V14.5125H0.0937499V14.2031H0.99375Z" fill="white"/>
<path fill-rule="evenodd" clip-rule="evenodd" d="M5.46558 13.4437H10.0593V13.7625H5.46558V13.4437ZM6.14995 15.0375H6.4687V15.3375H6.14995V15.0375ZM10.0781 15.0187V15.3375H9.15933V15.0187H10.0781ZM10.575 13.4437H10.8937V15.3375H10.575V13.4437Z" fill="white"/>
<path fill-rule="evenodd" clip-rule="evenodd" d="M12.4031 15.0187V15.3375H10.6593V15.0187H12.4031ZM9.1593 14.2781H9.47805V15.3375H9.1593V14.2781Z" fill="white"/>
<path fill-rule="evenodd" clip-rule="evenodd" d="M12.1406 13.4437H12.4593V15.3375H12.1406V13.4437ZM11.3531 13.4437H11.6718V15.3375H11.3437L11.3531 13.4437ZM7.15308 14.1937V14.5125H5.46558V14.2031L7.15308 14.1937ZM10.8375 14.1937V14.5125H9.14995V14.2031L10.8375 14.1937Z" fill="white"/>
<path fill-rule="evenodd" clip-rule="evenodd" d="M9.1593 14.2781H9.47805V15.3375H9.1593V14.2781Z" fill="white"/>
<path fill-rule="evenodd" clip-rule="evenodd" d="M9.1593 14.2781H9.47805V15.3375H9.1593V14.2781Z" fill="white"/>
<path fill-rule="evenodd" clip-rule="evenodd" d="M9.15935 14.2781H9.4781V15.3375H9.15935V14.2781ZM5.47498 14.2781H5.79373V15.3375H5.47498V14.2781ZM8.17498 14.2781H8.49373V15.3375H8.17498V14.2781ZM6.83435 14.2781H7.1531V15.3375H6.83435V14.2781Z" fill="white"/>
<path fill-rule="evenodd" clip-rule="evenodd" d="M8.39998 15.0187V15.3375H6.97498V15.0187H8.39998ZM8.49373 14.2031V14.5125H7.59373V14.2031H8.49373Z" fill="white"/>
<path fill-rule="evenodd" clip-rule="evenodd" d="M13.0031 13.4437H17.6062V13.7625H13.0125L13.0031 13.4437ZM13.6969 15.0375H14.0062V15.3375H13.6969V15.0375ZM17.6156 15.0187V15.3375H16.6969V15.0187H17.6156ZM18.1125 13.4437H18.4312V15.3375H18.1125V13.4437Z" fill="white"/>
<path fill-rule="evenodd" clip-rule="evenodd" d="M19.95 15.0187V15.3375H18.2062V15.0187H19.95ZM16.6968 14.2781H17.0156V15.3375H16.6968V14.2781Z" fill="white"/>
<path fill-rule="evenodd" clip-rule="evenodd" d="M19.6875 13.4437H20.0063V15.3375H19.6875V13.4437ZM18.8906 13.4437H19.2094V15.3375H18.8906V13.4437ZM14.6906 14.1937V14.5125H13.0125V14.2031L14.6906 14.1937ZM18.375 14.1937V14.5125H16.6969V14.2031L18.375 14.1937Z" fill="white"/>
<path fill-rule="evenodd" clip-rule="evenodd" d="M16.6968 14.2781H17.0156V15.3375H16.6968V14.2781Z" fill="white"/>
<path fill-rule="evenodd" clip-rule="evenodd" d="M16.6968 14.2781H17.0156V15.3375H16.6968V14.2781Z" fill="white"/>
<path fill-rule="evenodd" clip-rule="evenodd" d="M16.6969 14.2781H17.0156V15.3375H16.6969V14.2781ZM13.0125 14.2781H13.3313V15.3375H13.0125V14.2781ZM15.7125 14.2781H16.0313V15.3375H15.7125V14.2781ZM14.3813 14.2781H14.6906V15.3375H14.3813V14.2781Z" fill="white"/>
<path fill-rule="evenodd" clip-rule="evenodd" d="M15.9375 15.0187V15.3375H14.5219V15.0187H15.9375ZM16.0312 14.2031V14.5125H15.1312V14.2031H16.0312Z" fill="white"/>
<path fill-rule="evenodd" clip-rule="evenodd" d="M20.5781 13.4437H25.1719V13.7625H20.5781V13.4437ZM21.2625 15.0375H21.5812V15.3375H21.2625V15.0375ZM25.1906 15.0187V15.3375H24.2719V15.0187H25.1906ZM25.6875 13.4437H25.9969V15.3375H25.6875V13.4437Z" fill="white"/>
<path fill-rule="evenodd" clip-rule="evenodd" d="M27.5156 15.0187V15.3375H25.7719V15.0187H27.5156ZM24.2719 14.2781H24.5906V15.3375H24.2719V14.2781Z" fill="white"/>
<path fill-rule="evenodd" clip-rule="evenodd" d="M27.2531 13.4437H27.5719V15.3375H27.2531V13.4437ZM26.4656 13.4437H26.7844V15.3375H26.4656V13.4437ZM22.2656 14.1937V14.5125H20.5781V14.2031L22.2656 14.1937ZM25.95 14.1937V14.5125H24.2625V14.2031L25.95 14.1937Z" fill="white"/>
<path fill-rule="evenodd" clip-rule="evenodd" d="M24.2719 14.2781H24.5906V15.3375H24.2719V14.2781Z" fill="white"/>
<path fill-rule="evenodd" clip-rule="evenodd" d="M24.2719 14.2781H24.5906V15.3375H24.2719V14.2781Z" fill="white"/>
<path fill-rule="evenodd" clip-rule="evenodd" d="M24.2719 14.2781H24.5906V15.3375H24.2719V14.2781ZM20.5875 14.2781H20.8969V15.3375H20.5875V14.2781ZM23.2875 14.2781H23.6063V15.3375H23.2875V14.2781ZM21.9469 14.2781H22.2656V15.3375H21.9375L21.9469 14.2781Z" fill="white"/>
<path fill-rule="evenodd" clip-rule="evenodd" d="M23.5125 15.0187V15.3375H22.0875V15.0187H23.5125ZM23.6063 14.2031V14.5125H22.6875V14.2031H23.6063Z" fill="white"/>
<path fill-rule="evenodd" clip-rule="evenodd" d="M28.1906 13.4437H32.7844V13.7625H28.1906V13.4437ZM28.875 15.0375H29.1937V15.3375H28.875V15.0375ZM32.8031 15.0187V15.3375H31.875V15.0187H32.8031ZM33.3 13.4437H33.6094V15.3375H33.3V13.4437Z" fill="white"/>
<path fill-rule="evenodd" clip-rule="evenodd" d="M35.1281 15.0187V15.3375H33.3844V15.0187H35.1281ZM31.8844 14.2781H32.2031V15.3375H31.875L31.8844 14.2781Z" fill="white"/>
<path fill-rule="evenodd" clip-rule="evenodd" d="M34.875 13.4437H35.1844V15.3375H34.875V13.4437ZM34.0781 13.4437H34.3969V15.3375H34.0781V13.4437ZM29.8781 14.1937V14.5125H28.1906V14.2031L29.8781 14.1937ZM33.5625 14.1937V14.5125H31.875V14.2031L33.5625 14.1937Z" fill="white"/>
<path fill-rule="evenodd" clip-rule="evenodd" d="M31.875 14.2781H32.2031V15.3375H31.875V14.2781Z" fill="white"/>
<path fill-rule="evenodd" clip-rule="evenodd" d="M31.875 14.2781H32.2031V15.3375H31.875V14.2781Z" fill="white"/>
<path fill-rule="evenodd" clip-rule="evenodd" d="M31.875 14.2781H32.2031V15.3375H31.875V14.2781ZM28.2 14.2781H28.5188V15.3375H28.2V14.2781ZM30.9 14.2781H31.2188V15.3375H30.9V14.2781ZM29.5594 14.2781H29.8781V15.3375H29.5594V14.2781Z" fill="white"/>
<path fill-rule="evenodd" clip-rule="evenodd" d="M31.125 15.0187V15.3375H29.7V15.0187H31.125ZM31.2188 14.2031V14.5125H30.3188V14.2031H31.2188Z" fill="white"/>
<path fill-rule="evenodd" clip-rule="evenodd" d="M35.7562 13.4437H40.35V13.7625H35.7562V13.4437ZM36.4406 15.0375H36.7594V15.3375H36.4406V15.0375ZM40.3781 15.0187V15.3375H39.45V15.0187H40.3781ZM40.8656 13.4437H41.1843V15.3375H40.8656V13.4437Z" fill="white"/>
<path fill-rule="evenodd" clip-rule="evenodd" d="M42.6937 15.0187V15.3375H40.95V15.0187H42.6937ZM39.45 14.2781H39.7687V15.3375H39.45V14.2781Z" fill="white"/>
<path fill-rule="evenodd" clip-rule="evenodd" d="M42.4406 13.4437H42.75V15.3375H42.4406V13.4437ZM41.6438 13.4437H41.9625V15.3375H41.6438V13.4437ZM37.4437 14.1937V14.5125H35.7656V14.2031L37.4437 14.1937ZM41.1281 14.1937V14.5125H39.45V14.2031L41.1281 14.1937Z" fill="white"/>
<path fill-rule="evenodd" clip-rule="evenodd" d="M39.45 14.2781H39.7687V15.3375H39.45V14.2781Z" fill="white"/>
<path fill-rule="evenodd" clip-rule="evenodd" d="M39.45 14.2781H39.7687V15.3375H39.45V14.2781Z" fill="white"/>
<path fill-rule="evenodd" clip-rule="evenodd" d="M39.45 14.2781H39.7688V15.3375H39.45V14.2781ZM35.7656 14.2781H36.0844V15.3375H35.7656V14.2781ZM38.4656 14.2781H38.7844V15.3375H38.4656V14.2781ZM37.125 14.2781H37.4437V15.3375H37.1344L37.125 14.2781Z" fill="white"/>
<path fill-rule="evenodd" clip-rule="evenodd" d="M38.6906 15.0187V15.3375H37.275V15.0187H38.6906ZM38.7843 14.2031V14.5125H37.875V14.2031H38.7843Z" fill="white"/>
<path fill-rule="evenodd" clip-rule="evenodd" d="M43.3312 13.4437H47.925V13.7625H43.3312V13.4437ZM44.0156 15.0375H44.3344V15.3375H44.0156V15.0375ZM47.9437 15.0187V15.3375H47.025V15.0187H47.9437ZM48.4312 13.4437H48.75V15.3375H48.4312V13.4437Z" fill="white"/>
<path fill-rule="evenodd" clip-rule="evenodd" d="M50.2688 15.0187V15.3375H48.525V15.0187H50.2688ZM47.0156 14.2781H47.3344V15.3375H47.0156V14.2781Z" fill="white"/>
<path fill-rule="evenodd" clip-rule="evenodd" d="M50.0062 13.4437H50.325V15.3375H50.0062V13.4437ZM49.2187 13.4437H49.5281V15.3375H49.2187V13.4437ZM45.0187 14.1937V14.5125H43.3312V14.2031L45.0187 14.1937ZM48.7031 14.1937V14.5125H47.0156V14.2031L48.7031 14.1937Z" fill="white"/>
<path fill-rule="evenodd" clip-rule="evenodd" d="M47.025 14.2781H47.3343V15.3375H47.025V14.2781Z" fill="white"/>
<path fill-rule="evenodd" clip-rule="evenodd" d="M47.025 14.2781H47.3343V15.3375H47.025V14.2781Z" fill="white"/>
<path fill-rule="evenodd" clip-rule="evenodd" d="M47.025 14.2781H47.3344V15.3375H47.025V14.2781ZM43.3312 14.2781H43.65V15.3375H43.3312V14.2781ZM46.0406 14.2781H46.35V15.3375H46.0406V14.2781ZM44.7 14.2781H45.0187V15.3375H44.7V14.2781Z" fill="white"/>
<path fill-rule="evenodd" clip-rule="evenodd" d="M46.2563 15.0187V15.3375H44.8406V15.0187H46.2563ZM46.35 14.2031V14.5125H45.45V14.2031H46.35Z" fill="white"/>
<path fill-rule="evenodd" clip-rule="evenodd" d="M-6.45 31.8281H-5.8875V32.8125H-6.45V31.8281ZM8.59687 31.8281H9.15937V32.8125H8.59687V31.8281ZM-18 31.8281H-17.4375V32.8125H-18V31.8281ZM-10.3594 31.8281H-9.79688V32.8125H-10.3594V31.8281ZM-2.775 31.8281H-2.2125V32.8125H-2.775V31.8281ZM0.974998 31.8281H1.5375V32.8125H0.974998V31.8281ZM4.80937 31.8281H5.37187V32.8125H4.80937V31.8281ZM12.3469 31.8281H12.9094V32.8125H12.3469V31.8281ZM31.3781 31.8281H31.95V32.8125H31.3875L31.3781 31.8281ZM16.1812 31.8281H16.7437V32.8125H16.1812V31.8281ZM19.9312 31.8281H20.4937V32.8125H19.9312V31.8281ZM23.7281 31.8281H24.2906V32.8125H23.7281V31.8281ZM27.5156 31.8281H28.0781V32.8125H27.5156V31.8281ZM57.8156 31.8281H58.3781V32.8125H57.8156V31.8281ZM35.0625 31.8281H35.625V32.8125H35.0625V31.8281ZM38.8875 31.8281H39.45V32.8125H38.8875V31.8281ZM42.7594 31.8281H43.3219V32.8125H42.7594V31.8281ZM46.3969 31.8281H46.9594V32.8125H46.3969V31.8281ZM50.2687 31.8281H50.8312V32.8125H50.2687V31.8281ZM54.0562 31.8281H54.6187V32.8125H54.0562V31.8281ZM65.2781 31.8281H65.8406V32.8125H65.2781V31.8281ZM61.6406 31.8281H62.2031V32.8125H61.6406V31.8281ZM-14.1937 31.8281H-13.6312V32.8125H-14.1937V31.8281Z" fill="#D90000"/>
<path fill-rule="evenodd" clip-rule="evenodd" d="M-6.45 15.2438H-5.8875V16.2281H-6.45V15.2438ZM8.59687 15.2438H9.15937V16.2281H8.59687V15.2438ZM-18 15.2438H-17.4375V16.2281H-18V15.2438ZM-10.3594 15.2438H-9.79688V16.2281H-10.3594V15.2438ZM-2.775 15.2438H-2.2125V16.2281H-2.775V15.2438ZM0.974998 15.2438H1.5375V16.2281H0.974998V15.2438ZM4.80937 15.2438H5.37187V16.2281H4.80937V15.2438ZM12.3469 15.2438H12.9094V16.2281H12.3469V15.2438ZM31.3781 15.2438H31.95V16.2281H31.3875L31.3781 15.2438ZM16.1812 15.2438H16.7437V16.2281H16.1812V15.2438ZM19.9312 15.2438H20.4937V16.2281H19.9312V15.2438ZM23.7281 15.2438H24.2906V16.2281H23.7281V15.2438ZM27.5156 15.2438H28.0781V16.2281H27.5156V15.2438ZM57.8156 15.2438H58.3781V16.2281H57.8156V15.2438ZM35.0625 15.2438H35.625V16.2281H35.0625V15.2438ZM38.8875 15.2438H39.45V16.2281H38.8875V15.2438ZM42.7594 15.2438H43.3219V16.2281H42.7594V15.2438ZM46.3969 15.2438H46.9594V16.2281H46.3969V15.2438ZM50.2687 15.2438H50.8312V16.2281H50.2687V15.2438ZM54.0562 15.2438H54.6187V16.2281H54.0562V15.2438ZM65.2781 15.2438H65.8406V16.2281H65.2781V15.2438ZM61.6406 15.2438H62.2031V16.2281H61.6406V15.2438ZM-14.1937 15.2438H-13.6312V16.2281H-14.1937V15.2438Z" fill="#239E3F"/>
<path fill-rule="evenodd" clip-rule="evenodd" d="M26.2312 18.5156C27.0187 19.4906 29.4656 24.8531 24.7594 28.3781C22.5375 30.0469 23.9156 30.1219 23.9813 30.4031C27.5437 28.5187 28.6969 25.95 28.6687 23.6531C28.65 21.3656 27.4312 19.3406 26.2312 18.5156Z" fill="#DA0000"/>
<path fill-rule="evenodd" clip-rule="evenodd" d="M26.7 18.2625C27.5698 18.7917 28.3111 19.5077 28.8704 20.3585C29.4296 21.2094 29.7928 22.1739 29.9337 23.1823C30.0745 24.1907 29.9895 25.2178 29.6848 26.1894C29.3801 27.1609 28.8634 28.0526 28.1719 28.8C30.7219 28.2375 33.9844 20.7 26.7 18.2625ZM21.3 18.2625C20.4308 18.7925 19.6903 19.5091 19.132 20.3603C18.5736 21.2116 18.2114 22.1762 18.0714 23.1846C17.9315 24.193 18.0173 25.2198 18.3228 26.1909C18.6282 27.1621 19.1456 28.0532 19.8375 28.8C17.2781 28.2375 14.025 20.7 21.3 18.2625Z" fill="#DA0000"/>
<path fill-rule="evenodd" clip-rule="evenodd" d="M21.7687 18.5156C20.9812 19.4906 18.5344 24.8531 23.2406 28.3781C25.4531 30.0469 24.0844 30.1219 24.0188 30.4031C20.4563 28.5187 19.3031 25.95 19.3312 23.6531C19.35 21.3656 20.5687 19.3406 21.7687 18.5156Z" fill="#DA0000"/>
<path fill-rule="evenodd" clip-rule="evenodd" d="M28.5187 29.9156C27.1219 29.9344 25.3687 29.7281 24.0656 29.0437C24.2812 29.4656 24.4594 29.7281 24.675 30.1406C25.9125 30.2625 27.6281 30.4031 28.5187 29.9156ZM19.6125 29.9156C21.0094 29.9344 22.7625 29.7281 24.0656 29.0437C23.85 29.4656 23.6719 29.7281 23.4562 30.1406C22.2187 30.2625 20.5031 30.4031 19.6125 29.9156ZM22.1719 16.9125C22.4531 17.6625 23.1937 17.775 23.9812 17.3344C24.5625 17.6719 25.4531 17.7 25.7625 16.95C25.9969 18.8062 24.0469 18.3562 23.9812 18C23.25 18.7031 21.9 18.3 22.1719 16.9125Z" fill="#DA0000"/>
<path fill-rule="evenodd" clip-rule="evenodd" d="M24.0375 31.0875L24.7687 30.2437L24.8719 18.9843L24 18.2156L23.1281 18.9468L23.3062 30.2906L24.0375 31.0875Z" fill="#DA0000"/>
</g>
</g>
</g>
<defs>
<clipPath id="clip0_152_51423">
<rect width="48" height="48" fill="white"/>
</clipPath>
<clipPath id="clip1_152_51423">
<rect width="64" height="48" fill="white" transform="translate(-8)"/>
</clipPath>
</defs>
</svg>
