<svg width="48" height="48" viewBox="0 0 48 48" fill="none" xmlns="http://www.w3.org/2000/svg">
<g clip-path="url(#clip0_152_46387)">
<mask id="mask0_152_46387" style="mask-type:alpha" maskUnits="userSpaceOnUse" x="0" y="0" width="48" height="48">
<circle cx="24" cy="24" r="24" fill="#D9D9D9"/>
</mask>
<g mask="url(#mask0_152_46387)">
<g clip-path="url(#clip1_152_46387)">
<path d="M-8 0H56V48H-8V0Z" fill="#003399"/>
<path d="M23.9999 7.66959L23.4705 9.30144H21.748L23.1387 10.3105L22.6093 11.9503L23.9999 10.9412L25.3905 11.9503L24.8611 10.3105L26.2518 9.30144H24.5293L23.9999 7.66959Z" fill="#FFCC00"/>
<path d="M24.5293 37.6815L23.9999 36.0497L23.4705 37.6815H21.748L23.1387 38.6906L22.6093 40.3303L23.9999 39.3213L25.3905 40.3303L24.8611 38.6906L26.2518 37.6815H24.5293Z" fill="#FFCC00"/>
<path d="M9.77773 25.1312L11.1683 26.1403L10.639 24.5005L12.0296 23.4915H10.3071L9.77773 21.8596L9.24835 23.4915H7.52588L8.9165 24.5005L8.38711 26.1403L9.77773 25.1312Z" fill="#FFCC00"/>
<path d="M16.8888 9.56949L16.3594 11.2013H14.637L16.0276 12.2183L15.4982 13.8502L16.8888 12.8411L18.2794 13.8502L17.75 12.2183L19.1407 11.2013H17.4182L16.8888 9.56949Z" fill="#FFCC00"/>
<path d="M11.6819 14.7646L11.1525 16.3965H9.43005L10.8207 17.4055L10.2913 19.0453L11.6819 18.0362L13.0725 19.0453L12.5431 17.4055L13.9338 16.3965H12.2192L11.6819 14.7646Z" fill="#FFCC00"/>
<path d="M12.2192 30.5865L11.6819 28.9547L11.1525 30.5865H9.43005L10.8207 31.5956L10.2913 33.2353L11.6819 32.2262L13.0725 33.2353L12.5431 31.5956L13.9338 30.5865H12.2192Z" fill="#FFCC00"/>
<path d="M17.4182 35.7816L16.8888 34.1498L16.3594 35.7816H14.637L16.0276 36.7907L15.4982 38.4304L16.8888 37.4135L18.2794 38.4304L17.75 36.7907L19.1407 35.7816H17.4182Z" fill="#FFCC00"/>
<path d="M40.474 23.4915H38.7516L38.2222 21.8596L37.6928 23.4915H35.9703L37.361 24.5005L36.8316 26.1403L38.2222 25.1312L39.6128 26.1403L39.0834 24.5005L40.474 23.4915Z" fill="#FFCC00"/>
<path d="M31.1111 9.56949L30.5817 11.2013H28.8593L30.2499 12.2183L29.7205 13.8502L31.1111 12.8411L32.5017 13.8502L31.9723 12.2183L33.363 11.2013H31.6405L31.1111 9.56949Z" fill="#FFCC00"/>
<path d="M35.4568 17.4055L34.9274 19.0453L36.318 18.0362L37.7086 19.0453L37.1792 17.4055L38.5699 16.3965H36.8474L36.318 14.7646L35.7807 16.3965H34.0662L35.4568 17.4055Z" fill="#FFCC00"/>
<path d="M36.8474 30.5865L36.318 28.9547L35.7807 30.5865H34.0662L35.4568 31.5956L34.9274 33.2353L36.318 32.2262L37.7086 33.2353L37.1792 31.5956L38.5699 30.5865H36.8474Z" fill="#FFCC00"/>
<path d="M31.6405 35.7816L31.1111 34.1498L30.5817 35.7816H28.8593L30.2499 36.7907L29.7205 38.4304L31.1111 37.4135L32.5017 38.4304L31.9723 36.7907L33.363 35.7816H31.6405Z" fill="#FFCC00"/>
</g>
</g>
</g>
<defs>
<clipPath id="clip0_152_46387">
<rect width="48" height="48" fill="white"/>
</clipPath>
<clipPath id="clip1_152_46387">
<rect width="64" height="48" fill="white" transform="translate(-8)"/>
</clipPath>
</defs>
</svg>
