<svg width="48" height="48" viewBox="0 0 48 48" fill="none" xmlns="http://www.w3.org/2000/svg">
<g clip-path="url(#clip0_29_343)">
<mask id="mask0_29_343" style="mask-type:alpha" maskUnits="userSpaceOnUse" x="0" y="0" width="48" height="48">
<circle cx="24" cy="24" r="24" fill="#D9D9D9"/>
</mask>
<g mask="url(#mask0_29_343)">
<path fill-rule="evenodd" clip-rule="evenodd" d="M-11 0H53V48H-11V0Z" fill="#6FDCFF"/>
<path d="M33.1515 20.5914C33.1515 15.8375 29.0851 11.9837 24.0688 11.9837C19.0526 11.9837 14.9861 15.8375 14.9861 20.5914C14.9861 25.3454 19.0526 29.1992 24.0688 29.1992C29.0851 29.1992 33.1515 25.3454 33.1515 20.5914Z" fill="#FFE400"/>
<path fill-rule="evenodd" clip-rule="evenodd" d="M23.6418 6.84989C23.5565 6.84989 23.1509 9.71025 23.0015 10.3506C22.852 11.7915 24.9226 11.7381 24.5811 10.2973L23.6418 6.83922V6.84989ZM24.3676 34.5783C24.4423 34.5783 25.0614 31.75 25.2641 31.1203C25.5096 29.7008 23.4391 29.6261 23.6632 31.0776L24.3676 34.5783ZM9.89502 20.5327C9.89502 20.6074 12.8728 21.2051 13.5345 21.3972C15.0287 21.6427 15.1355 19.6895 13.5985 19.903L9.89502 20.5433V20.5327ZM38.8936 20.8742C38.8936 20.7995 35.8838 20.3085 35.2114 20.1378C33.7065 19.9563 33.6958 21.9095 35.2114 21.6427L38.8936 20.8742ZM12.9475 11.4606C12.8941 11.514 14.858 13.734 15.2529 14.2783C16.2775 15.3456 17.6329 13.8514 16.2775 13.1256L12.9475 11.4713V11.4606ZM35.4782 29.7115C35.5316 29.6581 33.3756 27.6089 32.9274 27.1072C31.8067 26.1253 30.6006 27.7156 32.0095 28.3346L35.4782 29.7221V29.7115ZM17.4408 8.36546C17.3768 8.39748 18.2947 11.1511 18.4441 11.8022C18.9564 13.1576 20.8135 12.2718 19.8529 11.1084L17.4515 8.36546H17.4408ZM30.5793 33.1695C30.654 33.1375 29.9389 30.3305 29.8429 29.6794C29.4266 28.2919 27.5161 29.0391 28.3807 30.2771L30.59 33.1588L30.5793 33.1695ZM33.8132 10.2866C33.7492 10.2332 31.3798 12.0583 30.8034 12.4212C29.6614 13.3818 31.209 14.6839 31.9988 13.4138L33.8132 10.2866ZM14.2816 30.9602C14.335 31.0136 16.8431 29.3592 17.4408 29.0284C18.6469 28.1532 17.206 26.7444 16.3202 27.9611L14.2923 30.9602H14.2816ZM10.5461 15.5804C10.5141 15.6444 13.1076 17.1493 13.6733 17.5442C15.0074 18.238 15.7865 16.4236 14.2603 16.1354L10.5461 15.5804ZM37.6235 26.0826C37.6555 26.0186 35.1687 24.3429 34.635 23.916C33.3543 23.1262 32.4471 24.8873 33.952 25.2715L37.6235 26.0826ZM29.021 7.62902C28.9463 7.60767 27.4628 10.1265 27.0679 10.6708C27.0686 10.8446 27.1237 11.0139 27.2255 11.1548C27.3273 11.2957 27.4706 11.4012 27.6354 11.4565C27.8002 11.5119 27.9782 11.5142 28.1444 11.4633C28.3105 11.4123 28.4566 11.3106 28.5621 11.1725L29.021 7.62902ZM18.9991 33.7032C19.0738 33.7352 20.7388 31.3124 21.1657 30.7894C21.9448 29.5514 20.0557 28.7616 19.7035 30.1917L18.9991 33.7032ZM10.7275 26.3068C10.7595 26.3708 13.716 25.6664 14.4097 25.5597C15.8612 25.1541 15.0501 23.361 13.7693 24.1935L10.7275 26.3068ZM37.6341 15.3456C37.6128 15.2816 34.6137 15.7832 33.9199 15.8472C32.4257 16.1567 33.1195 18.0032 34.4536 17.2561L37.6341 15.3456Z" fill="#FFE400"/>
<path fill-rule="evenodd" clip-rule="evenodd" d="M26.5875 7.03115C26.5128 7.02048 25.5096 9.74209 25.2107 10.3398C24.7731 11.7273 26.8117 12.0688 26.7796 10.5959L26.5982 7.02048L26.5875 7.03115ZM21.4111 34.3434C21.4858 34.3647 22.6919 31.7071 23.0334 31.1201C23.5671 29.7753 21.5605 29.3057 21.4858 30.7679L21.4004 34.3434H21.4111ZM20.3758 7.29798C20.3011 7.31932 20.5786 10.201 20.5786 10.8628C20.7814 12.2823 22.7773 11.7913 22.1155 10.4679L20.3758 7.29798ZM27.6335 34.1833C27.7082 34.1726 27.6335 31.2802 27.6868 30.6185C27.5908 29.1776 25.5522 29.5405 26.1286 30.9066L27.6228 34.1833H27.6335ZM15.2315 9.68873C15.1674 9.73142 16.5869 12.2823 16.8538 12.8906C17.6222 14.1394 19.2765 12.9653 18.1132 11.9727L15.2315 9.68873ZM32.8206 31.8779C32.8846 31.8352 31.6465 29.1883 31.4331 28.5693C30.7607 27.2778 29.0316 28.3451 30.1096 29.4018L32.8206 31.8779ZM11.4746 13.2749C11.4319 13.3389 13.7266 15.2387 14.2068 15.7296C15.3916 16.6262 16.4909 14.9612 15.0393 14.4382L11.4746 13.2749ZM36.4707 28.185C36.5134 28.121 34.3681 26.0718 33.9199 25.5595C32.8099 24.5882 31.5932 26.1785 33.002 26.7975L36.4707 28.185ZM9.83092 17.7468C9.80957 17.8216 12.6379 18.8995 13.257 19.209C14.6871 19.6893 15.1461 17.7789 13.5878 17.7362L9.83092 17.7468ZM38.3705 23.9158C38.4025 23.8518 35.6596 22.5924 35.0619 22.2402C33.6744 21.6638 33.066 23.5423 34.6136 23.6917L38.3705 23.9158ZM9.73486 23.2434C9.74554 23.3075 12.798 23.2648 13.4918 23.3181C15.0073 23.2434 14.6444 21.3116 13.1929 21.8346L9.73486 23.2434ZM38.5733 18.4406C38.5733 18.3659 35.5208 18.2058 34.8378 18.1097C33.3115 18.0884 33.5356 20.0415 35.0192 19.6039L38.5733 18.4299V18.4406ZM12.3497 28.9428C12.3924 29.0069 15.1247 27.7048 15.7651 27.4593C17.0886 26.7655 15.8718 25.1752 14.8152 26.2532L12.3497 28.9428ZM36.0758 12.6878C36.0331 12.6238 33.2261 13.7445 32.5537 13.9473C31.1769 14.5556 32.2762 16.2206 33.4076 15.2173L36.0758 12.6878ZM16.7897 32.7211C16.8538 32.7531 18.8069 30.5331 19.2979 30.0635C20.2264 28.9215 18.444 27.9289 17.9211 29.3164L16.7897 32.7211ZM31.6999 8.83489C31.6465 8.7922 29.5333 10.8734 29.0103 11.311C28.007 12.389 29.7147 13.499 30.3338 12.1542L31.6892 8.83489H31.6999Z" fill="#FFE400"/>
<path fill-rule="evenodd" clip-rule="evenodd" d="M10.1815 26.3166C10.3446 26.8671 10.3678 29.9495 13.6521 32.9218C16.9131 35.8722 22.5034 36.5327 22.5034 36.5327C22.5034 36.5327 22.5267 36.951 22.1307 36.973C21.7347 37.0171 19.8247 36.6428 18.8697 36.3565C17.938 36.0923 17.0994 35.608 17.0063 35.63C16.8898 35.674 16.7035 35.9823 16.424 35.9382C16.1444 35.8942 14.7935 34.5731 14.1879 34.2209C12.9765 33.2312 11.9041 32.0991 10.9968 30.8522C10.3446 29.8614 10.1815 29.2009 9.97187 29.2009C9.76224 29.2009 8.99357 29.6853 8.99357 29.6853C8.99357 29.6853 8.29479 28.6945 7.68918 27.1093C7.06027 25.524 7.13015 24.5993 7.26991 24.5332C7.43296 24.4672 7.43295 25.7002 7.89881 26.823C8.36466 27.9679 9.01687 28.3202 9.01687 28.3202C9.01687 28.3202 8.59759 27.7258 8.27149 26.2506C7.9454 24.7754 7.80564 23.3443 8.03857 22.904C8.27149 22.4636 8.48113 22.3315 8.50442 22.3535C8.55101 22.3976 8.10845 23.0361 8.41125 24.7314C8.71406 26.4267 9.52931 27.8579 9.71565 27.7918C9.90199 27.7258 9.59918 27.3735 9.48272 26.3827C9.36626 25.3919 9.59919 24.7754 9.85541 24.6874C9.97187 24.5993 10.1582 25.7882 10.1815 26.3166ZM7.89881 29.1349C7.2699 28.5844 6.29161 26.6689 6.08198 26.757C5.84905 26.8671 7.66588 29.6192 7.71247 29.8394C7.75906 30.1036 8.15503 30.8522 7.85223 30.7421C7.54942 30.632 5.3832 28.4743 5.63942 28.8927C5.89564 29.311 7.52613 31.2045 7.43295 31.3146C7.33978 31.4247 6.08197 30.2577 6.03539 30.4119C6.0121 30.544 7.26991 31.6889 7.24662 31.821C7.22332 31.9531 6.43137 31.0944 6.43137 31.2705C6.43137 31.4467 7.24662 32.3054 7.24662 32.4375C7.24662 32.5696 6.54783 31.821 6.78076 32.2173C6.99039 32.6576 7.596 33.0319 7.57271 33.164C7.54942 33.2961 7.06028 32.9879 7.06028 33.054C7.06028 33.12 7.96869 33.4282 8.17833 33.6704C8.41125 33.9126 9.90199 35.5419 11.02 36.3565C12.1381 37.1712 15.3525 38.6023 15.5854 38.6023C15.7951 38.6023 16.1212 38.162 16.0513 37.9858C15.9814 37.8097 12.8369 36.7969 11.975 36.0483C11.0899 35.2997 8.94699 33.4943 8.76064 33.4062C8.59759 33.2961 8.10845 33.3402 8.10845 33.2301C8.10845 33.12 8.73735 33.2961 8.69077 33.2301C8.66748 33.164 7.82894 32.8118 7.85223 32.7457C7.89881 32.6797 8.43455 32.8778 8.43455 32.8118C8.43455 32.7457 7.45625 32.2393 7.50284 32.1292C7.52613 32.0191 8.22491 32.4375 8.22491 32.3494C8.22491 32.3054 7.2932 31.6889 7.31649 31.5788C7.33978 31.4687 8.03857 32.0632 8.01527 31.9311C7.99198 31.799 7.45625 31.0504 7.45625 30.9623C7.45625 30.8522 8.29479 31.7109 8.38796 31.5348C8.43454 31.3806 8.08516 29.9495 8.10845 29.9275C8.13174 29.9055 8.73735 30.2357 8.83052 30.0376C8.94698 29.8174 8.41125 29.5312 7.89881 29.1349ZM18.6368 39.9674C18.1942 40.0334 17.9846 39.8793 18.2408 39.527C18.5902 39.527 19.5219 39.2408 19.848 39.1087C20.1741 38.9766 20.5235 38.8005 20.803 38.5583C21.0825 38.2721 21.2689 38.7124 21.1058 38.9546C20.9893 39.1087 20.4536 39.3949 20.0576 39.5491C19.4753 39.7252 18.9629 39.9894 18.6368 39.9674ZM21.5484 38.8445C21.2456 38.5363 21.5018 38.3161 21.9443 38.0739C22.5965 37.7436 22.4102 37.2813 23.2487 36.907C23.6214 36.6868 28.839 34.7053 30.5394 33.6484C32.2397 32.5916 37.0148 29.1789 38.2959 26.823C39.5537 24.4892 38.9481 24.3131 39.1344 24.225C39.2974 24.1149 39.4838 24.5553 39.4605 25.0837C39.4139 25.5901 38.9946 27.1313 39.1344 27.2854C39.2742 27.4395 41.0444 26.0745 41.7898 24.4232C42.5351 22.7719 43.0942 21.0545 43.4436 21.0545C43.8162 21.0545 42.8379 23.8727 42.209 24.9736C41.6034 26.0745 40.8814 26.6249 41.0444 26.8671C41.2307 27.0873 43.0476 25.6561 43.6765 24.5993C44.2821 23.5204 44.8644 22.5737 44.9809 22.7719C44.7955 24.0616 44.2576 25.2834 43.4203 26.3166C42.442 27.3735 41.2773 28.1441 41.4637 28.2982C41.6267 28.4743 42.9544 28.6505 44.3287 27.7698C45.7262 26.8671 45.866 25.5681 46.0291 25.6341C46.2154 25.7002 45.866 27.4836 44.5383 28.5844C43.2106 29.6853 41.4637 29.7954 41.5103 30.0376C41.6034 30.2577 45.307 29.0248 45.2371 29.311C45.1672 29.5752 40.4388 31.3366 40.3922 31.5127C40.3922 31.6448 41.2075 31.6889 42.4886 31.4026C43.7464 31.1384 44.9576 30.1917 45.1206 30.4119C45.1672 30.7201 44.2122 31.4687 42.7681 31.821C41.3006 32.1733 40.5785 32.6356 40.532 32.7457C40.5087 32.8558 43.1408 32.4375 43.1408 32.5696C43.1408 32.7017 39.6934 33.3402 39.6701 33.5163C39.6235 33.6704 42.9311 32.8778 42.8845 33.076C42.7914 33.2301 38.389 34.4631 38.4356 34.5291C38.4589 34.6172 42.1159 33.7805 42.046 33.9126C41.9528 34.0667 35.8967 35.674 35.8501 35.7841C35.8035 35.8722 41.2075 34.6392 41.1609 34.7493C41.1143 34.8594 38.3657 35.4979 38.3657 35.5639C38.3657 35.63 40.5785 35.2337 40.532 35.3438C40.5087 35.4318 34.9417 36.7749 34.8252 36.973C34.7088 37.1932 37.7135 36.4226 37.667 36.8189C37.6204 37.2152 31.2149 39.2408 31.1916 38.8665C31.145 38.4922 35.0815 37.5455 35.0582 37.4354C35.0116 37.3253 32.7988 37.6556 32.7522 37.4574C32.7289 37.2372 34.2196 36.7969 34.1032 36.7088C33.9867 36.5987 32.8686 37.0171 32.9618 36.7749C33.0783 36.5327 35.1979 35.608 35.1513 35.5419C35.128 35.4759 34.3827 35.7621 34.4526 35.5419C34.5457 35.2997 39.0412 34.0667 38.9714 33.9126C38.9015 33.7805 36.8983 34.2209 36.712 34.2649C36.6421 34.1328 39.5071 33.12 39.4605 32.9439C39.3673 32.7897 37.9232 33.5383 37.83 33.3402C37.7834 33.12 40.3689 32.1733 40.2059 32.0191C40.0428 31.865 38.8782 32.4154 38.7151 32.2613C38.5521 32.1072 41.1609 30.4119 40.7649 30.3678C40.3689 30.3458 39.8798 30.8963 39.8332 30.544C39.8798 30.1036 41.8597 29.3771 41.4171 29.0248C40.7183 28.8266 38.3657 29.1789 37.3874 29.7293C36.4091 30.2798 33.1482 33.3402 32.3562 33.8246C31.5642 34.2869 28.8623 35.3658 28.3499 35.5859C27.5579 35.8502 27.4181 36.2465 26.6029 36.6428C25.1355 37.0171 25.1587 37.4354 24.46 37.6776C24.2037 37.7436 21.5717 38.9326 21.5484 38.8445ZM17.8681 40.3857C17.4255 40.6059 17.0296 41.1343 17.2858 41.3545C17.4255 41.6187 17.8681 40.76 18.2175 40.8041L20.0809 40.8921C21.0825 40.9582 21.5717 40.694 22.1307 40.738C22.6897 40.782 23.9242 40.4518 24.5065 40.4518C25.0889 40.4518 25.2053 40.5178 25.2519 40.2756C25.3218 40.0555 23.4351 40.2096 22.5965 40.1876C21.758 40.1435 20.7098 40.3417 20.0809 40.3417C19.4986 40.3197 18.497 40.1435 17.8681 40.3857Z" fill="#FFE400"/>
<path d="M20.6632 40.1216C20.6632 39.9392 20.4859 39.7914 20.2672 39.7914C20.0485 39.7914 19.8712 39.9392 19.8712 40.1216C19.8712 40.304 20.0485 40.4519 20.2672 40.4519C20.4859 40.4519 20.6632 40.304 20.6632 40.1216Z" fill="#FFE400"/>
<path fill-rule="evenodd" clip-rule="evenodd" d="M29.9569 39.4832C30.3529 39.4171 31.4243 39.7694 32.1697 39.9235C33.5207 40.4299 36.0363 40.1877 36.0363 40.4299C36.0363 40.6721 35.8733 40.9583 35.2909 41.0024C34.7086 41.0464 33.2412 40.7822 33.2878 40.7822C33.3343 40.7822 34.4524 41.2886 34.1263 41.4207C33.8002 41.5528 32.8452 41.1345 32.6822 41.2446C32.5191 41.3546 33.5673 41.5528 33.3809 41.6189C33.2412 41.6849 32.5191 41.5308 32.2862 41.5528C32.0533 41.5968 32.4725 41.839 32.193 41.9271C31.9135 42.0372 31.4476 41.795 31.2613 41.861C31.0517 41.9271 31.6806 42.3014 31.4011 42.3454C31.1215 42.3895 30.4693 42.1693 30.0967 42.1253C29.724 42.1253 30.4461 42.4775 30.2131 42.5216C29.9802 42.5436 29.328 42.2353 29.165 42.2353C29.0019 42.2353 29.165 42.6757 28.932 42.6757C28.6991 42.6757 28.4196 42.3014 28.2798 42.3014C28.1401 42.3014 28.2798 42.7417 28.0469 42.7417C27.814 42.7417 27.7208 42.2794 27.5345 42.3014C27.3015 42.3454 27.5345 42.8959 27.2084 42.8518C26.9056 42.8298 26.859 42.2794 26.6027 42.3014C26.3698 42.3454 26.6493 42.8518 26.4164 42.8518C26.1835 42.8518 26.1369 42.3454 25.904 42.3014C25.671 42.2794 25.7642 42.7858 25.6244 42.7858C25.4847 42.7858 25.3449 42.3014 25.2518 42.3014C25.1819 42.3014 25.2518 42.7858 24.9723 42.7417C24.6927 42.6977 24.6927 42.2133 24.6229 42.2353C24.5297 42.2794 24.5297 42.6317 24.3433 42.6317C24.157 42.6317 24.1337 42.2794 24.0638 42.3234C23.9707 42.3454 23.6911 42.7858 23.5048 42.7197C23.2952 42.6537 23.5514 42.3014 23.4582 42.3014C23.3651 42.3014 23.1321 42.5436 22.9924 42.5216C22.8526 42.4995 22.9924 42.2133 22.9458 42.2133C22.8992 42.2133 22.5498 42.3895 22.3868 42.3895C22.2237 42.3895 21.7811 42.6096 21.6647 42.4115C21.5482 42.1913 21.9675 42.1913 22.0607 41.9932C22.1305 41.795 21.8277 41.2005 22.1538 41.0024C22.4566 40.7822 23.4582 41.2886 24.949 40.9363C27.6509 40.2538 29.7473 39.4612 29.9569 39.4832Z" fill="#FFE400"/>
</g>
</g>
<defs>
<clipPath id="clip0_29_343">
<rect width="48" height="48" fill="white"/>
</clipPath>
</defs>
</svg>
