<svg width="48" height="48" viewBox="0 0 48 48" fill="none" xmlns="http://www.w3.org/2000/svg">
<g clip-path="url(#clip0_154_54470)">
<mask id="mask0_154_54470" style="mask-type:alpha" maskUnits="userSpaceOnUse" x="0" y="0" width="48" height="48">
<circle cx="24" cy="24" r="24" fill="#D9D9D9"/>
</mask>
<g mask="url(#mask0_154_54470)">
<g clip-path="url(#clip1_154_54470)">
<path d="M-8 0H56V48H-8V0Z" fill="#3E5EB9"/>
<path d="M-8 9H56V39H-8V9Z" fill="#FFD900"/>
<path d="M-8 12H56V36H-8V12Z" fill="#B10C0C"/>
<path d="M46.8281 18.516L43.9121 19.548L46.8161 20.568L49.7321 19.548L46.8281 18.516Z" fill="white"/>
<path fill-rule="evenodd" clip-rule="evenodd" d="M46.8282 18.4523L49.9126 19.5484L46.8161 20.6316L43.7317 19.5482L46.8282 18.4523ZM44.0926 19.5478L46.8162 20.5044L49.5517 19.5475L46.8281 18.5797L44.0926 19.5478Z" fill="black"/>
<path d="M44.8961 19.2H2.78814C2.58269 19.2 2.41614 19.3531 2.41614 19.542C2.41614 19.7309 2.58269 19.884 2.78814 19.884H44.8961C45.1016 19.884 45.2681 19.7309 45.2681 19.542C45.2681 19.3531 45.1016 19.2 44.8961 19.2Z" fill="#FFD900"/>
<path fill-rule="evenodd" clip-rule="evenodd" d="M2.78808 19.26C2.61092 19.26 2.47608 19.3909 2.47608 19.542C2.47608 19.6931 2.61092 19.824 2.78808 19.824H44.8961C45.0732 19.824 45.2081 19.6931 45.2081 19.542C45.2081 19.3909 45.0732 19.26 44.8961 19.26H2.78808ZM2.35608 19.542C2.35608 19.3153 2.55434 19.14 2.78808 19.14H44.8961C45.1298 19.14 45.3281 19.3153 45.3281 19.542C45.3281 19.7687 45.1298 19.944 44.8961 19.944H2.78808C2.55434 19.944 2.35608 19.7687 2.35608 19.542Z" fill="black"/>
<path d="M44.2481 19.884C44.3375 19.8812 44.4226 19.8453 44.4869 19.7832C44.5513 19.7211 44.5902 19.6372 44.5961 19.548C44.5931 19.4567 44.5555 19.3699 44.4908 19.3053C44.4262 19.2406 44.3394 19.203 44.2481 19.2V19.884ZM43.9121 19.884C43.9993 19.8784 44.0816 19.8412 44.1434 19.7793C44.2052 19.7175 44.2424 19.6353 44.2481 19.548C44.2453 19.4586 44.2094 19.3735 44.1472 19.3092C44.0851 19.2448 44.0013 19.2059 43.9121 19.2V19.884ZM43.5641 19.884C43.6535 19.8812 43.7386 19.8453 43.8029 19.7832C43.8673 19.7211 43.9062 19.6372 43.9121 19.548C43.9091 19.4567 43.8715 19.3699 43.8068 19.3053C43.7422 19.2406 43.6554 19.203 43.5641 19.2" fill="#FFD900"/>
<path fill-rule="evenodd" clip-rule="evenodd" d="M43.8521 19.1359L43.9161 19.1401C44.0191 19.1469 44.1159 19.1914 44.1881 19.2651V19.138L44.2501 19.14C44.3566 19.1435 44.4579 19.1874 44.5333 19.2628C44.6087 19.3382 44.6526 19.4394 44.6561 19.546L44.6562 19.549L44.656 19.5519C44.6491 19.656 44.6037 19.7538 44.5286 19.8263C44.4536 19.8988 44.3542 19.9407 44.25 19.9439L44.1881 19.9459V19.8194C44.1873 19.8202 44.1866 19.821 44.1858 19.8217C44.1137 19.8938 44.0178 19.9373 43.916 19.9439L43.8521 19.948V19.8189C43.8496 19.8214 43.8471 19.8239 43.8446 19.8263C43.7696 19.8988 43.6702 19.9407 43.566 19.9439L43.5622 19.824C43.6367 19.8217 43.7077 19.7917 43.7613 19.74C43.8142 19.6889 43.8464 19.6202 43.852 19.547C43.8488 19.4719 43.8176 19.4008 43.7644 19.3476C43.7106 19.2938 43.6383 19.2624 43.5621 19.2599L43.5661 19.14C43.6726 19.1435 43.7739 19.1874 43.8493 19.2628C43.8502 19.2637 43.8512 19.2647 43.8521 19.2656V19.1359ZM43.9721 19.55L43.9722 19.549L43.9721 19.547V19.2711C44.0219 19.2856 44.0675 19.3129 44.1041 19.3508C44.1552 19.4037 44.185 19.4735 44.188 19.547C44.1827 19.6186 44.1518 19.686 44.101 19.7369C44.0649 19.7729 44.0205 19.799 43.9721 19.8129V19.55ZM44.3081 19.5499V19.8156C44.3594 19.8031 44.4068 19.7771 44.4453 19.74C44.4982 19.6889 44.5304 19.6202 44.536 19.547C44.5328 19.4719 44.5016 19.4008 44.4484 19.3476C44.4095 19.3087 44.3608 19.2815 44.3081 19.2685V19.547L44.3082 19.549L44.3081 19.5499Z" fill="black"/>
<path d="M43.941 20.7303L41.025 21.7623L43.929 22.7823L46.845 21.7623L43.941 20.7303Z" fill="white"/>
<path fill-rule="evenodd" clip-rule="evenodd" d="M43.9393 20.6665L47.0237 21.7626L43.9272 22.8457L40.8428 21.7624L43.9393 20.6665ZM41.2037 21.7619L43.9273 22.7186L46.6628 21.7617L43.9392 20.7938L41.2037 21.7619Z" fill="black"/>
<path d="M42.0072 21.4142H-0.100779C-0.306228 21.4142 -0.472778 21.5673 -0.472778 21.7562C-0.472778 21.9451 -0.306228 22.0982 -0.100779 22.0982H42.0072C42.2127 22.0982 42.3792 21.9451 42.3792 21.7562C42.3792 21.5673 42.2127 21.4142 42.0072 21.4142Z" fill="#FFD900"/>
<path fill-rule="evenodd" clip-rule="evenodd" d="M-0.100837 21.4742C-0.277999 21.4742 -0.412837 21.6051 -0.412837 21.7562C-0.412837 21.9073 -0.277999 22.0382 -0.100837 22.0382H42.0072C42.1843 22.0382 42.3192 21.9073 42.3192 21.7562C42.3192 21.6051 42.1843 21.4742 42.0072 21.4742H-0.100837ZM-0.532837 21.7562C-0.532837 21.5295 -0.334575 21.3542 -0.100837 21.3542H42.0072C42.2409 21.3542 42.4392 21.5295 42.4392 21.7562C42.4392 21.9829 42.2409 22.1582 42.0072 22.1582H-0.100837C-0.334575 22.1582 -0.532837 21.9829 -0.532837 21.7562Z" fill="black"/>
<path d="M41.36 22.0979C41.4494 22.0951 41.5345 22.0591 41.5989 21.997C41.6632 21.9349 41.7021 21.8511 41.708 21.7619C41.705 21.6705 41.6674 21.5838 41.6028 21.5191C41.5382 21.4545 41.4514 21.4169 41.36 21.4139V22.0979ZM41.024 22.0979C41.1113 22.0922 41.1935 22.055 41.2553 21.9932C41.3172 21.9314 41.3544 21.8491 41.36 21.7619C41.3572 21.6725 41.3213 21.5874 41.2592 21.523C41.1971 21.4587 41.1132 21.4198 41.024 21.4139V22.0979ZM40.676 22.0979C40.7654 22.0951 40.8505 22.0591 40.9149 21.997C40.9792 21.9349 41.0181 21.8511 41.024 21.7619C41.021 21.6705 40.9834 21.5838 40.9188 21.5191C40.8542 21.4545 40.7674 21.4169 40.676 21.4139" fill="#FFD900"/>
<path fill-rule="evenodd" clip-rule="evenodd" d="M40.9632 21.35L41.0272 21.3543C41.1301 21.3611 41.227 21.4056 41.2992 21.4792V21.3521L41.3612 21.3542C41.4677 21.3577 41.569 21.4016 41.6444 21.477C41.7198 21.5524 41.7637 21.6536 41.7672 21.7602L41.7672 21.7632L41.7671 21.7661C41.7601 21.8702 41.7148 21.968 41.6397 22.0405C41.5647 22.1129 41.4653 22.1549 41.3611 22.1581L41.2992 22.16V22.0336C41.2984 22.0344 41.2977 22.0351 41.2969 22.0359C41.2248 22.108 41.1289 22.1514 41.0271 22.158L40.9632 22.1622V22.0331C40.9607 22.0356 40.9582 22.038 40.9557 22.0405C40.8807 22.1129 40.7813 22.1549 40.6771 22.1581L40.6733 22.0382C40.7478 22.0359 40.8187 22.0059 40.8724 21.9541C40.9252 21.9031 40.9575 21.8344 40.9631 21.7611C40.9599 21.6861 40.9287 21.615 40.8755 21.5618C40.8217 21.508 40.7493 21.4766 40.6732 21.4741L40.6772 21.3542C40.7837 21.3577 40.885 21.4016 40.9604 21.477C40.9613 21.4779 40.9622 21.4789 40.9632 21.4798V21.35ZM41.0832 21.7641L41.0832 21.7632L41.0832 21.7612V21.4853C41.133 21.4998 41.1786 21.5271 41.2152 21.565C41.2663 21.6179 41.2961 21.6877 41.2991 21.7611C41.2938 21.8328 41.2629 21.9002 41.2121 21.951C41.176 21.9871 41.1316 22.0131 41.0832 22.0271V21.7641ZM41.4192 21.7641V22.0297C41.4704 22.0172 41.5179 21.9913 41.5564 21.9541C41.6092 21.9031 41.6415 21.8344 41.6471 21.7611C41.6439 21.6861 41.6127 21.615 41.5595 21.5618C41.5205 21.5229 41.4719 21.4957 41.4192 21.4827V21.7612L41.4192 21.7632L41.4192 21.7641Z" fill="black"/>
<path d="M52.6361 23.484H-4.63992C-4.91827 23.484 -5.14392 23.715 -5.14392 24C-5.14392 24.285 -4.91827 24.516 -4.63992 24.516H52.6361C52.9144 24.516 53.1401 24.285 53.1401 24C53.1401 23.715 52.9144 23.484 52.6361 23.484Z" fill="#FFD900"/>
<path fill-rule="evenodd" clip-rule="evenodd" d="M-4.63996 23.55C-4.88041 23.55 -5.07796 23.75 -5.07796 24C-5.07796 24.25 -4.88041 24.45 -4.63996 24.45H52.636C52.8765 24.45 53.074 24.25 53.074 24C53.074 23.75 52.8765 23.55 52.636 23.55H-4.63996ZM-5.20996 24C-5.20996 23.68 -4.95622 23.418 -4.63996 23.418H52.636C52.9523 23.418 53.206 23.68 53.206 24C53.206 24.3199 52.9523 24.582 52.636 24.582H-4.63996C-4.95622 24.582 -5.20996 24.3199 -5.20996 24Z" fill="black"/>
<path d="M40.82 24C37.39 27.43 32.82 34.29 23.68 34.29C15.68 34.29 9.97004 27.43 6.54004 24C9.96004 20.57 15.68 13.71 23.68 13.71C32.82 13.71 37.39 20.57 40.82 24Z" fill="white"/>
<path fill-rule="evenodd" clip-rule="evenodd" d="M6.62473 24C6.97167 24.3478 7.34127 24.7295 7.73362 25.1347C9.27874 26.7304 11.1766 28.6903 13.4323 30.3833C16.2829 32.5228 19.6979 34.23 23.68 34.23C31.3749 34.23 35.8151 29.3543 39.0827 25.7663C39.6671 25.1246 40.214 24.5241 40.7353 24C40.214 23.476 39.6671 22.8754 39.0827 22.2337C35.8151 18.6457 31.3749 13.77 23.68 13.77C19.6979 13.77 16.2803 15.4773 13.4285 17.6168C11.1601 19.3186 9.25394 21.2902 7.70695 22.8903C7.32424 23.2862 6.96352 23.6593 6.62473 24ZM40.82 24L40.8624 23.9576C40.3336 23.4288 39.7767 22.817 39.1792 22.1605C35.9134 18.5725 31.433 13.65 23.68 13.65C19.6621 13.65 16.2196 15.3728 13.3565 17.5208C11.0796 19.2289 9.16474 21.2097 7.6175 22.8101C7.21986 23.2214 6.84649 23.6076 6.4975 23.9577L6.4552 24.0001L6.49756 24.0424C6.8546 24.3995 7.2368 24.7942 7.64408 25.2148C9.18951 26.8109 11.0961 28.78 13.3602 30.4793C16.2221 32.6272 19.6621 34.35 23.68 34.35C31.433 34.35 35.9134 29.4275 39.1792 25.8396C39.7767 25.1831 40.3336 24.5713 40.8624 24.0424L40.82 24Z" fill="black"/>
<path d="M22.48 17.3C23.4 18.32 22.63 18.73 23.6 18.8C24.62 18.87 24.04 19.88 24.9 19.92C25.5 19.94 24.84 22.34 25.41 23.12C26 23.95 26.49 23.37 26.51 23.96C26.51 24.58 24.91 24.51 24.88 26.41C24.83 27.5 23.52 27.57 23.46 28.27C23.38 28.93 26.04 29.3 26 29.89C25.97 30.49 23.13 30.39 23 31.06C22.94 31.66 26.9 32.16 27.22 33.91C26.62 34.11 24.95 34.28 23.68 34.29C15.68 34.29 9.97004 27.43 6.54004 23.99C9.97004 20.57 15.68 13.71 23.68 13.71C23.68 13.71 21.31 15.88 22.48 17.29V17.3Z" fill="black"/>
<path fill-rule="evenodd" clip-rule="evenodd" d="M12.946 23.088V20.34H13.774V23.088H12.946ZM15.43 20.34V23.088H14.602V20.34H15.43ZM16.258 23.088V20.34H17.086V23.088H16.258Z" fill="white"/>
<path d="M49.04 23.6C48.52 24.49 49.44 23.3 51.68 24.8C51.9077 24.9882 52.0944 25.221 52.2286 25.4842C52.3628 25.7473 52.4415 26.0352 52.46 26.33C52.36 26.26 52.27 26.1 52.16 26.01C52 26.17 52.32 26.91 52.36 27.26C52.01 27.06 52.04 26.98 51.93 26.74C51.95 27.02 51.86 27.82 52.01 28.14C51.73 28.06 51.75 27.84 51.61 27.79C51.71 28.14 51.52 28.51 51.57 28.91C51.41 28.75 51.23 28.62 51.16 28.56C51.14 28.76 50.85 29.24 50.84 29.42C50.7878 29.3865 50.7431 29.3426 50.7086 29.2909C50.6742 29.2393 50.6509 29.1811 50.64 29.12C50.3227 29.4984 50.0539 29.9149 49.84 30.36C49.37 29.96 48.18 28.96 48.02 28.42C47.88 28.72 47.68 28.82 47.3 29.04C47.14 28.2 46.55 27.26 46.86 26.53C46.6499 26.6599 46.4463 26.8001 46.25 26.95C46.4289 26.2132 46.7743 25.5272 47.2596 24.9447C47.745 24.3623 48.3575 23.8988 49.05 23.59L49.04 23.6Z" fill="#333333"/>
<path fill-rule="evenodd" clip-rule="evenodd" d="M48.9238 23.704C48.2984 24.0079 47.744 24.4416 47.2981 24.9768C46.8478 25.5171 46.5192 26.1473 46.334 26.8247C46.496 26.7057 46.6627 26.5932 46.8337 26.4875L46.9675 26.4048L46.906 26.5496C46.7584 26.8971 46.8233 27.2994 46.9517 27.7295C46.9968 27.8808 47.0491 28.0334 47.1018 28.187C47.1238 28.2512 47.1459 28.3156 47.1676 28.3802C47.2328 28.575 47.2939 28.7704 47.3352 28.962C47.3377 28.9605 47.3403 28.959 47.3428 28.9576C47.6809 28.7626 47.8506 28.6647 47.9747 28.3989L48.0305 28.2794L48.0679 28.4058C48.105 28.531 48.2041 28.6885 48.3448 28.8634C48.4844 29.0372 48.6613 29.2237 48.8487 29.4068C49.1986 29.7486 49.5824 30.0754 49.8233 30.2802C50.0342 29.8532 50.2955 29.4529 50.6017 29.0879L50.6705 29.0059L50.6892 29.1113C50.6989 29.1656 50.7197 29.2173 50.7502 29.2632C50.7665 29.2876 50.7854 29.3101 50.8065 29.3303C50.8163 29.2954 50.8298 29.2579 50.8449 29.2195C50.8744 29.1446 50.9128 29.0603 50.9507 28.9768L50.9511 28.976C50.9893 28.8922 51.027 28.8093 51.0565 28.735C51.0866 28.6593 51.106 28.5975 51.1102 28.5551L51.1198 28.4597L51.1925 28.5221C51.2096 28.5367 51.2351 28.5569 51.2663 28.5816C51.3313 28.633 51.421 28.704 51.5116 28.7858C51.5096 28.6409 51.5316 28.5009 51.5523 28.3689C51.5547 28.3537 51.557 28.3386 51.5593 28.3237C51.5882 28.1367 51.6085 27.9669 51.5619 27.8038L51.5352 27.7102L51.6268 27.743C51.6742 27.7599 51.7064 27.791 51.7318 27.8241C51.7471 27.8439 51.7625 27.8684 51.777 27.8916C51.7847 27.9037 51.7921 27.9155 51.7991 27.9261C51.829 27.9709 51.8651 28.0158 51.9255 28.0511C51.9076 27.9845 51.8955 27.9095 51.8873 27.8308C51.8741 27.7039 51.8706 27.5631 51.8712 27.4248C51.8718 27.3118 51.875 27.1996 51.878 27.0974C51.8786 27.0746 51.8793 27.0523 51.8799 27.0305C51.8832 26.9105 51.8849 26.8106 51.8801 26.7436L51.9755 26.7192C51.9965 26.7652 52.0128 26.8061 52.0271 26.8417C52.0318 26.8536 52.0363 26.8648 52.0407 26.8755C52.0585 26.9191 52.0745 26.9541 52.0966 26.9873C52.1315 27.0396 52.1845 27.0919 52.2928 27.1612C52.2798 27.0987 52.2618 27.0282 52.2411 26.9528C52.2283 26.9057 52.2143 26.8564 52.2001 26.8064C52.1785 26.7299 52.1563 26.6516 52.1366 26.5764C52.104 26.4516 52.0768 26.3297 52.0683 26.2278C52.064 26.1768 52.0643 26.1287 52.0718 26.0865C52.0793 26.0446 52.0948 26.0045 52.1246 25.9747L52.1566 25.9427L52.1917 25.9713C52.2486 26.0179 52.2998 26.081 52.3457 26.1375C52.348 26.1404 52.3503 26.1432 52.3526 26.146C52.3681 26.1652 52.3831 26.1834 52.3975 26.2003C52.367 25.9589 52.2949 25.7243 52.184 25.5069C52.0534 25.2506 51.8717 25.0237 51.6501 24.8402C50.5403 24.0976 49.7609 24.0225 49.3249 24.0213C49.2699 24.0211 49.2202 24.0222 49.1755 24.0232C49.1695 24.0234 49.1635 24.0235 49.1577 24.0236C49.1203 24.0245 49.0861 24.0254 49.0561 24.0253C49.0215 24.0253 48.99 24.0241 48.9632 24.02C48.9372 24.0161 48.9096 24.0086 48.8876 23.9917C48.8629 23.9726 48.8504 23.9458 48.8487 23.9156C48.8471 23.8882 48.8543 23.8586 48.8653 23.8285C48.8777 23.7944 48.8974 23.7532 48.9238 23.704ZM49.0799 23.6308L49.0854 23.6254L49.0296 23.5444C48.3302 23.8563 47.7115 24.3244 47.2212 24.9127C46.731 25.5011 46.3821 26.194 46.2014 26.9382L46.1681 27.0755L46.2803 26.9898C46.4376 26.8696 46.5996 26.7558 46.7659 26.6486C46.6701 26.9956 46.742 27.3769 46.8558 27.7581C46.9016 27.9114 46.955 28.067 47.0079 28.2215C47.0298 28.2853 47.0516 28.3489 47.0727 28.412C47.1456 28.6293 47.2115 28.8429 47.2509 29.0494L47.2641 29.1186L47.3251 29.0833C47.3508 29.0684 47.3758 29.054 47.4002 29.04C47.6909 28.8727 47.8782 28.7648 48.0129 28.5403C48.0683 28.6593 48.158 28.7907 48.2668 28.9261C48.41 29.1042 48.59 29.2939 48.7788 29.4783C49.1348 29.8261 49.5252 30.158 49.7654 30.3623C49.7801 30.3747 49.7941 30.3867 49.8076 30.3981L49.857 30.4401L49.8851 30.3817C50.0835 29.9688 50.3295 29.5807 50.6181 29.2252C50.631 29.2579 50.6474 29.2892 50.667 29.3187C50.7053 29.376 50.755 29.4249 50.813 29.4621L50.8852 29.5084L50.8899 29.4228C50.8919 29.3867 50.909 29.3297 50.9379 29.2562C50.9663 29.1842 51.0035 29.1023 51.0418 29.0183L51.0428 29.016C51.0804 28.9333 51.119 28.8485 51.1494 28.7719C51.1662 28.7298 51.1811 28.6886 51.192 28.6505C51.1981 28.6552 51.2043 28.6602 51.2107 28.6653C51.2981 28.7344 51.4203 28.831 51.5346 28.9454L51.6377 29.0484L51.6196 28.9038C51.5975 28.727 51.6242 28.556 51.6514 28.3824C51.6537 28.3679 51.6559 28.3534 51.6582 28.3389C51.6787 28.2058 51.6972 28.0702 51.6863 27.9352C51.6869 27.9363 51.6876 27.9373 51.6882 27.9384C51.6963 27.9513 51.7052 27.9654 51.7159 27.9815C51.7675 28.059 51.8412 28.1438 51.9963 28.1881L52.1019 28.2183L52.0553 28.1188C52.0214 28.0465 51.9995 27.9431 51.9868 27.8205C51.9741 27.6987 51.9706 27.562 51.9712 27.4253C51.9718 27.3136 51.975 27.2029 51.9779 27.1008C51.9786 27.0778 51.9792 27.0553 51.9798 27.0333C51.9803 27.0176 51.9807 27.0022 51.981 26.987C51.9906 27.0058 52.0011 27.0244 52.0134 27.0428C52.0698 27.1274 52.1579 27.2021 52.3352 27.3035L52.4209 27.3524L52.4097 27.2544C52.3992 27.1626 52.3707 27.0474 52.3376 26.9264C52.3242 26.8772 52.31 26.8273 52.2958 26.7772C52.2744 26.7018 52.2529 26.6259 52.2334 26.5511C52.201 26.4272 52.1757 26.3123 52.1679 26.2195C52.1641 26.1731 52.1648 26.1345 52.1702 26.1041C52.1711 26.0992 52.1721 26.0946 52.1732 26.0903C52.2057 26.1238 52.2376 26.163 52.2708 26.2039L52.2749 26.2091C52.3225 26.2676 52.3745 26.3312 52.4313 26.371L52.5164 26.4306L52.5099 26.3269C52.491 26.0253 52.4104 25.7307 52.2731 25.4615C52.1359 25.1922 51.9448 24.954 51.7118 24.7615L51.7099 24.7599L51.7078 24.7585C50.5787 24.0024 49.7789 23.9226 49.3251 23.9213C49.2688 23.9211 49.2181 23.9222 49.1731 23.9232C49.167 23.9234 49.161 23.9235 49.1551 23.9237C49.1176 23.9246 49.0849 23.9254 49.0562 23.9253C49.0229 23.9253 48.9974 23.9241 48.9782 23.9212C48.9589 23.9182 48.9512 23.9143 48.9488 23.9126C48.9487 23.9121 48.9486 23.9112 48.9485 23.9099C48.9481 23.9026 48.95 23.8881 48.9593 23.8627C48.9774 23.8129 49.0165 23.7396 49.0799 23.6308Z" fill="black"/>
<path d="M47.1001 28.05C47.3201 27.62 47.5201 27.48 47.6601 27.2C47.9001 26.72 47.9401 26.32 48.1601 26.38C48.3601 26.44 48.3601 26.64 48.0901 27.12C47.8201 27.6 47.6901 27.7 47.1001 28.05ZM48.5601 29.07C48.5401 28.75 48.6301 28.61 48.6201 28.4C48.5801 28.02 48.4301 27.77 48.6301 27.75C48.8301 27.74 48.9201 27.86 48.9201 28.23C48.9201 28.61 48.8601 28.71 48.5601 29.07ZM49.6701 29.71C49.5801 29.26 49.6501 29.06 49.5901 28.76C49.4901 28.24 49.3001 27.9 49.4901 27.85C49.6701 27.8 49.7901 27.97 49.8601 28.5C49.9201 29.02 49.8901 29.17 49.6701 29.72V29.71ZM50.8201 26.51C50.5501 26.31 50.3901 26.29 50.2201 26.16C49.9201 25.92 49.7601 25.68 49.6601 25.8C49.5601 25.92 49.6301 26.06 49.9601 26.27C50.2901 26.48 50.3801 26.5 50.8201 26.51ZM50.6301 28.03C50.4901 27.73 50.3301 27.66 50.2501 27.47C50.0901 27.13 50.0901 26.84 49.9001 26.91C49.7301 26.99 49.7101 27.14 49.9001 27.47C50.1001 27.79 50.2001 27.85 50.6201 28.03H50.6301Z" fill="#B3B3B3"/>
<path d="M-2.62001 24.46C-2.66001 24.2 -2.60001 24.16 -2.76001 23.96C-2.52 24.06 -2.52001 24.33 -2.23001 24.14C-2.13001 24.09 -2.08001 24.09 -2.21001 23.79C-1.91001 23.81 -0.940006 24.14 -0.780006 24.15C-0.370006 24.17 0.379994 23.72 0.899994 24.27C1.39999 24.77 1.21999 25.3 1.21999 25.99C1.01999 25.89 1.11999 25.86 0.899994 25.6C1.05999 26.22 0.899994 27.31 0.899994 27.96C0.819994 27.8 0.829994 27.87 0.749994 27.71C0.549994 28.3 0.289995 28.41 0.289995 29.12C0.209994 28.84 0.289994 28.9 0.199995 28.76C-5.72205e-06 29.21 -1.40001 29.59 -0.860005 30.04C-1.34001 29.76 -1.56001 29.78 -1.76001 29.54C-1.86001 29.59 -1.94001 29.71 -2.02001 29.86C-2.87001 29.48 -2.57001 28.64 -3.23001 28.07C-3.35001 28.31 -3.30001 28.28 -3.43001 28.66C-3.55001 28.13 -3.59001 27.79 -3.74001 27.4C-3.87001 27.62 -3.86001 27.53 -4.10001 27.86C-4.20001 27.22 -4.35001 27.06 -4.3 26.63C-4.54 26.81 -4.38 26.73 -4.63 26.95C-4.39 25.3 -3.37001 24.07 -2.63001 24.45L-2.62001 24.46Z" fill="#333333"/>
<path fill-rule="evenodd" clip-rule="evenodd" d="M-2.31197 23.7181L-2.20563 23.7252C-2.12413 23.7306 -2.00206 23.7564 -1.86669 23.7902C-1.72988 23.8244 -1.57457 23.8682 -1.4245 23.9113C-1.37879 23.9244 -1.33361 23.9375 -1.28956 23.9503C-1.18849 23.9795 -1.09337 24.0071 -1.01139 24.0297C-0.952603 24.046 -0.901332 24.0595 -0.860096 24.0692C-0.817867 24.0792 -0.790263 24.0842 -0.776303 24.0851C-0.684098 24.0895 -0.568965 24.0675 -0.431954 24.0365C-0.409323 24.0314 -0.386171 24.026 -0.36257 24.0206C-0.246342 23.9937 -0.119228 23.9644 0.0100446 23.9469C0.322953 23.9044 0.665985 23.9284 0.946648 24.2247C1.20958 24.488 1.29416 24.7614 1.31242 25.0547C1.32144 25.1997 1.3143 25.3499 1.30524 25.5043C1.30409 25.5239 1.30291 25.5436 1.30173 25.5633C1.29351 25.7003 1.28504 25.8414 1.28504 25.99V26.0952L1.19097 26.0482C1.13841 26.0219 1.10079 25.9979 1.07199 25.9707C1.04626 25.9465 1.03001 25.9219 1.01629 25.897C1.04357 26.1633 1.03902 26.469 1.02497 26.7718C1.01735 26.9362 1.00696 27.0995 0.996977 27.2564C0.98046 27.5161 0.965042 27.7585 0.965042 27.96L0.841904 27.9891C0.804725 27.9147 0.789298 27.8949 0.774888 27.8764L0.773734 27.8749C0.770355 27.8706 0.76699 27.8662 0.763534 27.8616C0.704568 28.0101 0.642292 28.1288 0.585892 28.2363C0.556492 28.2923 0.528689 28.3453 0.503785 28.3979C0.417703 28.5796 0.355042 28.7751 0.355042 29.12L0.227542 29.1379C0.190264 29.0074 0.18581 28.9452 0.184298 28.9038C0.114035 28.9885 0.015327 29.0669 -0.0885544 29.1398C-0.165423 29.1937 -0.248562 29.2469 -0.330833 29.299C-0.340697 29.3053 -0.350546 29.3115 -0.360372 29.3177C-0.432945 29.3637 -0.504255 29.4088 -0.5711 29.4539C-0.726047 29.5585 -0.843489 29.6545 -0.893356 29.7449C-0.916809 29.7874 -0.92279 29.8243 -0.91444 29.8591C-0.905783 29.8953 -0.879339 29.9393 -0.818346 29.9901L-0.892709 30.0962C-1.08862 29.9819 -1.23931 29.919 -1.36618 29.8661C-1.39189 29.8553 -1.41663 29.845 -1.44056 29.8348C-1.56716 29.7805 -1.67284 29.7273 -1.77164 29.6244C-1.7961 29.6438 -1.82077 29.6696 -1.84602 29.7023C-1.88521 29.753 -1.9232 29.8167 -1.96261 29.8906L-1.99114 29.9441L-2.04649 29.9194C-2.49659 29.7181 -2.64211 29.3914 -2.75764 29.0575C-2.77006 29.0216 -2.78213 28.9857 -2.79416 28.95C-2.88641 28.6757 -2.97673 28.4073 -3.20935 28.1775C-3.2384 28.2418 -3.25046 28.281 -3.26342 28.3293C-3.26625 28.3399 -3.26913 28.3509 -3.2722 28.3627C-3.28933 28.4285 -3.31262 28.5178 -3.36846 28.6811L-3.4427 28.8981L-3.49335 28.6744C-3.52935 28.5154 -3.55801 28.3746 -3.58435 28.2452C-3.63747 27.9842 -3.68116 27.7696 -3.75657 27.5456C-3.783 27.5817 -3.80505 27.6055 -3.83149 27.6334L-3.83454 27.6367C-3.87641 27.6809 -3.93216 27.7398 -4.04739 27.8983L-4.1399 28.0255L-4.16418 27.8701C-4.20313 27.6208 -4.24943 27.4466 -4.28907 27.2976C-4.2997 27.2576 -4.30984 27.2195 -4.31924 27.1821C-4.35335 27.0467 -4.37693 26.9241 -4.37475 26.7739C-4.39315 26.7914 -4.40031 26.8015 -4.40759 26.8118L-4.40817 26.8126C-4.40884 26.8135 -4.40952 26.8145 -4.4102 26.8155C-4.43414 26.8493 -4.46217 26.889 -4.58702 26.9988L-4.71973 27.1156L-4.69428 26.9407C-4.57288 26.106 -4.25397 25.3746 -3.86798 24.8979C-3.67509 24.6596 -3.46279 24.4818 -3.24662 24.3886C-3.06299 24.3095 -2.87545 24.2913 -2.69797 24.3509C-2.69928 24.3342 -2.70026 24.3187 -2.7011 24.3041C-2.70158 24.2957 -2.70201 24.2879 -2.70241 24.2804C-2.70424 24.247 -2.70562 24.2216 -2.70926 24.1971C-2.71706 24.1444 -2.73534 24.0948 -2.81071 24.0006L-2.73496 23.9C-2.66497 23.9292 -2.61338 23.9705 -2.57188 24.01C-2.5547 24.0263 -2.53869 24.0429 -2.52437 24.0577C-2.52171 24.0605 -2.51911 24.0632 -2.51657 24.0658C-2.49976 24.0832 -2.48554 24.0974 -2.47164 24.1092C-2.44477 24.132 -2.42446 24.141 -2.40114 24.1411C-2.37501 24.1412 -2.33345 24.1301 -2.26558 24.0857L-2.26241 24.0836L-2.25903 24.0819C-2.24977 24.0773 -2.24208 24.0735 -2.23554 24.0704C-2.2206 24.0631 -2.21165 24.0588 -2.20367 24.0532C-2.19791 24.0492 -2.19774 24.048 -2.19754 24.0466C-2.19751 24.0464 -2.19749 24.0462 -2.19745 24.046C-2.19611 24.0393 -2.19561 24.0216 -2.20677 23.9818C-2.21761 23.9431 -2.23747 23.89 -2.2696 23.8159L-2.31197 23.7181ZM-2.66852 24.5034C-2.83075 24.4235 -3.00941 24.428 -3.19517 24.508C-3.38588 24.5902 -3.58233 24.7517 -3.76694 24.9797C-4.10604 25.3985 -4.39623 26.0308 -4.53308 26.7633C-4.5266 26.7551 -4.52185 26.7483 -4.51749 26.7421C-4.51639 26.7405 -4.51532 26.739 -4.51425 26.7375C-4.48712 26.6992 -4.46069 26.6693 -4.33896 26.578L-4.21792 26.4872L-4.23539 26.6375C-4.25916 26.842 -4.23582 26.981 -4.19318 27.1504C-4.18424 27.1859 -4.17442 27.2228 -4.164 27.2619C-4.13241 27.3807 -4.09538 27.5199 -4.06138 27.7008C-3.99886 27.6212 -3.95985 27.58 -3.92804 27.5463L-3.92593 27.5441C-3.88515 27.501 -3.85819 27.4723 -3.79592 27.367L-3.72754 27.2512L-3.67929 27.3767C-3.57115 27.6579 -3.51855 27.9162 -3.45475 28.2295C-3.44315 28.2865 -3.43118 28.3453 -3.41844 28.4064C-3.41026 28.377 -3.4038 28.3522 -3.39795 28.3298C-3.39485 28.3179 -3.39191 28.3066 -3.38899 28.2957C-3.36899 28.221 -3.34984 28.1644 -3.2881 28.041L-3.25072 27.9662L-3.18747 28.0208C-2.87878 28.2874 -2.76993 28.6125 -2.67075 28.9088C-2.65873 28.9447 -2.64685 28.9801 -2.63478 29.015C-2.52802 29.3236 -2.40534 29.5955 -2.04752 29.7751C-2.01613 29.7195 -1.9836 29.6677 -1.94889 29.6228C-1.90322 29.5637 -1.85111 29.5129 -1.78903 29.4819L-1.74298 29.4589L-1.71002 29.4984C-1.61992 29.6065 -1.52628 29.6566 -1.38935 29.7153C-1.36653 29.7251 -1.34255 29.7351 -1.31733 29.7456C-1.23952 29.778 -1.14984 29.8154 -1.04525 29.8668C-1.05498 29.8013 -1.03858 29.739 -1.00719 29.6821C-0.940177 29.5606 -0.796369 29.4491 -0.643816 29.3461C-0.575264 29.2999 -0.502211 29.2537 -0.429829 29.2078C-0.420006 29.2016 -0.410196 29.1954 -0.400411 29.1892C-0.318073 29.1371 -0.237305 29.0854 -0.163237 29.0334C-0.0117211 28.927 0.0987554 28.8279 0.140644 28.7336L0.189572 28.6235L0.254718 28.7249C0.255727 28.7264 0.256721 28.728 0.2577 28.7295C0.28634 28.5775 0.331853 28.4571 0.386299 28.3422C0.414817 28.282 0.44476 28.225 0.475387 28.1667C0.545796 28.0326 0.619823 27.8917 0.688482 27.6892L0.738502 27.5416L0.808179 27.681C0.821031 27.7067 0.831284 27.7258 0.839794 27.7407C0.845742 27.5864 0.85651 27.4167 0.867645 27.2413C0.877554 27.0851 0.887755 26.9244 0.895112 26.7658C0.915134 26.334 0.914361 25.9156 0.837104 25.6163L0.949662 25.558C1.05032 25.677 1.08821 25.752 1.11434 25.8038C1.11813 25.8113 1.12167 25.8183 1.12512 25.8249C1.13613 25.8459 1.14461 25.8593 1.15666 25.8717C1.15957 25.7618 1.16591 25.6562 1.17197 25.5553C1.17316 25.5356 1.17433 25.516 1.17547 25.4967C1.18453 25.3421 1.19115 25.1991 1.18267 25.0628C1.16593 24.7939 1.09064 24.5525 0.85408 24.316L0.853436 24.3153L0.852809 24.3147C0.613589 24.0617 0.321898 24.0357 0.0275383 24.0757C-0.095252 24.0924 -0.215468 24.1201 -0.331625 24.1469C-0.355687 24.1524 -0.379575 24.1579 -0.403275 24.1633C-0.538209 24.1938 -0.670413 24.2204 -0.783126 24.2149L-0.784014 24.2149C-0.810184 24.2133 -0.847769 24.2057 -0.889978 24.1958C-0.933585 24.1855 -0.986689 24.1714 -1.04603 24.155C-1.12879 24.1321 -1.22515 24.1043 -1.32662 24.0749C-1.37049 24.0622 -1.41532 24.0492 -1.46042 24.0362C-1.61035 23.9931 -1.76378 23.95 -1.89822 23.9164C-1.97736 23.8966 -2.0483 23.8805 -2.10727 23.8697C-2.09647 23.8985 -2.08794 23.924 -2.08158 23.9467C-2.06868 23.9928 -2.06256 24.0345 -2.06997 24.0715C-2.07837 24.1135 -2.10214 24.1408 -2.12906 24.1597C-2.14637 24.1718 -2.16884 24.1826 -2.18718 24.1915C-2.19087 24.1933 -2.19439 24.195 -2.19767 24.1966C-2.2734 24.2457 -2.33956 24.2713 -2.40159 24.2711C-2.46733 24.2709 -2.5164 24.2418 -2.55578 24.2083C-2.56386 24.2015 -2.57175 24.1942 -2.57943 24.1869C-2.57572 24.2153 -2.57412 24.245 -2.57248 24.2755C-2.5721 24.2825 -2.57172 24.2895 -2.57132 24.2966C-2.56888 24.339 -2.56528 24.388 -2.55571 24.4501L-2.52552 24.6464L-2.66852 24.5034Z" fill="black"/>
<path d="M-3.65991 27.17C-3.44991 26.63 -3.25991 26.47 -3.10991 26.13C-2.85991 25.52 -2.81991 25.03 -2.60991 25.1C-2.40991 25.18 -2.40991 25.42 -2.68991 26.02C-2.96991 26.62 -3.08991 26.74 -3.65991 27.17ZM-2.83991 28.5C-2.75991 28.02 -2.61991 27.86 -2.55991 27.54C-2.45991 27 -2.50991 26.6 -2.31991 26.62C-2.11991 26.64 -2.07991 26.85 -2.20991 27.38C-2.33991 27.93 -2.42991 28.06 -2.84991 28.5H-2.83991ZM-1.85991 29.44C-1.82991 28.98 -1.71991 28.79 -1.69991 28.49C-1.66991 27.97 -1.77991 27.59 -1.59991 27.59C-1.39991 27.59 -1.33991 27.78 -1.39991 28.3C-1.45991 28.82 -1.51991 28.96 -1.85991 29.44ZM0.260088 26.4C-0.139912 26 -0.379912 25.92 -0.639912 25.66C-1.09991 25.2 -1.32991 24.78 -1.49991 24.93C-1.65991 25.08 -1.55991 25.3 -1.06991 25.73C-0.589912 26.18 -0.419913 26.24 0.270087 26.4H0.260088ZM0.0200875 27.96C-0.239913 27.56 -0.439912 27.45 -0.609912 27.18C-0.909912 26.73 -1.00991 26.34 -1.17991 26.43C-1.34991 26.53 -1.30991 26.73 -0.989912 27.18C-0.659912 27.62 -0.539912 27.7 0.0200875 27.96Z" fill="#B3B3B3"/>
<path d="M18.1401 15.54C17.6601 16.46 18.9701 15.24 21.0201 16.78C21.5183 17.3132 21.8397 17.9873 21.9401 18.71C21.5224 18.5765 21.1201 18.3988 20.7401 18.18C20.7401 18.18 21.6401 19.1 21.6401 20.14C21.3201 19.94 21.1601 19.97 21.0401 19.73C21.0401 20.06 21.3401 20.28 21.3401 20.8C21.143 20.6415 20.9322 20.501 20.7101 20.38C21.0101 20.91 20.1601 21.93 20.5901 22.26C20.2291 22.2104 19.8822 22.0872 19.5709 21.898C19.2595 21.7087 18.9904 21.4576 18.7801 21.16C18.6201 21.26 18.6001 21.43 18.5901 21.62C18.6201 21.63 17.4601 20.75 17.5701 20.42C17.4377 20.5855 17.3608 20.7884 17.3501 21C16.9117 20.6348 16.5801 20.1581 16.3901 19.62C16.2101 19.86 16.1901 19.86 16.0001 20.12C15.8601 19.25 15.8601 19.28 16.1401 18.54C15.9462 18.6737 15.7593 18.8172 15.5801 18.97C15.7263 18.2445 16.0318 17.5604 16.4745 16.9673C16.9172 16.3741 17.4861 15.8866 18.1401 15.54Z" fill="#333333"/>
<path fill-rule="evenodd" clip-rule="evenodd" d="M18.0291 15.6581C17.438 15.9953 16.9222 16.4509 16.5145 16.9972C16.1051 17.5457 15.8143 18.1727 15.6597 18.8384C15.8057 18.7191 15.9564 18.6059 16.1116 18.4989L16.2434 18.408L16.1868 18.5577C16.1809 18.5732 16.1752 18.5883 16.1696 18.603C16.0402 18.9448 15.9784 19.1082 15.9623 19.2858C15.9471 19.4543 15.9731 19.6363 16.0306 19.995C16.0848 19.9232 16.1228 19.8763 16.1601 19.8308C16.1642 19.8258 16.1683 19.8209 16.1724 19.8159C16.2195 19.7585 16.2679 19.6996 16.35 19.59L16.4061 19.5153L16.4372 19.6034C16.6135 20.1029 16.914 20.5487 17.3096 20.8994C17.3365 20.7131 17.4127 20.5367 17.531 20.3888L17.6175 20.4358C17.6089 20.4615 17.611 20.4984 17.6302 20.549C17.6492 20.5989 17.6827 20.6563 17.7278 20.7189C17.8179 20.8439 17.949 20.9821 18.0845 21.1114C18.2197 21.2403 18.3575 21.3589 18.46 21.4448C18.4932 21.4728 18.5226 21.4971 18.5471 21.5173C18.5619 21.3627 18.6018 21.2125 18.7535 21.1176L18.7936 21.0926L18.8209 21.1312C19.0272 21.4231 19.2913 21.6696 19.5968 21.8552C19.864 22.0176 20.1579 22.1305 20.4644 22.1888C20.4187 22.1042 20.4095 22.0029 20.4198 21.8968C20.435 21.7398 20.4936 21.5592 20.5539 21.3792C20.5575 21.3683 20.5612 21.3574 20.5648 21.3465C20.6224 21.1747 20.6799 21.0029 20.7081 20.8423C20.7382 20.6713 20.733 20.5222 20.6665 20.4047L20.5804 20.2525L20.7339 20.3361C20.9267 20.4411 21.1111 20.5607 21.2855 20.6938C21.2688 20.4987 21.2076 20.3501 21.1447 20.2149C21.1364 20.1969 21.1279 20.1791 21.1195 20.1613C21.0542 20.0238 20.99 19.8884 20.99 19.73L21.0847 19.7077C21.1387 19.8157 21.1994 19.8613 21.2874 19.9053C21.3125 19.9179 21.3408 19.9306 21.3721 19.9447C21.4328 19.9721 21.505 20.0046 21.5878 20.051C21.5642 19.5775 21.3574 19.1321 21.1476 18.7965C21.0365 18.6188 20.9254 18.473 20.842 18.3718C20.8004 18.3212 20.7658 18.2818 20.7416 18.2551C20.7296 18.2418 20.7201 18.2317 20.7137 18.2249C20.7106 18.2215 20.7081 18.219 20.7065 18.2173L20.7048 18.2155L20.7043 18.215C20.7043 18.215 20.7043 18.215 20.7118 18.2076C20.7169 18.2026 20.7256 18.1942 20.74 18.18H20.69V18.0935L20.765 18.1367C21.1186 18.3403 21.4916 18.508 21.8785 18.6373C21.7678 17.9564 21.4577 17.3228 20.9865 16.8174C19.9739 16.058 19.1467 15.98 18.631 15.9775C18.5661 15.9772 18.5061 15.9781 18.4508 15.979C18.446 15.9791 18.4413 15.9792 18.4367 15.9793C18.387 15.9801 18.341 15.9808 18.2995 15.9806C18.2116 15.9801 18.1336 15.9755 18.0788 15.951C18.0495 15.9379 18.0238 15.9178 18.0078 15.8876C17.992 15.858 17.9884 15.8242 17.9922 15.789C17.9961 15.7519 18.0087 15.7085 18.0291 15.6581ZM18.14 15.54L18.1166 15.4958C17.4561 15.8459 16.8815 16.3383 16.4344 16.9374C15.9873 17.5364 15.6787 18.2273 15.531 18.9601L15.5024 19.1019L15.6125 19.0081C15.749 18.8916 15.8901 18.7806 16.0354 18.6753C15.9337 18.945 15.8783 19.1047 15.8627 19.2768C15.8451 19.4723 15.879 19.6829 15.9444 20.0894C15.9465 20.1021 15.9486 20.1149 15.9507 20.128L15.9697 20.2463L16.0404 20.1495C16.1347 20.0204 16.1866 19.9562 16.2374 19.8942C16.2415 19.8893 16.2456 19.8843 16.2497 19.8793C16.2855 19.8357 16.3226 19.7905 16.3747 19.7229C16.5718 20.2341 16.8963 20.6871 17.318 21.0384L17.3949 21.1025L17.4 21.0025C17.4078 20.848 17.4527 20.6984 17.5302 20.5661C17.5322 20.5722 17.5344 20.5784 17.5368 20.5845C17.5601 20.6458 17.5989 20.7112 17.6466 20.7774C17.7422 20.9099 17.8785 21.053 18.0155 21.1837C18.1529 21.3148 18.2925 21.4349 18.3957 21.5215C18.4337 21.5534 18.467 21.5808 18.4932 21.6025C18.5025 21.6102 18.5109 21.6172 18.5184 21.6234C18.5265 21.6301 18.5333 21.6358 18.5389 21.6405L18.5381 21.6554L18.5742 21.6675C18.5759 21.668 18.579 21.669 18.583 21.6696C18.586 21.67 18.5952 21.6712 18.6062 21.6676C18.6207 21.6628 18.6349 21.6504 18.6393 21.6312C18.6407 21.6252 18.6408 21.6197 18.6404 21.6151C18.6496 21.4457 18.6683 21.3153 18.7688 21.2299C18.9784 21.5152 19.2421 21.7567 19.5448 21.9407C19.8621 22.1335 20.2155 22.259 20.5832 22.3096L20.7702 22.3353L20.6205 22.2204C20.5328 22.1531 20.5055 22.049 20.5193 21.9064C20.5332 21.7628 20.5877 21.5934 20.6487 21.4109C20.6525 21.3994 20.6564 21.3878 20.6603 21.3762C20.7172 21.2065 20.7771 21.0279 20.8066 20.8596C20.8289 20.7328 20.8349 20.6072 20.8071 20.4924C20.9824 20.5956 21.1501 20.7114 21.3087 20.839L21.39 20.9044V20.8C21.39 20.5292 21.3115 20.3364 21.2354 20.1727C21.2268 20.1542 21.2183 20.1363 21.21 20.1187C21.1767 20.048 21.1465 19.984 21.1247 19.9207C21.1604 19.9501 21.1995 19.9732 21.2427 19.9948C21.273 20.0099 21.3043 20.024 21.3376 20.039C21.4151 20.0739 21.5032 20.1134 21.6135 20.1824L21.69 20.2302V20.14C21.69 19.6065 21.4596 19.1069 21.2324 18.7435C21.135 18.5877 21.0376 18.4559 20.9581 18.3561C21.2683 18.5168 21.5917 18.6512 21.9248 18.7577L22.0005 18.7818L21.9895 18.7031C21.8877 17.9702 21.5618 17.2866 21.0566 16.7459L21.0536 16.7427L21.0501 16.7401C20.0142 15.9619 19.1628 15.8801 18.6315 15.8775C18.5655 15.8772 18.5045 15.8781 18.4491 15.879C18.4445 15.8791 18.4398 15.8792 18.4352 15.8793C18.3853 15.8801 18.3404 15.8808 18.3001 15.8806C18.2093 15.8801 18.1523 15.8743 18.1197 15.8597C18.1053 15.8533 18.0992 15.8466 18.096 15.8406C18.0925 15.834 18.0892 15.8221 18.0916 15.7996C18.0966 15.7522 18.1244 15.6781 18.1844 15.5632L18.14 15.54Z" fill="black"/>
<path d="M16.9601 20.02C17.0401 19.39 17.2001 19.16 17.2601 18.74C17.3401 18.04 17.2401 17.5 17.5001 17.52C17.7401 17.54 17.8201 17.8 17.7001 18.52C17.5701 19.23 17.4601 19.4 16.9701 20.03L16.9601 20.02ZM18.2901 21.18C18.2401 20.66 18.3401 20.42 18.3001 20.08C18.2501 19.48 18.0601 19.06 18.2801 19.03C18.5001 18.99 18.6201 19.19 18.6401 19.81C18.6601 20.41 18.6101 20.58 18.2901 21.18ZM20.3701 22.14C20.1401 21.67 19.9401 21.54 19.8001 21.24C19.5401 20.71 19.4801 20.29 19.2901 20.36C19.0901 20.44 19.1001 20.66 19.3901 21.18C19.6701 21.68 19.8001 21.79 20.3601 22.14H20.3701ZM21.0801 17.99C20.5001 17.69 20.2101 17.69 19.8401 17.49C19.1901 17.15 18.8101 16.78 18.6801 16.99C18.5401 17.19 18.7201 17.4 19.3901 17.71C20.0601 18.02 20.2701 18.03 21.0701 17.99H21.0801ZM21.2801 19.72C20.8801 19.38 20.6201 19.32 20.3501 19.1C19.8701 18.7 19.6401 18.33 19.4901 18.48C19.3301 18.64 19.4301 18.84 19.9301 19.21C20.4301 19.58 20.6001 19.62 21.2901 19.72H21.2801Z" fill="#B3B3B3"/>
</g>
</g>
</g>
<defs>
<clipPath id="clip0_154_54470">
<rect width="48" height="48" fill="white"/>
</clipPath>
<clipPath id="clip1_154_54470">
<rect width="64" height="48" fill="white" transform="translate(-8)"/>
</clipPath>
</defs>
</svg>
