<svg width="48" height="48" viewBox="0 0 48 48" fill="none" xmlns="http://www.w3.org/2000/svg">
<g clip-path="url(#clip0_191_23386)">
<mask id="mask0_191_23386" style="mask-type:alpha" maskUnits="userSpaceOnUse" x="0" y="0" width="48" height="48">
<circle cx="24" cy="24" r="24" fill="#D9D9D9"/>
</mask>
<g mask="url(#mask0_191_23386)">
<g clip-path="url(#clip1_191_23386)">
<path d="M-2 0H62V48H-2V0Z" fill="#CC0000"/>
<path d="M-1.94995 3.98999H61.95V7.82999H-1.94995V3.98999ZM-1.94995 11.86H61.95V15.7H-1.94995V11.86ZM-1.94995 19.74H61.95V23.58H-1.94995V19.74Z" fill="white"/>
<path d="M-2 0.0499878H30V28.05H-2V0.0499878Z" fill="#000066"/>
<path d="M18.75 7.37999L19.35 11.45L21.65 8.04999L20.41 11.97L23.96 9.88999L21.15 12.89L25.25 12.57L21.42 14.05L25.25 15.53L21.15 15.21L23.96 18.21L20.41 16.13L21.64 20.06L19.34 16.65L18.74 20.72L18.15 16.65L15.85 20.05L17.09 16.13L13.54 18.21L16.34 15.21L12.24 15.53L16.08 14.05L12.25 12.57L16.35 12.89L13.54 9.88999L17.09 11.97L15.85 8.03999L18.15 11.45L18.75 7.37999ZM15.42 7.54999C14.3376 7.07017 13.1525 6.86826 11.9722 6.96259C10.792 7.05693 9.65395 7.44452 8.66147 8.09019C7.66899 8.73586 6.85348 9.61917 6.28893 10.6599C5.72439 11.7007 5.4287 12.866 5.4287 14.05C5.4287 15.234 5.72439 16.3993 6.28893 17.44C6.85348 18.4808 7.66899 19.3641 8.66147 20.0098C9.65395 20.6555 10.792 21.0431 11.9722 21.1374C13.1525 21.2317 14.3376 21.0298 15.42 20.55C14.2246 21.4077 12.8157 21.9192 11.3484 22.0281C9.88112 22.1369 8.41221 21.8391 7.10323 21.1672C5.79426 20.4953 4.69592 19.4755 3.92902 18.2198C3.16211 16.9642 2.75635 15.5213 2.75635 14.05C2.75635 12.5787 3.16211 11.1358 3.92902 9.88015C4.69592 8.62449 5.79426 7.60464 7.10323 6.93277C8.41221 6.26091 9.88112 5.96304 11.3484 6.07193C12.8157 6.18082 14.2246 6.69226 15.42 7.54999Z" fill="#FFCC00"/>
<path d="M-1.95 27.62H61.95V31.46H-1.95V27.62ZM-1.95 35.44H61.95V39.28H-1.95V35.44ZM-2 44.16H61.9V48H-2V44.16Z" fill="white"/>
</g>
</g>
</g>
<defs>
<clipPath id="clip0_191_23386">
<rect width="48" height="48" fill="white"/>
</clipPath>
<clipPath id="clip1_191_23386">
<rect width="64" height="48" fill="white" transform="translate(-2)"/>
</clipPath>
</defs>
</svg>
