<svg width="48" height="48" viewBox="0 0 48 48" fill="none" xmlns="http://www.w3.org/2000/svg">
<g clip-path="url(#clip0_154_54472)">
<mask id="mask0_154_54472" style="mask-type:alpha" maskUnits="userSpaceOnUse" x="0" y="0" width="48" height="48">
<circle cx="24" cy="24" r="24" fill="#D9D9D9"/>
</mask>
<g mask="url(#mask0_154_54472)">
<g clip-path="url(#clip1_154_54472)">
<path fill-rule="evenodd" clip-rule="evenodd" d="M-4 0H68V48H-4V0Z" fill="#00843D"/>
<path fill-rule="evenodd" clip-rule="evenodd" d="M20.6843 12.8906C23.3 14.1469 26.4125 12.8906 27.5375 11.1469C28.7 9.51561 28.8406 6.78749 26.8437 4.28436C29.9375 6.85311 30.6312 9.76874 29.0843 12.1687C27.0218 14.9156 22.4656 14.8312 20.6843 12.8906Z" fill="white"/>
<path fill-rule="evenodd" clip-rule="evenodd" d="M25.325 6.50625L25.85 6.51562L25.4375 6.84375L25.5969 7.36875L25.1562 7.05938L24.7344 7.36875L24.875 6.85312L24.4531 6.525L24.9781 6.51562L25.1562 6L25.325 6.50625ZM22.7281 9.76875H23.2531L22.8406 10.1063L23 10.6219L22.5593 10.3125L22.1281 10.6312L22.2781 10.1063L21.8562 9.7875L22.3812 9.76875L22.55 9.25312L22.7281 9.76875ZM22.8969 7.2H23.4312L23.0094 7.5375L23.1687 8.05313L22.7375 7.74375L22.3062 8.0625L22.4562 7.5375L22.0344 7.20938L22.5593 7.2L22.7281 6.68438L22.8969 7.2ZM22.8969 4.62187H23.4312L23 4.96875L23.1594 5.48438L22.7281 5.18437L22.2969 5.49375L22.4469 4.97812L22.025 4.65L22.55 4.64062L22.7187 4.125L22.8969 4.62187ZM20.0187 7.88438H20.5437L20.1218 8.22187L20.2812 8.7375L19.85 8.42812L19.4187 8.74688L19.5687 8.22187L19.1469 7.90313L19.6719 7.88438L19.8406 7.36875L20.0187 7.88438Z" fill="white"/>
<path fill-rule="evenodd" clip-rule="evenodd" d="M0.453125 0H15.8844V48H0.453125V0Z" fill="#CA3745"/>
<path fill-rule="evenodd" clip-rule="evenodd" d="M0.453125 12.5156V12.1687L1.09062 11.3156L0.96875 11.1375L1.34375 10.6312L1.22187 10.4531L0.96875 10.8L0.8375 10.6312L1.7375 9.43125L1.86875 9.6L1.7375 9.76875L2 10.125L2.6375 9.2625L1.99062 8.42813L1.7375 8.74688L1.86875 8.925L1.7375 9.09375L0.8375 7.89375L0.96875 7.725L1.22187 8.0625L1.35312 7.89375L0.96875 7.37812L1.09062 7.20938L0.453125 6.34687V6L1.35312 7.2L1.22187 7.36875L1.60625 7.88437L1.35312 8.23125L1.60625 8.56875L2 8.0625L2.90937 9.28125L2 10.4625L1.625 9.94687L1.3625 10.2938L1.61563 10.6406L1.24063 11.1469L1.3625 11.325L0.4625 12.525L0.453125 12.5156Z" fill="#FAAE29"/>
<path fill-rule="evenodd" clip-rule="evenodd" d="M0.453125 8.23126L0.584375 8.56876V9.09376H0.96875L1.23125 9.26251L0.96875 9.44064H0.59375V9.94689L0.4625 10.2938V8.23126H0.453125Z" fill="#FAAE29"/>
<path fill-rule="evenodd" clip-rule="evenodd" d="M0.453125 20.7469V20.4L1.09062 19.5469L0.96875 19.3687L1.34375 18.8531L1.22188 18.6844L0.96875 19.0312L0.8375 18.8531L1.7375 17.6531L1.86875 17.8312L1.7375 18L2 18.3469L2.6375 17.4844L1.99063 16.65L1.7375 16.9687L1.86875 17.1469L1.7375 17.3156L0.8375 16.1156L0.96875 15.9375L1.22188 16.275L1.35312 16.1062L0.96875 15.5906L1.09062 15.4219L0.453125 14.5594V14.2219L1.35312 15.4219L1.22188 15.5906L1.60625 16.1062L1.35312 16.4437L1.60625 16.7906L1.99063 16.275L2.9 17.4937L1.99063 18.675L1.61563 18.1594L1.35312 18.5062L1.60625 18.8437L1.23125 19.3594L1.35312 19.5375L0.453125 20.7375V20.7469Z" fill="#FAAE29"/>
<path fill-rule="evenodd" clip-rule="evenodd" d="M0.453125 16.4531L0.584375 16.8V17.3156H0.96875L1.23125 17.4844L0.96875 17.6531H0.59375V18.1688L0.4625 18.5156V16.4531H0.453125Z" fill="#FAAE29"/>
<path fill-rule="evenodd" clip-rule="evenodd" d="M0.453125 28.9688V28.6312L1.09062 27.7688L0.96875 27.6L1.34375 27.0844L1.22188 26.9156L0.96875 27.2531L0.8375 27.0844L1.7375 25.8844L1.86875 26.0531L1.7375 26.2312L2 26.5781L2.6375 25.7156L1.99063 24.8719L1.7375 25.2L1.86875 25.3688L1.7375 25.5375L0.8375 24.3375L0.96875 24.1687L1.22188 24.5156L1.35312 24.3375L0.96875 23.8312L1.09062 23.6531L0.453125 22.8V22.4531L1.35312 23.6531L1.22188 23.8312L1.60625 24.3375L1.35312 24.6844L1.60625 25.0312L2 24.5156L2.9 25.7344L1.99063 26.9156L1.61563 26.4L1.35312 26.7375L1.60625 27.0844L1.23125 27.6L1.35312 27.7688L0.453125 28.9688Z" fill="#FAAE29"/>
<path fill-rule="evenodd" clip-rule="evenodd" d="M0.453125 24.6844L0.59375 25.0312V25.5469H0.96875L1.23125 25.7156L0.96875 25.875H0.59375V26.3906L0.4625 26.7375V24.675L0.453125 24.6844Z" fill="#FAAE29"/>
<path fill-rule="evenodd" clip-rule="evenodd" d="M0.453125 36.6844V36.3375L1.09062 35.4844L0.96875 35.3156L1.34375 34.8L1.22188 34.6313L0.96875 34.9688L0.8375 34.8L1.7375 33.6L1.86875 33.7688L1.7375 33.9375L2 34.2844L2.6375 33.4313L1.99063 32.5875L1.7375 32.9156L1.86875 33.0844L1.7375 33.2531L0.8375 32.0531L0.96875 31.8844L1.22188 32.2313L1.35312 32.0531L0.96875 31.5375L1.09062 31.3688L0.453125 30.5156V30.1688L1.35312 31.3688L1.22188 31.5375L1.60625 32.0531L1.35312 32.4L1.60625 32.7375L2 32.2313L2.9 33.45L1.99063 34.6313L1.61563 34.1156L1.35312 34.4531L1.60625 34.8L1.23125 35.3156L1.35312 35.4844L0.453125 36.6844Z" fill="#FAAE29"/>
<path fill-rule="evenodd" clip-rule="evenodd" d="M0.453125 32.4L0.584375 32.7375V33.2531H0.96875L1.23125 33.4313L0.96875 33.6H0.59375V34.1156L0.4625 34.4531V32.3906L0.453125 32.4Z" fill="#FAAE29"/>
<path fill-rule="evenodd" clip-rule="evenodd" d="M15.8844 12.5156V12.1688L15.2469 11.3156L15.3781 11.1375L14.9938 10.6312L15.1156 10.4531L15.3781 10.8L15.5094 10.6312L14.6094 9.43125L14.4781 9.6L14.6094 9.76875L14.3375 10.1156L13.7094 9.25312L14.3469 8.41875L14.6094 8.7375L14.4781 8.91562L14.6 9.08438L15.5 7.88437L15.3781 7.71563L15.1156 8.05313L14.9938 7.88437L15.3688 7.36875L15.2469 7.2L15.8844 6.3375V6L14.9938 7.2L15.1156 7.36875L14.7406 7.88437L14.9938 8.23125L14.7313 8.56875L14.3469 8.05313L13.4375 9.27188L14.3469 10.4531L14.7313 9.9375L14.9938 10.2844L14.7313 10.6312L15.1156 11.1375L14.9938 11.3156L15.8844 12.5156Z" fill="#FAAE29"/>
<path fill-rule="evenodd" clip-rule="evenodd" d="M15.8844 8.23126L15.7531 8.56876V9.09376H15.3781L15.1156 9.26251L15.3687 9.44064H15.7531V9.94689L15.8844 10.2938V8.23126Z" fill="#FAAE29"/>
<path fill-rule="evenodd" clip-rule="evenodd" d="M15.9313 20.7469V20.4L15.2938 19.5469L15.4156 19.3688L15.0406 18.8531L15.1625 18.6844L15.4156 19.0313L15.5469 18.8531L14.6469 17.6531L14.5156 17.8313L14.6469 18L14.3844 18.3469L13.7469 17.4844L14.3937 16.65L14.6469 16.9688L14.5156 17.1375L14.6469 17.3156L15.5469 16.1156L15.4156 15.9375L15.1625 16.2844L15.0312 16.1156L15.4156 15.6L15.2938 15.4313L15.9313 14.5688V14.2313L15.0312 15.4313L15.1625 15.6L14.7781 16.1156L15.0312 16.4531L14.7781 16.8L14.3937 16.2844L13.4844 17.5031L14.3937 18.6844L14.7687 18.1688L15.0312 18.5156L14.7781 18.8531L15.1531 19.3688L15.0312 19.5375L15.9313 20.7375V20.7469Z" fill="#FAAE29"/>
<path fill-rule="evenodd" clip-rule="evenodd" d="M15.9313 16.4531L15.8 16.8V17.3156H15.4063L15.1438 17.4844L15.4063 17.6531H15.7813V18.1688L15.9219 18.5156V16.4531H15.9313Z" fill="#FAAE29"/>
<path fill-rule="evenodd" clip-rule="evenodd" d="M15.8844 28.9688V28.6312L15.2469 27.7688L15.3781 27.6L14.9938 27.0844L15.1156 26.9156L15.3781 27.2531L15.5094 27.0844L14.6094 25.8844L14.4781 26.0531L14.6094 26.2312L14.3375 26.5781L13.7094 25.7156L14.3469 24.8719L14.6094 25.2L14.4781 25.3688L14.6 25.5375L15.5 24.3375L15.3781 24.1687L15.1156 24.5156L14.9938 24.3375L15.3688 23.8312L15.2469 23.6531L15.8844 22.8V22.4531L14.9938 23.6531L15.1156 23.8312L14.7406 24.3375L14.9938 24.6844L14.7313 25.0312L14.3469 24.5156L13.4375 25.7344L14.3469 26.9156L14.7313 26.4L14.9938 26.7375L14.7313 27.0844L15.1156 27.6L14.9938 27.7688L15.875 28.9688H15.8844Z" fill="#FAAE29"/>
<path fill-rule="evenodd" clip-rule="evenodd" d="M15.8844 24.6844L15.7531 25.0313V25.5469H15.3781L15.1156 25.7156L15.3687 25.8844H15.7531V26.4L15.8844 26.7469V24.6844Z" fill="#FAAE29"/>
<path fill-rule="evenodd" clip-rule="evenodd" d="M15.8844 36.6844V36.3375L15.2469 35.4844L15.3781 35.3156L14.9938 34.8L15.1156 34.6312L15.3781 34.9687L15.5094 34.8L14.6094 33.6L14.4781 33.7687L14.6094 33.9375L14.3375 34.2844L13.7094 33.4312L14.3469 32.5875L14.6094 32.9156L14.4781 33.0844L14.6 33.2531L15.5 32.0625L15.3781 31.8937L15.1156 32.2406L14.9938 32.0625L15.3688 31.5469L15.2469 31.3781L15.8844 30.525V30.1781L14.9938 31.3781L15.1156 31.5469L14.7406 32.0625L14.9938 32.4094L14.7313 32.7469L14.3469 32.2406L13.4375 33.4594L14.3469 34.6406L14.7313 34.125L14.9938 34.4625L14.7313 34.8094L15.1156 35.325L14.9938 35.4937L15.8844 36.6937V36.6844Z" fill="#FAAE29"/>
<path fill-rule="evenodd" clip-rule="evenodd" d="M15.8844 32.4L15.7531 32.7375V33.2531H15.3781L15.1156 33.4313L15.3687 33.6H15.7531V34.1156L15.8844 34.4531V32.3906V32.4Z" fill="#FAAE29"/>
<path fill-rule="evenodd" clip-rule="evenodd" d="M0.4531 3.25312V2.91563L1.0906 2.05313L0.968725 1.88437L1.34373 1.36875L1.22185 1.2L0.968725 1.54688L0.837475 1.36875L1.73748 0.16875L1.86873 0.346875L1.73748 0.515625L1.99998 0.8625L2.63748 0H2.89998L1.99998 1.2L1.60623 0.684375L1.3531 1.03125L1.60623 1.36875L1.23123 1.88437L1.34373 2.0625L0.4531 3.2625V3.25312ZM0.4531 0H1.23123L0.968725 0.16875H0.593725V0.684375L0.443726 1.03125V0H0.4531ZM15.8844 3.25312V2.91563L15.2469 2.05313L15.3781 1.88437L14.9937 1.36875L15.1156 1.2L15.3781 1.54688L15.5 1.36875L14.6 0.16875L14.4781 0.346875L14.6 0.515625L14.3375 0.8625L13.7 0H13.4375L14.3468 1.2L14.7312 0.684375L14.9937 1.03125L14.7312 1.36875L15.1156 1.88437L14.9937 2.05313L15.8844 3.25312ZM15.8844 0H15.1156L15.3687 0.16875H15.7531V0.684375L15.8844 1.03125V0ZM6.88435 47.3156C6.88435 47.3156 7.44685 46.3406 8.83435 46.05C10.2312 45.75 10.475 46.6969 11.2718 46.6969C12.0687 46.6969 13.3343 46.0406 13.3343 46.0406C13.3343 46.0406 12.0687 47.2875 11.0843 47.2594C10.1187 47.2313 9.7906 46.6031 8.78747 46.6969C7.79372 46.7906 6.88435 47.3438 6.88435 47.3156Z" fill="#FAAE29"/>
<path fill-rule="evenodd" clip-rule="evenodd" d="M9.57502 47.3156C9.57502 47.3156 9.0219 46.3406 7.6344 46.05C6.22815 45.75 5.99377 46.6969 5.1969 46.6969C4.40002 46.6969 3.1344 46.0406 3.1344 46.0406C3.1344 46.0406 4.40002 47.2875 5.37502 47.2594C6.35002 47.2313 6.68752 46.6031 7.6719 46.6969C8.67502 46.7906 9.57502 47.3438 9.57502 47.3156Z" fill="#FAAE29"/>
<path fill-rule="evenodd" clip-rule="evenodd" d="M5.01877 45.7031C4.8969 45.45 4.58752 44.325 4.7469 44.1844C5.00002 44.0906 5.65627 45.2438 5.59065 46.2656C5.1594 46.5 3.71565 46.1719 3.72502 45.8719C3.82815 45.45 4.65315 45.5906 5.01877 45.7031Z" fill="#FAAE29"/>
<path fill-rule="evenodd" clip-rule="evenodd" d="M4.13749 44.7187C4.06249 44.4375 3.93124 43.2562 4.11874 43.1625C4.37186 43.1437 4.83124 44.4469 4.61561 45.4312C4.15624 45.5437 2.78749 44.8219 2.85311 44.5312C3.02186 44.1562 3.79061 44.5125 4.13749 44.7187Z" fill="#FAAE29"/>
<path fill-rule="evenodd" clip-rule="evenodd" d="M3.42503 43.6313C3.36878 43.3313 3.35003 42.1313 3.53753 42.075C3.79066 42.0938 4.13753 43.4625 3.83753 44.4094C3.36878 44.4469 2.07503 43.5094 2.16878 43.2375C2.35628 42.8813 3.10628 43.3594 3.42503 43.6313Z" fill="#FAAE29"/>
<path fill-rule="evenodd" clip-rule="evenodd" d="M2.86256 42.4688C2.84381 42.1594 2.95631 40.9688 3.15318 40.95C3.40631 41.0156 3.58443 42.4406 3.17193 43.3125C2.71256 43.2563 1.54068 42.0656 1.67193 41.8125C1.89693 41.5031 2.58131 42.1313 2.86256 42.4688Z" fill="#FAAE29"/>
<path fill-rule="evenodd" clip-rule="evenodd" d="M2.46878 41.2406C2.48753 40.9312 2.73128 39.7875 2.92815 39.7969C3.16253 39.9187 3.19065 41.3531 2.69378 42.1406C2.24378 41.9906 1.20315 40.5937 1.35315 40.3594C1.62503 40.0969 2.22503 40.8562 2.47815 41.2406H2.46878Z" fill="#FAAE29"/>
<path fill-rule="evenodd" clip-rule="evenodd" d="M2.58131 39.8438C2.55319 41.0625 2.32819 41.0813 1.92506 40.1813C1.73756 39.8344 1.71881 38.4281 1.87819 38.3719C2.11256 38.3719 2.57194 39.375 2.58131 39.8438Z" fill="#FAAE29"/>
<path fill-rule="evenodd" clip-rule="evenodd" d="M11.375 45.8437C11.4969 45.5812 11.8063 44.4562 11.6469 44.3156C11.3938 44.2218 10.7469 45.3656 10.8031 46.3968C11.2344 46.6312 12.6875 46.3031 12.6688 46.0031C12.5656 45.5812 11.75 45.7218 11.375 45.8343V45.8437Z" fill="#FAAE29"/>
<path fill-rule="evenodd" clip-rule="evenodd" d="M12.2563 44.85C12.3407 44.5687 12.4626 43.3875 12.2844 43.2937C12.0313 43.275 11.5626 44.5687 11.7876 45.5625C12.2376 45.675 13.6157 44.9531 13.5407 44.6625C13.3813 44.2781 12.6032 44.6437 12.2563 44.85Z" fill="#FAAE29"/>
<path fill-rule="evenodd" clip-rule="evenodd" d="M12.9687 43.7625C13.025 43.4625 13.0437 42.2625 12.8562 42.2062C12.6031 42.225 12.2562 43.5844 12.5656 44.5312C13.0343 44.5687 14.3281 43.6406 14.2343 43.3594C14.0281 43.0031 13.2968 43.4906 12.9687 43.7625Z" fill="#FAAE29"/>
<path fill-rule="evenodd" clip-rule="evenodd" d="M13.5313 42.5906C13.5501 42.2906 13.4376 41.1 13.2407 41.0812C12.9876 41.1469 12.8094 42.5719 13.2219 43.4437C13.6907 43.3875 14.8532 42.1969 14.7313 41.9437C14.4969 41.625 13.8219 42.2625 13.5313 42.5906Z" fill="#FAAE29"/>
<path fill-rule="evenodd" clip-rule="evenodd" d="M13.925 41.3625C13.9157 41.0625 13.6625 39.9093 13.475 39.9281C13.2313 40.0406 13.2032 41.4843 13.7094 42.2718C14.1594 42.1218 15.1907 40.725 15.0407 40.4906C14.7688 40.2281 14.1688 40.9875 13.9157 41.3625H13.925Z" fill="#FAAE29"/>
<path fill-rule="evenodd" clip-rule="evenodd" d="M13.8125 39.975C13.85 41.1937 14.0656 41.2031 14.4688 40.3031C14.6562 39.9656 14.675 38.55 14.5156 38.5031C14.2812 38.5031 13.8219 39.5062 13.8125 39.975Z" fill="#FAAE29"/>
<path fill-rule="evenodd" clip-rule="evenodd" d="M13.493 30.8359H12.7256V31.3506H11.9862V31.8654H9.02845L8.52619 32.3948L8.77732 32.6596H10.019L10.2562 32.3948H9.02845L9.26563 32.1301H10.9956L10.2562 32.9096H8.54014L8.05183 32.6596L7.54957 32.9096H5.81957L5.08013 32.1301H6.81013L7.06126 32.3948H5.81957L6.0707 32.6596H7.31239L7.54957 32.3948L7.06126 31.8654H4.34069V31.3506H3.60125V30.8359H2.86182V28.4827H3.60125V27.9679H4.34069V27.4385H7.06126L7.54957 26.9237L7.31239 26.659H6.0707L5.81957 26.9237H7.06126L6.81013 27.1737H5.08013L5.81957 26.3942H7.56352L8.06578 26.659L8.55409 26.3942H10.2841L11.0235 27.1737H9.29353L9.05635 26.9237H10.2841L10.033 26.659H8.80522L8.54014 26.9237L9.0424 27.4385H12.0002V27.9679H12.7396V28.4827H13.493V30.8359Z" fill="#CA3745"/>
<path fill-rule="evenodd" clip-rule="evenodd" d="M5.81645 26.3871H7.56526L8.0657 26.6509L8.55223 26.3871H10.2871L11.0402 27.1809H9.29041L9.03965 26.9166H10.2674L10.0298 26.6661H8.80815L8.55017 26.9238L9.04538 27.4313H12.0073V27.9608H12.7467V28.4755H13.5001V30.8359H13.4929V30.843H12.7328V31.3578H11.9933V31.8726H9.03149L8.53602 32.3949L8.78036 32.6524H10.0158L10.2401 32.402H9.01237L9.26239 32.123H11.0123L10.2592 32.9168H8.53837L8.05175 32.6676L7.55122 32.9168H5.81645L5.06342 32.123H6.81317L7.07789 32.402H5.83619L6.07373 32.6524H7.30915L7.53985 32.3949L7.05809 31.8726H4.33349V31.3578H3.59405V30.843H2.85461V28.4755H3.59405V27.9608H4.33349V27.4313H7.05815L7.53979 26.9236L7.30915 26.6661H6.07373L5.83619 26.9166H7.07857L6.81305 27.1809H5.06342L5.81645 26.3871ZM13.4858 30.8287V28.4899H12.7324V27.9751H11.9929V27.4456H9.03934L8.53003 26.9236L8.80222 26.6518H10.036L10.3007 26.9309H9.07298L9.29657 27.1666H11.0068L10.281 26.4014H8.55587L8.06579 26.6671L7.56171 26.4014H5.82261L5.09676 27.1666H6.80714L7.04388 26.9309H5.80286L6.06758 26.6518H7.31555L7.55927 26.9239L7.0643 27.4456H4.34781V27.9751H3.60838V28.4899H2.86894V30.8287H3.60838V31.3435H4.34781V31.8582H7.06436L7.55921 32.3948L7.31555 32.6667H6.06758L5.80286 32.3877H7.04456L6.80702 32.1373H5.09676L5.82261 32.9025H7.54785L8.05184 32.6516L8.54183 32.9025H10.2531L10.9789 32.1373H9.26879L9.04444 32.3877H10.2722L10.0222 32.6667H8.7742L8.51628 32.3949L9.02533 31.8582H11.979V31.3435H12.7184V30.8287H13.4858Z" fill="black"/>
<path fill-rule="evenodd" clip-rule="evenodd" d="M3.1095 28.7567V30.5804H3.84893V31.0951H4.58835V31.6099H7.06474L8.05529 32.3967L9.03887 31.6172H11.7594V31.1025L12.4988 31.0951V30.5804H13.2522V28.7493H12.5058V28.2346H11.7664V27.7051H9.04585L8.06227 26.9256L7.07171 27.7051H4.59533V28.2346H3.8559V28.7493H3.11647L3.1095 28.7567Z" fill="#00843D"/>
<path fill-rule="evenodd" clip-rule="evenodd" d="M8.06247 26.8618L9.06339 27.655H11.8166V28.1845H12.556V28.6992H13.3024V30.6306H12.5491V31.1448L11.8096 31.1522V31.6674H9.05642L8.05534 32.4608L7.04733 31.6601H4.5383V31.1453H3.79888V30.6306H3.05945V28.7367L3.09501 28.6992H3.80585V28.1845H4.54528V27.655H7.05444L8.06247 26.8618ZM8.06225 26.9895L7.08916 27.7553H4.64555V28.2847H3.90612V28.7995H3.15972V30.5303H3.89915V31.045H4.63857V31.5598H7.08231L8.05542 32.3328L9.0215 31.5672H11.7094V31.0529L12.4488 31.0455V30.5303H13.2022V28.7995H12.4558V28.2847H11.7163V27.7553H9.02848L8.06225 26.9895Z" fill="#FAAE29"/>
<path fill-rule="evenodd" clip-rule="evenodd" d="M6.56672 27.9603L5.08569 29.265V27.9603H6.56672ZM9.52878 27.9603L11.0192 29.265V27.9603H9.52878ZM6.56672 31.3525L5.08569 30.0478V31.3525H6.56672ZM9.52878 31.3525L11.0192 30.0478V31.3525H9.52878ZM10.0256 28.7431L9.52878 29.265H10.5224L10.0256 28.7431ZM6.06992 28.7431L5.58249 29.265H6.56672L6.06992 28.7431ZM6.06992 30.5697L5.58249 30.0478H6.56672L6.06992 30.5697ZM10.0256 30.5697L9.52878 30.0478H10.5224L10.0256 30.5697Z" fill="#CA3745"/>
<path fill-rule="evenodd" clip-rule="evenodd" d="M8.0477 31.8744L7.5509 31.3525H8.5445L8.0477 31.8744ZM8.0477 29.265L7.5509 28.7432H8.5445L8.0477 29.265ZM8.0477 27.4385L7.5509 27.9722H8.5445L8.0477 27.4385ZM8.0477 30.0478L7.5509 30.5697H8.5445L8.0477 30.0478Z" fill="#FAAE29"/>
<path fill-rule="evenodd" clip-rule="evenodd" d="M9.53418 29.2714H10.5317V29.5288H9.54115L9.53418 29.2714Z" fill="#FAAE29"/>
<path fill-rule="evenodd" clip-rule="evenodd" d="M9.53052 29.2679H10.5353V29.5324H9.53769L9.53052 29.2679ZM9.53788 29.275L9.54466 29.5253H10.5281V29.275H9.53788Z" fill="black"/>
<path fill-rule="evenodd" clip-rule="evenodd" d="M5.83008 29.5288H6.31838V29.7935H5.83008V29.5288ZM9.78532 29.5288H10.2736V29.7935H9.78532V29.5288Z" fill="#CC0000"/>
<path fill-rule="evenodd" clip-rule="evenodd" d="M5.82654 29.5252H6.322V29.7971H5.82654V29.5252ZM5.8337 29.5324V29.7899H6.31484V29.5324H5.8337ZM9.78178 29.5252H10.2772V29.7971H9.78178V29.5252ZM9.78894 29.5324V29.7899H10.2701V29.5324H9.78894Z" fill="black"/>
<path fill-rule="evenodd" clip-rule="evenodd" d="M7.56006 27.9698H8.54364V28.2272H7.56006V27.9698ZM7.56006 28.4846H8.54364V28.7493H7.56006V28.4846Z" fill="#990000"/>
<path fill-rule="evenodd" clip-rule="evenodd" d="M7.55652 27.9662H8.54726V28.2308H7.55652V27.9662ZM7.56368 27.9734V28.2236H8.5401V27.9734H7.56368ZM7.55652 28.481H8.54726V28.7529H7.55652V28.481ZM7.56368 28.4882V28.7457H8.5401V28.4882H7.56368Z" fill="black"/>
<path fill-rule="evenodd" clip-rule="evenodd" d="M7.30896 28.2272H8.79479V28.492H7.30896V28.2272ZM7.56009 30.5804H8.54367V30.8304H7.56009V30.5804ZM7.56009 31.0952H8.54367V31.3526H7.56009V31.0952ZM7.30896 30.8378H8.79479V31.0952H7.30896V30.8378Z" fill="#990000"/>
<path fill-rule="evenodd" clip-rule="evenodd" d="M7.3053 28.2236H8.79829V28.4955H7.3053V28.2236ZM7.31246 28.2308V28.4884H8.79113V28.2308H7.31246ZM7.55642 30.5768H8.54717V30.834H7.55642V30.5768ZM7.56359 30.584V30.8268H8.54V30.584H7.56359ZM7.3053 30.8342H8.79829V31.0987H8.54717V31.3561H7.55642V31.0987H7.3053V30.8342ZM8.79113 31.0916V30.8414H7.31246V31.0916H8.79113ZM7.56359 31.0987V31.3489H8.54V31.0987H7.56359Z" fill="black"/>
<path fill-rule="evenodd" clip-rule="evenodd" d="M9.53423 29.7935H10.5318V30.0509H9.54121L9.53423 29.7935ZM5.57899 29.2714H6.56954V29.5288H5.57899V29.2714ZM5.57899 29.7862H6.56954V30.0509H5.57899V29.7862ZM5.33484 29.5288H5.82314V29.7935H5.33484V29.5288ZM6.32539 29.5288H6.8137V29.7935H6.32539V29.5288ZM9.29008 29.5288H9.77838V29.7935H9.29008V29.5288ZM10.2806 29.5288H10.7689V29.7935H10.2806V29.5288Z" fill="#FAAE29"/>
<path fill-rule="evenodd" clip-rule="evenodd" d="M5.57533 29.2679H6.57304V29.5253H6.8172V29.7972H6.57304V30.0545H5.57533V29.7972H5.33118V29.5253H5.57533V29.2679ZM5.58249 29.5253H6.56588V29.275H5.58249V29.5253ZM6.32173 29.5324H5.82664V29.7826H6.32173V29.5324ZM6.32173 29.7898H5.82664V29.7972H5.58249V30.0474H6.56588V29.7972H6.32173V29.7898ZM6.57304 29.79V29.7826H6.32889V29.5324H6.81003V29.79H6.57304ZM6.56588 29.79H6.32889V29.7898H6.56588V29.79ZM5.58249 29.79H5.81948V29.7898H5.58249V29.79ZM5.81948 29.7826V29.5324H5.33834V29.79H5.57533V29.7826H5.81948ZM9.28642 29.5253H9.78188V29.79H10.277V29.5253H10.7724V29.7972H10.5353V30.0545H9.53764L9.53067 29.7972H9.28642V29.5253ZM9.77472 29.79V29.5324H9.29358V29.79H9.77472ZM9.53783 29.7972L9.54461 30.0474H10.5281V29.7972H9.53783ZM10.7653 29.79V29.5324H10.2841V29.79H10.7653Z" fill="black"/>
<path d="M7.44523 31.0202C7.4799 31.0202 7.50801 30.9906 7.50801 30.954C7.50801 30.9175 7.4799 30.8878 7.44523 30.8878C7.41056 30.8878 7.38245 30.9175 7.38245 30.954C7.38245 30.9906 7.41056 31.0202 7.44523 31.0202Z" fill="white"/>
<path d="M8.05448 31.0202C8.08916 31.0202 8.11726 30.9906 8.11726 30.954C8.11726 30.9175 8.08916 30.8878 8.05448 30.8878C8.01981 30.8878 7.9917 30.9175 7.9917 30.954C7.9917 30.9906 8.01981 31.0202 8.05448 31.0202Z" fill="white"/>
<path d="M8.67313 31.0202C8.70781 31.0202 8.73592 30.9906 8.73592 30.954C8.73592 30.9175 8.70781 30.8878 8.67313 30.8878C8.63846 30.8878 8.61035 30.9175 8.61035 30.954C8.61035 30.9906 8.63846 31.0202 8.67313 31.0202Z" fill="white"/>
<path d="M7.68888 30.7711C7.72356 30.7711 7.75166 30.7415 7.75166 30.7049C7.75166 30.6684 7.72356 30.6387 7.68888 30.6387C7.65421 30.6387 7.6261 30.6684 7.6261 30.7049C7.6261 30.7415 7.65421 30.7711 7.68888 30.7711Z" fill="white"/>
<path d="M8.42008 30.7711C8.45476 30.7711 8.48286 30.7415 8.48286 30.7049C8.48286 30.6684 8.45476 30.6387 8.42008 30.6387C8.38541 30.6387 8.3573 30.6684 8.3573 30.7049C8.3573 30.7415 8.38541 30.7711 8.42008 30.7711Z" fill="white"/>
<path d="M7.67948 31.2811C7.71416 31.2811 7.74226 31.2515 7.74226 31.2149C7.74226 31.1784 7.71416 31.1487 7.67948 31.1487C7.64481 31.1487 7.6167 31.1784 7.6167 31.2149C7.6167 31.2515 7.64481 31.2811 7.67948 31.2811Z" fill="white"/>
<path d="M8.42008 31.293C8.45476 31.293 8.48286 31.2634 8.48286 31.2268C8.48286 31.1903 8.45476 31.1606 8.42008 31.1606C8.38541 31.1606 8.3573 31.1903 8.3573 31.2268C8.3573 31.2634 8.38541 31.293 8.42008 31.293Z" fill="white"/>
<path d="M9.40421 29.7155C9.43889 29.7155 9.467 29.6859 9.467 29.6493C9.467 29.6128 9.43889 29.5831 9.40421 29.5831C9.36954 29.5831 9.34143 29.6128 9.34143 29.6493C9.34143 29.6859 9.36954 29.7155 9.40421 29.7155Z" fill="white"/>
<path d="M10.0229 29.7155C10.0575 29.7155 10.0856 29.6859 10.0856 29.6493C10.0856 29.6128 10.0575 29.5831 10.0229 29.5831C9.98819 29.5831 9.96008 29.6128 9.96008 29.6493C9.96008 29.6859 9.98819 29.7155 10.0229 29.7155Z" fill="white"/>
<path d="M10.6415 29.7155C10.6762 29.7155 10.7043 29.6859 10.7043 29.6493C10.7043 29.6128 10.6762 29.5831 10.6415 29.5831C10.6068 29.5831 10.5787 29.6128 10.5787 29.6493C10.5787 29.6859 10.6068 29.7155 10.6415 29.7155Z" fill="white"/>
<path d="M9.65739 29.4546C9.69206 29.4546 9.72017 29.4249 9.72017 29.3884C9.72017 29.3518 9.69206 29.3222 9.65739 29.3222C9.62271 29.3222 9.5946 29.3518 9.5946 29.3884C9.5946 29.4249 9.62271 29.4546 9.65739 29.4546Z" fill="white"/>
<path d="M10.3885 29.4546C10.4231 29.4546 10.4512 29.4249 10.4512 29.3884C10.4512 29.3518 10.4231 29.3222 10.3885 29.3222C10.3538 29.3222 10.3257 29.3518 10.3257 29.3884C10.3257 29.4249 10.3538 29.4546 10.3885 29.4546Z" fill="white"/>
<path d="M9.64799 29.9646C9.68266 29.9646 9.71077 29.935 9.71077 29.8984C9.71077 29.8618 9.68266 29.8322 9.64799 29.8322C9.61332 29.8322 9.58521 29.8618 9.58521 29.8984C9.58521 29.935 9.61332 29.9646 9.64799 29.9646Z" fill="white"/>
<path d="M10.3885 29.9764C10.4231 29.9764 10.4512 29.9468 10.4512 29.9102C10.4512 29.8737 10.4231 29.8441 10.3885 29.8441C10.3538 29.8441 10.3257 29.8737 10.3257 29.9102C10.3257 29.9468 10.3538 29.9764 10.3885 29.9764Z" fill="white"/>
<path d="M7.43583 28.4227C7.4705 28.4227 7.49861 28.393 7.49861 28.3565C7.49861 28.3199 7.4705 28.2903 7.43583 28.2903C7.40116 28.2903 7.37305 28.3199 7.37305 28.3565C7.37305 28.393 7.40116 28.4227 7.43583 28.4227Z" fill="white"/>
<path d="M8.05448 28.4227C8.08916 28.4227 8.11726 28.393 8.11726 28.3565C8.11726 28.3199 8.08916 28.2903 8.05448 28.2903C8.01981 28.2903 7.9917 28.3199 7.9917 28.3565C7.9917 28.393 8.01981 28.4227 8.05448 28.4227Z" fill="white"/>
<path d="M8.67313 28.4108C8.70781 28.4108 8.73592 28.3812 8.73592 28.3446C8.73592 28.3081 8.70781 28.2784 8.67313 28.2784C8.63846 28.2784 8.61035 28.3081 8.61035 28.3446C8.61035 28.3812 8.63846 28.4108 8.67313 28.4108Z" fill="white"/>
<path d="M7.67948 28.1617C7.71416 28.1617 7.74226 28.1321 7.74226 28.0955C7.74226 28.059 7.71416 28.0294 7.67948 28.0294C7.64481 28.0294 7.6167 28.059 7.6167 28.0955C7.6167 28.1321 7.64481 28.1617 7.67948 28.1617Z" fill="white"/>
<path d="M8.42008 28.1617C8.45476 28.1617 8.48286 28.1321 8.48286 28.0955C8.48286 28.059 8.45476 28.0294 8.42008 28.0294C8.38541 28.0294 8.3573 28.059 8.3573 28.0955C8.3573 28.1321 8.38541 28.1617 8.42008 28.1617Z" fill="white"/>
<path d="M7.67948 28.6717C7.71416 28.6717 7.74226 28.6421 7.74226 28.6056C7.74226 28.569 7.71416 28.5394 7.67948 28.5394C7.64481 28.5394 7.6167 28.569 7.6167 28.6056C7.6167 28.6421 7.64481 28.6717 7.67948 28.6717Z" fill="white"/>
<path d="M8.42008 28.6836C8.45476 28.6836 8.48286 28.654 8.48286 28.6175C8.48286 28.5809 8.45476 28.5513 8.42008 28.5513C8.38541 28.5513 8.3573 28.5809 8.3573 28.6175C8.3573 28.654 8.38541 28.6836 8.42008 28.6836Z" fill="white"/>
<path d="M5.45792 29.7392C5.4926 29.7392 5.52071 29.7096 5.52071 29.6731C5.52071 29.6365 5.4926 29.6069 5.45792 29.6069C5.42325 29.6069 5.39514 29.6365 5.39514 29.6731C5.39514 29.7096 5.42325 29.7392 5.45792 29.7392Z" fill="white"/>
<path d="M6.07658 29.7392C6.11125 29.7392 6.13936 29.7096 6.13936 29.6731C6.13936 29.6365 6.11125 29.6069 6.07658 29.6069C6.0419 29.6069 6.01379 29.6365 6.01379 29.6731C6.01379 29.7096 6.0419 29.7392 6.07658 29.7392Z" fill="white"/>
<path d="M6.69523 29.7273C6.7299 29.7273 6.75801 29.6977 6.75801 29.6612C6.75801 29.6246 6.7299 29.595 6.69523 29.595C6.66056 29.595 6.63245 29.6246 6.63245 29.6612C6.63245 29.6977 6.66056 29.7273 6.69523 29.7273Z" fill="white"/>
<path d="M5.7111 29.4783C5.74577 29.4783 5.77388 29.4487 5.77388 29.4121C5.77388 29.3756 5.74577 29.3459 5.7111 29.3459C5.67643 29.3459 5.64832 29.3756 5.64832 29.4121C5.64832 29.4487 5.67643 29.4783 5.7111 29.4783Z" fill="white"/>
<path d="M6.44218 29.4783C6.47685 29.4783 6.50496 29.4487 6.50496 29.4121C6.50496 29.3756 6.47685 29.3459 6.44218 29.3459C6.4075 29.3459 6.37939 29.3756 6.37939 29.4121C6.37939 29.4487 6.4075 29.4783 6.44218 29.4783Z" fill="white"/>
<path d="M5.7017 29.9883C5.73637 29.9883 5.76448 29.9587 5.76448 29.9221C5.76448 29.8856 5.73637 29.856 5.7017 29.856C5.66703 29.856 5.63892 29.8856 5.63892 29.9221C5.63892 29.9587 5.66703 29.9883 5.7017 29.9883Z" fill="white"/>
<path d="M6.44218 30.0002C6.47685 30.0002 6.50496 29.9705 6.50496 29.934C6.50496 29.8974 6.47685 29.8678 6.44218 29.8678C6.4075 29.8678 6.37939 29.8974 6.37939 29.934C6.37939 29.9705 6.4075 30.0002 6.44218 30.0002Z" fill="white"/>
<path fill-rule="evenodd" clip-rule="evenodd" d="M9.02192 23.9813L9.4438 23.775L9.87505 23.9813H9.02192ZM7.74692 23.9813L8.1688 23.775L8.60005 23.9813H7.74692ZM6.47192 23.9813L6.8938 23.775L7.32505 23.9813H6.47192ZM9.02192 19.3875L9.4438 19.5938L9.87505 19.3969H9.02192V19.3875ZM7.74692 19.3875L8.1688 19.5938L8.60005 19.3969H7.74692V19.3875ZM6.47192 19.3875L6.8938 19.5938L7.32505 19.3969H6.47192V19.3875Z" fill="white"/>
<path fill-rule="evenodd" clip-rule="evenodd" d="M8.66563 24.5719L8.16875 24.975L7.67188 24.5719L7.175 24.975L6.67813 24.5719V24.7781L7.01562 24.9656L6.84687 25.1719V25.3688H7.01562L7.175 25.1813L7.34375 25.3688H7.5125V25.1813L7.34375 24.975L7.67188 24.7781L8.00938 24.9656L7.84063 25.1719V25.3688H8.00938L8.16875 25.1813L8.3375 25.3688H8.49688V25.1813L8.3375 24.975L8.66563 24.7781L8.99375 24.9656L8.83437 25.1719V25.3688H8.99375L9.1625 25.1813L9.33125 25.3688H9.49062V25.1813L9.33125 24.975L9.65938 24.7781V24.5625L9.1625 24.9656L8.66563 24.5625V24.5719ZM8.66563 18.7969L8.16875 18.3937L7.67188 18.7969L7.175 18.3937L6.67813 18.7969V18.6L7.01562 18.3937L6.84687 18.2062V18H7.01562L7.175 18.1969L7.34375 18H7.5125V18.1969L7.34375 18.4031L7.67188 18.5906L8.00938 18.4031L7.84063 18.1969V18H8.00938L8.16875 18.1969L8.3375 18H8.49688V18.1969L8.3375 18.4031L8.66563 18.5906L8.99375 18.4031L8.83437 18.1969V18H8.99375L9.1625 18.1969L9.33125 18H9.49062V18.1969L9.33125 18.4031L9.65938 18.5906V18.7969L9.1625 18.3937L8.66563 18.7969ZM12.4156 22.1156L12.9594 21.6844L12.425 21.2531L12.9594 20.8219L12.425 20.3906H12.6875L12.9594 20.6719L13.2219 20.5312H13.4844V20.6813L13.2219 20.8219L13.4844 20.9625V21.1125H13.2219L12.9594 20.9625L12.6875 21.2531L12.9594 21.5344L13.2219 21.4031H13.4844V21.5438L13.2219 21.6844L13.4844 21.825V21.975H13.2219L12.9594 21.825L12.6875 22.1156L12.9594 22.3969L13.2219 22.2562H13.4844V22.4062L13.2219 22.5469L13.4844 22.6969V22.8375H13.2219L12.9594 22.6969L12.6875 22.9781H12.425L12.9594 22.5469L12.425 22.1156H12.4156ZM3.92188 22.1156L3.3875 21.6844L3.92188 21.2531L3.3875 20.8219L3.92188 20.3906H3.65L3.3875 20.6719L3.125 20.5312H2.84375V20.6813L3.125 20.8125L2.85312 20.9531V21.1031H3.125L3.3875 20.9531L3.65 21.2438L3.3875 21.525L3.125 21.3937H2.84375V21.5344L3.11563 21.675L2.84375 21.8156V21.9656H3.125L3.3875 21.8156L3.65 22.1063L3.3875 22.3969L3.125 22.2562H2.84375V22.3969L3.11563 22.5375L2.84375 22.6875V22.8281H3.125L3.3875 22.6875L3.65 22.9687H3.92188L3.3875 22.5375L3.92188 22.1063V22.1156Z" fill="#00843D"/>
<path fill-rule="evenodd" clip-rule="evenodd" d="M12.6272 23.585H12.8432V23.7761H12.6272V23.585ZM12.4112 23.7761H12.6272V23.9786H12.4232L12.4112 23.7761ZM11.3554 24.777H11.5714V24.9794H11.3554V24.777ZM11.5714 24.5746H11.7753V24.777H11.5714V24.5746ZM4.55245 24.5746H4.76842V24.777H4.54045L4.55245 24.5746ZM3.48462 23.585H3.70059V23.7761H3.48462V23.585ZM3.70059 23.7761H3.91655V23.9786H3.70059V23.7761ZM3.70059 19.3905H3.91655V19.5929H3.70059V19.3905ZM3.48462 19.5929H3.70059V19.7953H3.48462V19.5929ZM4.76842 18.4009H4.97239V18.6033H4.78042L4.76842 18.4009ZM4.55245 18.6033H4.76842V18.8057H4.54045L4.55245 18.6033ZM11.3554 18.4009H11.5714V18.6033H11.3554V18.4009ZM11.5714 18.6033H11.7753V18.8057H11.5714V18.6033ZM12.4112 19.3905H12.6272V19.5929H12.4232L12.4112 19.3905ZM12.6272 19.6041H12.8432V19.7953H12.6272V19.6041ZM4.78042 24.777H4.98438V24.9794H4.78042V24.777Z" fill="#00843D"/>
<path fill-rule="evenodd" clip-rule="evenodd" d="M4.75002 18.3834H4.9899V18.6207H4.78593V18.8231H4.52206L4.53612 18.5858H4.76202L4.75002 18.3834ZM4.79693 18.5858H4.95505V18.4183H4.787L4.79693 18.5858ZM4.75109 18.6207H4.56896L4.55903 18.7883H4.75109V18.6207ZM11.3381 18.3834H11.5889V18.5858H11.7928V18.8231H11.554V18.6207H11.3381V18.3834ZM11.5889 18.6207V18.7883H11.758V18.6207H11.5889ZM11.554 18.5858V18.4183H11.3729V18.5858H11.554ZM3.68325 19.373H3.93407V19.6103H3.7181V19.8127H3.46729V19.5754H3.68325V19.373ZM3.68325 19.6103H3.50213V19.7778H3.68325V19.6103ZM3.7181 19.5754H3.89922V19.4079H3.7181V19.5754ZM12.3928 19.373H12.6447V19.5867H12.8607V19.8127H12.6099V19.6103H12.4069L12.3928 19.373ZM12.6447 19.6215V19.7778H12.8258V19.6215H12.6447ZM12.6099 19.5754V19.4079H12.4298L12.4397 19.5754H12.6099ZM3.46729 23.5675H3.7181V23.7587H3.93407V23.9959H3.68325V23.7935H3.46729V23.5675ZM3.7181 23.7935V23.9611H3.89922V23.7935H3.7181ZM3.68325 23.7587V23.6024H3.50213V23.7587H3.68325ZM12.6099 23.5675H12.8607V23.7935H12.6447V23.9959H12.4069L12.3928 23.7587H12.6099V23.5675ZM12.6099 23.7935H12.4298L12.4397 23.9611H12.6099V23.7935ZM12.6447 23.7587H12.8258V23.6024H12.6447V23.7587ZM4.53612 24.5571H4.78593V24.7595H5.0019V24.9968H4.76308V24.7944H4.52206L4.53612 24.5571ZM4.79793 24.7944V24.9619H4.96705V24.7944H4.79793ZM4.75109 24.7595V24.5919H4.56896L4.55903 24.7595H4.75109ZM11.554 24.5571H11.7928V24.7944H11.5889V24.9968H11.3381V24.7595H11.554V24.5571ZM11.554 24.7944H11.3729V24.9619H11.554V24.7944ZM11.5889 24.7595H11.758V24.5919H11.5889V24.7595Z" fill="black"/>
<path fill-rule="evenodd" clip-rule="evenodd" d="M7.52192 21.6844H6.8938V21.2906H7.31567V20.925H7.72817V20.5875H8.15005V21.0094C7.80317 21.0094 7.52192 21.2906 7.52192 21.6844Z" fill="white"/>
<path fill-rule="evenodd" clip-rule="evenodd" d="M8.77815 21.6844H9.40627V21.2906H8.9844V20.925H8.56252V20.5875H8.15002V21.0094C8.4969 21.0094 8.77815 21.2906 8.77815 21.6844Z" fill="#FAAE29"/>
<path fill-rule="evenodd" clip-rule="evenodd" d="M8.77815 21.6844H9.40627V22.0781H8.9844V22.4438H8.56252V22.7813H8.15002V22.3594C8.4969 22.3594 8.77815 22.0781 8.77815 21.6844Z" fill="white"/>
<path fill-rule="evenodd" clip-rule="evenodd" d="M7.52192 21.6844H6.8938V22.0781H7.31567V22.4438H7.72817V22.7813H8.15005V22.3594C7.80317 22.3594 7.52192 22.0781 7.52192 21.6844Z" fill="#FAAE29"/>
<path fill-rule="evenodd" clip-rule="evenodd" d="M8.77815 21.6844H8.15002V21.0094C8.4969 21.0094 8.77815 21.3188 8.77815 21.6844Z" fill="#00843D"/>
<path fill-rule="evenodd" clip-rule="evenodd" d="M8.77815 21.6844H8.15002V22.3594C8.4969 22.3594 8.77815 22.0594 8.77815 21.6844Z" fill="#CA3745"/>
<path fill-rule="evenodd" clip-rule="evenodd" d="M7.52185 21.6844H8.14998V22.3594C7.8031 22.3594 7.52185 22.0594 7.52185 21.6844Z" fill="#00843D"/>
<path fill-rule="evenodd" clip-rule="evenodd" d="M7.52185 21.6844H8.14998V21.0094C7.8031 21.0094 7.52185 21.3188 7.52185 21.6844Z" fill="#CA3745"/>
<path fill-rule="evenodd" clip-rule="evenodd" d="M8.80623 24.1781L8.16873 23.775L7.53123 24.1781L6.89373 23.775L6.25623 24.1781V23.9812L6.6781 23.775L6.47185 23.5781V23.3812H6.6781L6.89373 23.5781L7.10935 23.3812H7.32498V23.5781L7.10935 23.775L7.53123 23.9812L7.96248 23.775L7.74685 23.5781V23.3812H7.96248L8.16873 23.5781L8.38435 23.3812H8.59997V23.5781L8.38435 23.775L8.80623 23.9812L9.23747 23.775L9.02185 23.5781V23.3812H9.23747L9.44372 23.5781L9.65935 23.3812H9.87498V23.5781L9.65935 23.775L10.0812 23.9812V24.1687L9.44372 23.775L8.80623 24.1781ZM8.80623 19.2L8.16873 19.5937L7.53123 19.2L6.89373 19.5937L6.25623 19.2V19.3875L6.6781 19.5937L6.47185 19.7906V19.9969H6.6781L6.89373 19.7906L7.10935 19.9969H7.32498V19.7812L7.10935 19.5937L7.53123 19.3875L7.96248 19.5844L7.74685 19.7812V19.9875H7.96248L8.16873 19.7812L8.38435 19.9875H8.59997V19.7812L8.38435 19.5937L8.80623 19.3875L9.23747 19.5844L9.02185 19.7812V19.9875H9.23747L9.44372 19.7812L9.65935 19.9875H9.87498V19.7812L9.65935 19.5937L10.0812 19.3875V19.1906L9.44372 19.5844L8.80623 19.1906V19.2ZM11.15 22.1812L10.8312 21.6844L11.15 21.1875L10.8312 20.6906L11.15 20.1937H10.9906L10.8312 20.5219L10.6719 20.3531H10.5125V20.5219L10.6719 20.6906L10.5125 20.8594V21.0187H10.6719L10.8312 20.8594L10.9906 21.1875L10.8312 21.5156L10.6719 21.3562H10.5125V21.5156L10.6719 21.6844L10.5125 21.8531V22.0219H10.6719L10.8312 21.8531L10.9906 22.1812L10.8312 22.5187L10.6719 22.35H10.5125V22.5187L10.6719 22.6781L10.5125 22.8469V23.0156H10.6719L10.8312 22.8469L10.9906 23.1844H11.15L10.8312 22.6781L11.15 22.1812Z" fill="#00843D"/>
<path fill-rule="evenodd" clip-rule="evenodd" d="M6.26004 19.4017L5.42018 20.1889V23.1801L6.26004 23.9785H10.0994L10.9393 23.1913V20.2001L10.0874 19.4017H6.26004ZM6.04408 18.7944L3.92041 20.7961V22.5953L6.05608 24.5745H10.3034L12.4271 22.5841V20.7849L10.3034 18.7944H6.05608H6.04408Z" fill="#00843D"/>
<path fill-rule="evenodd" clip-rule="evenodd" d="M6.03477 18.7712H10.3125L12.4502 20.7748V22.5942L10.3125 24.5978H6.04688L3.89709 22.6055V20.7861L6.03477 18.7712ZM6.05322 18.8177L3.94356 20.8062V22.5852L6.0651 24.5513H10.2941L12.4038 22.5741V20.795L10.2941 18.8177H6.05322ZM6.25078 19.3785H10.0965L10.9625 20.1901V23.2015L10.1085 24.0018H6.25068L5.39686 23.1901V20.1788L6.25078 19.3785ZM6.26915 19.4249L5.44332 20.199V23.1702L6.26924 23.9553H10.0902L10.916 23.1813V20.2102L10.0782 19.4249H6.26915Z" fill="black"/>
<path fill-rule="evenodd" clip-rule="evenodd" d="M7.14327 24.1735L7.47921 24.5783L7.82476 24.1735H7.13367H7.14327Z" fill="#FAAE29"/>
<path fill-rule="evenodd" clip-rule="evenodd" d="M7.8523 24.1607L7.47903 24.598L7.13724 24.1862H7.13362V24.1818L7.13342 24.1816L7.13362 24.1814V24.1607H7.8523ZM7.17031 24.1862H7.79712L7.4793 24.5585L7.17031 24.1862Z" fill="black"/>
<path fill-rule="evenodd" clip-rule="evenodd" d="M7.14327 19.1953L7.47921 18.7905L7.82476 19.1953H7.13367H7.14327Z" fill="#FAAE29"/>
<path fill-rule="evenodd" clip-rule="evenodd" d="M7.8523 19.208L7.47903 18.7707L7.13724 19.1826H7.13362V19.1869L7.13342 19.1872L7.13362 19.1873V19.208H7.8523ZM7.17031 19.1826H7.79712L7.4793 18.8102L7.17031 19.1826Z" fill="black"/>
<path fill-rule="evenodd" clip-rule="evenodd" d="M8.51204 19.1953L8.84799 18.7905L9.19353 19.1953H8.50244H8.51204Z" fill="#FAAE29"/>
<path fill-rule="evenodd" clip-rule="evenodd" d="M9.22107 19.208L8.8478 18.7707L8.50601 19.1826H8.50239V19.1869L8.5022 19.1872L8.50239 19.1873V19.208H9.22107ZM8.53908 19.1826H9.16589L8.84807 18.8102L8.53908 19.1826Z" fill="black"/>
<path fill-rule="evenodd" clip-rule="evenodd" d="M8.51204 24.1735L8.84799 24.5783L9.19353 24.1735H8.50244H8.51204Z" fill="#FAAE29"/>
<path fill-rule="evenodd" clip-rule="evenodd" d="M9.22107 24.1607L8.8478 24.598L8.50601 24.1862H8.50239V24.1818L8.5022 24.1816L8.50239 24.1814V24.1607H9.22107ZM8.53908 24.1862H9.16589L8.84807 24.5585L8.53908 24.1862Z" fill="black"/>
<path fill-rule="evenodd" clip-rule="evenodd" d="M6.46822 19.1953L6.80416 18.7905L7.14971 19.1953H6.45862H6.46822Z" fill="#CA3745"/>
<path fill-rule="evenodd" clip-rule="evenodd" d="M7.17737 19.208L6.8041 18.7707L6.46231 19.1826H6.45869V19.1869L6.4585 19.1872L6.45869 19.1873V19.208H7.17737ZM6.49538 19.1826H7.12219L6.80437 18.8102L6.49538 19.1826Z" fill="black"/>
<path fill-rule="evenodd" clip-rule="evenodd" d="M7.82759 19.1953L8.16354 18.7905L8.50908 19.1953H7.81799H7.82759Z" fill="#CA3745"/>
<path fill-rule="evenodd" clip-rule="evenodd" d="M8.53675 19.208L8.16347 18.7707L7.82169 19.1826H7.81806V19.1869L7.81787 19.1872L7.81806 19.1873V19.208H8.53675ZM7.85476 19.1826H8.48157L8.16375 18.8102L7.85476 19.1826Z" fill="black"/>
<path fill-rule="evenodd" clip-rule="evenodd" d="M9.18697 19.1953L9.52291 18.7905L9.86846 19.1953H9.17737H9.18697Z" fill="#CA3745"/>
<path fill-rule="evenodd" clip-rule="evenodd" d="M9.89612 19.208L9.52285 18.7707L9.18106 19.1826H9.17744V19.1869L9.17725 19.1872L9.17744 19.1873V19.208H9.89612ZM9.21413 19.1826H9.84094L9.52312 18.8102L9.21413 19.1826Z" fill="black"/>
<path fill-rule="evenodd" clip-rule="evenodd" d="M5.6283 23.5784L6.25816 24.1687H5.6283V23.5784Z" fill="#CA3745"/>
<path fill-rule="evenodd" clip-rule="evenodd" d="M5.60217 24.1948H6.32427L5.60217 23.5181V24.1948ZM5.65444 24.1426V23.6387L6.19208 24.1426H5.65444Z" fill="black"/>
<path fill-rule="evenodd" clip-rule="evenodd" d="M5.1875 22.1812L5.51562 21.6844L5.1875 21.1875L5.50625 20.6906L5.1875 20.1937H5.34687L5.50625 20.5219L5.66562 20.3531H5.825V20.5219L5.66562 20.6906L5.825 20.8594V21.0187H5.66562L5.50625 20.8594L5.34687 21.1875L5.50625 21.5156L5.66562 21.3562H5.825V21.5156L5.66562 21.6844L5.825 21.8531V22.0219H5.66562L5.50625 21.8531L5.34687 22.1812L5.50625 22.5187L5.66562 22.35H5.825V22.5187L5.66562 22.6781L5.825 22.8469V23.0156H5.66562L5.50625 22.8469L5.34687 23.1844H5.1875L5.50625 22.6781L5.1875 22.1812Z" fill="#00843D"/>
<path fill-rule="evenodd" clip-rule="evenodd" d="M11.3542 21.1465H12.2061L12.4221 21.3287L12.2061 21.5109H11.3662V21.1364L11.3542 21.1465Z" fill="#CA3745"/>
<path fill-rule="evenodd" clip-rule="evenodd" d="M11.3498 21.1631H11.3091L11.3828 21.1009V21.1301H12.2122L12.4478 21.3288L12.2122 21.5275H11.3498V21.1631ZM11.3828 21.1631H12.2001L12.3965 21.3288L12.2001 21.4944H11.3828V21.1631Z" fill="black"/>
<path fill-rule="evenodd" clip-rule="evenodd" d="M5.62284 19.7953L5.19091 20.2001V23.1801L5.62284 23.585H4.98694V19.7953H5.62284Z" fill="#CA3745"/>
<path fill-rule="evenodd" clip-rule="evenodd" d="M4.96375 19.772H5.68164L5.21418 20.2102V23.17L5.68164 23.6082H4.96375V19.772ZM5.01021 19.8185V23.5617H5.56412L5.16771 23.1902V20.19L5.56412 19.8185H5.01021Z" fill="black"/>
<path fill-rule="evenodd" clip-rule="evenodd" d="M6.46822 24.1735L6.80416 24.5783L7.14971 24.1735H6.45862H6.46822Z" fill="#CA3745"/>
<path fill-rule="evenodd" clip-rule="evenodd" d="M7.17737 24.1607L6.8041 24.598L6.46231 24.1862H6.45869V24.1818L6.4585 24.1816L6.45869 24.1814V24.1607H7.17737ZM6.49538 24.1862H7.12219L6.80437 24.5585L6.49538 24.1862Z" fill="black"/>
<path fill-rule="evenodd" clip-rule="evenodd" d="M7.82759 24.1735L8.16354 24.5783L8.50908 24.1735H7.81799H7.82759Z" fill="#CA3745"/>
<path fill-rule="evenodd" clip-rule="evenodd" d="M8.53675 24.1607L8.16347 24.598L7.82169 24.1862H7.81806V24.1818L7.81787 24.1816L7.81806 24.1814V24.1607H8.53675ZM7.85476 24.1862H8.48157L8.16375 24.5585L7.85476 24.1862Z" fill="black"/>
<path fill-rule="evenodd" clip-rule="evenodd" d="M9.18697 24.1735L9.52291 24.5783L9.86846 24.1735H9.17737H9.18697Z" fill="#CA3745"/>
<path fill-rule="evenodd" clip-rule="evenodd" d="M9.89612 24.1607L9.52285 24.598L9.18106 24.1862H9.17744V24.1818L9.17725 24.1816L9.17744 24.1814V24.1607H9.89612ZM9.21413 24.1862H9.84094L9.52312 24.5585L9.21413 24.1862Z" fill="black"/>
<path fill-rule="evenodd" clip-rule="evenodd" d="M10.7147 19.7953L11.1466 20.2001V23.1801L10.7147 23.585H11.3506V19.7953H10.7147Z" fill="#CA3745"/>
<path fill-rule="evenodd" clip-rule="evenodd" d="M11.3738 19.772H10.6559L11.1233 20.2102V23.17L10.6559 23.6082H11.3738V19.772ZM11.3273 19.8185V23.5617H10.7734L11.1698 23.1902V20.19L10.7734 19.8185H11.3273Z" fill="black"/>
<path fill-rule="evenodd" clip-rule="evenodd" d="M10.7186 23.5784L10.0888 24.1687H10.7186V23.5784Z" fill="#CA3745"/>
<path fill-rule="evenodd" clip-rule="evenodd" d="M10.7448 24.1948H10.0226L10.7448 23.5181V24.1948ZM10.6925 24.1426V23.6387L10.1548 24.1426H10.6925Z" fill="black"/>
<path fill-rule="evenodd" clip-rule="evenodd" d="M10.7186 19.7904L10.0888 19.2001H10.7186V19.7904Z" fill="#CA3745"/>
<path fill-rule="evenodd" clip-rule="evenodd" d="M10.7448 19.1739H10.0226L10.7448 19.8507V19.1739ZM10.6925 19.2262V19.73L10.1548 19.2262H10.6925Z" fill="black"/>
<path fill-rule="evenodd" clip-rule="evenodd" d="M5.6283 19.7904L6.25816 19.2001H5.6283V19.7904Z" fill="#CA3745"/>
<path fill-rule="evenodd" clip-rule="evenodd" d="M5.60217 19.1739H6.32427L5.60217 19.8507V19.1739ZM5.65444 19.2262V19.73L6.19208 19.2262H5.65444Z" fill="black"/>
<path fill-rule="evenodd" clip-rule="evenodd" d="M6.26006 19.4017L5.42019 20.1889V23.1801L6.26006 23.9785H10.0995L10.9393 23.1914V20.2001L10.0875 19.4017H6.26006ZM6.26006 19.1993L5.20422 20.1889V23.1801L6.26006 24.181H10.0995L11.1553 23.1801V20.1889L10.0875 19.1993H6.26006Z" fill="#00843D"/>
<path fill-rule="evenodd" clip-rule="evenodd" d="M6.25079 19.176H10.0965L11.1784 20.1787V23.1901L10.1086 24.2042H6.25071L5.18091 23.1901V20.1788L6.25079 19.176ZM6.26916 19.2225L5.22737 20.1989V23.1701L6.26924 24.1577H10.0901L11.132 23.1701V20.199L10.0783 19.2225H6.26916ZM6.25079 19.3784H10.0966L10.9625 20.19V23.2014L10.1086 24.0017H6.25069L5.39687 23.1901V20.1788L6.25079 19.3784ZM6.26916 19.4249L5.44334 20.1989V23.1701L6.26926 23.9553H10.0902L10.916 23.1813V20.2102L10.0782 19.4249H6.26916Z" fill="black"/>
<path fill-rule="evenodd" clip-rule="evenodd" d="M11.3542 21.5038H12.2061L12.4221 21.686L12.2061 21.8682H11.3662V21.4937L11.3542 21.5038Z" fill="#FAAE29"/>
<path fill-rule="evenodd" clip-rule="evenodd" d="M11.3498 21.5204H11.3091L11.3828 21.4581V21.4873H12.2122L12.4478 21.686L12.2122 21.8847H11.3498V21.5204ZM11.3828 21.5204H12.2001L12.3965 21.686L12.2001 21.8517H11.3828V21.5204Z" fill="black"/>
<path fill-rule="evenodd" clip-rule="evenodd" d="M11.3542 21.8591H12.2061L12.4221 22.0412L12.2061 22.2234H11.3662V21.8489L11.3542 21.8591Z" fill="#CA3745"/>
<path fill-rule="evenodd" clip-rule="evenodd" d="M11.3498 21.8756H11.3091L11.3828 21.8134V21.8425H12.2122L12.4478 22.0412L12.2122 22.2399H11.3498V21.8756ZM11.3828 21.8756H12.2001L12.3965 22.0412L12.2001 22.2069H11.3828V21.8756Z" fill="black"/>
<path fill-rule="evenodd" clip-rule="evenodd" d="M11.3542 22.2163H12.2061L12.4221 22.3985L12.2061 22.5807H11.3662V22.2062L11.3542 22.2163Z" fill="#FAAE29"/>
<path fill-rule="evenodd" clip-rule="evenodd" d="M11.3498 22.2329H11.3091L11.3828 22.1707V22.1998H12.2122L12.4478 22.3985L12.2122 22.5973H11.3498V22.2329ZM11.3828 22.2329H12.2001L12.3965 22.3985L12.2001 22.5642H11.3828V22.2329Z" fill="black"/>
<path fill-rule="evenodd" clip-rule="evenodd" d="M11.3542 20.782H12.2061L12.4221 20.9642L12.2061 21.1464H11.3662V20.7719L11.3542 20.782Z" fill="#FAAE29"/>
<path fill-rule="evenodd" clip-rule="evenodd" d="M11.3498 20.7985H11.3091L11.3828 20.7363V20.7654H12.2122L12.4478 20.9642L12.2122 21.1629H11.3498V20.7985ZM11.3828 20.7985H12.2001L12.3965 20.9642L12.2001 21.1298H11.3828V20.7985Z" fill="black"/>
<path fill-rule="evenodd" clip-rule="evenodd" d="M4.98315 21.1465H4.13129L3.91532 21.3287L4.13129 21.5109H4.97116V21.1364L4.98315 21.1465Z" fill="#CA3745"/>
<path fill-rule="evenodd" clip-rule="evenodd" d="M4.98775 21.1631H5.02844L4.95469 21.1009V21.1301H4.12531L3.88975 21.3288L4.12531 21.5275H4.98775V21.1631ZM4.95469 21.1631H4.13739L3.94102 21.3288L4.13739 21.4944H4.95469V21.1631Z" fill="black"/>
<path fill-rule="evenodd" clip-rule="evenodd" d="M4.98315 21.5038H4.13129L3.91532 21.686L4.13129 21.8682H4.97116V21.4937L4.98315 21.5038Z" fill="#FAAE29"/>
<path fill-rule="evenodd" clip-rule="evenodd" d="M4.98775 21.5204H5.02844L4.95469 21.4581V21.4873H4.12531L3.88975 21.686L4.12531 21.8847H4.98775V21.5204ZM4.95469 21.5204H4.13739L3.94102 21.686L4.13739 21.8517H4.95469V21.5204Z" fill="black"/>
<path fill-rule="evenodd" clip-rule="evenodd" d="M4.98315 21.8591H4.13129L3.91532 22.0412L4.13129 22.2234H4.97116V21.8489L4.98315 21.8591Z" fill="#CA3745"/>
<path fill-rule="evenodd" clip-rule="evenodd" d="M4.98775 21.8756H5.02844L4.95469 21.8134V21.8425H4.12531L3.88975 22.0412L4.12531 22.2399H4.98775V21.8756ZM4.95469 21.8756H4.13739L3.94102 22.0412L4.13739 22.2069H4.95469V21.8756Z" fill="black"/>
<path fill-rule="evenodd" clip-rule="evenodd" d="M4.98315 22.2163H4.13129L3.91532 22.3985L4.13129 22.5807H4.97116V22.2062L4.98315 22.2163Z" fill="#FAAE29"/>
<path fill-rule="evenodd" clip-rule="evenodd" d="M4.98775 22.2329H5.02844L4.95469 22.1707V22.1998H4.12531L3.88975 22.3985L4.12531 22.5973H4.98775V22.2329ZM4.95469 22.2329H4.13739L3.94102 22.3985L4.13739 22.5642H4.95469V22.2329Z" fill="black"/>
<path fill-rule="evenodd" clip-rule="evenodd" d="M4.98315 20.782H4.13129L3.91532 20.9642L4.13129 21.1464H4.97116V20.7719L4.98315 20.782Z" fill="#FAAE29"/>
<path fill-rule="evenodd" clip-rule="evenodd" d="M4.98775 20.7985H5.02844L4.95469 20.7363V20.7654H4.12531L3.88975 20.9642L4.12531 21.1629H4.98775V20.7985ZM4.95469 20.7985H4.13739L3.94102 20.9642L4.13739 21.1298H4.95469V20.7985Z" fill="black"/>
<path fill-rule="evenodd" clip-rule="evenodd" d="M3.70068 19.6041V23.7649H4.76852V24.7657H11.5715V23.7649H12.6273V19.6041H11.5715V18.6145H4.76852V19.6041H3.70068ZM3.91665 19.7953V23.5849H4.97248V24.5745H11.3555V23.5849H12.4233V19.7953H11.3555V18.8169H4.97248V19.8065H3.91665V19.7953Z" fill="#970000"/>
<path fill-rule="evenodd" clip-rule="evenodd" d="M4.75106 18.5971H11.5888V19.5867H12.6447V23.7823H11.5888V24.7831H4.75106V23.7823H3.68323V19.5867H4.75106V18.5971ZM4.78591 18.632V19.6215H3.71807V23.7475H4.78591V24.7483H11.554V23.7475H12.6098V19.6215H11.554V18.632H4.78591ZM4.95503 18.7995H11.3729V19.7779H12.4407V23.6024H11.3729V24.592H4.95503V23.6024H3.89919V19.7953H3.91662V19.7891H4.95503V18.7995ZM3.93404 19.824V23.5675H4.98988V24.5571H11.338V23.5675H12.4059V19.8127H11.338V18.8344H4.98988V19.824H3.93404Z" fill="black"/>
<path fill-rule="evenodd" clip-rule="evenodd" d="M13.48 4.03191L12.8441 3.26411V2.69097L12.2082 2.11782H10.9364L9.8686 1.54468H6.47313L5.4053 2.11782H4.1335L3.4976 2.69097V3.26411L2.86169 4.0211V5.56751L3.4976 6.32449V6.90845L4.1335 7.4816H5.4053L6.47313 8.05474H9.8686L10.9364 7.4816H12.2082L12.8561 6.90845V6.33531L13.492 5.56751V4.0211L13.48 4.03191Z" fill="#CA3745"/>
<path fill-rule="evenodd" clip-rule="evenodd" d="M6.46883 1.52759H9.87289L10.9407 2.10073H12.2148L12.8612 2.68336V3.25795L13.4818 4.00729L13.5091 3.98269V5.57366L12.8732 6.34146V6.91615L12.2147 7.49868H10.9407L9.87289 8.07183H6.46883L5.401 7.49868H4.12693L3.48051 6.91605V6.33071L2.8446 5.57373V4.01487L3.48051 3.25789V2.68336L4.12693 2.10073H5.401L6.46883 1.52759ZM13.4749 4.05255L12.827 3.27027V2.69857L12.2017 2.13491H10.9321L9.8643 1.56176H6.47742L5.40959 2.13491H4.14006L3.51468 2.69857V3.27033L2.87878 4.02732V5.56128L3.51468 6.31827V6.90085L4.14006 7.46451H5.40959L6.47742 8.03765H9.8643L10.9321 7.46451H12.2018L12.839 6.90075V6.32915L13.4749 5.56135V4.05255Z" fill="black"/>
<path fill-rule="evenodd" clip-rule="evenodd" d="M3.06873 4.79999V5.37186L3.70623 6.14061V6.71249L4.34373 7.29374H5.61873L6.68748 7.85624H8.16873V4.80936H3.06873V4.79999Z" fill="#FAAE29"/>
<path fill-rule="evenodd" clip-rule="evenodd" d="M6.37808 6.14062L5.59995 6.6375H5.1312L5.29058 6.79688L4.9812 7.125L5.14058 7.29375L5.60933 7.125L5.75933 7.29375L5.82495 6.85312L6.68745 6.32812L6.37808 6.14062Z" fill="#CA3745"/>
<path fill-rule="evenodd" clip-rule="evenodd" d="M5.52505 5.75624L4.74692 6.25311H4.28755L4.43755 6.41249L4.13755 6.74061L4.28755 6.90936L4.7563 6.74061L4.9063 6.90936L4.9813 6.46874L5.83442 5.95311L5.52505 5.76561V5.75624ZM5.10317 4.98749L4.32505 5.48436H3.8563L4.01567 5.65311L3.7063 5.98124L3.86567 6.14061L4.33442 5.97186L4.48442 6.14061L4.55005 5.69999L5.41255 5.18436L5.10317 4.99686V4.98749Z" fill="#CA3745"/>
<path fill-rule="evenodd" clip-rule="evenodd" d="M13.2687 4.8V4.22812L12.6312 3.45938V2.8875L11.9937 2.30625H10.7187L9.65933 1.73438H8.1687V4.8H13.2687Z" fill="#FAAE29"/>
<path fill-rule="evenodd" clip-rule="evenodd" d="M8.1687 7.86565H7.77495L7.32495 7.48127H6.5937L6.19995 7.29377L6.39683 7.10627L6.79058 7.29377H7.18433L7.57808 6.71252L8.1687 6.90002V7.29377H7.57808L8.1687 7.85627V7.86565Z" fill="#CA3745"/>
<path fill-rule="evenodd" clip-rule="evenodd" d="M3.06873 4.8V4.22812L3.70623 3.45938V2.8875L4.34373 2.30625H5.61873L6.68748 1.73438H8.16873V4.8H3.06873Z" fill="white"/>
<path fill-rule="evenodd" clip-rule="evenodd" d="M8.1687 1.73438H7.77495L7.32495 2.10938H6.5937L6.19995 2.30625L6.39683 2.49375L6.79058 2.30625H7.18433L7.57808 2.8875L8.1687 2.7V2.30625H7.57808L8.1687 1.73438Z" fill="#CA3745"/>
<path fill-rule="evenodd" clip-rule="evenodd" d="M8.1687 1.73438H8.56245L9.02183 2.10938H9.7437L10.1375 2.30625L9.94995 2.49375L9.54683 2.30625H9.15308L8.75933 2.8875L8.1687 2.7V2.30625H8.75933L8.1687 1.73438Z" fill="#CA3745"/>
<path fill-rule="evenodd" clip-rule="evenodd" d="M13.2687 4.79999V5.37186L12.6312 6.14061V6.71249L11.9937 7.29374H10.7187L9.65933 7.85624H8.1687V4.80936H13.2687V4.79999Z" fill="white"/>
<path fill-rule="evenodd" clip-rule="evenodd" d="M8.1687 7.86565H8.56245L9.02183 7.48128H9.7437L10.1375 7.29378L9.94995 7.10628L9.54683 7.29378H9.15308L8.75933 6.71252L8.1687 6.90002V7.29378H8.75933L8.1687 7.85628V7.86565ZM5.52495 3.8344L4.74683 3.3469H4.28745L4.43745 3.18752L4.13745 2.8594L4.28745 2.69065L4.7562 2.8594L4.9062 2.69065L4.9812 3.13127L5.83433 3.6469L5.52495 3.8344ZM9.9687 3.4594L10.7375 2.96252H11.2062L11.0468 2.80315L11.3562 2.47502L11.2062 2.30627L10.7375 2.47502L10.5875 2.30627L10.5125 2.7469L9.65933 3.2719L9.9687 3.4594Z" fill="#CA3745"/>
<path fill-rule="evenodd" clip-rule="evenodd" d="M6.37815 3.4594L5.60002 2.96252H5.13127L5.29065 2.80315L4.98127 2.47502L5.14065 2.30627L5.6094 2.47502L5.7594 2.30627L5.82502 2.7469L6.68752 3.26252L6.37815 3.45002V3.4594ZM5.09377 4.61252L4.31565 4.11565H3.8469L4.00627 3.9469L3.6969 3.61877L3.87502 3.46877L4.34377 3.63752L4.49377 3.46877L4.5594 3.9094L5.4219 4.42502L5.11252 4.61252H5.09377Z" fill="#CA3745"/>
<path fill-rule="evenodd" clip-rule="evenodd" d="M3.45312 4.79999H3.64062L3.8375 4.98749L4.03437 4.79999H8.16875V7.48124H7.98125L8.16875 7.66874V7.87499L7.57812 7.30311V7.11561H7.775V7.30311H7.97187V7.11561L6.37812 6.27186H5.02813V5.42811L4.4375 5.00624H4.04375L3.84687 5.19374L4.03437 5.38124H3.84687L3.45312 4.81874V4.79999Z" fill="white"/>
<path fill-rule="evenodd" clip-rule="evenodd" d="M3.45312 4.8H3.64062L3.8375 4.6125L4.03437 4.8H8.16875V2.11875H7.98125L8.16875 1.93125V1.73438L7.57812 2.30625V2.49375H7.775V2.30625H7.97187V2.49375L6.37812 3.34688H5.02813V4.18125L4.4375 4.6125H4.04375L3.84687 4.425L4.03437 4.22812H3.84687L3.45312 4.8Z" fill="#FAAE29"/>
<path fill-rule="evenodd" clip-rule="evenodd" d="M4.34375 4.79999H8.16875V7.09686L6.47187 6.14061H5.19687V5.37186L4.35312 4.79999H4.34375Z" fill="#00843D"/>
<path fill-rule="evenodd" clip-rule="evenodd" d="M10.8125 3.84374L11.5906 3.34686H12.0593L11.9 3.18749L12.2093 2.85936L12.0593 2.69061L11.5906 2.85936L11.4406 2.69061L11.3656 3.13124L10.5125 3.64686L10.8125 3.83436V3.84374ZM11.2437 4.61249L12.0218 4.11561H12.4812L12.3218 3.94686L12.6312 3.61874L12.4812 3.45936L12.0125 3.62811L11.8625 3.45936L11.7875 3.89999L10.9343 4.41561L11.2437 4.60311V4.61249Z" fill="#CA3745"/>
<path fill-rule="evenodd" clip-rule="evenodd" d="M12.8937 4.8H12.6968L12.5 4.6125L12.3031 4.8H8.1687V2.11875H8.36558L8.1687 1.93125V1.73438L8.75933 2.30625V2.49375H8.56245V2.30625H8.36558V2.49375L9.95933 3.34688H11.3093V4.18125L11.9093 4.6125H12.3031L12.4906 4.425L12.3031 4.22812H12.4906L12.8937 4.8Z" fill="white"/>
<path fill-rule="evenodd" clip-rule="evenodd" d="M11.9937 4.79999H8.1687V2.50311L9.87495 3.45936H11.15V4.22811L12.0031 4.79999H11.9937Z" fill="#00843D"/>
<path fill-rule="evenodd" clip-rule="evenodd" d="M9.9688 6.14062L10.7375 6.6375H11.2063L11.0469 6.79688L11.3563 7.125L11.2063 7.29375L10.7375 7.125L10.5875 7.29375L10.5125 6.85312L9.65942 6.32812L9.9688 6.14062Z" fill="#CA3745"/>
<path fill-rule="evenodd" clip-rule="evenodd" d="M10.8125 5.75624L11.5906 6.25311H12.0593L11.9 6.41249L12.2093 6.74061L12.0593 6.90936L11.5906 6.74061L11.4406 6.90936L11.3656 6.46874L10.5125 5.95311L10.8125 5.76561V5.75624ZM11.2437 4.98749L12.0218 5.48436H12.4812L12.3218 5.64374L12.6312 5.97186L12.4812 6.14061L12.0125 5.97186L11.8625 6.14061L11.7875 5.69999L10.9343 5.18436L11.2437 4.99686V4.98749Z" fill="#CA3745"/>
<path fill-rule="evenodd" clip-rule="evenodd" d="M12.8937 4.79999H12.6968L12.5 4.98749L12.3031 4.79999H8.1687V7.48124H8.36558L8.1687 7.66874V7.87499L8.75933 7.30311V7.11561H8.56245V7.30311H8.36558V7.11561L9.95933 6.27186H11.3093V5.42811L11.9093 5.00624H12.3031L12.4906 5.19374L12.3031 5.38124H12.4906L12.8937 4.81874V4.79999Z" fill="#FAAE29"/>
<path fill-rule="evenodd" clip-rule="evenodd" d="M11.9938 4.79999H8.16875V7.09686L9.875 6.14061H11.15V5.37186L12.0031 4.79999H11.9938ZM4.34375 4.79999H8.16875V2.50311L6.47187 3.45936H5.19687V4.22811L4.35312 4.79999H4.34375Z" fill="#CA3745"/>
<path fill-rule="evenodd" clip-rule="evenodd" d="M8.5906 4.79998L9.65935 4.2281H10.2969L10.0812 4.0406L10.5125 3.64685L10.2969 3.45935L9.65935 3.64685L9.44372 3.45935L9.34997 3.97498L8.16873 4.57498L8.5906 4.79998ZM7.74685 4.79998L6.68748 5.37185H6.04998L6.25623 5.55935L5.83435 5.9531L6.04998 6.1406L6.68748 5.9531L6.89373 6.1406L6.98748 5.62498L8.16873 5.02498L7.74685 4.79998Z" fill="#CA3745"/>
<path fill-rule="evenodd" clip-rule="evenodd" d="M7.74688 4.79998L6.6875 4.2281H6.05L6.26562 4.0406L5.84375 3.64685L6.05938 3.45935L6.69687 3.64685L6.90313 3.45935L6.99688 3.97498L8.17812 4.57498L7.75625 4.79998H7.74688ZM8.59063 4.79998L9.65937 5.37185H10.2969L10.0812 5.55935L10.5125 5.9531L10.2969 6.1406L9.65937 5.9531L9.44375 6.1406L9.35 5.62498L8.16875 5.02498L8.59063 4.79998Z" fill="#00843D"/>
<path fill-rule="evenodd" clip-rule="evenodd" d="M6.8938 4.8L8.1688 3.84375L9.4438 4.8L8.1688 5.75625L6.8938 4.8Z" fill="white"/>
<path fill-rule="evenodd" clip-rule="evenodd" d="M4.03433 5.18436L4.2312 5.37186L4.0437 5.55936H3.83745L3.24683 4.79999H3.4437L3.83745 5.37186H4.03433L3.84683 5.18436L4.03433 4.99686H4.43745V5.18436H4.0437H4.03433Z" fill="#CA3745"/>
<path fill-rule="evenodd" clip-rule="evenodd" d="M4.03433 4.41565L4.2312 4.22815L4.0437 4.04065H3.83745L3.24683 4.80002H3.4437L3.83745 4.22815H4.03433L3.84683 4.41565L4.03433 4.60315H4.43745V4.41565H4.0437H4.03433ZM12.3031 5.1844L12.1156 5.3719L12.3031 5.5594H12.5L13.0906 4.80002H12.9031L12.5 5.3719H12.3125L12.5 5.1844L12.3125 4.9969H11.9093V5.1844H12.3031Z" fill="#CA3745"/>
<path fill-rule="evenodd" clip-rule="evenodd" d="M12.3125 4.41565L12.1063 4.22815L12.3032 4.04065H12.5L13.0907 4.80002H12.9032L12.5 4.22815H12.3125L12.5 4.41565L12.3125 4.60315H11.9094V4.41565H12.3032H12.3125ZM7.97192 4.04065H8.36567V5.56877H7.97192V4.04065Z" fill="#CA3745"/>
<path fill-rule="evenodd" clip-rule="evenodd" d="M7.38123 4.41565H8.95623V5.1844H7.38123V4.41565Z" fill="#CA3745"/>
<path fill-rule="evenodd" clip-rule="evenodd" d="M6.37019 33.9178L2.8374 35.8653V39.0391L6.40352 40.9866H9.9363L13.4691 39.0391V35.8653L9.9363 33.9539H6.40352L6.37019 33.9178Z" fill="#00843D"/>
<path fill-rule="evenodd" clip-rule="evenodd" d="M6.3737 33.8961L6.4111 33.9365H9.94069L13.4864 35.855V39.0493L9.94076 41.004H6.39909L2.82007 39.0494V35.8551L6.3737 33.8961ZM2.85474 35.8756V39.0288L6.40794 40.9693H9.93184L13.4517 39.0289V35.8757L9.93191 33.9712H6.39593L6.36667 33.9395L2.85474 35.8756Z" fill="black"/>
<path fill-rule="evenodd" clip-rule="evenodd" d="M4.17505 37.1531H4.3813V36.75H4.81255V37.1437H5.02817V36.225H4.81255V36.6187H4.39067V36.225H4.17505V37.1437V37.1531ZM9.60317 40.2094H9.8188V39.8156H10.2407V40.2094H10.4563V39.2812H10.25V39.675H9.8188V39.2812H9.61255V40.2L9.60317 40.2094ZM6.17192 35.6156H6.38755V35.2312H6.8188V35.625H7.02505V34.7062H6.8188V35.1H6.38755V34.7062H6.17192V35.625V35.6156ZM9.31255 35.6156H9.52817V35.2312H9.95942V35.625H10.175V34.7062H9.95942V35.1H9.52817V34.7062H9.31255V35.625V35.6156ZM11.3188 37.1531H11.525V36.75H11.9563V37.1437H12.1719V36.225H11.9563V36.6187H11.525V36.225H11.3188V37.1437V37.1531ZM11.3188 38.6812H11.525V38.2875H11.9563V38.6812H12.1719V37.7625H11.9563V38.1562H11.525V37.7625H11.3188V38.6812Z" fill="#CC0000"/>
<path fill-rule="evenodd" clip-rule="evenodd" d="M8.16875 40.8187V37.4531H13.3156V38.9812L9.875 40.8187H8.15937H8.16875ZM8.16875 34.0969V37.4531H3.03125V35.925L6.45312 34.0969H8.16875Z" fill="#FAAE29"/>
<path fill-rule="evenodd" clip-rule="evenodd" d="M8.16875 34.0969V37.4531H13.3156V35.925L9.875 34.0969H8.15937H8.16875ZM8.16875 40.8187V37.4531H3.03125V38.9812L6.45312 40.8187H8.16875Z" fill="white"/>
<path fill-rule="evenodd" clip-rule="evenodd" d="M10.9168 36.0862H12.9777L10.9168 35.172V36.0862ZM13.3164 35.931V37.4576H10.0653V36.2415H9.37828L8.51712 35.7844V34.7149L9.03962 34.2491H8.35263V35.7844H8.17847V34.1025H9.89111L13.3164 35.931Z" fill="#FAAE29"/>
<path fill-rule="evenodd" clip-rule="evenodd" d="M8.17383 34.098H9.89218L13.3185 35.927L13.3163 35.931H13.3209V37.4622H10.0606V36.2461H9.37707L8.51249 35.7872V34.7129L9.02756 34.2537H8.35713V35.789H8.17383V34.098ZM13.3118 35.9338L9.88989 34.1071H8.18296V35.7798H8.348V34.2446H9.05154L8.52162 34.717V35.7817L9.37935 36.237H10.0698V37.4531H13.3118V35.9338ZM10.9121 35.165L12.9795 36.0821L12.9777 36.0908H10.9121V35.165ZM10.9213 35.1791V36.0817H12.9561L10.9213 35.1791Z" fill="black"/>
<path fill-rule="evenodd" clip-rule="evenodd" d="M6.45312 36.3844V38.5312H6.96875L8.16875 39.15L9.36875 38.5312H9.88438V36.3937H9.36875L8.16875 35.7844L6.96875 36.3937H6.45312V36.3844Z" fill="#CA3745"/>
<path fill-rule="evenodd" clip-rule="evenodd" d="M5.43017 38.8294H3.36919L5.43017 39.7436V38.8294ZM3.03053 38.9846V37.458H6.28165V38.6741H6.96864L7.8298 39.1312V40.2007L7.3073 40.6665H7.99429V39.1312H8.16846V40.8131H6.45582L3.03053 38.9846Z" fill="#FAAE29"/>
<path fill-rule="evenodd" clip-rule="evenodd" d="M8.17297 40.8177H6.45462L3.02833 38.9886L3.03048 38.9846H3.02592V37.4534H6.28617V38.6696H6.96973L7.83432 39.1285V40.2028L7.31924 40.6619H7.98967V39.1267H8.17297V40.8177ZM3.03505 38.9819L6.45691 40.8086H8.16384V39.1358H7.99881V40.6711H7.29526L7.82518 40.1987V39.134L6.96745 38.6787H6.27703V37.4626H3.03505V38.9819ZM5.43468 39.7506L3.36729 38.8335L3.36914 38.8248H5.43468V39.7506ZM5.42555 39.7366V38.8339H3.3907L5.42555 39.7366Z" fill="black"/>
<path fill-rule="evenodd" clip-rule="evenodd" d="M5.43017 36.0862H3.36919L5.43017 35.172V36.0862ZM3.03053 35.931V37.4576H6.28165V36.2415H6.96864L7.8298 35.7844V34.7149L7.3073 34.2491H7.99429V35.7844H8.16846V34.1025H6.45582L3.03053 35.931Z" fill="white"/>
<path fill-rule="evenodd" clip-rule="evenodd" d="M8.17297 34.098H6.45462L3.02833 35.927L3.03048 35.931H3.02592V37.4622H6.28617V36.2461H6.96973L7.83432 35.7872V34.7129L7.31924 34.2537H7.98967V35.789H8.17297V34.098ZM3.03505 35.9338L6.45691 34.1071H8.16384V35.7798H7.99881V34.2446H7.29526L7.82518 34.717V35.7817L6.96745 36.237H6.27703V37.4531H3.03505V35.9338ZM5.43468 35.165L3.36729 36.0821L3.36914 36.0908H5.43468V35.165ZM5.42555 35.1791V36.0817H3.3907L5.42555 35.1791Z" fill="black"/>
<path fill-rule="evenodd" clip-rule="evenodd" d="M10.9168 38.8294H12.9777L10.9168 39.7436V38.8294ZM13.3164 38.9846V37.458H10.0653V38.6741H9.37828L8.51712 39.1312V40.2007L9.03962 40.6665H8.35263V39.1312H8.17847V40.8131H9.89111L13.3164 38.9846Z" fill="white"/>
<path fill-rule="evenodd" clip-rule="evenodd" d="M8.17383 40.8177H9.89218L13.3185 38.9886L13.3163 38.9846H13.3209V37.4534H10.0606V38.6696H9.37707L8.51249 39.1285V40.2028L9.02756 40.6619H8.35713V39.1267H8.17383V40.8177ZM13.3118 38.9819L9.88989 40.8086H8.18296V39.1358H8.348V40.6711H9.05154L8.52162 40.1987V39.134L9.37935 38.6787H10.0698V37.4626H13.3118V38.9819ZM10.9121 39.7506L12.9795 38.8335L12.9777 38.8248H10.9121V39.7506ZM10.9213 39.7366V38.8339H12.9561L10.9213 39.7366Z" fill="black"/>
<path fill-rule="evenodd" clip-rule="evenodd" d="M4.06248 38.6813H4.26873V38.2125H4.69998V38.6813H4.9156V37.6125H4.69998V38.0719H4.26873V37.6031H4.06248V38.6813ZM6.1156 40.2094H6.33122V39.7406H6.7531V40.2094H6.96872V39.1406H6.7531V39.6H6.33122V39.1313H6.1156V40.2188V40.2094ZM4.0531 36.2344H4.26873V36.6938H4.69998V36.225H4.9156V37.3125H4.69998V36.8438H4.26873V37.3031H4.06248V36.2344H4.0531ZM6.1156 34.7063H6.33122V35.1656H6.7531V34.6969H6.96872V35.775H6.7531V35.3156H6.33122V35.7844H6.1156V34.7063ZM9.36873 40.2094H9.58435V39.7406H10.0156V40.2094H10.2312V39.1406H10.0156V39.6H9.58435V39.1313H9.36873V40.2188V40.2094ZM11.4312 37.3031H11.6468V36.8438H12.0687V37.3125H12.2843V36.2344H12.0687V36.6938H11.6562V36.225H11.4406V37.3125L11.4312 37.3031Z" fill="#CA3745"/>
<path fill-rule="evenodd" clip-rule="evenodd" d="M9.36877 40.2094H9.5844V39.7406H10.0156V40.2094H10.2313V39.1406H10.0156V39.6H9.5844V39.1312H9.36877V40.2187V40.2094Z" fill="#CA3745"/>
<path fill-rule="evenodd" clip-rule="evenodd" d="M9.36877 40.2094H9.5844V39.7406H10.0156V40.2094H10.2313V39.1406H10.0156V39.6H9.5844V39.1313H9.36877V40.2188V40.2094ZM11.4313 38.6813H11.6469V38.2125H12.0688V38.6813H12.2844V37.6125H12.0688V38.0625H11.6563V37.6031H11.4406V38.6813H11.4313ZM9.36877 35.775H9.5844V35.3156H10.0156V35.7844H10.2313V34.7063H10.0156V35.1656H9.5844V34.6969H9.36877V35.775Z" fill="#CA3745"/>
<path fill-rule="evenodd" clip-rule="evenodd" d="M8.34692 37.4531L9.0313 36.8906H9.3688V37.1719H9.0313V37.3125H9.54692V36.7594H9.0313V36.3375H8.34692V36.7594H8.51567V36.4781H8.85317V36.7594L8.1688 37.3219L7.48442 36.7594V36.4781H7.8313V36.7594H8.00005V36.3375H7.31567V36.7594H6.80005V37.3219H7.31567V37.1813H6.9688V36.9H7.31567L8.00005 37.4625L7.31567 38.0156H6.9688V37.7344H7.31567V37.5938H6.80005V38.1563H7.31567V38.5688H8.00005V38.1563H7.8313V38.4375H7.48442V38.1563L8.1688 37.5938L8.85317 38.1563V38.4375H8.51567V38.1563H8.34692V38.5688H9.0313V38.1563H9.54692V37.5938H9.0313V37.7344H9.3688V38.0156H9.0313L8.34692 37.4531Z" fill="white"/>
<path fill-rule="evenodd" clip-rule="evenodd" d="M3.36637 13.7729L3.69535 13.4314H5.68859L7.17868 11.931H9.17193L10.662 13.4404H12.6553L12.9842 13.7729L12.6553 14.1053H10.6523L9.16225 15.6147H7.16901L5.68859 14.1053H3.68567L3.35669 13.7729H3.36637Z" fill="#CA3745"/>
<path fill-rule="evenodd" clip-rule="evenodd" d="M3.5354 13.8002L3.71557 13.6369H5.76955L7.31004 12.0523H9.02169L10.5712 13.6451H12.6252L12.7963 13.8084L12.6252 13.9636H10.5712L9.19285 15.393H7.13887L5.76955 13.9636H3.70656L3.5354 13.8002Z" fill="#CA3745"/>
<path fill-rule="evenodd" clip-rule="evenodd" d="M7.30457 12.0394H9.0271L10.5766 13.6322H12.6303L12.8152 13.8086L12.6301 13.9765H10.5766L9.19829 15.4058H7.13335L5.76403 13.9765H3.70138L3.52649 13.8095L3.53537 13.8002L3.52673 13.7907L3.71058 13.624H5.76409L7.30457 12.0394ZM3.55426 13.8005L3.71169 13.9507H5.77502L7.14434 15.3801H9.18736L10.5657 13.9507H12.6202L12.7774 13.8082L12.62 13.6579H10.5657L9.01623 12.0652H7.31545L5.77496 13.6497H3.72051L3.55426 13.8005Z" fill="black"/>
<path fill-rule="evenodd" clip-rule="evenodd" d="M9.0074 13.9436L9.66536 14.6084L9.33638 14.9409L9.16221 14.7792H9.0074V14.9409L9.17189 15.1116H9.51055L9.83953 14.7792V14.4377L9.17189 13.7729L9.83953 13.099V12.7666L9.51055 12.4341H9.17189L9.0074 12.5958V12.7666H9.17189L9.34605 12.5958L9.67504 12.9373L9.0074 13.6021L8.34943 12.9373L9.0074 12.2634V12.0927H8.84291L8.18494 12.7666L7.5173 12.0927H7.35281V12.2634L8.01077 12.9373L7.35281 13.6021L6.68517 12.9373L7.02383 12.5958L7.18832 12.7666H7.35281V12.5958L7.18832 12.4341H6.84966L6.52068 12.7666V13.099L7.18832 13.7729L6.52068 14.4377V14.7792L6.84966 15.1116H7.18832L7.35281 14.9409V14.7792H7.16897L7.00448 14.9409L6.66582 14.6084L7.33346 13.9436L7.99142 14.6084L7.33346 15.2823V15.444H7.49795L8.16559 14.7792L8.82355 15.444H8.98804V15.2823L8.33008 14.6084L8.98804 13.9436H9.0074ZM8.17527 13.099L7.50763 13.7729L8.17527 14.4377L8.83323 13.7729L8.17527 13.099ZM7.17864 15.6147V16.9625L7.34314 16.7828L7.50763 16.9625L7.67212 16.7828L7.83661 16.9625L8.01077 16.7828L8.17527 16.9625L8.33976 16.7828L8.50425 16.9625L8.66874 16.7828L8.83323 16.9625L8.99772 16.7828L9.17189 16.9625V15.6147H7.16897H7.17864ZM9.17189 11.931V10.5833L8.99772 10.7629L8.83323 10.5833L8.66874 10.7629L8.50425 10.5833L8.33976 10.7629L8.17527 10.5833L8.0011 10.7629L7.83661 10.5833L7.67212 10.7629L7.50763 10.5833L7.34314 10.7629L7.17864 10.5833V11.931H9.17189ZM11.9779 13.4404V12.0927L11.8231 12.2724L11.6586 12.0927L11.4941 12.2724L11.3199 12.0927L11.1555 12.2724L10.991 12.0927L10.8265 12.2724L10.662 12.0927V13.4404H11.9876H11.9779ZM5.68855 13.4404V12.0927L5.51438 12.2724L5.34989 12.0927L5.1854 12.2724L5.02091 12.0927L4.85642 12.2724L4.69193 12.0927L4.51776 12.2724L4.35327 12.0927V13.4404H5.67887H5.68855ZM11.9876 14.1053V15.453L11.8231 15.2733L11.6586 15.453L11.4941 15.2733L11.3199 15.453L11.1555 15.2733L10.991 15.453L10.8265 15.2733L10.662 15.453V14.1053H11.9876ZM5.67887 14.1053V15.453L5.51438 15.2733L5.34989 15.453L5.1854 15.2733L5.02091 15.453L4.85642 15.2733L4.69193 15.453L4.51776 15.2733L4.35327 15.453V14.1053H5.67887Z" fill="#FAAE29"/>
<path fill-rule="evenodd" clip-rule="evenodd" d="M9.16225 15.6147V16.4503L9.33642 16.2796L9.50091 16.4593L9.6654 16.2796L9.82989 16.4593L9.99438 16.2796L10.1589 16.4593L10.333 16.2796L10.4975 16.4593L10.662 16.2796V14.1052L9.16225 15.6147ZM7.17869 15.6147V16.4503L7.00452 16.2796L6.84003 16.4593L6.67554 16.2796L6.51105 16.4593L6.34656 16.2796L6.18207 16.4593L6.01757 16.2796L5.85308 16.4593L5.67892 16.2796V14.1052L7.17869 15.6147ZM7.17869 11.9309V11.0953L7.00452 11.2571L6.84003 11.0953L6.67554 11.2571L6.51105 11.0953L6.34656 11.2571L6.18207 11.0953L6.01757 11.2571L5.85308 11.0953L5.67892 11.2571V13.4404L7.17869 11.9309ZM9.16225 11.9309V11.0953L9.33642 11.2571L9.50091 11.0953L9.6654 11.2571L9.82989 11.0953L9.99438 11.2571L10.1589 11.0953L10.3234 11.2571L10.4975 11.0953L10.662 11.2571V13.4404L9.16225 11.9309ZM4.35331 15.1115L4.18882 14.9408L4.02433 15.1205L3.85984 14.9408L3.69535 15.1205L3.53086 14.9408L3.35669 15.1205L3.1922 14.9408L3.02771 15.1205V12.4251L3.1922 12.6048L3.35669 12.4251L3.53086 12.6048L3.69535 12.4251L3.85984 12.6048L4.02433 12.4251L4.18882 12.6048L4.35331 12.4251V13.4404H3.69535L3.35669 13.7728L3.69535 14.1052H4.35331V15.1115ZM11.9876 15.1115L12.1521 14.9408L12.3166 15.1205L12.4811 14.9408L12.6553 15.1205L12.8198 14.9408L12.9842 15.1205L13.1487 14.9408L13.3132 15.1205V12.4251L13.1487 12.6048L12.9842 12.4251L12.8198 12.6048L12.6553 12.4251L12.4811 12.6048L12.3166 12.4251L12.1521 12.6048L11.9876 12.4251V13.4404H12.6553L12.9842 13.7728L12.6553 14.1052H11.9876V15.1115Z" fill="#00843D"/>
<path fill-rule="evenodd" clip-rule="evenodd" d="M6.3562 15.7225C6.3562 15.7225 6.22073 15.8483 6.22073 15.9202C6.22073 15.9831 6.36587 16.1179 6.4336 16.1179C6.51101 16.1179 6.6368 15.9831 6.6368 15.9202C6.6368 15.8573 6.50134 15.7225 6.50134 15.7225V15.453C6.50134 15.453 6.79161 15.9112 6.79161 15.7136C6.79161 15.5698 6.50134 15.3272 6.50134 15.3272H6.3562C6.3562 15.3272 6.06592 15.6147 6.06592 15.7136C6.06592 15.9112 6.3562 15.453 6.3562 15.453V15.7225Z" fill="white"/>
<path fill-rule="evenodd" clip-rule="evenodd" d="M8.08822 16.2347C8.08822 16.2347 7.92373 16.4144 7.92373 16.5042C7.92373 16.5941 8.0979 16.7917 8.17531 16.7917C8.27206 16.7917 8.4172 16.603 8.4172 16.5132C8.4172 16.4234 8.25271 16.2347 8.25271 16.2347V15.8573C8.25271 15.8573 8.54299 16.4683 8.54299 16.1897C8.54299 16.0101 8.25271 15.6776 8.25271 15.6776H8.08822C8.08822 15.6776 7.74956 16.0909 7.79794 16.1897C7.79794 16.4683 8.08822 15.8573 8.08822 15.8573V16.2347Z" fill="#CA3745"/>
<path d="M6.3436 13.9334C6.5246 13.9334 6.67133 13.8572 6.67133 13.7632C6.67133 13.6692 6.5246 13.593 6.3436 13.593C6.1626 13.593 6.01587 13.6692 6.01587 13.7632C6.01587 13.8572 6.1626 13.9334 6.3436 13.9334Z" fill="#00843D"/>
<path d="M8.17234 13.9334C8.35334 13.9334 8.50007 13.8572 8.50007 13.7632C8.50007 13.6692 8.35334 13.593 8.17234 13.593C7.99134 13.593 7.8446 13.6692 7.8446 13.7632C7.8446 13.8572 7.99134 13.9334 8.17234 13.9334Z" fill="#00843D"/>
<path d="M9.99143 13.9334C10.1724 13.9334 10.3192 13.8572 10.3192 13.7632C10.3192 13.6692 10.1724 13.593 9.99143 13.593C9.81043 13.593 9.6637 13.6692 9.6637 13.7632C9.6637 13.8572 9.81043 13.9334 9.99143 13.9334Z" fill="#00843D"/>
<path fill-rule="evenodd" clip-rule="evenodd" d="M6.32718 11.8411C6.32718 11.8411 6.19171 11.7063 6.19171 11.6434C6.19171 11.5805 6.33685 11.4368 6.39491 11.4368C6.47232 11.4368 6.5981 11.5715 6.5981 11.6344C6.5981 11.7063 6.46264 11.8411 6.46264 11.8411V12.1106C6.46264 12.1106 6.76259 11.6434 6.76259 11.8411C6.76259 11.9848 6.47232 12.2364 6.47232 12.2364H6.32718C6.32718 12.2364 6.02722 11.9489 6.02722 11.8501C6.02722 11.6524 6.3175 12.1016 6.3175 12.1016V11.8321L6.32718 11.8411Z" fill="white"/>
<path fill-rule="evenodd" clip-rule="evenodd" d="M8.04944 11.32C8.04944 11.32 7.88494 11.1403 7.88494 11.0504C7.88494 10.9606 8.06879 10.7719 8.13652 10.7719C8.23328 10.7719 8.38809 10.9516 8.38809 11.0415C8.38809 11.1313 8.2236 11.329 8.2236 11.329V11.6884C8.2236 11.6884 8.51388 11.0864 8.51388 11.3649C8.51388 11.5446 8.2236 11.886 8.2236 11.886H8.03976C8.03976 11.886 7.7011 11.4637 7.74948 11.3649C7.74948 11.0954 8.03976 11.6973 8.03976 11.6973V11.32H8.04944Z" fill="#CA3745"/>
<path fill-rule="evenodd" clip-rule="evenodd" d="M9.88794 15.7225C9.88794 15.7225 9.75248 15.8483 9.75248 15.9202C9.75248 15.9831 9.89762 16.1179 9.96535 16.1179C10.0428 16.1179 10.1685 15.9831 10.1685 15.9202C10.1685 15.8573 10.0331 15.7225 10.0331 15.7225V15.453C10.0331 15.453 10.3234 15.9112 10.3234 15.7135C10.3234 15.5698 10.0331 15.3272 10.0331 15.3272H9.87827C9.87827 15.3272 9.58799 15.6147 9.58799 15.7135C9.58799 15.9112 9.87827 15.453 9.87827 15.453V15.7225H9.88794ZM9.85891 11.8411C9.85891 11.8411 9.72345 11.7063 9.72345 11.6344C9.72345 11.5805 9.86859 11.4368 9.92665 11.4368C10.0041 11.4368 10.1298 11.5715 10.1298 11.6344C10.1298 11.7063 9.99438 11.8411 9.99438 11.8411V12.1106C9.99438 12.1106 10.2943 11.6434 10.2943 11.8411C10.2943 11.9848 10.0041 12.2364 10.0041 12.2364H9.85891C9.85891 12.2364 9.55896 11.9489 9.55896 11.8501C9.55896 11.6524 9.84924 12.1016 9.84924 12.1016V11.8321L9.85891 11.8411Z" fill="white"/>
<path fill-rule="evenodd" clip-rule="evenodd" d="M4.9145 14.7881C4.9145 14.7881 4.73065 14.9139 4.73065 14.9678C4.73065 15.0307 4.92417 15.1655 5.01126 15.1565C5.10802 15.1565 5.28218 15.0397 5.28218 14.9768C5.28218 14.9139 5.09834 14.7881 5.09834 14.7881V14.5365C5.09834 14.5365 5.42732 14.9408 5.42732 14.7611C5.42732 14.6354 5.09834 14.4107 5.09834 14.4107H4.9145C4.9145 14.4107 4.53714 14.6983 4.59519 14.7611C4.59519 14.9408 4.9145 14.5365 4.9145 14.5365V14.7881ZM4.87579 12.8923C4.87579 12.8923 4.69195 12.7665 4.69195 12.7036C4.69195 12.6407 4.88547 12.5149 4.97255 12.5239C5.06931 12.5239 5.24348 12.6407 5.24348 12.7036C5.24348 12.7665 5.05964 12.8833 5.05964 12.8833V13.1349C5.05964 13.1349 5.38862 12.7306 5.38862 12.9193C5.38862 13.0361 5.05964 13.2607 5.05964 13.2607H4.87579C4.87579 13.2607 4.49843 12.9822 4.55649 12.9193C4.55649 12.7396 4.87579 13.1349 4.87579 13.1349V12.8923ZM11.2909 14.7432C11.2909 14.7432 11.0974 14.869 11.0974 14.9319C11.0974 14.9948 11.3006 15.1205 11.3877 15.1205C11.4845 15.1205 11.6586 14.9948 11.6586 14.9408C11.6586 14.869 11.4651 14.7432 11.4651 14.7432V14.5006C11.4651 14.5006 11.7941 14.9049 11.7941 14.7162C11.7941 14.5994 11.4748 14.3748 11.4748 14.3748H11.2813C11.2813 14.3748 10.9136 14.6533 10.962 14.7162C10.962 14.9049 11.2909 14.5006 11.2909 14.5006V14.7522V14.7432ZM11.2522 12.8564C11.2522 12.8564 11.0587 12.7306 11.0587 12.6677C11.0587 12.6048 11.2619 12.479 11.349 12.479C11.4458 12.479 11.6199 12.6048 11.6199 12.6587C11.6199 12.7306 11.4264 12.8474 11.4264 12.8474V13.099C11.4264 13.099 11.7554 12.6946 11.7554 12.8743C11.7554 13.0001 11.4361 13.2247 11.4361 13.2247H11.2426C11.2426 13.2247 10.8749 12.9462 10.9233 12.8833C10.9233 12.6946 11.2522 13.099 11.2522 13.099V12.8474V12.8564Z" fill="#CA3745"/>
<path fill-rule="evenodd" clip-rule="evenodd" d="M3.55987 14.7701C3.50181 14.6533 3.52116 14.5994 3.52116 14.5365C3.52116 14.4736 3.68565 14.3568 3.74371 14.3568C3.82112 14.3568 3.9469 14.4826 3.9469 14.5545C3.9469 14.6174 3.9469 14.6713 3.91788 14.7881L3.84047 14.5994C3.73403 14.869 3.72436 14.869 3.6663 14.5904L3.56954 14.7701H3.55987ZM3.55987 12.8384C3.51149 12.9552 3.52116 13.0091 3.52116 13.072C3.52116 13.1349 3.68565 13.2517 3.75338 13.2517C3.83079 13.2517 3.95658 13.1259 3.95658 13.054C3.95658 12.9911 3.95658 12.9372 3.92755 12.8204L3.84047 13.0091C3.74371 12.7396 3.73403 12.7396 3.6663 13.0181L3.56954 12.8384H3.55987ZM12.5101 14.7432C12.4521 14.6264 12.4617 14.5725 12.4617 14.5096C12.4617 14.4467 12.6359 14.3299 12.694 14.3299C12.7714 14.3299 12.8971 14.4647 12.8971 14.5276C12.8971 14.5904 12.8971 14.6533 12.8681 14.7612L12.781 14.5725C12.6843 14.842 12.6746 14.851 12.6069 14.5725L12.5101 14.7432ZM12.5101 12.8204C12.4521 12.9283 12.4714 12.9822 12.4714 13.054C12.4714 13.108 12.6359 13.2337 12.694 13.2337C12.7714 13.2337 12.9068 13.099 12.9068 13.0361C12.9068 12.9642 12.9068 12.9103 12.8778 12.7935L12.781 12.9911C12.6843 12.7126 12.6843 12.7036 12.6165 12.9911L12.5198 12.8115L12.5101 12.8204Z" fill="white"/>
<path fill-rule="evenodd" clip-rule="evenodd" d="M7.1496 16.9982V16.513H5.60145V15.5606H4.22747V15.2462H3.02765V12.3711H4.22747V12.0566H5.60145V11.1042H7.1496V10.628H9.2009V11.1042H10.749V12.0566H12.1134V12.3801H13.3228V15.2462H12.123V15.5606H10.7587V16.513H9.21057V16.9892H7.15928L7.1496 16.9982ZM6.97543 17.1509V16.6748H5.42728V15.7224H4.06298V15.3989H2.86316V12.2183H4.06298V11.9039H5.42728V10.9425H6.97543V10.4663H9.37506V10.9425H10.9232V11.9039H12.2875V12.2183H13.4873V15.3989H12.2875V15.7224H10.9135V16.6748H9.36539V17.1509H6.97543Z" fill="#CA3745"/>
<path fill-rule="evenodd" clip-rule="evenodd" d="M6.97079 10.4617H9.37975V10.9379H10.9279V11.8992H12.2922V12.2137H13.492V15.4036H12.2922V15.7271H10.9182V16.6794H9.37007V17.1556H6.97546V17.151H6.97079V16.6794H5.42264V15.7271H4.05834V15.4036H2.85852V12.2137H4.05834V11.8992H5.42264V10.9379H6.97079V10.4617ZM6.98012 17.1463H9.36075V16.6701H10.9089V15.7177H12.2829V15.3943H13.4827V12.223H12.2829V11.9085H10.9186V10.9472H9.37043V10.471H6.98012V10.9472H5.43197V11.9085H4.06766V12.223H2.86784V15.3943H4.06766V15.7177H5.43197V16.6701H6.98012V17.1463ZM7.14496 10.6234H9.20558V11.0996H10.7537V12.052H12.118V12.3754H13.3275V15.2509H12.1277V15.5653H10.7634V16.5177H9.21526V16.9939H7.16113L7.14496 17.0089V16.5177H5.59681V15.5653H4.22283V15.2509H3.02301V12.3664H4.22283V12.052H5.59681V11.0996H7.14496V10.6234ZM7.15428 10.6327V11.1089H5.60613V12.0613H4.23215V12.3758H3.03234V15.2415H4.23215V15.556H5.60613V16.5084H7.15428V16.9875L7.15747 16.9846H9.20594V16.5084H10.7541V15.556H12.1184V15.2415H13.3182V12.3847H12.1087V12.0613H10.7444V11.1089H9.19626V10.6327H7.15428Z" fill="black"/>
</g>
</g>
</g>
<defs>
<clipPath id="clip0_154_54472">
<rect width="48" height="48" fill="white"/>
</clipPath>
<clipPath id="clip1_154_54472">
<rect width="64" height="48" fill="white"/>
</clipPath>
</defs>
</svg>
