<svg width="48" height="48" viewBox="0 0 48 48" fill="none" xmlns="http://www.w3.org/2000/svg">
<g clip-path="url(#clip0_152_6569)">
<mask id="mask0_152_6569" style="mask-type:alpha" maskUnits="userSpaceOnUse" x="0" y="0" width="48" height="48">
<circle cx="24" cy="24" r="24" fill="#D9D9D9"/>
</mask>
<g mask="url(#mask0_152_6569)">
<g clip-path="url(#clip1_152_6569)">
<path d="M-8 0H56V48H-8V0Z" fill="#F7E017"/>
<path d="M-8 3.33V24.67L56 34.67V23.33L-8 3.33Z" fill="white"/>
<path d="M-8 14.67V24.67L56 44.67V34.67L-8 14.67Z" fill="black"/>
<path d="M22.3801 37.9802C21.21 37.851 20.0842 37.459 19.0868 36.8335C18.9268 36.7269 18.7801 36.6335 18.7534 36.6335C18.7268 36.6335 18.7134 36.7602 18.7134 36.9069C18.7134 37.3335 18.5401 37.5469 18.1134 37.6602C17.7001 37.7669 17.0734 37.5535 16.5668 37.1269C16.0863 36.7158 15.5255 36.4093 14.9201 36.2269C14.2894 36.0767 13.6256 36.1621 13.0534 36.4669C12.9969 36.5066 12.9336 36.536 12.8668 36.5535C12.7934 36.5535 12.8001 36.0935 12.8801 35.9535C12.9801 35.7535 13.2201 35.5669 13.5068 35.4669C13.6534 35.4135 13.7734 35.3469 13.7734 35.3135C13.7734 35.2869 13.7201 35.1802 13.6601 35.0735C13.4668 34.7335 13.5468 34.4068 13.8868 34.1468C14.2334 33.8802 14.8201 33.8402 15.3334 34.0335C15.4202 34.0705 15.5092 34.1017 15.6001 34.1268C15.6668 34.1268 15.6268 34.0268 15.4401 33.7535C15.2268 33.4402 15.1801 33.2868 15.2068 32.9068C15.2251 32.6742 15.3258 32.4558 15.4908 32.2908C15.6557 32.1259 15.8742 32.0252 16.1068 32.0068C16.4934 31.9802 16.7334 32.1135 17.3068 32.6535C18.8466 34.2034 20.8691 35.1817 23.0401 35.4269C23.5935 35.4935 24.6935 35.4602 25.3401 35.3602C27.3888 35.0184 29.2881 34.071 30.7935 32.6402C31.2202 32.2402 31.4202 32.1335 31.7735 32.1335C32.0735 32.1335 32.2868 32.2268 32.5068 32.4668C32.7069 32.6868 32.7735 32.8935 32.7469 33.2335C32.7335 33.4468 32.7002 33.5468 32.5735 33.7602C32.3868 34.0602 32.4202 34.0935 32.7868 33.9468C33.2935 33.7468 33.9135 33.8402 34.2469 34.1602C34.5402 34.4402 34.5669 34.7202 34.3402 35.0935C34.2535 35.2335 34.1869 35.3602 34.1869 35.3869C34.1869 35.4269 34.2535 35.4402 34.5535 35.4935C34.9535 35.5602 35.1869 35.8535 35.1869 36.3069C35.1869 36.4402 35.1669 36.5535 35.1469 36.5535C35.1269 36.5535 34.9735 36.4935 34.8135 36.4269C34.3469 36.2335 34.0802 36.1869 33.5335 36.1935C33.1202 36.1935 32.9802 36.2135 32.6935 36.3069C32.2137 36.4737 31.7718 36.7343 31.3935 37.0735C30.9668 37.4535 30.7002 37.5735 30.2868 37.5669C29.9002 37.5669 29.6402 37.4535 29.5002 37.2335C29.4268 37.1135 29.4135 37.0469 29.4335 36.7802C29.4468 36.6069 29.4402 36.4669 29.4335 36.4669C29.4135 36.4669 29.2668 36.5602 29.1002 36.6735C28.7196 36.9464 28.305 37.1683 27.8668 37.3335C26.1122 37.9691 24.2344 38.1904 22.3801 37.9802Z" fill="#CF1126"/>
<path d="M23.0869 35.0135C21.7973 34.895 20.5479 34.5024 19.4223 33.862C18.2967 33.2216 17.3209 32.3481 16.5602 31.3001C14.9335 29.0868 14.4268 26.1601 14.9202 23.4868C15.1868 22.2668 15.7202 21.0468 16.6202 20.1801C15.8782 21.7198 15.674 23.4639 16.0402 25.1334C16.6402 28.4535 19.4402 31.2601 22.7935 31.7468C24.1269 32.1268 25.4935 31.7201 26.7602 31.3135C29.5602 30.3268 31.6936 27.6735 31.9469 24.7068C32.1669 23.1068 31.9269 21.4334 31.2002 19.9734C31.6136 20.1934 32.1336 21.0534 32.4402 21.6268C33.5069 23.6934 33.5536 26.1668 32.9269 28.3735C32.0736 31.1801 29.9269 33.6402 27.0935 34.5335C25.8009 34.9373 24.445 35.1 23.0935 35.0135H23.0869Z" fill="#CF1126"/>
<path d="M10.1334 31.327C9.96674 31.3003 9.78008 31.467 9.84674 31.6403C9.96674 31.8137 10.1801 31.907 10.3667 31.987C10.8586 32.1791 11.3865 32.261 11.9134 32.227C12.3 32.2271 12.6836 32.1594 13.0468 32.027C13.2468 31.9603 13.5001 31.8937 13.5801 31.667C13.6668 31.527 13.5134 31.3803 13.3734 31.407C13.1734 31.4537 12.9734 31.5403 12.7734 31.6003C12.3338 31.7248 11.8755 31.77 11.4201 31.7337C11.0886 31.6855 10.7655 31.5912 10.4601 31.4537C10.3534 31.407 10.2534 31.3403 10.1334 31.327Z" fill="#CF1126"/>
<path d="M10.3201 30.6337C10.1535 30.607 10.0068 30.807 10.0735 30.967C10.2068 31.1537 10.4268 31.2537 10.6335 31.3404C10.994 31.4818 11.3798 31.5476 11.7668 31.5337H11.8668C12.196 31.5351 12.5222 31.4717 12.8268 31.347C13.0068 31.2737 13.2335 31.2004 13.3135 31.0004C13.3735 30.887 13.3268 30.727 13.1801 30.7137C13.0601 30.7137 12.9468 30.7937 12.8268 30.827C12.3925 31.0064 11.9217 31.0795 11.4535 31.0404C11.1601 31.007 10.8868 30.9004 10.6201 30.7737C10.5201 30.727 10.4335 30.6537 10.3201 30.6404V30.6337Z" fill="#CF1126"/>
<path d="M10.5534 29.9737C10.4067 29.9537 10.3067 30.1204 10.3334 30.247C10.3534 30.367 10.4534 30.447 10.5401 30.5137C10.9031 30.7651 11.3391 30.8894 11.7801 30.867H11.8868C12.164 30.865 12.4373 30.8012 12.6868 30.6804C12.8534 30.6137 13.0468 30.527 13.1068 30.3337C13.1334 30.247 13.1468 30.1204 13.0468 30.067C12.9401 30.0137 12.8401 30.1004 12.7468 30.1337C12.4279 30.3012 12.0736 30.3904 11.7134 30.3937C11.4042 30.3813 11.1034 30.2895 10.8401 30.127C10.7401 30.0804 10.6601 29.9937 10.5534 29.9737Z" fill="#CF1126"/>
<path d="M8.1001 20.1803C7.88677 20.4003 8.05343 20.8003 8.03343 21.0803C8.15344 21.9603 8.29344 22.847 8.6201 23.6803C9.02011 24.4803 9.87344 24.9137 10.3868 25.627C10.5734 25.967 10.5068 26.3803 10.5468 26.7603C10.5734 27.7803 10.5668 28.807 10.5468 29.827C11.0135 30.067 11.5135 30.2937 12.0468 30.207C12.3601 30.1337 12.9468 30.087 13.0135 29.7737L12.9468 24.4737C12.7668 23.9336 12.2135 23.6536 11.8068 23.307C11.4669 22.9714 11.1506 22.6128 10.8601 22.2336C10.6868 21.9336 10.0001 21.8336 10.2468 22.3403C10.3934 22.787 10.7601 23.1136 10.8534 23.5803C10.8734 23.8403 11.1868 24.3137 10.9201 24.4603C10.7559 24.1706 10.507 23.9379 10.2068 23.7936C9.91344 23.5736 9.42677 23.4803 9.32011 23.0936C9.22406 22.5437 8.96913 22.0338 8.58677 21.627C8.68677 21.1336 8.58677 20.5136 8.1601 20.1936L8.1001 20.1803Z" fill="#CF1126"/>
<path d="M8.76012 20.2803C8.56012 20.3136 8.57345 20.5603 8.66012 20.6936C8.75893 20.9806 8.78415 21.2878 8.73345 21.587C9.09903 21.9941 9.34377 22.4951 9.44012 23.0337C9.44012 23.2337 9.65346 23.3003 9.79346 23.4003C10.1201 23.607 10.4801 23.7603 10.7735 24.0203C10.8335 24.087 10.8801 24.1537 10.8401 24.0203C10.7935 23.847 10.7735 23.6603 10.6401 23.5337C10.4535 23.3337 10.2268 23.1603 9.96012 23.107C9.94012 22.827 9.80679 22.5736 9.68679 22.3336C9.55346 22.1003 9.41346 21.8536 9.18679 21.707C9.18679 21.3003 9.18679 20.8736 9.01345 20.4936C8.96012 20.4003 8.88012 20.287 8.76012 20.2803Z" fill="#CF1126"/>
<path d="M9.31346 20.4403C9.18013 20.4803 9.2068 20.6536 9.2468 20.7536C9.30503 21.0431 9.32742 21.3387 9.31346 21.6336C9.57346 21.8336 9.7268 22.127 9.87347 22.407C9.9668 22.5937 10.0468 22.7937 10.0801 23.0003C10.2868 23.067 10.4668 23.2003 10.6268 23.3337C10.5601 23.147 10.4268 23.0003 10.3268 22.8203C10.2268 22.6403 10.1268 22.447 10.0801 22.2403C9.88013 22.0336 9.77347 21.7336 9.81347 21.4403C9.8268 21.127 9.7268 20.8003 9.51346 20.5603C9.46013 20.507 9.39346 20.447 9.31346 20.4403Z" fill="#CF1126"/>
<path d="M9.94676 20.5336C9.86676 20.547 9.82676 20.6136 9.78676 20.6736C9.76676 20.7336 9.84009 20.7936 9.85343 20.8603C9.94053 21.0804 9.97257 21.3184 9.94676 21.5536C9.94009 21.7203 10.0001 21.887 10.0801 22.0203C10.0951 21.969 10.1255 21.9235 10.1673 21.8901C10.209 21.8567 10.2601 21.837 10.3134 21.8336C10.3468 21.8336 10.4068 21.847 10.3801 21.787C10.3534 21.467 10.3068 21.147 10.1934 20.8536C10.1606 20.7381 10.0959 20.6341 10.0068 20.5536C9.99343 20.5403 9.96676 20.527 9.94009 20.5336H9.94676Z" fill="#CF1126"/>
<path d="M38.1387 31.327C38.3054 31.3003 38.492 31.467 38.4254 31.6403C38.3054 31.8137 38.092 31.907 37.9053 31.987C37.4135 32.1791 36.8856 32.261 36.3587 32.227C35.9721 32.2271 35.5885 32.1594 35.2253 32.027C35.0253 31.9603 34.772 31.8937 34.692 31.667C34.6053 31.527 34.7587 31.3803 34.8987 31.407C35.0987 31.4537 35.2987 31.5403 35.4987 31.6003C35.9383 31.7248 36.3966 31.77 36.852 31.7337C37.1835 31.6855 37.5066 31.5912 37.812 31.4537C37.9187 31.407 38.0187 31.3403 38.1387 31.327Z" fill="#CF1126"/>
<path d="M37.952 30.6337C38.1186 30.607 38.2653 30.807 38.1986 30.967C38.0653 31.1537 37.8453 31.2537 37.6386 31.3404C37.2781 31.4818 36.8923 31.5476 36.5053 31.5337H36.4053C36.0761 31.5351 35.7499 31.4717 35.4453 31.347C35.2653 31.2737 35.0386 31.2004 34.9586 31.0004C34.8986 30.887 34.9453 30.727 35.092 30.7137C35.212 30.7137 35.3253 30.7937 35.4453 30.827C35.8796 31.0064 36.3504 31.0795 36.8186 31.0404C37.112 31.007 37.3853 30.9004 37.652 30.7737C37.752 30.727 37.8386 30.6537 37.952 30.6404V30.6337Z" fill="#CF1126"/>
<path d="M37.7187 29.9737C37.8654 29.9537 37.9654 30.1204 37.9387 30.247C37.9187 30.367 37.8187 30.447 37.732 30.5137C37.369 30.7651 36.933 30.8894 36.492 30.867H36.3853C36.1081 30.865 35.8348 30.8012 35.5853 30.6804C35.4187 30.6137 35.2253 30.527 35.1653 30.3337C35.1387 30.247 35.1253 30.1204 35.2253 30.067C35.332 30.0137 35.432 30.1004 35.5253 30.1337C35.8442 30.3012 36.1985 30.3904 36.5587 30.3937C36.8679 30.3813 37.1687 30.2895 37.432 30.127C37.532 30.0804 37.612 29.9937 37.7187 29.9737Z" fill="#CF1126"/>
<path d="M40.172 20.1803C40.3853 20.4003 40.2187 20.8003 40.2387 21.0803C40.1187 21.9603 39.9787 22.847 39.652 23.6803C39.252 24.4803 38.3987 24.9137 37.8853 25.627C37.6986 25.967 37.7653 26.3803 37.7253 26.7603C37.6986 27.7803 37.7053 28.807 37.7253 29.827C37.2586 30.067 36.7586 30.2937 36.2253 30.207C35.912 30.1337 35.3253 30.087 35.2586 29.7737L35.3253 24.4737C35.5053 23.9336 36.0586 23.6536 36.4653 23.307C36.8052 22.9714 37.1215 22.6128 37.412 22.2336C37.5853 21.9336 38.272 21.8336 38.0253 22.3403C37.8786 22.787 37.512 23.1136 37.4186 23.5803C37.3986 23.8403 37.0853 24.3137 37.352 24.4603C37.5162 24.1706 37.7651 23.9379 38.0653 23.7936C38.3587 23.5736 38.8453 23.4803 38.952 23.0936C39.048 22.5437 39.303 22.0338 39.6853 21.627C39.5853 21.1336 39.6853 20.5136 40.112 20.1936L40.172 20.1803Z" fill="#CF1126"/>
<path d="M39.512 20.2803C39.712 20.3136 39.6986 20.5603 39.612 20.6936C39.5132 20.9806 39.4879 21.2878 39.5386 21.587C39.1731 21.9941 38.9283 22.4951 38.832 23.0337C38.832 23.2337 38.6186 23.3003 38.4786 23.4003C38.152 23.607 37.792 23.7603 37.4986 24.0203C37.4386 24.087 37.392 24.1537 37.432 24.0203C37.4786 23.847 37.4986 23.6603 37.632 23.5337C37.8186 23.3337 38.0453 23.1603 38.312 23.107C38.332 22.827 38.4653 22.5736 38.5853 22.3336C38.7186 22.1003 38.8586 21.8536 39.0853 21.707C39.0853 21.3003 39.0853 20.8736 39.2586 20.4936C39.312 20.4003 39.392 20.287 39.512 20.2803Z" fill="#CF1126"/>
<path d="M38.9586 20.4403C39.092 20.4803 39.0653 20.6536 39.0253 20.7536C38.9671 21.0431 38.9447 21.3387 38.9586 21.6336C38.6986 21.8336 38.5453 22.127 38.3986 22.407C38.3053 22.5937 38.2253 22.7937 38.192 23.0003C37.9853 23.067 37.8053 23.2003 37.6453 23.3337C37.712 23.147 37.8453 23.0003 37.9453 22.8203C38.0453 22.6403 38.1453 22.447 38.192 22.2403C38.392 22.0336 38.4986 21.7336 38.4586 21.4403C38.4453 21.127 38.5453 20.8003 38.7586 20.5603C38.812 20.507 38.8786 20.447 38.9586 20.4403Z" fill="#CF1126"/>
<path d="M38.3253 20.5336C38.4053 20.547 38.4453 20.6136 38.4853 20.6736C38.5053 20.7336 38.432 20.7936 38.4187 20.8603C38.3316 21.0804 38.2995 21.3184 38.3253 21.5536C38.332 21.7203 38.272 21.887 38.192 22.0203C38.177 21.969 38.1466 21.9235 38.1048 21.8901C38.0631 21.8567 38.012 21.837 37.9587 21.8336C37.9253 21.8336 37.8653 21.847 37.892 21.787C37.9187 21.467 37.9653 21.147 38.0787 20.8536C38.1115 20.7381 38.1762 20.6341 38.2653 20.5536C38.2787 20.5403 38.3053 20.527 38.332 20.5336H38.3253Z" fill="#CF1126"/>
<path d="M23.7136 31.7335C23.2633 31.6848 22.8363 31.5083 22.4831 31.2248C22.1299 30.9412 21.8652 30.5626 21.7202 30.1335C21.7402 29.9868 21.9202 30.2135 22.0069 30.2335C22.1695 30.3304 22.3517 30.3896 22.5402 30.4068C22.7736 30.5068 22.9202 30.7402 23.1469 30.8668C23.2536 30.9468 23.6269 31.1068 23.5536 30.8468C23.4669 30.7135 23.4069 30.5402 23.4869 30.3802C23.6069 30.1068 23.8002 29.8668 24.0002 29.6335C24.1402 29.5868 24.2402 29.8735 24.3402 29.9668C24.4802 30.1868 24.6536 30.4535 24.5669 30.7202C24.4869 30.8202 24.4336 31.1202 24.6536 31.0268C24.9202 30.9068 25.1402 30.7068 25.3602 30.5202C25.5602 30.3868 25.8069 30.3802 26.0069 30.2535C26.1069 30.2335 26.3002 30.0468 26.3402 30.1468C26.2208 30.4448 26.0543 30.7217 25.8469 30.9668C25.5263 31.3474 25.0831 31.6044 24.5936 31.6935C24.3002 31.7468 24.0069 31.7602 23.7136 31.7335Z" fill="#CF1126"/>
<path d="M24.7669 30.6801C24.7869 30.5001 24.7469 30.3201 24.6535 30.1468C24.5135 29.8668 24.3202 29.6135 24.1202 29.3535C23.9335 29.2468 23.8335 29.6001 23.7135 29.7001C23.5202 29.9868 23.2802 30.2801 23.2669 30.6335C23.1602 30.8001 22.9602 30.5001 22.8735 30.4001C22.6959 30.1718 22.6018 29.8894 22.6069 29.6001C22.5907 29.1307 22.6725 28.663 22.8469 28.2268C22.9802 27.8535 23.1869 27.4935 23.1669 27.0935C23.1802 26.7801 23.1202 26.4468 22.8735 26.2401C22.6335 26.0535 23.0269 26.0135 23.1469 26.1068C23.3602 26.1268 23.4735 26.4735 23.6669 26.3868C23.7402 26.2068 23.7602 25.9868 23.9202 25.8468C24.0735 25.6335 24.2335 25.9335 24.2869 26.0801C24.4002 26.2001 24.2869 26.5135 24.4602 26.5201C24.6735 26.3668 24.8269 26.1201 25.1002 26.0601C25.2135 25.9935 25.4002 26.0601 25.2535 26.1801C25.0535 26.3735 24.8802 26.6068 24.8402 26.8935C24.7802 27.2468 24.8669 27.6068 25.0202 27.9201C25.3202 28.5468 25.5535 29.2535 25.4002 29.9535C25.3335 30.2601 25.1202 30.5268 24.8669 30.7068C24.8335 30.7268 24.7802 30.7268 24.7669 30.6801Z" fill="#CF1126"/>
<path d="M24.4469 25.9735C24.3571 25.7931 24.2298 25.634 24.0735 25.5068C23.9135 25.5068 23.8135 25.7068 23.7069 25.8135C23.6335 25.9535 23.5402 26.1868 23.3535 26.0068C23.0535 25.8335 23.0069 25.4535 23.0069 25.1401C22.9869 24.6335 23.1935 24.1601 23.3735 23.7001C23.4869 23.4135 23.4602 23.0868 23.3869 22.7935C23.3002 22.4601 23.0269 22.2201 22.8202 21.9535C22.8335 21.8535 23.1002 21.9068 23.2002 21.9268C23.4269 21.9868 23.5602 22.1801 23.7269 22.3268C23.8469 22.2868 23.7935 22.0468 23.8535 21.9335C23.8535 21.7735 24.0669 21.5668 24.1535 21.7935C24.2869 21.9401 24.1535 22.2268 24.3202 22.3135C24.4802 22.2535 24.5602 22.0801 24.7069 22.0001C24.7835 21.9506 24.8715 21.9215 24.9625 21.9156C25.0536 21.9098 25.1446 21.9274 25.2269 21.9668C25.2869 22.1135 25.0535 22.2335 24.9869 22.3668C24.8536 22.533 24.7613 22.7282 24.7173 22.9366C24.6733 23.1451 24.6788 23.3609 24.7335 23.5668C24.8269 23.9001 24.9869 24.2001 25.0469 24.5335C25.1189 24.9136 25.1075 25.3048 25.0135 25.6801C24.9535 25.9068 24.7602 26.0535 24.5602 26.1468C24.5069 26.1001 24.4802 26.0335 24.4469 25.9735Z" fill="#CF1126"/>
<path d="M23.4402 21.7934C23.2135 21.6268 23.1402 21.4734 23.1402 21.1601C23.1402 21.0068 23.1735 20.9201 23.2735 20.7734C23.4335 20.5601 23.4069 20.4934 23.1869 20.5534C22.8335 20.6534 22.6669 20.5668 22.6535 20.2668C22.6535 20.1201 22.6802 20.0601 22.8735 19.8201C23.0335 19.6334 23.0935 19.5334 23.0602 19.5001C23.0269 19.4734 22.8402 19.6334 22.4602 20.0201C22.2219 20.2713 21.9681 20.5074 21.7002 20.7268C21.0469 21.1668 20.4202 21.2334 20.1335 20.8934C19.9869 20.7201 19.9935 20.6268 20.1602 20.5201C20.2663 20.4484 20.3647 20.3657 20.4535 20.2734C20.7803 19.9751 21.1404 19.7156 21.5269 19.5001C21.7669 19.3801 21.8202 19.3001 21.6669 19.3001C21.4669 19.3001 20.8335 19.7134 20.3469 20.1534C20.2069 20.2868 20.0002 20.4334 19.8935 20.4868C19.5969 20.5949 19.2759 20.618 18.9668 20.5534C18.8202 20.5068 18.5468 20.2534 18.5468 20.1601C18.5468 20.1401 18.6135 20.0868 18.6802 20.0401C18.7888 19.9787 18.8915 19.9073 18.9868 19.8268C19.3735 19.4934 20.1069 19.1401 20.6869 19.0134C20.8735 18.9801 20.8002 18.8801 20.5935 18.8934C19.9816 19.0103 19.4086 19.2784 18.9268 19.6734C18.3735 20.1334 17.5402 20.0868 17.2735 19.5868C17.2268 19.5001 17.1935 19.4201 17.2068 19.4068C17.6791 19.2876 18.1356 19.113 18.5668 18.8868C18.9383 18.6678 19.3476 18.5208 19.7735 18.4534C19.9602 18.4201 19.9735 18.3268 19.7935 18.3068C19.5535 18.2801 19.1935 18.4001 18.5602 18.7068C17.7402 19.1134 17.5068 19.1868 17.0802 19.1601C16.6802 19.1334 16.4602 19.0334 16.1468 18.7334C15.9335 18.5334 15.6402 18.0334 15.6935 17.9734C16.0396 18.0462 16.3935 18.0753 16.7468 18.0601C17.3002 18.0601 17.4535 18.0468 17.7468 17.9601C18.3199 17.7785 18.8601 17.5061 19.3468 17.1534C20.033 16.5729 20.9014 16.252 21.8002 16.2467C22.6269 16.2467 23.1469 16.4334 23.6135 16.9067C23.7735 17.0667 23.9069 17.1667 23.9269 17.1467C23.9469 17.1267 23.9669 16.8467 23.9735 16.5267C23.9735 16.5267 24.2202 16.5001 24.2735 16.5734C24.2735 17.0867 24.2735 17.1334 24.3535 17.1334C24.4002 17.1334 24.4535 17.0801 24.4869 17.0001C24.5535 16.8334 24.8202 16.6001 25.1002 16.4534C25.7002 16.1534 26.7469 16.1401 27.5869 16.4334C27.9885 16.5858 28.364 16.7994 28.7002 17.0667C29.1907 17.4117 29.73 17.6813 30.3002 17.8668C30.7536 18.0001 31.5669 18.0334 31.9736 17.9334C32.0925 17.9059 32.2127 17.8836 32.3336 17.8668C32.4869 17.8668 32.2269 18.3734 31.9202 18.6734C31.3602 19.2201 30.6336 19.2134 29.6136 18.6668C28.9736 18.3201 28.2136 18.1334 28.2136 18.3201C28.2136 18.3601 28.2536 18.3868 28.3136 18.3868C28.5336 18.3868 28.9602 18.5334 29.5602 18.8201C29.9372 19.0375 30.3506 19.1843 30.7802 19.2534C30.9336 19.2534 30.9402 19.3534 30.7936 19.5668C30.6402 19.7934 30.3802 19.9001 30.0136 19.9001C29.6602 19.9001 29.4602 19.8268 29.1469 19.5668C28.6136 19.1268 27.3069 18.6334 27.3536 18.9001C27.3669 18.9468 27.4269 18.9801 27.5669 19.0001C28.1299 19.1224 28.657 19.3734 29.1069 19.7334L29.5002 20.0201C29.5736 20.0601 29.5736 20.0734 29.5136 20.1868C29.4202 20.3734 29.1669 20.5134 28.9002 20.5401C28.5536 20.5801 28.2469 20.4734 27.9336 20.2068C27.2669 19.6534 26.6469 19.2534 26.4469 19.2534C26.2802 19.2534 26.3535 19.3468 26.6469 19.5001C27.0263 19.7011 27.38 19.9473 27.7002 20.2334C27.8336 20.3601 27.9869 20.4801 28.0336 20.5068C28.1602 20.5734 28.1536 20.6668 28.0202 20.8401C27.8869 21.0134 27.6602 21.0934 27.3736 21.0601C26.8002 21.0001 26.3469 20.7268 25.6402 19.9934C25.4722 19.8058 25.2894 19.6319 25.0935 19.4734C25.0002 19.4734 25.0602 19.6001 25.2402 19.8068C25.4669 20.0534 25.5069 20.1934 25.4202 20.4068C25.3469 20.5801 25.2202 20.6268 24.9669 20.5534C24.7002 20.4868 24.6602 20.5534 24.8335 20.7601C25.0869 21.0868 25.0535 21.4734 24.7335 21.7468C24.6674 21.8105 24.5907 21.8624 24.5069 21.9001C24.4802 21.9001 24.4135 21.8334 24.3535 21.7401C24.1535 21.4334 23.9735 21.4334 23.7735 21.7401C23.7313 21.8082 23.6869 21.875 23.6402 21.9401C23.5727 21.8923 23.5061 21.8434 23.4402 21.7934Z" fill="#CF1126"/>
<path d="M24.4468 15.5334L24.1001 15.8001L23.7935 15.5734V17.4268H24.4468V15.5334Z" fill="#CF1126"/>
<path d="M22.3268 13.6201C22.2662 14.3696 22.0625 15.1005 21.7268 15.7734L22.4668 15.0867L22.9801 15.7001L23.5401 15.0734L24.1068 15.6067L24.6535 15.0534L25.2202 15.7201L25.7135 15.1734L26.5535 15.7734C26.2468 15.1067 25.8402 14.5334 25.8868 13.5867C25.0802 14.1867 23.1535 14.2934 22.3268 13.6134V13.6201Z" fill="#CF1126"/>
<path d="M23.8002 13.1734C23.5002 13.1734 23.1868 13.1801 22.9068 13.2401C22.7214 13.2696 22.5442 13.3377 22.3868 13.4401C22.4068 14.0134 25.1202 14.2467 25.8469 13.4534C25.6833 13.3402 25.4965 13.265 25.3002 13.2334C25.0335 13.1801 24.7269 13.1801 24.4402 13.1667V13.6401H23.8002V13.1734Z" fill="#CF1126"/>
<path d="M24.3269 10.2667H23.9069V13.5601H24.3335L24.3269 10.2667Z" fill="#CF1126"/>
<path d="M24.3269 10.3467L24.1669 11.9267L25.7869 12.7201L24.9669 11.6201L26.0869 11.2534L24.3269 10.3467ZM24.1469 9.94005C23.9002 9.94005 23.7202 10.0334 23.7202 10.14C23.7202 10.2467 23.9002 10.3401 24.1469 10.3401C24.3936 10.3401 24.5736 10.2467 24.5736 10.14C24.5736 10.0334 24.3936 9.94005 24.1469 9.94005Z" fill="#CF1126"/>
<path d="M23.4 37.59C23.67 37.5 23.82 37.34 23.93 37.03C23.98 36.87 24.02 36.71 24.01 36.67C23.99 36.57 23.87 36.57 23.75 36.68C23.66 36.75 23.65 36.79 23.67 36.94C23.74 37.31 23.6 37.41 22.9 37.48C22.83 37.48 22.62 37.48 22.45 37.45C22.11 37.41 21.99 37.45 22.11 37.55C22.1746 37.5913 22.2456 37.6217 22.32 37.64C22.51 37.69 23.2 37.66 23.4 37.59ZM24.87 37.53C24.91 37.49 25.04 37.43 25.17 37.38C25.34 37.33 25.43 37.28 25.5 37.16C25.71 36.86 25.67 36.59 25.37 36.23C25.2 36.03 25.13 36.04 25 36.26C24.88 36.44 24.89 36.46 25.05 36.5C25.14 36.52 25.22 36.58 25.26 36.66C25.44 36.97 25.39 37.16 25.12 37.16C24.88 37.16 24.82 37.2 24.75 37.36L24.69 37.55C24.69 37.61 24.79 37.6 24.87 37.53ZM24.39 37.18C24.43 37.05 24.45 36.83 24.44 36.38C24.4508 36.1662 24.4407 35.9519 24.41 35.74C24.37 35.7 24.18 35.82 24.15 35.91C24.14 35.9838 24.1579 36.0586 24.2 36.12C24.26 36.24 24.27 36.36 24.25 36.82C24.22 37.42 24.26 37.52 24.39 37.18Z" fill="#F7E017"/>
<path d="M23.2601 36.9L23.3301 36.4C23.3401 36.23 23.3801 36.02 23.4001 35.93C23.4701 35.7 23.4001 35.64 23.2201 35.77L23.0901 35.87L23.1101 36.2C23.1401 36.5 23.0901 37.05 23.0201 37.27C23.0001 37.33 23.0301 37.31 23.1101 37.22C23.1701 37.15 23.2401 37 23.2601 36.89V36.9ZM22.2601 37.06C22.5001 36.86 22.4701 36.5 22.5301 36.22C22.5301 36.03 22.6501 35.81 22.5701 35.64C22.3401 35.68 22.2001 35.9 22.3201 36.11C22.3201 36.36 22.3201 36.63 22.1901 36.85C22.0901 37 21.7501 36.96 21.7701 36.75C21.8501 36.45 21.4801 36.6 21.3401 36.68C21.2301 36.76 20.9901 36.77 21.0801 36.58C21.0201 36.31 20.6901 36.48 20.5101 36.48C20.3401 36.48 20.5001 36.13 20.2501 36.18C19.8001 36.15 19.3001 36.19 18.9001 35.92C18.6701 35.81 18.7001 35.53 18.8301 35.35C18.9701 35.11 19.0101 34.8 19.2301 34.61C19.4601 34.4 19.0301 34.49 18.9301 34.56C18.7101 34.68 18.9101 34.99 18.7301 35.16C18.6301 35.34 18.4901 35.58 18.2501 35.55C17.9001 35.48 17.7001 35.15 17.4501 34.95C17.2301 34.9 17.3501 35.29 17.4701 35.37C17.6918 35.5357 17.9429 35.6578 18.2101 35.73C18.4701 35.68 18.4801 36.03 18.7101 36.08C19.1101 36.28 19.5701 36.33 20.0201 36.36C20.2001 36.37 20.1001 36.69 20.3301 36.62C20.4601 36.66 20.7601 36.57 20.7701 36.72C20.5701 36.96 20.9601 36.95 21.1001 36.92C21.2901 36.88 21.5201 36.82 21.5701 37.06C21.7201 37.23 22.0001 37.2 22.1901 37.11L22.2601 37.06Z" fill="#F7E017"/>
<path d="M18.2801 35.04C18.3741 34.9085 18.4545 34.7677 18.5201 34.62C18.571 34.4919 18.6382 34.3709 18.7201 34.26C18.8401 34.14 18.7701 34.06 18.5801 34.1C18.4801 34.12 18.4401 34.16 18.4301 34.25C18.3853 34.4953 18.3008 34.7318 18.1801 34.95C18.0101 35.2 18.0101 35.21 18.0801 35.21C18.1101 35.21 18.2001 35.13 18.2801 35.04ZM15.7801 33.47C15.5901 33.47 15.5801 33.59 15.7601 33.65C15.8601 33.68 15.9301 33.75 15.9901 33.88C16.1601 34.23 16.2701 34.3 16.7401 34.34L17.0401 34.36L17.0601 34.55C17.0601 34.65 17.0901 34.73 17.1101 34.73L17.3701 34.63C17.5901 34.51 17.8001 34.25 17.8001 34.08C17.8001 33.98 17.6201 33.86 17.4601 33.86C17.3901 33.86 17.2601 33.92 17.1501 34C16.8101 34.24 16.4501 34.2 16.2501 33.88C16.1001 33.62 15.9301 33.48 15.7801 33.48V33.47ZM17.4101 34.12C17.5001 34.12 17.5101 34.19 17.4701 34.32C17.4639 34.3376 17.4525 34.3529 17.4372 34.3638C17.422 34.3746 17.4038 34.3804 17.3851 34.3804C17.3664 34.3804 17.3482 34.3746 17.3329 34.3638C17.3177 34.3529 17.3062 34.3376 17.3001 34.32C17.2601 34.22 17.3101 34.12 17.4001 34.12H17.4101ZM30.0601 33.72C29.9301 33.72 29.9001 33.74 29.8201 33.86C29.6901 34.05 29.6801 34.46 29.8001 34.6C29.8701 34.69 29.8801 34.69 30.0301 34.62C30.2501 34.53 30.2901 34.54 30.2801 34.65C30.2801 34.95 29.8601 35.52 29.4201 35.82C29.3298 35.8733 29.2487 35.9408 29.1801 36.02C29.1501 36.1 29.3101 36.09 29.5101 35.98C29.8412 35.7901 30.1144 35.5135 30.3001 35.18C30.4101 34.95 30.4301 34.88 30.4501 34.48C30.4501 34.1 30.4501 33.98 30.3901 33.86C30.3101 33.72 30.2901 33.71 30.1101 33.71H30.0601V33.72ZM30.0701 33.97C30.1701 33.97 30.1701 33.99 30.1901 34.13C30.1901 34.23 30.1801 34.3 30.1201 34.36C30.0401 34.43 30.0201 34.43 29.9601 34.32C29.8601 34.16 29.9201 33.97 30.0701 33.97ZM28.0501 36.82C28.4401 36.62 28.6701 36.41 28.8101 36.1C28.862 36.0005 28.9055 35.8968 28.9401 35.79C28.9401 35.73 28.7501 35.64 28.6401 35.64C28.5301 35.64 28.5001 35.56 28.5401 35.34C28.5901 35.13 28.5401 34.86 28.4401 34.86C28.4101 34.86 28.3401 34.91 28.3101 34.97C28.2501 35.07 28.2401 35.11 28.2901 35.24C28.3601 35.44 28.3001 35.6 28.1201 35.73C28.0301 35.79 27.9901 35.86 27.9901 35.93L28.0001 36.03L28.2101 35.93L28.4101 35.81L28.5201 35.91C28.5901 35.95 28.6401 36.03 28.6401 36.08C28.6401 36.32 27.9601 36.72 27.5001 36.76C27.2501 36.78 27.2001 36.76 27.1201 36.68C27.0501 36.61 27.0301 36.55 27.0501 36.48L27.1001 36.22C27.1401 36.01 27.0601 36.04 26.9001 36.28C26.7801 36.48 26.7401 36.69 26.8101 36.8C26.8701 36.9 27.2501 36.98 27.5301 36.96C27.7001 36.96 27.8701 36.91 28.0501 36.82ZM30.6501 35.37C30.8901 35.12 31.0001 34.82 31.0001 34.37V34.02L31.2001 33.92C31.4701 33.8 31.7201 33.55 31.7201 33.41C31.7201 33.27 31.6501 33.27 31.5401 33.43C31.4501 33.54 31.3401 33.61 30.9401 33.8C30.8401 33.84 30.8301 33.87 30.8001 34.3C30.7801 34.8 30.7001 34.98 30.4301 35.32C30.2601 35.52 30.2501 35.56 30.3701 35.56C30.4201 35.56 30.5501 35.47 30.6501 35.36V35.37ZM27.9801 35.09C28.0001 35.02 27.8601 34.97 27.8101 35.03C27.7801 35.05 27.7701 35.09 27.7901 35.12C27.8301 35.18 27.9501 35.16 27.9801 35.09ZM31.6601 34.14C31.6901 34.06 31.5501 34.01 31.4901 34.07C31.4701 34.1 31.4601 34.14 31.4801 34.17C31.5201 34.23 31.6401 34.21 31.6601 34.14ZM27.2301 31.55C27.1301 31.6 27.0801 31.7 27.0201 31.78C26.9701 31.81 27.0101 31.84 27.0301 31.88C27.2001 32.05 27.2701 32.3 27.3501 32.53C27.4301 32.8 27.5301 33.09 27.4501 33.37C27.4201 33.47 27.3301 33.58 27.2101 33.55C27.0101 33.54 26.8101 33.48 26.6101 33.48C26.4201 33.49 26.2801 33.66 26.1001 33.64C25.9801 33.64 25.9801 33.4 25.8801 33.47C25.8201 33.6 25.8501 33.74 25.8401 33.87C25.8601 33.9 25.9201 33.88 25.9501 33.89H26.3201C26.3401 34.01 26.3401 34.16 26.4201 34.26C26.5501 34.3 26.7001 34.26 26.8201 34.21C26.9401 34.15 26.9601 34 27.0001 33.88C27.0401 33.75 27.2001 33.78 27.3001 33.73C27.4204 33.6925 27.5249 33.6163 27.5972 33.5132C27.6696 33.41 27.7058 33.2858 27.7001 33.16C27.6801 32.77 27.5401 32.42 27.4201 32.06C27.3701 31.9 27.3301 31.73 27.2701 31.57L27.2301 31.55ZM26.6301 33.73C26.7601 33.73 26.8201 33.89 26.7901 34C26.7401 34.15 26.5501 34.06 26.5201 33.95C26.4501 33.85 26.4901 33.72 26.6201 33.73H26.6301Z" fill="#F7E017"/>
<path d="M21.6 32.48C21.54 32.48 21.47 32.5 21.4 32.55C21.05 32.8 20.95 33.09 21.2 33.21C21.37 33.29 21.33 33.39 21.05 33.53C20.65 33.73 20.3 33.7 19.63 33.43C19.47 33.36 19.43 33.39 19.46 33.53C19.5 33.68 19.64 33.76 19.97 33.83C20.33 33.93 20.77 33.9 21.05 33.78C21.2143 33.6961 21.3605 33.5805 21.48 33.44L21.7 33.21L21.95 33.24C22.26 33.28 22.27 33.28 22.27 33.43C22.27 33.55 22.27 33.55 22.56 33.58L23.03 33.6C23.16 33.6 23.23 33.63 23.27 33.69C23.33 33.76 23.36 33.77 23.83 33.73C24.27 33.69 24.35 33.69 24.55 33.76C24.69 33.8 24.85 33.82 24.96 33.81C25.3 33.77 25.76 33.5 25.83 33.3C25.83 33.27 25.96 33.23 26.1 33.2C26.44 33.13 26.45 33.06 26.14 33.02C25.9833 32.9993 25.8291 32.9624 25.68 32.91C25.5685 32.8628 25.4505 32.8324 25.33 32.82C25.16 32.82 25 32.92 25 33.04C25 33.11 25.02 33.12 25.23 33.1C25.41 33.08 25.47 33.09 25.57 33.17C25.64 33.22 25.68 33.28 25.67 33.3C25.62 33.38 25.22 33.56 25.05 33.59C24.9472 33.607 24.8417 33.5894 24.75 33.54C24.59 33.46 24.37 33.45 24.32 33.52C24.3 33.55 24.26 33.53 24.19 33.47L24.09 33.37L23.85 33.47C23.61 33.57 23.52 33.57 23.52 33.45C23.52 33.4 23.45 33.39 23.1 33.42C22.71 33.44 22.67 33.43 22.6 33.35C22.53 33.28 22.53 33.25 22.58 33.18C22.62 33.1 22.62 33.08 22.58 33.03C22.54 32.99 22.48 32.99 22.33 33.03C21.94 33.13 21.83 33.08 21.83 32.78C21.83 32.59 21.73 32.48 21.6 32.48ZM21.5 32.76C21.52 32.76 21.54 32.77 21.57 32.8C21.6 32.83 21.62 32.9 21.6 32.93C21.57 33.02 21.4 33.02 21.37 32.93C21.35 32.88 21.37 32.83 21.42 32.8L21.5 32.76Z" fill="#F7E017"/>
<path d="M20.8001 33.04C21.0401 32.89 21.0401 32.9 21.0701 32.49C21.0901 32.19 21.0901 32.17 21.0101 32.17C20.8901 32.17 20.8301 32.3 20.8301 32.54C20.8301 32.7 20.8101 32.77 20.7301 32.84C20.5301 33.04 20.0501 32.95 19.9801 32.71C19.9601 32.63 19.9901 32.55 20.0901 32.41C20.3001 32.11 20.2601 32.03 19.9901 32.26C19.8201 32.42 19.7901 32.42 19.8201 32.29C19.8501 32.16 19.7901 32.11 19.6401 32.15C19.5701 32.17 19.5201 32.21 19.5101 32.31C19.4901 32.39 19.4501 32.44 19.3801 32.46C19.2601 32.49 19.0601 32.38 19.0601 32.28C19.0601 32.21 19.3601 31.84 19.7501 31.44C19.8901 31.29 20.0101 31.14 20.0101 31.13C20.0101 31.11 19.9301 31.09 19.8401 31.09C19.7001 31.09 19.6601 31.11 19.6601 31.17C19.6601 31.21 19.4701 31.47 19.2301 31.74C18.7301 32.3 18.6901 32.41 18.9301 32.56C19.03 32.6216 19.1458 32.6525 19.2631 32.6489C19.3804 32.6454 19.4941 32.6075 19.5901 32.54L19.7501 32.43V32.63C19.7501 32.88 19.8001 32.98 20.0001 33.08C20.1252 33.1442 20.265 33.1743 20.4055 33.1673C20.5459 33.1603 20.682 33.1164 20.8001 33.04ZM31.2401 29.58C31.0601 29.69 31.2001 29.92 31.2401 30.08C31.1601 30.28 30.8901 30.34 30.6901 30.38C30.4101 30.43 30.2101 30.66 30.1101 30.91C30.0501 31.07 29.9101 31.31 29.7601 31.07C29.6301 30.94 29.3901 30.83 29.2401 30.99C29.1201 31.1 29.0901 31.26 29.0401 31.41C28.9701 31.3 28.9401 31.13 28.8001 31.09C28.5601 31.12 28.6501 31.42 28.7601 31.54C28.8601 31.69 28.9601 31.87 28.8601 32.04C28.7601 32.24 28.4601 32.38 28.2901 32.21C28.1301 32.12 28.2401 31.81 28.0701 31.79C27.9901 31.85 27.9901 32.18 27.8601 32C27.7601 31.85 27.8201 31.64 27.7001 31.51C27.5701 31.53 27.4601 31.76 27.5001 31.88C27.6801 32.12 27.7601 32.42 27.8301 32.71C27.8701 32.83 27.8201 33.06 27.9301 33.11C28.0001 32.92 27.9301 32.71 27.9901 32.52C28.1701 32.5 28.3601 32.58 28.5401 32.54C28.8101 32.51 29.0101 32.28 29.1001 32.05C29.1301 31.87 29.1001 31.69 29.0901 31.51C29.2901 31.55 29.5101 31.55 29.7101 31.61C29.8101 31.76 29.6801 31.98 29.6501 32.14C29.5501 32.48 29.2801 32.72 29.0301 32.94C28.9201 33.01 28.9101 33.18 29.0601 33.09C29.4021 32.9275 29.67 32.6418 29.8101 32.29C29.9201 32.03 29.8301 31.74 29.9101 31.48C30.0101 31.28 30.2601 31.32 30.4501 31.32C30.6401 31.32 30.8001 31.09 30.7401 30.9C30.6801 30.68 30.9101 30.58 31.0601 30.5C31.2701 30.4 31.4301 30.19 31.4101 29.95C31.4101 29.82 31.4101 29.59 31.2401 29.58ZM30.5101 30.83C30.7301 30.89 30.4701 31.31 30.3501 31.04C30.3101 30.94 30.4001 30.83 30.5101 30.83ZM29.4801 31.13C29.7701 31.12 29.6601 31.53 29.4201 31.35C29.2901 31.28 29.3301 31.13 29.4801 31.13ZM19.0001 32.76C19.0001 32.72 18.9801 32.69 18.9401 32.69C18.8701 32.69 18.8201 32.76 18.8501 32.82C18.8901 32.89 18.9801 32.85 19.0001 32.76ZM22.4001 32.4C22.4001 32.33 22.3701 32.31 22.3201 32.32C22.2101 32.34 22.1901 32.49 22.3101 32.49C22.3701 32.49 22.4001 32.46 22.4001 32.39V32.4ZM18.2001 30.36C18.0701 30.33 17.9801 30.45 17.9301 30.56C17.8301 30.73 17.7101 30.9 17.5301 30.99C17.4001 31.03 17.2601 30.98 17.1401 30.91C17.0101 30.84 17.0401 30.68 16.9801 30.57C16.8801 30.49 16.7101 30.6 16.7201 30.72C16.7101 30.88 16.8501 30.97 16.9801 31.03C17.0801 31.1 17.2401 31.13 17.2801 31.26C17.2801 31.37 17.3201 31.5 17.4501 31.46C17.6001 31.46 17.6501 31.64 17.5801 31.75C17.5133 31.8719 17.4887 32.0126 17.5101 32.15C17.5801 32.22 17.6501 32.05 17.7101 32.01L17.8101 31.87C18.0801 31.88 18.3401 31.92 18.6101 31.91C18.8101 31.91 18.9601 31.79 19.0801 31.65C19.2601 31.47 19.4001 31.26 19.5901 31.11C19.7301 31.07 19.6601 30.81 19.5101 30.89C19.3801 30.94 19.3401 31.09 19.2501 31.18C19.1042 31.3722 18.9364 31.5467 18.7501 31.7C18.6001 31.76 18.4401 31.73 18.2901 31.7C18.2301 31.65 18.4101 31.6 18.4401 31.54C18.5201 31.46 18.6201 31.38 18.6701 31.27C18.6201 31.17 18.4801 31.17 18.3801 31.17C18.1401 31.19 17.9501 31.4 17.7001 31.42C17.5101 31.42 17.6101 31.22 17.7001 31.15C17.8601 30.95 18.0401 30.77 18.2101 30.58C18.2601 30.52 18.4401 30.46 18.3301 30.38C18.2901 30.36 18.2401 30.36 18.2001 30.36ZM18.3201 31.36C18.4501 31.43 18.2401 31.54 18.1601 31.53C18.0501 31.56 18.0401 31.45 18.1401 31.43C18.2001 31.39 18.2601 31.36 18.3201 31.36ZM17.9401 31.62C18.0101 31.62 18.1601 31.69 18.0201 31.73C17.9201 31.81 17.8201 31.65 17.9401 31.62Z" fill="#F7E017"/>
<path d="M20.9401 31.78C20.9401 31.68 20.7801 31.7 20.7601 31.8C20.7401 31.86 20.7601 31.87 20.8401 31.86C20.9001 31.86 20.9401 31.82 20.9401 31.78ZM28.4101 31.12C28.4301 31.03 28.3101 30.97 28.2401 31.04C28.1701 31.1 28.2401 31.23 28.3201 31.21C28.3601 31.21 28.4001 31.16 28.4201 31.12H28.4101ZM16.8001 30.21C16.9101 30.11 16.9201 30.1 16.8701 29.88C16.7901 29.57 16.8001 29.53 16.9201 29.5C17.0701 29.47 17.4501 29.67 17.5201 29.83C17.6001 29.96 17.5901 29.97 17.4801 30.07C17.3601 30.18 17.3601 30.31 17.4801 30.31C17.5801 30.31 17.8501 30.05 17.8501 29.96C17.8501 29.83 17.5501 29.52 17.3101 29.41C17.166 29.3429 17.0089 29.3088 16.8501 29.31C16.5401 29.31 16.5001 29.38 16.5801 29.73C16.6801 30.15 16.5501 30.21 16.2101 29.89C16.0891 29.7836 15.9945 29.6505 15.9338 29.5012C15.873 29.352 15.8478 29.1907 15.8601 29.03C15.8601 28.63 16.0201 28.42 16.3701 28.37C16.6101 28.34 16.6001 28.28 16.3701 28.25C16.0101 28.19 15.7101 28.43 15.6001 28.85C15.4701 29.32 15.7601 29.89 16.2701 30.18C16.5401 30.33 16.6401 30.34 16.8001 30.21ZM30.7201 29.69C30.7501 29.67 30.7701 29.6 30.7701 29.55C30.7701 29.5 30.8201 29.39 30.8801 29.31C30.9401 29.23 30.9801 29.15 30.9801 29.13C30.9801 29.05 30.8501 29.05 30.7501 29.13C30.6401 29.22 30.5501 29.23 30.5501 29.13L30.6701 29.04C30.8301 28.97 30.8401 28.89 30.7101 28.83C30.5401 28.75 30.3601 28.89 30.3501 29.13C30.3401 29.29 30.3501 29.31 30.4701 29.38C30.5801 29.45 30.6001 29.48 30.5801 29.58C30.5501 29.74 30.6201 29.8 30.7201 29.69ZM32.0201 29.55C32.1201 29.45 32.2001 29.36 32.2001 29.33C32.2001 29.3 32.2901 29.21 32.3901 29.13C32.6701 28.93 32.7401 28.73 32.6101 28.4C32.5601 28.27 32.4101 28.1 32.0601 27.8C31.9006 27.6298 31.719 27.4818 31.5201 27.36C31.4301 27.36 31.4501 27.7 31.5401 27.73C31.7101 27.79 31.8201 27.86 32.0801 28.1C32.4001 28.38 32.5401 28.65 32.4601 28.8C32.3901 28.94 32.2901 28.9 32.0101 28.6C31.9193 28.4871 31.8113 28.3893 31.6901 28.31C31.6601 28.31 31.6401 28.37 31.6401 28.45C31.6401 28.55 31.6901 28.65 31.8401 28.8C32.0701 29.06 32.0901 29.21 31.9101 29.35C31.8695 29.3912 31.8222 29.425 31.7701 29.45C31.5414 29.0587 31.2352 28.7184 30.8701 28.45C30.8401 28.45 30.8201 28.49 30.8201 28.59C30.8201 28.72 30.8401 28.76 30.9401 28.81C31.2029 29.0118 31.4382 29.2471 31.6401 29.51L31.8201 29.71C31.8947 29.6634 31.9621 29.6061 32.0201 29.54V29.55ZM32.6201 27.87C32.5701 27.75 31.7801 26.93 31.6901 26.93C31.6501 26.93 31.6401 26.98 31.6501 27.11C31.6501 27.27 31.6801 27.29 31.7901 27.32C31.9608 27.4199 32.1159 27.5446 32.2501 27.69C32.3587 27.8069 32.4833 27.9079 32.6201 27.99V27.87ZM27.8401 37.13C27.8454 37.1449 27.8465 37.1607 27.8432 37.176C27.84 37.1913 27.8324 37.2058 27.8213 37.2183C27.8101 37.2308 27.7956 37.241 27.7789 37.2479C27.7622 37.2549 27.7437 37.2586 27.7251 37.2586C27.7064 37.2586 27.6879 37.2549 27.6712 37.2479C27.6545 37.241 27.64 37.2308 27.6288 37.2183C27.6177 37.2058 27.6102 37.1913 27.6069 37.176C27.6036 37.1607 27.6047 37.1449 27.6101 37.13C27.6047 37.1151 27.6036 37.0993 27.6069 37.084C27.6102 37.0686 27.6177 37.0542 27.6288 37.0417C27.64 37.0292 27.6545 37.019 27.6712 37.0121C27.6879 37.0051 27.7064 37.0014 27.7251 37.0014C27.7437 37.0014 27.7622 37.0051 27.7789 37.0121C27.7956 37.019 27.8101 37.0292 27.8213 37.0417C27.8324 37.0542 27.84 37.0686 27.8432 37.084C27.8465 37.0993 27.8454 37.1151 27.8401 37.13ZM28.2601 36.99C28.2601 37.0031 28.257 37.0161 28.2509 37.0283C28.2449 37.0404 28.2361 37.0514 28.2249 37.0607C28.2138 37.07 28.2005 37.0774 28.186 37.0824C28.1714 37.0874 28.1558 37.09 28.1401 37.09C28.1243 37.09 28.1087 37.0874 28.0941 37.0824C28.0796 37.0774 28.0663 37.07 28.0552 37.0607C28.0441 37.0514 28.0352 37.0404 28.0292 37.0283C28.0232 37.0161 28.0201 37.0031 28.0201 36.99C28.0201 36.9769 28.0232 36.9639 28.0292 36.9517C28.0352 36.9396 28.0441 36.9286 28.0552 36.9193C28.0663 36.91 28.0796 36.9026 28.0941 36.8976C28.1087 36.8926 28.1243 36.89 28.1401 36.89C28.1558 36.89 28.1714 36.8926 28.186 36.8976C28.2005 36.9026 28.2138 36.91 28.2249 36.9193C28.2361 36.9286 28.2449 36.9396 28.2509 36.9517C28.257 36.9639 28.2601 36.9769 28.2601 36.99Z" fill="#F7E017"/>
</g>
</g>
</g>
<defs>
<clipPath id="clip0_152_6569">
<rect width="48" height="48" fill="white"/>
</clipPath>
<clipPath id="clip1_152_6569">
<rect width="64" height="48" fill="white" transform="translate(-8)"/>
</clipPath>
</defs>
</svg>
