<svg width="48" height="48" viewBox="0 0 48 48" fill="none" xmlns="http://www.w3.org/2000/svg">
<g clip-path="url(#clip0_152_51425)">
<mask id="mask0_152_51425" style="mask-type:alpha" maskUnits="userSpaceOnUse" x="0" y="0" width="48" height="48">
<circle cx="24" cy="24" r="24" fill="#D9D9D9"/>
</mask>
<g mask="url(#mask0_152_51425)">
<g clip-path="url(#clip1_152_51425)">
<path d="M-8 0H56V16H-8V0Z" fill="#FF9933"/>
<path d="M-8 16H56V32H-8V16Z" fill="white"/>
<path d="M-8 32H56V48H-8V32Z" fill="#128807"/>
<path d="M24.0001 30.4C27.5347 30.4 30.4001 27.5347 30.4001 24C30.4001 20.4654 27.5347 17.6 24.0001 17.6C20.4655 17.6 17.6001 20.4654 17.6001 24C17.6001 27.5347 20.4655 30.4 24.0001 30.4Z" fill="#000088"/>
<path d="M24 29.6C27.0928 29.6 29.6 27.0928 29.6 24C29.6 20.9072 27.0928 18.4 24 18.4C20.9072 18.4 18.4 20.9072 18.4 24C18.4 27.0928 20.9072 29.6 24 29.6Z" fill="white"/>
<path d="M24 25.12C24.6186 25.12 25.12 24.6186 25.12 24C25.12 23.3814 24.6186 22.88 24 22.88C23.3814 22.88 22.88 23.3814 22.88 24C22.88 24.6186 23.3814 25.12 24 25.12Z" fill="#000088"/>
<path d="M29.5359 25.0239C29.695 25.0239 29.8239 24.895 29.8239 24.7359C29.8239 24.5769 29.695 24.4479 29.5359 24.4479C29.3769 24.4479 29.2479 24.5769 29.2479 24.7359C29.2479 24.895 29.3769 25.0239 29.5359 25.0239Z" fill="#000088"/>
<path d="M24 29.6L24.192 26.24L24 24.64L23.808 26.24L24 29.6Z" fill="#000088"/>
<path d="M28.3779 27.6908C28.5315 27.732 28.6894 27.6408 28.7306 27.4871C28.7718 27.3335 28.6806 27.1756 28.527 27.1344C28.3733 27.0932 28.2154 27.1844 28.1742 27.3381C28.1331 27.4917 28.2242 27.6496 28.3779 27.6908Z" fill="#000088"/>
<path d="M21.2093 28.851L23.0576 26.0333L23.688 24.5458L22.7115 25.8412L21.2093 28.851Z" fill="#000088"/>
<path d="M25.996 29.4387C26.1337 29.5182 26.3098 29.471 26.3894 29.3333C26.4689 29.1955 26.4217 29.0194 26.284 28.9398C26.1462 28.8603 25.9701 28.9075 25.8905 29.0453C25.811 29.183 25.8582 29.3591 25.996 29.4387Z" fill="#000088"/>
<path d="M19.1292 26.8043L22.1445 25.2936L23.4348 24.3388L21.9634 24.9673L19.1292 26.8043Z" fill="#000088"/>
<path d="M23.0496 29.7474C23.1621 29.8598 23.3445 29.8598 23.4569 29.7474C23.5694 29.6349 23.5694 29.4525 23.4569 29.3401C23.3445 29.2276 23.1621 29.2276 23.0496 29.3401C22.9372 29.4525 22.9372 29.6349 23.0496 29.7474Z" fill="#000088"/>
<path d="M18.3884 24L21.7373 24.181L23.3438 23.9774L21.7373 23.7737L18.3884 24Z" fill="#000088"/>
<path d="M20.3332 28.5927C20.4127 28.7305 20.5888 28.7777 20.7266 28.6981C20.8643 28.6186 20.9115 28.4425 20.832 28.3047C20.7525 28.167 20.5763 28.1198 20.4386 28.1993C20.3008 28.2788 20.2536 28.455 20.3332 28.5927Z" fill="#000088"/>
<path d="M19.1293 21.1956L21.9635 23.0326L23.4349 23.6611L22.1446 22.7064L19.1293 21.1956Z" fill="#000088"/>
<path d="M18.5339 26.2266C18.5751 26.3802 18.733 26.4714 18.8866 26.4302C19.0403 26.3891 19.1315 26.2311 19.0903 26.0775C19.0491 25.9239 18.8912 25.8327 18.7376 25.8739C18.5839 25.915 18.4927 26.0729 18.5339 26.2266Z" fill="#000088"/>
<path d="M21.2093 19.149L22.7115 22.1587L23.688 23.4541L23.0575 21.9666L21.2093 19.149Z" fill="#000088"/>
<path d="M18.1761 23.264C18.1761 23.423 18.305 23.552 18.4641 23.552C18.6231 23.552 18.7521 23.423 18.7521 23.264C18.7521 23.1049 18.6231 22.976 18.4641 22.976C18.305 22.976 18.1761 23.1049 18.1761 23.264Z" fill="#000088"/>
<path d="M24 18.4L23.808 21.76L24 23.36L24.192 21.76L24 18.4Z" fill="#000088"/>
<path d="M19.2694 20.5128C19.2282 20.6664 19.3194 20.8243 19.473 20.8655C19.6266 20.9067 19.7846 20.8155 19.8257 20.6619C19.8669 20.5082 19.7757 20.3503 19.6221 20.3091C19.4684 20.268 19.3105 20.3591 19.2694 20.5128Z" fill="#000088"/>
<path d="M26.7906 19.1489L24.9424 21.9666L24.3119 23.4541L25.2885 22.1587L26.7906 19.1489Z" fill="#000088"/>
<path d="M21.6105 18.6667C21.5309 18.8045 21.5781 18.9806 21.7159 19.0602C21.8536 19.1397 22.0298 19.0925 22.1093 18.9547C22.1888 18.817 22.1416 18.6409 22.0039 18.5613C21.8661 18.4818 21.69 18.529 21.6105 18.6667Z" fill="#000088"/>
<path d="M28.8707 21.1957L25.8554 22.7064L24.5651 23.6612L26.0365 23.0327L28.8707 21.1957Z" fill="#000088"/>
<path d="M24.5431 18.2527C24.4306 18.3651 24.4306 18.5475 24.5431 18.6599C24.6556 18.7724 24.8379 18.7724 24.9504 18.6599C25.0629 18.5475 25.0629 18.3651 24.9504 18.2527C24.8379 18.1402 24.6556 18.1402 24.5431 18.2527Z" fill="#000088"/>
<path d="M29.6116 24L26.2627 23.819L24.6562 24.0226L26.2627 24.2263L29.6116 24Z" fill="#000088"/>
<path d="M27.2736 19.3018C27.1359 19.3814 27.0887 19.5575 27.1682 19.6953C27.2477 19.833 27.4239 19.8802 27.5616 19.8007C27.6994 19.7211 27.7466 19.545 27.667 19.4073C27.5875 19.2695 27.4114 19.2223 27.2736 19.3018Z" fill="#000088"/>
<path d="M28.8708 26.8044L26.0366 24.9674L24.5653 24.3389L25.8555 25.2937L28.8708 26.8044Z" fill="#000088"/>
<path d="M29.1134 21.5698C28.9597 21.611 28.8686 21.7689 28.9097 21.9225C28.9509 22.0762 29.1088 22.1673 29.2625 22.1262C29.4161 22.085 29.5073 21.9271 29.4661 21.7734C29.4249 21.6198 29.267 21.5286 29.1134 21.5698Z" fill="#000088"/>
<path d="M26.7908 28.851L25.2886 25.8412L24.3121 24.5459L24.9425 26.0334L26.7908 28.851Z" fill="#000088"/>
<path d="M29.5361 24.448C29.377 24.448 29.2481 24.577 29.2481 24.736C29.2481 24.8951 29.377 25.024 29.5361 25.024C29.6952 25.024 29.8241 24.8951 29.8241 24.736C29.8241 24.577 29.6952 24.448 29.5361 24.448Z" fill="#000088"/>
<path d="M24.0001 29.6L24.1921 26.24L24.0001 24.64L23.8081 26.24L24.0001 29.6Z" fill="#000088"/>
<path d="M28.5271 27.1345C28.3735 27.0934 28.2156 27.1845 28.1744 27.3382C28.1332 27.4918 28.2244 27.6497 28.3781 27.6909C28.5317 27.7321 28.6896 27.6409 28.7308 27.4873C28.772 27.3336 28.6808 27.1757 28.5271 27.1345Z" fill="#000088"/>
<path d="M21.2095 28.8511L23.0578 26.0334L23.6883 24.5459L22.7117 25.8413L21.2095 28.8511Z" fill="#000088"/>
<path d="M26.2842 28.9399C26.1464 28.8603 25.9703 28.9075 25.8908 29.0453C25.8112 29.183 25.8584 29.3592 25.9962 29.4387C26.1339 29.5182 26.3101 29.471 26.3896 29.3333C26.4691 29.1955 26.4219 29.0194 26.2842 28.9399Z" fill="#000088"/>
<path d="M19.1293 26.8044L22.1446 25.2936L23.4509 24.3111L21.9795 24.9397L19.1293 26.8044Z" fill="#000088"/>
<path d="M23.4569 29.3401C23.3445 29.2276 23.1621 29.2276 23.0496 29.3401C22.9372 29.4526 22.9372 29.6349 23.0496 29.7474C23.1621 29.8599 23.3445 29.8599 23.4569 29.7474C23.5694 29.6349 23.5694 29.4526 23.4569 29.3401Z" fill="#000088"/>
<path d="M18.3883 24L21.7372 24.1811L23.3438 23.9774L21.7372 23.7738L18.3883 24Z" fill="#000088"/>
<path d="M20.832 28.3048C20.7525 28.1671 20.5763 28.1199 20.4386 28.1994C20.3008 28.2789 20.2536 28.4551 20.3332 28.5928C20.4127 28.7306 20.5888 28.7778 20.7266 28.6982C20.8643 28.6187 20.9115 28.4426 20.832 28.3048Z" fill="#000088"/>
<path d="M19.1293 21.1957L21.9635 23.0327L23.4349 23.6612L22.1447 22.7065L19.1293 21.1957Z" fill="#000088"/>
<path d="M19.0905 26.0775C19.0493 25.9239 18.8914 25.8327 18.7377 25.8738C18.5841 25.915 18.4929 26.0729 18.5341 26.2266C18.5753 26.3802 18.7332 26.4714 18.8868 26.4302C19.0405 26.3891 19.1316 26.2311 19.0905 26.0775Z" fill="#000088"/>
<path d="M21.2095 19.149L22.7116 22.1587L23.6882 23.4541L23.0577 21.9666L21.2095 19.149Z" fill="#000088"/>
<path d="M18.752 23.2641C18.752 23.105 18.6231 22.9761 18.464 22.9761C18.305 22.9761 18.176 23.105 18.176 23.2641C18.176 23.4231 18.305 23.5521 18.464 23.5521C18.6231 23.5521 18.752 23.4231 18.752 23.2641Z" fill="#000088"/>
<path d="M24 18.4L23.808 21.76L24 23.36L24.192 21.76L24 18.4Z" fill="#000088"/>
<path d="M19.8257 20.6619C19.8669 20.5083 19.7757 20.3503 19.6221 20.3092C19.4685 20.268 19.3105 20.3592 19.2694 20.5128C19.2282 20.6665 19.3194 20.8244 19.473 20.8656C19.6266 20.9067 19.7846 20.8155 19.8257 20.6619Z" fill="#000088"/>
<path d="M26.7906 19.149L24.9424 21.9667L24.3119 23.4542L25.2884 22.1588L26.7906 19.149Z" fill="#000088"/>
<path d="M22.1093 18.9547C22.1888 18.817 22.1416 18.6408 22.0038 18.5613C21.8661 18.4818 21.69 18.529 21.6104 18.6667C21.5309 18.8045 21.5781 18.9806 21.7158 19.0601C21.8536 19.1397 22.0297 19.0925 22.1093 18.9547Z" fill="#000088"/>
<path d="M28.8707 21.1957L25.8553 22.7064L24.5491 23.6889L26.0205 23.0604L28.8707 21.1957Z" fill="#000088"/>
<path d="M24.9503 18.66C25.0628 18.5475 25.0628 18.3652 24.9503 18.2527C24.8378 18.1402 24.6555 18.1402 24.543 18.2527C24.4305 18.3652 24.4305 18.5475 24.543 18.66C24.6555 18.7725 24.8378 18.7725 24.9503 18.66Z" fill="#000088"/>
<path d="M29.6115 24.0001L26.2627 23.8191L24.6561 24.0227L26.2627 24.2264L29.6115 24.0001Z" fill="#000088"/>
<path d="M27.5613 19.8006C27.6991 19.7211 27.7463 19.545 27.6668 19.4072C27.5872 19.2695 27.4111 19.2223 27.2733 19.3018C27.1356 19.3813 27.0884 19.5575 27.1679 19.6952C27.2475 19.833 27.4236 19.8802 27.5613 19.8006Z" fill="#000088"/>
<path d="M28.8707 26.8043L26.0364 24.9673L24.5651 24.3388L25.8553 25.2936L28.8707 26.8043Z" fill="#000088"/>
<path d="M29.2622 22.1262C29.4159 22.085 29.507 21.9271 29.4659 21.7735C29.4247 21.6198 29.2668 21.5286 29.1131 21.5698C28.9595 21.611 28.8683 21.7689 28.9095 21.9225C28.9507 22.0762 29.1086 22.1673 29.2622 22.1262Z" fill="#000088"/>
<path d="M26.7905 28.8511L25.2883 25.8413L24.3118 24.5459L24.9422 26.0334L26.7905 28.8511Z" fill="#000088"/>
</g>
</g>
</g>
<defs>
<clipPath id="clip0_152_51425">
<rect width="48" height="48" fill="white"/>
</clipPath>
<clipPath id="clip1_152_51425">
<rect width="64" height="48" fill="white" transform="translate(-8)"/>
</clipPath>
</defs>
</svg>
