<svg width="48" height="48" viewBox="0 0 48 48" fill="none" xmlns="http://www.w3.org/2000/svg">
<g clip-path="url(#clip0_152_6581)">
<mask id="mask0_152_6581" style="mask-type:alpha" maskUnits="userSpaceOnUse" x="0" y="0" width="48" height="48">
<circle cx="24" cy="24" r="24" fill="#D9D9D9"/>
</mask>
<g mask="url(#mask0_152_6581)">
<g clip-path="url(#clip1_152_6581)">
<path d="M-8 0H56V48H-8V0Z" fill="#CF142B"/>
<path d="M47.97 13.06V29.22C47.97 33.53 39.35 34.94 39.35 34.94C39.35 34.94 30.71 33.54 30.71 29.2V13.06H47.96H47.97Z" fill="white"/>
<path d="M47.97 29.22C47.97 33.53 39.35 34.94 39.35 34.94C39.35 34.94 30.71 33.54 30.71 29.2C30.71 29.2 30.71 28.85 30.89 28.66C30.89 28.66 30.79 29.37 31.34 29.92C31.34 29.92 30.91 29.14 31.34 28.39C31.34 28.39 31.17 29.37 31.78 29.92C31.78 29.92 31.45 29.13 31.82 28.25C31.82 28.25 31.64 29.68 32.29 29.98C32.29 29.98 32.47 29.14 32.21 28.62C32.21 28.62 32.66 28.8 32.64 30C32.64 30 32.78 29.82 32.82 28.95C32.82 28.95 32.84 29.95 33.17 30.18C33.17 30.18 33.29 30.08 33.14 29.63C32.98 29.19 33.2 29.03 33.24 29.03C33.24 29.03 33.16 29.53 33.58 29.91C33.58 29.91 33.4 29.12 33.65 29.01C33.65 29.01 33.59 29.68 34.13 29.82C34.13 29.82 34.16 29.63 34.05 29.42C34.05 29.42 33.95 29.17 34.02 28.97C34.02 28.97 34.19 29.57 34.42 29.67C34.42 29.67 34.28 29.31 34.42 28.97C34.42 28.97 34.44 29.47 34.89 29.68C34.89 29.68 34.59 29.28 34.7 28.86L37.57 29L39.07 29.07L43.54 28.77L44.3 28.1C44.3 28.1 44.61 28.51 44.12 29.18C44.12 29.18 44.6 29.1 44.75 28.35C44.75 28.35 44.95 28.76 44.68 29.23C44.68 29.23 45.21 28.69 45.28 28.1C45.28 28.1 45.49 28.68 44.99 29.3C44.99 29.3 45.43 29.14 45.62 28.49C45.62 28.49 45.78 28.89 45.35 29.44C45.35 29.44 46.16 29.03 46.14 28.14C46.14 28.14 46.47 28.62 46.09 29.3C46.09 29.3 46.49 28.93 46.54 28.37C46.54 28.37 46.77 28.62 46.52 29.31C46.52 29.31 47.02 28.83 47.1 28.32C47.1 28.32 47.2 28.8 46.78 29.4C46.78 29.4 47.07 29.32 47.35 28.74C47.35 28.74 47.42 28.98 47.17 29.4C47.17 29.4 47.45 29.35 47.63 28.81C47.63 28.81 47.66 29.13 47.58 29.41C47.58 29.41 47.79 29.28 47.84 28.68C47.84 28.83 47.88 28.99 47.96 29.12V29.2L47.97 29.22Z" fill="#2F8F22"/>
<path d="M43.5399 19.87C43.5399 19.87 43.2399 19.93 42.8399 19.81C42.4599 19.69 42.3099 19.74 42.1899 19.81C42.1899 19.81 42.3399 19.5 41.9599 19.25C41.9599 19.25 42.0799 19.57 41.9099 19.71C41.9099 19.71 41.8399 19.78 41.7499 19.68C41.7499 19.68 41.6199 19.53 41.4699 19.44C41.4699 19.44 41.7999 19.32 41.7399 18.99C41.6799 18.66 41.4999 18.63 41.4099 18.58C41.3899 18.66 41.3899 18.74 41.4099 18.82C41.4099 18.82 41.0599 18.62 41.5299 18.35C42.0099 18.08 41.9299 17.91 41.8399 17.77C41.7499 17.63 41.6299 17.51 41.4899 17.41C41.4899 17.41 41.5899 17.57 41.5599 17.7C41.5499 17.82 41.3199 17.9 41.3599 17.69C41.4099 17.45 41.3599 17.49 41.3599 17.26C41.3599 17.26 41.7799 17.4 41.9599 16.98C41.9599 16.98 42.1199 16.55 41.5799 16.34C41.5799 16.34 41.7099 16.52 41.6499 16.64C41.6499 16.64 41.5299 16.86 41.3999 16.7C41.2699 16.53 41.1799 16.48 41.1899 16.28C41.1899 16.28 41.6799 16.35 41.5499 15.81C41.5499 15.81 41.4599 16.17 40.8299 15.69C40.8299 15.69 41.2499 15.27 41.0799 14.93C41.0799 14.93 41.0299 14.78 40.5899 14.86C40.5899 14.86 40.9699 14.62 40.8199 14.41C40.8199 14.41 40.7299 14.28 40.3599 14.45C40.3599 14.45 40.5099 14.22 40.1499 13.95C40.1499 13.95 39.9099 14.07 39.7899 14.19C39.7899 14.19 39.5499 13.89 39.3899 13.76C39.3899 13.76 39.1099 13.87 39.0399 14.19C39.0399 14.19 38.9099 14.04 38.6099 13.95C38.6099 13.95 38.4699 14.23 38.6599 14.45C38.6599 14.45 38.5199 14.45 38.2599 14.34C38.2599 14.34 37.9799 14.22 38.0299 14.45C38.0599 14.69 38.0899 14.75 38.1499 14.87C38.1499 14.87 37.4999 14.72 37.5299 15.07C37.5399 15.31 37.6499 15.53 37.8299 15.69C37.8299 15.69 37.4799 16.17 37.1699 15.81C37.1699 15.81 37.0499 15.93 37.2899 16.23C37.2899 16.23 37.5299 16.48 37.3199 16.65C37.3199 16.65 37.0699 16.85 36.9499 16.45C36.9499 16.45 36.5399 16.86 37.0299 17.17C37.0299 17.17 37.3299 17.35 37.6599 17.07C37.6599 17.07 37.5599 17.87 37.2599 17.71C37.2599 17.71 37.0699 17.59 37.3999 17.42C37.3999 17.42 36.9199 17.36 36.8499 17.82C36.8499 17.82 36.7899 18.17 37.1999 18.32C37.1999 18.32 37.5099 18.44 37.1999 18.68C37.1999 18.68 36.9499 18.85 37.1099 19.12C37.1099 19.12 37.2899 19.4 36.8199 19.44C36.8199 19.44 36.5799 19.44 36.4899 19.4C36.4899 19.4 36.3899 19.6 36.4499 19.8C36.4499 19.8 36.2199 19.63 35.6999 19.82C35.1799 20.02 35.2099 19.88 35.1799 19.94L35.0199 20.18C35.0199 20.18 35.2999 20.54 35.3099 20.51L35.2499 20.91L35.3899 20.97L36.4699 20.49L37.5699 19.92L38.4599 19.96L39.0199 20.09L39.7399 20.15L40.2799 19.87H41.0399L41.8799 20.29L42.8299 20.86L43.3299 20.96L43.7199 20.93V20.15L43.5399 19.87Z" fill="#D40000"/>
<path d="M35.39 21.03C35.38 21.03 35.37 21.03 35.37 21.03L35.23 20.97C35.2 20.96 35.19 20.93 35.19 20.91L35.24 20.55C35.19 20.51 35.12 20.42 34.97 20.23C34.95 20.21 34.95 20.18 34.97 20.16L35.13 19.92C35.15 19.87 35.19 19.87 35.22 19.88C35.3 19.9 35.45 19.86 35.68 19.78C36.02 19.65 36.25 19.68 36.37 19.72C36.36 19.55 36.43 19.4 36.43 19.39C36.44 19.36 36.48 19.35 36.51 19.36C36.57 19.39 36.73 19.39 36.82 19.39C36.96 19.38 37.05 19.34 37.07 19.29C37.1 19.23 37.06 19.17 37.05 19.16C36.9 18.91 37.05 18.71 37.16 18.64C37.24 18.58 37.28 18.52 37.27 18.48C37.26 18.43 37.19 18.39 37.17 18.38C36.72 18.22 36.78 17.82 36.78 17.81C36.84 17.4 37.21 17.34 37.4 17.36C37.43 17.36 37.45 17.38 37.45 17.41C37.45 17.44 37.44 17.46 37.42 17.47C37.27 17.55 37.26 17.6 37.26 17.61C37.26 17.63 37.29 17.65 37.29 17.65C37.33 17.67 37.35 17.66 37.37 17.65C37.46 17.6 37.54 17.38 37.58 17.19C37.27 17.37 37.01 17.22 37 17.21C36.84 17.11 36.75 16.98 36.73 16.84C36.7 16.6 36.9 16.4 36.91 16.4C36.92 16.39 36.95 16.38 36.97 16.38C36.99 16.39 37.01 16.4 37.01 16.42C37.04 16.53 37.09 16.6 37.15 16.62C37.22 16.64 37.29 16.59 37.29 16.59C37.33 16.56 37.35 16.52 37.35 16.48C37.36 16.39 37.28 16.29 37.25 16.26C36.98 15.92 37.11 15.77 37.13 15.76C37.14 15.75 37.16 15.74 37.17 15.74C37.19 15.74 37.2 15.75 37.21 15.76C37.28 15.84 37.35 15.88 37.43 15.87C37.56 15.86 37.69 15.75 37.74 15.68C37.57 15.52 37.47 15.29 37.46 15.06C37.45 14.98 37.48 14.9 37.54 14.85C37.66 14.74 37.89 14.76 38.04 14.78C38.01 14.7 37.99 14.62 37.96 14.45C37.94 14.35 37.97 14.3 38 14.28C38.09 14.21 38.24 14.27 38.27 14.28C38.38 14.33 38.46 14.35 38.53 14.37C38.43 14.15 38.54 13.93 38.55 13.92C38.56 13.89 38.59 13.88 38.62 13.89C38.81 13.95 38.93 14.02 39 14.08C39.1 13.81 39.35 13.71 39.36 13.7C39.38 13.69 39.4 13.7 39.42 13.71C39.54 13.81 39.71 14.01 39.79 14.1C39.92 13.99 40.11 13.9 40.12 13.89C40.14 13.88 40.16 13.88 40.18 13.9C40.41 14.07 40.45 14.24 40.44 14.35C40.75 14.24 40.85 14.36 40.86 14.38C40.9 14.44 40.91 14.5 40.9 14.57C40.88 14.65 40.83 14.72 40.77 14.78C41.06 14.77 41.11 14.89 41.12 14.91C41.27 15.21 41.01 15.55 40.9 15.68C41.19 15.89 41.33 15.89 41.39 15.87C41.45 15.85 41.47 15.8 41.47 15.79C41.48 15.76 41.5 15.75 41.53 15.75C41.56 15.75 41.58 15.77 41.59 15.8C41.64 15.99 41.61 16.14 41.53 16.23C41.44 16.33 41.31 16.34 41.23 16.35C41.24 16.44 41.28 16.49 41.35 16.57C41.37 16.6 41.4 16.63 41.43 16.67C41.45 16.69 41.47 16.71 41.49 16.7C41.52 16.7 41.57 16.65 41.58 16.61C41.61 16.54 41.54 16.41 41.51 16.37C41.49 16.35 41.5 16.32 41.51 16.3C41.53 16.28 41.55 16.27 41.58 16.28C42.17 16.51 42 16.99 41.99 17C41.85 17.32 41.57 17.36 41.4 17.34C41.4 17.37 41.4 17.39 41.41 17.41C41.41 17.39 41.42 17.38 41.43 17.37C41.45 17.35 41.48 17.35 41.51 17.36C41.66 17.46 41.78 17.59 41.88 17.74C41.93 17.82 41.98 17.91 41.95 18.02C41.92 18.15 41.79 18.27 41.55 18.41C41.48 18.45 41.43 18.49 41.39 18.53C41.4 18.53 41.42 18.53 41.43 18.54C41.44 18.55 41.46 18.55 41.47 18.56C41.57 18.6 41.73 18.68 41.79 18.99C41.83 19.22 41.7 19.38 41.58 19.46C41.7 19.55 41.78 19.65 41.79 19.65C41.82 19.68 41.85 19.69 41.86 19.68C41.97 19.59 41.92 19.36 41.89 19.28C41.88 19.26 41.89 19.23 41.91 19.21C41.93 19.19 41.96 19.19 41.98 19.21C42.24 19.38 42.28 19.59 42.26 19.72C42.39 19.68 42.56 19.68 42.84 19.77C43.22 19.88 43.51 19.83 43.51 19.83C43.53 19.82 43.56 19.84 43.57 19.86L43.75 20.14C43.76 20.15 43.76 20.16 43.76 20.17V20.95C43.76 20.98 43.74 21.01 43.7 21.01L43.31 21.04C43.3 21.04 43.3 21.04 43.29 21.04L42.79 20.94C42.78 20.94 42.78 20.94 42.77 20.93L41.82 20.36L41 19.95H40.27L39.74 20.22C39.73 20.23 39.72 20.23 39.71 20.23L38.99 20.17L38.43 20.04L37.56 20L36.47 20.56L35.39 21.04C35.41 21.03 35.4 21.03 35.39 21.03ZM35.32 20.87L35.39 20.9L36.45 20.43L37.55 19.86C37.56 19.86 37.57 19.85 37.58 19.85L38.47 19.89H38.48L39.04 20.02L39.73 20.08L40.25 19.81C40.26 19.81 40.27 19.8 40.28 19.8H41.04C41.05 19.8 41.06 19.8 41.07 19.81L41.91 20.23L42.86 20.8L43.34 20.9L43.67 20.87V20.16L43.52 19.93C43.42 19.94 43.16 19.96 42.83 19.86C42.46 19.74 42.33 19.79 42.23 19.85C42.21 19.86 42.18 19.86 42.16 19.84C42.14 19.82 42.14 19.79 42.15 19.77C42.15 19.76 42.23 19.58 42.07 19.4C42.08 19.51 42.07 19.66 41.96 19.75C41.96 19.75 41.92 19.79 41.86 19.79C41.81 19.79 41.76 19.76 41.72 19.72C41.72 19.72 41.59 19.58 41.45 19.49C41.43 19.48 41.42 19.46 41.42 19.43C41.42 19.41 41.44 19.39 41.46 19.38C41.47 19.38 41.74 19.27 41.69 19C41.65 18.78 41.55 18.71 41.47 18.67C41.47 18.72 41.47 18.76 41.48 18.81C41.48 18.83 41.48 18.86 41.46 18.87C41.44 18.88 41.42 18.89 41.4 18.87C41.39 18.87 41.24 18.78 41.24 18.63C41.24 18.51 41.33 18.4 41.52 18.29C41.73 18.17 41.84 18.07 41.86 17.98C41.87 17.92 41.85 17.87 41.81 17.8C41.76 17.73 41.71 17.66 41.64 17.59C41.65 17.63 41.65 17.67 41.64 17.71C41.64 17.77 41.59 17.83 41.52 17.86C41.46 17.88 41.41 17.88 41.37 17.85C41.34 17.83 41.31 17.78 41.33 17.68C41.36 17.54 41.35 17.51 41.34 17.45C41.33 17.41 41.33 17.36 41.33 17.26C41.33 17.24 41.34 17.22 41.35 17.21C41.37 17.2 41.39 17.2 41.4 17.2C41.42 17.2 41.77 17.32 41.93 16.95C41.93 16.94 42.03 16.66 41.74 16.47C41.76 16.53 41.76 16.6 41.73 16.66C41.72 16.68 41.65 16.8 41.54 16.81C41.5 16.81 41.44 16.8 41.38 16.73C41.35 16.69 41.33 16.66 41.3 16.64C41.21 16.53 41.14 16.45 41.15 16.27C41.15 16.25 41.16 16.24 41.17 16.23C41.18 16.22 41.2 16.21 41.22 16.22C41.22 16.22 41.39 16.24 41.48 16.15C41.52 16.11 41.54 16.04 41.53 15.96C41.51 15.97 41.5 15.98 41.47 15.99C41.32 16.04 41.09 15.96 40.81 15.74C40.8 15.73 40.79 15.71 40.79 15.7C40.79 15.68 40.8 15.67 40.81 15.65C40.81 15.65 41.2 15.26 41.05 14.96C41.03 14.93 40.93 14.87 40.62 14.92C40.59 14.92 40.56 14.91 40.55 14.88C40.54 14.85 40.55 14.82 40.57 14.81C40.63 14.77 40.78 14.65 40.8 14.54C40.81 14.5 40.8 14.47 40.78 14.44C40.78 14.44 40.7 14.36 40.39 14.5C40.37 14.51 40.34 14.5 40.32 14.48C40.3 14.46 40.3 14.43 40.32 14.41C40.32 14.4 40.42 14.23 40.15 14.01C40.08 14.05 39.92 14.14 39.84 14.22C39.83 14.23 39.81 14.24 39.79 14.24C39.77 14.24 39.76 14.23 39.75 14.22C39.75 14.22 39.54 13.96 39.39 13.82C39.32 13.86 39.16 13.97 39.11 14.19C39.11 14.21 39.09 14.23 39.07 14.24C39.05 14.25 39.02 14.24 39.01 14.22C39.01 14.22 38.9 14.1 38.66 14.02C38.63 14.1 38.6 14.27 38.72 14.41C38.74 14.43 38.74 14.45 38.73 14.47C38.72 14.49 38.7 14.51 38.68 14.51C38.67 14.51 38.52 14.51 38.26 14.4C38.21 14.38 38.13 14.36 38.11 14.38C38.11 14.38 38.1 14.4 38.11 14.44C38.14 14.67 38.17 14.73 38.22 14.85C38.23 14.87 38.23 14.9 38.21 14.91C38.19 14.92 38.17 14.94 38.15 14.93C38.04 14.91 37.75 14.86 37.64 14.96C37.62 14.98 37.6 15.01 37.6 15.07C37.61 15.29 37.71 15.5 37.88 15.65C37.9 15.67 37.91 15.71 37.89 15.73C37.88 15.74 37.69 16 37.45 16.01C37.37 16.01 37.28 15.99 37.21 15.93C37.21 15.98 37.24 16.07 37.35 16.2C37.35 16.2 37.49 16.35 37.48 16.51C37.48 16.59 37.44 16.65 37.37 16.71C37.36 16.71 37.25 16.8 37.12 16.76C37.05 16.74 36.99 16.68 36.94 16.58C36.9 16.65 36.85 16.74 36.86 16.85C36.87 16.95 36.94 17.05 37.07 17.13C37.08 17.14 37.34 17.28 37.63 17.03C37.65 17.01 37.68 17.01 37.7 17.02C37.72 17.03 37.73 17.06 37.73 17.08C37.72 17.14 37.65 17.66 37.44 17.77C37.38 17.8 37.31 17.8 37.25 17.76C37.24 17.75 37.16 17.7 37.16 17.61C37.16 17.57 37.18 17.53 37.21 17.5C37.09 17.53 36.96 17.62 36.93 17.83C36.93 17.84 36.89 18.13 37.24 18.26C37.26 18.27 37.4 18.32 37.42 18.45C37.43 18.54 37.38 18.63 37.26 18.72C37.24 18.74 37.06 18.87 37.18 19.08C37.18 19.08 37.26 19.2 37.2 19.32C37.15 19.42 37.03 19.47 36.84 19.49C36.81 19.49 36.65 19.49 36.54 19.46C36.52 19.53 36.49 19.65 36.52 19.77C36.53 19.79 36.52 19.82 36.5 19.84C36.48 19.85 36.45 19.85 36.43 19.84C36.43 19.84 36.21 19.69 35.74 19.87C35.42 19.99 35.3 19.99 35.24 19.98L35.11 20.17C35.2 20.29 35.31 20.41 35.34 20.44C35.37 20.45 35.39 20.48 35.38 20.51L35.32 20.87ZM41.43 17.43C41.44 17.5 41.45 17.55 41.42 17.7C41.41 17.74 41.42 17.76 41.42 17.76C41.42 17.76 41.44 17.76 41.46 17.75C41.48 17.74 41.5 17.71 41.5 17.69C41.52 17.6 41.46 17.48 41.44 17.44L41.43 17.43Z" fill="black"/>
<path d="M34.82 20.77C34.82 20.77 35.24 20.99 35.42 20.74C35.42 20.74 35.64 20.3 35.14 20.14C35.14 20.14 35.42 19.82 35.12 19.52C35.12 19.52 34.96 19.36 34.7 19.47C34.7 19.47 34.58 19.24 34.33 19.25C34.33 19.25 34.09 19.25 34.03 19.5C34.03 19.5 33.71 19.38 33.54 19.56C33.54 19.56 33.24 19.88 33.65 20.14L33.94 20.17L34.22 20.03L34.55 20.12C34.55 20.12 34.46 20.44 34.82 20.77Z" fill="#D40000"/>
<path d="M35.16 20.92C34.98 20.92 34.81 20.83 34.79 20.83L34.78 20.82C34.49 20.55 34.47 20.29 34.48 20.17L34.22 20.1L33.96 20.23C33.95 20.24 33.94 20.24 33.93 20.24L33.64 20.21C33.63 20.21 33.62 20.21 33.61 20.2C33.47 20.11 33.39 20 33.37 19.87C33.35 19.68 33.48 19.53 33.49 19.52C33.64 19.36 33.87 19.4 33.98 19.43C34.05 19.25 34.23 19.19 34.32 19.19C34.53 19.18 34.66 19.32 34.71 19.4C34.98 19.31 35.14 19.47 35.15 19.48C35.38 19.71 35.31 19.97 35.22 20.11C35.35 20.17 35.44 20.25 35.48 20.35C35.56 20.55 35.46 20.75 35.46 20.76C35.39 20.88 35.27 20.92 35.16 20.92ZM34.85 20.72C34.9 20.74 35.23 20.89 35.37 20.71C35.37 20.71 35.44 20.55 35.38 20.41C35.34 20.32 35.25 20.25 35.12 20.21C35.1 20.2 35.09 20.19 35.08 20.17C35.07 20.15 35.08 20.13 35.09 20.11C35.1 20.1 35.33 19.83 35.07 19.57C35.06 19.56 34.93 19.44 34.72 19.53C34.69 19.54 34.66 19.53 34.64 19.5C34.64 19.49 34.53 19.3 34.33 19.31C34.32 19.31 34.13 19.31 34.09 19.51C34.09 19.53 34.08 19.54 34.06 19.55C34.04 19.56 34.03 19.56 34.01 19.55C34.01 19.55 33.72 19.45 33.58 19.59C33.58 19.59 33.48 19.71 33.49 19.84C33.5 19.92 33.56 20 33.66 20.07L33.92 20.1L34.18 19.97C34.19 19.96 34.21 19.96 34.22 19.97L34.55 20.06C34.57 20.06 34.58 20.07 34.59 20.09C34.6 20.1 34.6 20.12 34.6 20.14C34.6 20.15 34.54 20.42 34.85 20.72Z" fill="black"/>
<path d="M44.16 20.01C44.45 19.97 44.7301 20.13 44.8501 20.39C45.1101 21.01 44.5501 21.35 44.5501 21.35C44.5901 21.48 44.6001 21.67 44.6001 21.67C45.3801 21.77 45.2401 22.65 45.2401 22.65L44.9801 22.43C44.5301 22.25 44.0501 22.65 43.7201 23.29C43.3801 23.95 43.5401 24.24 43.6001 25.02C43.6601 25.79 44.9001 26.26 44.9001 26.26L43.93 28.76C43.55 29.76 42.7301 29.35 42.5001 29.13C42.2701 28.93 42.2101 29.05 42.1001 29.13C41.9901 29.23 42.6301 29.73 41.4501 30.21C40.2801 30.68 40.0801 31.04 39.8801 31.16C39.6801 31.28 38.8801 31.21 38.8001 31.1C38.7001 31 38.7601 31 38.4501 30.81C38.1501 30.64 37.6301 30.46 37.0701 30.19C36.5101 29.92 36.5301 29.57 36.5401 29.5C36.5401 29.43 36.7301 28.85 36.0701 29.31C35.4201 29.78 34.8601 29.09 34.8601 29.09C34.7401 28.92 34.1801 27.45 34.1801 27.45C34.0601 27.04 33.9201 26.64 33.7501 26.25C33.7501 26.25 33.7101 26.33 34.2001 26.05C34.6801 25.78 34.9001 25.32 35.0701 24.86C35.2401 24.4 35.0701 23.61 35.0101 23.46C34.9501 23.3 34.5901 22.57 34.1401 22.42C33.7001 22.26 33.3901 22.66 33.3901 22.66C33.3901 22.66 33.2601 21.76 34.0501 21.66C34.0501 21.66 34.0501 21.48 34.0901 21.35C34.0901 21.35 33.5301 21.01 33.7901 20.39C33.7901 20.39 33.9701 19.96 34.4701 20.01L34.3601 20.25C34.3601 20.25 34.2401 21.51 36.0801 20.67C37.93 19.81 37.8801 19.65 38.9501 20.19L39.7101 20.18C39.7101 20.18 40.8101 19.65 41.1801 19.88C41.5301 20.11 42.8101 20.82 42.8101 20.82C42.8101 20.82 44.0501 21.29 44.3001 20.42L44.16 20.01Z" fill="#64B4D1"/>
<path d="M39.47 31.28C39.17 31.28 38.82 31.22 38.75 31.13C38.73 31.11 38.71 31.09 38.69 31.07C38.66 31.03 38.63 30.99 38.41 30.86C38.26 30.77 38.04 30.68 37.78 30.57C37.55 30.47 37.3 30.37 37.03 30.24C36.43 29.95 36.46 29.56 36.47 29.49C36.47 29.49 36.47 29.47 36.48 29.44C36.49 29.39 36.52 29.23 36.47 29.2C36.46 29.19 36.38 29.16 36.1 29.36C35.41 29.86 34.82 29.14 34.81 29.13C34.68 28.95 34.14 27.53 34.12 27.47C34.01 27.07 33.87 26.67 33.7 26.3L33.67 26.27L33.69 26.22L33.75 26.11L33.79 26.19C33.83 26.17 33.94 26.13 34.17 26C34.63 25.74 34.85 25.29 35.01 24.84C35.17 24.41 35.01 23.63 34.95 23.48C34.9 23.34 34.55 22.62 34.12 22.47C33.73 22.33 33.45 22.67 33.44 22.69L33.35 22.8L33.33 22.66C33.33 22.64 33.27 22.2 33.51 21.88C33.62 21.73 33.79 21.64 33.99 21.6C33.99 21.54 34 21.45 34.02 21.37C33.89 21.27 33.5 20.92 33.73 20.36C33.73 20.36 33.93 19.89 34.47 19.94L34.55 19.95L34.41 20.26C34.41 20.32 34.4 20.63 34.63 20.79C34.89 20.98 35.38 20.92 36.04 20.61C36.31 20.48 36.55 20.37 36.75 20.27C37.9 19.72 38.03 19.65 38.95 20.12L39.68 20.11C39.84 20.03 40.82 19.59 41.2 19.82C41.55 20.05 42.81 20.75 42.83 20.76C42.83 20.76 43.49 21.01 43.92 20.79C44.07 20.71 44.18 20.59 44.23 20.41L44.07 19.95L44.14 19.94C44.45 19.9 44.76 20.07 44.89 20.35C45.13 20.91 44.73 21.26 44.6 21.36C44.62 21.45 44.63 21.55 44.64 21.6C44.85 21.64 45.01 21.73 45.12 21.88C45.35 22.19 45.29 22.62 45.28 22.64L45.26 22.75L44.93 22.47C44.47 22.29 44.02 22.79 43.75 23.31C43.5 23.8 43.53 24.08 43.59 24.54C43.61 24.68 43.63 24.83 43.64 25.01C43.7 25.73 44.89 26.19 44.9 26.2L44.96 26.22L43.97 28.78C43.83 29.16 43.61 29.38 43.33 29.44C42.97 29.52 42.61 29.32 42.45 29.17C42.3 29.04 42.26 29.07 42.18 29.14C42.17 29.15 42.15 29.16 42.14 29.17C42.14 29.19 42.16 29.22 42.17 29.25C42.25 29.46 42.41 29.88 41.47 30.27C40.59 30.62 40.27 30.91 40.08 31.08C40.02 31.14 39.97 31.18 39.91 31.21C39.83 31.26 39.66 31.28 39.47 31.28ZM36.45 29.07C36.49 29.07 36.52 29.08 36.55 29.1C36.66 29.17 36.63 29.36 36.61 29.46C36.61 29.48 36.6 29.49 36.6 29.5C36.59 29.57 36.57 29.88 37.1 30.14C37.36 30.27 37.62 30.37 37.84 30.47C38.1 30.58 38.32 30.67 38.48 30.76C38.71 30.9 38.75 30.94 38.79 31C38.8 31.02 38.82 31.03 38.84 31.06C38.92 31.15 39.67 31.22 39.85 31.11C39.89 31.08 39.94 31.04 40 30.99C40.2 30.81 40.53 30.52 41.43 30.16C42.26 29.82 42.14 29.49 42.06 29.3C42.03 29.22 42 29.14 42.06 29.09C42.08 29.07 42.09 29.06 42.11 29.05C42.22 28.96 42.32 28.9 42.54 29.09C42.68 29.22 43.01 29.4 43.32 29.33C43.56 29.28 43.75 29.08 43.88 28.74L44.83 26.29C44.58 26.19 43.6 25.73 43.55 25.02C43.54 24.84 43.52 24.69 43.5 24.56C43.44 24.1 43.4 23.79 43.68 23.26C44.06 22.53 44.57 22.19 45.02 22.37L45.04 22.38L45.21 22.52C45.21 22.38 45.2 22.14 45.06 21.96C44.96 21.83 44.81 21.75 44.61 21.72L44.56 21.71V21.66C44.56 21.66 44.55 21.48 44.51 21.35L44.5 21.31L44.54 21.29C44.56 21.28 45.05 20.97 44.82 20.4C44.72 20.19 44.5 20.05 44.27 20.05L44.39 20.4L44.38 20.42C44.32 20.64 44.19 20.8 44 20.89C43.53 21.13 42.84 20.87 42.81 20.86C42.75 20.83 41.52 20.14 41.17 19.91C40.89 19.74 40.06 20.07 39.76 20.21L39.75 20.22L38.96 20.23L38.95 20.22C38.07 19.77 38 19.81 36.84 20.36C36.64 20.46 36.41 20.57 36.13 20.7C35.42 21.03 34.9 21.08 34.6 20.87C34.29 20.65 34.33 20.24 34.33 20.22L34.34 20.2L34.41 20.04C34.03 20.05 33.88 20.37 33.88 20.39C33.64 20.95 34.13 21.26 34.16 21.28L34.2 21.3L34.19 21.34C34.15 21.46 34.15 21.63 34.15 21.63V21.68L34.1 21.69C33.9 21.72 33.75 21.8 33.65 21.93C33.51 22.11 33.49 22.35 33.49 22.49C33.62 22.37 33.88 22.21 34.21 22.33C34.68 22.49 35.05 23.23 35.12 23.41C35.19 23.59 35.35 24.39 35.18 24.85C35.01 25.32 34.78 25.79 34.28 26.07C34.08 26.18 33.96 26.24 33.89 26.27C34.05 26.64 34.18 27.02 34.29 27.4C34.44 27.8 34.87 28.89 34.96 29.02C34.98 29.04 35.49 29.66 36.09 29.23C36.22 29.14 36.35 29.07 36.45 29.07Z" fill="black"/>
<path d="M38.58 25.5C38.58 25.5 38.52 25.11 38.46 24.86C38.46 24.86 38.31 24.47 38.56 24.18L38.84 23.85C38.84 23.85 39.02 23.61 39.24 23.58C39.24 23.58 39.47 23.58 39.48 23.53C39.51 23.48 39.76 23.08 40.34 23.53C40.34 23.53 40.52 23.23 40.82 23.17C40.82 23.17 41.12 23.09 41.27 23.31C41.27 23.31 41.62 23.05 41.91 23.48C41.91 23.48 42.32 23.24 42.63 23.71C42.63 23.71 43.03 23.51 43.27 23.92C43.52 24.35 43.47 24.52 43.47 24.52L43.67 25.2L44.32 26L42.8 26.58H42.1L40.73 26.94L38.3 27.13L37.63 26.33L38.58 25.5Z" fill="white"/>
<path d="M38.27 27.19L37.54 26.32L38.51 25.48C38.5 25.39 38.45 25.08 38.39 24.87C38.39 24.86 38.23 24.45 38.5 24.14L38.78 23.81C38.79 23.8 38.98 23.55 39.22 23.52C39.31 23.52 39.39 23.51 39.42 23.5C39.45 23.44 39.56 23.3 39.75 23.27C39.92 23.24 40.11 23.3 40.32 23.45C40.39 23.35 40.56 23.17 40.8 23.12C40.81 23.12 41.1 23.04 41.28 23.24C41.34 23.21 41.45 23.16 41.59 23.19C41.72 23.21 41.83 23.29 41.93 23.42C42.05 23.37 42.39 23.29 42.65 23.65C42.77 23.61 43.11 23.54 43.32 23.9C43.54 24.27 43.54 24.47 43.53 24.53L43.72 25.18L44.41 26.03L42.79 26.64H42.1L40.73 27L38.27 27.19ZM37.71 26.34L38.32 27.07L40.71 26.88L42.09 26.52H42.78L44.21 25.97L43.6 25.21L43.4 24.51V24.49C43.4 24.49 43.43 24.33 43.21 23.94C43 23.59 42.66 23.75 42.65 23.75L42.6 23.77L42.57 23.73C42.3 23.31 41.95 23.51 41.93 23.52L41.88 23.55L41.85 23.5C41.77 23.37 41.67 23.3 41.56 23.28C41.41 23.25 41.29 23.34 41.29 23.34L41.24 23.38L41.2 23.33C41.08 23.15 40.83 23.21 40.81 23.21C40.54 23.26 40.37 23.54 40.37 23.54L40.34 23.6L40.29 23.56C40.09 23.4 39.91 23.34 39.76 23.37C39.63 23.4 39.55 23.49 39.52 23.54C39.51 23.57 39.47 23.63 39.22 23.63C39.04 23.66 38.87 23.87 38.87 23.88L38.59 24.21C38.37 24.47 38.5 24.83 38.5 24.83C38.55 25.03 38.6 25.32 38.62 25.43H38.74L37.71 26.34Z" fill="#00247D"/>
<path d="M36.5299 29.55C36.5299 29.55 36.1699 29.56 35.9799 29.67C35.7999 29.75 35.6499 29.85 35.4399 29.99C35.4399 29.99 35.3399 30.12 34.9199 30.04C34.9199 30.04 34.1999 29.87 34.1999 30.44C34.1999 30.44 33.3199 30.5 33.6799 31.27C33.6799 31.27 33.9099 31.87 34.4099 31.45C34.4099 31.45 34.0899 31.9 34.7099 32.08C34.7099 32.08 35.1499 32.2 35.2899 31.73C35.2899 31.73 35.3599 31.55 35.1899 31.33C35.1899 31.33 35.3999 31.29 35.5499 31.06C35.5499 31.06 35.0899 31.64 35.5999 31.86C35.5999 31.86 36.2299 32.01 36.2599 31.36C36.2599 31.36 36.1999 31.04 36.4599 30.93C36.4599 30.93 36.9599 30.81 37.1599 30.27C37.1599 30.27 36.4599 29.88 36.5299 29.55ZM35.0599 23.8C35.0599 23.8 34.4999 23.55 34.2199 23.8C34.2199 23.8 33.8699 23.58 33.4699 23.8C33.4699 23.8 33.0999 24.04 32.8399 24.32C32.8399 24.32 32.6599 24.47 32.7199 24.96C32.7199 24.96 32.8199 25.31 32.7699 25.47C32.7699 25.47 32.6499 25.45 32.3999 25.75C32.3999 25.75 32.0899 26.1 31.7999 25.78C31.7999 25.78 31.8999 26.24 32.4099 26.16C32.4099 26.16 32.1599 26.36 32.3799 26.86C32.3799 26.86 32.5399 27.22 32.2799 27.68C32.2799 27.68 32.7299 27.5 32.7199 26.96C32.7199 26.96 32.6699 26.6 32.8199 26.36C32.8199 26.36 32.6699 26.58 32.9799 27.07C32.9799 27.07 33.2199 27.43 33.0299 27.79C33.0299 27.79 33.4699 27.63 33.4299 27.09C33.3899 26.55 33.1299 26.77 33.2899 26.27C33.2899 26.27 33.3399 26.53 33.4699 26.67C33.6699 26.84 33.7699 27.11 33.7099 27.37C33.7099 27.37 33.9699 27.03 33.9099 26.69C33.8899 26.54 33.8499 26.39 33.7799 26.25L34.6199 25.77L35.0499 25.02L35.0599 23.8Z" fill="#D40000"/>
<path d="M34.83 32.15C34.75 32.15 34.69 32.14 34.69 32.13C34.47 32.07 34.33 31.96 34.28 31.82C34.25 31.74 34.26 31.67 34.27 31.6C34.17 31.65 34.07 31.66 33.97 31.64C33.73 31.58 33.62 31.3 33.61 31.28C33.5 31.04 33.49 30.84 33.58 30.68C33.71 30.46 34 30.39 34.12 30.38C34.13 30.24 34.18 30.14 34.28 30.06C34.51 29.88 34.9 29.97 34.91 29.97C35.27 30.04 35.37 29.94 35.37 29.94L35.38 29.93C35.59 29.79 35.74 29.69 35.93 29.61C36.13 29.5 36.49 29.49 36.5 29.48C36.52 29.48 36.54 29.49 36.55 29.5C36.56 29.51 36.57 29.53 36.56 29.55C36.51 29.78 36.98 30.1 37.16 30.21C37.19 30.22 37.2 30.26 37.19 30.28C36.98 30.84 36.47 30.97 36.45 30.98C36.25 31.07 36.29 31.34 36.3 31.34V31.35C36.29 31.56 36.22 31.72 36.09 31.81C35.87 31.97 35.58 31.9 35.57 31.9H35.56C35.46 31.86 35.38 31.79 35.34 31.72C35.34 31.73 35.33 31.74 35.33 31.74C35.24 32.09 34.99 32.15 34.83 32.15ZM34.41 31.39C34.42 31.39 34.44 31.4 34.45 31.41C34.47 31.43 34.48 31.46 34.46 31.49C34.46 31.49 34.35 31.65 34.4 31.79C34.44 31.89 34.55 31.97 34.73 32.02C34.74 32.02 35.11 32.12 35.24 31.71C35.24 31.7 35.3 31.55 35.15 31.36C35.14 31.34 35.13 31.32 35.14 31.3C35.15 31.28 35.16 31.27 35.18 31.26C35.19 31.26 35.34 31.23 35.47 31.07C35.49 31.04 35.51 31.02 35.51 31.02C35.53 30.99 35.57 30.99 35.59 31.01C35.62 31.03 35.62 31.06 35.61 31.09C35.6 31.11 35.59 31.13 35.57 31.14C35.51 31.23 35.39 31.43 35.44 31.6C35.46 31.69 35.52 31.75 35.63 31.8C35.67 31.81 35.89 31.85 36.05 31.73C36.15 31.66 36.2 31.53 36.21 31.36C36.19 31.23 36.21 30.97 36.45 30.87C36.46 30.87 36.9 30.75 37.1 30.29C36.94 30.2 36.5 29.91 36.48 29.61C36.37 29.62 36.15 29.64 36.02 29.72C35.84 29.8 35.69 29.9 35.49 30.03C35.46 30.07 35.31 30.17 34.92 30.09C34.91 30.09 34.57 30.01 34.38 30.15C34.3 30.21 34.27 30.3 34.27 30.43C34.27 30.46 34.25 30.49 34.21 30.49C34.21 30.49 33.84 30.52 33.71 30.74C33.64 30.86 33.65 31.03 33.74 31.23C33.74 31.24 33.84 31.47 34.02 31.52C34.13 31.55 34.25 31.5 34.38 31.39C34.38 31.39 34.4 31.39 34.41 31.39ZM35.28 31.36C35.29 31.38 35.3 31.4 35.31 31.41C35.32 31.38 35.32 31.36 35.33 31.33C35.32 31.35 35.3 31.36 35.28 31.36ZM33.03 27.85C33.01 27.85 33 27.84 32.98 27.83C32.96 27.81 32.96 27.78 32.97 27.76C33.14 27.44 32.93 27.1 32.92 27.1C32.84 26.98 32.79 26.87 32.76 26.78C32.76 26.88 32.77 26.95 32.77 26.95C32.78 27.53 32.3 27.73 32.29 27.73C32.27 27.74 32.24 27.73 32.22 27.71C32.2 27.69 32.2 27.66 32.21 27.64C32.45 27.21 32.31 26.89 32.31 26.87C32.17 26.54 32.21 26.33 32.27 26.22C31.83 26.21 31.73 25.79 31.73 25.78C31.72 25.75 31.74 25.73 31.76 25.71C31.78 25.7 31.81 25.7 31.83 25.72C31.9 25.8 31.97 25.84 32.05 25.84C32.2 25.84 32.33 25.7 32.34 25.7C32.52 25.49 32.64 25.42 32.71 25.41C32.73 25.28 32.68 25.05 32.65 24.97C32.58 24.44 32.78 24.27 32.79 24.27C33.05 23.99 33.41 23.76 33.43 23.75C33.79 23.55 34.1 23.68 34.21 23.73C34.52 23.5 35.06 23.74 35.08 23.75C35.1 23.76 35.12 23.78 35.12 23.81L35.11 25.03C35.11 25.04 35.11 25.05 35.1 25.06L34.67 25.81C34.66 25.82 34.66 25.83 34.65 25.83L33.86 26.28C33.92 26.41 33.96 26.55 33.97 26.69C34.03 27.05 33.77 27.4 33.76 27.41C33.74 27.43 33.71 27.44 33.69 27.43C33.66 27.42 33.65 27.39 33.66 27.36C33.71 27.12 33.63 26.88 33.44 26.72C33.38 26.66 33.34 26.58 33.31 26.5C33.31 26.57 33.33 26.61 33.36 26.65C33.41 26.72 33.48 26.82 33.5 27.08C33.54 27.66 33.07 27.84 33.06 27.84C33.04 27.85 33.04 27.85 33.03 27.85ZM32.87 26.39C32.86 26.41 32.76 26.61 33.03 27.03C33.04 27.04 33.22 27.32 33.14 27.65C33.25 27.56 33.39 27.39 33.36 27.09C33.34 26.86 33.29 26.78 33.24 26.72C33.17 26.62 33.13 26.54 33.22 26.25C33.23 26.22 33.25 26.21 33.28 26.21C33.31 26.21 33.33 26.23 33.34 26.26C33.34 26.26 33.39 26.51 33.51 26.63C33.66 26.76 33.75 26.93 33.78 27.13C33.83 27.01 33.88 26.86 33.85 26.7C33.83 26.55 33.79 26.41 33.73 26.28C33.72 26.25 33.73 26.22 33.75 26.2L34.58 25.73L34.99 25.01L35 23.85C34.88 23.8 34.47 23.67 34.26 23.85C34.24 23.87 34.21 23.87 34.19 23.86C34.18 23.85 33.86 23.66 33.5 23.86C33.5 23.86 33.14 24.1 32.89 24.37C32.88 24.38 32.73 24.52 32.79 24.96C32.8 24.99 32.89 25.32 32.84 25.5C32.83 25.53 32.8 25.55 32.77 25.54C32.77 25.54 32.67 25.54 32.46 25.8C32.45 25.81 32.29 25.99 32.08 25.99C32.04 25.99 32 25.98 31.96 25.97C32.04 26.06 32.17 26.15 32.4 26.11C32.43 26.11 32.45 26.12 32.46 26.15C32.47 26.17 32.46 26.2 32.44 26.22C32.43 26.23 32.23 26.4 32.43 26.85C32.44 26.86 32.56 27.15 32.42 27.53C32.53 27.43 32.66 27.26 32.66 26.97C32.66 26.96 32.61 26.59 32.77 26.34C32.79 26.31 32.82 26.31 32.85 26.32C32.88 26.33 32.89 26.36 32.87 26.39Z" fill="black"/>
<path d="M33.78 26.01C33.64 26 33.37 25.92 33.32 25.66L33.44 25.64C33.48 25.87 33.77 25.89 33.78 25.89V26.01ZM33.17 25.75C33.05 25.75 32.98 25.65 32.96 25.63C32.86 25.54 32.77 25.53 32.77 25.53V25.41C32.78 25.41 32.92 25.41 33.05 25.55L33.06 25.56C33.06 25.56 33.11 25.64 33.19 25.63L33.21 25.75C33.2 25.75 33.18 25.75 33.17 25.75Z" fill="black"/>
<path d="M34.3001 24.92C34.3001 24.92 34.1201 24.92 34.0001 24.84C34.0001 24.84 33.9101 24.77 33.8501 24.88C33.8501 24.88 33.7501 25.04 33.9301 25.11C33.9301 25.11 34.1501 25.23 33.8101 25.45C33.8101 25.45 34.2101 25.29 34.0501 25.09C34.0501 25.09 33.8701 24.97 33.9301 24.92C33.9301 24.92 33.9501 24.88 34.0301 24.92C34.0901 24.98 34.2301 24.96 34.3001 24.92Z" fill="black"/>
<path d="M39.7599 25.9L39.9699 25.84L38.5699 21.04H38.5299L39.7599 25.9Z" fill="#784421"/>
<path d="M39.72 25.97L38.46 20.98H38.62L40.05 25.88L39.72 25.97ZM39.15 23.23L39.81 25.83L39.9 25.8L39.15 23.23Z" fill="black"/>
<path d="M35.12 31.23C35.12 31.23 34.8 31.04 34.52 31.26C34.52 31.26 34.56 31.14 34.76 31.09C34.76 31.09 34.88 30.77 35.19 30.8C35.19 30.8 35.06 30.96 34.89 31.08C34.89 31.08 35.07 31.1 35.12 31.23Z" fill="black"/>
<path d="M33.9699 31.98C33.9699 31.98 33.4499 31.66 33.7399 31.11C33.7399 31.11 33.8199 30.96 33.9699 30.99C33.9699 30.99 34.2999 31.09 34.0499 31.54C34.0499 31.54 33.9099 31.83 33.9699 31.98ZM35.0199 32.51C35.0199 32.51 34.2799 32.17 34.5099 31.59C34.5099 31.59 34.5799 31.39 34.7499 31.41C34.7499 31.41 35.0299 31.43 34.9799 31.81C34.9799 31.81 34.8899 32.17 35.0199 32.51Z" fill="#64B4D1"/>
<path d="M35 32.56C34.73 32.43 34.26 32.06 34.46 31.56C34.49 31.48 34.59 31.32 34.76 31.34C34.76 31.34 34.88 31.35 34.97 31.45C35.04 31.53 35.06 31.65 35.04 31.8C35.04 31.81 34.96 32.15 35.08 32.47L35 32.56ZM34.73 31.47C34.62 31.47 34.57 31.61 34.57 31.61C34.42 32 34.74 32.26 34.92 32.39C34.85 32.09 34.92 31.81 34.92 31.8C34.93 31.69 34.92 31.6 34.87 31.55C34.82 31.49 34.75 31.48 34.74 31.48C34.74 31.47 34.73 31.47 34.73 31.47ZM33.94 32.03C33.93 32.03 33.38 31.67 33.69 31.08C33.69 31.07 33.79 30.89 33.98 30.93C33.99 30.93 34.12 30.97 34.18 31.11C34.23 31.23 34.2 31.39 34.1 31.57C34.07 31.64 34 31.82 34.02 31.94L34.03 31.95V31.99L33.96 32L33.94 32.03ZM33.93 31.05C33.85 31.05 33.8 31.14 33.79 31.14C33.61 31.48 33.77 31.73 33.89 31.85C33.9 31.7 33.98 31.54 33.99 31.52C34.07 31.37 34.1 31.25 34.06 31.17C34.03 31.09 33.95 31.06 33.94 31.06C33.94 31.05 33.94 31.05 33.93 31.05Z" fill="#00247D"/>
<path d="M34.87 30.36C34.87 30.36 34.64 30.53 34.56 30.64C34.56 30.64 34.46 30.52 34.34 30.46C34.34 30.46 34.49 30.43 34.56 30.49C34.56 30.49 34.68 30.39 34.86 30.36H34.87Z" fill="black"/>
<path d="M35.52 32.36C35.52 32.36 36.12 32.22 36 31.61C36 31.61 35.94 31.35 35.7 31.39C35.7 31.39 35.4 31.47 35.6 31.85C35.6 31.85 35.71 32.11 35.52 32.36Z" fill="#64B4D1"/>
<path d="M35.53 32.42L35.47 32.33C35.64 32.11 35.55 31.89 35.54 31.88C35.46 31.73 35.45 31.61 35.49 31.5C35.55 31.37 35.67 31.34 35.68 31.34C35.92 31.3 36.03 31.5 36.05 31.6C36.19 32.26 35.54 32.42 35.53 32.42ZM35.71 31.45C35.71 31.45 35.64 31.47 35.61 31.55C35.58 31.62 35.6 31.71 35.66 31.83C35.67 31.84 35.74 32.03 35.66 32.25C35.81 32.17 36.02 31.99 35.95 31.63C35.94 31.6 35.89 31.42 35.71 31.45Z" fill="#00247D"/>
<path d="M38.16 19.67L38.73 19.86C38.73 19.86 39.27 20.09 39.96 19.86L40.48 19.66L40.13 20.2V20.49L40.34 20.81C40.34 20.81 40.21 20.87 39.8 20.61C39.8 20.61 39.36 20.27 38.84 20.61C38.84 20.61 38.54 20.81 38.3 20.81L38.65 20.43L38.52 20.08L38.16 19.65V19.67Z" fill="#F5CE00"/>
<path d="M40.3 20.88C40.22 20.88 40.06 20.85 39.77 20.66C39.75 20.64 39.35 20.35 38.87 20.66C38.86 20.67 38.55 20.87 38.3 20.87H38.16L38.58 20.42L38.47 20.11L38.14 19.73L38.1 19.72V19.66L38.18 19.63V19.62H38.19L38.21 19.61L38.22 19.62L38.75 19.8C38.76 19.8 39.28 20.02 39.94 19.8L40.46 19.6L40.53 19.69L40.19 20.22V20.47L40.43 20.83L40.37 20.86C40.36 20.87 40.34 20.88 40.3 20.88ZM39.32 20.4C39.62 20.4 39.84 20.56 39.84 20.56C40.03 20.68 40.16 20.73 40.23 20.74L40.07 20.5V20.17L40.33 19.77L39.98 19.9C39.27 20.14 38.73 19.91 38.7 19.9L38.36 19.79L38.57 20.05L38.71 20.43L38.45 20.71C38.63 20.66 38.79 20.55 38.8 20.55C38.99 20.44 39.17 20.4 39.32 20.4Z" fill="black"/>
<path d="M35.75 31.65C35.75 31.65 35.77 31.61 35.75 31.6L35.7 31.62C35.7 31.62 35.64 31.72 35.7 31.86C35.7 31.86 35.75 31.95 35.73 32.04V32.08C35.73 32.08 35.76 32.07 35.76 32.04C35.76 32.04 35.8 31.96 35.74 31.86C35.74 31.86 35.68 31.72 35.75 31.65Z" fill="white"/>
<path d="M43.8 20.77C43.8 20.77 43.38 20.99 43.2 20.74C43.2 20.74 42.99 20.3 43.49 20.14C43.49 20.14 43.21 19.82 43.5 19.52C43.5 19.52 43.66 19.36 43.92 19.47C43.92 19.47 44.04 19.24 44.29 19.25C44.29 19.25 44.53 19.25 44.59 19.5C44.59 19.5 44.92 19.38 45.09 19.56C45.09 19.56 45.37 19.88 44.97 20.14L44.68 20.17L44.39 20.03L44.09 20.12C44.09 20.12 44.17 20.44 43.79 20.77H43.8Z" fill="#D40000"/>
<path d="M43.46 20.92C43.35 20.92 43.23 20.89 43.15 20.78C43.15 20.78 43.15 20.77 43.14 20.77C43.14 20.76 43.04 20.56 43.13 20.36C43.18 20.25 43.26 20.17 43.39 20.12C43.3 19.97 43.23 19.72 43.45 19.49C43.46 19.48 43.62 19.32 43.89 19.41C43.94 19.33 44.07 19.2 44.29 19.2C44.38 19.2 44.55 19.25 44.63 19.44C44.74 19.41 44.98 19.37 45.13 19.53C45.14 19.54 45.26 19.69 45.24 19.87C45.22 20 45.14 20.11 45 20.2C44.99 20.21 44.98 20.21 44.97 20.21L44.68 20.24C44.67 20.24 44.66 20.24 44.65 20.23L44.38 20.1L44.15 20.17C44.16 20.28 44.14 20.54 43.85 20.8C43.85 20.81 43.84 20.82 43.83 20.83C43.82 20.83 43.64 20.92 43.46 20.92ZM43.25 20.71C43.38 20.88 43.66 20.77 43.74 20.73C44.08 20.43 44.02 20.15 44.02 20.14C44.01 20.11 44.03 20.08 44.06 20.07L44.36 19.98C44.37 19.98 44.39 19.98 44.4 19.98L44.67 20.11L44.93 20.08C45.03 20.01 45.09 19.93 45.1 19.84C45.12 19.71 45.02 19.59 45.02 19.59C44.88 19.44 44.59 19.55 44.59 19.55C44.57 19.56 44.56 19.55 44.54 19.55C44.52 19.54 44.51 19.53 44.51 19.51C44.46 19.31 44.28 19.31 44.27 19.31C44.06 19.3 43.95 19.5 43.95 19.5C43.94 19.53 43.9 19.54 43.87 19.53C43.65 19.44 43.52 19.57 43.52 19.57C43.27 19.83 43.5 20.1 43.51 20.11C43.52 20.13 43.53 20.15 43.52 20.17C43.51 20.19 43.5 20.2 43.48 20.21C43.34 20.25 43.25 20.32 43.21 20.42C43.18 20.54 43.24 20.68 43.25 20.71Z" fill="black"/>
<path d="M40.48 20.44C40.48 20.44 40.48 20.52 40.4 20.54C40.4 20.54 40.3 20.57 40.25 20.45V20.42C40.25 20.37 40.22 20.22 40.39 20.09C40.39 20.09 40.65 19.88 41.15 20.14C41.63 20.41 42.13 20.66 42.63 20.89C42.63 20.89 42.94 21.05 43.42 21.07C43.42 21.07 44.07 21.12 44.35 20.66C44.35 20.66 44.56 20.31 44.35 20.08C44.35 20.08 44.26 19.98 44.12 20C44.05 20.02 43.98 20.06 43.94 20.12C43.94 20.12 43.84 20.26 43.95 20.37C43.95 20.37 44.11 20.47 44.17 20.27C44.17 20.29 44.22 20.44 44.13 20.56C44.13 20.56 43.73 21.16 42.64 20.55L41.21 19.74C41.21 19.74 40.5 19.37 40.05 19.95C40.05 19.95 39.71 20.43 40.16 20.74C40.16 20.74 40.5 20.94 40.7 20.62C40.7 20.62 40.88 20.31 40.6 20.18C40.6 20.18 40.36 20.06 40.27 20.3C40.17 20.54 40.45 20.6 40.47 20.43C40.47 20.43 40.47 20.39 40.5 20.43L40.48 20.44Z" fill="#F5CE00"/>
<path d="M43.48 21.13C43.44 21.13 43.42 21.13 43.41 21.13C42.92 21.11 42.61 20.95 42.6 20.94C42.1 20.71 41.6 20.46 41.12 20.19C40.82 20.04 40.62 20.06 40.52 20.09C40.58 20.1 40.63 20.12 40.63 20.12C40.72 20.16 40.78 20.23 40.81 20.31C40.86 20.47 40.76 20.64 40.76 20.65C40.58 20.94 40.27 20.87 40.14 20.79C40 20.69 39.91 20.57 39.89 20.42C39.84 20.16 40.01 19.92 40.02 19.91C40.5 19.3 41.25 19.68 41.26 19.68L42.69 20.49C43.72 21.07 44.1 20.52 44.1 20.52C44.12 20.49 44.13 20.46 44.14 20.43C44.13 20.43 44.13 20.44 44.12 20.44C44.03 20.47 43.95 20.42 43.94 20.42L43.93 20.41C43.81 20.29 43.87 20.15 43.91 20.08C43.96 20.01 44.04 19.96 44.13 19.94C44.31 19.91 44.41 20.03 44.42 20.04C44.66 20.3 44.44 20.68 44.43 20.69C44.16 21.09 43.66 21.13 43.48 21.13ZM40.68 19.95C40.81 19.95 40.97 19.98 41.18 20.09C41.66 20.36 42.16 20.61 42.66 20.84C42.67 20.84 42.97 21 43.43 21.01C43.44 21.01 44.05 21.05 44.31 20.63C44.31 20.63 44.49 20.32 44.32 20.12C44.32 20.12 44.25 20.04 44.14 20.06C44.09 20.07 44.04 20.11 44 20.16C43.99 20.17 43.94 20.26 44 20.33C44.01 20.34 44.05 20.35 44.07 20.34C44.1 20.33 44.11 20.29 44.12 20.26L44.24 20.28V20.29C44.25 20.34 44.28 20.49 44.19 20.61C44.17 20.63 43.75 21.25 42.62 20.62L41.19 19.81C41.16 19.8 40.52 19.47 40.11 20C40.11 20 39.97 20.21 40.01 20.42C40.03 20.53 40.1 20.63 40.21 20.71C40.22 20.71 40.5 20.87 40.67 20.61C40.67 20.61 40.74 20.48 40.71 20.37C40.69 20.32 40.66 20.28 40.6 20.25C40.6 20.25 40.51 20.21 40.44 20.24C40.4 20.26 40.37 20.29 40.35 20.34C40.34 20.37 40.33 20.39 40.33 20.41C40.33 20.41 40.33 20.41 40.33 20.42C40.33 20.43 40.33 20.43 40.33 20.44C40.33 20.45 40.34 20.47 40.35 20.48C40.36 20.5 40.39 20.5 40.41 20.5C40.43 20.49 40.44 20.48 40.44 20.46C40.44 20.43 40.46 20.4 40.49 20.39C40.51 20.38 40.55 20.38 40.58 20.43L40.62 20.49L40.56 20.52C40.55 20.56 40.51 20.62 40.44 20.64C40.39 20.65 40.28 20.65 40.22 20.51V20.49V20.46C40.22 20.45 40.22 20.44 40.22 20.43C40.22 20.36 40.22 20.21 40.39 20.08C40.36 20.04 40.47 19.95 40.68 19.95Z" fill="black"/>
<path d="M34.7999 22.92V22.02C34.7999 21.94 34.7999 21.9 34.9199 21.8C35.0199 21.72 35.1299 21.57 35.2899 21.97C35.2899 21.97 35.6099 21.62 35.7099 21.57C35.7099 21.57 35.9099 21.42 36.0399 21.64C36.0399 21.64 36.1999 21.38 36.3399 21.32C36.3399 21.32 36.6599 21.12 36.6699 21.74L36.9199 21.5C36.9199 21.5 37.1199 21.35 37.3399 21.57C37.3399 21.57 37.6899 21.93 37.7399 22.03C37.7399 22.03 37.8199 22.13 37.8399 22.3C37.8399 22.3 37.8399 22.5 37.9399 22.6C37.9399 22.6 38.0499 22.7 38.1599 22.72C38.1599 22.72 38.4099 22.73 38.5199 22.98C38.5199 22.98 38.5499 22.93 38.6799 24.1V26.25L37.2399 27.96L34.9299 27.3L34.0099 26.91L33.7899 26.25L34.6899 25.66L35.1699 24.36L35.0199 23.43L34.7999 22.92Z" fill="#E4CB5E"/>
<path d="M37.26 28.03L34.91 27.36L33.96 26.96L33.72 26.23L34.64 25.63L35.11 24.36L34.96 23.45L34.74 22.94L34.77 22.93H34.73V22.03C34.73 21.93 34.74 21.88 34.87 21.76C34.88 21.75 34.89 21.74 34.9 21.74C34.95 21.7 35.02 21.64 35.11 21.66C35.18 21.68 35.24 21.74 35.3 21.87C35.4 21.76 35.59 21.57 35.67 21.53C35.69 21.51 35.79 21.45 35.9 21.48C35.95 21.49 35.99 21.51 36.03 21.55C36.09 21.46 36.2 21.32 36.31 21.28C36.31 21.28 36.43 21.21 36.55 21.27C36.64 21.32 36.7 21.44 36.72 21.62L36.88 21.47C36.97 21.4 37.18 21.34 37.38 21.54C37.42 21.58 37.73 21.9 37.79 22.01C37.81 22.03 37.88 22.14 37.9 22.31C37.9 22.37 37.92 22.51 37.98 22.57C38.01 22.59 38.09 22.66 38.17 22.67C38.18 22.67 38.45 22.69 38.57 22.96C38.6 23.03 38.64 23.27 38.74 24.1V26.28L38.73 26.3L37.26 28.03ZM34.06 26.87L34.96 27.25L37.23 27.9L38.63 26.24V24.1C38.54 23.3 38.5 23.08 38.49 23.03L38.48 23.01C38.39 22.8 38.18 22.79 38.17 22.79C38.04 22.77 37.92 22.66 37.91 22.65C37.79 22.53 37.79 22.31 37.79 22.31C37.77 22.17 37.7 22.08 37.7 22.08L37.69 22.07C37.66 22 37.43 21.76 37.3 21.63C37.12 21.45 36.98 21.55 36.96 21.57L36.62 21.9V21.76C36.62 21.48 36.55 21.4 36.51 21.38C36.45 21.35 36.39 21.39 36.38 21.39C36.27 21.44 36.14 21.62 36.1 21.69L36.05 21.77L36 21.68C35.97 21.63 35.94 21.6 35.9 21.59C35.83 21.58 35.76 21.63 35.76 21.63L35.75 21.64C35.68 21.67 35.47 21.89 35.35 22.03L35.29 22.1L35.25 22.01C35.17 21.82 35.12 21.79 35.1 21.78C35.07 21.77 35.04 21.81 35 21.84C34.99 21.85 34.98 21.86 34.97 21.87C34.87 21.95 34.87 21.97 34.87 22.04V22.92L35.09 23.44L35.24 24.39L34.75 25.72L33.87 26.3L34.06 26.87Z" fill="black"/>
<path d="M41.16 24.04L41.28 23.89L41.53 23.69C41.53 23.69 41.93 24.73 41.95 24.96V25.28C41.95 25.28 42.55 25.44 42.67 26.35L42.17 27.27L41.39 26.83L41.16 26.68V24.05V24.04Z" fill="#784421"/>
<path d="M42.19 27.35L41.36 26.88L41.1 26.71V24.02L41.24 23.84L41.55 23.59L41.58 23.67C41.6 23.71 41.98 24.72 42 24.96V25.24C42.15 25.3 42.61 25.54 42.72 26.35V26.37L42.19 27.35ZM41.22 26.65L41.42 26.78L42.14 27.19L42.6 26.34C42.48 25.5 41.93 25.34 41.93 25.34L41.89 25.33V24.96C41.88 24.8 41.63 24.12 41.5 23.79L41.32 23.93L41.22 24.06V26.65Z" fill="black"/>
<path d="M33.83 31.24C33.83 31.24 33.85 31.21 33.83 31.18L33.78 31.22C33.78 31.22 33.63 31.39 33.76 31.66C33.76 31.66 33.76 31.7 33.79 31.68C33.79 31.68 33.82 31.68 33.79 31.65C33.79 31.65 33.68 31.41 33.83 31.25V31.24Z" fill="white"/>
<path d="M36.23 31.07L36.11 31.06L36.17 31.07L36.11 31.06C36.11 31.06 36.12 31 36.08 30.94C36.07 30.93 36.04 30.86 36.05 30.75L36.17 30.76C36.16 30.83 36.18 30.88 36.18 30.88C36.24 30.96 36.23 31.06 36.23 31.07ZM36.98 22.73C36.98 22.66 36.89 22.53 36.82 22.41C36.76 22.32 36.71 22.23 36.68 22.15C36.61 21.97 36.61 21.74 36.61 21.73H36.73C36.73 21.73 36.73 21.95 36.8 22.11C36.82 22.17 36.88 22.26 36.93 22.35C37.02 22.49 37.1 22.62 37.1 22.72L36.98 22.73Z" fill="black"/>
<path d="M42.1 29.55C42.1 29.55 42.46 29.56 42.65 29.67C42.85 29.75 42.99 29.85 43.2 29.99C43.2 29.99 43.3 30.12 43.72 30.04C43.72 30.04 44.44 29.87 44.44 30.44C44.44 30.44 45.31 30.5 44.96 31.27C44.96 31.27 44.72 31.87 44.22 31.45C44.22 31.45 44.54 31.9 43.92 32.08C43.92 32.08 43.48 32.2 43.35 31.73C43.35 31.73 43.27 31.55 43.45 31.33C43.45 31.33 43.24 31.29 43.1 31.06C43.1 31.06 43.55 31.64 43.05 31.86C43.05 31.86 42.42 32.01 42.38 31.36C42.38 31.36 42.43 31.04 42.18 30.93C42.18 30.93 41.68 30.81 41.46 30.27C41.46 30.27 42.18 29.88 42.1 29.55Z" fill="#D40000"/>
<path d="M43.8 32.15C43.64 32.15 43.39 32.09 43.29 31.74C43.29 31.74 43.29 31.74 43.29 31.73C43.24 31.8 43.17 31.86 43.07 31.91H43.06C43.05 31.91 42.75 31.98 42.53 31.82C42.4 31.72 42.33 31.57 42.31 31.36V31.35C42.31 31.34 42.35 31.08 42.15 30.99C42.09 30.97 41.61 30.83 41.39 30.3C41.38 30.27 41.39 30.24 41.42 30.22C41.6 30.12 42.05 29.82 42.04 29.59C42.03 29.58 42.03 29.57 42.03 29.55C42.03 29.52 42.06 29.49 42.09 29.49H42.1H42.11C42.19 29.49 42.49 29.51 42.67 29.62C42.85 29.69 42.99 29.78 43.16 29.9L43.22 29.94C43.23 29.94 43.23 29.95 43.23 29.95C43.23 29.95 43.33 30.05 43.69 29.98C43.7 29.98 44.09 29.89 44.32 30.07C44.41 30.14 44.47 30.25 44.48 30.39C44.6 30.41 44.89 30.47 45.02 30.69C45.12 30.85 45.11 31.05 45 31.3C45 31.31 44.88 31.59 44.64 31.65C44.54 31.67 44.44 31.66 44.34 31.61C44.35 31.68 44.36 31.75 44.33 31.83C44.28 31.97 44.14 32.08 43.92 32.14C43.93 32.14 43.88 32.15 43.8 32.15ZM43.19 31.09C43.31 31.24 43.45 31.27 43.46 31.27C43.48 31.27 43.5 31.29 43.5 31.31C43.51 31.33 43.5 31.35 43.49 31.37C43.34 31.56 43.4 31.7 43.4 31.71C43.51 32.12 43.88 32.03 43.9 32.03C44.08 31.98 44.19 31.9 44.22 31.8C44.27 31.65 44.16 31.5 44.16 31.5C44.14 31.48 44.15 31.44 44.17 31.42C44.19 31.4 44.23 31.4 44.25 31.42C44.38 31.53 44.5 31.57 44.61 31.55C44.8 31.5 44.89 31.27 44.89 31.27C44.98 31.06 44.99 30.9 44.92 30.77C44.79 30.55 44.43 30.52 44.42 30.52C44.39 30.52 44.36 30.49 44.36 30.46C44.36 30.33 44.32 30.24 44.25 30.18C44.07 30.03 43.72 30.11 43.72 30.11C43.32 30.19 43.18 30.08 43.15 30.05L43.1 30C42.92 29.88 42.8 29.8 42.62 29.73C42.49 29.66 42.28 29.63 42.17 29.62C42.15 29.92 41.69 30.21 41.53 30.3C41.74 30.76 42.18 30.87 42.19 30.88H42.2C42.43 30.98 42.45 31.24 42.44 31.37C42.45 31.54 42.51 31.66 42.61 31.74C42.77 31.86 43 31.82 43.03 31.81C43.13 31.76 43.19 31.7 43.22 31.61C43.26 31.45 43.16 31.26 43.1 31.16C43.08 31.14 43.07 31.12 43.05 31.09C43.03 31.06 43.04 31.03 43.07 31.01C43.1 30.99 43.13 31 43.15 31.02C43.15 31.03 43.17 31.05 43.19 31.09ZM43.31 31.34C43.32 31.36 43.32 31.38 43.33 31.4C43.34 31.39 43.34 31.37 43.35 31.36C43.34 31.36 43.33 31.35 43.31 31.34Z" fill="black"/>
<path d="M36.9199 27.53L36.3199 22.75L36.4399 22.74L37.0399 27.52L36.9199 27.53ZM37.1299 27.2L36.4699 22.74L36.5799 22.72L36.6999 22.7L37.4799 27.12L37.3599 27.14L36.6299 23.01L37.2499 27.18L37.1299 27.2Z" fill="black"/>
<path d="M37.86 26.75L38.08 26.68L36.68 21.88H36.63L37.86 26.75Z" fill="#784421"/>
<path d="M37.8201 26.83L36.5601 21.82H36.7301L38.1601 26.72L37.8201 26.83ZM37.1701 23.78L37.9001 26.67L38.0001 26.64L37.1701 23.78Z" fill="black"/>
<path d="M38.28 26.3L36.92 22.6L37.02 22.57L37.01 22.55L37.13 22.51L38.54 26.06L38.42 26.1L37.27 23.21L38.4 26.26L38.28 26.3Z" fill="black"/>
<path d="M34.76 32.16C34.76 32.16 34.59 32.01 34.62 31.73C34.62 31.73 34.62 31.67 34.59 31.66C34.59 31.66 34.56 31.65 34.56 31.72C34.56 31.72 34.51 32.01 34.71 32.17C34.71 32.17 34.72 32.2 34.75 32.19C34.75 32.19 34.77 32.19 34.76 32.16Z" fill="white"/>
<path d="M37.5899 27.06L36.6899 22.69L36.8099 22.67L37.7099 27.04L37.5899 27.06ZM38.5299 25.74L37.0999 22.5L37.2099 22.45L38.6399 25.69L38.5299 25.74Z" fill="black"/>
<path d="M44 25.9C43.37 25.54 43.23 24.76 43.23 24.76C43.14 24.28 43.2 23.78 43.39 23.33C43.79 22.47 44.5 22.3 44.5 22.3C44.5 22.3 43.81 22.78 43.62 23.42C43.62 23.42 43.48 23.97 43.56 24.49C43.64 25.04 43.61 24.9 43.74 25.32L44 25.92V25.9Z" fill="#F5CE00"/>
<path d="M43.97 25.95C43.96 25.95 43.96 25.94 43.95 25.94H43.94V25.93C43.32 25.55 43.18 24.8 43.17 24.77C43.08 24.27 43.13 23.77 43.33 23.31C43.74 22.43 44.45 22.25 44.48 22.25L44.53 22.36C44.52 22.36 43.85 22.84 43.67 23.45C43.67 23.45 43.53 23.99 43.61 24.49L43.64 24.67C43.68 24.96 43.68 24.96 43.75 25.17L43.79 25.31L44.03 25.86L44.05 25.87V25.92L43.97 25.94V25.95ZM44.11 22.56C43.89 22.71 43.63 22.95 43.45 23.36C43.26 23.8 43.21 24.28 43.29 24.75C43.29 24.76 43.4 25.35 43.85 25.72L43.69 25.34L43.64 25.2C43.57 24.98 43.57 24.97 43.53 24.68L43.5 24.5C43.42 23.97 43.56 23.43 43.56 23.41C43.66 23.06 43.9 22.76 44.11 22.56Z" fill="black"/>
<path d="M41.27 23.87L38.61 24.72L38.47 25.92C37.84 26.83 36.55 26.99 36.55 26.99L37.55 28.06L39.45 28.46L40.47 27.68L41.39 26.84C41.29 26.39 41.34 25.72 41.34 25.72C41.34 25.6 41.39 25.34 41.39 25.34C41.39 25.34 41.24 24.27 41.27 23.89V23.87Z" fill="#784421"/>
<path d="M39.46 28.52L37.51 28.11L37.5 28.1L36.42 26.94L36.54 26.93C36.55 26.93 37.8 26.76 38.41 25.9L38.55 24.68L41.33 23.79V23.89C41.3 24.26 41.45 25.32 41.45 25.33V25.34V25.35C41.45 25.35 41.4 25.61 41.4 25.72C41.4 25.73 41.35 26.39 41.45 26.83L41.46 26.86L40.51 27.72L39.46 28.52ZM37.58 28.01L39.43 28.4L40.43 27.64L41.32 26.83C41.23 26.38 41.27 25.75 41.28 25.73C41.28 25.62 41.32 25.4 41.33 25.35C41.31 25.24 41.2 24.37 41.21 23.96L38.67 24.77L38.53 25.95L38.52 25.96C37.99 26.73 37.01 26.98 36.67 27.04L37.58 28.01Z" fill="black"/>
<path d="M37.67 26.68L37.65 26.56C37.67 26.56 39.86 26.15 41.36 25.29L41.92 24.91L41.99 25.01L41.43 25.39C39.9 26.27 37.69 26.68 37.67 26.68ZM38.52 25.68L38.48 25.57C38.5 25.56 40.25 25.02 41.27 24.57L41.32 24.68C40.29 25.12 38.54 25.67 38.52 25.68Z" fill="black"/>
<path d="M38.4 27.56V27.44C39.43 27.44 41.29 26.48 41.31 26.47L41.37 26.58C41.29 26.61 39.46 27.56 38.4 27.56ZM37.03 26.94V26.82C38.82 26.78 41.19 25.73 41.32 25.67L41.92 25.23L41.99 25.33L41.38 25.78C41.35 25.79 38.89 26.9 37.03 26.94Z" fill="black"/>
<path d="M43.5801 23.8C43.5801 23.8 44.1401 23.55 44.4201 23.8C44.4201 23.8 44.7801 23.58 45.1801 23.8C45.1801 23.8 45.5401 24.04 45.8001 24.32C45.8001 24.32 45.9801 24.47 45.9201 24.96C45.9201 24.96 45.8201 25.31 45.8901 25.47C45.8901 25.47 46.0001 25.45 46.2401 25.75C46.2401 25.75 46.5701 26.1 46.8401 25.78C46.8401 25.78 46.7601 26.24 46.2401 26.16C46.2401 26.16 46.4801 26.36 46.2701 26.86C46.2701 26.86 46.1101 27.22 46.3701 27.68C46.3701 27.68 45.9101 27.5 45.9301 26.96C45.9301 26.96 45.9701 26.6 45.8301 26.36C45.8301 26.36 45.9701 26.58 45.6601 27.07C45.6601 27.07 45.4201 27.43 45.6201 27.79C45.6201 27.79 45.1701 27.63 45.2201 27.09C45.2501 26.55 45.5201 26.77 45.3501 26.27C45.3501 26.27 45.3101 26.53 45.1801 26.67C44.9801 26.84 44.8801 27.11 44.9401 27.37C44.9401 27.37 44.6801 27.03 44.7401 26.69C44.8001 26.34 44.8601 26.25 44.8601 26.25L44.0301 25.77L43.6101 25.02L43.5801 23.8Z" fill="#D40000"/>
<path d="M45.62 27.85C45.61 27.85 45.61 27.85 45.6 27.85C45.6 27.85 45.11 27.67 45.16 27.09C45.17 26.83 45.24 26.73 45.29 26.66C45.32 26.62 45.34 26.58 45.34 26.51C45.31 26.58 45.27 26.66 45.22 26.71C45.03 26.87 44.94 27.12 44.99 27.36C45 27.39 44.98 27.42 44.96 27.43C44.93 27.44 44.9 27.43 44.89 27.41C44.88 27.4 44.61 27.04 44.68 26.68C44.72 26.46 44.76 26.34 44.78 26.27L44 25.82C43.99 25.81 43.98 25.81 43.98 25.8L43.56 25.05C43.56 25.04 43.55 25.03 43.55 25.02L43.52 23.8C43.52 23.78 43.53 23.75 43.56 23.74C43.58 23.73 44.12 23.49 44.43 23.72C44.54 23.67 44.86 23.54 45.21 23.74C45.23 23.75 45.58 23.99 45.85 24.27C45.85 24.27 46.05 24.44 45.99 24.96C45.96 25.05 45.91 25.28 45.95 25.41C46.02 25.43 46.13 25.49 46.3 25.71C46.3 25.71 46.44 25.86 46.6 25.85C46.68 25.85 46.74 25.81 46.81 25.74C46.83 25.72 46.86 25.71 46.88 25.72C46.9 25.73 46.92 25.76 46.91 25.78C46.91 25.78 46.83 26.22 46.37 26.22C46.43 26.34 46.47 26.55 46.33 26.87C46.32 26.88 46.19 27.21 46.43 27.64C46.44 27.66 46.44 27.69 46.42 27.71C46.4 27.73 46.38 27.74 46.35 27.73C46.35 27.73 45.85 27.53 45.87 26.95C45.87 26.95 45.88 26.87 45.87 26.76C45.84 26.85 45.79 26.96 45.71 27.09C45.7 27.1 45.49 27.43 45.67 27.75C45.68 27.77 45.68 27.8 45.66 27.82C45.65 27.84 45.64 27.85 45.62 27.85ZM45.35 26.21C45.38 26.21 45.4 26.23 45.41 26.25C45.51 26.54 45.47 26.62 45.4 26.72C45.35 26.78 45.3 26.87 45.29 27.09C45.26 27.39 45.4 27.56 45.51 27.65C45.43 27.33 45.61 27.05 45.62 27.04C45.89 26.61 45.79 26.41 45.79 26.39C45.77 26.36 45.78 26.33 45.81 26.31C45.84 26.29 45.87 26.3 45.89 26.32C45.89 26.32 45.89 26.33 45.9 26.33C46.05 26.58 46.01 26.95 46.01 26.97C46 27.26 46.13 27.43 46.25 27.53C46.11 27.14 46.23 26.86 46.23 26.84C46.42 26.39 46.22 26.22 46.22 26.21C46.2 26.19 46.19 26.16 46.2 26.14C46.21 26.12 46.24 26.1 46.26 26.11C46.5 26.15 46.63 26.06 46.7 25.97C46.67 25.98 46.63 25.99 46.6 25.99C46.39 26 46.21 25.81 46.21 25.81C46.01 25.55 45.91 25.55 45.91 25.55C45.88 25.55 45.86 25.54 45.85 25.51C45.77 25.34 45.87 25 45.88 24.96C45.93 24.53 45.78 24.38 45.78 24.38C45.52 24.1 45.17 23.87 45.17 23.86C44.81 23.66 44.49 23.85 44.47 23.86C44.45 23.87 44.42 23.87 44.4 23.85C44.19 23.66 43.78 23.8 43.66 23.85L43.69 25.01L44.09 25.73L44.91 26.2C44.92 26.21 44.93 26.22 44.94 26.24C44.94 26.26 44.94 26.27 44.93 26.29C44.93 26.29 44.87 26.38 44.82 26.71C44.79 26.86 44.84 27.02 44.89 27.14C44.91 26.95 45.01 26.77 45.16 26.64C45.27 26.52 45.31 26.28 45.31 26.28C45.29 26.23 45.32 26.21 45.35 26.21Z" fill="black"/>
<path d="M34.0599 26.84C34.0599 26.84 34.1399 26.47 34.4899 26.6C34.4899 26.6 34.6099 26 35.2599 25.98C35.9099 25.96 35.9399 26.62 35.9399 26.66C35.9399 26.66 36.1399 26.38 36.4499 26.41C36.4499 26.41 36.9999 26.38 36.8099 27.26L36.9099 27.38C36.9099 27.38 37.3199 26.39 38.1799 26.64C38.1799 26.64 39.0199 26.9 38.4799 27.71C38.4799 27.71 38.8999 28.26 39.2399 28.21C39.5999 28.16 39.9099 28.05 40.2599 27.43C40.6199 26.81 41.4299 26.71 41.6299 26.75C41.8299 26.78 41.9999 26.93 42.0299 27.07C42.0299 27.07 42.4599 25.64 44.0099 25.85L44.6299 26.18L44.8699 26.28L44.5099 27.28L43.6699 29.2L43.0099 29.4L42.3299 29.01L42.0899 29.13V29.72L41.1899 30.36L40.5699 30.61L39.8899 31.09L39.7199 31.51C39.7199 31.51 39.3499 31.34 38.9199 31.51L38.7799 31.15L38.3799 30.78L36.8199 30.04L36.5499 29.14L36.2599 29.01L35.9399 29.37L35.4899 29.43L34.7899 28.95L34.0499 26.85L34.0599 26.84Z" fill="white"/>
<path d="M39.75 31.59L39.69 31.56C39.69 31.56 39.34 31.4 38.94 31.56L38.88 31.58L38.72 31.18L38.34 30.83L36.76 30.08L36.49 29.18L36.27 29.08L35.96 29.42L35.46 29.49L34.72 28.99L34.71 28.97L33.96 26.83L33.99 26.8C34 26.75 34.05 26.61 34.18 26.54C34.25 26.5 34.34 26.49 34.43 26.51C34.48 26.35 34.68 25.92 35.24 25.91C35.45 25.9 35.62 25.96 35.75 26.09C35.89 26.22 35.94 26.4 35.96 26.52C36.06 26.43 36.22 26.33 36.43 26.35C36.43 26.35 36.62 26.34 36.75 26.5C36.88 26.65 36.91 26.9 36.84 27.24L36.86 27.27C36.99 27.03 37.42 26.37 38.16 26.58C38.18 26.59 38.54 26.7 38.65 27.02C38.72 27.22 38.68 27.45 38.52 27.71C38.65 27.87 38.96 28.19 39.2 28.15C39.53 28.1 39.83 28.02 40.18 27.4C40.57 26.73 41.42 26.65 41.61 26.69C41.76 26.71 41.91 26.8 41.99 26.92C42.15 26.56 42.69 25.62 43.98 25.79L44 25.8L44.62 26.13L44.91 26.25L44.53 27.3L43.68 29.25L42.97 29.47L42.3 29.08L42.12 29.17V29.75L41.18 30.41L40.57 30.66L39.91 31.13L39.75 31.59ZM36.87 30L38.42 30.74L38.83 31.12L38.95 31.44C39.28 31.33 39.56 31.4 39.68 31.44L39.83 31.06L40.54 30.56L41.15 30.31L42.02 29.69V29.09L42.32 28.94L43.01 29.33L43.62 29.15L44.45 27.26L44.79 26.32L44.6 26.24L43.98 25.91C42.51 25.72 42.09 27.03 42.08 27.09L42.01 27.31L41.96 27.08C41.94 26.97 41.79 26.83 41.61 26.81C41.44 26.78 40.65 26.86 40.3 27.46C39.93 28.12 39.58 28.22 39.24 28.27C38.87 28.32 38.44 27.77 38.42 27.75L38.39 27.72L38.41 27.68C38.57 27.44 38.62 27.24 38.56 27.06C38.47 26.8 38.15 26.7 38.15 26.7C37.35 26.47 36.97 27.37 36.95 27.41L36.91 27.5L36.73 27.28L36.74 27.25C36.81 26.94 36.79 26.71 36.68 26.58C36.58 26.47 36.45 26.47 36.44 26.47C36.16 26.44 35.98 26.69 35.98 26.69L35.87 26.84V26.65C35.87 26.65 35.86 26.36 35.68 26.17C35.58 26.07 35.43 26.02 35.26 26.03C34.66 26.05 34.55 26.6 34.55 26.6L34.54 26.67L34.47 26.65C34.38 26.62 34.31 26.62 34.25 26.65C34.15 26.71 34.11 26.85 34.11 26.85V26.86L34.83 28.91L35.49 29.37L35.89 29.32L36.22 28.94L36.58 29.1L36.87 30Z" fill="#00247D"/>
<path d="M40.19 20.4C40.18 20.2 40.23 20.03 40.35 19.92C40.54 19.73 40.81 19.74 40.82 19.74V19.86C40.82 19.86 40.58 19.85 40.43 20.01C40.34 20.1 40.3 20.23 40.31 20.4H40.19Z" fill="black"/>
<path d="M44.7001 26.33C43.6801 26.01 43.4001 24.9 43.4001 24.9C43.2801 24.38 43.3201 23.84 43.5201 23.35C44.0001 22.25 44.7901 22.25 44.7901 22.25C45.0001 22.22 45.2001 22.36 45.2401 22.57C45.2801 22.81 45.1101 22.9 45.1101 22.9C44.8401 23.05 44.6601 22.85 44.6601 22.85C44.5401 22.69 44.6301 22.56 44.6301 22.56C44.7001 22.46 44.8301 22.52 44.8301 22.52C44.9601 22.54 44.9301 22.68 44.9301 22.68C44.9301 22.68 44.9701 22.52 44.8101 22.5C44.8101 22.5 44.4901 22.43 44.1301 22.88C44.1301 22.88 43.6601 23.49 43.6601 24.29C43.6601 24.29 43.6001 25.77 45.1301 26.15C45.1301 26.15 44.9701 26.39 44.6701 27.26C44.6701 27.26 44.3401 28.38 44.0301 28.99C44.0301 28.99 43.6001 29.85 42.6401 29.5C42.6401 29.5 42.0801 29.25 42.0801 28.85C42.0801 28.85 42.0501 28.47 42.3801 28.45C42.3801 28.45 42.7101 28.42 42.7101 28.7C42.7101 28.7 42.7101 29 42.3601 28.94C42.3601 28.94 42.2401 28.91 42.2501 28.79C42.2501 28.79 42.2701 28.67 42.4301 28.73C42.5801 28.79 42.4301 28.73 42.4301 28.72C42.4301 28.72 42.3701 28.69 42.3101 28.72C42.3101 28.72 42.2501 28.72 42.2501 28.82C42.2501 28.82 42.2501 28.88 42.3201 28.93L42.4901 28.95C42.4901 28.95 42.5901 29.15 42.7901 29.22C43.0301 29.29 43.3001 29.25 43.5001 29.1C43.6301 28.98 43.7401 28.84 43.8001 28.67C44.0001 28.23 44.1801 27.78 44.3201 27.32C44.3201 27.32 44.5001 26.75 44.6601 26.45L44.7001 26.33Z" fill="#F5CE00"/>
<path d="M43.08 29.64C42.94 29.64 42.79 29.61 42.62 29.55C42.59 29.54 42.02 29.28 42.02 28.84C42.02 28.84 42 28.63 42.12 28.5C42.18 28.43 42.27 28.39 42.37 28.38C42.38 28.38 42.56 28.36 42.67 28.47C42.73 28.52 42.76 28.6 42.76 28.69C42.76 28.7 42.76 28.84 42.65 28.93C42.63 28.95 42.6 28.97 42.57 28.98C42.61 29.04 42.69 29.12 42.8 29.16C43.02 29.23 43.27 29.19 43.45 29.05C43.57 28.94 43.67 28.8 43.73 28.65C43.93 28.21 44.11 27.76 44.25 27.3C44.26 27.28 44.43 26.73 44.59 26.42L44.61 26.36C43.62 26.01 43.34 24.95 43.33 24.91C43.2 24.38 43.25 23.83 43.45 23.32C43.94 22.2 44.74 22.18 44.78 22.18C45.02 22.15 45.24 22.31 45.2901 22.55C45.34 22.83 45.14 22.94 45.13 22.94C44.88 23.08 44.68 22.96 44.61 22.88C44.52 22.77 44.5201 22.66 44.5401 22.6C44.44 22.65 44.31 22.74 44.17 22.91C44.17 22.92 43.71 23.51 43.71 24.28C43.71 24.34 43.67 25.72 45.13 26.08L45.21 26.1L45.16 26.17C45.16 26.17 45 26.42 44.71 27.27C44.71 27.28 44.38 28.4 44.07 29.01C44.08 29.02 43.76 29.64 43.08 29.64ZM42.41 28.51C42.4 28.51 42.39 28.51 42.39 28.51C42.31 28.51 42.26 28.54 42.22 28.59C42.13 28.69 42.15 28.85 42.15 28.85C42.15 29.21 42.67 29.45 42.67 29.45C43.56 29.78 43.97 29 43.98 28.97C44.28 28.37 44.61 27.26 44.62 27.25C44.84 26.62 44.98 26.32 45.05 26.2C43.57 25.78 43.61 24.31 43.61 24.3C43.61 23.49 44.0701 22.88 44.09 22.86C44.47 22.39 44.82 22.45 44.83 22.46C44.9 22.47 44.95 22.51 44.97 22.54C45.02 22.61 45 22.7 45 22.71L44.88 22.68C44.88 22.67 44.88 22.63 44.87 22.61C44.87 22.61 44.86 22.59 44.83 22.59H44.81C44.8 22.59 44.72 22.55 44.68 22.61C44.67 22.62 44.62 22.71 44.71 22.83C44.71 22.83 44.86 22.99 45.08 22.86C45.09 22.86 45.21 22.78 45.18 22.59C45.15 22.41 44.98 22.29 44.8 22.32C44.76 22.32 44.03 22.34 43.58 23.38C43.38 23.86 43.34 24.38 43.46 24.89C43.46 24.9 43.74 25.97 44.72 26.28L44.78 26.3L44.72 26.49C44.56 26.78 44.39 27.34 44.38 27.35C44.24 27.81 44.06 28.27 43.86 28.71C43.8 28.88 43.69 29.04 43.54 29.16C43.3201 29.32 43.03 29.37 42.77 29.29C42.6 29.23 42.49 29.08 42.45 29.02C42.42 29.02 42.38 29.02 42.35 29.01C42.34 29.01 42.33 29.01 42.32 29H42.29L42.28 28.99C42.19 28.92 42.18 28.84 42.18 28.83C42.18 28.82 42.18 28.81 42.18 28.79C42.18 28.79 42.18 28.77 42.19 28.76C42.21 28.7 42.25 28.67 42.28 28.67C42.36 28.64 42.43 28.67 42.44 28.67L42.47 28.69C42.48 28.69 42.49 28.7 42.49 28.7C42.55 28.73 42.54 28.77 42.53 28.78C42.51 28.82 42.49 28.82 42.45 28.81C42.43 28.8 42.42 28.8 42.39 28.79C42.36 28.78 42.33 28.77 42.32 28.78L42.31 28.79C42.3 28.79 42.3 28.8 42.3 28.8C42.3 28.81 42.3 28.82 42.3 28.83C42.3 28.83 42.3 28.84 42.31 28.86C42.32 28.87 42.33 28.88 42.34 28.89L42.46 28.9C42.51 28.9 42.54 28.88 42.57 28.86C42.63 28.81 42.64 28.71 42.64 28.71C42.64 28.65 42.62 28.61 42.59 28.58C42.54 28.52 42.45 28.51 42.41 28.51Z" fill="black"/>
<path d="M41.8 29.14C41.8 29.14 42 29.12 42 29.29C42 29.29 41.99 29.53 41.68 29.48C41.68 29.48 41.38 29.42 41.48 29.08C41.48 29.08 41.56 28.85 41.84 28.88C41.84 28.88 42.12 28.88 42.24 29.26C42.24 29.26 42.34 29.59 42.17 29.86C41.99 30.16 41.55 30.36 41.33 30.46C41.33 30.46 40.46 30.79 40.2 30.99C40.2 30.99 39.8 31.28 39.98 31.55C39.98 31.55 40.05 31.66 40.15 31.66C40.15 31.66 40.27 31.66 40.28 31.54C40.28 31.54 40.28 31.61 40.21 31.64C40.21 31.64 40.13 31.68 40.04 31.61C40.04 31.61 39.94 31.51 40.02 31.37C40.02 31.37 40.12 31.21 40.38 31.31C40.38 31.31 40.58 31.42 40.5 31.64C40.5 31.64 40.41 31.85 40.16 31.84C40.16 31.84 39.97 31.84 39.84 31.72C39.64 31.51 39.64 31.12 39.82 30.92C39.82 30.92 39.97 30.71 40.29 30.56L41.19 30.21C41.45 30.1 41.68 29.98 41.83 29.8C41.83 29.8 41.96 29.66 42.01 29.4C42.01 29.4 42.05 29.2 41.93 29.16L41.81 29.13L41.8 29.14Z" fill="#F5CE00"/>
<path d="M40.18 31.9C40.17 31.9 40.17 31.9 40.16 31.9C40.15 31.9 39.95 31.9 39.8 31.76C39.58 31.53 39.57 31.1 39.78 30.88C39.78 30.88 39.94 30.66 40.27 30.51L41.17 30.16C41.4 30.06 41.64 29.95 41.79 29.77C41.79 29.77 41.87 29.68 41.92 29.52C41.85 29.55 41.77 29.56 41.67 29.55C41.66 29.55 41.52 29.52 41.45 29.39C41.4 29.3 41.39 29.2 41.43 29.07C41.46 28.97 41.6 28.8 41.85 28.83C41.86 28.83 42.17 28.83 42.3 29.25C42.3 29.27 42.41 29.61 42.22 29.9C42.03 30.21 41.57 30.42 41.35 30.52C41.34 30.52 40.48 30.85 40.23 31.04C40.23 31.04 40.08 31.15 40.02 31.28C40.08 31.23 40.2 31.18 40.4 31.25C40.49 31.3 40.63 31.44 40.55 31.66C40.55 31.67 40.45 31.9 40.18 31.9ZM41.93 29.1H41.95C42.09 29.15 42.09 29.32 42.07 29.41C42.02 29.68 41.88 29.83 41.88 29.84C41.72 30.04 41.47 30.16 41.22 30.26L40.32 30.61C40.02 30.75 39.88 30.95 39.88 30.95C39.71 31.14 39.72 31.49 39.89 31.67C40 31.77 40.16 31.77 40.17 31.77C40.38 31.78 40.45 31.61 40.45 31.61C40.51 31.45 40.37 31.37 40.36 31.36C40.16 31.28 40.08 31.4 40.08 31.4C40.03 31.5 40.09 31.56 40.09 31.57C40.14 31.61 40.19 31.59 40.19 31.59C40.21 31.58 40.22 31.57 40.22 31.56C40.22 31.55 40.22 31.55 40.22 31.54H40.34C40.34 31.55 40.34 31.57 40.33 31.59C40.3 31.69 40.21 31.72 40.15 31.72C40.02 31.72 39.94 31.6 39.93 31.58C39.72 31.27 40.15 30.95 40.17 30.94C40.43 30.74 41.28 30.42 41.31 30.4C41.52 30.31 41.95 30.11 42.12 29.83C42.27 29.59 42.18 29.28 42.18 29.28C42.08 28.95 41.85 28.94 41.84 28.94C41.61 28.92 41.54 29.09 41.54 29.1C41.51 29.19 41.52 29.26 41.55 29.32C41.6 29.4 41.69 29.42 41.69 29.42C41.78 29.43 41.84 29.42 41.88 29.39C41.93 29.35 41.93 29.29 41.93 29.29C41.93 29.27 41.92 29.24 41.91 29.23C41.9 29.22 41.89 29.22 41.88 29.21L41.83 29.2C41.81 29.2 41.8 29.2 41.79 29.2L41.78 29.19V29.18L41.74 29.1L41.77 29.07L41.85 29.09C41.89 29.09 41.91 29.09 41.93 29.1Z" fill="black"/>
<path d="M42.1899 29.62C42.1799 29.55 42.1299 29.43 42.1199 29.39C42.0099 29.18 41.8399 29.2 41.8399 29.2L41.8199 29.08C41.8299 29.08 42.0699 29.03 42.2299 29.33C42.2299 29.34 42.3099 29.49 42.3199 29.6L42.1899 29.62ZM42.5299 29.51C42.5199 29.5 42.5099 29.49 42.4899 29.48C42.4099 29.42 42.2599 29.32 42.1699 29.07C42.1199 28.94 42.1199 28.83 42.1699 28.75C42.2199 28.66 42.3099 28.65 42.3199 28.65L42.3399 28.77L42.3299 28.71L42.3399 28.77C42.3399 28.77 42.2999 28.78 42.2799 28.82C42.2499 28.87 42.2599 28.94 42.2899 29.03C42.3699 29.24 42.4999 29.33 42.5699 29.38C42.5899 29.4 42.6099 29.41 42.6199 29.42L42.5299 29.51Z" fill="black"/>
<path d="M38.16 20.44C38.16 20.44 38.16 20.52 38.26 20.54C38.26 20.54 38.34 20.56 38.39 20.45V20.42C38.39 20.37 38.42 20.22 38.27 20.09C38.27 20.09 37.99 19.88 37.49 20.14C37.49 20.14 37.09 20.34 36.82 20.5C36.82 20.5 36.11 20.88 36.02 20.9C36.02 20.9 35.7 21.06 35.22 21.08C35.22 21.08 34.57 21.13 34.3 20.67C34.3 20.67 34.08 20.32 34.3 20.09C34.3 20.09 34.38 19.99 34.52 20.01C34.58 20.02 34.64 20.05 34.7 20.13C34.7 20.13 34.8 20.27 34.69 20.38C34.69 20.38 34.53 20.48 34.47 20.28C34.47 20.3 34.44 20.44 34.52 20.58C34.52 20.58 34.92 21.17 36 20.55L37.43 19.75C37.43 19.75 38.15 19.38 38.59 19.95C38.59 19.95 38.93 20.43 38.49 20.75C38.49 20.75 38.16 20.95 37.94 20.63C37.94 20.63 37.78 20.33 38.04 20.19C38.04 20.19 38.28 20.07 38.39 20.31C38.49 20.55 38.19 20.61 38.16 20.44C38.17 20.44 38.17 20.4 38.16 20.44ZM34.64 25.91C35.27 25.56 35.42 24.76 35.42 24.76C35.56 23.96 35.25 23.33 35.25 23.33C34.85 22.47 34.15 22.3 34.15 22.3C34.15 22.3 34.83 22.78 35.02 23.42C35.02 23.42 35.18 23.97 35.08 24.49C35 25.04 35.03 24.9 34.9 25.32L34.64 25.91Z" fill="#F5CE00"/>
<path d="M34.67 25.96L34.59 25.88L34.85 25.29L34.89 25.16C34.96 24.95 34.96 24.95 35 24.65L35.03 24.47C35.13 23.97 34.97 23.43 34.97 23.43C34.79 22.82 34.13 22.35 34.12 22.34L34.17 22.23C34.2 22.24 34.9 22.42 35.31 23.29C35.32 23.32 35.63 23.95 35.48 24.76C35.47 24.8 35.32 25.6 34.67 25.96ZM34.54 22.56C34.74 22.77 34.98 23.06 35.08 23.4C35.09 23.42 35.24 23.97 35.14 24.5L35.12 24.67C35.08 24.97 35.08 24.97 35.01 25.19L34.97 25.33L34.79 25.74C35.25 25.37 35.37 24.75 35.37 24.74C35.5 23.97 35.21 23.35 35.21 23.35C35.01 22.95 34.75 22.71 34.54 22.56ZM35.16 21.14C34.98 21.14 34.49 21.1 34.25 20.7C34.24 20.69 34.01 20.31 34.26 20.05C34.26 20.05 34.36 19.93 34.53 19.95C34.62 19.96 34.69 20.01 34.75 20.09C34.8 20.15 34.85 20.3 34.73 20.42L34.72 20.43C34.71 20.44 34.63 20.49 34.54 20.45C34.54 20.45 34.54 20.45 34.53 20.45C34.54 20.48 34.55 20.52 34.57 20.55C34.58 20.57 34.95 21.08 35.97 20.5L37.4 19.7C37.41 19.7 38.17 19.31 38.64 19.92C38.77 20.1 38.91 20.52 38.53 20.81C38.39 20.89 38.09 20.97 37.9 20.68C37.83 20.55 37.77 20.29 38.02 20.15C38.02 20.15 38.09 20.12 38.17 20.11C38.06 20.07 37.85 20.04 37.53 20.2C37.53 20.2 37.13 20.4 36.86 20.56C36.74 20.62 36.17 20.93 36.05 20.96C36 20.98 35.69 21.12 35.23 21.14C35.22 21.14 35.2 21.14 35.16 21.14ZM34.48 20.07C34.39 20.07 34.34 20.13 34.34 20.13C34.15 20.33 34.34 20.64 34.34 20.64C34.59 21.06 35.2 21.02 35.2 21.02C35.66 21 35.97 20.85 35.98 20.85H35.99C36.05 20.84 36.48 20.61 36.77 20.46C37.04 20.3 37.44 20.1 37.44 20.1C37.97 19.83 38.27 20.05 38.28 20.06C38.38 20.15 38.41 20.24 38.42 20.31C38.46 20.41 38.45 20.49 38.39 20.55C38.37 20.57 38.34 20.59 38.31 20.6C38.27 20.62 38.24 20.62 38.21 20.61C38.1 20.59 38.06 20.5 38.06 20.45V20.44C38.08 20.38 38.11 20.37 38.13 20.38C38.15 20.38 38.19 20.39 38.19 20.46C38.19 20.47 38.2 20.49 38.22 20.49C38.23 20.49 38.24 20.49 38.26 20.49C38.27 20.48 38.28 20.47 38.29 20.45V20.43C38.29 20.42 38.29 20.41 38.29 20.4C38.29 20.38 38.29 20.36 38.29 20.33C38.27 20.28 38.23 20.25 38.19 20.23C38.11 20.2 38.02 20.24 38.02 20.24C37.82 20.35 37.93 20.57 37.95 20.6C38.13 20.86 38.4 20.7 38.42 20.7C38.8 20.42 38.51 20 38.5 19.99C38.1 19.47 37.44 19.79 37.42 19.81L35.99 20.61C34.88 21.25 34.45 20.65 34.43 20.62C34.35 20.48 34.36 20.34 34.37 20.29L34.49 20.27C34.5 20.3 34.52 20.34 34.54 20.35C34.57 20.36 34.6 20.35 34.61 20.34C34.67 20.27 34.61 20.18 34.61 20.17C34.56 20.1 34.51 20.08 34.47 20.07C34.5 20.07 34.49 20.07 34.48 20.07Z" fill="black"/>
<path d="M38.46 20.4L38.34 20.39C38.35 20.22 38.31 20.09 38.22 20C38.07 19.85 37.84 19.86 37.84 19.86V19.74C37.85 19.74 38.13 19.73 38.31 19.92C38.42 20.04 38.47 20.2 38.46 20.4Z" fill="black"/>
<path d="M33.93 26.33C34.96 26.01 35.23 24.9 35.23 24.9C35.36 24.38 35.32 23.84 35.12 23.35C34.64 22.25 33.85 22.25 33.85 22.25C33.64 22.22 33.44 22.36 33.4 22.57C33.37 22.81 33.53 22.9 33.53 22.9C33.81 23.05 33.99 22.85 33.99 22.85C34.1 22.69 34.01 22.56 34.01 22.56C33.94 22.46 33.81 22.52 33.81 22.52C33.69 22.54 33.71 22.68 33.71 22.68C33.71 22.68 33.68 22.52 33.83 22.5C33.83 22.5 34.15 22.43 34.51 22.88C34.51 22.88 34.99 23.49 34.99 24.29C34.99 24.29 35.05 25.77 33.51 26.15C33.51 26.15 33.68 26.39 33.97 27.26C33.97 27.26 34.31 28.38 34.63 28.99C34.63 28.99 35.05 29.85 36 29.5C36 29.5 36.56 29.25 36.56 28.85C36.56 28.85 36.6 28.47 36.26 28.45C36.26 28.45 35.93 28.42 35.93 28.7C35.93 28.7 35.93 29 36.29 28.94C36.29 28.94 36.41 28.91 36.39 28.79C36.39 28.79 36.37 28.67 36.22 28.73C36.06 28.79 36.22 28.73 36.22 28.72C36.22 28.72 36.27 28.69 36.33 28.72C36.33 28.72 36.39 28.72 36.39 28.82C36.39 28.82 36.39 28.88 36.32 28.93L36.17 28.95C36.17 28.95 36.07 29.15 35.85 29.22C35.61 29.3 35.35 29.25 35.15 29.1C35.02 28.98 34.91 28.84 34.85 28.67C34.64 28.23 34.47 27.78 34.32 27.32C34.32 27.32 34.14 26.75 34 26.45L33.94 26.33H33.93Z" fill="#F5CE00"/>
<path d="M35.57 29.64C34.9 29.64 34.58 29.02 34.58 29.01C34.26 28.4 33.92 27.28 33.92 27.27C33.64 26.43 33.47 26.18 33.47 26.18L33.42 26.11L33.5 26.09C34.97 25.73 34.94 24.35 34.93 24.29C34.93 23.52 34.47 22.92 34.46 22.91C34.32 22.74 34.2 22.65 34.09 22.6C34.11 22.67 34.11 22.77 34.03 22.88C33.95 22.97 33.75 23.09 33.49 22.95C33.48 22.94 33.29 22.84 33.33 22.56C33.38 22.31 33.61 22.15 33.85 22.19C33.88 22.19 34.68 22.2 35.17 23.33C35.37 23.84 35.41 24.39 35.28 24.92C35.27 24.97 35 26.01 34.01 26.37L34.04 26.43C34.18 26.73 34.36 27.29 34.36 27.31C34.51 27.77 34.68 28.22 34.89 28.65C34.95 28.81 35.05 28.95 35.17 29.06C35.35 29.2 35.59 29.24 35.81 29.17C35.93 29.13 36.01 29.05 36.05 29C36.01 28.99 35.98 28.97 35.95 28.95C35.84 28.86 35.84 28.72 35.84 28.71C35.84 28.62 35.87 28.54 35.93 28.49C36.05 28.38 36.23 28.4 36.24 28.4C36.35 28.41 36.44 28.45 36.5 28.52C36.62 28.66 36.6 28.86 36.6 28.87C36.6 29.3 36.03 29.56 36 29.57C35.86 29.62 35.7 29.64 35.57 29.64ZM33.6 26.19C33.67 26.31 33.82 26.62 34.02 27.24C34.02 27.25 34.36 28.36 34.68 28.96C34.7 28.99 35.09 29.77 35.98 29.44C35.98 29.44 36.5 29.2 36.5 28.85C36.5 28.84 36.52 28.68 36.43 28.59C36.39 28.54 36.33 28.52 36.25 28.51C36.25 28.51 36.11 28.5 36.03 28.57C36 28.6 35.98 28.64 35.98 28.7C35.98 28.7 35.98 28.79 36.05 28.84C36.08 28.87 36.12 28.88 36.18 28.88L36.29 28.87C36.32 28.84 36.32 28.82 36.32 28.82C36.32 28.81 36.32 28.8 36.32 28.79L36.31 28.78H36.3C36.29 28.78 36.26 28.78 36.24 28.79C36.15 28.82 36.11 28.84 36.09 28.78C36.08 28.77 36.07 28.72 36.13 28.7C36.14 28.7 36.15 28.69 36.16 28.69L36.19 28.67C36.2 28.67 36.26 28.63 36.34 28.66H36.35C36.38 28.67 36.42 28.69 36.44 28.74C36.45 28.76 36.45 28.77 36.45 28.77C36.47 28.86 36.42 28.93 36.36 28.96C36.36 28.96 36.35 28.96 36.35 28.97L36.34 28.98H36.33C36.32 28.98 36.31 28.99 36.3 28.99C36.27 29 36.23 29 36.2 29C36.16 29.06 36.05 29.21 35.86 29.27C35.6 29.36 35.32 29.31 35.1 29.14C34.96 29.02 34.85 28.86 34.78 28.68C34.58 28.24 34.4 27.79 34.25 27.33C34.25 27.32 34.07 26.76 33.93 26.47L33.87 26.35L33.91 26.33L33.9 26.26C34.88 25.95 35.16 24.88 35.16 24.87C35.28 24.36 35.25 23.84 35.05 23.36C34.59 22.31 33.87 22.3 33.84 22.3C33.65 22.27 33.48 22.39 33.45 22.57C33.43 22.76 33.55 22.83 33.55 22.84C33.78 22.96 33.93 22.81 33.94 22.8C34.02 22.68 33.96 22.59 33.95 22.58C33.91 22.52 33.83 22.56 33.82 22.56H33.81C33.75 22.57 33.76 22.64 33.76 22.65L33.64 22.67C33.64 22.66 33.62 22.57 33.68 22.5C33.7 22.47 33.74 22.43 33.82 22.42C33.83 22.42 34.18 22.35 34.55 22.82C34.57 22.85 35.04 23.46 35.04 24.27C35.05 24.3 35.09 25.77 33.6 26.19Z" fill="black"/>
<path d="M36.85 29.14C36.85 29.14 36.65 29.12 36.65 29.29C36.65 29.29 36.65 29.53 36.97 29.48C36.97 29.48 37.27 29.42 37.16 29.08C37.16 29.08 37.09 28.85 36.8 28.88C36.8 28.88 36.53 28.88 36.4 29.26C36.4 29.26 36.31 29.59 36.48 29.86C36.66 30.16 37.1 30.36 37.31 30.46C37.31 30.46 38.18 30.79 38.45 30.99C38.45 30.99 38.84 31.28 38.66 31.55C38.66 31.55 38.6 31.66 38.49 31.66C38.49 31.66 38.37 31.66 38.36 31.54C38.36 31.54 38.36 31.61 38.43 31.64C38.43 31.64 38.52 31.68 38.6 31.61C38.6 31.61 38.7 31.51 38.62 31.37C38.62 31.37 38.52 31.21 38.28 31.31C38.28 31.31 38.06 31.42 38.16 31.64C38.16 31.64 38.23 31.85 38.48 31.84C38.48 31.84 38.68 31.84 38.8 31.72C39 31.51 39 31.12 38.84 30.92C38.84 30.92 38.67 30.71 38.36 30.56C38.17 30.5 37.81 30.35 37.46 30.21C37.19 30.1 36.96 29.98 36.81 29.8C36.81 29.8 36.68 29.66 36.63 29.4C36.63 29.4 36.6 29.2 36.72 29.16L36.84 29.13L36.85 29.14Z" fill="#F5CE00"/>
<path d="M38.46 31.9C38.24 31.9 38.13 31.74 38.1 31.66C38 31.45 38.16 31.3 38.25 31.26C38.42 31.19 38.54 31.23 38.61 31.28C38.55 31.14 38.41 31.04 38.41 31.04C38.15 30.85 37.29 30.52 37.28 30.52L37.25 30.51C37.02 30.4 36.6 30.2 36.42 29.9C36.24 29.61 36.33 29.27 36.33 29.25C36.47 28.83 36.78 28.83 36.79 28.83C37.05 28.8 37.18 28.98 37.21 29.07C37.25 29.2 37.25 29.3 37.19 29.39C37.12 29.51 36.98 29.54 36.97 29.55C36.86 29.57 36.77 29.56 36.71 29.52C36.76 29.68 36.84 29.77 36.84 29.77C36.99 29.96 37.24 30.07 37.47 30.17L37.7 30.26C37.97 30.37 38.22 30.47 38.37 30.52C38.7 30.68 38.87 30.89 38.88 30.9C39.05 31.11 39.07 31.54 38.84 31.78C38.7 31.92 38.49 31.92 38.48 31.92C38.47 31.9 38.47 31.9 38.46 31.9ZM38.43 31.34C38.4 31.34 38.35 31.35 38.3 31.37C38.29 31.38 38.14 31.46 38.21 31.62C38.21 31.63 38.27 31.79 38.47 31.78C38.47 31.78 38.65 31.78 38.75 31.68C38.93 31.49 38.92 31.13 38.79 30.96C38.79 30.96 38.62 30.76 38.33 30.62C38.19 30.58 37.93 30.47 37.66 30.36L37.43 30.27C37.19 30.17 36.93 30.05 36.76 29.84C36.76 29.84 36.62 29.69 36.57 29.41C36.56 29.31 36.57 29.15 36.7 29.1H36.72C36.74 29.09 36.76 29.09 36.78 29.08L36.86 29.06L36.89 29.09L36.85 29.17V29.18H36.84V29.19C36.83 29.19 36.82 29.19 36.8 29.19L36.75 29.2C36.74 29.2 36.73 29.21 36.73 29.22C36.71 29.23 36.71 29.25 36.71 29.28C36.71 29.28 36.71 29.34 36.76 29.38C36.8 29.41 36.87 29.43 36.96 29.41C36.96 29.41 37.05 29.39 37.1 29.31C37.13 29.25 37.13 29.18 37.1 29.09C37.09 29.07 37.03 28.91 36.8 28.93C36.79 28.93 36.56 28.94 36.45 29.27C36.45 29.27 36.37 29.58 36.52 29.82C36.68 30.09 37.08 30.28 37.3 30.39L37.33 30.4C37.36 30.41 38.21 30.73 38.48 30.94C38.5 30.95 38.91 31.27 38.7 31.58C38.7 31.58 38.62 31.72 38.48 31.72C38.42 31.72 38.33 31.68 38.3 31.59C38.29 31.57 38.29 31.55 38.29 31.54H38.41C38.41 31.55 38.41 31.55 38.41 31.56C38.41 31.57 38.42 31.58 38.44 31.59C38.45 31.59 38.5 31.61 38.55 31.57C38.55 31.57 38.61 31.5 38.56 31.4C38.56 31.39 38.52 31.34 38.43 31.34Z" fill="black"/>
<path d="M36.45 29.62L36.33 29.6C36.35 29.49 36.42 29.34 36.42 29.34C36.57 29.04 36.82 29.08 36.83 29.09L36.81 29.21L36.82 29.15L36.81 29.21C36.8 29.21 36.64 29.18 36.53 29.4C36.53 29.39 36.47 29.53 36.45 29.62ZM36.11 29.52L36.03 29.43C36.04 29.42 36.06 29.41 36.08 29.4C36.16 29.35 36.29 29.26 36.38 29.04C36.41 28.95 36.42 28.88 36.39 28.83C36.37 28.79 36.32 28.78 36.32 28.78L36.34 28.66C36.35 28.66 36.44 28.68 36.5 28.77C36.55 28.85 36.55 28.95 36.5 29.08C36.39 29.34 36.24 29.44 36.16 29.5C36.13 29.5 36.12 29.51 36.11 29.52ZM35.94 23.53L35.82 23.5L35.88 23.51L35.82 23.5C35.82 23.5 35.88 23.21 35.57 22.75C35.56 22.72 35.34 22.27 35.24 21.99L35.35 21.95C35.45 22.22 35.67 22.69 35.67 22.69C36.01 23.2 35.94 23.52 35.94 23.53ZM36.52 23L36.22 22.32L35.99 21.66L36.1 21.62L36.33 22.28L36.63 22.96L36.52 23ZM39.82 20.44C39.34 20.11 38.87 20.4 38.85 20.41L38.79 20.31C38.8 20.31 39.35 19.96 39.9 20.34L39.82 20.44Z" fill="black"/>
<path d="M36.75 26.19C36.69 25.91 36.41 25.88 36.4 25.88C36.11 25.84 36.11 25.41 36.11 25.39C36.07 25.04 35.46 25.1 35.46 25.1L35.45 24.98C35.48 24.98 36.18 24.91 36.24 25.38C36.24 25.39 36.2499 25.73 36.4299 25.76C36.5599 25.77 36.8199 25.87 36.8799 26.17L36.75 26.19ZM35.87 25.81C35.74 25.72 35.62 25.54 35.62 25.54L35.72 25.47C35.72 25.47 35.84 25.63 35.95 25.72L35.87 25.81ZM36.67 25.49C36.63 25.36 36.4799 25.1 36.4799 25.09L36.5799 25.03C36.5899 25.04 36.74 25.31 36.79 25.45L36.67 25.49ZM38.22 25.03C38.06 24.75 38.12 24.24 38.12 24.22C38.16 23.44 37.86 23.28 37.85 23.28L37.9 23.17C37.92 23.18 38.2799 23.36 38.2299 24.23C38.2299 24.24 38.17 24.72 38.31 24.97L38.22 25.03ZM35.95 24.95C35.62 24.71 35.62 24.3 35.62 24.28C35.64 23.76 35.46 23.66 35.46 23.65L35.51 23.54C35.54 23.55 35.7499 23.67 35.7299 24.28C35.7299 24.28 35.73 24.65 36 24.85L35.95 24.95ZM36.36 24.39L36.24 24.38C36.26 24.06 36.0799 23.87 36.0799 23.86L36.17 23.78C36.17 23.8 36.38 24.02 36.36 24.39ZM37.54 22.32C37.38 22.23 37.22 22.01 37.21 22L37.31 21.93C37.31 21.93 37.46 22.13 37.6 22.21L37.54 22.32Z" fill="black"/>
<path d="M36.3099 22.66L36.3499 22.74C36.3499 22.74 36.9499 22.77 37.2599 22.36L37.2299 22.28C37.2299 22.28 36.6999 22.25 36.3299 22.66H36.3099Z" fill="#784421"/>
<path d="M36.38 22.8C36.36 22.8 36.35 22.8 36.35 22.8H36.32L36.22 22.6H36.31C36.69 22.19 37.22 22.22 37.24 22.22H37.28L37.34 22.37L37.32 22.4C37.02 22.77 36.52 22.8 36.38 22.8ZM37.19 22.34C37.07 22.34 36.68 22.38 36.39 22.68C36.52 22.68 36.95 22.65 37.19 22.34Z" fill="black"/>
<path d="M38.49 25.91L38.46 25.79C38.48 25.78 40.53 25.19 41.31 24.83L41.36 24.94C40.56 25.3 38.51 25.9 38.49 25.91Z" fill="black"/>
<path d="M38.25 22.05L38.23 21.99L39.24 21.59L39.27 21.67L38.25 22.05Z" fill="#784421"/>
<path d="M38.21 22.13L38.16 21.96L39.27 21.51L39.35 21.71L38.21 22.13Z" fill="black"/>
<path d="M39.2 27.19L39.08 26.8L39.19 26.77L39.27 27.04L39.44 26.98L39.36 26.73L39.47 26.69L39.59 27.06L39.2 27.19ZM39.98 26.95L39.86 26.59L39.97 26.55L40.05 26.79L40.22 26.74L40.14 26.5L40.25 26.46L40.37 26.82L39.98 26.95ZM38.99 25.43L38.97 25.35L38.96 25.31L38.93 25.16C38.72 25.22 38.58 25.25 38.56 25.26L38.53 25.14C38.54 25.14 38.68 25.1 38.9 25.04L38.89 25.02C38.71 25.08 38.6 25.11 38.59 25.11L38.56 24.99C38.56 24.99 38.68 24.95 38.87 24.9L38.75 24.31L38.64 24.34L38.66 24.71L38.54 24.72L38.52 24.25L38.73 24.19L38.29 22.02L38.41 22L38.85 24.16L38.91 24.14L38.41 21.99L38.53 21.96L39.03 24.1L39.09 24.08L38.54 21.93L38.66 21.9L39.21 24.05L39.84 23.86L38.89 21.82L39 21.77L39.96 23.82L40.06 23.79L39.04 21.78L39.14 21.73V21.72L39.25 21.66L40.37 23.69L41.11 23.47L41.45 23.28L41.6 23.65L41.49 23.69L41.4 23.45L41.37 23.47L41.49 23.75L41.38 23.8L41.27 23.53L41.24 23.55L41.35 23.87L41.24 23.91L41.13 23.6L41.08 23.61L41.21 23.9L41.1 23.95L40.97 23.65L40.88 23.68L41.01 23.95L40.9 24L40.76 23.72L40.66 23.75L40.79 24.05L40.68 24.1L40.54 23.78L40.44 23.81L40.6 24.1L40.49 24.16L40.32 23.85L40.24 23.87L40.38 24.15L40.27 24.2L40.12 23.9L40.01 23.93L40.15 24.23L40.04 24.28L39.89 23.97L39.75 24.01L39.86 24.33L39.75 24.37L39.64 24.05L39.24 24.17L39.39 24.74C39.93 24.57 40.65 24.32 41.28 24.07L41.32 24.18C40.69 24.43 39.96 24.68 39.42 24.85L39.43 24.89C40.05 24.71 40.83 24.47 41.25 24.26L41.3 24.37C40.87 24.58 40.08 24.83 39.46 25.01L39.51 25.19L39.53 25.26L38.99 25.43ZM39.04 25.13L39.07 25.28L39.16 25.25L39.13 25.11C39.1 25.11 39.07 25.12 39.04 25.13ZM39.24 25.07L39.27 25.21L39.36 25.18L39.32 25.04C39.3 25.06 39.27 25.06 39.24 25.07ZM39.01 24.98L39.02 25.01C39.05 25 39.08 24.99 39.11 24.99L39.1 24.96C39.06 24.96 39.04 24.97 39.01 24.98ZM39.21 24.92L39.22 24.96C39.25 24.95 39.27 24.94 39.3 24.94L39.29 24.9C39.26 24.9 39.23 24.91 39.21 24.92ZM38.86 24.28L38.98 24.87C39.01 24.86 39.03 24.85 39.06 24.84L38.92 24.26L38.86 24.28ZM39.04 24.22L39.18 24.8C39.21 24.79 39.23 24.78 39.26 24.78L39.11 24.21L39.04 24.22ZM39.18 21.82L40.16 23.76L40.23 23.74L39.18 21.82Z" fill="black"/>
<path d="M35.72 29.05C35.57 29.05 35.42 29 35.36 28.96C35.16 28.83 35.06 28.58 35.14 28.35C35.21 28.15 35.43 27.76 35.43 27.74L35.51 27.59C35.43 27.41 35.42 27.22 35.42 27.21L35.54 27.2C35.54 27.2 35.55 27.32 35.59 27.45L35.6 27.44V27.46C35.63 27.55 35.67 27.64 35.73 27.71L35.64 27.79C35.61 27.76 35.58 27.72 35.56 27.68L35.54 27.78C35.46 28.27 35.55 28.48 35.64 28.57C35.73 28.66 35.84 28.65 35.84 28.65L35.86 28.77C35.85 28.77 35.69 28.79 35.56 28.65C35.44 28.53 35.39 28.34 35.4 28.07C35.34 28.18 35.29 28.31 35.26 28.39C35.2 28.57 35.28 28.76 35.44 28.86C35.48 28.89 35.69 28.96 35.87 28.91C35.96 28.89 36.02 28.84 36.06 28.76L36.17 28.81C36.12 28.91 36.03 28.99 35.91 29.02C35.83 29.04 35.77 29.05 35.72 29.05ZM34.91 28.35C34.9 28.34 34.77 28.21 34.71 28.01C34.65 27.83 34.63 27.58 34.86 27.32C34.7 27.23 34.36 26.98 34.44 26.59L34.56 26.61C34.48 27 34.98 27.24 34.99 27.24L35.07 27.28L35.01 27.34C34.56 27.78 34.99 28.24 35.01 28.26L34.91 28.35ZM38.18 27.89C38.13 27.89 38.09 27.88 38.09 27.88C37.99 27.87 37.9 27.83 37.84 27.77C37.74 27.66 37.75 27.51 37.75 27.5C37.75 27.44 37.77 27.38 37.8 27.34C37.61 27.42 37.52 27.62 37.52 27.64L37.41 27.59C37.42 27.57 37.59 27.16 37.99 27.19L38.21 27.21L38.01 27.31C38 27.31 37.87 27.38 37.87 27.51C37.87 27.54 37.86 27.75 38.1 27.77C38.11 27.77 38.33 27.8 38.43 27.69L38.52 27.77C38.43 27.87 38.28 27.89 38.18 27.89ZM35.88 27.78C35.57 27.51 35.57 27.09 35.57 27.08H35.69C35.69 27.08 35.69 27.46 35.96 27.7L35.88 27.78ZM35.14 27.73C34.98 27.35 35.21 27.13 35.21 27.12L35.29 27.21C35.28 27.22 35.11 27.38 35.24 27.68L35.14 27.73ZM36.07 27.73C35.71 27.43 35.71 26.96 35.71 26.94H35.83C35.83 26.94 35.84 27.37 36.15 27.63L36.07 27.73Z" fill="#00247D"/>
<path d="M39.12 31.26C38.99 31.16 38.92 31.05 38.93 30.93C38.95 30.7 39.23 30.54 39.24 30.54L39.3 30.65C39.23 30.69 39.06 30.81 39.05 30.95C39.04 31.02 39.09 31.1 39.19 31.17L39.12 31.26ZM39.65 30.53L39.58 30.43C39.59 30.42 40.36 29.91 40.77 29.68L40.83 29.79C40.43 30.01 39.66 30.52 39.65 30.53ZM40.17 30.49L40.1 30.39C40.11 30.39 40.64 29.98 41.16 29.68L41.22 29.78C40.7 30.09 40.17 30.48 40.17 30.49ZM39.18 30.48L39.12 30.38C39.16 30.36 40.03 29.83 40.3 29.71L40.35 29.82C40.08 29.93 39.19 30.48 39.18 30.48ZM38.95 30.32L38.9 30.21L39.8 29.75L39.85 29.86L38.95 30.32ZM37.9 30.19C37.53 30.16 36.99 29.68 36.97 29.66L37.05 29.57C37.06 29.57 37.59 30.05 37.92 30.08L37.9 30.19ZM37.9 29.99C37.6 29.93 37.15 29.57 37.13 29.56L37.21 29.47C37.21 29.47 37.65 29.82 37.92 29.88L37.9 29.99ZM38.18 29.86C37.78 29.86 37.3 29.43 37.28 29.41L37.36 29.32C37.36 29.32 37.83 29.73 38.18 29.73V29.86ZM39.89 29.44L40.19 29.17C40.2 29.16 40.54 28.87 41.16 28.64L41.2 28.75C40.97 28.83 40.78 28.93 40.64 29.01C41.2 28.89 41.39 29.17 41.4 29.18L41.3 29.25C41.3 29.25 41.05 28.91 40.25 29.27L39.89 29.44ZM38.28 29.36C38.24 29.34 37.35 28.91 37.45 28.29C37.45 28.28 37.5 27.9 37.88 27.71L37.93 27.82C37.6 27.98 37.56 28.31 37.56 28.31C37.48 28.85 38.32 29.26 38.33 29.26L38.28 29.36ZM37.77 28.61C37.57 28.41 37.65 28.13 37.66 28.12L37.77 28.16L37.71 28.14L37.77 28.16C37.77 28.17 37.7 28.38 37.86 28.53L37.77 28.61ZM37.95 28.49C37.74 28.26 37.86 27.96 37.87 27.95L37.98 28C37.98 28.01 37.88 28.25 38.04 28.42L37.95 28.49ZM38.11 28.31C37.93 28.07 38.08 27.8 38.09 27.79L38.19 27.85L38.14 27.82L38.19 27.85C38.19 27.86 38.07 28.06 38.21 28.23L38.11 28.31ZM42.09 27.59L41.98 27.54C42.05 27.37 41.98 27.08 41.98 27.08L42.1 27.05C42.09 27.07 42.17 27.39 42.09 27.59Z" fill="#00247D"/>
<path d="M40.7 28.6L40.6 28.53C40.61 28.52 40.8 28.25 41.26 28.11L41.31 28.09L41.3299 28.14C41.3299 28.15 41.44 28.4 41.75 28.35C41.75 28.35 41.9299 28.31 42.0299 28.15C42.0999 28.04 42.11 27.9 42.06 27.73C42.06 27.71 41.95 27.35 41.39 27.3L41.4 27.18C42.04 27.23 42.17 27.68 42.17 27.69C42.23 27.89 42.21 28.07 42.12 28.21C42 28.41 41.77 28.46 41.76 28.47C41.48 28.51 41.31 28.35 41.24 28.23C40.86 28.38 40.7 28.6 40.7 28.6ZM43.0799 28.09L43.06 27.97C43.8 27.84 43.75 27.16 43.75 27.13C43.76 26.69 43.2 26.58 43.2 26.57L43.22 26.45C43.36 26.48 43.5699 26.56 43.7099 26.72C43.7199 26.7 43.73 26.68 43.75 26.66C43.71 26.62 43.6699 26.57 43.6299 26.52L43.7299 26.45C43.7599 26.49 43.79 26.53 43.82 26.56C43.83 26.55 43.84 26.54 43.85 26.53C43.79 26.46 43.71 26.35 43.69 26.32L43.79 26.25C43.83 26.31 43.89 26.39 43.94 26.44C43.96 26.42 43.98 26.41 44 26.39C43.9 26.3 43.8 26.14 43.77 26.11L43.87 26.05C43.94 26.16 44.04 26.29 44.1 26.32C44.15 26.29 44.1999 26.26 44.2599 26.24L44.3 26.35C43.99 26.47 43.83 26.74 43.79 26.82C43.84 26.9 43.87 27 43.87 27.12C43.87 27.13 43.9199 27.94 43.0799 28.09ZM42.2 25.05L42.0799 25.02C42.0799 25.01 42.13 24.84 42.24 24.69L42.2299 24.68C42.2899 24.59 42.22 24.48 42.22 24.47L42.32 24.41C42.32 24.41 42.35 24.47 42.37 24.54C42.41 24.51 42.44 24.48 42.49 24.46C42.55 24.43 42.6099 24.41 42.6799 24.41C42.6899 24.31 42.7 24.09 42.59 23.96L42.6799 23.88C42.8099 24.04 42.81 24.29 42.8 24.41C42.87 24.42 42.94 24.44 43.02 24.47L42.97 24.58C42.81 24.51 42.67 24.51 42.54 24.57C42.29 24.7 42.2 25.05 42.2 25.05ZM40.55 23.61L40.45 23.55C40.46 23.54 40.6 23.31 40.95 23.4L40.92 23.52C40.66 23.45 40.56 23.6 40.55 23.61Z" fill="#00247D"/>
<path d="M43.62 32.5C43.62 32.5 44.36 32.17 44.13 31.59C44.13 31.59 44.06 31.39 43.89 31.41C43.89 31.41 43.61 31.42 43.66 31.81C43.66 31.81 43.76 32.19 43.61 32.51L43.62 32.5Z" fill="#64B4D1"/>
<path d="M43.6399 32.55V32.54L43.5599 32.48C43.6999 32.18 43.6099 31.82 43.6099 31.82C43.5899 31.66 43.6099 31.54 43.6899 31.45C43.7799 31.35 43.8899 31.34 43.8999 31.34C44.0699 31.32 44.1699 31.48 44.1999 31.56C44.3999 32.05 43.9399 32.41 43.6699 32.54L43.6399 32.55C43.6499 32.55 43.6499 32.55 43.6399 32.55ZM43.9099 31.47C43.8999 31.47 43.8999 31.47 43.8899 31.47C43.8799 31.47 43.8099 31.48 43.7599 31.54C43.7099 31.6 43.6999 31.69 43.7099 31.81C43.7099 31.82 43.7799 32.1 43.7099 32.38C43.8999 32.26 44.2199 32 44.0599 31.62C44.0699 31.6 44.0199 31.47 43.9099 31.47Z" fill="#00247D"/>
<path d="M43.88 32.16C43.88 32.16 44.05 32.01 44.03 31.73C44.03 31.73 44.01 31.67 44.03 31.66C44.03 31.66 44.07 31.65 44.07 31.72C44.07 31.72 44.12 32.01 43.93 32.17C43.93 32.17 43.92 32.2 43.89 32.19C43.89 32.19 43.87 32.19 43.88 32.16Z" fill="white"/>
<path d="M44.67 31.98C44.67 31.98 45.19 31.66 44.91 31.11C44.91 31.11 44.82 30.96 44.67 30.99C44.67 30.99 44.35 31.09 44.6 31.54C44.6 31.54 44.72 31.83 44.67 31.98Z" fill="#64B4D1"/>
<path d="M44.7 32.03L44.68 32L44.61 31.99V31.95L44.62 31.94C44.64 31.82 44.57 31.63 44.54 31.56C44.44 31.38 44.41 31.23 44.46 31.11C44.51 30.98 44.64 30.94 44.64 30.93C44.84 30.89 44.94 31.07 44.95 31.08C45.27 31.68 44.71 32.03 44.7 32.03ZM44.68 31.05C44.68 31.05 44.61 31.08 44.58 31.16C44.55 31.25 44.57 31.37 44.65 31.52C44.66 31.55 44.73 31.7 44.74 31.86C44.86 31.74 45.03 31.5 44.86 31.15C44.86 31.14 44.79 31.03 44.68 31.05Z" fill="#00247D"/>
<path d="M44.8 31.24C44.8 31.24 44.78 31.21 44.8 31.18L44.84 31.22C44.84 31.22 44.99 31.39 44.87 31.66C44.87 31.66 44.86 31.7 44.82 31.68V31.65C44.82 31.65 44.94 31.41 44.8 31.25V31.24Z" fill="white"/>
<path d="M43.1 32.36C43.1 32.36 42.52 32.22 42.63 31.61C42.63 31.61 42.69 31.35 42.94 31.39C42.94 31.39 43.24 31.47 43.04 31.85C43.04 31.85 42.93 32.11 43.11 32.36H43.1Z" fill="#64B4D1"/>
<path d="M43.23 32.42H43.09C43.08 32.42 42.46 32.26 42.57 31.6C42.6 31.49 42.71 31.29 42.95 31.33C42.96 31.33 43.09 31.37 43.14 31.49C43.19 31.59 43.17 31.72 43.09 31.87C43.09 31.87 43 32.1 43.16 32.32L43.23 32.42ZM42.89 31.44C42.74 31.44 42.7 31.6 42.69 31.62C42.62 31.99 42.84 32.17 42.99 32.25C42.91 32.03 42.99 31.84 42.99 31.83C43.05 31.71 43.07 31.62 43.04 31.55C43.01 31.48 42.93 31.45 42.93 31.45C42.91 31.45 42.9 31.44 42.89 31.44Z" fill="#00247D"/>
<path d="M42.88 31.65V31.6C42.88 31.6 42.92 31.6 42.93 31.62C42.93 31.62 42.99 31.72 42.94 31.86C42.94 31.86 42.89 31.95 42.92 32.04C42.92 32.04 42.92 32.07 42.89 32.08L42.87 32.04C42.87 32.04 42.84 31.96 42.89 31.86C42.89 31.86 42.95 31.72 42.89 31.65H42.88Z" fill="white"/>
<path d="M43.52 31.23C43.52 31.23 43.86 31.04 44.12 31.26C44.12 31.26 44.1 31.14 43.88 31.09C43.88 31.09 43.78 30.77 43.46 30.8C43.46 30.8 43.58 30.96 43.76 31.08C43.76 31.08 43.58 31.1 43.52 31.23ZM43.76 30.36C43.76 30.36 44 30.53 44.08 30.64C44.08 30.64 44.17 30.52 44.28 30.46C44.28 30.46 44.16 30.43 44.08 30.49C44.08 30.49 43.97 30.39 43.78 30.36H43.76Z" fill="black"/>
<path d="M42.42 31.08C42.4 31.04 42.4 30.95 42.46 30.86C42.46 30.86 42.48 30.82 42.47 30.76L42.59 30.73C42.61 30.84 42.57 30.92 42.56 30.93C42.52 30.98 42.54 31.03 42.54 31.04L42.42 31.08ZM44.87 26.01L44.86 25.89C44.87 25.89 45.16 25.87 45.2 25.64L45.32 25.66C45.28 25.92 45.01 26 44.87 26.01ZM45.47 25.75C45.46 25.75 45.45 25.75 45.43 25.75L45.45 25.63C45.52 25.64 45.59 25.55 45.59 25.55C45.71 25.41 45.85 25.41 45.86 25.41V25.53C45.86 25.53 45.76 25.53 45.69 25.63C45.69 25.63 45.6 25.75 45.47 25.75Z" fill="black"/>
<path d="M44.36 24.92C44.36 24.92 44.54 24.92 44.63 24.84C44.63 24.84 44.74 24.77 44.8 24.88C44.8 24.88 44.9 25.04 44.72 25.11C44.72 25.11 44.5 25.23 44.85 25.45C44.85 25.45 44.43 25.29 44.61 25.09C44.61 25.09 44.79 24.97 44.71 24.92C44.71 24.92 44.69 24.88 44.62 24.92C44.55 24.98 44.41 24.96 44.36 24.92Z" fill="black"/>
<path d="M44.6001 20.56C44.6001 20.56 44.6801 20.44 44.6501 20.12C44.6101 19.8 44.9101 19.75 45.0101 19.84C45.0101 19.84 45.1301 19.94 45.0101 20.15C44.9301 20.33 44.7801 20.48 44.6001 20.56Z" fill="#64B4D1"/>
<path d="M44.62 20.61L44.54 20.52C44.54 20.52 44.61 20.41 44.58 20.12C44.56 19.96 44.62 19.83 44.74 19.77C44.84 19.72 44.97 19.73 45.04 19.79C45.04 19.79 45.2 19.92 45.05 20.17C44.98 20.37 44.82 20.53 44.62 20.61ZM44.89 19.86C44.86 19.86 44.83 19.87 44.8 19.88C44.73 19.92 44.69 20 44.71 20.11C44.72 20.25 44.72 20.35 44.7 20.43C44.81 20.35 44.9 20.25 44.95 20.12C45.04 19.96 44.97 19.89 44.97 19.88C44.95 19.87 44.92 19.86 44.89 19.86Z" fill="#00247D"/>
<path d="M44.7 20.3C44.7 20.3 44.8199 20.19 44.7599 19.94L44.7799 19.92H44.8099C44.8099 19.92 44.87 20.2 44.75 20.34C44.75 20.34 44.73 20.37 44.7 20.34V20.3Z" fill="white"/>
<path d="M44.5099 20.44C44.5099 20.44 44.5099 20.3 44.2799 20.08C44.0399 19.84 44.2299 19.64 44.3799 19.64C44.3799 19.64 44.5099 19.64 44.5799 19.87C44.6299 20.06 44.5999 20.26 44.5099 20.44Z" fill="#64B4D1"/>
<path d="M44.5599 20.47L44.45 20.44H44.44C44.44 20.44 44.43 20.32 44.23 20.12C44.07 19.96 44.09 19.82 44.12 19.75C44.16 19.65 44.27 19.58 44.37 19.58C44.38 19.58 44.55 19.58 44.63 19.85C44.69 20.06 44.6599 20.28 44.5599 20.47ZM44.38 19.7C44.33 19.7 44.27 19.73 44.24 19.8C44.21 19.87 44.24 19.95 44.33 20.04C44.43 20.13 44.48 20.21 44.52 20.27C44.56 20.14 44.56 20.01 44.53 19.88C44.47 19.71 44.38 19.7 44.38 19.7Z" fill="#00247D"/>
<path d="M44.48 20.14C44.48 20.14 44.48 19.98 44.26 19.81V19.77H44.3C44.3 19.77 44.53 19.95 44.53 20.15C44.53 20.15 44.53 20.18 44.5 20.18C44.5 20.18 44.48 20.18 44.48 20.14Z" fill="white"/>
<path d="M44.2 20.33C44.2 20.33 44.13 20.23 43.85 20.12C43.56 20.02 43.63 19.77 43.75 19.72C43.75 19.72 43.88 19.67 44.01 19.83C44.13 19.97 44.19 20.15 44.19 20.33H44.2Z" fill="#64B4D1"/>
<path d="M44.32 20.39H44.13V20.34C44.09 20.31 44.01 20.24 43.83 20.17C43.62 20.1 43.59 19.95 43.59 19.89C43.59 19.79 43.65 19.69 43.73 19.65C43.74 19.65 43.9 19.59 44.06 19.78C44.18 19.92 44.25 20.1 44.25 20.28L44.32 20.39ZM43.8 19.77C43.78 19.77 43.77 19.77 43.77 19.77C43.74 19.78 43.7 19.83 43.71 19.89C43.71 19.96 43.77 20.02 43.87 20.06C43.98 20.1 44.06 20.15 44.12 20.18C44.1 20.06 44.04 19.96 43.97 19.86C43.9 19.79 43.83 19.77 43.8 19.77Z" fill="#00247D"/>
<path d="M44.06 20.13C44.06 20.13 44 19.99 43.74 19.92C43.74 19.92 43.72 19.92 43.72 19.89C43.72 19.89 43.72 19.87 43.75 19.88C43.75 19.88 44.04 19.94 44.12 20.12L44.11 20.15C44.11 20.15 44.08 20.15 44.06 20.13Z" fill="white"/>
<path d="M44.37 20.44C44.37 20.44 44.24 20.49 43.93 20.34C43.62 20.19 43.49 20.45 43.55 20.57C43.55 20.57 43.6 20.73 43.83 20.69C44.03 20.68 44.23 20.59 44.37 20.45V20.44Z" fill="#64B4D1"/>
<path d="M43.76 20.76C43.6 20.76 43.52 20.65 43.5 20.59C43.46 20.51 43.49 20.4 43.56 20.32C43.61 20.27 43.73 20.18 43.96 20.29C44.23 20.42 44.35 20.39 44.35 20.39L44.43 20.37V20.49L44.41 20.51C44.25 20.66 44.05 20.76 43.83 20.77C43.81 20.75 43.78 20.76 43.76 20.76ZM43.76 20.35C43.71 20.35 43.67 20.37 43.64 20.4C43.6 20.44 43.59 20.51 43.6 20.54C43.61 20.56 43.65 20.66 43.82 20.63C43.97 20.62 44.1 20.58 44.22 20.5C44.14 20.49 44.04 20.46 43.91 20.39C43.85 20.37 43.8 20.35 43.76 20.35Z" fill="#00247D"/>
<path d="M43.66 20.54C43.66 20.54 43.8 20.64 44.05 20.54H44.08C44.08 20.54 44.08 20.56 44.06 20.57C44.06 20.57 43.8 20.69 43.62 20.58C43.62 20.58 43.6 20.58 43.62 20.55H43.66V20.54Z" fill="white"/>
<path d="M44.11 19.73L43.99 19.72C44.01 19.59 43.9 19.53 43.9 19.53L43.96 19.43C43.97 19.42 44.13 19.52 44.11 19.73Z" fill="black"/>
<path d="M44.65 19.83L44.54 19.77C44.58 19.7 44.55 19.56 44.54 19.52L44.65 19.48C44.66 19.5 44.72 19.7 44.65 19.83Z" fill="black"/>
<path d="M34.02 20.56C34.02 20.56 33.94 20.44 33.97 20.12C34.01 19.78 33.72 19.75 33.62 19.84C33.62 19.84 33.5 19.94 33.6 20.15C33.69 20.33 33.83 20.48 34.02 20.56Z" fill="#64B4D1"/>
<path d="M34 20.61C33.8 20.52 33.64 20.37 33.55 20.17C33.43 19.92 33.58 19.79 33.59 19.79C33.66 19.73 33.79 19.71 33.89 19.76C33.94 19.79 34.07 19.88 34.04 20.12C34.01 20.41 34.08 20.52 34.08 20.52L34 20.61ZM33.75 19.86C33.71 19.86 33.68 19.87 33.66 19.89C33.66 19.89 33.58 19.97 33.65 20.13C33.71 20.26 33.8 20.36 33.91 20.44C33.9 20.36 33.89 20.26 33.9 20.12C33.91 20 33.88 19.92 33.81 19.88C33.8 19.86 33.77 19.86 33.75 19.86Z" fill="#00247D"/>
<path d="M33.91 20.3C33.91 20.3 33.81 20.19 33.85 19.94V19.92H33.81C33.81 19.92 33.76 20.2 33.88 20.34C33.88 20.34 33.9 20.37 33.91 20.34V20.3Z" fill="white"/>
<path d="M34.12 20.44C34.12 20.44 34.12 20.3 34.36 20.08C34.59 19.84 34.4 19.64 34.26 19.64C34.26 19.64 34.1 19.64 34.06 19.87C34.01 20.06 34.03 20.26 34.12 20.44Z" fill="#64B4D1"/>
<path d="M34.07 20.47C33.98 20.28 33.95 20.06 34.01 19.86C34.05 19.64 34.2 19.58 34.27 19.58C34.37 19.58 34.47 19.65 34.52 19.75C34.55 19.82 34.57 19.96 34.42 20.12C34.21 20.32 34.2 20.44 34.2 20.44L34.07 20.47ZM34.26 19.7C34.25 19.7 34.15 19.71 34.12 19.88C34.09 20.01 34.09 20.14 34.12 20.27C34.16 20.21 34.22 20.13 34.32 20.03C34.4 19.95 34.43 19.86 34.4 19.79C34.37 19.74 34.31 19.7 34.26 19.7Z" fill="#00247D"/>
<path d="M34.15 20.14C34.15 20.14 34.15 19.98 34.35 19.81C34.35 19.81 34.38 19.78 34.35 19.77H34.33C34.33 19.77 34.09 19.95 34.09 20.15C34.09 20.15 34.09 20.18 34.13 20.18C34.13 20.18 34.15 20.18 34.15 20.14Z" fill="white"/>
<path d="M34.4299 20.33C34.4299 20.33 34.4899 20.23 34.7799 20.12C35.0599 20.02 34.9799 19.77 34.8699 19.72C34.8699 19.72 34.7499 19.67 34.6099 19.83C34.4899 19.97 34.4299 20.15 34.4299 20.33Z" fill="#64B4D1"/>
<path d="M34.48 20.36L34.37 20.33C34.37 20.13 34.44 19.94 34.56 19.79C34.73 19.6 34.88 19.66 34.89 19.66C34.98 19.7 35.03 19.8 35.03 19.9C35.02 20.02 34.94 20.12 34.8 20.17C34.54 20.27 34.48 20.36 34.48 20.36ZM34.82 19.77C34.79 19.77 34.73 19.78 34.65 19.87C34.57 19.96 34.52 20.07 34.5 20.19C34.56 20.15 34.64 20.11 34.76 20.07C34.86 20.04 34.91 19.98 34.91 19.91C34.91 19.85 34.88 19.8 34.84 19.78C34.85 19.77 34.84 19.77 34.82 19.77Z" fill="#00247D"/>
<path d="M34.56 20.13C34.56 20.13 34.62 19.99 34.88 19.92C34.88 19.92 34.9 19.92 34.9 19.89C34.9 19.89 34.9 19.87 34.88 19.88C34.88 19.88 34.59 19.94 34.51 20.12V20.15C34.51 20.15 34.55 20.15 34.56 20.13Z" fill="white"/>
<path d="M34.25 20.44C34.25 20.44 34.39 20.49 34.69 20.34C34.99 20.19 35.13 20.45 35.09 20.57C35.09 20.57 35.02 20.73 34.79 20.69C34.59 20.68 34.39 20.59 34.25 20.45V20.44Z" fill="#64B4D1"/>
<path d="M34.8599 20.76C34.8399 20.76 34.8099 20.76 34.7799 20.75C34.5699 20.74 34.3599 20.65 34.2099 20.49L34.1899 20.47V20.35L34.2699 20.38C34.2799 20.38 34.3999 20.41 34.6599 20.28C34.8599 20.18 34.9899 20.25 35.0499 20.3C35.1299 20.37 35.1699 20.49 35.1399 20.58C35.1199 20.65 35.0299 20.76 34.8599 20.76ZM34.4099 20.5C34.5199 20.58 34.6599 20.62 34.7999 20.63C34.9799 20.66 35.0399 20.56 35.0399 20.55C35.0499 20.52 35.0299 20.45 34.9799 20.4C34.9199 20.35 34.8299 20.35 34.7199 20.4C34.5899 20.46 34.4799 20.49 34.4099 20.5Z" fill="#00247D"/>
<path d="M34.96 20.54C34.96 20.54 34.8301 20.64 34.5701 20.54H34.55V20.57C34.55 20.57 34.83 20.69 35 20.58C35 20.58 35.02 20.58 35 20.55H34.96V20.54Z" fill="white"/>
<path d="M34.52 19.73C34.49 19.56 34.61 19.45 34.67 19.42L34.73 19.53L34.7 19.48L34.73 19.53C34.73 19.53 34.62 19.59 34.64 19.72L34.52 19.73Z" fill="black"/>
<path d="M33.97 19.83C33.9 19.7 33.96 19.51 33.97 19.48L34.08 19.52C34.07 19.57 34.04 19.7 34.08 19.77L33.97 19.83Z" fill="black"/>
<path d="M40.6701 17.76C40.6701 17.76 40.7701 18.03 40.7301 18.28C40.7001 18.52 40.7501 18.57 40.8301 18.62C40.9001 18.65 41.0701 18.58 41.0801 18.4C41.0801 18.4 41.2801 18.78 40.9001 19.03C40.9001 19.03 40.6301 19.2 40.4001 18.99C40.3201 18.9 40.2801 18.69 40.3301 18.49C40.3301 18.49 40.3901 18.22 40.2801 17.94C40.2801 17.94 40.4401 18.1 40.4001 18.43C40.4001 18.43 40.3201 19.03 40.7601 18.99C40.7601 18.99 41.0601 18.99 41.0601 18.63C41.0601 18.63 40.9501 18.75 40.8201 18.71C40.6901 18.68 40.6201 18.56 40.6401 18.43C40.6501 18.27 40.7001 18 40.6701 17.76ZM40.2001 18.7C40.2001 18.7 40.1601 19.18 39.7401 19.29C39.7401 19.29 39.8001 19.2 39.7101 18.96C39.7101 18.96 39.6101 18.84 39.6101 18.63C39.6101 18.63 39.4901 18.73 39.6401 19.01C39.7401 19.18 39.6401 19.37 39.6301 19.38C39.5901 19.39 40.3201 19.28 40.1901 18.71L40.2001 18.7ZM39.6401 18.25C39.6401 18.25 39.5301 18.13 39.5201 17.87C39.5201 17.6 39.4701 17.53 39.4301 17.51C39.4301 17.51 39.4801 17.74 39.4701 17.87C39.4601 17.97 39.4701 18.07 39.5101 18.17C39.5101 18.17 39.2701 18.2 39.1201 17.87C38.9901 17.54 38.8501 17.57 38.7801 17.57C38.7801 17.57 38.8601 17.58 39.0201 17.87C39.1801 18.17 39.2301 18.24 39.6401 18.24V18.25ZM38.5601 17.55C38.5601 17.55 38.6801 17.87 38.7001 18.03C38.7001 18.03 38.3901 17.93 38.3001 17.68C38.3001 17.68 37.9801 17.78 38.1001 18.15C38.1001 18.15 37.8101 18.05 37.6801 17.83C37.6801 17.83 37.8401 17.95 37.9901 18C37.9901 18 37.9701 17.69 38.3501 17.58C38.3501 17.58 38.4101 17.85 38.6101 17.91L38.5601 17.55ZM39.0601 17.01C39.0601 17.01 39.1801 17.16 39.4001 17.16C39.5301 17.17 39.6501 17.11 39.7201 17.01C39.7201 17.01 39.7101 17.27 39.4001 17.28C39.4001 17.28 39.0701 17.28 39.0701 17.01H39.0601ZM37.7201 18.86L37.9201 19.05C37.9201 19.05 38.0401 19.17 38.1201 19.02C38.1201 19.02 38.2501 18.78 38.4101 18.8C38.4101 18.8 38.2901 18.87 38.1701 19.1C38.1701 19.1 38.1501 19.17 38.0501 19.18C38.0001 19.18 37.9501 19.2 37.8701 19.11C37.8701 19.11 37.8001 19.02 37.7201 18.87V18.86ZM39.3901 15.92C39.0701 15.92 39.3401 16.16 39.3401 16.16C39.3401 16.56 39.0301 16.7 38.8101 16.58C38.5901 16.46 38.7701 16.18 38.7701 16.18C38.7701 16.18 38.5301 16.33 38.6701 16.57C38.8301 16.81 39.2401 16.69 39.3901 16.48C39.5401 16.7 39.9601 16.81 40.1001 16.57C40.2701 16.33 40.0201 16.17 40.0201 16.17C40.0201 16.17 40.2001 16.46 39.9701 16.57C39.7601 16.7 39.4301 16.57 39.4501 16.17C39.4501 16.17 39.7201 15.92 39.4001 15.92H39.3901ZM39.5901 15.48C39.5901 15.48 39.7101 15.68 39.6901 15.98C39.6901 15.98 39.7801 15.68 39.5901 15.49V15.48ZM38.5901 15.95C38.5901 15.95 38.5601 15.73 38.3501 15.71C38.3501 15.71 38.5401 15.84 38.5901 15.95ZM40.1901 15.95C40.1901 15.95 40.2201 15.73 40.4401 15.71C40.4401 15.71 40.2601 15.84 40.2001 15.95H40.1901ZM38.2701 16.27C38.2701 16.27 38.4301 16.32 38.5301 16.2L38.2701 16.27ZM37.7301 14.96C37.7301 14.96 37.9201 14.95 38.1101 15.23C38.1101 15.23 37.9201 15.33 37.8701 15.39C37.8701 15.39 37.8701 15.29 37.9701 15.22C37.9701 15.22 37.9301 15.08 37.7301 14.97V14.96ZM40.9301 14.96C40.9301 14.96 40.7301 14.95 40.5401 15.23C40.5401 15.23 40.7401 15.33 40.7801 15.39C40.7801 15.39 40.7801 15.29 40.6801 15.22C40.6801 15.22 40.7201 15.08 40.9301 14.97V14.96ZM39.4601 15.18C39.4601 15.18 39.6301 15.23 39.8401 15.11C39.8401 15.11 40.1001 14.97 40.2701 15.11C40.2701 15.11 40.1301 15.04 39.8401 15.18C39.8401 15.18 39.5701 15.34 39.4601 15.18Z" fill="black"/>
<path d="M39.64 15.36C39.64 15.36 39.78 15.11 40.24 15.16C40.24 15.16 40.11 15.52 39.64 15.36Z" fill="white"/>
<path d="M39.94 15.39C39.9842 15.39 40.02 15.3408 40.02 15.28C40.02 15.2192 39.9842 15.17 39.94 15.17C39.8958 15.17 39.86 15.2192 39.86 15.28C39.86 15.3408 39.8958 15.39 39.94 15.39Z" fill="#784421"/>
<path d="M39.94 15.35C39.9676 15.35 39.99 15.3187 39.99 15.28C39.99 15.2413 39.9676 15.21 39.94 15.21C39.9124 15.21 39.89 15.2413 39.89 15.28C39.89 15.3187 39.9124 15.35 39.94 15.35Z" fill="black"/>
<path d="M38.6801 14.81C38.6801 14.81 38.9601 14.84 39.1401 14.93C39.1401 14.93 39.3201 15.05 39.5201 14.9C39.5201 14.9 39.7401 14.76 39.8901 14.59C39.8901 14.59 39.5401 14.82 39.4101 14.86C39.4101 14.86 39.2901 14.76 39.2601 14.63C39.2601 14.63 39.2601 14.53 39.4601 14.36C39.4601 14.36 39.2101 14.44 39.1601 14.65C39.1901 14.73 39.2401 14.81 39.3001 14.88C39.3001 14.88 39.2601 14.91 39.1401 14.82C39.1401 14.82 38.8601 14.74 38.6801 14.81ZM39.4001 16.51C39.1601 16.72 39.4001 16.7 39.4001 16.7C39.4001 16.7 39.6401 16.72 39.4001 16.5V16.51ZM39.2601 15.19C39.2601 15.19 39.0801 15.24 38.8601 15.12C38.8601 15.12 38.6001 14.98 38.4301 15.12C38.4301 15.12 38.5801 15.05 38.8601 15.19C38.8601 15.19 39.1501 15.35 39.2601 15.19Z" fill="black"/>
<path d="M39.08 15.36C39.08 15.36 38.93 15.11 38.48 15.16C38.48 15.16 38.6 15.52 39.08 15.36Z" fill="white"/>
<path d="M38.7699 15.39C38.8141 15.39 38.8499 15.3408 38.8499 15.28C38.8499 15.2192 38.8141 15.17 38.7699 15.17C38.7258 15.17 38.6899 15.2192 38.6899 15.28C38.6899 15.3408 38.7258 15.39 38.7699 15.39Z" fill="#784421"/>
<path d="M38.77 15.35C38.7976 15.35 38.82 15.3187 38.82 15.28C38.82 15.2413 38.7976 15.21 38.77 15.21C38.7424 15.21 38.72 15.2413 38.72 15.28C38.72 15.3187 38.7424 15.35 38.77 15.35Z" fill="black"/>
<path d="M39.3801 35C39.3501 35 37.1801 34.64 35.0401 33.75C32.1901 32.58 30.6801 31.01 30.6801 29.21V13H48.0101V13.06H48.0601V29.22C48.0601 31.01 46.5601 32.58 43.7101 33.75C41.5801 34.64 39.4101 35 39.3801 35ZM30.8001 13.12V29.22C30.8001 33.38 39.0501 34.82 39.3801 34.88C39.7101 34.82 47.9401 33.37 47.9401 29.22V13.12H30.8001Z" fill="black"/>
<path d="M-8 0H24V24H-8V0Z" fill="#000066"/>
<path d="M-4.25 0L7.95 9.05L20.1 0H24V3.1L12 12.05L24 20.95V24H20L8 15.05L-3.95 24H-8V21L3.95 12.1L-8 3.2V0H-4.25Z" fill="white"/>
<path d="M13.2 14.05L24 22V24L10.45 14.05H13.2ZM4 15.05L4.3 16.8L-5.3 24H-8L4 15.05ZM24 0V0.15L11.55 9.55L11.65 7.35L21.5 0H24ZM-8 0L3.95 8.8H0.95L-8 2.1V0Z" fill="#C8102E"/>
<path d="M4.05 0V24H12.05V0H4.05ZM-8 8V16H24V8H-8Z" fill="white"/>
<path d="M-8 9.65V14.45H24V9.65H-8ZM5.65 0V24H10.45V0H5.65Z" fill="#C8102E"/>
</g>
</g>
</g>
<defs>
<clipPath id="clip0_152_6581">
<rect width="48" height="48" fill="white"/>
</clipPath>
<clipPath id="clip1_152_6581">
<rect width="64" height="48" fill="white" transform="translate(-8)"/>
</clipPath>
</defs>
</svg>
