<svg width="48" height="48" viewBox="0 0 48 48" fill="none" xmlns="http://www.w3.org/2000/svg">
<g clip-path="url(#clip0_154_54457)">
<mask id="mask0_154_54457" style="mask-type:alpha" maskUnits="userSpaceOnUse" x="0" y="0" width="48" height="48">
<circle cx="24" cy="24" r="24" fill="#D9D9D9"/>
</mask>
<g mask="url(#mask0_154_54457)">
<path d="M-1 -8H49V50H-1V-8Z" fill="#DA2032"/>
<path d="M15.6666 -8H32.3333V52H15.6666V-8Z" fill="#0066B3"/>
<path d="M7.33594 22.5592C9.06183 22.5592 10.4609 21.1414 10.4609 19.3925C10.4609 17.6436 9.06183 16.2258 7.33594 16.2258C5.61005 16.2258 4.21094 17.6436 4.21094 19.3925C4.21094 21.1414 5.61005 22.5592 7.33594 22.5592Z" fill="#FFD900"/>
<path d="M7.33594 21.4033C9.21716 21.4033 10.7422 19.858 10.7422 17.9517C10.7422 16.0454 9.21716 14.5 7.33594 14.5C5.45472 14.5 3.92969 16.0454 3.92969 17.9517C3.92969 19.858 5.45472 21.4033 7.33594 21.4033Z" fill="#DA2032"/>
<path d="M7.33594 20.8333C8.59152 20.8333 9.60938 19.8019 9.60938 18.5296C9.60938 17.2573 8.59152 16.2258 7.33594 16.2258C6.08035 16.2258 5.0625 17.2573 5.0625 18.5296C5.0625 19.8019 6.08035 20.8333 7.33594 20.8333Z" fill="#FFD900"/>
<path d="M7.57031 11.0483C7.45498 11.0995 7.35592 11.1821 7.28419 11.2869C7.21246 11.3917 7.17087 11.5147 7.16406 11.6421C7.14844 11.84 7.23438 12.0617 7.24219 12.2517C7.24219 12.5842 6.90625 12.695 6.90625 13.1621C6.90625 13.3204 7.05469 13.5025 7.05469 13.9221C7.02344 14.1438 6.89844 14.1992 6.76562 14.215C6.72802 14.215 6.6908 14.2074 6.65616 14.1926C6.62152 14.1778 6.59016 14.1561 6.56394 14.1288C6.53772 14.1014 6.51716 14.0691 6.5035 14.0336C6.48983 13.9981 6.48333 13.9602 6.48438 13.9221C6.48417 13.8484 6.51218 13.7774 6.5625 13.7242C6.57236 13.7155 6.5828 13.7076 6.59375 13.7004C6.65625 13.6292 6.75 13.6054 6.75 13.4313C6.75 13.3442 6.6875 13.2571 6.63281 13.0988C6.57812 12.9404 6.61719 12.6871 6.74219 12.5367C6.53906 12.6158 6.42187 12.8058 6.35156 12.98C6.28906 13.1938 6.35156 13.3125 6.25781 13.4946C6.20312 13.6054 6.14062 13.6529 6.07812 13.7479C6 13.8588 5.92188 14.0963 5.92188 14.215C5.94846 14.5777 6.10939 14.9167 6.37238 15.1642C6.63537 15.4116 6.98097 15.5491 7.33984 15.5491C7.69872 15.5491 8.04432 15.4116 8.30731 15.1642C8.5703 14.9167 8.73123 14.5777 8.75781 14.215C8.75781 14.0963 8.67187 13.8588 8.60156 13.7479C8.53125 13.6529 8.46875 13.6054 8.41406 13.4946C8.32031 13.3125 8.38281 13.1938 8.3125 12.98C8.25 12.8058 8.13281 12.6158 7.92969 12.5367C8.05469 12.695 8.08594 12.9483 8.03906 13.0988C7.98438 13.2571 7.92969 13.3363 7.92969 13.4313C7.92969 13.6054 8.01563 13.6292 8.08594 13.7004C8.0942 13.7079 8.10203 13.7158 8.10937 13.7242C8.1597 13.7774 8.1877 13.8484 8.1875 13.9221C8.18854 13.9602 8.18204 13.9981 8.16838 14.0336C8.15471 14.0691 8.13416 14.1014 8.10794 14.1288C8.08172 14.1561 8.05036 14.1778 8.01572 14.1926C7.98107 14.2074 7.94385 14.215 7.90625 14.215C7.75 14.1913 7.63281 14.12 7.61719 13.9221C7.61719 13.3679 7.85156 13.3363 7.85156 12.9246C7.85156 12.3388 7.33594 12.0617 7.33594 11.6342C7.33594 11.4917 7.36719 11.2383 7.57031 11.0483ZM1.08594 23.1292H3.92188V36.9438H1.08594V23.1292ZM10.7422 23.1292H13.5859V36.9438H10.7422V23.1292ZM4.49219 23.1292H10.1719L7.33594 24.855L4.49219 23.1292ZM4.49219 25.425H10.1719V26.5808H4.49219V25.425ZM4.49219 33.4921H10.1719V34.6479H4.49219V33.4921ZM4.49219 35.2179H10.1719L7.33594 36.9438L4.49219 35.2179Z" fill="#FFD900"/>
<path d="M7.33594 32.93C8.9065 32.93 10.1797 31.6399 10.1797 30.0484C10.1797 28.4569 8.9065 27.1667 7.33594 27.1667C5.76538 27.1667 4.49219 28.4569 4.49219 30.0484C4.49219 31.6399 5.76538 32.93 7.33594 32.93Z" fill="#FFD900"/>
<path d="M7.33234 29.0932C7.64614 29.0932 7.90052 28.8354 7.90052 28.5175C7.90052 28.1995 7.64614 27.9417 7.33234 27.9417C7.01854 27.9417 6.76416 28.1995 6.76416 28.5175C6.76416 28.8354 7.01854 29.0932 7.33234 29.0932Z" fill="#DA2032"/>
<path d="M7.33234 32.1447C7.64614 32.1447 7.90052 31.887 7.90052 31.569C7.90052 31.251 7.64614 30.9932 7.33234 30.9932C7.01854 30.9932 6.76416 31.251 6.76416 31.569C6.76416 31.887 7.01854 32.1447 7.33234 32.1447Z" fill="#DA2032"/>
<path d="M7.33238 26.819C7.77692 26.819 8.20325 26.9979 8.51758 27.3164C8.83192 27.635 9.00851 28.067 9.00851 28.5174C9.00851 28.9679 8.83192 29.3999 8.51758 29.7185C8.20325 30.037 7.77692 30.2159 7.33238 30.2159C6.97826 30.2159 6.63864 30.3585 6.38824 30.6122C6.13783 30.866 5.99716 31.2101 5.99716 31.569C5.99716 31.9278 6.13783 32.2719 6.38824 32.5257C6.63864 32.7794 6.97826 32.922 7.33238 32.922V33.2674C6.88784 33.2674 6.46151 33.0885 6.14718 32.77C5.83284 32.4514 5.65625 32.0194 5.65625 31.569C5.65625 31.1185 5.83284 30.6865 6.14718 30.3679C6.46151 30.0494 6.88784 29.8705 7.33238 29.8705C7.6865 29.8705 8.02612 29.7279 8.27652 29.4742C8.52693 29.2204 8.6676 28.8763 8.6676 28.5174C8.6676 28.1586 8.52693 27.8145 8.27652 27.5607C8.02612 27.307 7.6865 27.1644 7.33238 27.1644V26.819Z" fill="#DA2032"/>
</g>
</g>
<defs>
<clipPath id="clip0_154_54457">
<rect width="48" height="48" fill="white"/>
</clipPath>
</defs>
</svg>
