<svg width="48" height="48" viewBox="0 0 48 48" fill="none" xmlns="http://www.w3.org/2000/svg">
<g clip-path="url(#clip0_154_54475)">
<mask id="mask0_154_54475" style="mask-type:alpha" maskUnits="userSpaceOnUse" x="0" y="0" width="48" height="48">
<circle cx="24" cy="24" r="24" fill="#D9D9D9"/>
</mask>
<g mask="url(#mask0_154_54475)">
<g clip-path="url(#clip1_154_54475)">
<path d="M-8 0H56V48H-8V0Z" fill="#006600"/>
<path d="M-8 0H56V34.29H-8V0Z" fill="white"/>
<path d="M-8 0H56V13.71H-8V0Z" fill="#CC0000"/>
<path d="M22.08 23.36C22.32 22.95 22.85 22.81 23.26 23.06C23.51 23.21 23.67 23.47 23.68 23.76V27.2H24.32V23.77C24.34 23.3 24.74 22.93 25.22 22.95C25.51 22.96 25.78 23.12 25.92 23.37C26.27 22.31 25.69 21.17 24.63 20.82C23.57 20.47 22.43 21.05 22.08 22.11C21.95 22.52 21.95 22.96 22.08 23.36Z" fill="#F8C300"/>
<path d="M22.54 22.47C23.12 22.35 23.7 22.61 24 23.12C24.3 22.61 24.88 22.35 25.46 22.47C25.37 21.66 24.64 21.09 23.83 21.18C23.15 21.26 22.62 21.79 22.54 22.47Z" fill="white"/>
<path d="M23.6799 25.83C23.5599 27.26 22.29 28.32 20.86 28.19C20.27 28.14 19.72 27.89 19.3 27.49C18.76 28.88 17.19 29.56 15.8 29.02C15.59 28.94 15.38 28.83 15.2 28.69C15.45 31.19 19.1999 30.68 19.4799 28.25C20.6499 30.32 23.24 29.72 24 27.19L23.6799 25.83Z" fill="#F8C300"/>
<path d="M23.68 25.83C23.56 27.26 22.29 28.32 20.86 28.19C20.27 28.14 19.72 27.89 19.3 27.49C18.76 28.88 17.19 29.56 15.8 29.02C15.59 28.94 15.38 28.83 15.2 28.69C15.45 31.19 19.2 30.68 19.48 28.25C20.65 30.32 23.24 29.72 24 27.19L23.68 25.83Z" fill="#F8C300"/>
<path d="M24.3151 25.8301C24.4351 27.2601 25.7051 28.3201 27.1351 28.1901C27.7251 28.1401 28.2751 27.8901 28.6951 27.4901C29.2351 28.8801 30.8051 29.5601 32.1951 29.0201C32.4051 28.9401 32.6151 28.8301 32.7951 28.6901C32.5451 31.1901 28.7951 30.6801 28.5151 28.2501C27.3451 30.3201 24.7551 29.7201 23.9951 27.1901L24.3151 25.8301Z" fill="#F8C300"/>
<path d="M21.1799 30.26C20.6499 31.39 19.61 31.58 18.7 30.67C18.7 30.67 19.06 30.41 19.46 30.34C19.38 30.03 19.53 29.59 19.75 29.36C20.04 29.55 20.26 29.84 20.36 30.17C20.91 30.1 21.1799 30.27 21.1799 30.27V30.26Z" fill="#F8C300"/>
<path d="M29.346 30.6748C28.4773 31.575 27.4381 31.4232 26.8697 30.2648C26.8697 30.2648 27.297 30.1328 27.6916 30.1982C27.7143 29.8776 27.9983 29.509 28.2858 29.364C28.5031 29.6433 28.6104 29.9752 28.6025 30.3287C29.1419 30.4382 29.3443 30.6846 29.346 30.6748Z" fill="#F8C300"/>
<path d="M25.2792 30.3198C24.5528 31.3307 23.4921 31.3283 22.7662 30.2589C22.7662 30.2589 23.1641 30.0717 23.5784 30.0741C23.5537 29.7544 23.7894 29.3477 24.0458 29.1602C24.2913 29.3983 24.4575 29.7183 24.4963 30.0663C25.0477 30.11 25.2806 30.3297 25.2792 30.3198Z" fill="#F8C300"/>
<path d="M30.4899 33.31C26.2399 32.05 21.7499 32.05 17.4999 33.31L17.1899 32.26C21.6399 30.93 26.3499 30.93 30.7999 32.26L30.4899 33.31Z" fill="#F8C300"/>
<path d="M25.0355 17.8863L22.3269 15.9183H25.68L22.9715 17.8863L24 14.6978L25.0355 17.8863Z" fill="#F8C300"/>
<path d="M20.5355 19.4808L17.8269 17.5129H21.18L18.4715 19.4808L19.5069 16.2923L20.5355 19.4808Z" fill="#F8C300"/>
<path d="M17.2905 23.1195L14.5819 21.1515H17.935L15.2265 23.1195L16.2619 19.931L17.2905 23.1195Z" fill="#F8C300"/>
<path d="M15.8228 27.4861L13.1143 25.5181H16.4674L13.7588 27.4861L14.7942 24.2975L15.8228 27.4861Z" fill="#F8C300"/>
<path d="M27.4692 19.4808L30.1777 17.5129H26.8246L29.5332 19.4808L28.4977 16.2923L27.4692 19.4808Z" fill="#F8C300"/>
<path d="M30.7139 23.1195L33.4225 21.1515H30.0694L32.7779 23.1195L31.7425 19.931L30.7139 23.1195Z" fill="#F8C300"/>
<path d="M32.1817 27.4861L34.8903 25.5181H31.5371L34.2457 27.4861L33.2103 24.2975L32.1817 27.4861Z" fill="#F8C300"/>
<path d="M25.0354 17.8864L22.3268 15.9184H25.6731L22.9645 17.8864L24 14.6978L25.0354 17.8864Z" fill="#F8C300"/>
</g>
</g>
</g>
<defs>
<clipPath id="clip0_154_54475">
<rect width="48" height="48" fill="white"/>
</clipPath>
<clipPath id="clip1_154_54475">
<rect width="64" height="48" fill="white" transform="translate(-8)"/>
</clipPath>
</defs>
</svg>
