<svg width="48" height="48" viewBox="0 0 48 48" fill="none" xmlns="http://www.w3.org/2000/svg">
<g clip-path="url(#clip0_154_54461)">
<mask id="mask0_154_54461" style="mask-type:alpha" maskUnits="userSpaceOnUse" x="0" y="0" width="48" height="48">
<circle cx="24" cy="24" r="24" fill="#D9D9D9"/>
</mask>
<g mask="url(#mask0_154_54461)">
<g clip-path="url(#clip1_154_54461)">
<path fill-rule="evenodd" clip-rule="evenodd" d="M-12.04 0H60.035V48H-12.04V0Z" fill="#FF0000"/>
<path fill-rule="evenodd" clip-rule="evenodd" d="M9.85056 24.4781C11.1256 22.9219 13.7787 24.4406 15.9443 23.325C13.3756 23.4656 11.9787 22.0875 9.95369 22.2844C12.0537 20.9906 13.8443 22.7062 16.1881 22.0219C13.0849 21.7594 13.2162 20.3625 10.3849 20.1656C12.8974 19.0969 14.1349 21.2719 16.6006 20.775C13.6943 20.1094 13.3193 18.4031 11.1631 18.0375C14.3131 17.5687 14.1068 19.425 17.1912 19.65C14.0599 18.3094 14.8756 17.1375 12.2599 16.1156C15.1943 16.05 14.9974 18.0844 17.9787 18.6094C15.4287 16.9969 15.7381 15.525 13.6474 14.3719C16.1318 14.4188 16.3662 16.9594 18.9068 17.7469C16.6474 15.9563 17.2381 14.4375 15.2881 12.8344C17.7631 13.4156 17.3974 15.6094 19.9756 17.0156C18.0631 14.8969 18.7943 13.3781 17.1349 11.6437C19.5162 12.4031 18.6068 14.4938 21.0724 16.4813C19.6662 14.1469 20.5381 12.6562 19.1412 10.6969C21.3537 11.8312 20.2849 13.9688 22.3287 16.0875C21.3631 13.6969 22.3287 12.2156 21.3443 10.0969C23.2381 11.5031 22.1131 13.7812 23.6412 15.9562C23.0787 12.9562 24.3724 12.4688 23.9693 9.84375C25.4037 11.6062 23.8006 13.3688 24.9068 15.9656C24.7662 13.0125 26.3412 12.3281 26.0693 9.96563C27.4849 12.0844 25.2724 13.9313 26.2006 16.2C26.4349 13.4063 28.2724 12.675 28.3006 10.5C29.4256 12.4969 26.9881 13.9406 27.3818 16.5938C28.1787 13.6688 30.1381 13.3125 30.3818 11.3438C31.0474 13.65 28.3756 14.7187 28.5349 17.2875C29.3318 14.6906 31.7787 14.3812 32.2849 12.4688C32.5943 14.9062 30.1849 15.3469 29.5006 18.0469C30.7662 15.8438 32.9881 15.6656 33.9818 13.9219C33.9068 16.3406 31.1881 16.6594 30.3537 18.9187C31.9193 16.9969 33.8881 17.325 35.4537 15.6281C35.2849 17.8125 32.5193 17.6906 31.0474 19.95C32.7443 18.3844 35.3037 18.8531 36.6068 17.5031C36.5412 19.4344 33.1474 19.2844 31.5443 21.0188C33.5131 19.9312 36.0256 20.5687 37.4693 19.5656C37.2068 21.2531 33.6256 20.8594 31.9099 22.1906C34.2724 21.5344 36.1006 22.5375 38.0037 21.8156C37.0756 23.4563 33.8224 22.4156 32.0974 23.4844C34.1599 23.1375 36.3349 24.3844 38.2006 23.9813C37.5912 25.4063 34.0193 23.8875 32.1068 24.7781C34.3943 24.7594 35.8849 26.2313 38.0131 26.1281C36.8599 27.4219 33.7287 25.65 31.9006 25.95C34.1318 26.4187 35.8381 28.2562 37.5256 28.35C36.1287 29.4094 33.5412 26.9906 31.4318 27.2906C33.6068 27.8719 35.4256 30.3375 36.6631 30.3938C35.3224 31.3125 32.6787 28.2844 30.8693 28.3969C33.0724 29.3906 34.0756 31.9125 35.5287 32.2688C33.7381 32.8406 31.9756 29.5313 30.0537 29.4094C32.2849 30.8156 32.4068 32.9719 34.1224 33.9281C32.3131 34.3687 31.0287 30.6281 29.1256 30.3094C30.9537 31.65 31.2349 34.5281 32.4443 35.4281C30.6068 35.5219 29.9412 31.6125 28.0568 31.05C29.6693 32.4 29.2849 35.325 30.5412 36.5813C28.6287 36.1781 28.8724 32.775 26.8756 31.6219C28.3099 33.4406 27.5787 36.0188 28.5162 37.4719C26.6506 36.7219 27.4568 33.6656 25.6849 31.9406C26.6506 33.8719 25.6099 36.1219 26.3787 37.9875C24.6724 37.1531 25.8162 33.5438 24.5131 32.1094C25.1131 34.3406 24.0068 36.1875 24.4568 38.1844C22.7131 36.1687 24.7193 34.1344 23.2099 32.0813C23.6037 34.4344 21.9537 36.0844 22.2162 38.0531C20.8381 36.4406 22.9662 33.8625 21.8881 31.8281C22.1131 34.1438 19.9849 36.1781 20.1349 37.6406C19.0099 35.7656 21.3818 33.5531 20.7443 31.425C20.6131 33.6375 18.4568 34.8375 18.0537 36.8531C17.3318 34.6313 19.8912 33.0281 19.6662 30.8438C18.9349 32.9156 16.8537 33.75 16.1224 35.7656C15.5224 33.5438 18.5599 32.3719 18.6349 30.0469C17.6974 32.2219 15.2131 32.7094 14.3881 34.3781C14.0787 32.175 17.5568 31.1906 17.6881 29.1C16.5631 31.1062 13.8443 31.1906 12.9068 32.7844C12.7662 30.5906 16.4318 30.3187 17.0037 28.0219C15.8881 29.7281 12.9068 29.5125 11.6599 30.9C11.8568 28.8656 15.8224 28.7438 16.4599 26.9062C14.9787 28.3313 12.2412 27.75 10.6943 28.875C11.5568 26.8687 15.2787 27.2906 16.1131 25.8469C14.4724 26.7 11.5568 25.8656 10.1131 26.7281C11.4256 24.8344 14.3131 25.9688 15.9537 24.6656C13.2912 25.05 11.6881 23.9906 9.84119 24.4781H9.85056Z" fill="#FFFF00"/>
<path fill-rule="evenodd" clip-rule="evenodd" d="M33.335 24.0094C33.335 26.4771 32.3546 28.8438 30.6097 30.5888C28.8647 32.3337 26.498 33.314 24.0303 33.314C21.5625 33.314 19.1958 32.3337 17.4509 30.5888C15.7059 28.8438 14.7256 26.4771 14.7256 24.0094C14.7256 21.5428 15.7054 19.1773 17.4495 17.4333C19.1936 15.6892 21.5591 14.7094 24.0256 14.7094C26.4921 14.7094 28.8576 15.6892 30.6017 17.4333C32.3458 19.1773 33.3256 21.5428 33.3256 24.0094H33.335Z" fill="#FFFF00"/>
<path fill-rule="evenodd" clip-rule="evenodd" d="M32.135 24.0281C32.135 26.1739 31.2826 28.2318 29.7653 29.7491C28.248 31.2663 26.1901 32.1188 24.0444 32.1188C21.8986 32.1188 19.8407 31.2663 18.3234 29.7491C16.8061 28.2318 15.9537 26.1739 15.9537 24.0281C15.9537 21.8824 16.8061 19.8245 18.3234 18.3072C19.8407 16.7899 21.8986 15.9375 24.0444 15.9375C26.1901 15.9375 28.248 16.7899 29.7653 18.3072C31.2826 19.8245 32.135 21.8824 32.135 24.0281Z" fill="#FF0000"/>
<path fill-rule="evenodd" clip-rule="evenodd" d="M31.01 24.0469C31.01 25.8893 30.2781 27.6562 28.9753 28.959C27.6725 30.2618 25.9055 30.9937 24.0631 30.9937C22.2207 30.9937 20.4537 30.2618 19.1509 28.959C17.8481 27.6562 17.1162 25.8893 17.1162 24.0469C17.1162 22.2044 17.8481 20.4375 19.1509 19.1347C20.4537 17.8319 22.2207 17.1 24.0631 17.1C25.9055 17.1 27.6725 17.8319 28.9753 19.1347C30.2781 20.4375 31.01 22.2044 31.01 24.0469Z" fill="#FFFF00"/>
<path fill-rule="evenodd" clip-rule="evenodd" d="M18.1474 19.5C20.0693 19.4531 22.4599 19.6312 24.0443 20.8875C25.7369 19.8311 27.7297 19.3601 29.7162 19.5469L30.7474 21.4312C29.145 21.285 27.5317 21.5496 26.0599 22.2C27.1118 22.9758 27.9575 23.9976 28.523 25.176C29.0885 26.3543 29.3565 27.6534 29.3037 28.9594C29.0505 29.2781 28.6474 29.625 28.3943 29.9437C28.7693 27.2719 27.363 24.2906 25.3099 22.725C26.9787 25.125 27.963 27.2812 27.6912 30.2625L26.7537 30.8625C27.1849 28.2375 26.5662 25.1437 24.6255 23.3625C25.7505 25.0031 26.8568 27.9562 26.163 30.9562C25.863 31.05 25.3943 31.3031 25.0943 31.3875C25.4618 30.1566 25.5616 28.8614 25.387 27.5888C25.2123 26.3162 24.7673 25.0957 24.0818 24.0094C22.788 25.8656 22.3662 28.6969 23.0974 31.3219C22.7412 31.2281 22.4693 31.1156 22.1037 31.0312C21.5693 28.2187 22.3099 25.0312 23.5943 23.3719C22.2818 24.1312 21.0537 27.375 21.4005 30.6844L20.5287 30.2812C20.1068 27.8156 21.2224 24.6 22.8255 22.7437C21.0068 23.8875 19.5255 26.7094 19.7787 29.7375C19.4974 29.4937 19.2443 29.3719 18.963 29.1187C18.6443 26.475 20.1818 23.8125 21.9724 22.2187C20.463 21.5344 19.1599 21.4031 17.2849 21.4312C17.5755 20.8219 17.8474 20.1094 18.1474 19.4906V19.5Z" fill="#FF0000"/>
</g>
</g>
</g>
<defs>
<clipPath id="clip0_154_54461">
<rect width="48" height="48" fill="white"/>
</clipPath>
<clipPath id="clip1_154_54461">
<rect width="64" height="48" fill="white" transform="translate(-8)"/>
</clipPath>
</defs>
</svg>
