<svg width="40" height="40" viewBox="0 0 40 40" fill="none" xmlns="http://www.w3.org/2000/svg">
<path fill-rule="evenodd" clip-rule="evenodd" d="M20 40C31.0457 40 40 31.0457 40 20C40 8.9543 31.0457 0 20 0C8.9543 0 0 8.9543 0 20C0 31.0457 8.9543 40 20 40ZM20.5366 8.99998C23.3171 8.99998 25.9512 10.0937 27.9268 12.0625C29.9025 14.0312 30.9269 16.6562 31 19.3542C31 25.1146 26.3171 29.7812 20.5366 29.7812C18.7805 29.7812 17.0976 29.3437 15.561 28.5416L10 30L11.4634 24.6041C10.5854 23.0729 10.0732 21.25 10.0732 19.4271C10.0732 13.6666 14.7561 8.99998 20.5366 8.99998ZM25.5854 23.1458C25.3659 23.7291 24.3415 24.3125 23.8293 24.3854C23.3903 24.4583 22.8049 24.4583 22.2195 24.3125C22.1088 24.2683 21.9846 24.2242 21.849 24.176C21.5368 24.065 21.1642 23.9325 20.7561 23.7292C18.1951 22.6657 16.5332 20.1549 16.3084 19.8153C16.302 19.8056 16.2968 19.7977 16.2927 19.7916C16.1464 19.6458 15.1951 18.4062 15.1951 17.0937C15.1951 15.9549 15.691 15.365 15.9656 15.0383C16.0074 14.9885 16.0442 14.9448 16.0732 14.9062C16.2927 14.6146 16.5854 14.6146 16.8049 14.6146H17.3171C17.3326 14.6146 17.349 14.6137 17.3661 14.6129C17.51 14.6057 17.7062 14.5958 17.9025 15.0521C17.9772 15.2259 18.0859 15.4928 18.1997 15.772C18.4199 16.3127 18.6591 16.8998 18.7073 16.9479C18.7805 17.0937 18.7805 17.2396 18.7073 17.3854C18.6342 17.5312 18.561 17.6771 18.4147 17.8229C18.3289 17.9083 18.2432 18.0188 18.1722 18.1103C18.122 18.175 18.0791 18.2302 18.0488 18.2604C17.9025 18.4062 17.7561 18.5521 17.9025 18.7708C18.0488 19.0625 18.561 19.8646 19.3659 20.5937C20.235 21.3361 20.9461 21.6586 21.3204 21.8283C21.3873 21.8587 21.4435 21.8841 21.4878 21.9062C21.7805 22.0521 21.9268 21.9791 22.0732 21.8333C22.2195 21.6875 22.7317 21.1041 22.8781 20.8125C23.0244 20.5208 23.2439 20.5937 23.4634 20.6666C23.6829 20.7396 25 21.3958 25.2195 21.5417C25.5122 21.6875 25.6586 21.7604 25.7317 21.8333C25.8049 22.0521 25.8049 22.5625 25.5854 23.1458Z" fill="white"/>
</svg>
