<svg width="40" height="40" viewBox="0 0 40 40" fill="none" xmlns="http://www.w3.org/2000/svg">
<path fill-rule="evenodd" clip-rule="evenodd" d="M20 40C31.0457 40 40 31.0457 40 20C40 8.9543 31.0457 0 20 0C8.9543 0 0 8.9543 0 20C0 31.0457 8.9543 40 20 40ZM13.9488 22.0886L9.35068 20.3741C8.88308 20.2182 8.88308 19.5168 9.35068 19.3609L28.2886 12.0352C28.6782 11.8793 29.0679 12.269 28.99 12.6586L25.5609 29.0247C25.4829 29.4144 25.0153 29.5702 24.7036 29.3364L20.1055 25.9853C19.7938 25.7515 19.4041 25.7515 19.1703 25.9853L16.5985 28.0895C16.2868 28.3233 15.8192 28.2453 15.7412 27.8557L13.9488 22.0886ZM15.5075 21.2313L24.5477 15.698C24.7036 15.6201 24.8595 15.8539 24.7036 15.9318L17.2999 22.8679C17.0661 23.1017 16.8323 23.4135 16.8323 23.8031L16.5985 25.6735C16.5985 25.9073 16.2088 25.9853 16.1309 25.6735L15.1957 22.2445C14.9619 21.8548 15.1178 21.3872 15.5075 21.2313Z" fill="white"/>
</svg>
