<svg width="48" height="48" viewBox="0 0 48 48" fill="none" xmlns="http://www.w3.org/2000/svg">
<mask id="mask0_71_472" style="mask-type:alpha" maskUnits="userSpaceOnUse" x="0" y="0" width="48" height="48">
<rect width="48" height="48" fill="#D9D9D9"/>
</mask>
<g mask="url(#mask0_71_472)">
<path d="M12.1 35.4425C13.995 34.1552 15.886 33.1455 17.773 32.4135C19.6603 31.6815 21.736 31.3155 24 31.3155C26.264 31.3155 28.3415 31.6815 30.2325 32.4135C32.1235 33.1455 34.0165 34.1552 35.9115 35.4425C37.3525 33.8732 38.4712 32.1323 39.2675 30.22C40.0635 28.3073 40.4615 26.234 40.4615 24C40.4615 19.3973 38.8685 15.5032 35.6825 12.3175C32.4968 9.1315 28.6027 7.5385 24 7.5385C19.3973 7.5385 15.5032 9.1315 12.3175 12.3175C9.1315 15.5032 7.5385 19.3973 7.5385 24C7.5385 26.234 7.9385 28.3073 8.7385 30.22C9.5385 32.1323 10.659 33.8732 12.1 35.4425ZM23.9875 24.769C22.3188 24.769 20.916 24.1963 19.779 23.051C18.6417 21.9057 18.073 20.4987 18.073 18.83C18.073 17.1613 18.6457 15.7583 19.791 14.621C20.9367 13.484 22.3438 12.9155 24.0125 12.9155C25.6812 12.9155 27.084 13.4882 28.221 14.6335C29.3583 15.7788 29.927 17.1858 29.927 18.8545C29.927 20.5232 29.3543 21.9262 28.209 23.0635C27.0633 24.2005 25.6562 24.769 23.9875 24.769ZM24.0235 42C21.5052 42 19.1548 41.5327 16.9725 40.598C14.7902 39.6633 12.8832 38.3775 11.2515 36.7405C9.61983 35.1032 8.33667 33.2 7.402 31.031C6.46733 28.8617 6 26.52 6 24.006C6 21.4917 6.46733 19.148 7.402 16.975C8.33667 14.802 9.6225 12.8968 11.2595 11.2595C12.8968 9.6225 14.8 8.33667 16.969 7.402C19.1383 6.46733 21.48 6 23.994 6C26.5083 6 28.852 6.46733 31.025 7.402C33.198 8.33667 35.1032 9.6225 36.7405 11.2595C38.3775 12.8968 39.6633 14.8025 40.598 16.9765C41.5327 19.1508 42 21.4842 42 23.9765C42 26.4948 41.5327 28.8452 40.598 31.0275C39.6633 33.2098 38.3775 35.1168 36.7405 36.7485C35.1032 38.3802 33.1975 39.6633 31.0235 40.598C28.8492 41.5327 26.5158 42 24.0235 42ZM24 40.4615C25.8847 40.4615 27.7597 40.1372 29.625 39.4885C31.4903 38.8398 33.1705 37.8617 34.6655 36.554C33.1705 35.4053 31.5205 34.5015 29.7155 33.8425C27.9102 33.1835 26.005 32.854 24 32.854C21.995 32.854 20.0835 33.177 18.2655 33.823C16.4475 34.4693 14.8167 35.3797 13.373 36.554C14.8423 37.8617 16.5097 38.8398 18.375 39.4885C20.2403 40.1372 22.1153 40.4615 24 40.4615ZM24.0055 23.231C25.2635 23.231 26.3085 22.8132 27.1405 21.9775C27.9725 21.1418 28.3885 20.095 28.3885 18.837C28.3885 17.579 27.9707 16.534 27.135 15.702C26.2993 14.87 25.2525 14.454 23.9945 14.454C22.7365 14.454 21.6915 14.8718 20.8595 15.7075C20.0275 16.5428 19.6115 17.5895 19.6115 18.8475C19.6115 20.1055 20.0293 21.1505 20.865 21.9825C21.7007 22.8148 22.7475 23.231 24.0055 23.231Z" fill="#346E82"/>
</g>
</svg>
