<svg width="48" height="48" viewBox="0 0 48 48" fill="none" xmlns="http://www.w3.org/2000/svg">
<mask id="mask0_102_1078" style="mask-type:alpha" maskUnits="userSpaceOnUse" x="0" y="0" width="48" height="48">
<rect width="48" height="48" fill="#D9D9D9"/>
</mask>
<g mask="url(#mask0_102_1078)">
<path d="M22.181 29H25.819L24.6845 22.4425C25.2742 22.2449 25.7627 21.9057 26.15 21.425C26.5373 20.9444 26.731 20.3924 26.731 19.769C26.731 19.0077 26.4662 18.3622 25.9365 17.8325C25.4072 17.3032 24.7617 17.0385 24 17.0385C23.2383 17.0385 22.5928 17.3032 22.0635 17.8325C21.5338 18.3622 21.269 19.0077 21.269 19.769C21.269 20.3924 21.4627 20.9444 21.85 21.425C22.2373 21.9057 22.7258 22.2449 23.3155 22.4425L22.181 29ZM24 41.9115C19.9743 40.6935 16.6347 38.2289 13.981 34.5175C11.327 30.8059 10 26.6475 10 22.0425V11.373L24 6.14252L38 11.373V22.0425C38 26.6475 36.673 30.8059 34.019 34.5175C31.3653 38.2289 28.0257 40.6935 24 41.9115ZM24 40.273C27.6283 39.109 30.6123 36.8264 32.952 33.425C35.2917 30.0237 36.4615 26.2295 36.4615 22.0425V12.4345L24 7.76552L11.5385 12.4345V22.0425C11.5385 26.2295 12.7083 30.0237 15.048 33.425C17.3877 36.8264 20.3717 39.109 24 40.273Z" fill="#346E82"/>
</g>
</svg>
