<svg width="48" height="48" viewBox="0 0 48 48" fill="none" xmlns="http://www.w3.org/2000/svg">
<mask id="mask0_71_471" style="mask-type:alpha" maskUnits="userSpaceOnUse" x="0" y="0" width="48" height="48">
<rect width="48" height="48" fill="#D9D9D9"/>
</mask>
<g mask="url(#mask0_71_471)">
<path d="M9.25221 32.9885L14.9695 38.9655C15.1086 39.1115 15.1841 39.2883 15.1962 39.496C15.2085 39.7037 15.133 39.8935 14.9695 40.0655C14.8307 40.2372 14.6626 40.323 14.4652 40.323C14.2678 40.323 14.0874 40.2372 13.9239 40.0655L7.39113 33.1925C7.25711 33.0515 7.15842 32.8977 7.09505 32.731C7.03168 32.5643 7 32.3937 7 32.219C7 32.019 7.03168 31.8422 7.09505 31.6885C7.15842 31.5345 7.25711 31.387 7.39113 31.246L13.9714 24.323C14.1105 24.177 14.2788 24.0975 14.4762 24.0845C14.6736 24.0718 14.8538 24.1513 15.017 24.323C15.1561 24.495 15.2256 24.6783 15.2256 24.873C15.2256 25.068 15.1561 25.2385 15.017 25.3845L9.25221 31.45H38.0524C38.2691 31.45 38.4451 31.5212 38.5804 31.6635C38.7157 31.8058 38.7833 31.991 38.7833 32.219C38.7833 32.4473 38.7157 32.6327 38.5804 32.775C38.4451 32.9173 38.2691 32.9885 38.0524 32.9885H9.25221ZM37.8984 16.6H9.09823C8.88152 16.6 8.70552 16.5288 8.57023 16.3865C8.43494 16.2442 8.3673 16.059 8.3673 15.831C8.3673 15.6027 8.43494 15.4173 8.57023 15.275C8.70552 15.1327 8.88152 15.0615 9.09823 15.0615H37.8984L32.1702 9.0345C32.0311 8.8885 31.9556 8.71167 31.9435 8.504C31.9312 8.29634 32.0067 8.1065 32.1702 7.9345C32.309 7.76284 32.4771 7.677 32.6745 7.677C32.8718 7.677 33.0401 7.76284 33.1792 7.9345L39.7595 14.8575C39.8935 14.9985 39.9982 15.146 40.0736 15.3C40.1493 15.454 40.1872 15.631 40.1872 15.831C40.1872 16.0053 40.1493 16.1693 40.0736 16.323C39.9982 16.477 39.8935 16.6245 39.7595 16.7655L33.2267 23.677C33.0876 23.823 32.9133 23.9025 32.7039 23.9155C32.4942 23.9282 32.3199 23.8487 32.1811 23.677C32.0177 23.505 31.9359 23.3217 31.9359 23.127C31.9359 22.932 32.0177 22.7487 32.1811 22.577L37.8984 16.6Z" fill="#346E82"/>
</g>
</svg>
