<svg fill="none" xmlns="http://www.w3.org/2000/svg" viewBox="0 0 48 48"><mask id="a" style="mask-type:alpha" maskUnits="userSpaceOnUse" x="0" y="0" width="48" height="48"><path fill="#D9D9D9" d="M0 0h48v48H0z"/></mask><g mask="url(#a)"><path d="m24 42-7-1A18 18 0 0 1 7 31a18 18 0 0 1 0-14A18 18 0 0 1 24 6a18 18 0 0 1 18 18 18 18 0 0 1-18 18Zm0-1a22 22 0 0 0 5-11H19l2 6 3 5Zm-2-1-3-4-2-6H9l5 7c2 2 5 3 8 3Zm4 0c3 0 6-1 8-3l5-7h-8a36 36 0 0 1-5 10ZM8 29h9a28 28 0 0 1 0-10H8a13 13 0 0 0 0 5 18 18 0 0 0 0 5Zm10 0h12a32 32 0 0 0 0-10H18a32 32 0 0 0 0 10Zm13 0h9a14 14 0 0 0 0-5 17 17 0 0 0 0-5h-9a62 62 0 0 1 0 7v3Zm0-11h8c-1-3-3-6-5-7-2-2-5-3-8-3l3 4 2 6Zm-12 0h10l-2-6-3-5-3 5-2 6ZM9 18h8a29 29 0 0 1 5-10c-3 0-6 1-8 3-2 1-4 4-5 7Z" fill="#fff"/></g></svg>