<svg width="40" height="40" viewBox="0 0 40 40" fill="none" xmlns="http://www.w3.org/2000/svg">
<g clip-path="url(#clip0_378_141)">
<path fill-rule="evenodd" clip-rule="evenodd" d="M20 40C31.0457 40 40 31.0457 40 20C40 8.9543 31.0457 0 20 0C8.9543 0 0 8.9543 0 20C0 31.0457 8.9543 40 20 40ZM31.9239 25.9475C31.9476 25.9717 31.9714 25.996 31.9714 26.0445V26.0445C31.9714 26.1416 31.9714 26.2386 32.1612 26.4327V26.8208C32.1612 27.0148 32.0663 27.1119 31.8764 27.2089C31.6866 27.306 31.4018 27.403 31.117 27.403L27.8893 27.5H27.8892C27.6994 27.5 27.5095 27.5 27.2248 27.403C26.94 27.3059 26.7501 27.2089 26.5602 27.1119L26.2755 26.9178C26.0856 26.8208 25.8009 26.5297 25.4212 26.1417L25.4211 26.1416L25.4208 26.1413C25.0412 25.7533 24.7565 25.4623 24.5667 25.1712C24.3768 24.8801 24.092 24.589 23.8072 24.395C23.6174 24.2009 23.3326 24.1039 23.1427 24.2009H23.0478L22.8579 24.395C22.763 24.492 22.6681 24.5891 22.5731 24.7831C22.5198 24.8921 22.4964 25.0011 22.4694 25.1272C22.4482 25.2257 22.4249 25.3347 22.3832 25.4623C22.2883 25.7534 22.2883 26.0445 22.2883 26.4327V26.8208C22.2883 26.8693 22.2646 26.8936 22.2408 26.9178C22.2171 26.9421 22.1934 26.9663 22.1934 27.0148L22.0985 27.1119C21.9086 27.3059 21.7187 27.403 21.4339 27.403H20.01C19.4404 27.5 18.8708 27.403 18.2063 27.2089C17.6367 27.0149 17.0671 26.8208 16.5924 26.5297L16.5923 26.5296C16.1177 26.2386 15.6431 25.9475 15.2634 25.6564C14.8837 25.3653 14.5989 25.0742 14.409 24.8802L14.409 24.8801L14.1242 24.589L13.7444 24.2009C13.6495 24.0069 13.3647 23.6187 12.8901 23.0365C12.5938 22.6732 12.3345 22.272 12.0661 21.8566C11.9044 21.6065 11.7394 21.3512 11.561 21.0959C11.446 20.8902 11.3137 20.6579 11.1691 20.4042C10.8364 19.8202 10.4392 19.1232 10.0421 18.379C9.47252 17.2146 8.90293 16.0502 8.42827 14.8858C8.33334 14.6918 8.33334 14.5947 8.33334 14.4977V14.3037L8.42827 14.2066C8.52321 14.1096 8.71307 14.0126 9.09279 14.0126H12.5103C12.5578 14.0126 12.6053 14.0368 12.6527 14.0611C12.7002 14.0853 12.7477 14.1096 12.7951 14.1096C12.8901 14.1096 12.985 14.2066 12.985 14.2066H13.0799C13.1749 14.3036 13.2698 14.4007 13.3647 14.5948C13.4597 14.8373 13.5546 15.0557 13.6495 15.274C13.7445 15.4923 13.8394 15.7106 13.9343 15.9532C14.1242 16.4384 14.314 16.8265 14.409 17.0206L14.5988 17.4087C14.7286 17.8065 14.9027 18.1137 15.0605 18.3923C15.1336 18.5213 15.2032 18.6442 15.2634 18.7671C15.4532 19.1552 15.6431 19.4464 15.833 19.6404C15.9279 19.8345 16.1178 20.0285 16.3076 20.1256C16.4025 20.2226 16.5924 20.3196 16.6873 20.3196C16.7986 20.3196 16.8772 20.2863 16.9424 20.2588C16.9884 20.2393 17.0277 20.2226 17.0671 20.2226C17.162 20.2226 17.162 20.1256 17.162 20.1256C17.2291 20.1256 17.2488 20.0771 17.2881 19.98C17.3044 19.9398 17.3241 19.8913 17.3519 19.8345C17.4468 19.7374 17.5417 19.5434 17.5417 19.2523C17.5417 19.1252 17.5598 18.9982 17.5802 18.855C17.6065 18.6701 17.6367 18.4583 17.6367 18.1849V16.6324C17.6367 16.2443 17.6367 15.9532 17.5417 15.6621C17.5055 15.5509 17.483 15.4539 17.4639 15.371C17.4329 15.2369 17.4105 15.1399 17.3519 15.0799L17.2569 14.8858C17.0671 14.5947 16.6873 14.4007 16.2127 14.3037C16.1177 14.3037 16.1178 14.2066 16.3076 14.0126C16.4025 13.8185 16.5924 13.7215 16.7822 13.6244L16.7823 13.6244C17.162 13.4304 18.2063 13.3333 19.7252 13.3333C20.3897 13.3333 20.9593 13.4304 21.4339 13.5274C21.4814 13.5759 21.5526 13.6002 21.6238 13.6244C21.695 13.6487 21.7662 13.6729 21.8137 13.7215L22.0985 14.0126C22.0985 14.0611 22.1222 14.1338 22.1459 14.2066C22.1696 14.2794 22.1934 14.3522 22.1934 14.4007V14.9829V15.6621V16.5354V17.6027V18.1849V18.7671V19.2523C22.235 19.3374 22.2584 19.4224 22.2795 19.4994C22.3066 19.5979 22.3299 19.6829 22.3832 19.7374L22.668 20.0285C22.668 20.1256 22.763 20.1256 22.8579 20.1256C22.8579 20.2226 23.0478 20.1256 23.1427 20.0285C23.204 19.9032 23.3049 19.8184 23.4198 19.7217C23.4828 19.6687 23.5501 19.6121 23.6173 19.5434C23.7564 19.4013 23.8954 19.2072 24.0717 18.9611C24.1361 18.871 24.2056 18.7741 24.2819 18.6701C24.5666 18.282 24.8514 17.797 25.1361 17.3119L25.1363 17.3116C25.232 17.116 25.3277 16.9243 25.4226 16.7342C25.7985 15.9813 26.1621 15.2528 26.4653 14.4007C26.4653 14.3037 26.4653 14.3036 26.5602 14.2066L26.5602 14.2066L26.6552 14.1096H26.7501H26.8451H27.0349H27.3197H30.9271C31.2119 14.0126 31.4967 14.0126 31.6866 14.1096C31.8764 14.1096 31.9714 14.2066 32.0663 14.3037L32.1612 14.4007C32.3511 14.9829 31.6866 16.2443 30.2626 18.1849C30.0672 18.3847 29.9165 18.5844 29.7184 18.8468C29.6279 18.9669 29.5274 19.1 29.4082 19.2523C29.3593 19.3165 29.3119 19.3787 29.2661 19.4389C28.6893 20.1959 28.357 20.6322 28.269 20.9018C28.1741 21.29 28.1741 21.5811 28.4589 21.9692C28.5105 22.0219 28.5691 22.089 28.6385 22.1685C28.8246 22.3814 29.0883 22.6832 29.5031 23.0365C30.6423 24.1039 31.4967 25.0742 31.8764 25.8505C31.8764 25.899 31.9002 25.9232 31.9239 25.9475Z" fill="white"/>
</g>
<defs>
<clipPath id="clip0_378_141">
<rect width="40" height="40" fill="white"/>
</clipPath>
</defs>
</svg>
