<svg width="34" height="34" viewBox="0 0 34 34" fill="none" xmlns="http://www.w3.org/2000/svg">
<path d="M2.25221 25.9885L7.96948 31.9655C8.10857 32.1115 8.18413 32.2883 8.19617 32.496C8.20853 32.7037 8.13296 32.8935 7.96948 33.0655C7.8307 33.2372 7.66262 33.323 7.46523 33.323C7.26785 33.323 7.08741 33.2372 6.92392 33.0655L0.391132 26.1925C0.257111 26.0515 0.158417 25.8977 0.0950501 25.731C0.0316834 25.5643 0 25.3937 0 25.219C0 25.019 0.0316834 24.8422 0.0950501 24.6885C0.158417 24.5345 0.257111 24.387 0.391132 24.246L6.97145 17.323C7.11054 17.177 7.27878 17.0975 7.47617 17.0845C7.67355 17.0718 7.85383 17.1513 8.017 17.323C8.15609 17.495 8.22563 17.6783 8.22563 17.873C8.22563 18.068 8.15609 18.2385 8.017 18.3845L2.25221 24.45H31.0524C31.2691 24.45 31.4451 24.5212 31.5804 24.6635C31.7157 24.8058 31.7833 24.991 31.7833 25.219C31.7833 25.4473 31.7157 25.6327 31.5804 25.775C31.4451 25.9173 31.2691 25.9885 31.0524 25.9885H2.25221ZM30.8984 9.6H2.09823C1.88152 9.6 1.70552 9.52884 1.57023 9.3865C1.43494 9.24417 1.3673 9.059 1.3673 8.831C1.3673 8.60267 1.43494 8.41734 1.57023 8.275C1.70552 8.13267 1.88152 8.0615 2.09823 8.0615H30.8984L25.1702 2.0345C25.0311 1.8885 24.9556 1.71167 24.9435 1.504C24.9312 1.29634 25.0067 1.1065 25.1702 0.934503C25.309 0.762837 25.4771 0.677002 25.6745 0.677002C25.8718 0.677002 26.0401 0.762837 26.1792 0.934503L32.7595 7.8575C32.8935 7.9985 32.9982 8.146 33.0736 8.3C33.1493 8.454 33.1872 8.631 33.1872 8.831C33.1872 9.00534 33.1493 9.16934 33.0736 9.323C32.9982 9.47701 32.8935 9.6245 32.7595 9.7655L26.2267 16.677C26.0876 16.823 25.9133 16.9025 25.7039 16.9155C25.4942 16.9282 25.3199 16.8487 25.1811 16.677C25.0177 16.505 24.9359 16.3217 24.9359 16.127C24.9359 15.932 25.0177 15.7487 25.1811 15.577L30.8984 9.6Z" fill="white"/>
</svg>
