<svg width="48" height="48" viewBox="0 0 48 48" fill="none" xmlns="http://www.w3.org/2000/svg">
<g clip-path="url(#clip0_154_54492)">
<mask id="mask0_154_54492" style="mask-type:alpha" maskUnits="userSpaceOnUse" x="0" y="0" width="48" height="48">
<circle cx="24" cy="24" r="24" fill="#D9D9D9"/>
</mask>
<g mask="url(#mask0_154_54492)">
<g clip-path="url(#clip1_154_54492)">
<path d="M-8 0H56V48H-8V0Z" fill="#012169"/>
<path d="M-0.5 0L23.9 18.1L48.2 0H56V6.2L32 24.1L56 41.9V48H48L24 30.1L0.0999994 48H-8V42L15.9 24.2L-8 6.4V0H-0.5Z" fill="white"/>
<path d="M34.4 28.1L56 44V48L28.9 28.1H34.4ZM16 30.1L16.6 33.6L-2.6 48H-8L16 30.1ZM56 0V0.3L31.1 19.1L31.3 14.7L51 0H56ZM-8 0L15.9 17.6H9.9L-8 4.2V0Z" fill="#C8102E"/>
<path d="M16.1 0V48H32.1V0H16.1ZM-8 16V32H56V16H-8Z" fill="white"/>
<path d="M-8 19.3V28.9H56V19.3H-8ZM19.3 0V48H28.9V0H19.3Z" fill="#C8102E"/>
</g>
</g>
</g>
<defs>
<clipPath id="clip0_154_54492">
<rect width="48" height="48" fill="white"/>
</clipPath>
<clipPath id="clip1_154_54492">
<rect width="64" height="48" fill="white" transform="translate(-8)"/>
</clipPath>
</defs>
</svg>
